<?xml version="1.0" encoding="utf-8"?>
<!-- Generator: Adobe Illustrator 18.0.0, SVG Export Plug-In . SVG Version: 6.00 Build 0)  -->
<!DOCTYPE svg PUBLIC "-//W3C//DTD SVG 1.1//EN" "http://www.w3.org/Graphics/SVG/1.1/DTD/svg11.dtd">
<svg version="1.1" id="Слой_1" xmlns="http://www.w3.org/2000/svg" xmlns:xlink="http://www.w3.org/1999/xlink" x="0px" y="0px"
	 width="20px" height="20px" viewBox="6 6.3 20 20" enable-background="new 6 6.3 20 20" xml:space="preserve">
<g>
	<g>
		<path fill="#FFFFFF" d="M16.1,26.3c-2.9-0.1-5.3-1.1-7.3-3.1c-0.4-0.4-0.4-1,0-1.4c0.4-0.4,1-0.4,1.5,0c0.7,0.7,1.4,1.3,2.3,1.7
			c4.6,2.2,10.1-0.4,11.2-5.4c1-4.5-1.9-8.8-6.4-9.6c-2.2-0.4-4.3,0.1-6.1,1.5c-0.3,0.2-0.6,0.3-1,0.2c-0.4-0.1-0.6-0.4-0.7-0.8
			C9.5,9,9.7,8.7,10,8.4c0.8-0.6,1.7-1.1,2.6-1.5c5.5-2.1,11.7,1.2,13.1,6.9c1.4,5.3-1.9,10.8-7.2,12.1c-0.4,0.1-0.8,0.2-1.1,0.2
			C16.9,26.3,16.5,26.3,16.1,26.3z"/>
		<path fill="#FFFFFF" d="M18,16.4c-0.1,0-0.1,0-0.2,0c-0.3,0-0.5,0-0.8,0c0,0.3,0,0.5,0,0.8c0,0.1,0,0.3,0,0.4
			c-0.1,0.5-0.6,0.8-1.1,0.7c-0.5-0.1-0.9-0.5-0.9-1c0-0.3,0-0.6,0-1c-0.7,0-1.3,0-2,0c-0.1,0.2-0.1,0.5-0.2,0.7
			c-0.5,1.5-2.1,2.4-3.6,2.3c-1.7-0.2-2.9-1.4-3.1-3c-0.2-1.7,0.8-3.3,2.4-3.8c1.6-0.5,3.3,0.2,4.1,1.6c0.1,0.1,0.2,0.2,0.3,0.2
			c2,0,4,0,6,0c0.7,0,1.1,0.4,1.1,1.1c0,1,0,1.9,0,2.9c0,0.4-0.3,0.8-0.7,0.9c-0.4,0.1-0.9,0-1.1-0.4c-0.1-0.2-0.2-0.4-0.2-0.6
			C18,17.6,18,17.1,18,16.4C18,16.5,18,16.5,18,16.4z M11,15.9c0-0.8-0.6-1.5-1.5-1.5C8.7,14.4,8,15,8,15.9c0,0.8,0.7,1.5,1.5,1.5
			C10.3,17.4,11,16.7,11,15.9z"/>
	</g>
</g>
</svg>
