<?xml version="1.0" encoding="utf-8"?>
<!-- Generator: Adobe Illustrator 18.0.0, SVG Export Plug-In . SVG Version: 6.00 Build 0)  -->
<!DOCTYPE svg PUBLIC "-//W3C//DTD SVG 1.1//EN" "http://www.w3.org/Graphics/SVG/1.1/DTD/svg11.dtd">
<svg version="1.1" id="Слой_1" xmlns="http://www.w3.org/2000/svg" xmlns:xlink="http://www.w3.org/1999/xlink" x="0px" y="0px"
	 width="54px" height="54px" viewBox="0.3 -0.5 54 54" enable-background="new 0.3 -0.5 54 54" xml:space="preserve">
<g>
	<path fill="#FFFFFF" d="M42.4,28.5c5.8,1.5,8.4,7.2,7.7,11.7c-0.8,4.8-4.5,8.1-8.9,8.7c-5.1,0.7-10.1-2.5-11.4-7.7
		c-7.1,2-13.6,0.8-19.1-4.2c-4.2-3.7-6.3-8.6-6.4-14.2C4.1,11.5,13.4,2.4,24.8,3c6.4,0.4,11.5,3.2,15.1,8.5
		C43.5,16.7,44.2,22.4,42.4,28.5z M41.1,22.5c-0.1-0.8-0.1-1.7-0.2-2.5c-0.1-0.5-0.2-1-0.3-1.4C38.4,8.9,28.1,3,18.6,6.1
		C7.7,9.6,3.1,22.3,9.3,31.9c4.2,6.5,12.5,9.4,19.8,7c0.3-0.1,0.4-0.2,0.4-0.5c0.2-5.6,4.5-10,10.1-10.1c0.3,0,0.4-0.1,0.5-0.4
		C40.7,26.1,41,24.4,41.1,22.5z M47.9,38.6c0-4.4-3.6-8-8-8c-4.4,0-8,3.6-8.1,8c0,4.5,3.6,8.1,8.1,8.1C44.3,46.6,47.9,43,47.9,38.6z
		"/>
	<path fill="#FFFFFF" d="M22.6,12.2c0.8,0,1.5,0,2.3,0c0,0.7,0,1.3,0,2c1.4,0.2,2.6,0.6,3.7,1.6c-0.3,0.6-0.7,1.2-1,1.8
		c-0.2-0.1-0.3-0.2-0.5-0.3c-1.3-0.8-2.6-1.3-4.1-0.9c-0.4,0.1-0.7,0.3-1,0.5c-1.2,0.9-1.2,2.4,0,3.3c0.6,0.4,1.3,0.7,2,1.1
		c1,0.5,2.2,1,3.1,1.6c2.4,1.6,2.1,4.5,0.9,6.1c-0.7,0.9-1.7,1.4-2.8,1.7c-0.3,0.1-0.3,0.2-0.3,0.4c0,0.6,0,1.2,0,1.8
		c-0.8,0-1.5,0-2.3,0c0-0.6,0-1.1,0-1.6c0-0.3-0.1-0.5-0.4-0.6c-1.5-0.3-2.9-1.1-3.7-2c0.4-0.5,0.8-1.1,1.2-1.7
		c0.3,0.2,0.5,0.4,0.8,0.6c1.2,0.8,2.6,1.3,4.1,1.1c1.5-0.2,2.4-1.5,2-2.8c-0.1-0.5-0.5-1-0.9-1.2c-0.6-0.5-1.4-0.8-2.1-1.2
		c-0.8-0.4-1.6-0.7-2.4-1.2c-1.6-0.9-2.5-2.1-2.3-4c0.2-1.9,1.4-3.1,3.2-3.7c0.5-0.2,0.6-0.4,0.6-0.9C22.6,13.1,22.6,12.7,22.6,12.2
		z"/>
	<path fill="#FFFFFF" d="M41,44.3c-0.8,0-1.5,0-2.3,0c0-1.5,0-3,0-4.6c-1.5,0-3.1,0-4.6,0c0-0.8,0-1.5,0-2.3c1.5,0,3,0,4.6,0
		c0-1.6,0-3.1,0-4.6c0.8,0,1.5,0,2.3,0c0,1.5,0,3,0,4.6c1.5,0,3,0,4.6,0c0,0.8,0,1.5,0,2.3c-1.5,0-3,0-4.5,0
		C41,41.3,41,42.8,41,44.3z"/>
</g>
</svg>
