<?xml version="1.0" encoding="utf-8"?>
<!-- Generator: Adobe Illustrator 18.0.0, SVG Export Plug-In . SVG Version: 6.00 Build 0)  -->
<!DOCTYPE svg PUBLIC "-//W3C//DTD SVG 1.1//EN" "http://www.w3.org/Graphics/SVG/1.1/DTD/svg11.dtd">
<svg version="1.1" id="Слой_1" xmlns="http://www.w3.org/2000/svg" xmlns:xlink="http://www.w3.org/1999/xlink" x="0px" y="0px"
	 width="49px" height="52px" viewBox="5.4 5.5 49 52" enable-background="new 5.4 5.5 49 52" xml:space="preserve">
<g>
	<g>
		<g>
			<path fill="#FFFFFF" d="M24.9,40.8c2.2,1.3,3.8,3.2,4.9,5.6c1.1-2.4,2.8-4.2,5-5.6c-2.2-2.4-3.1-5.2-2.4-8.4
				c0.5-2.3,1.6-4.1,3.5-5.5c3.6-2.8,8.8-2.5,12.1,0.8c3.3,3.2,4,9,0.2,13.1c0.1,0.1,0.2,0.1,0.2,0.2c3.8,2.6,5.7,6.1,5.8,10.6
				c0,1.5,0,3,0,4.5c0,0.9-0.4,1.3-1.4,1.3c-1.9,0-3.8,0-5.8,0c-13.3,0-26.6,0-39.9,0c-0.2,0-0.4,0-0.6,0c-0.5-0.1-1-0.4-1-1
				c0-2.6-0.3-5.3,0.3-7.9c0.8-3.2,2.6-5.8,5.4-7.6c0.1-0.1,0.2-0.1,0.3-0.2c-2.1-2.3-3-4.9-2.5-7.9c0.3-2.3,1.5-4.2,3.2-5.7
				c3.5-3,8.8-2.8,12.2,0.3C28,30.5,28.9,36.6,24.9,40.8z M51.9,55.1c0-1.4,0.1-2.7,0-4c-0.2-3.8-2.1-6.7-5.4-8.6
				c-0.2-0.1-0.4-0.2-0.7,0c-2.8,1.4-5.7,1.4-8.5,0c-0.3-0.1-0.5-0.1-0.7,0c-2.2,1.3-3.8,3.1-4.8,5.5c-0.9,2.3-0.7,4.7-0.7,7.1
				c0,0,0,0,0.1,0.1C38,55.1,45,55.1,51.9,55.1z M28.7,55.1c0-1.4,0.1-2.7,0-4c-0.3-3.8-2.1-6.7-5.4-8.6c-0.2-0.1-0.4-0.2-0.7,0
				c-2.8,1.4-5.7,1.4-8.5,0c-0.3-0.1-0.5-0.1-0.7,0c-2.2,1.3-3.8,3.1-4.8,5.5c-0.9,2.3-0.7,4.7-0.7,7.1c0,0,0,0,0.1,0.1
				C14.8,55.1,21.8,55.1,28.7,55.1z M18.3,41.2c3.8,0,7-3.1,7-6.9c0-3.9-3.1-7-6.9-7c-3.8,0-7,3.1-7,6.9
				C11.3,38.1,14.4,41.2,18.3,41.2z M41.5,41.2c3.8,0,7-3.1,6.9-7c0-3.8-3.1-7-7-6.9c-3.8,0-6.9,3.1-6.9,7
				C34.5,38.1,37.7,41.2,41.5,41.2z"/>
		</g>
	</g>
	<g>
		<path fill="#FFFFFF" d="M29.4,5.7c-8.2,0-14.9,6.7-14.9,14.9c0,2,0.4,3.9,1.1,5.6c0.5-0.4,1.1-0.8,1.8-1c-0.6-1.4-0.9-3-0.9-4.6
			c0-7.1,5.8-12.9,12.9-12.9s12.9,5.8,12.9,12.9c0,1.6-0.3,3.1-0.8,4.5c0.6,0.4,1.1,0.8,1.6,1.2c0,0,0,0,0,0.1
			c0.8-1.8,1.2-3.7,1.2-5.8C44.2,12.3,37.6,5.7,29.4,5.7z"/>
	</g>
	<g>
		<path fill="#FFFFFF" d="M30.1,14.1c0,1.4,0,2.6,0,3.9c0.4,0.1,0.9,0.1,1.3,0.3c0.4,0.1,0.9,0.2,1.3,0.4c1.2,0.6,1.7,1.4,1.5,2.6
			c-0.3,1.9-1.8,3.2-4,3.4c0,0-0.1,0-0.1,0c0,0.6,0,1.2,0,1.8c-0.7,0-1.4,0-2.1,0c0-0.6,0-1.3,0-1.9c-1.5-0.3-2.7-0.9-3.4-2
			c-0.5-0.7-0.7-1.5-0.7-2.3c0.6,0,1.3,0,1.9,0c0.1,0,0.2,0.1,0.2,0.2c0.1,1.1,0.8,1.9,2,2.2c0-1,0-2,0-3c-0.5-0.1-1.1-0.3-1.6-0.5
			c-1.1-0.4-1.9-1-2.3-2c-0.6-1.5,0-3.1,1.5-4.1c0.6-0.4,1.4-0.7,2.1-0.9c0.2,0,0.3-0.1,0.3-0.3c0-0.4,0-0.9,0-1.3c0.7,0,1.4,0,2,0
			c0,0.5,0,1,0,1.6c1.4,0.2,2.4,0.9,3.2,1.9c0.6,0.8,1,1.8,1,2.8c-0.7,0.1-1.3,0.1-2,0.2C32,15.8,31.6,14.7,30.1,14.1z M28,17.9
			c0-1.3,0-2.4,0-3.6c-0.8,0.1-1.8,0.7-2,1.4c-0.3,1,0,1.5,0.9,1.9C27.3,17.6,27.6,17.7,28,17.9z M30.1,22.9c1.3-0.1,2.2-1.1,2-2.2
			c0-0.1-0.1-0.2-0.2-0.3c-0.5-0.4-1.2-0.5-1.9-0.6C30.1,20.9,30.1,21.9,30.1,22.9z"/>
	</g>
</g>
</svg>
