<?xml version="1.0" encoding="utf-8"?>
<!-- Generator: Adobe Illustrator 18.0.0, SVG Export Plug-In . SVG Version: 6.00 Build 0)  -->
<!DOCTYPE svg PUBLIC "-//W3C//DTD SVG 1.1//EN" "http://www.w3.org/Graphics/SVG/1.1/DTD/svg11.dtd">
<svg version="1.1" id="Слой_1" xmlns="http://www.w3.org/2000/svg" xmlns:xlink="http://www.w3.org/1999/xlink" x="0px" y="0px"
	 width="100px" height="100px" viewBox="7 7 100 100" enable-background="new 7 7 100 100" xml:space="preserve">
<g>
	<g>
		<path fill="#A8C4E6" d="M55.4,71.1c-4.8,0-9.5,0-14.2,0c-1.5,0-2.5-1-2.5-2.5c0-8.1,0-16.1,0-24.2c0-0.8,0.2-1.5,0.9-2
			C40,42.1,40.5,42,41,42c9.6,0,19.3,0,28.9,0c1.4,0,2.3,0.9,2.3,2.4c0,4.3,0,8.6,0,13c0,3.8,0,7.6,0,11.5c0,1.1-0.6,2-1.6,2.3
			c-0.3,0.1-0.6,0.1-0.8,0.1C64.9,71.1,60.2,71.1,55.4,71.1z M55.4,68.9c1.1,0,2.2,0,3.3,0c3,0,6,0,9,0c1.2,0,2.2-0.9,2.2-2.1
			c0-0.2,0-0.4,0-0.7c0-0.2,0.1-0.3,0.2-0.5c0.3-0.3,0.5-0.7,0.5-1.2c0-0.9,0-1.9,0-2.8c0-0.5-0.2-0.9-0.5-1.2
			c-0.1-0.1-0.2-0.3-0.2-0.4c0-2.1,0-4.2,0-6.4c0-0.1,0.1-0.3,0.2-0.4c0.3-0.3,0.5-0.7,0.5-1.2c0-0.9,0-1.9,0-2.8
			c0-0.3-0.1-0.7-0.3-0.9C70,48,70,47.7,70,47.2c0-0.2,0-0.5,0-0.7c0-1.5-0.9-2.4-2.4-2.4c-8.1,0-16.2,0-24.3,0
			c-1.6,0-2.4,0.9-2.4,2.4c0,6.6,0,13.3,0,19.9c0,1.5,0.9,2.4,2.4,2.4C47.3,68.9,51.4,68.9,55.4,68.9z"/>
		<path fill="#A8C4E6" d="M43.8,72.6c1,0,1.9,0,2.9,0c0,0.8,0,1.5,0,2.3c0,0.4-0.3,0.6-0.7,0.6c-0.5,0-1,0-1.5,0
			c-0.4,0-0.7-0.3-0.7-0.7C43.8,74,43.8,73.3,43.8,72.6z"/>
		<path fill="#A8C4E6" d="M67.1,72.6c0,0.8,0,1.5,0,2.2c0,0.4-0.3,0.7-0.7,0.7c-0.5,0-1,0-1.5,0c-0.4,0-0.7-0.2-0.7-0.6
			c0-0.8,0-1.5,0-2.3C65.2,72.6,66.1,72.6,67.1,72.6z"/>
		<path fill="#A8C4E6" d="M55.4,67.4c-4,0-8,0-12,0c-0.8,0-1.1-0.2-1.1-1.1c0-6.6,0-13.2,0-19.8c0-0.8,0.2-1,1-1c8,0,16.1,0,24.1,0
			c0.8,0,1,0.2,1,1c0,0.2,0,0.4,0,0.6c0,0.4,0,0.8-0.4,1.1c-0.2,0.2-0.3,0.6-0.3,0.9c0,0.9,0,1.9,0,2.8c0,0.5,0.2,0.8,0.5,1.2
			c0.1,0.1,0.2,0.3,0.2,0.4c0,2.1,0,4.2,0,6.4c0,0.1-0.1,0.3-0.2,0.4c-0.4,0.3-0.5,0.7-0.5,1.2c0,0.9,0,1.9,0,2.8
			c0,0.5,0.2,0.9,0.5,1.2c0.1,0.1,0.2,0.3,0.2,0.4c0,1.2-0.1,1.4-1.3,1.4C63.3,67.4,59.3,67.4,55.4,67.4z M53.4,59.6
			c0.3,0.1,0.4,0.3,0.6,0.3c0.6,0.1,0.8,0.4,0.7,1c-0.1,0.4,0.3,0.7,0.7,0.7c0.4,0,0.8-0.3,0.7-0.7c-0.1-0.6,0.2-0.8,0.7-1
			c0.5-0.2,0.8-0.2,1.2,0.3c0.3,0.4,0.8,0.3,1.1,0c0.3-0.3,0.3-0.7,0-1c-0.2-0.2-0.4-0.3-0.6-0.5c0.2-0.5,0.4-1,0.6-1.4
			c0.2,0,0.4,0,0.7,0c0.5,0,0.8-0.3,0.8-0.7c0-0.4-0.3-0.7-0.8-0.7c-0.2,0-0.5,0-0.7,0c-0.1-0.3-0.1-0.5-0.3-0.7
			c-0.3-0.5-0.2-0.8,0.2-1.1c0.4-0.3,0.4-0.8,0.1-1.1c-0.3-0.3-0.8-0.3-1.1,0.1c-0.3,0.4-0.6,0.4-1.1,0.2c-0.5-0.2-0.8-0.4-0.7-1
			c0-0.4-0.3-0.8-0.7-0.7c-0.4,0-0.7,0.3-0.7,0.8c0,0.2,0,0.5,0,0.7c-0.5,0.2-0.9,0.4-1.4,0.6c-0.1-0.2-0.3-0.3-0.4-0.5
			c-0.3-0.3-0.7-0.3-1,0c-0.3,0.3-0.3,0.7,0,1c0.2,0.2,0.4,0.3,0.6,0.5c-0.2,0.3-0.3,0.4-0.3,0.5c-0.1,0.6-0.4,0.9-1.1,0.8
			c-0.4-0.1-0.7,0.3-0.7,0.7c0,0.4,0.3,0.7,0.7,0.7c0.3,0,0.5,0,0.8,0c0.2,0.4,0.4,0.9,0.6,1.3c-0.2,0.2-0.4,0.3-0.5,0.5
			c-0.3,0.3-0.3,0.7,0,1c0.3,0.3,0.7,0.3,1,0C53,60,53.2,59.8,53.4,59.6z M44.5,56.5c0,1.4,0,2.8,0,4.3c0,1.2,0.9,2.2,2,2.3
			c0.5,0,0.9-0.2,0.9-0.6c0-0.4-0.2-0.7-0.8-0.8c-0.5-0.1-0.7-0.3-0.7-0.8c0-2.8,0-5.7,0-8.5c0-0.5,0.2-0.8,0.7-0.8
			c0.5-0.1,0.8-0.4,0.7-0.8c0-0.4-0.4-0.7-0.9-0.7c-1.2,0.1-2,1-2,2.3C44.5,53.7,44.5,55.1,44.5,56.5z"/>
		<path fill="#A8C4E6" d="M55.4,54.3c1.2,0,2.2,1,2.2,2.2c0,1.2-1,2.2-2.2,2.2c-1.2,0-2.2-1-2.2-2.2C53.3,55.3,54.2,54.3,55.4,54.3z
			"/>
	</g>
	<g>
		<path fill="#A8C3E9" d="M55.8,104.8c-26.1,0-47.4-21.2-47.4-47.4S29.7,10,55.8,10s47.4,21.2,47.4,47.4S81.9,104.8,55.8,104.8z
			 M55.8,16.8c-22.4,0-40.6,18.2-40.6,40.6S33.4,98,55.8,98s40.6-18.2,40.6-40.6S78.2,16.8,55.8,16.8z"/>
	</g>
</g>
</svg>
