<?xml version="1.0" encoding="utf-8"?>
<!-- Generator: Adobe Illustrator 18.0.0, SVG Export Plug-In . SVG Version: 6.00 Build 0)  -->
<!DOCTYPE svg PUBLIC "-//W3C//DTD SVG 1.1//EN" "http://www.w3.org/Graphics/SVG/1.1/DTD/svg11.dtd">
<svg version="1.1" id="Слой_1" xmlns="http://www.w3.org/2000/svg" xmlns:xlink="http://www.w3.org/1999/xlink" x="0px" y="0px"
	 viewBox="0.3 -1.2 8 15" enable-background="new 0.3 -1.2 8 15" xml:space="preserve">
<path fill="#FFFFFF" d="M8.3,6.8c0-0.2,0-0.3,0-0.5c0-0.2,0-0.3,0-0.5l0,0c0-0.2-0.2-0.3-0.2-0.5c0,0,0,0,0-0.2l-5-5.8
	C2.5-1.3,1.5-1.3,0.9-0.8S0.2,0.7,0.7,1.3l4.1,5l-4.1,5c-0.5,0.7-0.5,1.7,0.2,2.2c0.7,0.5,1.8,0.5,2.3-0.2l5-5.8c0,0,0,0,0-0.2
	S8.3,7,8.3,6.8L8.3,6.8z"/>
</svg>
