<?xml version="1.0" encoding="utf-8"?>
<!-- Generator: Adobe Illustrator 18.0.0, SVG Export Plug-In . SVG Version: 6.00 Build 0)  -->
<!DOCTYPE svg PUBLIC "-//W3C//DTD SVG 1.1//EN" "http://www.w3.org/Graphics/SVG/1.1/DTD/svg11.dtd">
<svg version="1.1" id="Слой_1" xmlns="http://www.w3.org/2000/svg" xmlns:xlink="http://www.w3.org/1999/xlink" x="0px" y="0px"
	 viewBox="0 0 260 400" enable-background="new 0 0 260 400" xml:space="preserve">
<g>
	<polygon fill="#3A4656" points="30,284.4 78,256.9 83.5,262.6 34.6,291.1 	"/>
	<polyline fill="#3A4656" points="18.7,302.9 166.2,387.7 247.1,337.7 103.8,253.9 	"/>
	<path fill="#B3BDC4" d="M250,333.9c5.6,3.3,5.7,8.6,0.1,11.8l-71.5,41.6c-5.6,3.3-14.8,3.3-20.4,0l-145.5-84
		C7,300,7,294.7,12.6,291.4l71.5-41.6c5.6-3.3,14.8-3.3,20.4,0L250,333.9z M177.6,386.7l71.5-41.6c5.1-2.9,5-7.7-0.1-10.6l-145.5-84
		c-5.1-2.9-13.3-2.9-18.4,0L13.6,292c-5.1,2.9-5,7.7,0.1,10.6l145.5,84C164.3,389.6,172.5,389.6,177.6,386.7"/>
	<path fill="#273544" d="M27.6,291.4c0.6,0.4,0.8,0.9,0,1.4c-0.8,0.5-1.8,0.3-2.4,0c-0.6-0.4-0.8-0.9-0.1-1.4
		C26,290.9,27,291.1,27.6,291.4"/>
	<polygon fill="#273544" points="74.2,272.4 74.5,328.5 25.9,300.4 	"/>
	<path fill="#FFFFFF" d="M209.6,355.7c1.8,1,1.8,2.7,0,3.7l-6,3.5c-1.8,1-4.7,1-6.4,0c-1.8-1-1.8-2.7,0-3.7l6-3.5
		C204.9,354.7,207.8,354.7,209.6,355.7"/>
	<polygon fill="#273544" points="196.4,311.6 196.6,351.9 156,375.5 135.6,363.8 135.1,276.3 	"/>
	<path fill="#A0ABB2" d="M101.2,254.4l134.1,77.4l-79.2,46L21.9,300.4L101.2,254.4z M213.8,341.9l17.5-10.2l-17.6-10.2l-17.3-10
		l-61.3-35.4l-34-19.6l-27,15.7l-48.3,28.1l48.6,28.1l61.1,35.3l20.4,11.8l40.6-23.6L213.8,341.9"/>
	<path fill="#FFFFFF" d="M249,334.5c5.1,2.9,5.1,7.7,0.1,10.6l-71.5,41.6c-5.1,2.9-13.3,2.9-18.4,0l-145.5-84
		c-5.1-2.9-5.1-7.7-0.1-10.6l71.5-41.6c5.1-2.9,13.3-2.9,18.4,0L249,334.5z M156,377.8l79.2-46l-134.1-77.4l-79.2,46L156,377.8
		 M38.7,287.2L78.6,264c1.1-0.6,1.1-1.6,0-2.3c-1.1-0.6-2.8-0.6-3.9,0l-39.9,23.2c-1.1,0.6-1.1,1.6,0,2.3
		C35.8,287.8,37.6,287.8,38.7,287.2 M204.6,363.5l6-3.5c2.3-1.3,2.3-3.5,0-4.9c-2.3-1.3-6.1-1.3-8.4,0l-6,3.5
		c-2.3,1.3-2.3,3.5,0,4.9C198.5,364.8,202.3,364.8,204.6,363.5 M25.3,292.8c0.6,0.4,1.6,0.5,2.4,0c0.8-0.5,0.6-1,0-1.4
		c-0.6-0.4-1.6-0.5-2.4,0C24.4,291.8,24.6,292.4,25.3,292.8"/>
	<path fill="#FFFFFF" d="M77.6,262.3c0.5,0.3,0.5,0.8,0,1.1l-39.9,23.2c-0.5,0.3-1.4,0.3-1.9,0c-0.5-0.3-0.5-0.8,0-1.1l39.9-23.2
		C76.2,262,77.1,262,77.6,262.3"/>
	<polygon fill="#DDDDDD" points="178.6,387.2 178.6,392.9 250.1,351.4 250.1,345.7 	"/>
	<polygon fill="#DDDDDD" points="12.7,308.9 158.2,392.9 158.2,387.3 12.7,303.2 	"/>
	<g>
		<defs>
			<path id="APsvg_1_" d="M103.6,253c0-0.1,0-0.2,0-0.2C103.6,252.9,103.6,253,103.6,253"/>
		</defs>
		<clipPath id="APsvg_2_">
			<use xlink:href="#APsvg_1_"  overflow="visible"/>
		</clipPath>
		
			<linearGradient id="APsvg_3_" gradientUnits="userSpaceOnUse" x1="2117.6665" y1="461.7184" x2="2118.6631" y2="461.7184" gradientTransform="matrix(3.180000e-002 0 0 -3.180000e-002 36.2676 267.5918)">
			<stop  offset="0" style="stop-color:#1E2335"/>
			<stop  offset="1" style="stop-color:#151730"/>
		</linearGradient>
		<rect x="103.6" y="252.8" clip-path="url(#APsvg_2_)" fill="url(#APsvg_3_)" width="0" height="0.2"/>
	</g>
	<g>
		<defs>
			<path id="APsvg_4_" d="M103.8,253.9c0-0.2-0.1-0.4-0.1-0.6C103.7,253.5,103.7,253.7,103.8,253.9 M103.7,253.3c0-0.1,0-0.2,0-0.3
				C103.7,253.1,103.7,253.2,103.7,253.3"/>
		</defs>
		<clipPath id="APsvg_5_">
			<use xlink:href="#APsvg_4_"  overflow="visible"/>
		</clipPath>
		
			<linearGradient id="APsvg_6_" gradientUnits="userSpaceOnUse" x1="416.0895" y1="466.4308" x2="417.0962" y2="466.4308" gradientTransform="matrix(0.1358 0 0 -0.1358 47.1351 316.7949)">
			<stop  offset="0" style="stop-color:#1E2335"/>
			<stop  offset="1" style="stop-color:#151730"/>
		</linearGradient>
		<rect x="103.6" y="253" clip-path="url(#APsvg_5_)" fill="url(#APsvg_6_)" width="0.1" height="0.8"/>
	</g>
	<g>
		<defs>
			<path id="APsvg_7_" d="M103.6,251.9c0,0,0,0.1,0,0.1c0-0.1,0-0.2,0-0.3V251.9z"/>
		</defs>
		<clipPath id="APsvg_8_">
			<use xlink:href="#APsvg_7_"  overflow="visible"/>
		</clipPath>
		
			<linearGradient id="APsvg_9_" gradientUnits="userSpaceOnUse" x1="103.5508" y1="251.8291" x2="103.5605" y2="251.8291" gradientTransform="matrix(8.400000e-003 0 0 -8.400000e-003 33.8643 255.4657)">
			<stop  offset="0" style="stop-color:#1E2335"/>
			<stop  offset="1" style="stop-color:#151730"/>
		</linearGradient>
		<rect x="103.6" y="251.7" clip-path="url(#APsvg_8_)" fill="url(#APsvg_9_)" width="0" height="0.3"/>
	</g>
	<g>
		<defs>
			<path id="APsvg_10_" d="M103.6,252.8c0-0.3,0-0.5,0-0.8C103.6,252.3,103.6,252.5,103.6,252.8"/>
		</defs>
		<clipPath id="APsvg_11_">
			<use xlink:href="#APsvg_10_"  overflow="visible"/>
		</clipPath>
		
			<linearGradient id="APsvg_12_" gradientUnits="userSpaceOnUse" x1="1295.7456" y1="458.9293" x2="1296.7491" y2="458.9293" gradientTransform="matrix(5.030000e-002 0 0 -5.030000e-002 38.3837 275.4723)">
			<stop  offset="0" style="stop-color:#1E2335"/>
			<stop  offset="1" style="stop-color:#151730"/>
		</linearGradient>
		<rect x="103.6" y="252" clip-path="url(#APsvg_11_)" fill="url(#APsvg_12_)" width="0" height="0.8"/>
	</g>
	<g>
		<defs>
			<path id="APsvg_13_" d="M104.3,255.6c-0.2-0.6-0.4-1.2-0.5-1.7C103.9,254.5,104.1,255,104.3,255.6"/>
		</defs>
		<clipPath id="APsvg_14_">
			<use xlink:href="#APsvg_13_"  overflow="visible"/>
		</clipPath>
		
			<linearGradient id="APsvg_15_" gradientUnits="userSpaceOnUse" x1="33.4098" y1="466.8268" x2="34.409" y2="466.8268" gradientTransform="matrix(0.5112 0 0 -0.5112 86.6982 493.3904)">
			<stop  offset="0" style="stop-color:#1E2335"/>
			<stop  offset="1" style="stop-color:#151730"/>
		</linearGradient>
		<rect x="103.8" y="253.9" clip-path="url(#APsvg_14_)" fill="url(#APsvg_15_)" width="0.5" height="1.7"/>
	</g>
	<g>
		<defs>
			<path id="APsvg_16_" d="M105.6,258.2c-0.5-0.8-1-1.7-1.3-2.6C104.6,256.5,105.1,257.3,105.6,258.2"/>
		</defs>
		<clipPath id="APsvg_17_">
			<use xlink:href="#APsvg_16_"  overflow="visible"/>
		</clipPath>
		
			<linearGradient id="APsvg_18_" gradientUnits="userSpaceOnUse" x1="-50.9717" y1="467.2303" x2="-49.9717" y2="467.2303" gradientTransform="matrix(1.3164 0 0 -1.3164 171.3882 871.9639)">
			<stop  offset="0" style="stop-color:#1E2335"/>
			<stop  offset="1" style="stop-color:#151730"/>
		</linearGradient>
		<rect x="104.3" y="255.6" clip-path="url(#APsvg_17_)" fill="url(#APsvg_18_)" width="1.3" height="2.6"/>
	</g>
	<g>
		<defs>
			<path id="APsvg_19_" d="M162.5,261.1c0.3-0.3,0.5-0.5,0.7-0.8C163,260.5,162.8,260.8,162.5,261.1"/>
		</defs>
		<clipPath id="APsvg_20_">
			<use xlink:href="#APsvg_19_"  overflow="visible"/>
		</clipPath>
		
			<linearGradient id="APsvg_21_" gradientUnits="userSpaceOnUse" x1="-10.015" y1="467.0835" x2="-9.0154" y2="467.0835" gradientTransform="matrix(0.7464 0 0 -0.7464 169.9986 609.306)">
			<stop  offset="0" style="stop-color:#1E2335"/>
			<stop  offset="1" style="stop-color:#151730"/>
		</linearGradient>
		<rect x="162.5" y="260.3" clip-path="url(#APsvg_20_)" fill="url(#APsvg_21_)" width="0.7" height="0.8"/>
	</g>
	<linearGradient id="APsvg_22_" gradientUnits="userSpaceOnUse" x1="103.5508" y1="251.7269" x2="166.8701" y2="251.7269">
		<stop  offset="0" style="stop-color:#1E2335"/>
		<stop  offset="1" style="stop-color:#2D2D42"/>
	</linearGradient>
	<path fill="url(#APsvg_22_)" d="M112.7,238.8c-0.4,0.2-0.7,0.4-1.1,0.7h0c-0.8,0.5-1.5,1-2.1,1.5c-1.2,1-2.3,2-3.1,3.1
		c-2,2.5-2.9,5.1-2.9,7.8c0,0,0-0.1,0-0.1v0.2c0,0,0,0.1,0,0.1c0,0.3,0,0.5,0,0.8c0,0.1,0,0.2,0,0.2c0,0.3,0.1,0.6,0.1,0.8
		c0.1,0.6,0.3,1.2,0.5,1.7c0.3,0.9,0.8,1.7,1.3,2.6c0.2,0.3,0.4,0.6,0.6,0.8c0.2,0.3,0.4,0.5,0.7,0.8c0.2,0.3,0.5,0.5,0.7,0.8
		c0.1,0.1,0.3,0.3,0.4,0.4c0.2,0.2,0.5,0.4,0.7,0.7c1.2,1.1,2.6,2.1,4.2,3c12.4,7.2,32.4,7.2,44.8,0c1.5-0.9,2.8-1.8,3.9-2.8
		c0.3-0.3,0.7-0.6,1-0.9c0.3-0.3,0.5-0.5,0.7-0.8c0.5-0.5,0.9-1.1,1.3-1.6c0.2-0.3,0.4-0.5,0.5-0.8c0.1-0.1,0.2-0.3,0.2-0.4
		c0.1-0.1,0.1-0.3,0.2-0.4c0.1-0.2,0.2-0.3,0.2-0.5c0.1-0.3,0.2-0.6,0.3-0.8c0.1-0.1,0.1-0.3,0.2-0.4c0-0.1,0.1-0.3,0.1-0.4
		c0.1-0.3,0.1-0.6,0.2-0.8c0.1-0.4,0.2-0.9,0.2-1.3c0-0.1,0-0.2,0-0.3c0-0.2,0-0.4,0-0.6c0-3-1.2-5.9-3.7-8.6
		c-1.5-1.6-3.4-3.1-5.7-4.5c-3.1-1.8-6.6-3.1-10.4-4c-3.8-0.9-7.9-1.4-12-1.4C127,233.4,118.9,235.2,112.7,238.8"/>
	<linearGradient id="APsvg_23_" gradientUnits="userSpaceOnUse" x1="133.3792" y1="236.4578" x2="159.3942" y2="236.4578">
		<stop  offset="0" style="stop-color:#F9E7CD"/>
		<stop  offset="1" style="stop-color:#FCBE83"/>
	</linearGradient>
	<path fill="url(#APsvg_23_)" d="M159.4,213.5L159.4,213.5c-4.7,6.7-10.3,12.7-16.4,17.3l0,0c-2,1.5-4,2.8-6,4
		c-1.2,0.7-2.5,1.3-3.7,1.9l0,22.7l24.7-14.3L159.4,213.5C159.4,213.5,159.4,213.5,159.4,213.5z"/>
	<path fill="#E8F3F7" d="M153,156.7l0.1,25c0,3.5-0.8,7.3-2.3,10.9l0,3.3c0,0.9-0.6,1.9-1.8,2.6c-0.5,0.3-1,0.5-1.5,0.6
		c-2.8,4.4-6.4,8.1-10.4,10.4c-2.8,1.6-5.4,2.3-7.7,2.2c-0.1,0-0.2,0-0.3,0c-0.1,0-0.1,0-0.2,0c-0.1,0-0.2,0-0.3,0
		c-0.1,0-0.2,0-0.4-0.1c0,0,0,0-0.1,0c-0.1,0-0.2,0-0.4-0.1c-0.1,0-0.2,0-0.2-0.1c-0.2-0.1-0.4-0.1-0.5-0.2c-0.1,0-0.3-0.1-0.4-0.2
		c-0.1,0-0.3-0.1-0.4-0.2c-0.1,0-0.2-0.1-0.3-0.1c-0.1,0-0.2-0.1-0.3-0.2c-0.1,0-0.2-0.1-0.2-0.1c-0.4-0.3-0.8-0.6-1.2-0.9
		c-0.8-0.7-1.5-1.7-2-2.8c-0.7-1.6-1.2-3.5-1.3-5.7c0-0.3,0-0.5,0-0.8l0-1.9l0-8l0-15.1l-22,12.7l0.1,25c0,0.3,0,0.6,0,0.8
		c0,0.2,0,0.5,0,0.7c0,0.3,0,0.5,0,0.8c0,0.3,0,0.5,0,0.8c0,0.3,0,0.5,0.1,0.8c0,0.2,0,0.5,0.1,0.7c0.1,0.5,0.1,1,0.2,1.6
		c0,0.2,0,0.3,0.1,0.5c0,0.1,0,0.2,0,0.2c0,0.2,0.1,0.4,0.1,0.6c0,0.2,0.1,0.5,0.1,0.7c0,0.2,0.1,0.3,0.1,0.5
		c0.1,0.2,0.1,0.5,0.2,0.7c0.1,0.3,0.1,0.5,0.2,0.8c0.1,0.2,0.1,0.4,0.2,0.6c0,0.2,0.1,0.3,0.1,0.5c0.1,0.5,0.3,0.9,0.4,1.3
		c0,0.1,0.1,0.2,0.1,0.3c0.1,0.2,0.2,0.5,0.3,0.7c0.2,0.5,0.4,1,0.6,1.4c0.1,0.1,0.1,0.3,0.2,0.4c0.3,0.7,0.7,1.4,1.1,2
		c0.1,0.2,0.2,0.4,0.3,0.5c0,0.1,0.1,0.1,0.1,0.2c0.1,0.2,0.2,0.3,0.3,0.5c0,0,0.1,0.1,0.1,0.2c0.1,0.2,0.3,0.4,0.4,0.6
		c0,0,0,0,0,0.1c0.1,0.2,0.3,0.4,0.4,0.5c0.1,0.1,0.2,0.2,0.3,0.4c0.1,0.1,0.2,0.3,0.3,0.4c0.2,0.3,0.5,0.5,0.8,0.8
		c0.1,0.1,0.2,0.2,0.4,0.4l0,0c0.2,0.2,0.4,0.4,0.7,0.6c0.3,0.2,0.5,0.5,0.8,0.7c0.1,0.1,0.3,0.2,0.4,0.3c0,0,0.1,0.1,0.1,0.1
		c0.1,0.1,0.2,0.1,0.3,0.2c0.1,0.1,0.3,0.2,0.4,0.3c0.2,0.1,0.3,0.2,0.5,0.3c6.9,4.1,16.6,3.6,27.2-2.6c2-1.2,4-2.5,6-4l0,0
		c6-4.6,11.6-10.6,16.3-17.3l0,0c9.5-13.5,15.7-30,15.6-44.5l-0.1-25L153,156.7z"/>
	<path fill="#ACCFE2" d="M137.8,172.8c0,2.5-0.4,5.1-1.2,7.7c-0.5,1.7-1.2,3.5-2,5.2c0,0,0,0,0,0c0,0,0,0.1,0,0.1
		c-0.3,0.7-0.7,1.4-1,2v0c-1.1,2-2.3,3.8-3.7,5.5c-1,1.3-2.2,2.5-3.3,3.6h0c-0.6,0.6-1.2,1.1-1.9,1.6c-0.5,0.4-1,0.8-1.5,1.1
		c-0.4,0.2-0.7,0.5-1.1,0.7c-0.1,0.1-0.3,0.2-0.4,0.2c-0.3,0.2-0.6,0.3-0.9,0.5c0.1,2.2,0.5,4.1,1.3,5.7c0.5,1.1,1.2,2.1,2,2.8
		c0.4,0.4,0.8,0.7,1.2,0.9c0.1,0,0.1,0.1,0.2,0.1c0.1,0.1,0.2,0.1,0.3,0.2c0.1,0,0.2,0.1,0.3,0.1c0.1,0.1,0.2,0.1,0.4,0.2
		c0.1,0.1,0.3,0.1,0.4,0.2c0.2,0.1,0.4,0.1,0.5,0.2c0.1,0,0.2,0,0.2,0.1c0.1,0,0.2,0.1,0.4,0.1c0,0,0,0,0.1,0c0.1,0,0.2,0,0.4,0.1
		c0.1,0,0.2,0,0.3,0c0.1,0,0.1,0,0.2,0c0.1,0,0.2,0,0.3,0c2.3,0.1,4.9-0.6,7.7-2.2c4-2.3,7.6-6.1,10.4-10.4c1.3-2.1,2.5-4.3,3.4-6.5
		c1.5-3.6,2.3-7.4,2.3-10.9l-0.1-25l-15.3-8.9L137.8,172.8z"/>
	<path fill="#ACCFE2" d="M83.5,204.1c0,12,4.3,20.4,11.1,24.4l15.2,8.8c-0.2-0.1-0.3-0.2-0.5-0.3c-0.1-0.1-0.3-0.2-0.4-0.3
		c-0.1-0.1-0.2-0.1-0.3-0.2c0,0-0.1-0.1-0.1-0.1c-0.2-0.1-0.3-0.2-0.4-0.3c-0.3-0.2-0.6-0.4-0.8-0.7c-0.2-0.2-0.4-0.4-0.7-0.6l0,0
		c-0.1-0.1-0.3-0.2-0.4-0.4c-0.3-0.3-0.5-0.5-0.8-0.8c-0.1-0.1-0.2-0.3-0.3-0.4c-0.1-0.1-0.2-0.2-0.3-0.4c-0.1-0.2-0.3-0.4-0.4-0.5
		c0,0,0,0,0-0.1c-0.1-0.2-0.3-0.4-0.4-0.6c0,0-0.1-0.1-0.1-0.2c-0.1-0.2-0.2-0.3-0.3-0.5c0-0.1-0.1-0.1-0.1-0.2
		c-0.1-0.2-0.2-0.4-0.3-0.5c-0.4-0.6-0.7-1.3-1.1-2c-0.1-0.1-0.1-0.3-0.2-0.4c-0.2-0.5-0.4-0.9-0.6-1.4c-0.1-0.2-0.2-0.4-0.3-0.7
		c0-0.1-0.1-0.2-0.1-0.3c-0.2-0.4-0.3-0.9-0.4-1.3c-0.1-0.2-0.1-0.3-0.1-0.5c-0.1-0.2-0.1-0.4-0.2-0.6c-0.1-0.3-0.1-0.5-0.2-0.8
		c-0.1-0.2-0.1-0.4-0.2-0.7c0-0.2-0.1-0.3-0.1-0.5c0-0.2-0.1-0.5-0.1-0.7c0-0.2-0.1-0.4-0.1-0.6c0-0.1,0-0.2,0-0.2
		c0-0.2-0.1-0.3-0.1-0.5c-0.1-0.5-0.1-1-0.2-1.6c0-0.2,0-0.5-0.1-0.7c0-0.2,0-0.5-0.1-0.8c0-0.3,0-0.5,0-0.8c0-0.3,0-0.5,0-0.8
		c0-0.2,0-0.5,0-0.7c0-0.3,0-0.6,0-0.8l-0.1-25l-15.3-8.9L83.5,204.1z"/>
	<polygon fill="#344CA3" points="137.7,147.8 153,156.7 152.9,133.4 137.6,124.5 	"/>
	<polygon fill="#314293" points="137.6,124.5 152.9,133.4 174.9,120.7 159.6,111.8 	"/>
	<polygon fill="#0A62CC" points="152.9,133.4 152.9,139 153,156.7 174.9,144 174.9,120.7 	"/>
	<polygon fill="#B21818" points="83.5,179.1 98.7,188 98.7,164.7 83.4,155.8 	"/>
	<polygon fill="#A50808" points="83.4,155.8 98.7,164.7 120.7,152 105.4,143.1 	"/>
	<polygon fill="#C93535" points="98.7,164.7 98.7,170.3 98.7,188 120.7,175.3 120.7,152 	"/>
	<g>
		<defs>
			<path id="APsvg_24_" d="M124.7,198.4c0,0.9,0.6,1.9,1.9,2.6c0-2.9,0-6.7,0-9.6c-1.2-0.7-1.9-1.7-1.9-2.6L124.7,198.4z"/>
		</defs>
		<clipPath id="APsvg_25_">
			<use xlink:href="#APsvg_24_"  overflow="visible"/>
		</clipPath>
		
			<linearGradient id="APsvg_26_" gradientUnits="userSpaceOnUse" x1="-67.6803" y1="466.9342" x2="-66.6804" y2="466.9342" gradientTransform="matrix(1.895 0 0 -1.895 252.9219 1079.7446)">
			<stop  offset="0" style="stop-color:#F9E7CD"/>
			<stop  offset="1" style="stop-color:#FCBE83"/>
		</linearGradient>
		<rect x="124.7" y="188.8" clip-path="url(#APsvg_25_)" fill="url(#APsvg_26_)" width="1.9" height="12.2"/>
	</g>
	<g>
		<defs>
			<polygon id="APsvg_27_" points="126.5,201 131,203.6 131.1,194 126.6,191.4 			"/>
		</defs>
		<clipPath id="APsvg_28_">
			<use xlink:href="#APsvg_27_"  overflow="visible"/>
		</clipPath>
		
			<linearGradient id="APsvg_29_" gradientUnits="userSpaceOnUse" x1="-89.3372" y1="467.0277" x2="-88.3374" y2="467.0277" gradientTransform="matrix(4.5303 0 0 -4.5303 531.2596 2313.29)">
			<stop  offset="0" style="stop-color:#F9E7CD"/>
			<stop  offset="1" style="stop-color:#FCBE83"/>
		</linearGradient>
		<rect x="126.5" y="191.4" clip-path="url(#APsvg_28_)" fill="url(#APsvg_29_)" width="4.5" height="12.2"/>
	</g>
	<g>
		<defs>
			<path id="APsvg_30_" d="M140.1,194c-2.5,1.4-6.5,1.4-9,0l0,9.6c2.5,1.4,6.5,1.4,9,0c1.2-0.7,1.8-1.6,1.8-2.6l0-9.6
				C141.9,192.4,141.3,193.3,140.1,194"/>
		</defs>
		<clipPath id="APsvg_31_">
			<use xlink:href="#APsvg_30_"  overflow="visible"/>
		</clipPath>
		
			<linearGradient id="APsvg_32_" gradientUnits="userSpaceOnUse" x1="-108.9069" y1="465.2825" x2="-107.907" y2="465.2825" gradientTransform="matrix(-15.0047 -6.7399 -6.7399 15.0047 1646.1853 -7513.6694)">
			<stop  offset="0" style="stop-color:#F9E7CD"/>
			<stop  offset="1" style="stop-color:#FCBE83"/>
		</linearGradient>
		<polygon clip-path="url(#APsvg_31_)" fill="url(#APsvg_32_)" points="140.1,209.1 126,202.8 132.9,187.4 147,193.7 		"/>
	</g>
	<g>
		<defs>
			<path id="APsvg_33_" d="M120.8,200.3c0,0.3,0,0.5,0,0.8c0.1,2.2,0.5,4.1,1.3,5.7l0-6.4l0-1.2l-1.3-0.8L120.8,200.3z"/>
		</defs>
		<clipPath id="APsvg_34_">
			<use xlink:href="#APsvg_33_"  overflow="visible"/>
		</clipPath>
		
			<linearGradient id="APsvg_35_" gradientUnits="userSpaceOnUse" x1="-103.076" y1="468.5084" x2="-102.0771" y2="468.5084" gradientTransform="matrix(22.995 17.8105 17.8105 -22.995 -5865.6001 12801.8076)">
			<stop  offset="0" style="stop-color:#F9E7CD"/>
			<stop  offset="1" style="stop-color:#FCBE83"/>
		</linearGradient>
		<polygon clip-path="url(#APsvg_34_)" fill="url(#APsvg_35_)" points="121.3,197.8 126.1,201.6 121.6,207.4 116.8,203.7 		"/>
	</g>
	<g>
		<defs>
			<path id="APsvg_36_" d="M132.7,197.7c-0.1,0.1-0.1,0.2-0.2,0.3c-0.3,0.4-0.8,0.9-1.4,1.2c0,0,0,0,0,0c-1.2,0.7-2.9,1.1-4.5,1
				c-0.3,0-0.7,0-1-0.1c-0.8-0.1-1.6-0.3-2.3-0.5c-0.4-0.1-0.7-0.3-1.1-0.5l0,1.2l0,6.4c0.5,1.1,1.2,2.1,2,2.8
				c2.3,0.6,5.1,0.3,7-0.8c1.2-0.7,1.8-1.6,1.8-2.6l0-1.9l0-7.7C132.9,197,132.8,197.3,132.7,197.7"/>
		</defs>
		<clipPath id="APsvg_37_">
			<use xlink:href="#APsvg_36_"  overflow="visible"/>
		</clipPath>
		
			<linearGradient id="APsvg_38_" gradientUnits="userSpaceOnUse" x1="-103.0794" y1="468.4805" x2="-102.0789" y2="468.4805" gradientTransform="matrix(22.995 17.8105 17.8105 -22.995 -5863.1348 12798.7725)">
			<stop  offset="0" style="stop-color:#F9E7CD"/>
			<stop  offset="1" style="stop-color:#FCBE83"/>
		</linearGradient>
		<polygon clip-path="url(#APsvg_37_)" fill="url(#APsvg_38_)" points="126.2,191.4 139.5,201.7 128.9,215.4 115.5,205.1 		"/>
	</g>
	<g>
		<defs>
			<path id="APsvg_39_" d="M120.8,190.4l0,8l1.3,0.8c0.3,0.2,0.7,0.4,1.1,0.5c0.7,0.3,1.5,0.4,2.3,0.5c0.3,0,0.7,0.1,1,0.1
				c1.6,0,3.3-0.3,4.5-1c0,0,0,0,0,0c0.6-0.4,1.1-0.8,1.4-1.2c0.1-0.1,0.1-0.2,0.2-0.3c0.2-0.3,0.3-0.7,0.3-1c0-0.9-0.6-1.9-1.9-2.6
				l-1.2-0.7l-3.3-1.9c-0.6-0.3-1.2-0.6-1.9-0.7c-0.8-0.2-1.7-0.3-2.6-0.3C121.6,190.3,121.2,190.4,120.8,190.4"/>
		</defs>
		<clipPath id="APsvg_40_">
			<use xlink:href="#APsvg_39_"  overflow="visible"/>
		</clipPath>
		
			<linearGradient id="APsvg_41_" gradientUnits="userSpaceOnUse" x1="-103.0794" y1="468.5525" x2="-102.0795" y2="468.5525" gradientTransform="matrix(22.995 17.8105 17.8105 -22.995 -5860.75 12795.7061)">
			<stop  offset="0" style="stop-color:#F9E7CD"/>
			<stop  offset="1" style="stop-color:#FCBE83"/>
		</linearGradient>
		<polygon clip-path="url(#APsvg_40_)" fill="url(#APsvg_41_)" points="125.3,184.5 137.8,194.1 128.4,206.2 115.9,196.6 		"/>
	</g>
	<linearGradient id="APsvg_42_" gradientUnits="userSpaceOnUse" x1="151.1728" y1="202.0771" x2="160.2266" y2="202.0771">
		<stop  offset="0" style="stop-color:#F9E7CD"/>
		<stop  offset="1" style="stop-color:#FCBE83"/>
	</linearGradient>
	<path fill="url(#APsvg_42_)" d="M155.7,189.9c-2.3,1.3-4.2,4.4-4.5,7.1c0,0.2,0,0.5,0,0.7l0,13.9c0,0.2,0,0.5,0,0.7
		c0.3,2.3,2.2,3.2,4.5,1.9c2.5-1.4,4.5-4.9,4.5-7.8l0-13.9c0-2-1-3.2-2.5-3.2C157.1,189.3,156.4,189.5,155.7,189.9"/>
	<g>
		<g>
			<linearGradient id="APsvg_43_" gradientUnits="userSpaceOnUse" x1="133.568" y1="188.8555" x2="158.8691" y2="188.8555">
				<stop  offset="0" style="stop-color:#F9E7CD"/>
				<stop  offset="1" style="stop-color:#FCBE83"/>
			</linearGradient>
			<path fill="url(#APsvg_43_)" d="M150.6,184.8c-0.2-0.1-0.3-0.1-0.5-0.2c-0.3-0.3-0.7-0.7-1.2-1l-4.5-2.6
				c-1.2-0.7-2.9-1.1-4.5-1.1c-1.6,0-3.3,0.4-4.5,1.1c-2.3,1.3-2.4,3.4-0.5,4.8c0.2,0.1,0.4,0.3,0.6,0.4l4.5,2.6
				c0.1,0.1,2.1,1.3,3.3,2c-0.1,0.4-0.2,0.9-0.3,1.3c0,0.2,0,0.5,0,0.7l8.3,4.8c0-0.2,0-0.5,0-0.7c0.3-2.7,2.2-5.7,4.5-7.1
				c1.2-0.7,2.4-0.8,3.2-0.3L150.6,184.8z"/>
		</g>
	</g>
	<g>
		<g>
			<linearGradient id="APsvg_44_" gradientUnits="userSpaceOnUse" x1="124.2812" y1="193.9225" x2="150.6603" y2="193.9225">
				<stop  offset="0" style="stop-color:#F9E7CD"/>
				<stop  offset="1" style="stop-color:#FCBE83"/>
			</linearGradient>
			<path fill="url(#APsvg_44_)" d="M142,189.8c-0.2-0.1-0.3-0.2-0.5-0.2c-0.3-0.4-0.7-0.7-1.2-1l-4.7-2.7c-1.3-0.7-3-1.1-4.7-1.1
				c-1.7,0-3.4,0.4-4.7,1.1c-2.4,1.4-2.5,3.5-0.6,5c0.2,0.1,0.4,0.3,0.6,0.4l4.7,2.7c0.2,0.1,2.2,1.3,3.4,2.1
				c-0.1,0.5-0.2,0.9-0.3,1.4c0,0.3,0,0.5,0,0.7l8.6,5c0-0.2,0-0.5,0-0.7c0.3-2.8,2.3-5.9,4.6-7.3c1.3-0.7,2.5-0.8,3.3-0.3
				L142,189.8z"/>
		</g>
	</g>
	<g>
		<defs>
			<polygon id="APsvg_45_" points="134,212 142.3,216.8 142.2,202.9 134,198.1 			"/>
		</defs>
		<clipPath id="APsvg_46_">
			<use xlink:href="#APsvg_45_"  overflow="visible"/>
		</clipPath>
		
			<linearGradient id="APsvg_47_" gradientUnits="userSpaceOnUse" x1="-96.4789" y1="467.0176" x2="-95.4788" y2="467.0176" gradientTransform="matrix(8.3293 0 0 -8.3293 937.5529 4097.3569)">
			<stop  offset="0" style="stop-color:#F9E7CD"/>
			<stop  offset="1" style="stop-color:#FCBE83"/>
		</linearGradient>
		<rect x="134" y="198.1" clip-path="url(#APsvg_46_)" fill="url(#APsvg_47_)" width="8.3" height="18.7"/>
	</g>
	<linearGradient id="APsvg_48_" gradientUnits="userSpaceOnUse" x1="142.2422" y1="207.2334" x2="151.2559" y2="207.2334">
		<stop  offset="0" style="stop-color:#F9E7CD"/>
		<stop  offset="1" style="stop-color:#FCBE83"/>
	</linearGradient>
	<path fill="url(#APsvg_48_)" d="M146.7,195.1c-2.5,1.4-4.5,4.9-4.5,7.8l0,13.9c0,2.8,2,4,4.5,2.6c2.3-1.3,4.2-4.4,4.5-7.1
		c0-0.2,0-0.4,0-0.7l0-13.9c0-0.2,0-0.5,0-0.7c-0.2-1.6-1.2-2.5-2.5-2.5C148.1,194.5,147.5,194.7,146.7,195.1"/>
	<linearGradient id="APsvg_49_" gradientUnits="userSpaceOnUse" x1="124.9355" y1="214.0745" x2="134.584" y2="214.0745">
		<stop  offset="0" style="stop-color:#F9E7CD"/>
		<stop  offset="1" style="stop-color:#FCBE83"/>
	</linearGradient>
	<path fill="url(#APsvg_49_)" d="M133.3,222l0-13.9l-8.3-4.8l0,13.9c0,1.4,0.5,2.4,1.3,2.9l8.3,4.8
		C133.8,224.4,133.3,223.4,133.3,222z"/>
	<g>
		<defs>
			<path id="APsvg_50_" d="M129.4,195.5l8.3,4.8c1.2-0.7,2.4-0.8,3.2-0.3l-8.3-4.8c-0.3-0.2-0.7-0.3-1.2-0.3
				C130.8,194.9,130.2,195.1,129.4,195.5"/>
		</defs>
		<clipPath id="APsvg_51_">
			<use xlink:href="#APsvg_50_"  overflow="visible"/>
		</clipPath>
		
			<linearGradient id="APsvg_52_" gradientUnits="userSpaceOnUse" x1="-103.0788" y1="468.5134" x2="-102.0786" y2="468.5134" gradientTransform="matrix(22.995 17.8105 17.8105 -22.995 -5858.0308 12792.1904)">
			<stop  offset="0" style="stop-color:#F9E7CD"/>
			<stop  offset="1" style="stop-color:#FCBE83"/>
		</linearGradient>
		<polygon clip-path="url(#APsvg_51_)" fill="url(#APsvg_52_)" points="133.7,189.3 143.6,196.9 136.6,205.9 126.8,198.3 		"/>
	</g>
	<g>
		<defs>
			<path id="APsvg_53_" d="M124.9,203.3l8.3,4.8c0-2.8,2-6.4,4.5-7.8l-8.3-4.8C127,196.9,124.9,200.4,124.9,203.3"/>
		</defs>
		<clipPath id="APsvg_54_">
			<use xlink:href="#APsvg_53_"  overflow="visible"/>
		</clipPath>
		
			<linearGradient id="APsvg_55_" gradientUnits="userSpaceOnUse" x1="-103.0785" y1="468.5095" x2="-102.0791" y2="468.5095" gradientTransform="matrix(22.995 17.8105 17.8105 -22.995 -5861.4468 12796.5811)">
			<stop  offset="0" style="stop-color:#F9E7CD"/>
			<stop  offset="1" style="stop-color:#FCBE83"/>
		</linearGradient>
		<polygon clip-path="url(#APsvg_54_)" fill="url(#APsvg_55_)" points="129.7,189.3 143.8,200.2 132.9,214.3 118.8,203.4 		"/>
	</g>
	<linearGradient id="APsvg_56_" gradientUnits="userSpaceOnUse" x1="133.2266" y1="212.439" x2="142.2813" y2="212.439">
		<stop  offset="0" style="stop-color:#F9E7CD"/>
		<stop  offset="1" style="stop-color:#FCBE83"/>
	</linearGradient>
	<path fill="url(#APsvg_56_)" d="M137.7,200.3c-2.5,1.4-4.5,4.9-4.5,7.8l0,13.9c0,2.8,2,4,4.5,2.6c2.5-1.4,4.5-4.9,4.5-7.8l0-13.9
		c0-2-1-3.2-2.5-3.2C139.1,199.7,138.4,199.9,137.7,200.3"/>
	<g>
		<defs>
			<path id="APsvg_57_" d="M122.3,223.2c-0.9,0.4-1.7,0.3-2.3,0l6.7,3.9c0.6,0.3,1.4,0.4,2.3,0c3.1-1.3,11.5,2.3,14.7,4.2l-5.9-4.3
				c-2.7-1.6-9.5-4-13.5-4C123.4,222.9,122.8,223,122.3,223.2"/>
		</defs>
		<clipPath id="APsvg_58_">
			<use xlink:href="#APsvg_57_"  overflow="visible"/>
		</clipPath>
		
			<linearGradient id="APsvg_59_" gradientUnits="userSpaceOnUse" x1="-99.4984" y1="461.6691" x2="-98.4985" y2="461.6691" gradientTransform="matrix(6.5674 -6.3849 -6.3849 -6.5674 3716.0874 2640.1685)">
			<stop  offset="0" style="stop-color:#F9E7CD"/>
			<stop  offset="1" style="stop-color:#FCD5A2"/>
		</linearGradient>
		<polygon clip-path="url(#APsvg_58_)" fill="url(#APsvg_59_)" points="115.9,227 132.1,211.1 147.8,227.2 131.5,243 		"/>
	</g>
	<linearGradient id="APsvg_60_" gradientUnits="userSpaceOnUse" x1="103.3428" y1="297.1225" x2="166.8701" y2="297.1225">
		<stop  offset="0" style="stop-color:#1E2335"/>
		<stop  offset="1" style="stop-color:#2D2D42"/>
	</linearGradient>
	<path fill="url(#APsvg_60_)" d="M166.9,252.4c0,0.1,0,0.2,0,0.3c0,0.4-0.1,0.9-0.2,1.3c-0.1,0.3-0.1,0.6-0.2,0.8
		c0,0.1-0.1,0.3-0.1,0.4c0,0.1-0.1,0.3-0.2,0.4c-0.1,0.3-0.2,0.6-0.3,0.8c-0.1,0.2-0.2,0.3-0.2,0.5c-0.1,0.1-0.1,0.3-0.2,0.4
		c-0.1,0.1-0.2,0.3-0.2,0.4c-0.2,0.3-0.3,0.5-0.5,0.8c-0.4,0.6-0.8,1.1-1.3,1.6c-0.2,0.3-0.5,0.5-0.7,0.8c-0.3,0.3-0.6,0.6-1,0.9
		c-1.1,1-2.4,1.9-3.9,2.8c-12.3,7.2-32.4,7.2-44.8,0c-1.6-0.9-3-1.9-4.2-3c-0.2-0.2-0.5-0.4-0.7-0.7c-0.1-0.1-0.3-0.3-0.4-0.4
		c-0.3-0.3-0.5-0.5-0.7-0.8c-0.2-0.3-0.4-0.5-0.7-0.8c-0.2-0.3-0.4-0.6-0.6-0.8c-0.6-0.8-1-1.7-1.3-2.6c-0.2-0.6-0.4-1.2-0.5-1.7
		c-0.1-0.7-0.2-1.3-0.2-2l-0.2,72.1c0,4.7,3.1,9.5,9.3,13.1c12.4,7.2,32.5,7.2,44.8,0c6.1-3.6,9.2-8.2,9.2-12.9l0.2-72.4
		C166.9,252,166.9,252.2,166.9,252.4"/>
	<g>
		<g>
			<linearGradient id="APsvg_61_" gradientUnits="userSpaceOnUse" x1="102.9753" y1="229.4812" x2="137.9688" y2="229.4812">
				<stop  offset="0" style="stop-color:#F9E7CD"/>
				<stop  offset="1" style="stop-color:#FCD5A2"/>
			</linearGradient>
			<path fill="url(#APsvg_61_)" d="M131.3,200.2c-0.3-0.2-0.7-0.3-1.1-0.3c-0.5,0-1.2,0.2-1.8,0.6l-12.9,7.5c-1.2,0.7-2.4,2-3.1,3.5
				l-8.5,16.9c-1.1,2.2-1.2,4.4-0.3,5.6l6.7,3.9c-0.9-1.2-0.8-3.4,0.3-5.6l8.5-16.9c0.8-1.5,1.9-2.8,3.1-3.5l12.9-7.5
				c1.1-0.6,2.1-0.7,2.9-0.3L131.3,200.2z M111,238.6l-0.2-0.3l-0.5-0.6l-6.7-3.9l5.8,6.9l2.3,2.7l12.1,14.3l1.3,0.7
				c1,0.3,2.1,0.5,3.2,0.6l-16.5-19.6L111,238.6z"/>
		</g>
	</g>
	<linearGradient id="APsvg_62_" gradientUnits="userSpaceOnUse" x1="132.696" y1="255.2109" x2="128.1841" y2="223.4095">
		<stop  offset="0" style="stop-color:#F9E7CD"/>
		<stop  offset="1" style="stop-color:#FCBE83"/>
	</linearGradient>
	<path fill="url(#APsvg_62_)" d="M136.7,203.8c-0.1,0-0.3,0-0.4,0.1c-0.1,0-0.1,0-0.2,0.1c-0.2,0.1-0.5,0.2-0.7,0.3
		c-0.1,0-0.2,0.1-0.2,0.1l-12.9,7.5c-1.2,0.7-2.4,2-3.1,3.5l-8.5,16.9c-1.1,2.2-1.2,4.4-0.3,5.6l0.5,0.6l0.2,0.3l0.7,0.9v0
		l16.5,19.6c0.6,0.1,1.3,0.2,1.9,0.3c1.1,0.1,2.1,0.2,3.2,0.2l18.5-10.7c0-4.1-1-7.7-2.5-10.6c-1.9-3.7-4.7-6.5-7.7-8.4
		c-0.3-0.2-0.5-0.3-0.8-0.5c-4.4-2.6-9.1-3.3-11.8-2.3c-0.1,0-0.1,0-0.2,0.1c-0.6,0.2-1.1,0.3-1.5,0.2c-0.1,0-0.1,0-0.2,0
		c0,0,0,0,0,0c-0.1,0-0.1,0-0.2-0.1c0,0-0.1,0-0.1,0c-0.1,0-0.1,0-0.2-0.1c0,0-0.1,0-0.1-0.1c-0.9-0.6-1.4-2.1-0.9-4c0,0,0,0,0-0.1
		c0.5-2.2,2.1-4.4,3.8-5.4l5.6-3.2c2.2-1.3,4-4.4,4-7v-0.7c0-1.3-0.5-2.3-1.3-2.6c0,0,0,0-0.1,0c0,0-0.1,0-0.1-0.1c0,0-0.1,0-0.1,0
		c0,0-0.1,0-0.1,0c-0.2,0-0.3-0.1-0.5-0.1C136.8,203.8,136.8,203.8,136.7,203.8"/>
	<path fill="#DDDDDD" d="M158.2,387.3l0,5.7c5.6,3.3,14.8,3.3,20.4,0l0-5.7C173,390.5,163.8,390.5,158.2,387.3"/>
	<path fill="#DDDDDD" d="M8.4,303c0,2.2,1.4,4.3,4.2,5.9l0-5.7c-2.8-1.6-4.3-3.8-4.2-5.9L8.4,303z"/>
	<path fill="#DDDDDD" d="M250.1,345.7l0,5.7c2.8-1.6,4.2-3.7,4.2-5.9l0-5.7C254.2,342,252.9,344.1,250.1,345.7"/>
</g>
<g id="chip13">
	<path fill="#BA4765" d="M124.2,139.3l1.8,1c-0.7-0.4-1.8-0.4-2.9,0.3l-1.8-1C122.4,138.9,123.4,138.8,124.2,139.3"/>
	<path fill="#BA4765" d="M119.8,144.3l-1.8-1c0.7-1.5,1.8-2.8,3-3.6c0.1,0,0.1-0.1,0.2-0.1l1.8,1c-0.1,0-0.1,0.1-0.2,0.1
		C121.6,141.5,120.5,142.9,119.8,144.3"/>
	<path fill="#BA4765" d="M115.3,155.9l-1.8-1c-2.5-1.5-2.5-4-2.5-4.1l1.8,1C112.8,152,112.8,154.5,115.3,155.9"/>
	<path fill="#BA4765" d="M118,143.2l1.8,1c-0.7-0.4-1.8-0.4-2.9,0.3c-0.1,0-0.1,0.1-0.2,0.1c-2.2,1.4-3.9,4.6-3.8,7.1l-1.8-1
		c-0.1-2.5,1.6-5.7,3.8-7.1c0.1,0,0.1-0.1,0.2-0.1C116.2,142.9,117.2,142.8,118,143.2"/>
	<path fill="#E51C65" d="M123,140.6c-0.1,0-0.1,0.1-0.2,0.1c-1.2,0.8-2.3,2.1-3,3.6c-0.7-0.5-1.8-0.4-3,0.2c-0.1,0-0.1,0.1-0.2,0.1
		c-2.2,1.4-3.9,4.6-3.8,7.1c0,0.3,0,5.4,7.7,5.2c6.3-8.1,6.7-13,6.7-14.1c0-0.1,0-0.1,0-0.2c0,0,0-0.1,0-0.1c-0.1-1.7-1-2.6-2.2-2.6
		C124.3,140,123.7,140.2,123,140.6"/>
</g>
<g id="chip12">
	<path fill="#BA4765" d="M200.2,120.9l1.8,1c-0.7-0.4-1.8-0.4-2.9,0.3l-1.8-1C198.4,120.6,199.4,120.5,200.2,120.9"/>
	<path fill="#BA4765" d="M195.8,126l-1.8-1c0.7-1.5,1.8-2.8,3-3.6c0.1,0,0.1-0.1,0.2-0.1l1.8,1c-0.1,0-0.1,0.1-0.2,0.1
		C197.6,123.2,196.5,124.5,195.8,126"/>
	<path fill="#BA4765" d="M191.3,137.6l-1.8-1c-2.5-1.5-2.5-4-2.5-4.1l1.8,1C188.8,133.7,188.8,136.2,191.3,137.6"/>
	<path fill="#BA4765" d="M194,124.9l1.8,1c-0.7-0.4-1.8-0.4-2.9,0.3c-0.1,0-0.1,0.1-0.2,0.1c-2.2,1.4-3.9,4.6-3.8,7.1l-1.8-1
		c-0.1-2.5,1.6-5.7,3.8-7.1c0.1,0,0.1-0.1,0.2-0.1C192.2,124.5,193.2,124.5,194,124.9"/>
	<path fill="#E51C65" d="M199,122.3c-0.1,0-0.1,0.1-0.2,0.1c-1.2,0.8-2.3,2.1-3,3.6c-0.7-0.5-1.8-0.4-3,0.2c-0.1,0-0.1,0.1-0.2,0.1
		c-2.2,1.4-3.9,4.6-3.8,7.1c0,0.3,0,5.4,7.7,5.2c6.3-8.1,6.7-13,6.7-14.1c0-0.1,0-0.1,0-0.2c0,0,0-0.1,0-0.1c-0.1-1.7-1-2.6-2.2-2.6
		C200.3,121.7,199.7,121.9,199,122.3"/>
</g>
<g id="chip11">
	<path fill="#BA4765" d="M205.5,105.8l3,1.8c-1.3-0.7-3-0.6-4.9,0.5l-3-1.8C202.5,105.2,204.3,105,205.5,105.8"/>
	<path fill="#BA4765" d="M198.1,114.4l-3-1.8c1.2-2.5,3-4.8,5.2-6.1c0.1-0.1,0.3-0.2,0.4-0.2l3,1.8c-0.1,0.1-0.3,0.1-0.4,0.2
		C201.1,109.6,199.3,111.9,198.1,114.4"/>
	<path fill="#BA4765" d="M190.4,134.2l-3-1.8c-4.3-2.5-4.3-6.8-4.3-7.1l3,1.8C186.1,127.5,186.1,131.7,190.4,134.2"/>
	<path fill="#BA4765" d="M194.9,112.5l3,1.8c-1.3-0.7-3-0.6-4.9,0.5c-0.1,0.1-0.3,0.2-0.4,0.2c-3.8,2.4-6.7,7.9-6.5,12.2l-3-1.8
		c-0.2-4.3,2.7-9.7,6.5-12.2c0.1-0.1,0.3-0.2,0.4-0.2C191.9,111.9,193.7,111.8,194.9,112.5"/>
	<path fill="#E51C65" d="M203.6,108c-0.1,0.1-0.3,0.2-0.4,0.2c-2.1,1.4-4,3.6-5.2,6.1c-1.3-0.8-3.1-0.7-5.1,0.4
		c-0.1,0.1-0.3,0.2-0.4,0.2c-3.8,2.4-6.7,7.9-6.5,12.2c0,0.5-0.1,9.2,13.1,8.8c10.7-13.9,11.4-22.1,11.4-24c0-0.1,0-0.2,0-0.3
		c0-0.1,0-0.1,0-0.1c-0.1-2.9-1.7-4.5-3.8-4.5C205.8,107.1,204.7,107.4,203.6,108"/>
</g>
<g id="chip10">
	<path fill="#BA4765" d="M76.4,157l3,1.8c-1.3-0.7-3-0.6-4.9,0.5l-3-1.8C73.4,156.4,75.2,156.3,76.4,157"/>
	<path fill="#BA4765" d="M69,165.6l-3-1.8c1.2-2.5,3-4.8,5.2-6.1c0.1-0.1,0.3-0.2,0.4-0.2l3,1.8c-0.1,0.1-0.3,0.1-0.4,0.2
		C72,160.8,70.2,163.1,69,165.6"/>
	<path fill="#BA4765" d="M61.3,185.5l-3-1.8c-4.3-2.5-4.3-6.8-4.3-7.1l3,1.8C57,178.7,57,183,61.3,185.5"/>
	<path fill="#BA4765" d="M65.8,163.8l3,1.8c-1.3-0.7-3-0.6-4.9,0.5c-0.1,0.1-0.3,0.2-0.4,0.2c-3.8,2.4-6.7,7.9-6.5,12.2l-3-1.8
		c-0.2-4.3,2.7-9.7,6.5-12.2c0.1-0.1,0.3-0.2,0.4-0.2C62.8,163.1,64.6,163,65.8,163.8"/>
	<path fill="#E51C65" d="M74.5,159.2c-0.1,0.1-0.3,0.2-0.4,0.2c-2.1,1.4-4,3.6-5.2,6.1c-1.3-0.8-3.1-0.7-5.1,0.4
		c-0.1,0.1-0.3,0.2-0.4,0.2c-3.8,2.4-6.7,7.9-6.5,12.2c0,0.5-0.1,9.2,13.1,8.8c10.7-13.9,11.4-22.1,11.4-24c0-0.1,0-0.2,0-0.3
		c0-0.1,0-0.1,0-0.1c-0.1-2.9-1.7-4.5-3.8-4.5C76.7,158.3,75.6,158.6,74.5,159.2"/>
</g>
<g id="chip09">
	<path fill="#BA4765" d="M164.5,111.1l-3,1.8c1.3-0.7,3-0.6,4.9,0.5l3-1.8C167.5,110.5,165.8,110.4,164.5,111.1"/>
	<path fill="#BA4765" d="M171.9,119.7l3-1.8c-1.2-2.5-3-4.8-5.2-6.1c-0.1-0.1-0.3-0.2-0.4-0.2l-3,1.8c0.1,0.1,0.3,0.1,0.4,0.2
		C168.9,114.9,170.8,117.2,171.9,119.7"/>
	<path fill="#BA4765" d="M179.6,139.6l3-1.8c4.3-2.5,4.3-6.8,4.3-7.1l-3,1.8C183.9,132.8,183.9,137.1,179.6,139.6"/>
	<path fill="#BA4765" d="M175.1,117.9l-3,1.8c1.3-0.7,3-0.6,4.9,0.5c0.1,0.1,0.3,0.2,0.4,0.2c3.8,2.4,6.7,7.9,6.5,12.2l3-1.8
		c0.2-4.3-2.7-9.7-6.5-12.2c-0.1-0.1-0.3-0.2-0.4-0.2C178.1,117.2,176.4,117.1,175.1,117.9"/>
	<path fill="#E51C65" d="M159.5,116.9c0,0,0,0.1,0,0.1c0,0.1,0,0.2,0,0.3c0,1.9,0.6,10.1,11.4,24c13.1,0.3,13.1-8.4,13.1-8.8
		c0.2-4.3-2.7-9.7-6.5-12.2c-0.1-0.1-0.3-0.2-0.4-0.2c-2-1.1-3.8-1.2-5.1-0.4c-1.2-2.5-3-4.8-5.2-6.1c-0.1-0.1-0.3-0.2-0.4-0.2
		c-1.1-0.6-2.2-0.9-3.1-0.9C161.2,112.4,159.6,114,159.5,116.9"/>
</g>
<g id="chip08">
	<path fill="#BA4765" d="M116.9,133.1l-3,1.8c1.3-0.7,3-0.6,4.9,0.5l3-1.8C119.9,132.5,118.2,132.4,116.9,133.1"/>
	<path fill="#BA4765" d="M124.4,141.7l3-1.8c-1.2-2.5-3-4.8-5.2-6.1c-0.1-0.1-0.3-0.2-0.4-0.2l-3,1.8c0.1,0.1,0.3,0.1,0.4,0.2
		C121.3,136.9,123.2,139.2,124.4,141.7"/>
	<path fill="#BA4765" d="M132.1,161.6l3-1.8c4.3-2.5,4.3-6.8,4.3-7.1l-3,1.8C136.3,154.8,136.4,159.1,132.1,161.6"/>
	<path fill="#BA4765" d="M127.5,139.9l-3,1.8c1.3-0.7,3-0.6,4.9,0.5c0.1,0.1,0.3,0.2,0.4,0.2c3.8,2.4,6.7,7.9,6.5,12.2l3-1.8
		c0.2-4.3-2.7-9.7-6.5-12.2c-0.1-0.1-0.3-0.2-0.4-0.2C130.5,139.2,128.8,139.1,127.5,139.9"/>
	<path fill="#E51C65" d="M111.9,138.9c0,0,0,0.1,0,0.1c0,0.1,0,0.2,0,0.3c0,1.9,0.6,10.1,11.4,24c13.1,0.3,13.1-8.4,13.1-8.8
		c0.2-4.3-2.7-9.7-6.5-12.2c-0.1-0.1-0.3-0.2-0.4-0.2c-2-1.1-3.8-1.2-5.1-0.4c-1.2-2.5-3-4.8-5.2-6.1c-0.1-0.1-0.3-0.2-0.4-0.2
		c-1.1-0.6-2.2-0.9-3.1-0.9C113.6,134.4,112,136,111.9,138.9"/>
</g>
<g id="chip07">
	<g>
		<g>
			<path fill="#BA4765" d="M129.2,156.3c0.2-3.2-2-7.2-4.8-9c-0.1-0.1-0.2-0.1-0.3-0.2c-1.4-0.8-2.7-0.9-3.6-0.4l-0.1,0.1
				c-0.9-1.9-2.2-3.5-3.8-4.6c-0.1-0.1-0.2-0.1-0.3-0.2l-1.3,0.8l1.3-0.8c-1.4-0.8-2.7-0.9-3.7-0.4l-2.2,1.3
				c0.9-0.5,2.2-0.5,3.7,0.4c0.1,0.1,0.2,0.1,0.3,0.2c1.6,1,2.9,2.7,3.8,4.6l0.1-0.1c0.9-0.5,2.2-0.4,3.6,0.4
				c0.1,0.1,0.2,0.1,0.3,0.2c2.8,1.8,5,5.8,4.8,9c0,0.2,0,3.4-3.2,5.2l2.2-1.3C129.3,159.6,129.2,156.5,129.2,156.3l-1.1,0.7
				L129.2,156.3z"/>
		</g>
	</g>
	<path fill="#E51C65" d="M108.9,146c0,0,0,0.1,0,0.1c0,0,0,0.1,0,0.2c0,1.4,0.5,7.5,8.4,17.8c9.8,0.3,9.7-6.2,9.7-6.6
		c0.2-3.2-2-7.2-4.8-9c-0.1-0.1-0.2-0.1-0.3-0.2c-1.5-0.8-2.8-0.9-3.7-0.3c-0.9-1.9-2.2-3.5-3.8-4.6c-0.1-0.1-0.2-0.1-0.3-0.2
		c-0.8-0.5-1.6-0.7-2.3-0.7C110.1,142.7,109,143.8,108.9,146"/>
</g>
<g  id="chip06">
	<g>
		<g>
			<path fill="#BA4765" d="M61.9,174l-1.8-1.1c-0.8-0.4-1.8-0.4-3,0.3l0,0c-0.1,0-0.2,0.1-0.2,0.1c-1.3,0.8-2.4,2.2-3.1,3.7l-0.1,0
				c-0.8-0.4-1.8-0.4-3,0.3c-0.1,0-0.2,0.1-0.2,0.1c-2.3,1.5-4.1,4.8-3.9,7.4l0,0c0,0.2,0,2.8,2.6,4.3l1.8,1.1
				c-2.6-1.5-2.6-4.1-2.6-4.3c-0.1-2.6,1.6-5.9,4-7.4c0.1,0,0.2-0.1,0.2-0.1c1.1-0.7,2.2-0.7,3-0.3l0.1,0.1c0.7-1.5,1.8-2.9,3.1-3.7
				c0.1,0,0.2-0.1,0.2-0.1l0,0C60,173.6,61.1,173.5,61.9,174z"/>
		</g>
	</g>
	<path fill="#E51C65" d="M58.9,174.3c-0.1,0-0.2,0.1-0.2,0.1c-1.3,0.8-2.4,2.2-3.1,3.7c-0.8-0.5-1.9-0.5-3.1,0.2
		c-0.1,0-0.2,0.1-0.2,0.1c-2.3,1.5-4.1,4.8-3.9,7.4c0,0.3,0,5.6,7.9,5.4c6.5-8.4,6.9-13.4,6.9-14.5c0-0.1,0-0.1,0-0.2
		c0,0,0-0.1,0-0.1c-0.1-1.7-1-2.7-2.3-2.7C60.2,173.7,59.5,173.9,58.9,174.3"/>
</g>
<g  id="chip05">
	<path fill="#314293" d="M95.6,152.8c2.1,1.7,2.7,5.7,2.2,9.5l2.6,0.6c0.6-3.8-0.2-7.1-2.3-8.7c-0.2-0.1-0.4-0.3-0.6-0.4l-2.4-1.4
		C95.2,152.6,95.4,152.7,95.6,152.8"/>
	<path fill="#314293" d="M87.6,177.4c-2.7,1.6-5.5,1.9-7.5,0.7l2.4,1.4c2,1.2,4.8,0.8,7.5-0.7c0.2-0.1,0.4-0.2,0.6-0.4l-1.6-1.9
		C88.9,176.6,87.8,177.3,87.6,177.4"/>
	<path fill="#0A62CC" d="M95.2,162.4c-0.2,0.1-0.4,0.2-0.5,0.3c-0.6,0.3-1.2,0.8-1.7,1.3c-0.9,0.8-1.7,1.8-2.4,2.9
		c-0.8,1.2-1.4,2.5-1.7,3.8c-0.9,3-0.6,5.9,1,7.1l0.8,0.7l1,0.8c2.1-1.6,4.2-3.8,6-6.6c1.9-2.9,3.1-6,3.7-8.8l-1.1-0.8l-0.7-0.5
		c-0.6-0.4-1.3-0.7-2-0.7C96.8,161.8,96,162,95.2,162.4"/>
	<path fill="#314293" d="M85.5,157.7c-1.2,0.7-2.4,1.9-3.4,3.4c-2.2,3.4-2.5,7.4-0.6,8.8c0.1,0.1,0.2,0.1,0.3,0.2l2.4,1.4
		c-0.1-0.1-0.2-0.1-0.3-0.2c-1.9-1.5-1.6-5.4,0.6-8.8c1-1.5,2.2-2.7,3.4-3.4c1.4-0.8,2.7-1,3.7-0.4l-2.4-1.4
		c-0.4-0.2-0.9-0.4-1.4-0.4C87.1,157,86.3,157.3,85.5,157.7"/>
	<path fill="#314293" d="M81.6,181.1l-2.4-1.4c-0.2-0.1-0.4-0.3-0.6-0.4c-4.2-3.3-3.7-12.3,1.3-20c2.2-3.5,4.9-6.1,7.7-7.7
		c3.1-1.8,6.1-2.2,8.4-0.8l2.4,1.4c-2.3-1.3-5.4-0.9-8.4,0.8c-2.7,1.6-5.4,4.2-7.7,7.7c-5,7.7-5.6,16.7-1.3,20
		C81.1,180.9,81.3,181,81.6,181.1"/>
	<path fill="#0A62CC" d="M89.9,153.1c-2.7,1.6-5.4,4.2-7.7,7.7c-5,7.7-5.6,16.7-1.3,20c2.4,1.8,5.7,1.5,9.1-0.4
		c0.6-0.3,1.1-0.7,1.7-1.1l-1.1-0.8c-0.2,0.1-0.4,0.3-0.6,0.4c-3,1.7-6,2-8.1,0.4c-3.8-2.9-3.2-10.9,1.2-17.8c2-3.1,4.4-5.4,6.8-6.8
		c3-1.7,6-2,8-0.4c2.1,1.7,2.9,4.9,2.3,8.7l1.1,0.8c1-4.8,0.3-9.1-2.4-11.2c-1.1-0.8-2.3-1.2-3.7-1.2
		C93.6,151.4,91.7,152,89.9,153.1"/>
	<path fill="#0A62CC" d="M85.5,168.2l-0.9-0.7c-0.2-0.2-0.2-0.6,0.1-1.1c0.1-0.2,0.3-0.3,0.4-0.4c0.2-0.1,0.4-0.1,0.5,0l0.9,0.7
		c0.2,0.2,0.2,0.6-0.1,1.1c-0.1,0.2-0.3,0.3-0.4,0.4c-0.1,0.1-0.2,0.1-0.3,0.1C85.6,168.3,85.6,168.2,85.5,168.2 M88.4,167.1
		c0.3-0.1,0.5-0.4,0.9-0.9c0.3-0.5,0.4-0.8,0.5-1.2c0-0.5-0.3-0.8-0.3-0.8c-0.1-0.1-0.1-0.3,0-0.5c0.1-0.1,0.1-0.2,0.2-0.2
		c0.1,0,0.2-0.1,0.2,0c0,0,0.5,0.3,0.5,1.2c0,0.5-0.3,1.2-0.7,1.8c-0.4,0.7-0.9,1.1-1.3,1.3c-0.6,0.3-1.1,0.3-1.3,0.1
		c-0.1-0.1-0.1-0.3,0-0.5c0.1-0.1,0.1-0.2,0.2-0.2c0.1,0,0.2-0.1,0.2,0c0,0,0.2,0.1,0.4,0.1C88.1,167.2,88.2,167.2,88.4,167.1
		 M88.8,163l-0.9-0.7c-0.2-0.2-0.2-0.6,0.1-1.1c0.1-0.2,0.3-0.3,0.4-0.4c0.2-0.1,0.4-0.1,0.5,0l0.9,0.7c0.2,0.2,0.2,0.6-0.1,1.1
		c-0.1,0.2-0.3,0.3-0.4,0.4c-0.1,0.1-0.2,0.1-0.3,0.1C88.9,163.1,88.9,163.1,88.8,163 M87.9,159.1c-1.2,0.7-2.4,1.9-3.4,3.4
		c-2.2,3.4-2.5,7.4-0.6,8.8c1,0.8,2.5,0.7,4-0.2c0.3-0.2,0.5-0.3,0.8-0.5c0.4-1.2,1-2.5,1.7-3.8c0.7-1.1,1.6-2.1,2.4-2.9
		c0.5-2.2,0.1-4.1-1-5c-0.5-0.4-1-0.5-1.6-0.5C89.5,158.4,88.7,158.6,87.9,159.1"/>
</g>
<g  id="chip04">
	<path fill="#314293" d="M40,163.3c-2.7,1.6-4.4,4.9-4.4,9.7c0,5.7,2.4,12.1,6,17.4L44,189c-3.7-5.3-6-11.7-6-17.4
		c0-4.8,1.7-8.1,4.4-9.7L40,163.3z"/>
	<path fill="#314293" d="M50.9,183c1.4,0.8,2.7,1.9,3.9,3.2c1,1.1,1.9,2.4,2.7,3.7c1.7,2.9,2.7,7.9,2.7,10.9l2.4-1.2
		c0-2.9-1-8.2-2.7-11.1c-0.8-1.3-1.7-2.6-2.7-3.7c-1.2-1.3-2.5-2.4-3.9-3.2L50.9,183z"/>
	<path fill="#0A62CC" d="M41.6,188.3l0,2.1l0,2.7c2.6,3.4,5.7,6.3,9.1,8.2c3.5,2,6.8,2.7,9.5,2.2l0-2.7l0-1.8c0-2.9-1-6.2-2.7-9.1
		c-0.8-1.3-1.7-2.6-2.7-3.7c-1.2-1.3-2.5-2.4-3.9-3.2c-1.5-0.9-2.9-1.3-4.1-1.3c0,0,0,0,0,0C43.7,181.7,41.6,184.1,41.6,188.3"/>
	<path fill="#314293" d="M47.8,166.1l-2.4,1.4c1.4-0.8,3.3-0.7,5.3,0.5l2.4-1.4c-1.2-0.7-2.4-1-3.4-1
		C49,165.6,48.4,165.7,47.8,166.1"/>
	<path fill="#314293" d="M50.8,168c4.1,2.4,7.5,8.2,7.5,13c0,2.4-0.8,4-2.2,4.8l2.4-1.4c1.3-0.8,2.2-2.4,2.2-4.8
		c0-4.8-3.3-10.6-7.5-13L50.8,168z"/>
	<g>
		<g>
			<path fill="#314293" d="M53.1,160.8L53.1,160.8c-4.7-2.7-9-3-12.1-1.2l-2.4,1.4c3.1-1.8,7.4-1.6,12.1,1.2l0,0
				c9.4,5.4,17,18.6,17,29.4c0,5.4-1.9,9.1-5,10.9l2.4-1.4c3.1-1.8,5-5.6,5-10.9C70.2,179.4,62.5,166.2,53.1,160.8z"/>
		</g>
	</g>
	<path fill="#0A62CC" d="M33.7,171.9c0,7,3.1,14.9,7.9,21.2l0-2.7c-3.7-5.3-6-11.7-6-17.4c0-9.6,6.8-13.5,15.2-8.6
		c8.3,4.8,15.1,16.5,15.1,26.1c0,5.4-2.2,9.1-5.7,10.3l0,2.7c4.5-0.9,7.6-5.1,7.6-11.9c0-10.8-7.6-24-17-29.4
		c-2.7-1.6-5.3-2.3-7.6-2.3C37.6,159.8,33.7,164.3,33.7,171.9"/>
	<path fill="#0A62CC" d="M50.7,181.1c-2.1-1.2-2.7-3.5-2.8-4.5c0-0.3,0.2-0.4,0.4-0.3c0,0,0,0,0,0c0.2,0.1,0.4,0.5,0.5,0.8
		c0,0.2,0.1,2,1.9,3c0.6,0.3,1,0.4,1.2,0.2c0.4-0.3,0.4-1.1,0.4-1.1c0-0.3,0.2-0.4,0.4-0.3c0,0,0,0,0,0c0.2,0.1,0.4,0.5,0.4,0.8
		c0,0,0,1.3-0.7,1.7c-0.2,0.1-0.4,0.2-0.6,0.2C51.7,181.6,51.2,181.4,50.7,181.1 M53.9,178.7c-0.5-0.3-0.9-1-0.9-1.5l0-2.3
		c0-0.6,0.4-0.8,0.9-0.5c0.5,0.3,0.9,1,0.9,1.5l0,2.3c0,0.4-0.2,0.6-0.5,0.6C54.1,178.8,54,178.8,53.9,178.7 M47.6,175.1
		c-0.5-0.3-0.9-1-0.9-1.5l0-2.3c0-0.6,0.4-0.8,0.9-0.5c0.5,0.3,0.9,1,0.9,1.5l0,2.3c0,0.4-0.2,0.6-0.5,0.6
		C47.9,175.2,47.8,175.2,47.6,175.1 M43.2,172.3c0,3.1,1.4,6.7,3.6,9.4c1.2,0,2.7,0.4,4.1,1.3c1.4,0.8,2.7,1.9,3.9,3.2
		c2.1-0.4,3.4-2.2,3.4-5.3c0-4.8-3.3-10.6-7.5-13c-1.2-0.7-2.4-1-3.4-1C44.9,166.9,43.2,168.9,43.2,172.3"/>
</g>
<g  id="chip03">
	<path fill="#314293" d="M156.5,119.9c-2.7,1.6-4.4,4.9-4.4,9.7c0,5.7,2.4,12.1,6,17.4l2.4-1.4c-3.7-5.3-6-11.7-6-17.4
		c0-4.8,1.7-8.1,4.4-9.7L156.5,119.9z"/>
	<path fill="#314293" d="M167.4,139.6c1.4,0.8,2.7,1.9,3.9,3.2c1,1.1,1.9,2.4,2.7,3.7c1.7,2.9,2.7,7.9,2.7,10.9l2.4-1.2
		c0-2.9-1-8.2-2.7-11.1c-0.8-1.3-1.7-2.6-2.7-3.7c-1.2-1.3-2.5-2.4-3.9-3.2L167.4,139.6z"/>
	<path fill="#0A62CC" d="M158.1,144.9l0,2.1l0,2.7c2.6,3.4,5.7,6.3,9.1,8.2c3.5,2,6.8,2.7,9.5,2.2l0-2.7l0-1.8c0-2.9-1-6.2-2.7-9.1
		c-0.8-1.3-1.7-2.6-2.7-3.7c-1.2-1.3-2.5-2.4-3.9-3.2c-1.5-0.9-2.9-1.3-4.1-1.3c0,0,0,0,0,0C160.2,138.3,158.1,140.7,158.1,144.9"/>
	<path fill="#314293" d="M164.2,122.7l-2.4,1.4c1.4-0.8,3.3-0.7,5.3,0.5l2.4-1.4c-1.2-0.7-2.4-1-3.4-1
		C165.5,122.2,164.8,122.3,164.2,122.7"/>
	<path fill="#314293" d="M167.2,124.6c4.1,2.4,7.5,8.2,7.5,13c0,2.4-0.8,4-2.2,4.8l2.4-1.4c1.3-0.8,2.2-2.4,2.2-4.8
		c0-4.8-3.3-10.6-7.5-13L167.2,124.6z"/>
	<g>
		<g>
			<path fill="#314293" d="M169.6,117.4L169.6,117.4c-4.7-2.7-9-3-12.1-1.2l-2.4,1.4c3.1-1.8,7.4-1.6,12.1,1.2l0,0
				c9.4,5.4,17,18.6,17,29.4c0,5.4-1.9,9.1-5,10.9l2.4-1.4c3.1-1.8,5-5.6,5-10.9C186.6,136,179,122.8,169.6,117.4z"/>
		</g>
	</g>
	<path fill="#0A62CC" d="M150.1,128.5c0,7,3.1,14.9,7.9,21.2l0-2.7c-3.7-5.3-6-11.7-6-17.4c0-9.6,6.8-13.5,15.2-8.6
		c8.3,4.8,15.1,16.5,15.1,26.1c0,5.4-2.2,9.1-5.7,10.3l0,2.7c4.5-0.9,7.6-5.1,7.6-11.9c0-10.8-7.6-24-17-29.4
		c-2.7-1.6-5.3-2.3-7.6-2.3C154,116.4,150.2,120.9,150.1,128.5"/>
	<path fill="#0A62CC" d="M167.2,137.7c-2.1-1.2-2.7-3.5-2.8-4.5c0-0.3,0.2-0.4,0.4-0.3c0,0,0,0,0,0c0.2,0.1,0.4,0.5,0.5,0.8
		c0,0.2,0.1,2,1.9,3c0.6,0.3,1,0.4,1.2,0.2c0.4-0.3,0.4-1.1,0.4-1.1c0-0.3,0.2-0.4,0.4-0.3c0,0,0,0,0,0c0.2,0.1,0.4,0.5,0.4,0.8
		c0,0,0,1.3-0.7,1.7c-0.2,0.1-0.4,0.2-0.6,0.2C168.1,138.2,167.7,138,167.2,137.7 M170.3,135.3c-0.5-0.3-0.9-1-0.9-1.5l0-2.3
		c0-0.6,0.4-0.8,0.9-0.5c0.5,0.3,0.9,1,0.9,1.5l0,2.3c0,0.4-0.2,0.6-0.5,0.6C170.6,135.4,170.5,135.4,170.3,135.3 M164.1,131.7
		c-0.5-0.3-0.9-1-0.9-1.5l0-2.3c0-0.6,0.4-0.8,0.9-0.5c0.5,0.3,0.9,1,0.9,1.5l0,2.3c0,0.4-0.2,0.6-0.5,0.6
		C164.3,131.8,164.2,131.8,164.1,131.7 M159.7,128.9c0,3.1,1.4,6.7,3.6,9.4c1.2,0,2.7,0.4,4.1,1.3c1.4,0.8,2.7,1.9,3.9,3.2
		c2.1-0.4,3.4-2.2,3.4-5.3c0-4.8-3.3-10.6-7.5-13c-1.2-0.7-2.4-1-3.4-1C161.4,123.5,159.7,125.5,159.7,128.9"/>
</g>
<g  id="chip02">
	<path fill="none" d="M106.8,163.2c-1.7,4.6-4.8,8.7-8.1,11.1l2.4,1.4c3.3-2.4,6.4-6.5,8.1-11.1c2.4-6.4,1.5-12.1-1.9-14l-2.4-1.4
		C108.3,151.1,109.2,156.7,106.8,163.2"/>
	<path fill="#314293" d="M91.5,165.8c-1.7,1.5-3.2,3.6-4,6l1.8,2.8c0.9-2.4,2.9-6,4.6-7.5c0.6-0.6,1.7-1.3,2.4-1.7l-2.4-1.4
		C93.3,164.5,92.1,165.2,91.5,165.8"/>
	<path fill="#314293" d="M93.9,164.1l2.4,1.4c-0.8-1.3-0.9-3.6,0-6l-2.4-1.4C93,160.6,93.1,162.8,93.9,164.1"/>
	<path fill="#314293" d="M98.7,152.1c-1.9,1.1-3.8,3.4-4.8,6l2.4,1.4c1-2.7,2.9-4.9,4.8-6c0.9-0.5,1.8-0.8,2.7-0.7
		c0.5,0,0.9,0.2,1.2,0.4l-2.4-1.4c-0.4-0.2-0.8-0.3-1.2-0.4c-0.1,0-0.1,0-0.2,0C100.4,151.4,99.5,151.6,98.7,152.1"/>
	<path fill="#314293" d="M108.3,148.8l-2.4-1.4c-0.8-0.5-1.8-0.8-2.8-0.8c-1.9-0.1-4,0.5-6,1.7c-4.4,2.5-8.6,7.6-10.9,13.6l2.4,1.4
		c2.3-6,6.5-11.1,10.9-13.6c2-1.2,4.1-1.8,6-1.7C106.6,148.1,107.5,148.4,108.3,148.8"/>
	<path fill="#0A62CC" d="M99.5,149.7c-4.4,2.5-8.6,7.6-10.9,13.6c-2.1,5.5-2,10.5-0.2,13.5l0.8-2.2c-1.2-2.7-1.1-6.8,0.5-11.2
		c2-5.3,5.8-9.9,9.7-12.1c1.8-1,3.6-1.6,5.3-1.5c5.3,0.3,7.3,6.9,4.4,14.8c-1.7,4.6-4.8,8.7-8.1,11.1l-0.8,2.2
		c4.1-2.6,8-7.5,10.2-13.2c3.3-8.8,1.1-16.3-4.9-16.6c-0.2,0-0.3,0-0.5,0C103.3,148,101.4,148.6,99.5,149.7"/>
	<g>
		<defs>
			<path id="APsvg_63_" d="M96.8,179.5L96.8,179.5L96.8,179.5z"/>
		</defs>
		<clipPath id="APsvg_64_">
			<use xlink:href="#APsvg_63_"  overflow="visible"/>
		</clipPath>
		
			<linearGradient id="APsvg_65_" gradientUnits="userSpaceOnUse" x1="-215.5615" y1="376.6125" x2="-215.5614" y2="376.6125" gradientTransform="matrix(-5.300000e-002 -0.7574 -0.7574 5.300000e-002 370.6577 -3.7227)">
			<stop  offset="0" style="stop-color:#3040B2"/>
			<stop  offset="1" style="stop-color:#4080DD"/>
		</linearGradient>
		<rect x="96.8" y="179.5" clip-path="url(#APsvg_64_)" fill="url(#APsvg_65_)" width="0" height="0"/>
	</g>
	<path fill="#314293" d="M88.4,177.8l2.4,1.4c-0.9-0.5-1.7-1.3-2.2-2.3l-2.4-1.4C86.7,176.5,87.4,177.2,88.4,177.8"/>
	<path fill="#314293" d="M88.6,163.3l-2.4-1.4c-2.1,5.5-2,10.5-0.2,13.5l2.4,1.4C86.7,173.8,86.6,168.8,88.6,163.3"/>
	<path fill="#0A62CC" d="M99.7,163.5c-0.5,0-0.8-0.3-1-0.7C98.6,162,99,161,99,161c0.1-0.1,0.2-0.3,0.3-0.3c0.1,0,0.1-0.1,0.2,0
		c0.2,0,0.2,0.2,0.1,0.5c0,0-0.3,0.7-0.1,1.1c0.1,0.3,0.3,0.4,0.6,0.5c0.3,0,0.5-0.1,0.7-0.2c0.6-0.4,1-1.2,1-1.3
		c0.1-0.2,0.2-0.3,0.3-0.3c0.1,0,0.1-0.1,0.2,0c0.2,0,0.2,0.2,0.1,0.5c-0.2,0.6-0.8,1.5-1.6,2c-0.3,0.2-0.6,0.3-1,0.3
		C99.8,163.5,99.8,163.5,99.7,163.5 M103,160.1c-0.3,0-0.4-0.4-0.3-0.9l0.7-1.9c0.1-0.3,0.3-0.6,0.6-0.7c0.1-0.1,0.2-0.1,0.3-0.1
		c0.3,0,0.4,0.4,0.3,0.9l-0.7,1.9c-0.1,0.3-0.3,0.6-0.6,0.7C103.2,160.1,103.1,160.1,103,160.1C103,160.1,103,160.1,103,160.1
		 M99,159.9c-0.3,0-0.4-0.4-0.3-0.9l0.7-1.9c0.1-0.3,0.3-0.6,0.6-0.7c0.1-0.1,0.2-0.1,0.3-0.1c0.3,0,0.4,0.4,0.3,0.9l-0.7,1.9
		c-0.1,0.3-0.3,0.6-0.6,0.7C99.2,159.9,99.1,159.9,99,159.9C99,159.9,99,159.9,99,159.9 M101.1,153.5c-1.9,1.1-3.8,3.4-4.8,6
		c-0.9,2.5-0.9,4.7,0,6c1-0.5,1.9-0.7,2.8-0.7c0.9,0.1,1.7,0.4,2.3,1.1c1.8-1.2,3.6-3.3,4.5-5.9c1.5-3.9,0.5-7.2-2.2-7.3
		c-0.1,0-0.1,0-0.2,0C102.8,152.7,101.9,153,101.1,153.5"/>
	<path fill="#0A62CC" d="M96.3,165.5c-0.2,0.1-0.3,0.2-0.5,0.3c-0.6,0.4-1.3,0.8-1.9,1.4c-1.7,1.5-3.2,3.6-4,6l-0.5,1.4l-0.8,2.2
		c1.1,1.8,2.8,3,5.1,3.1c0.2,0,0.4,0,0.6,0c0.4,0,0.8,0,1.2-0.1c0.5-0.1,1-0.2,1.4-0.3c0.1,0,0.3-0.1,0.4-0.1c0.7-0.3,1.4-0.6,2.1-1
		c0.1,0,0.1-0.1,0.2-0.1c0,0,0.1,0,0.1-0.1c0.1,0,0.1-0.1,0.2-0.1c0.1-0.1,0.3-0.2,0.4-0.3l0.8-2.2l0.7-1.8c1.3-3.4,1-6.4-0.4-8
		c-0.6-0.6-1.4-1-2.3-1.1c-0.1,0-0.2,0-0.3,0C98,164.9,97.1,165.1,96.3,165.5"/>
</g>
<g id="chip01">
	<path fill="none" d="M150.8,138.1c-1.7,4.6-4.8,8.7-8.1,11.1l2.4,1.4c3.3-2.4,6.4-6.5,8.1-11.1c2.4-6.4,1.5-12.1-1.9-14l-2.4-1.4
		C152.3,126,153.2,131.7,150.8,138.1"/>
	<path fill="#314293" d="M135.5,140.7c-1.7,1.5-3.2,3.6-4,6l1.8,2.8c0.9-2.4,2.9-6,4.6-7.5c0.6-0.6,1.7-1.3,2.4-1.7l-2.4-1.4
		C137.2,139.5,136.1,140.2,135.5,140.7"/>
	<path fill="#314293" d="M137.8,139.1l2.4,1.4c-0.8-1.3-0.9-3.6,0-6l-2.4-1.4C136.9,135.5,137,137.7,137.8,139.1"/>
	<path fill="#314293" d="M142.6,127c-1.9,1.1-3.8,3.4-4.8,6l2.4,1.4c1-2.7,2.9-4.9,4.8-6c0.9-0.5,1.8-0.8,2.7-0.7
		c0.5,0,0.9,0.2,1.2,0.4l-2.4-1.4c-0.4-0.2-0.8-0.3-1.2-0.4c-0.1,0-0.1,0-0.2,0C144.3,126.3,143.5,126.6,142.6,127"/>
	<path fill="#314293" d="M152.3,123.8l-2.4-1.4c-0.8-0.5-1.8-0.8-2.8-0.8c-1.9-0.1-4,0.5-6,1.7c-4.4,2.5-8.6,7.6-10.9,13.6l2.4,1.4
		c2.3-6,6.5-11.1,10.9-13.6c2-1.2,4.1-1.8,6-1.7C150.5,123,151.5,123.3,152.3,123.8"/>
	<path fill="#0A62CC" d="M143.4,124.6c-4.4,2.5-8.6,7.6-10.9,13.6c-2.1,5.5-2,10.5-0.2,13.5l0.8-2.2c-1.2-2.7-1.1-6.8,0.5-11.2
		c2-5.3,5.8-9.9,9.7-12.1c1.8-1,3.6-1.6,5.3-1.5c5.3,0.3,7.3,6.9,4.4,14.8c-1.7,4.6-4.8,8.7-8.1,11.1l-0.8,2.2
		c4.1-2.6,8-7.5,10.2-13.2c3.3-8.8,1.1-16.3-4.9-16.6c-0.2,0-0.3,0-0.5,0C147.2,122.9,145.3,123.5,143.4,124.6"/>
	<g>
		<defs>
			<path id="APsvg_66_" d="M140.8,154.4L140.8,154.4L140.8,154.4z"/>
		</defs>
		<clipPath id="APsvg_67_">
			<use xlink:href="#APsvg_66_"  overflow="visible"/>
		</clipPath>
		
			<linearGradient id="APsvg_68_" gradientUnits="userSpaceOnUse" x1="-186.6754" y1="316.5868" x2="-186.6753" y2="316.5868" gradientTransform="matrix(-5.300000e-002 -0.7574 -0.7574 5.300000e-002 370.6577 -3.7227)">
			<stop  offset="0" style="stop-color:#3040B2"/>
			<stop  offset="1" style="stop-color:#4080DD"/>
		</linearGradient>
		<rect x="140.8" y="154.4" clip-path="url(#APsvg_67_)" fill="url(#APsvg_68_)" width="0" height="0"/>
	</g>
	<path fill="#314293" d="M132.3,152.7l2.4,1.4c-0.9-0.5-1.7-1.3-2.2-2.3l-2.4-1.4C130.6,151.4,131.4,152.2,132.3,152.7"/>
	<path fill="#314293" d="M132.6,138.3l-2.4-1.4c-2.1,5.5-2,10.5-0.2,13.5l2.4,1.4C130.6,148.8,130.5,143.8,132.6,138.3"/>
	<path fill="#0A62CC" d="M143.7,138.4c-0.5,0-0.8-0.3-1-0.7c-0.2-0.7,0.2-1.7,0.2-1.8c0.1-0.1,0.2-0.3,0.3-0.3c0.1,0,0.1-0.1,0.2,0
		c0.2,0,0.2,0.2,0.1,0.5c0,0-0.3,0.7-0.1,1.1c0.1,0.3,0.3,0.4,0.6,0.5c0.3,0,0.5-0.1,0.7-0.2c0.6-0.4,1-1.2,1-1.3
		c0.1-0.2,0.2-0.3,0.3-0.3c0.1,0,0.1-0.1,0.2,0c0.2,0,0.2,0.2,0.1,0.5c-0.2,0.6-0.8,1.5-1.6,2c-0.3,0.2-0.6,0.3-1,0.3
		C143.7,138.4,143.7,138.4,143.7,138.4 M147,135.1c-0.3,0-0.4-0.4-0.3-0.9l0.7-1.9c0.1-0.3,0.3-0.6,0.6-0.7c0.1-0.1,0.2-0.1,0.3-0.1
		c0.3,0,0.4,0.4,0.3,0.9l-0.7,1.9c-0.1,0.3-0.3,0.6-0.6,0.7C147.2,135,147.1,135.1,147,135.1C147,135.1,147,135.1,147,135.1
		 M143,134.8c-0.3,0-0.4-0.4-0.3-0.9l0.7-1.9c0.1-0.3,0.3-0.6,0.6-0.7c0.1-0.1,0.2-0.1,0.3-0.1c0.3,0,0.4,0.4,0.3,0.9l-0.7,1.9
		c-0.1,0.3-0.3,0.6-0.6,0.7C143.2,134.8,143.1,134.8,143,134.8C143,134.8,143,134.8,143,134.8 M145,128.4c-1.9,1.1-3.8,3.4-4.8,6
		c-0.9,2.5-0.9,4.7,0,6c1-0.5,1.9-0.7,2.8-0.7c0.9,0.1,1.7,0.4,2.3,1.1c1.8-1.2,3.6-3.3,4.5-5.9c1.5-3.9,0.5-7.2-2.2-7.3
		c-0.1,0-0.1,0-0.2,0C146.7,127.7,145.9,128,145,128.4"/>
	<path fill="#0A62CC" d="M140.2,140.5c-0.2,0.1-0.3,0.2-0.5,0.3c-0.6,0.4-1.3,0.8-1.9,1.4c-1.7,1.5-3.2,3.6-4,6l-0.5,1.4l-0.8,2.2
		c1.1,1.8,2.8,3,5.1,3.1c0.2,0,0.4,0,0.6,0c0.4,0,0.8,0,1.2-0.1c0.5-0.1,1-0.2,1.4-0.3c0.1,0,0.3-0.1,0.4-0.1c0.7-0.3,1.4-0.6,2.1-1
		c0.1,0,0.1-0.1,0.2-0.1c0,0,0.1,0,0.1-0.1c0.1,0,0.1-0.1,0.2-0.1c0.1-0.1,0.3-0.2,0.4-0.3l0.8-2.2l0.7-1.8c1.3-3.4,1-6.4-0.4-8
		c-0.6-0.6-1.4-1-2.3-1.1c-0.1,0-0.2,0-0.3,0C141.9,139.8,141.1,140,140.2,140.5"/>
</g>
</svg>
