<?xml version="1.0" encoding="utf-8"?>
<!-- Generator: Adobe Illustrator 18.0.0, SVG Export Plug-In . SVG Version: 6.00 Build 0)  -->
<!DOCTYPE svg PUBLIC "-//W3C//DTD SVG 1.1//EN" "http://www.w3.org/Graphics/SVG/1.1/DTD/svg11.dtd">
<svg version="1.1" id="Слой_1" xmlns="http://www.w3.org/2000/svg" xmlns:xlink="http://www.w3.org/1999/xlink" x="0px" y="0px"
	 width="90px" height="30px" viewBox="-42 -14.8 90 30" enable-background="new -42 -14.8 90 30" xml:space="preserve">
<g>
	<g>
		<path fill="#FFFFFF" d="M2.8,9.1c-3.4,0-6.6-1.2-9.5-3.4C-8.4,4.5-9.9,3-11.2,1.4c-0.3-0.4-0.3-0.7-0.1-1.1
			C-9.6-2-7.8-4.1-5.5-5.8c2-1.5,4.1-2.5,6.6-2.8c3-0.4,5.8,0,8.4,1.4c2.4,1.2,4.4,3,6.1,5c0.7,0.8,1.3,1.6,1.9,2.4
			c0.3,0.4,0.3,0.8,0,1.1c-1.9,2.3-4.1,4.3-6.7,5.8C8.4,8.5,5.8,9.1,2.8,9.1z M-9.5,0.8C-9.5,0.8-9.4,0.8-9.5,0.8
			c1.5,1.8,3.2,3.4,5.2,4.5c4,2.4,8.2,2.8,12.6,1.1c2.3-0.9,4.3-2.4,6-4.1c0.5-0.5,0.9-1,1.4-1.5c-0.3-0.3-0.5-0.6-0.7-0.9
			C13.5-2,11.9-3.7,9.8-5C6.3-7.2,2.6-7.7-1.3-6.2c-2,0.8-3.7,2-5.2,3.5C-7.6-1.6-8.6-0.4-9.5,0.8z"/>
		<path fill="#FFFFFF" d="M3.1-5.7c3.2,0,5.8,2.6,5.8,5.8C8.9,3.4,6.3,6,3.1,6c-3.2,0-5.8-2.6-5.8-5.8C-2.7-3.1-0.1-5.7,3.1-5.7z
			 M3.1-4C0.8-4-1-2.2-1,0.1c0,2.3,1.8,4.1,4.1,4.1c2.3,0,4.1-1.8,4.1-4.1C7.2-2.1,5.4-4,3.1-4z"/>
		<path fill="#FFFFFF" d="M-0.2,0.1c0-1.8,1.5-3.2,3.3-3.3C3.6-3.2,4-2.9,4-2.4c0,0.5-0.3,0.8-0.9,0.9c-1,0.1-1.6,0.7-1.6,1.6
			C1.4,0.7,1.1,1,0.6,1C0.1,1-0.2,0.6-0.2,0.1z"/>
	</g>
	<g>
		<g>
			<polygon fill="#FFFFFF" points="-20,-0.4 -21.2,0.5 -15.4,6.3 -14.2,5.3 			"/>
		</g>
		<g>
			<polygon fill="#FFFFFF" points="-20,1.6 -21.2,0.6 -15.4,-5.2 -14.2,-4.2 			"/>
		</g>
	</g>
	<g>
		<g>
			<polygon fill="#FFFFFF" points="20.2,5.4 21.4,6.4 27.1,0.7 25.9,-0.3 			"/>
		</g>
		<g>
			<polygon fill="#FFFFFF" points="20.1,-4.1 21.3,-5.1 27.1,0.7 25.9,1.7 			"/>
		</g>
	</g>
</g>
</svg>
