<?xml version="1.0" encoding="utf-8"?>
<!-- Generator: Adobe Illustrator 18.0.0, SVG Export Plug-In . SVG Version: 6.00 Build 0)  -->
<!DOCTYPE svg PUBLIC "-//W3C//DTD SVG 1.1//EN" "http://www.w3.org/Graphics/SVG/1.1/DTD/svg11.dtd">
<svg version="1.1" id="Слой_1" xmlns="http://www.w3.org/2000/svg" xmlns:xlink="http://www.w3.org/1999/xlink" x="0px" y="0px"
	 viewBox="293.5 8 154.4 85" enable-background="new 293.5 8 154.4 85" xml:space="preserve">
<polygon fill="#0067CC" points="447.9,93 358.8,93 293.5,8 447.9,8 "/>
<g>
	<path fill="#FFFFFF" d="M387,69.1c-9-0.1-16.8-6.2-18.9-15c-2.6-10.5,4.1-21.3,14.6-23.6c4.8-1,9.3-0.4,13.7,1.9
		c1,0.5,1.3,1.5,0.8,2.4s-1.5,1.2-2.5,0.7c-2.4-1.3-5-2-7.8-2c-7.1,0-13.4,4.8-15.3,11.6c-2.5,9,3.2,18.2,12.4,19.9
		c8.7,1.7,17.1-4.1,18.7-12.8c0.4-2,0.3-4-0.1-6c-0.2-1,0.4-1.9,1.4-2.1c1-0.2,1.9,0.4,2.1,1.4c0.9,4.9,0.2,9.5-2.4,13.8
		c-3,5.1-7.5,8.1-13.3,9.2C389.3,68.9,388.2,69,387,69.1z"/>
	<path fill="#FFFFFF" d="M387.1,50.7c0.1-0.1,0.2-0.3,0.3-0.4c5.3-5.3,10.7-10.7,16-16c0.5-0.5,1.1-0.8,1.8-0.6
		c1.2,0.3,1.7,1.8,0.9,2.8c-0.1,0.1-0.2,0.2-0.3,0.3c-5.8,5.8-11.6,11.6-17.3,17.3c-1,1-1.9,1-2.9,0c-2.3-2.3-4.5-4.5-6.8-6.8
		c-0.5-0.5-0.7-1.1-0.6-1.8c0.3-1.3,1.9-1.8,2.9-0.9c0.4,0.4,0.8,0.8,1.2,1.2c1.5,1.5,2.9,2.9,4.4,4.4
		C386.8,50.4,386.9,50.5,387.1,50.7z"/>
</g>
</svg>
