<?xml version="1.0" encoding="utf-8"?>
<!-- Generator: Adobe Illustrator 18.0.0, SVG Export Plug-In . SVG Version: 6.00 Build 0)  -->
<!DOCTYPE svg PUBLIC "-//W3C//DTD SVG 1.1//EN" "http://www.w3.org/Graphics/SVG/1.1/DTD/svg11.dtd">
<svg version="1.1" id="Слой_1" xmlns="http://www.w3.org/2000/svg" xmlns:xlink="http://www.w3.org/1999/xlink" x="0px" y="0px"
	 width="154.4px" height="85px" viewBox="293.5 8 154.4 85" enable-background="new 293.5 8 154.4 85" xml:space="preserve">
<polygon fill="#CF354B" points="447.9,93 358.8,93 293.5,8 447.9,8 "/>
<g>
	<path fill="#FFFFFF" d="M371.7,50.1c0-10.8,8.7-19.5,19.5-19.6c9.7-0.1,19.5,7.7,19.5,19.5c0,11.3-9.1,19.5-19.5,19.5
		C380.5,69.5,371.8,60.8,371.7,50.1z M391.3,33.3c-9.2,0-16.7,7.5-16.7,16.7c0,9.3,7.5,16.8,16.7,16.8c9.2,0,16.6-7.4,16.8-16.4
		C408.1,40.9,400.5,33.2,391.3,33.3z"/>
	<path fill="#FFFFFF" d="M393.2,50c0.8,0.8,1.5,1.5,2.2,2.2c0.8,0.8,1.7,1.7,2.5,2.5c0.6,0.6,0.6,1.4,0,2c-0.5,0.5-1.4,0.5-2-0.1
		c-1.4-1.4-2.9-2.9-4.3-4.3c-0.1-0.1-0.2-0.2-0.3-0.4c-0.1,0.1-0.2,0.2-0.3,0.3c-1.4,1.4-2.9,2.9-4.3,4.3c-0.4,0.4-0.9,0.6-1.5,0.4
		c-1-0.3-1.3-1.4-0.6-2.2c0.3-0.4,0.7-0.7,1.1-1.1c1.2-1.2,2.3-2.3,3.5-3.5c0.1-0.1,0.1-0.1,0.3-0.3c-0.2-0.1-0.4-0.3-0.5-0.4
		c-1.4-1.4-2.8-2.8-4.2-4.2c-0.3-0.3-0.5-0.7-0.5-1.1c0-0.6,0.3-1,0.8-1.2c0.6-0.2,1.1-0.1,1.5,0.3c1.5,1.4,2.9,2.9,4.4,4.3
		c0.1,0.1,0.2,0.2,0.4,0.4c0.1-0.1,0.1-0.3,0.2-0.4c1.4-1.4,2.9-2.9,4.3-4.3c0.3-0.3,0.7-0.5,1.2-0.5c0.5,0.1,1,0.3,1.2,0.8
		c0.2,0.6,0.1,1.1-0.3,1.5c-1.4,1.5-2.9,2.9-4.3,4.4C393.4,49.8,393.3,49.9,393.2,50z"/>
</g>
</svg>
