<?xml version="1.0" encoding="utf-8"?>
<!-- Generator: Adobe Illustrator 18.0.0, SVG Export Plug-In . SVG Version: 6.00 Build 0)  -->
<!DOCTYPE svg PUBLIC "-//W3C//DTD SVG 1.1//EN" "http://www.w3.org/Graphics/SVG/1.1/DTD/svg11.dtd">
<svg version="1.1" xmlns="http://www.w3.org/2000/svg" xmlns:xlink="http://www.w3.org/1999/xlink" x="0px" y="0px" width="300px"
	 height="245px" viewBox="0 0 300 245" enable-background="new 0 0 300 245" xml:space="preserve">
<g id="BACKGROUND">
</g>
<g id="OBJECTS">
	<g>
		<g>
			<polygon fill="#E6FAFF" points="165,245 300,166.9 135,71.5 0,149.5 			"/>
			<polygon fill="#D1E6ED" points="165,230.9 300,152.8 135,57.4 0,135.4 			"/>
			<polygon fill="#7CA9BF" points="165,230.9 165,233.6 300,155.5 300,152.8 			"/>
			<polygon fill="#95C5D1" points="165,233.6 0,138.1 0,135.4 165,230.9 			"/>
		</g>
		<g>
			<polygon fill="#A6C6DD" points="65.3,113.8 157.8,167.3 219.5,131.7 127,78.2 			"/>
			<polygon fill="#7DA3DB" points="65.3,103.2 157.8,156.6 219.5,121 127,67.6 			"/>
			<polygon fill="#6A8FBA" points="157.8,157.6 157.8,156.6 219.5,121 219.5,122 			"/>
			<path fill="#9CCAEF" d="M214.9,47.3l-81-46.7c-3.2-1.8-7.1,0.5-7.1,4.1v63l91,52.5l0.5,1.5l1-0.5v-66
				C219.4,51.9,217.7,48.9,214.9,47.3z"/>
			<polygon fill="#6A8FBA" points="157.8,157.6 65.3,104.2 65.3,103.2 157.8,156.6 			"/>
			<path fill="#6691C4" d="M218.3,121.7l-92.6-53.4v-63c0-3.6,3.9-5.9,7.1-4.1l81,46.7c2.8,1.6,4.5,4.6,4.5,7.8V121.7z"/>
			<polygon fill="#F6FBFF" points="215,117.3 129.1,67.8 129.1,3.5 215,52.9 			"/>
			<g>
				<path fill="#507CA0" d="M130.9,80.4l-5.8-3.4c-0.3-0.2-0.2-0.4,0.1-0.6l2.5-1.5c0.3-0.2,0.8-0.2,1.1-0.1l5.8,3.4
					c0.3,0.2,0.2,0.4-0.1,0.6l-2.5,1.5C131.7,80.5,131.2,80.5,130.9,80.4z"/>
				<path fill="#507CA0" d="M138.3,84.6l-5.8-3.4c-0.3-0.2-0.2-0.4,0.1-0.6l2.5-1.5c0.3-0.2,0.8-0.2,1.1-0.1l5.8,3.4
					c0.3,0.2,0.2,0.4-0.1,0.6l-2.5,1.5C139,84.7,138.5,84.8,138.3,84.6z"/>
				<path fill="#507CA0" d="M145.6,88.9l-5.8-3.4c-0.3-0.2-0.2-0.4,0.1-0.6l2.5-1.5c0.3-0.2,0.8-0.2,1.1-0.1l5.8,3.4
					c0.3,0.2,0.2,0.4-0.1,0.6l-2.5,1.5C146.3,89,145.9,89,145.6,88.9z"/>
				<path fill="#507CA0" d="M152.9,93.1l-5.8-3.4c-0.3-0.2-0.2-0.4,0.1-0.6l2.5-1.5c0.3-0.2,0.8-0.2,1.1-0.1l5.8,3.4
					c0.3,0.2,0.2,0.4-0.1,0.6L154,93C153.7,93.2,153.2,93.3,152.9,93.1z"/>
				<path fill="#507CA0" d="M160.3,97.4l-5.8-3.4c-0.3-0.2-0.2-0.4,0.1-0.6l2.5-1.5c0.3-0.2,0.8-0.2,1.1-0.1l5.8,3.4
					c0.3,0.2,0.2,0.4-0.1,0.6l-2.5,1.5C161,97.5,160.5,97.5,160.3,97.4z"/>
				<path fill="#507CA0" d="M167.6,101.6l-5.8-3.4c-0.3-0.2-0.2-0.4,0.1-0.6l2.5-1.5c0.3-0.2,0.8-0.2,1.1-0.1l5.8,3.4
					c0.3,0.2,0.2,0.4-0.1,0.6l-2.5,1.5C168.4,101.7,167.9,101.8,167.6,101.6z"/>
				<path fill="#507CA0" d="M175,105.9l-5.8-3.4c-0.3-0.2-0.2-0.4,0.1-0.6l2.5-1.5c0.3-0.2,0.8-0.2,1.1-0.1l5.8,3.4
					c0.3,0.2,0.2,0.4-0.1,0.6l-2.5,1.5C175.7,106,175.2,106,175,105.9z"/>
				<path fill="#507CA0" d="M182.3,110.1l-5.8-3.4c-0.3-0.2-0.2-0.4,0.1-0.6l2.5-1.5c0.3-0.2,0.8-0.2,1.1-0.1l5.8,3.4
					c0.3,0.2,0.2,0.4-0.1,0.6l-2.5,1.5C183,110.2,182.6,110.3,182.3,110.1z"/>
				<path fill="#507CA0" d="M189.6,114.4l-5.8-3.4c-0.3-0.2-0.2-0.4,0.1-0.6l2.5-1.5c0.3-0.2,0.8-0.2,1.1-0.1l5.8,3.4
					c0.3,0.2,0.2,0.4-0.1,0.6l-2.5,1.5C190.4,114.5,189.9,114.5,189.6,114.4z"/>
				<path fill="#507CA0" d="M197,118.6l-5.8-3.4c-0.3-0.2-0.2-0.4,0.1-0.6l2.5-1.5c0.3-0.2,0.8-0.2,1.1-0.1l5.8,3.4
					c0.3,0.2,0.2,0.4-0.1,0.6l-2.5,1.5C197.7,118.7,197.2,118.8,197,118.6z"/>
				<path fill="#507CA0" d="M204.3,122.8l-5.8-3.4c-0.3-0.2-0.2-0.4,0.1-0.6l2.5-1.5c0.3-0.2,0.8-0.2,1.1-0.1l5.8,3.4
					c0.3,0.2,0.2,0.4-0.1,0.6l-2.5,1.5C205.1,123,204.6,123,204.3,122.8z"/>
				<path fill="#507CA0" d="M124.3,84.1l-5.6-3.3c-0.3-0.2-0.2-0.5,0.2-0.8l4.3-2.5c0.4-0.2,1-0.3,1.3-0.1l5.6,3.3
					c0.3,0.2,0.2,0.5-0.2,0.8l-4.3,2.5C125.2,84.2,124.6,84.2,124.3,84.1z"/>
				<path fill="#507CA0" d="M131.7,88.3l-5.6-3.3c-0.3-0.2-0.2-0.5,0.2-0.8l4.3-2.5c0.4-0.2,1-0.3,1.3-0.1l5.6,3.3
					c0.3,0.2,0.2,0.5-0.2,0.8l-4.3,2.5C132.6,88.4,132,88.5,131.7,88.3z"/>
				<path fill="#507CA0" d="M139,92.6l-5.6-3.3c-0.3-0.2-0.2-0.5,0.2-0.8l4.3-2.5c0.4-0.2,1-0.3,1.3-0.1l5.6,3.3
					c0.3,0.2,0.2,0.5-0.2,0.8l-4.3,2.5C139.9,92.7,139.3,92.7,139,92.6z"/>
				<path fill="#507CA0" d="M146.3,96.8l-5.6-3.3c-0.3-0.2-0.2-0.5,0.2-0.8l4.3-2.5c0.4-0.2,1-0.3,1.3-0.1l5.6,3.3
					c0.3,0.2,0.2,0.5-0.2,0.8l-4.3,2.5C147.3,96.9,146.7,97,146.3,96.8z"/>
				<path fill="#507CA0" d="M153.7,101l-5.6-3.3c-0.3-0.2-0.2-0.5,0.2-0.8l4.3-2.5c0.4-0.2,1-0.3,1.3-0.1l5.6,3.3
					c0.3,0.2,0.2,0.5-0.2,0.8l-4.3,2.5C154.6,101.2,154,101.2,153.7,101z"/>
				<path fill="#507CA0" d="M161,105.3l-5.6-3.3c-0.3-0.2-0.2-0.5,0.2-0.8l4.3-2.5c0.4-0.2,1-0.3,1.3-0.1l5.6,3.3
					c0.3,0.2,0.2,0.5-0.2,0.8l-4.3,2.5C161.9,105.4,161.3,105.5,161,105.3z"/>
				<path fill="#507CA0" d="M168.4,109.5l-5.6-3.3c-0.3-0.2-0.2-0.5,0.2-0.8l4.3-2.5c0.4-0.2,1-0.3,1.3-0.1l5.6,3.3
					c0.3,0.2,0.2,0.5-0.2,0.8l-4.3,2.5C169.3,109.7,168.7,109.7,168.4,109.5z"/>
				<path fill="#507CA0" d="M175.7,113.8l-5.6-3.3c-0.3-0.2-0.2-0.5,0.2-0.8l4.3-2.5c0.4-0.2,1-0.3,1.3-0.1l5.6,3.3
					c0.3,0.2,0.2,0.5-0.2,0.8l-4.3,2.5C176.6,113.9,176,114,175.7,113.8z"/>
				<path fill="#507CA0" d="M183,118l-5.6-3.3c-0.3-0.2-0.2-0.5,0.2-0.8l4.3-2.5c0.4-0.2,1-0.3,1.3-0.1l5.6,3.3
					c0.3,0.2,0.2,0.5-0.2,0.8l-4.3,2.5C184,118.2,183.4,118.2,183,118z"/>
				<path fill="#507CA0" d="M190.4,122.3l-5.6-3.3c-0.3-0.2-0.2-0.5,0.2-0.8l4.3-2.5c0.4-0.2,1-0.3,1.3-0.1l5.6,3.3
					c0.3,0.2,0.2,0.5-0.2,0.8l-4.3,2.5C191.3,122.4,190.7,122.5,190.4,122.3z"/>
				<path fill="#507CA0" d="M197.7,126.5l-5.6-3.3c-0.3-0.2-0.2-0.5,0.2-0.8l4.3-2.5c0.4-0.2,1-0.3,1.3-0.1l5.6,3.3
					c0.3,0.2,0.2,0.5-0.2,0.8l-4.3,2.5C198.6,126.7,198,126.7,197.7,126.5z"/>
				<path fill="#507CA0" d="M117.8,87.8l-5.6-3.3c-0.3-0.2-0.2-0.5,0.2-0.8l4.3-2.5c0.4-0.2,1-0.3,1.3-0.1l5.6,3.3
					c0.3,0.2,0.2,0.5-0.2,0.8l-4.3,2.5C118.8,87.9,118.1,88,117.8,87.8z"/>
				<path fill="#507CA0" d="M125.2,92.1l-5.6-3.3c-0.3-0.2-0.2-0.5,0.2-0.8l4.3-2.5c0.4-0.2,1-0.3,1.3-0.1l5.6,3.3
					c0.3,0.2,0.2,0.5-0.2,0.8l-4.3,2.5C126.1,92.2,125.5,92.2,125.2,92.1z"/>
				<path fill="#507CA0" d="M132.5,96.3l-5.6-3.3c-0.3-0.2-0.2-0.5,0.2-0.8l4.3-2.5c0.4-0.2,1-0.3,1.3-0.1l5.6,3.3
					c0.3,0.2,0.2,0.5-0.2,0.8l-4.3,2.5C133.4,96.4,132.8,96.5,132.5,96.3z"/>
				<path fill="#507CA0" d="M139.8,100.5l-5.6-3.3c-0.3-0.2-0.2-0.5,0.2-0.8l4.3-2.5c0.4-0.2,1-0.3,1.3-0.1l5.6,3.3
					c0.3,0.2,0.2,0.5-0.2,0.8l-4.3,2.5C140.8,100.7,140.2,100.7,139.8,100.5z"/>
				<path fill="#507CA0" d="M147.2,104.8l-5.6-3.3c-0.3-0.2-0.2-0.5,0.2-0.8l4.3-2.5c0.4-0.2,1-0.3,1.3-0.1l5.6,3.3
					c0.3,0.2,0.2,0.5-0.2,0.8l-4.3,2.5C148.1,104.9,147.5,105,147.2,104.8z"/>
				<path fill="#507CA0" d="M154.5,109l-5.6-3.3c-0.3-0.2-0.2-0.5,0.2-0.8l4.3-2.5c0.4-0.2,1-0.3,1.3-0.1l5.6,3.3
					c0.3,0.2,0.2,0.5-0.2,0.8l-4.3,2.5C155.5,109.2,154.8,109.2,154.5,109z"/>
				<path fill="#507CA0" d="M161.9,113.3l-5.6-3.3c-0.3-0.2-0.2-0.5,0.2-0.8l4.3-2.5c0.4-0.2,1-0.3,1.3-0.1l5.6,3.3
					c0.3,0.2,0.2,0.5-0.2,0.8l-4.3,2.5C162.8,113.4,162.2,113.5,161.9,113.3z"/>
				<path fill="#507CA0" d="M169.2,117.5l-5.6-3.3c-0.3-0.2-0.2-0.5,0.2-0.8l4.3-2.5c0.4-0.2,1-0.3,1.3-0.1l5.6,3.3
					c0.3,0.2,0.2,0.5-0.2,0.8l-4.3,2.5C170.1,117.7,169.5,117.7,169.2,117.5z"/>
				<path fill="#507CA0" d="M176.5,121.8l-5.6-3.3c-0.3-0.2-0.2-0.5,0.2-0.8l4.3-2.5c0.4-0.2,1-0.3,1.3-0.1l5.6,3.3
					c0.3,0.2,0.2,0.5-0.2,0.8l-4.3,2.5C177.5,121.9,176.9,122,176.5,121.8z"/>
				<path fill="#507CA0" d="M183.9,126l-5.6-3.3c-0.3-0.2-0.2-0.5,0.2-0.8l4.3-2.5c0.4-0.2,1-0.3,1.3-0.1l5.6,3.3
					c0.3,0.2,0.2,0.5-0.2,0.8l-4.3,2.5C184.8,126.2,184.2,126.2,183.9,126z"/>
				<path fill="#507CA0" d="M191.2,130.3l-5.6-3.3c-0.3-0.2-0.2-0.5,0.2-0.8l4.3-2.5c0.4-0.2,1-0.3,1.3-0.1l5.6,3.3
					c0.3,0.2,0.2,0.5-0.2,0.8l-4.3,2.5C192.2,130.4,191.6,130.5,191.2,130.3z"/>
				<path fill="#507CA0" d="M111.3,91.5l-5.6-3.3c-0.3-0.2-0.2-0.5,0.2-0.8l4.3-2.5c0.4-0.2,1-0.3,1.3-0.1l5.6,3.3
					c0.3,0.2,0.2,0.5-0.2,0.8l-4.3,2.5C112.3,91.7,111.7,91.7,111.3,91.5z"/>
				<path fill="#507CA0" d="M118.7,95.8l-5.6-3.3c-0.3-0.2-0.2-0.5,0.2-0.8l4.3-2.5c0.4-0.2,1-0.3,1.3-0.1l5.6,3.3
					c0.3,0.2,0.2,0.5-0.2,0.8l-4.3,2.5C119.6,95.9,119,96,118.7,95.8z"/>
				<path fill="#507CA0" d="M126,100l-5.6-3.3c-0.3-0.2-0.2-0.5,0.2-0.8l4.3-2.5c0.4-0.2,1-0.3,1.3-0.1l5.6,3.3
					c0.3,0.2,0.2,0.5-0.2,0.8l-4.3,2.5C126.9,100.2,126.3,100.2,126,100z"/>
				<path fill="#507CA0" d="M133.4,104.3l-5.6-3.3c-0.3-0.2-0.2-0.5,0.2-0.8l4.3-2.5c0.4-0.2,1-0.3,1.3-0.1l5.6,3.3
					c0.3,0.2,0.2,0.5-0.2,0.8l-4.3,2.5C134.3,104.4,133.7,104.5,133.4,104.3z"/>
				<path fill="#507CA0" d="M140.7,108.5l-5.6-3.3c-0.3-0.2-0.2-0.5,0.2-0.8l4.3-2.5c0.4-0.2,1-0.3,1.3-0.1l5.6,3.3
					c0.3,0.2,0.2,0.5-0.2,0.8l-4.3,2.5C141.6,108.7,141,108.7,140.7,108.5z"/>
				<path fill="#507CA0" d="M148,112.8l-5.6-3.3c-0.3-0.2-0.2-0.5,0.2-0.8l4.3-2.5c0.4-0.2,1-0.3,1.3-0.1l5.6,3.3
					c0.3,0.2,0.2,0.5-0.2,0.8l-4.3,2.5C149,112.9,148.4,113,148,112.8z"/>
				<path fill="#507CA0" d="M155.4,117l-5.6-3.3c-0.3-0.2-0.2-0.5,0.2-0.8l4.3-2.5c0.4-0.2,1-0.3,1.3-0.1l5.6,3.3
					c0.3,0.2,0.2,0.5-0.2,0.8l-4.3,2.5C156.3,117.2,155.7,117.2,155.4,117z"/>
				<path fill="#507CA0" d="M162.7,121.3l-5.6-3.3c-0.3-0.2-0.2-0.5,0.2-0.8l4.3-2.5c0.4-0.2,1-0.3,1.3-0.1l5.6,3.3
					c0.3,0.2,0.2,0.5-0.2,0.8l-4.3,2.5C163.6,121.4,163,121.5,162.7,121.3z"/>
				<path fill="#507CA0" d="M170.1,125.5l-5.6-3.3c-0.3-0.2-0.2-0.5,0.2-0.8l4.3-2.5c0.4-0.2,1-0.3,1.3-0.1l5.6,3.3
					c0.3,0.2,0.2,0.5-0.2,0.8l-4.3,2.5C171,125.7,170.4,125.7,170.1,125.5z"/>
				<path fill="#507CA0" d="M177.4,129.8l-5.6-3.3c-0.3-0.2-0.2-0.5,0.2-0.8l4.3-2.5c0.4-0.2,1-0.3,1.3-0.1l5.6,3.3
					c0.3,0.2,0.2,0.5-0.2,0.8l-4.3,2.5C178.3,129.9,177.7,130,177.4,129.8z"/>
				<path fill="#507CA0" d="M184.7,134l-5.6-3.3c-0.3-0.2-0.2-0.5,0.2-0.8l4.3-2.5c0.4-0.2,1-0.3,1.3-0.1l5.6,3.3
					c0.3,0.2,0.2,0.5-0.2,0.8l-4.3,2.5C185.7,134.2,185.1,134.2,184.7,134z"/>
				<path fill="#507CA0" d="M104.8,95.3L99.2,92c-0.3-0.2-0.2-0.5,0.2-0.8l4.3-2.5c0.4-0.2,1-0.3,1.3-0.1l5.6,3.3
					c0.3,0.2,0.2,0.5-0.2,0.8l-4.3,2.5C105.8,95.4,105.2,95.5,104.8,95.3z"/>
				<path fill="#507CA0" d="M112.2,99.5l-5.6-3.3c-0.3-0.2-0.2-0.5,0.2-0.8L111,93c0.4-0.2,1-0.3,1.3-0.1l5.6,3.3
					c0.3,0.2,0.2,0.5-0.2,0.8l-4.3,2.5C113.1,99.7,112.5,99.7,112.2,99.5z"/>
				<path fill="#507CA0" d="M119.5,103.8l-5.6-3.3c-0.3-0.2-0.2-0.5,0.2-0.8l4.3-2.5c0.4-0.2,1-0.3,1.3-0.1l5.6,3.3
					c0.3,0.2,0.2,0.5-0.2,0.8l-4.3,2.5C120.4,103.9,119.8,104,119.5,103.8z"/>
				<path fill="#507CA0" d="M126.9,108l-5.6-3.3c-0.3-0.2-0.2-0.5,0.2-0.8l4.3-2.5c0.4-0.2,1-0.3,1.3-0.1l5.6,3.3
					c0.3,0.2,0.2,0.5-0.2,0.8l-4.3,2.5C127.8,108.2,127.2,108.2,126.9,108z"/>
				<path fill="#507CA0" d="M134.2,112.3l-5.6-3.3c-0.3-0.2-0.2-0.5,0.2-0.8l4.3-2.5c0.4-0.2,1-0.3,1.3-0.1l5.6,3.3
					c0.3,0.2,0.2,0.5-0.2,0.8l-4.3,2.5C135.1,112.4,134.5,112.5,134.2,112.3z"/>
				<path fill="#507CA0" d="M141.5,116.5l-5.6-3.3c-0.3-0.2-0.2-0.5,0.2-0.8l4.3-2.5c0.4-0.2,1-0.3,1.3-0.1l5.6,3.3
					c0.3,0.2,0.2,0.5-0.2,0.8l-4.3,2.5C142.5,116.7,141.9,116.7,141.5,116.5z"/>
				<path fill="#507CA0" d="M148.9,120.8l-5.6-3.3c-0.3-0.2-0.2-0.5,0.2-0.8l4.3-2.5c0.4-0.2,1-0.3,1.3-0.1l5.6,3.3
					c0.3,0.2,0.2,0.5-0.2,0.8l-4.3,2.5C149.8,120.9,149.2,121,148.9,120.8z"/>
				<path fill="#507CA0" d="M156.2,125l-5.6-3.3c-0.3-0.2-0.2-0.5,0.2-0.8l4.3-2.5c0.4-0.2,1-0.3,1.3-0.1l5.6,3.3
					c0.3,0.2,0.2,0.5-0.2,0.8l-4.3,2.5C157.2,125.2,156.5,125.2,156.2,125z"/>
				<path fill="#507CA0" d="M163.6,129.3l-5.6-3.3c-0.3-0.2-0.2-0.5,0.2-0.8l4.3-2.5c0.4-0.2,1-0.3,1.3-0.1l5.6,3.3
					c0.3,0.2,0.2,0.5-0.2,0.8l-4.3,2.5C164.5,129.4,163.9,129.5,163.6,129.3z"/>
				<path fill="#507CA0" d="M170.9,133.5l-5.6-3.3c-0.3-0.2-0.2-0.5,0.2-0.8l4.3-2.5c0.4-0.2,1-0.3,1.3-0.1l5.6,3.3
					c0.3,0.2,0.2,0.5-0.2,0.8l-4.3,2.5C171.8,133.7,171.2,133.7,170.9,133.5z"/>
				<path fill="#507CA0" d="M178.2,137.8l-5.6-3.3c-0.3-0.2-0.2-0.5,0.2-0.8l4.3-2.5c0.4-0.2,1-0.3,1.3-0.1l5.6,3.3
					c0.3,0.2,0.2,0.5-0.2,0.8l-4.3,2.5C179.2,137.9,178.6,137.9,178.2,137.8z"/>
				<path fill="#507CA0" d="M98.4,99l-5.6-3.3c-0.3-0.2-0.2-0.5,0.2-0.8l4.3-2.5c0.4-0.2,1-0.3,1.3-0.1l5.6,3.3
					c0.3,0.2,0.2,0.5-0.2,0.8l-4.3,2.5C99.3,99.2,98.7,99.2,98.4,99z"/>
				<path fill="#507CA0" d="M105.7,103.3l-5.6-3.3c-0.3-0.2-0.2-0.5,0.2-0.8l4.3-2.5c0.4-0.2,1-0.3,1.3-0.1l5.6,3.3
					c0.3,0.2,0.2,0.5-0.2,0.8l-4.3,2.5C106.6,103.4,106,103.5,105.7,103.3z"/>
				<path fill="#507CA0" d="M113,107.5l-5.6-3.3c-0.3-0.2-0.2-0.5,0.2-0.8l4.3-2.5c0.4-0.2,1-0.3,1.3-0.1l5.6,3.3
					c0.3,0.2,0.2,0.5-0.2,0.8l-4.3,2.5C114,107.7,113.4,107.7,113,107.5z"/>
				<path fill="#507CA0" d="M157,133l-42.1-24.4c-0.4-0.2-0.3-0.6,0.2-0.9l4-2.3c0.5-0.3,1.2-0.3,1.6-0.1l42.1,24.4
					c0.4,0.2,0.3,0.6-0.2,0.9l-4,2.3C158.1,133.1,157.4,133.2,157,133z"/>
				<path fill="#507CA0" d="M164.4,137.3l-5.6-3.3c-0.3-0.2-0.2-0.5,0.2-0.8l4.3-2.5c0.4-0.2,1-0.3,1.3-0.1l5.6,3.3
					c0.3,0.2,0.2,0.5-0.2,0.8l-4.3,2.5C165.3,137.4,164.7,137.4,164.4,137.3z"/>
				<path fill="#507CA0" d="M171.8,141.5l-5.6-3.3c-0.3-0.2-0.2-0.5,0.2-0.8l4.3-2.5c0.4-0.2,1-0.3,1.3-0.1l5.6,3.3
					c0.3,0.2,0.2,0.5-0.2,0.8l-4.3,2.5C172.7,141.6,172.1,141.7,171.8,141.5z"/>
			</g>
			<g>
				<path fill="#5E8AB5" d="M130.9,80.2l-5.8-3.4c-0.3-0.2-0.2-0.4,0.1-0.6l2.5-1.5c0.3-0.2,0.8-0.2,1.1-0.1l5.8,3.4
					c0.3,0.2,0.2,0.4-0.1,0.6l-2.5,1.5C131.7,80.3,131.2,80.3,130.9,80.2z"/>
				<path fill="#5E8AB5" d="M138.3,84.4l-5.8-3.4c-0.3-0.2-0.2-0.4,0.1-0.6l2.5-1.5c0.3-0.2,0.8-0.2,1.1-0.1l5.8,3.4
					c0.3,0.2,0.2,0.4-0.1,0.6l-2.5,1.5C139,84.6,138.5,84.6,138.3,84.4z"/>
				<path fill="#5E8AB5" d="M145.6,88.7l-5.8-3.4c-0.3-0.2-0.2-0.4,0.1-0.6l2.5-1.5c0.3-0.2,0.8-0.2,1.1-0.1l5.8,3.4
					c0.3,0.2,0.2,0.4-0.1,0.6l-2.5,1.5C146.3,88.8,145.9,88.8,145.6,88.7z"/>
				<path fill="#5E8AB5" d="M152.9,92.9l-5.8-3.4c-0.3-0.1-0.2-0.4,0.1-0.6l2.5-1.5c0.3-0.2,0.8-0.2,1.1-0.1l5.8,3.4
					c0.3,0.2,0.2,0.4-0.1,0.6l-2.5,1.5C153.7,93,153.2,93.1,152.9,92.9z"/>
				<path fill="#5E8AB5" d="M160.3,97.2l-5.8-3.4c-0.3-0.2-0.2-0.4,0.1-0.6l2.5-1.5c0.3-0.2,0.8-0.2,1.1-0.1l5.8,3.4
					c0.3,0.2,0.2,0.4-0.1,0.6l-2.5,1.5C161,97.3,160.5,97.3,160.3,97.2z"/>
				<path fill="#5E8AB5" d="M167.6,101.4l-5.8-3.4c-0.3-0.2-0.2-0.4,0.1-0.6l2.5-1.5c0.3-0.2,0.8-0.2,1.1-0.1l5.8,3.4
					c0.3,0.2,0.2,0.4-0.1,0.6l-2.5,1.5C168.4,101.5,167.9,101.6,167.6,101.4z"/>
				<path fill="#5E8AB5" d="M175,105.7l-5.8-3.4c-0.3-0.2-0.2-0.4,0.1-0.6l2.5-1.5c0.3-0.2,0.8-0.2,1.1-0.1l5.8,3.4
					c0.3,0.2,0.2,0.4-0.1,0.6l-2.5,1.5C175.7,105.8,175.2,105.8,175,105.7z"/>
				<path fill="#5E8AB5" d="M182.3,109.9l-5.8-3.4c-0.3-0.1-0.2-0.4,0.1-0.6l2.5-1.5c0.3-0.2,0.8-0.2,1.1-0.1l5.8,3.4
					c0.3,0.2,0.2,0.4-0.1,0.6l-2.5,1.5C183,110,182.6,110.1,182.3,109.9z"/>
				<path fill="#5E8AB5" d="M189.6,114.2l-5.8-3.4c-0.3-0.2-0.2-0.4,0.1-0.6l2.5-1.5c0.3-0.2,0.8-0.2,1.1-0.1l5.8,3.4
					c0.3,0.2,0.2,0.4-0.1,0.6l-2.5,1.5C190.4,114.3,189.9,114.3,189.6,114.2z"/>
				<path fill="#5E8AB5" d="M197,118.4l-5.8-3.4c-0.3-0.1-0.2-0.4,0.1-0.6l2.5-1.5c0.3-0.2,0.8-0.2,1.1-0.1l5.8,3.4
					c0.3,0.2,0.2,0.4-0.1,0.6l-2.5,1.5C197.7,118.5,197.2,118.6,197,118.4z"/>
				<path fill="#5E8AB5" d="M204.3,122.7l-5.8-3.4c-0.3-0.2-0.2-0.4,0.1-0.6l2.5-1.5c0.3-0.2,0.8-0.2,1.1-0.1l5.8,3.4
					c0.3,0.2,0.2,0.4-0.1,0.6l-2.5,1.5C205.1,122.8,204.6,122.8,204.3,122.7z"/>
				<path fill="#5E8AB5" d="M124.3,83.9l-5.6-3.3c-0.3-0.2-0.2-0.5,0.2-0.8l4.3-2.5c0.4-0.2,1-0.3,1.3-0.1l5.6,3.3
					c0.3,0.2,0.2,0.5-0.2,0.8l-4.3,2.5C125.2,84,124.6,84.1,124.3,83.9z"/>
				<path fill="#5E8AB5" d="M131.7,88.1l-5.6-3.3c-0.3-0.2-0.2-0.5,0.2-0.8l4.3-2.5c0.4-0.2,1-0.3,1.3-0.1l5.6,3.3
					c0.3,0.2,0.2,0.5-0.2,0.8L133,88C132.6,88.3,132,88.3,131.7,88.1z"/>
				<path fill="#5E8AB5" d="M139,92.4l-5.6-3.3c-0.3-0.2-0.2-0.5,0.2-0.8l4.3-2.5c0.4-0.2,1-0.3,1.3-0.1l5.6,3.3
					c0.3,0.2,0.2,0.5-0.2,0.8l-4.3,2.5C139.9,92.5,139.3,92.6,139,92.4z"/>
				<path fill="#5E8AB5" d="M146.3,96.6l-5.6-3.3c-0.3-0.2-0.2-0.5,0.2-0.8l4.3-2.5c0.4-0.2,1-0.3,1.3-0.1l5.6,3.3
					c0.3,0.2,0.2,0.5-0.2,0.8l-4.3,2.5C147.3,96.8,146.7,96.8,146.3,96.6z"/>
				<path fill="#5E8AB5" d="M153.7,100.9l-5.6-3.3c-0.3-0.2-0.2-0.5,0.2-0.8l4.3-2.5c0.4-0.2,1-0.3,1.3-0.1l5.6,3.3
					c0.3,0.2,0.2,0.5-0.2,0.8l-4.3,2.5C154.6,101,154,101,153.7,100.9z"/>
				<path fill="#5E8AB5" d="M161,105.1l-5.6-3.3c-0.3-0.2-0.2-0.5,0.2-0.8l4.3-2.5c0.4-0.2,1-0.3,1.3-0.1l5.6,3.3
					c0.3,0.2,0.2,0.5-0.2,0.8l-4.3,2.5C161.9,105.2,161.3,105.3,161,105.1z"/>
				<path fill="#5E8AB5" d="M168.4,109.4l-5.6-3.3c-0.3-0.2-0.2-0.5,0.2-0.8l4.3-2.5c0.4-0.2,1-0.3,1.3-0.1l5.6,3.3
					c0.3,0.2,0.2,0.5-0.2,0.8l-4.3,2.5C169.3,109.5,168.7,109.5,168.4,109.4z"/>
				<path fill="#5E8AB5" d="M175.7,113.6l-5.6-3.3c-0.3-0.2-0.2-0.5,0.2-0.8l4.3-2.5c0.4-0.2,1-0.3,1.3-0.1l5.6,3.3
					c0.3,0.2,0.2,0.5-0.2,0.8l-4.3,2.5C176.6,113.7,176,113.8,175.7,113.6z"/>
				<path fill="#5E8AB5" d="M183,117.8l-5.6-3.3c-0.3-0.2-0.2-0.5,0.2-0.8l4.3-2.5c0.4-0.2,1-0.3,1.3-0.1l5.6,3.3
					c0.3,0.2,0.2,0.5-0.2,0.8l-4.3,2.5C184,118,183.4,118,183,117.8z"/>
				<path fill="#5E8AB5" d="M190.4,122.1l-5.6-3.3c-0.3-0.2-0.2-0.5,0.2-0.8l4.3-2.5c0.4-0.2,1-0.3,1.3-0.1l5.6,3.3
					c0.3,0.2,0.2,0.5-0.2,0.8l-4.3,2.5C191.3,122.2,190.7,122.3,190.4,122.1z"/>
				<path fill="#5E8AB5" d="M197.7,126.3l-5.6-3.3c-0.3-0.2-0.2-0.5,0.2-0.8l4.3-2.5c0.4-0.2,1-0.3,1.3-0.1l5.6,3.3
					c0.3,0.2,0.2,0.5-0.2,0.8l-4.3,2.5C198.6,126.5,198,126.5,197.7,126.3z"/>
				<path fill="#5E8AB5" d="M117.8,87.6l-5.6-3.3c-0.3-0.2-0.2-0.5,0.2-0.8l4.3-2.5c0.4-0.2,1-0.3,1.3-0.1l5.6,3.3
					c0.3,0.2,0.2,0.5-0.2,0.8l-4.3,2.5C118.8,87.8,118.1,87.8,117.8,87.6z"/>
				<path fill="#5E8AB5" d="M125.2,91.9l-5.6-3.3c-0.3-0.2-0.2-0.5,0.2-0.8l4.3-2.5c0.4-0.2,1-0.3,1.3-0.1l5.6,3.3
					c0.3,0.2,0.2,0.5-0.2,0.8l-4.3,2.5C126.1,92,125.5,92,125.2,91.9z"/>
				<path fill="#5E8AB5" d="M132.5,96.1l-5.6-3.3c-0.3-0.2-0.2-0.5,0.2-0.8l4.3-2.5c0.4-0.2,1-0.3,1.3-0.1l5.6,3.3
					c0.3,0.2,0.2,0.5-0.2,0.8l-4.3,2.5C133.4,96.2,132.8,96.3,132.5,96.1z"/>
				<path fill="#5E8AB5" d="M139.8,100.4l-5.6-3.3c-0.3-0.2-0.2-0.5,0.2-0.8l4.3-2.5c0.4-0.2,1-0.3,1.3-0.1l5.6,3.3
					c0.3,0.2,0.2,0.5-0.2,0.8l-4.3,2.5C140.8,100.5,140.2,100.5,139.8,100.4z"/>
				<path fill="#5E8AB5" d="M147.2,104.6l-5.6-3.3c-0.3-0.2-0.2-0.5,0.2-0.8l4.3-2.5c0.4-0.2,1-0.3,1.3-0.1l5.6,3.3
					c0.3,0.2,0.2,0.5-0.2,0.8l-4.3,2.5C148.1,104.7,147.5,104.8,147.2,104.6z"/>
				<path fill="#5E8AB5" d="M154.5,108.8l-5.6-3.3c-0.3-0.2-0.2-0.5,0.2-0.8l4.3-2.5c0.4-0.2,1-0.3,1.3-0.1l5.6,3.3
					c0.3,0.2,0.2,0.5-0.2,0.8l-4.3,2.5C155.5,109,154.8,109,154.5,108.8z"/>
				<path fill="#5E8AB5" d="M161.9,113.1l-5.6-3.3c-0.3-0.2-0.2-0.5,0.2-0.8l4.3-2.5c0.4-0.2,1-0.3,1.3-0.1l5.6,3.3
					c0.3,0.2,0.2,0.5-0.2,0.8l-4.3,2.5C162.8,113.2,162.2,113.3,161.9,113.1z"/>
				<path fill="#5E8AB5" d="M169.2,117.3l-5.6-3.3c-0.3-0.2-0.2-0.5,0.2-0.8l4.3-2.5c0.4-0.2,1-0.3,1.3-0.1l5.6,3.3
					c0.3,0.2,0.2,0.5-0.2,0.8l-4.3,2.5C170.1,117.5,169.5,117.5,169.2,117.3z"/>
				<path fill="#5E8AB5" d="M176.5,121.6l-5.6-3.3c-0.3-0.2-0.2-0.5,0.2-0.8l4.3-2.5c0.4-0.2,1-0.3,1.3-0.1l5.6,3.3
					c0.3,0.2,0.2,0.5-0.2,0.8l-4.3,2.5C177.5,121.7,176.9,121.8,176.5,121.6z"/>
				<path fill="#5E8AB5" d="M183.9,125.8l-5.6-3.3c-0.3-0.2-0.2-0.5,0.2-0.8l4.3-2.5c0.4-0.2,1-0.3,1.3-0.1l5.6,3.3
					c0.3,0.2,0.2,0.5-0.2,0.8l-4.3,2.5C184.8,126,184.2,126,183.9,125.8z"/>
				<path fill="#5E8AB5" d="M191.2,130.1l-5.6-3.3c-0.3-0.2-0.2-0.5,0.2-0.8l4.3-2.5c0.4-0.2,1-0.3,1.3-0.1l5.6,3.3
					c0.3,0.2,0.2,0.5-0.2,0.8l-4.3,2.5C192.2,130.2,191.6,130.3,191.2,130.1z"/>
				<path fill="#5E8AB5" d="M111.3,91.4l-5.6-3.3c-0.3-0.2-0.2-0.5,0.2-0.8l4.3-2.5c0.4-0.2,1-0.3,1.3-0.1l5.6,3.3
					c0.3,0.2,0.2,0.5-0.2,0.8l-4.3,2.5C112.3,91.5,111.7,91.5,111.3,91.4z"/>
				<path fill="#5E8AB5" d="M118.7,95.6l-5.6-3.3c-0.3-0.2-0.2-0.5,0.2-0.8l4.3-2.5c0.4-0.2,1-0.3,1.3-0.1l5.6,3.3
					c0.3,0.2,0.2,0.5-0.2,0.8l-4.3,2.5C119.6,95.7,119,95.8,118.7,95.6z"/>
				<path fill="#5E8AB5" d="M126,99.9l-5.6-3.3c-0.3-0.2-0.2-0.5,0.2-0.8l4.3-2.5c0.4-0.2,1-0.3,1.3-0.1l5.6,3.3
					c0.3,0.2,0.2,0.5-0.2,0.8l-4.3,2.5C126.9,100,126.3,100,126,99.9z"/>
				<path fill="#5E8AB5" d="M133.4,104.1l-5.6-3.3c-0.3-0.2-0.2-0.5,0.2-0.8l4.3-2.5c0.4-0.2,1-0.3,1.3-0.1l5.6,3.3
					c0.3,0.2,0.2,0.5-0.2,0.8l-4.3,2.5C134.3,104.2,133.7,104.3,133.4,104.1z"/>
				<path fill="#5E8AB5" d="M140.7,108.3l-5.6-3.3c-0.3-0.2-0.2-0.5,0.2-0.8l4.3-2.5c0.4-0.2,1-0.3,1.3-0.1l5.6,3.3
					c0.3,0.2,0.2,0.5-0.2,0.8l-4.3,2.5C141.6,108.5,141,108.5,140.7,108.3z"/>
				<path fill="#5E8AB5" d="M148,112.6l-5.6-3.3c-0.3-0.2-0.2-0.5,0.2-0.8l4.3-2.5c0.4-0.2,1-0.3,1.3-0.1l5.6,3.3
					c0.3,0.2,0.2,0.5-0.2,0.8l-4.3,2.5C149,112.7,148.4,112.8,148,112.6z"/>
				<path fill="#5E8AB5" d="M155.4,116.8l-5.6-3.3c-0.3-0.2-0.2-0.5,0.2-0.8l4.3-2.5c0.4-0.2,1-0.3,1.3-0.1l5.6,3.3
					c0.3,0.2,0.2,0.5-0.2,0.8l-4.3,2.5C156.3,117,155.7,117,155.4,116.8z"/>
				<path fill="#5E8AB5" d="M162.7,121.1l-5.6-3.3c-0.3-0.2-0.2-0.5,0.2-0.8l4.3-2.5c0.4-0.2,1-0.3,1.3-0.1l5.6,3.3
					c0.3,0.2,0.2,0.5-0.2,0.8l-4.3,2.5C163.6,121.2,163,121.3,162.7,121.1z"/>
				<path fill="#5E8AB5" d="M170.1,125.3l-5.6-3.3c-0.3-0.2-0.2-0.5,0.2-0.8l4.3-2.5c0.4-0.2,1-0.3,1.3-0.1l5.6,3.3
					c0.3,0.2,0.2,0.5-0.2,0.8l-4.3,2.5C171,125.5,170.4,125.5,170.1,125.3z"/>
				<path fill="#5E8AB5" d="M177.4,129.6l-5.6-3.3c-0.3-0.2-0.2-0.5,0.2-0.8l4.3-2.5c0.4-0.2,1-0.3,1.3-0.1l5.6,3.3
					c0.3,0.2,0.2,0.5-0.2,0.8l-4.3,2.5C178.3,129.7,177.7,129.8,177.4,129.6z"/>
				<path fill="#5E8AB5" d="M184.7,133.8l-5.6-3.3c-0.3-0.2-0.2-0.5,0.2-0.8l4.3-2.5c0.4-0.2,1-0.3,1.3-0.1l5.6,3.3
					c0.3,0.2,0.2,0.5-0.2,0.8l-4.3,2.5C185.7,134,185.1,134,184.7,133.8z"/>
				<path fill="#5E8AB5" d="M104.8,95.1l-5.6-3.3c-0.3-0.2-0.2-0.5,0.2-0.8l4.3-2.5c0.4-0.2,1-0.3,1.3-0.1l5.6,3.3
					c0.3,0.2,0.2,0.5-0.2,0.8l-4.3,2.5C105.8,95.2,105.2,95.3,104.8,95.1z"/>
				<path fill="#5E8AB5" d="M112.2,99.4l-5.6-3.3c-0.3-0.2-0.2-0.5,0.2-0.8l4.3-2.5c0.4-0.2,1-0.3,1.3-0.1L118,96
					c0.3,0.2,0.2,0.5-0.2,0.8l-4.3,2.5C113.1,99.5,112.5,99.5,112.2,99.4z"/>
				<path fill="#5E8AB5" d="M119.5,103.6l-5.6-3.3c-0.3-0.2-0.2-0.5,0.2-0.8l4.3-2.5c0.4-0.2,1-0.3,1.3-0.1l5.6,3.3
					c0.3,0.2,0.2,0.5-0.2,0.8l-4.3,2.5C120.4,103.7,119.8,103.8,119.5,103.6z"/>
				<path fill="#5E8AB5" d="M126.9,107.8l-5.6-3.3c-0.3-0.2-0.2-0.5,0.2-0.8l4.3-2.5c0.4-0.2,1-0.3,1.3-0.1l5.6,3.3
					c0.3,0.2,0.2,0.5-0.2,0.8l-4.3,2.5C127.8,108,127.2,108,126.9,107.8z"/>
				<path fill="#5E8AB5" d="M134.2,112.1l-5.6-3.3c-0.3-0.2-0.2-0.5,0.2-0.8l4.3-2.5c0.4-0.2,1-0.3,1.3-0.1l5.6,3.3
					c0.3,0.2,0.2,0.5-0.2,0.8l-4.3,2.5C135.1,112.2,134.5,112.3,134.2,112.1z"/>
				<path fill="#5E8AB5" d="M141.5,116.3l-5.6-3.3c-0.3-0.2-0.2-0.5,0.2-0.8l4.3-2.5c0.4-0.2,1-0.3,1.3-0.1l5.6,3.3
					c0.3,0.2,0.2,0.5-0.2,0.8l-4.3,2.5C142.5,116.5,141.9,116.5,141.5,116.3z"/>
				<path fill="#5E8AB5" d="M148.9,120.6l-5.6-3.3c-0.3-0.2-0.2-0.5,0.2-0.8l4.3-2.5c0.4-0.2,1-0.3,1.3-0.1l5.6,3.3
					c0.3,0.2,0.2,0.5-0.2,0.8l-4.3,2.5C149.8,120.7,149.2,120.8,148.9,120.6z"/>
				<path fill="#5E8AB5" d="M156.2,124.8l-5.6-3.3c-0.3-0.2-0.2-0.5,0.2-0.8l4.3-2.5c0.4-0.2,1-0.3,1.3-0.1l5.6,3.3
					c0.3,0.2,0.2,0.5-0.2,0.8l-4.3,2.5C157.2,125,156.5,125,156.2,124.8z"/>
				<path fill="#5E8AB5" d="M163.6,129.1l-5.6-3.3c-0.3-0.2-0.2-0.5,0.2-0.8l4.3-2.5c0.4-0.2,1-0.3,1.3-0.1l5.6,3.3
					c0.3,0.2,0.2,0.5-0.2,0.8l-4.3,2.5C164.5,129.2,163.9,129.3,163.6,129.1z"/>
				<path fill="#5E8AB5" d="M170.9,133.3l-5.6-3.3c-0.3-0.2-0.2-0.5,0.2-0.8l4.3-2.5c0.4-0.2,1-0.3,1.3-0.1l5.6,3.3
					c0.3,0.2,0.2,0.5-0.2,0.8l-4.3,2.5C171.8,133.5,171.2,133.5,170.9,133.3z"/>
				<path fill="#5E8AB5" d="M178.2,137.6l-5.6-3.3c-0.3-0.2-0.2-0.5,0.2-0.8l4.3-2.5c0.4-0.2,1-0.3,1.3-0.1l5.6,3.3
					c0.3,0.2,0.2,0.5-0.2,0.8l-4.3,2.5C179.2,137.7,178.6,137.8,178.2,137.6z"/>
				<path fill="#5E8AB5" d="M98.4,98.8l-5.6-3.3c-0.3-0.2-0.2-0.5,0.2-0.8l4.3-2.5c0.4-0.2,1-0.3,1.3-0.1l5.6,3.3
					c0.3,0.2,0.2,0.5-0.2,0.8l-4.3,2.5C99.3,99,98.7,99,98.4,98.8z"/>
				<path fill="#5E8AB5" d="M105.7,103.1l-5.6-3.3c-0.3-0.2-0.2-0.5,0.2-0.8l4.3-2.5c0.4-0.2,1-0.3,1.3-0.1l5.6,3.3
					c0.3,0.2,0.2,0.5-0.2,0.8L107,103C106.6,103.2,106,103.3,105.7,103.1z"/>
				<path fill="#5E8AB5" d="M113,107.3l-5.6-3.3c-0.3-0.2-0.2-0.5,0.2-0.8l4.3-2.5c0.4-0.2,1-0.3,1.3-0.1l5.6,3.3
					c0.3,0.2,0.2,0.5-0.2,0.8l-4.3,2.5C114,107.5,113.4,107.5,113,107.3z"/>
				<path fill="#5E8AB5" d="M157,132.8l-42.1-24.4c-0.4-0.2-0.3-0.6,0.2-0.9l4-2.3c0.5-0.3,1.2-0.3,1.6-0.1l42.1,24.4
					c0.4,0.2,0.3,0.6-0.2,0.9l-4,2.3C158.1,132.9,157.4,133,157,132.8z"/>
				<path fill="#5E8AB5" d="M164.4,137.1l-5.6-3.3c-0.3-0.2-0.2-0.5,0.2-0.8l4.3-2.5c0.4-0.2,1-0.3,1.3-0.1l5.6,3.3
					c0.3,0.2,0.2,0.5-0.2,0.8l-4.3,2.5C165.3,137.2,164.7,137.3,164.4,137.1z"/>
				<path fill="#5E8AB5" d="M171.8,141.3l-5.6-3.3c-0.3-0.2-0.2-0.5,0.2-0.8l4.3-2.5c0.4-0.2,1-0.3,1.3-0.1l5.6,3.3
					c0.3,0.2,0.2,0.5-0.2,0.8l-4.3,2.5C172.7,141.5,172.1,141.5,171.8,141.3z"/>
			</g>
		</g>
		<g>
			<ellipse fill="#A6C6DD" cx="82.6" cy="165" rx="19.2" ry="11.1"/>
			<g>
				<path fill="#294154" d="M77.6,167c0,0-0.9,3.1,1.5,3.8c2.4,0.7,2.8-0.7,3.7-1.1c0.9-0.4,6.3-3.3,7.3-4.5c1-1.3-2.1-3.2-6.8-0.2
					L77.6,167z"/>
				<path fill="#294154" d="M67.8,161.5c0,0-1.1,2.9,1.1,3.7c2.2,0.8,3-1.4,3.7-1.9c0.8-0.5,3.3-2.1,4.4-3.2s-0.5-3.6-5.3-1.1
					L67.8,161.5z"/>
				<path fill="#2F70B2" d="M69.9,115.9c0,0-0.7,19.5-0.5,23.3c-2,4.6-2.2,18.3-1.6,22.7c0,0.7,5.3,0.8,5.3-1.6
					c0-2.4,2.1-15.9,2.7-17.8c0.6-1.9,2.5-8.3,2.5-8.3v-18.2L72,115L69.9,115.9z"/>
				<path fill="#35526D" d="M92.2,108.3c0,0-3.8,1.7-6.7-2.5c-2.8-4.2,2.4-3.4,2.4-3.4l3.6,2.2L92.2,108.3z"/>
				<path fill="#2F70B2" d="M77.3,166.7c0.1,0.8,6.3,1.9,6.3-0.9c0-2.8,0.3-15.5,1.1-20.8c0.8-5.3,3-14.6,2.2-20.8
					c-0.8-6.2-0.9-8.6-1.1-10.1h-9.1c0,0,1,26.3,1,28.7C77.8,145.2,77,162.6,77.3,166.7z"/>
				<path fill="#2F70B2" d="M78,84.5c0,0-2.2-1.8-5.2-0.8c-2.7,0.9-4.6,4-4.6,9c0,5,2.7,6.5,2.7,13.9c0,7.4-2.7,9.1-2.2,14.7
					c0.4,5.5,16.9,7.7,19.2,4.7c1.7-2.9-1.8-16-1.4-20c0.5-4,2.6-12.9,1.6-15.4C87.4,88.9,82.2,85.2,78,84.5z"/>
				<path fill="#2F70B2" d="M87.5,104c2.1,4.4,3.8,4.6,4.6,4.3c1.3-0.4,1.8-2,1.1-5.5c-0.8-3.5-3.3-14.3-7-12.8
					C82.5,91.5,85.4,99.6,87.5,104z"/>
				<g>
					<path fill="#DE976D" d="M76.8,81.3c0,0,0,2.2,0,3.2c0,1,2.9,2.3,5.4,1.2V83c0,0,2.9,0.4,3.5,0c0.6-0.4,1.2-9.4-0.5-10.4
						c-2.8-2.2-9.8-1.3-9.8,3.1C75.4,77,76.8,78.7,76.8,81.3z"/>
					<path fill="#624638" d="M74.9,75.6c0.8,1,5.8,0.1,7.7-1c1.9-1.1,5.9-4.2,4.2-7.3c-1.7-3.1-2.5,0.3-5.4,0.9
						C78.6,68.7,70.7,70.7,74.9,75.6z"/>
					<path fill="#624638" d="M74.1,74.5c-0.4,2.1,1.8,7.7,2.8,7.7c2,0,3.8-3.2,5.4-3.8c1.6-0.6,3.1-4.1,1.7-4.9
						C82.7,72.7,74.1,74.5,74.1,74.5z"/>
					<path fill="#3B5A7A" d="M83.5,86.8c0.1,0.5-2.4,2.7-6.3,0.9c-3.9-1.7-1.7-3-1.7-3l3.2,1.7l2.2,0.1L83.5,86.8z"/>
					<path fill="#BFD8EF" d="M76.8,84.2c0,0,0.9,2.2,5.4,1.2c0,0,0.9,0.2,1.3,1.4c-1.2,1.6-7.4,1-8.1-1.9
						C75.4,84.9,75.8,84.1,76.8,84.2z"/>
					<path fill="#DE976D" d="M82.9,79.3c-0.5-0.3-1.4-1.7-0.5-2.2c0.4-0.2,1.1,0,1.4,0.8"/>
				</g>
			</g>
		</g>
		<g>
			<g>
				<g>
					<polygon fill="#8FCDEF" points="139,75 139,28.9 112.1,13.3 112.1,59.5 					"/>
					<polygon fill="#71B5D3" points="139,75 139.6,74.6 139.6,28.5 139,28.9 					"/>
					<polygon fill="#C2ECFF" points="139.6,28.5 112.7,13 112.1,13.3 139,28.9 					"/>
				</g>
				<g>
					<polygon fill="#F8FFFF" points="113.3,58 137.2,71.8 137.2,30.3 113.3,16.4 					"/>
					<path fill="#F3F3F3" d="M117.4,32.3c0,5,3.5,11,7.8,13.5c4.3,2.5,7.8,0.5,7.8-4.5c0-5-3.5-11-7.8-13.5
						C120.9,25.4,117.4,27.4,117.4,32.3z"/>
					<g>
						<defs>
							<path id="SVGID_1_" d="M117.4,32.3c0,5,3.5,11,7.8,13.5c4.3,2.5,7.8,0.5,7.8-4.5c0-5-3.5-11-7.8-13.5
								C120.9,25.4,117.4,27.4,117.4,32.3z"/>
						</defs>
						<clipPath id="SVGID_2_">
							<use xlink:href="#SVGID_1_"  overflow="visible"/>
						</clipPath>
						<g clip-path="url(#SVGID_2_)">
							<path fill="#AC6F8E" d="M120.7,43.5l9.1,5.3v-2.8c0-1.4-1-3.1-2.2-3.8l-4.7-2.7c-1.2-0.7-2.2-0.1-2.2,1.3V43.5z"/>
							<path fill="#F0CAD4" d="M125.3,42.7L125.3,42.7c0.9,0.5,1.6,0.1,1.6-0.9V40l-3.2-1.9V40C123.6,41,124.4,42.2,125.3,42.7z"/>
							<g>
								<path fill="#B9A197" d="M125.3,29.8c0.8,0.4,3.8,2.7,3.8,7.8c0,5.2,0,5.4,0,5.4s-1.3-2.1-4-3.3"/>
								<path fill="#B9A197" d="M125.3,29.8c-0.8-0.4-3.8-1.8-3.8,3.4c0,5.2,0,5.4,0,5.4s1.3-0.7,4,1.4"/>
								<path fill="#F0CAD4" d="M123.7,39.4l0.7,0.9c0.5,0.7,1.2,1,1.7,1l0.7-0.1c1.1-0.1,1.8-1,1.8-2.5v-2.9c0-2.1-1.5-4.7-3.3-5.8
									l0,0c-1.8-1.1-3.3-0.2-3.3,1.9v2.9C121.9,36.3,122.6,38,123.7,39.4z"/>
								<path fill="#F0CAD4" d="M128.6,39L128.6,39c0.3,0.2,0.5,0,0.5-0.3v-1.3c0-0.3-0.2-0.7-0.5-0.9l0,0c-0.3-0.2-0.5,0-0.5,0.3
									v1.3C128.1,38.5,128.3,38.9,128.6,39z"/>
								<path fill="#F0CAD4" d="M121.9,35.2L121.9,35.2c0.3,0.2,0.5,0,0.5-0.3v-1.3c0-0.3-0.2-0.7-0.5-0.9l0,0
									c-0.3-0.2-0.5,0-0.5,0.3v1.3C121.4,34.6,121.6,35,121.9,35.2z"/>
								<path fill="#B9A197" d="M122.9,31c0,0,1.6,4.3,5.8,7c0,0,0-1.4,0-2.1c0-0.7-0.5-4.2-3.4-5.8c-2.8-1.6-3.7-0.1-3.6,3.1
									C121.8,33.2,122.9,33.2,122.9,31z"/>
							</g>
						</g>
					</g>
					<g>
						<polygon fill="#C4C4C4" points="115.7,50.9 134.8,61.9 134.8,60.7 115.7,49.7 						"/>
						<polygon fill="#C4C4C4" points="120.2,45.2 130.3,51 130.3,50.3 120.2,44.5 						"/>
						<polygon fill="#C4C4C4" points="115.7,52.6 134.8,63.6 134.8,62.5 115.7,51.4 						"/>
						<polygon fill="#C4C4C4" points="115.7,54.4 134.8,65.4 134.8,64.2 115.7,53.2 						"/>
						<polygon fill="#C4C4C4" points="115.7,56.1 134.8,67.1 134.8,66 115.7,54.9 						"/>
						<polygon fill="#C4C4C4" points="115.7,57.9 134.8,68.9 134.8,67.7 115.7,56.7 						"/>
					</g>
					<g>
						<path fill="#E695AE" d="M129.9,55.3C129.9,55.3,129.9,55.3,129.9,55.3c4.3,7.1,5.5,6.4,1.4-0.8c0,0,0,0,0,0
							C127.4,47.8,126,48.6,129.9,55.3z"/>
						<path fill="#98C0EF" d="M126.3,53.2C126.3,53.2,126.3,53.3,126.3,53.2c4.3,7.1,5.4,6.4,1.4-0.8c0,0,0,0,0,0
							C123.8,45.7,122.4,46.5,126.3,53.2z"/>
						<path fill="#EAAD59" d="M122.7,51.1C122.7,51.1,122.7,51.2,122.7,51.1c3.9,6.7,5.3,5.9,1.5-0.8c0,0,0,0,0,0
							C119.9,43.3,118.8,43.9,122.7,51.1z"/>
						<path fill="#B687F2" d="M119.2,49.1C119.2,49.1,119.2,49.1,119.2,49.1c3.9,6.7,5.3,5.9,1.4-0.8c0,0,0,0,0,0
							C116.3,41.2,115.1,41.9,119.2,49.1z"/>
					</g>
				</g>
			</g>
			<g>
				<g>
					<polygon fill="#8FCDEF" points="213.3,117.9 213.3,71.8 186.4,56.3 186.4,102.4 					"/>
					<polygon fill="#71B5D3" points="213.3,117.9 213.9,117.5 213.9,71.4 213.3,71.8 					"/>
					<polygon fill="#C2ECFF" points="213.9,71.4 187,55.9 186.4,56.3 213.3,71.8 					"/>
				</g>
				<g>
					<polygon fill="#F8FFFF" points="187.6,100.9 211.6,114.7 211.6,73.2 187.6,59.3 					"/>
					<path fill="#F3F3F3" d="M191.7,75.3c0,5,3.5,11,7.8,13.5c4.3,2.5,7.8,0.5,7.8-4.5c0-5-3.5-11-7.8-13.5
						C195.2,68.3,191.7,70.3,191.7,75.3z"/>
					<g>
						<defs>
							<path id="SVGID_3_" d="M191.7,75.3c0,5,3.5,11,7.8,13.5c4.3,2.5,7.8,0.5,7.8-4.5c0-5-3.5-11-7.8-13.5
								C195.2,68.3,191.7,70.3,191.7,75.3z"/>
						</defs>
						<clipPath id="SVGID_4_">
							<use xlink:href="#SVGID_3_"  overflow="visible"/>
						</clipPath>
						<g clip-path="url(#SVGID_4_)">
							<path fill="#AC6F8E" d="M195,86.4l9.1,5.3v-2.8c0-1.4-1-3.1-2.2-3.8l-4.7-2.7c-1.2-0.7-2.2-0.1-2.2,1.3V86.4z"/>
							<path fill="#F0CAD4" d="M199.6,85.7L199.6,85.7c0.9,0.5,1.6,0.1,1.6-0.9v-1.9L198,81v1.9C198,83.9,198.7,85.1,199.6,85.7z"/>
							<g>
								<path fill="#B9A197" d="M199.6,72.7c0.8,0.4,3.8,2.7,3.8,7.8c0,5.2,0,5.4,0,5.4s-1.3-2.1-4-3.3"/>
								<path fill="#B9A197" d="M199.6,72.7c-0.8-0.4-3.8-1.8-3.8,3.4c0,5.2,0,5.4,0,5.4s1.3-0.7,4,1.4"/>
								<path fill="#F0CAD4" d="M198,82.3l0.7,0.9c0.5,0.7,1.2,1,1.7,1l0.7-0.1c1.1-0.1,1.8-1,1.8-2.5v-2.9c0-2.1-1.5-4.7-3.3-5.8
									l0,0c-1.8-1.1-3.3-0.2-3.3,1.9v2.9C196.2,79.2,196.9,81,198,82.3z"/>
								<path fill="#F0CAD4" d="M202.9,81.9L202.9,81.9c0.3,0.2,0.5,0,0.5-0.3v-1.3c0-0.3-0.2-0.7-0.5-0.9l0,0
									c-0.3-0.2-0.5,0-0.5,0.3v1.3C202.4,81.4,202.6,81.8,202.9,81.9z"/>
								<path fill="#F0CAD4" d="M196.2,78.1L196.2,78.1c0.3,0.2,0.5,0,0.5-0.3v-1.3c0-0.3-0.2-0.7-0.5-0.9l0,0
									c-0.3-0.2-0.5,0-0.5,0.3v1.3C195.7,77.5,196,77.9,196.2,78.1z"/>
								<path fill="#B9A197" d="M197.3,73.9c0,0,1.6,4.3,5.8,7c0,0,0-1.4,0-2.1c0-0.7-0.5-4.2-3.4-5.8c-2.8-1.6-3.7-0.1-3.6,3.1
									C196.1,76.1,197.2,76.2,197.3,73.9z"/>
							</g>
						</g>
					</g>
					<g>
						<polygon fill="#C4C4C4" points="190,93.8 209.1,104.8 209.1,103.6 190,92.6 						"/>
						<polygon fill="#C4C4C4" points="194.5,88.1 204.6,93.9 204.6,93.2 194.5,87.4 						"/>
						<polygon fill="#C4C4C4" points="190,95.5 209.1,106.6 209.1,105.4 190,94.3 						"/>
						<polygon fill="#C4C4C4" points="190,97.3 209.1,108.3 209.1,107.1 190,96.1 						"/>
						<polygon fill="#C4C4C4" points="190,99 209.1,110.1 209.1,108.9 190,97.8 						"/>
						<polygon fill="#C4C4C4" points="190,100.8 209.1,111.8 209.1,110.6 190,99.6 						"/>
					</g>
					<g>
						<path fill="#E695AE" d="M204.2,98.2C204.2,98.2,204.2,98.2,204.2,98.2c4.2,7.2,5.6,6.4,1.4-0.8c0,0,0,0,0,0
							C201.6,90.7,200.4,91.4,204.2,98.2z"/>
						<path fill="#98C0EF" d="M200.6,96.1C200.6,96.1,200.6,96.1,200.6,96.1c3.9,6.7,5.3,5.9,1.4-0.8c0,0,0,0,0,0
							C197.8,88.2,196.6,88.9,200.6,96.1z"/>
						<path fill="#EAAD59" d="M197,94.1C197.1,94.1,197.1,94.1,197,94.1c3.9,6.8,5.4,5.9,1.4-0.8c0,0,0,0,0,0
							C194.2,86.2,193.1,86.9,197,94.1z"/>
						<path fill="#B687F2" d="M193.5,92C193.5,92,193.5,92,193.5,92c3.9,6.8,5.4,6,1.5-0.8c0,0,0,0,0,0
							C190.6,84.2,189.5,84.8,193.5,92z"/>
					</g>
				</g>
			</g>
			<g>
				<g>
					<polygon fill="#8FCDEF" points="150.6,92 150.6,45.9 123.7,30.4 123.7,76.5 					"/>
					<polygon fill="#71B5D3" points="150.6,92 151.2,91.7 151.2,45.5 150.6,45.9 					"/>
					<polygon fill="#C2ECFF" points="151.2,45.5 124.3,30 123.7,30.4 150.6,45.9 					"/>
				</g>
				<g>
					<polygon fill="#F8FFFF" points="124.6,74.8 148.6,88.7 148.6,47.1 124.6,33.3 					"/>
					<path fill="#F3F3F3" d="M128.8,49.2c0,5,3.5,11,7.8,13.5c4.3,2.5,7.8,0.5,7.8-4.5s-3.5-11-7.8-13.5
						C132.3,42.2,128.8,44.2,128.8,49.2z"/>
					<g>
						<defs>
							<path id="SVGID_5_" d="M128.8,49.2c0,5,3.5,11,7.8,13.5c4.3,2.5,7.8,0.5,7.8-4.5s-3.5-11-7.8-13.5
								C132.3,42.2,128.8,44.2,128.8,49.2z"/>
						</defs>
						<clipPath id="SVGID_6_">
							<use xlink:href="#SVGID_5_"  overflow="visible"/>
						</clipPath>
						<g clip-path="url(#SVGID_6_)">
							<path fill="#726E8B" d="M132.1,60.3l9.1,5.3v-2.8c0-1.4-1-3.1-2.2-3.8l-4.7-2.7c-1.2-0.7-2.2-0.1-2.2,1.3V60.3z"/>
							<path fill="#F0CAD4" d="M136.6,59.6L136.6,59.6c0.9,0.5,1.6,0.1,1.6-0.9v-1.9L135,55v1.9C135,57.8,135.7,59.1,136.6,59.6z"/>
							<g>
								<path fill="#F0CAD4" d="M135,56.3l0.7,0.9c0.5,0.7,1.2,1,1.7,1l0.7-0.1c1.1-0.1,1.8-1,1.8-2.5v-2.9c0-2.1-1.5-4.7-3.3-5.8
									l0,0c-1.8-1.1-3.3-0.2-3.3,1.9v2.9C133.3,53.2,134,54.9,135,56.3z"/>
								<path fill="#F0CAD4" d="M140,55.9L140,55.9c0.3,0.2,0.5,0,0.5-0.3v-1.3c0-0.3-0.2-0.7-0.5-0.9l0,0c-0.3-0.2-0.5,0-0.5,0.3
									V55C139.4,55.3,139.7,55.7,140,55.9z"/>
								<path fill="#F0CAD4" d="M133.3,52L133.3,52c0.3,0.2,0.5,0,0.5-0.3v-1.3c0-0.3-0.2-0.7-0.5-0.9l0,0c-0.3-0.2-0.5,0-0.5,0.3
									v1.3C132.8,51.5,133,51.9,133.3,52z"/>
								<path fill="#8C7866" d="M140.3,53.7c0,0,0.3-2.3-0.2-3.3c0,0-0.9-2.4-3.4-3.9c-2.5-1.5-3.1-0.8-3.6,0.1c0,0-0.4,1.9,0.1,3
									l0.2,0.9c0,0,1-0.8,0.7-2.7c0,0,1.8,2.9,4.9,3.9c0,0,0,1.5,0.9,2.3L140.3,53.7z"/>
							</g>
						</g>
					</g>
					<g>
						<polygon fill="#C4C4C4" points="127.1,67.7 146.2,78.8 146.2,77.6 127.1,66.5 						"/>
						<polygon fill="#C4C4C4" points="131.6,62.1 141.7,67.9 141.7,67.2 131.6,61.3 						"/>
						<polygon fill="#C4C4C4" points="127.1,69.5 146.2,80.5 146.2,79.3 127.1,68.3 						"/>
						<polygon fill="#C4C4C4" points="127.1,71.2 146.2,82.3 146.2,81.1 127.1,70 						"/>
						<polygon fill="#C4C4C4" points="127.1,73 146.2,84 146.2,82.8 127.1,71.8 						"/>
						<polygon fill="#C4C4C4" points="127.1,74.7 146.2,85.8 146.2,84.6 127.1,73.5 						"/>
					</g>
					<g>
						<path fill="#E695AE" d="M141.2,72.1C141.3,72.1,141.3,72.2,141.2,72.1c3.9,6.7,5.3,5.9,1.4-0.8c0,0,0,0,0,0
							C138.7,64.7,137.5,65.4,141.2,72.1z"/>
						<path fill="#98C0EF" d="M137.7,70.1C137.7,70.1,137.7,70.1,137.7,70.1c4.3,7.1,5.4,6.4,1.5-0.8c0,0,0,0,0-0.1
							C135.2,62.6,133.8,63.4,137.7,70.1z"/>
						<path fill="#EAAD59" d="M134.1,68C134.1,68,134.1,68,134.1,68c3.9,6.7,5.3,5.9,1.4-0.8c0,0,0,0,0,0
							C131.6,60.5,130.3,61.3,134.1,68z"/>
						<path fill="#B687F2" d="M130.5,65.9C130.5,66,130.5,66,130.5,65.9c3.9,6.7,5.3,5.9,1.4-0.8c0,0,0,0,0,0
							C128,58.5,126.8,59.2,130.5,65.9z"/>
					</g>
				</g>
			</g>
			<g>
				<g>
					<polygon fill="#8FCDEF" points="186.4,112.7 186.4,66.6 159.5,51.1 159.5,97.2 					"/>
					<polygon fill="#71B5D3" points="186.4,112.7 187,112.4 187,66.2 186.4,66.6 					"/>
					<polygon fill="#C2ECFF" points="187,66.2 160.1,50.7 159.5,51.1 186.4,66.6 					"/>
				</g>
				<g>
					<polygon fill="#F8FFFF" points="160.5,95.5 184.4,109.4 184.4,67.8 160.5,54 					"/>
					<path fill="#F3F3F3" d="M164.6,69.9c0,5,3.5,11,7.8,13.5c4.3,2.5,7.8,0.5,7.8-4.5c0-5-3.5-11-7.8-13.5
						C168.1,62.9,164.6,64.9,164.6,69.9z"/>
					<g>
						<defs>
							<path id="SVGID_7_" d="M164.6,69.9c0,5,3.5,11,7.8,13.5c4.3,2.5,7.8,0.5,7.8-4.5c0-5-3.5-11-7.8-13.5
								C168.1,62.9,164.6,64.9,164.6,69.9z"/>
						</defs>
						<clipPath id="SVGID_8_">
							<use xlink:href="#SVGID_7_"  overflow="visible"/>
						</clipPath>
						<g clip-path="url(#SVGID_8_)">
							<path fill="#726E8B" d="M167.9,81l9.1,5.3v-2.8c0-1.4-1-3.1-2.2-3.8l-4.7-2.7c-1.2-0.7-2.2-0.1-2.2,1.3V81z"/>
							<path fill="#F0CAD4" d="M172.4,80.3L172.4,80.3c0.9,0.5,1.6,0.1,1.6-0.9v-1.9l-3.2-1.9v1.9C170.8,78.5,171.6,79.8,172.4,80.3
								z"/>
							<g>
								<path fill="#F0CAD4" d="M170.9,77l0.7,0.9c0.5,0.7,1.2,1,1.7,1l0.7-0.1c1.1-0.1,1.8-1,1.8-2.5v-2.9c0-2.1-1.5-4.7-3.3-5.8
									l0,0c-1.8-1.1-3.3-0.2-3.3,1.9v2.9C169.1,73.9,169.8,75.6,170.9,77z"/>
								<path fill="#F0CAD4" d="M175.8,76.6L175.8,76.6c0.3,0.2,0.5,0,0.5-0.3V75c0-0.3-0.2-0.7-0.5-0.9l0,0c-0.3-0.2-0.5,0-0.5,0.3
									v1.3C175.3,76,175.5,76.4,175.8,76.6z"/>
								<path fill="#F0CAD4" d="M169.1,72.7L169.1,72.7c0.3,0.2,0.5,0,0.5-0.3v-1.3c0-0.3-0.2-0.7-0.5-0.9l0,0
									c-0.3-0.2-0.5,0-0.5,0.3v1.3C168.6,72.2,168.8,72.6,169.1,72.7z"/>
								<path fill="#8C7866" d="M176.1,74.4c0,0,0.3-2.3-0.2-3.3c0,0-0.9-2.4-3.4-3.9c-2.5-1.5-3.1-0.8-3.6,0.1c0,0-0.4,1.9,0.1,3
									l0.2,0.9c0,0,1-0.8,0.7-2.7c0,0,1.8,2.9,4.9,3.9c0,0,0,1.5,0.9,2.3L176.1,74.4z"/>
							</g>
						</g>
					</g>
					<g>
						<polygon fill="#C4C4C4" points="162.9,88.4 182,99.5 182,98.3 162.9,87.2 						"/>
						<polygon fill="#C4C4C4" points="167.4,82.8 177.5,88.6 177.5,87.9 167.4,82 						"/>
						<polygon fill="#C4C4C4" points="162.9,90.2 182,101.2 182,100 162.9,89 						"/>
						<polygon fill="#C4C4C4" points="162.9,91.9 182,103 182,101.8 162.9,90.7 						"/>
						<polygon fill="#C4C4C4" points="162.9,93.7 182,104.7 182,103.5 162.9,92.5 						"/>
						<polygon fill="#C4C4C4" points="162.9,95.4 182,106.5 182,105.3 162.9,94.2 						"/>
					</g>
					<g>
						<path fill="#E695AE" d="M177.1,92.9C177.1,92.9,177.1,92.9,177.1,92.9c4.3,7.1,5.5,6.4,1.4-0.8c0,0,0,0,0,0
							C174.6,85.3,173.2,86.1,177.1,92.9z"/>
						<path fill="#98C0EF" d="M173.5,90.8C173.5,90.8,173.5,90.8,173.5,90.8c4.3,7.1,5.5,6.4,1.4-0.8c0,0,0,0,0,0
							C171,83.3,169.6,84.1,173.5,90.8z"/>
						<path fill="#EAAD59" d="M169.9,88.7C169.9,88.7,169.9,88.7,169.9,88.7c3.9,6.7,5.3,5.9,1.4-0.8c0,0,0,0,0,0
							C167.1,80.8,165.9,81.5,169.9,88.7z"/>
						<path fill="#B687F2" d="M166.4,86.6C166.4,86.7,166.4,86.7,166.4,86.6c3.9,6.8,5.3,5.9,1.4-0.8c0,0,0,0,0,0
							C163.8,79.2,162.6,79.9,166.4,86.6z"/>
					</g>
				</g>
			</g>
			<g>
				<g>
					<polygon fill="#8FCDEF" points="159.5,107.6 159.5,61.5 132.6,45.9 132.6,92 					"/>
					<polygon fill="#71B5D3" points="159.5,107.6 160.1,107.2 160.1,61.1 159.5,61.5 					"/>
					<polygon fill="#C2ECFF" points="160.1,61.1 133.2,45.5 132.6,45.9 159.5,61.5 					"/>
				</g>
				<g>
					<polygon fill="#F8FFFF" points="133.5,90.4 157.5,104.2 157.5,62.7 133.5,48.8 					"/>
					<path fill="#F3F3F3" d="M137.7,64.7c0,5,3.5,11,7.8,13.5c4.3,2.5,7.8,0.5,7.8-4.5s-3.5-11-7.8-13.5
						C141.2,57.8,137.7,59.8,137.7,64.7z"/>
					<g>
						<defs>
							<path id="SVGID_9_" d="M137.7,64.7c0,5,3.5,11,7.8,13.5c4.3,2.5,7.8,0.5,7.8-4.5s-3.5-11-7.8-13.5
								C141.2,57.8,137.7,59.8,137.7,64.7z"/>
						</defs>
						<clipPath id="SVGID_10_">
							<use xlink:href="#SVGID_9_"  overflow="visible"/>
						</clipPath>
						<g clip-path="url(#SVGID_10_)">
							<path fill="#726E8B" d="M141,75.9l9.1,5.3v-2.8c0-1.4-1-3.1-2.2-3.8l-4.7-2.7c-1.2-0.7-2.2-0.1-2.2,1.3V75.9z"/>
							<path fill="#F0CAD4" d="M145.5,75.1L145.5,75.1c0.9,0.5,1.6,0.1,1.6-0.9v-1.9l-3.2-1.9v1.9C143.9,73.4,144.6,74.6,145.5,75.1
								z"/>
							<g>
								<path fill="#F0CAD4" d="M144,71.8l0.7,0.9c0.5,0.7,1.2,1,1.7,1l0.7-0.1c1.1-0.1,1.8-1,1.8-2.5v-2.9c0-2.1-1.5-4.7-3.3-5.8
									l0,0c-1.8-1.1-3.3-0.2-3.3,1.9v2.9C142.2,68.7,142.9,70.4,144,71.8z"/>
								<path fill="#F0CAD4" d="M148.9,71.4L148.9,71.4c0.3,0.2,0.5,0,0.5-0.3v-1.3c0-0.3-0.2-0.7-0.5-0.9l0,0
									c-0.3-0.2-0.5,0-0.5,0.3v1.3C148.4,70.9,148.6,71.3,148.9,71.4z"/>
								<path fill="#F0CAD4" d="M142.2,67.6L142.2,67.6c0.3,0.2,0.5,0,0.5-0.3v-1.3c0-0.3-0.2-0.7-0.5-0.9l0,0
									c-0.3-0.2-0.5,0-0.5,0.3v1.3C141.7,67,141.9,67.4,142.2,67.6z"/>
								<path fill="#8C7866" d="M149.2,69.3c0,0,0.3-2.3-0.2-3.3c0,0-0.9-2.4-3.4-3.9c-2.5-1.5-3.1-0.8-3.6,0.1c0,0-0.4,1.9,0.1,3
									l0.2,0.9c0,0,1-0.8,0.7-2.7c0,0,1.8,2.9,4.9,3.9c0,0,0,1.5,0.9,2.3L149.2,69.3z"/>
							</g>
						</g>
					</g>
					<g>
						<polygon fill="#C4C4C4" points="136,83.3 155.1,94.3 155.1,93.1 136,82.1 						"/>
						<polygon fill="#C4C4C4" points="140.5,77.6 150.6,83.4 150.6,82.7 140.5,76.9 						"/>
						<polygon fill="#C4C4C4" points="136,85 155.1,96 155.1,94.9 136,83.8 						"/>
						<polygon fill="#C4C4C4" points="136,86.8 155.1,97.8 155.1,96.6 136,85.6 						"/>
						<polygon fill="#C4C4C4" points="136,88.5 155.1,99.5 155.1,98.4 136,87.3 						"/>
						<polygon fill="#C4C4C4" points="136,90.3 155.1,101.3 155.1,100.1 136,89.1 						"/>
					</g>
					<g>
						<path fill="#E695AE" d="M150.2,87.7C150.2,87.7,150.2,87.7,150.2,87.7c4.3,7.1,5.5,6.4,1.4-0.8c0,0,0,0,0,0
							C147.7,80.2,146.3,81,150.2,87.7z"/>
						<path fill="#98C0EF" d="M146.6,85.6C146.6,85.6,146.6,85.6,146.6,85.6c3.9,6.7,5.3,5.9,1.4-0.8c0,0,0,0,0,0
							C143.7,77.7,142.6,78.4,146.6,85.6z"/>
						<path fill="#EAAD59" d="M143,83.5C143,83.6,143,83.6,143,83.5c3.9,6.7,5.3,5.9,1.4-0.8c0,0,0,0,0,0
							C140.5,76.1,139.2,76.8,143,83.5z"/>
						<path fill="#B687F2" d="M139.4,81.5C139.4,81.5,139.5,81.5,139.4,81.5c3.9,6.7,5.3,5.9,1.4-0.8c0,0,0,0,0,0
							C136.8,74.1,135.7,74.7,139.4,81.5z"/>
					</g>
				</g>
			</g>
		</g>
		<g>
			<g>
				<path fill="#8671C6" d="M144.7,78.7C136,64,121.3,56.6,111.9,62.2l-8.2,4.7l3.1,5.2c0.5-0.8,1.1-1.6,1.8-2.2
					c7.9-2.6,18.9,3.6,25.6,14.9c6.7,11.3,6.9,23.9,0.8,29.6c-0.8,0.3-1.6,0.4-2.5,0.5l3.1,5.1l7.9-4.5
					C152.9,109.9,153.4,93.4,144.7,78.7z"/>
				<path fill="#7163A8" d="M136.9,83.2c-8.7-14.7-23.4-22.1-32.8-16.5c-9.4,5.6-9.9,22-1.2,36.7c8.7,14.7,23.4,22.1,32.8,16.5
					C145,114.4,145.6,97.9,136.9,83.2z M135,114.4c-7.9,2.6-18.9-3.6-25.6-14.9c-6.7-11.3-6.9-23.9-0.8-29.6
					c7.9-2.6,18.9,3.6,25.6,14.9C140.9,96.1,141.1,108.7,135,114.4z"/>
				<path fill="#5C5293" d="M109.4,99.5c-6.7-11.3-6.9-23.9-0.8-29.6c3.5-1.1,7.5-0.6,11.5,1.3c-4.9-2.3-9.9-2.6-13.8-0.3
					c-8,4.8-8.5,18.7-1.1,31.1c7.4,12.4,19.9,18.7,27.9,13.9c0.7-0.4,1.4-0.9,1.9-1.5C127.1,117,116.2,110.8,109.4,99.5z"/>
				<path opacity="0.6" fill="#D4F2FF" d="M134.2,84.8c-6.7-11.3-17.7-17.5-25.6-14.9c-6.1,5.7-5.9,18.3,0.8,29.6
					c6.7,11.3,17.7,17.5,25.6,14.9C141.1,108.7,140.9,96.1,134.2,84.8z"/>
				<g opacity="0.8">
					<path fill="#FFFFFF" d="M129.3,112.1c-6.6,0-14-5.1-18.9-13.2c-0.9-1.6-1.8-3.3-2.4-4.9c-0.3-0.9,0.1-1.9,1-2.2
						c0.9-0.3,1.9,0.1,2.2,1c0.6,1.5,1.3,3,2.2,4.4c4.9,8.2,12.8,13,18.4,11.1c0.9-0.3,1.9,0.2,2.2,1.1c0.3,0.9-0.2,1.9-1.1,2.2
						C131.8,112,130.6,112.1,129.3,112.1z"/>
				</g>
				<g opacity="0.8">
					<path fill="#FFFFFF" d="M107.8,86.7c-0.9,0-1.7-0.7-1.7-1.7c-0.2-5,1.2-9.2,4-11.9c0.7-0.7,1.8-0.6,2.5,0.1
						c0.7,0.7,0.6,1.8-0.1,2.5c-2.1,2-3.1,5.2-3,9.2C109.6,85.8,108.8,86.6,107.8,86.7C107.8,86.7,107.8,86.7,107.8,86.7z"/>
				</g>
			</g>
			<g>
				<path fill="#8FCDEF" d="M146.6,103c0.9-1.6,2.5-2.4,3.5-1.8l18.1,10.5l-3.4,5.7l-18-10.5C145.7,106.4,145.7,104.6,146.6,103z"/>
				
					<ellipse transform="matrix(0.86 0.5103 -0.5103 0.86 81.7932 -68.9307)" fill="#7D7D7D" cx="166.5" cy="114.6" rx="2.1" ry="3.3"/>
			</g>
			<g>
				<path fill="#8671C6" d="M162.9,112.6c1.7-2.8,4.5-4.2,6.3-3.2l32,18.6l-6.1,10.1l-31.9-18.6
					C161.3,118.6,161.2,115.4,162.9,112.6z"/>
				
					<ellipse transform="matrix(0.86 0.5104 -0.5104 0.86 95.6771 -82.4451)" fill="#7D7D7D" cx="198.1" cy="133.1" rx="3.8" ry="5.9"/>
				
					<ellipse transform="matrix(0.86 0.5103 -0.5103 0.86 95.7206 -82.4928)" fill="#999999" cx="198.2" cy="133.2" rx="2.5" ry="3.9"/>
			</g>
		</g>
		<g>
			<g>
				<g>
					<path fill="#A6C6DD" d="M142.5,193.3l54.1-31.2c1.1-0.6,2.4-0.6,3.5,0l34.8,20.1c1.8,1.1,1.8,3.7,0,4.8l-21.3,12.3
						c-3.1,1.8-7,1.8-10.2,0l0,0l-29.2,16.8c-0.9,0.5-1.9,0.5-2.8,0l-29-16.7C140.2,198,140.2,194.7,142.5,193.3z"/>
					<path fill="#CC8244" d="M142.5,188.8l54.1-31.2c1.1-0.6,2.4-0.6,3.5,0l34.8,20.1c1.8,1.1,1.8,3.7,0,4.8l-21.3,12.3
						c-3.1,1.8-7,1.8-10.2,0l0,0l-29.2,16.8c-0.9,0.5-1.9,0.5-2.8,0l-29-16.7C140.2,193.5,140.2,190.1,142.5,188.8z"/>
					<path fill="#EDB158" d="M142.5,187.7l54.1-31.2c1.1-0.6,2.4-0.6,3.5,0l34.8,20.1c1.8,1.1,1.8,3.7,0,4.8l-21.3,12.3
						c-3.1,1.8-7,1.8-10.2,0l0,0l-29.2,16.8c-0.9,0.5-1.9,0.5-2.8,0l-29-16.7C140.2,192.4,140.2,189,142.5,187.7z"/>
				</g>
				<g>
					<polygon fill="#FFFFFF" points="152.4,198.8 142.1,192.9 152.4,186.9 162.8,192.9 					"/>
					<g>
						<defs>
							<polygon id="SVGID_11_" points="152.4,198.8 142.1,192.9 152.4,186.9 162.8,192.9 							"/>
						</defs>
						<clipPath id="SVGID_12_">
							<use xlink:href="#SVGID_11_"  overflow="visible"/>
						</clipPath>
						<g clip-path="url(#SVGID_12_)">
							<path fill="#726E8B" d="M155.1,187.9l6.5,3.9l-1.8,1c-0.9,0.5-2.3,0.5-3.2,0l-3.3-2c-0.9-0.5-0.9-1.3,0-1.8L155.1,187.9z"/>
							<path fill="#F0CAD4" d="M156.3,191L156.3,191c0.6,0.4,0.6,1,0,1.3l-1.2,0.6l-2.3-1.4l1.2-0.6
								C154.6,190.6,155.6,190.6,156.3,191z"/>
							<g>
								<path fill="#F0CAD4" d="M153.6,191.2l0.8,0.1c0.6,0.1,1.1,0.4,1.2,0.7l0.2,0.5c0.3,0.7,0,1.5-0.9,2l-1.8,1
									c-1.3,0.7-3.5,0.7-4.8-0.1l0,0c-1.3-0.8-1.3-2,0-2.8l1.8-1C151.1,191.2,152.4,191,153.6,191.2z"/>
								<path fill="#F0CAD4" d="M155.1,194.4L155.1,194.4c0.2,0.1,0.2,0.3,0,0.4l-0.8,0.5c-0.2,0.1-0.5,0.1-0.7,0l0,0
									c-0.2-0.1-0.2-0.3,0-0.4l0.8-0.5C154.6,194.3,154.9,194.3,155.1,194.4z"/>
								<path fill="#F0CAD4" d="M150.4,191.6L150.4,191.6c0.2,0.1,0.2,0.3,0,0.4l-0.8,0.5c-0.2,0.1-0.5,0.1-0.7,0l0,0
									c-0.2-0.1-0.2-0.3,0-0.4l0.8-0.5C149.8,191.4,150.2,191.4,150.4,191.6z"/>
								<path fill="#8C7866" d="M153.9,195.4c0,0-1.4,1-2.1,1c0,0-1.8,0.3-3.6-0.8c-1.8-1.1-1.6-1.7-1.2-2.3c0,0,1-0.9,1.9-1
									l0.6-0.2c0,0-0.1,0.9-1.4,1.4c0,0,2.4,0.1,4.1,1.7c0,0,0.9-0.5,1.7-0.2L153.9,195.4z"/>
							</g>
						</g>
					</g>
				</g>
			</g>
			<g>
				<g>
					<path fill="#CC8244" d="M142.5,181.8l54.1-31.2c1.1-0.6,2.4-0.6,3.5,0l34.8,20.1c1.8,1.1,1.8,3.7,0,4.8l-21.3,12.3
						c-3.1,1.8-7,1.8-10.2,0l0,0l-29.2,16.8c-0.9,0.5-1.9,0.5-2.8,0l-29-16.7C140.2,186.5,140.2,183.1,142.5,181.8z"/>
					<path fill="#EDB158" d="M142.5,180.7l54.1-31.2c1.1-0.6,2.4-0.6,3.5,0l34.8,20.1c1.8,1.1,1.8,3.7,0,4.8l-21.3,12.3
						c-3.1,1.8-7,1.8-10.2,0l0,0l-29.2,16.8c-0.9,0.5-1.9,0.5-2.8,0l-29-16.7C140.2,185.4,140.2,182,142.5,180.7z"/>
				</g>
				<g>
					<polygon fill="#FFFFFF" points="152.4,191.9 142.1,185.9 152.4,179.9 162.8,185.9 					"/>
					<g>
						<defs>
							<polygon id="SVGID_13_" points="152.4,191.9 142.1,185.9 152.4,179.9 162.8,185.9 							"/>
						</defs>
						<clipPath id="SVGID_14_">
							<use xlink:href="#SVGID_13_"  overflow="visible"/>
						</clipPath>
						<g clip-path="url(#SVGID_14_)">
							<path fill="#726E8B" d="M155.1,180.9l6.5,3.9l-1.8,1c-0.9,0.5-2.3,0.5-3.2,0l-3.3-2c-0.9-0.5-0.9-1.3,0-1.8L155.1,180.9z"/>
							<path fill="#F0CAD4" d="M156.3,184L156.3,184c0.6,0.4,0.6,1,0,1.3l-1.2,0.6l-2.3-1.4l1.2-0.6
								C154.6,183.6,155.6,183.6,156.3,184z"/>
							<g>
								<path fill="#F0CAD4" d="M153.6,184.2l0.8,0.1c0.6,0.1,1.1,0.4,1.2,0.7l0.2,0.5c0.3,0.7,0,1.5-0.9,2l-1.8,1
									c-1.3,0.7-3.5,0.7-4.8-0.1l0,0c-1.3-0.8-1.3-2,0-2.8l1.8-1C151.1,184.2,152.4,184,153.6,184.2z"/>
								<path fill="#F0CAD4" d="M155.1,187.4L155.1,187.4c0.2,0.1,0.2,0.3,0,0.4l-0.8,0.5c-0.2,0.1-0.5,0.1-0.7,0l0,0
									c-0.2-0.1-0.2-0.3,0-0.4l0.8-0.5C154.6,187.3,154.9,187.3,155.1,187.4z"/>
								<path fill="#F0CAD4" d="M150.4,184.6L150.4,184.6c0.2,0.1,0.2,0.3,0,0.4l-0.8,0.5c-0.2,0.1-0.5,0.1-0.7,0l0,0
									c-0.2-0.1-0.2-0.3,0-0.4l0.8-0.5C149.8,184.5,150.2,184.5,150.4,184.6z"/>
								<path fill="#8C7866" d="M153.9,188.4c0,0-1.4,1-2.1,1c0,0-1.8,0.3-3.6-0.8c-1.8-1.1-1.6-1.7-1.2-2.3c0,0,1-0.9,1.9-1
									l0.6-0.2c0,0-0.1,0.9-1.4,1.4c0,0,2.4,0.1,4.1,1.7c0,0,0.9-0.5,1.7-0.2L153.9,188.4z"/>
							</g>
						</g>
					</g>
				</g>
			</g>
			<g>
				<g>
					<path fill="#CC8244" d="M142.5,174.8l54.1-31.2c1.1-0.6,2.4-0.6,3.5,0l34.8,20.1c1.8,1.1,1.8,3.7,0,4.8l-21.3,12.3
						c-3.1,1.8-7,1.8-10.2,0l0,0l-29.2,16.8c-0.9,0.5-1.9,0.5-2.8,0l-29-16.7C140.2,179.5,140.2,176.1,142.5,174.8z"/>
					<path fill="#EDB158" d="M142.5,173.7l54.1-31.2c1.1-0.6,2.4-0.6,3.5,0l34.8,20.1c1.8,1.1,1.8,3.7,0,4.8l-21.3,12.3
						c-3.1,1.8-7,1.8-10.2,0l0,0l-29.2,16.8c-0.9,0.5-1.9,0.5-2.8,0l-29-16.7C140.2,178.4,140.2,175.1,142.5,173.7z"/>
				</g>
				<g>
					<polygon fill="#FFFFFF" points="152.4,184.9 142.1,178.9 152.4,172.9 162.8,178.9 					"/>
					<g>
						<defs>
							<polygon id="SVGID_15_" points="152.4,184.9 142.1,178.9 152.4,172.9 162.8,178.9 							"/>
						</defs>
						<clipPath id="SVGID_16_">
							<use xlink:href="#SVGID_15_"  overflow="visible"/>
						</clipPath>
						<g clip-path="url(#SVGID_16_)">
							<path fill="#726E8B" d="M155.1,173.9l6.5,3.9l-1.8,1c-0.9,0.5-2.3,0.5-3.2,0l-3.3-2c-0.9-0.5-0.9-1.3,0-1.8L155.1,173.9z"/>
							<path fill="#F0CAD4" d="M156.3,177L156.3,177c0.6,0.4,0.6,1,0,1.3l-1.2,0.6l-2.3-1.4l1.2-0.6
								C154.6,176.6,155.6,176.6,156.3,177z"/>
							<g>
								<path fill="#F0CAD4" d="M153.6,177.2l0.8,0.1c0.6,0.1,1.1,0.4,1.2,0.7l0.2,0.5c0.3,0.7,0,1.5-0.9,2l-1.8,1
									c-1.3,0.7-3.5,0.7-4.8-0.1l0,0c-1.3-0.8-1.3-2,0-2.8l1.8-1C151.1,177.2,152.4,177,153.6,177.2z"/>
								<path fill="#F0CAD4" d="M155.1,180.4L155.1,180.4c0.2,0.1,0.2,0.3,0,0.4l-0.8,0.5c-0.2,0.1-0.5,0.1-0.7,0l0,0
									c-0.2-0.1-0.2-0.3,0-0.4l0.8-0.5C154.6,180.3,154.9,180.3,155.1,180.4z"/>
								<path fill="#F0CAD4" d="M150.4,177.6L150.4,177.6c0.2,0.1,0.2,0.3,0,0.4l-0.8,0.5c-0.2,0.1-0.5,0.1-0.7,0l0,0
									c-0.2-0.1-0.2-0.3,0-0.4l0.8-0.5C149.8,177.5,150.2,177.5,150.4,177.6z"/>
								<path fill="#8C7866" d="M153.9,181.4c0,0-1.4,1-2.1,1c0,0-1.8,0.3-3.6-0.8c-1.8-1.1-1.6-1.7-1.2-2.3c0,0,1-0.9,1.9-1
									l0.6-0.2c0,0-0.1,0.9-1.4,1.4c0,0,2.4,0.1,4.1,1.7c0,0,0.9-0.5,1.7-0.2L153.9,181.4z"/>
							</g>
						</g>
					</g>
				</g>
			</g>
		</g>
		<g>
			<g>
				<path fill="#8671C6" d="M80.4,57.6c1.3,0,2.4-1.1,2.5-2.4l0.6-14.3c0.1-1.7-1.4-3.2-3.1-3.2c-1.7,0-3.1,1.4-3.1,3.2l0.6,14.3
					C78,56.5,79.1,57.6,80.4,57.6L80.4,57.6z"/>
			</g>
			<path fill="#8671C6" d="M82.8,60.8c0.4,1.8-1.1,3.4-2.9,2.9c-0.8-0.2-1.5-0.9-1.7-1.7c-0.4-1.8,1.1-3.4,2.9-2.9
				C81.9,59.3,82.6,59.9,82.8,60.8z"/>
		</g>
	</g>
</g>
<g id="DESIGNED_BY_FREEPIK">
</g>
</svg>
