<?xml version="1.0" encoding="utf-8"?>
<!-- Generator: Adobe Illustrator 18.0.0, SVG Export Plug-In . SVG Version: 6.00 Build 0)  -->
<!DOCTYPE svg PUBLIC "-//W3C//DTD SVG 1.1//EN" "http://www.w3.org/Graphics/SVG/1.1/DTD/svg11.dtd">
<svg version="1.1" id="Слой_1" xmlns="http://www.w3.org/2000/svg" xmlns:xlink="http://www.w3.org/1999/xlink" x="0px" y="0px"
	 width="134.6px" height="134.6px" viewBox="5.2 2.8 134.6 134.6" enable-background="new 5.2 2.8 134.6 134.6"
	 xml:space="preserve">
<g>
	
		<linearGradient id="SVGID_1_" gradientUnits="userSpaceOnUse" x1="-1238.2845" y1="1146.8118" x2="-1339.032" y2="1046.0645" gradientTransform="matrix(1 0 0 1 1361.1646 -1026.3517)">
		<stop  offset="0" style="stop-color:#08095D"/>
		<stop  offset="1" style="stop-color:#092BA3"/>
	</linearGradient>
	<path fill="url(#SVGID_1_)" stroke="#3E55A9" stroke-width="8.0648" stroke-miterlimit="10" d="M129.2,105.1
		c0,12-9.7,21.7-21.7,21.7l-70,0c-12,0-21.7-9.7-21.7-21.7l0-70c0-12,9.7-21.7,21.7-21.7l70,0c12,0,21.7,9.7,21.7,21.7V105.1z"/>
	<g opacity="0.2">
		<path fill="#FFFFFF" d="M132.1,129.7c-5,5-11.6,7.7-18.6,7.7l-82,0c-14.5,0-26.3-11.8-26.3-26.3v-82c0-7,2.7-13.6,7.7-18.6
			c5-5,11.6-7.7,18.6-7.7h82c14.5,0,26.3,11.8,26.3,26.3v82C139.8,118.1,137.1,124.7,132.1,129.7z M14.1,11.7
			c-4.7,4.7-7.2,10.8-7.2,17.4v82c0,13.6,11,24.6,24.6,24.6l82,0c6.6,0,12.8-2.6,17.4-7.2c4.7-4.7,7.2-10.8,7.2-17.4l0-82
			c0-13.6-11-24.6-24.6-24.6h-82C24.9,4.4,18.7,7,14.1,11.7z"/>
	</g>
	<g>
		<path fill="#FFFFFF" d="M107.7,55.2c0,5.3,0,10.6,0,15.9c0,2.5-1.5,4.1-4,4.1c-7.5,0-15,0-22.4,0c-2.5,0-4-1.5-4-4
			c0-10.6,0-21.2,0-31.8c0-2.5,1.5-4,4-4c7.5,0,15,0,22.5,0c2.5,0,4,1.5,4,4C107.7,44.6,107.7,49.9,107.7,55.2z M79.5,65.7
			c8.6,0,17.2,0,25.8,0c0-0.2,0-0.4,0-0.6c0-8.6,0-17.2,0-25.8c0-1.2-0.5-1.7-1.7-1.7c-7.5,0-14.9,0-22.4,0c-1.3,0-1.7,0.5-1.7,1.8
			c0,8.5,0,17.1,0,25.6C79.5,65.2,79.5,65.4,79.5,65.7z M79.6,68.1c0,0.1,0,0.2,0,0.2c0,0.9,0,1.8,0,2.7c0,1.2,0.5,1.7,1.7,1.7
			c7.5,0,15,0,22.5,0c0.2,0,0.5,0,0.7-0.1c0.5-0.2,0.9-0.5,0.9-1.1c0-1.2,0-2.3,0-3.5C96.7,68.1,88.2,68.1,79.6,68.1z"/>
		<path fill="#FFFFFF" d="M56.1,64.6c4.2,0,8.3,0,12.5,0c1.2,0,1.5,0.4,1.5,1.5c0,6,0,12,0,18.1c0,1.1-0.4,1.5-1.5,1.5
			c-8.4,0-16.8,0-25.1,0c-1.1,0-1.5-0.4-1.5-1.5c0-6,0-12,0-18.1c0-1.1,0.4-1.5,1.5-1.5C47.8,64.6,51.9,64.6,56.1,64.6z M63.2,66.9
			c-4.8,0-9.5,0-14.3,0c-0.9,2.6-1.9,3.6-4.6,4.6c0,2.4,0,4.8,0,7.2c1.1,0.3,2.1,0.8,2.9,1.6c0.8,0.8,1.3,1.8,1.6,2.9
			c4.8,0,9.5,0,14.2,0c0-0.1,0.1-0.1,0.1-0.2c0.6-2.2,2-3.6,4.2-4.3c0.1,0,0.3-0.3,0.3-0.4c0-2.2,0-4.4,0-6.6c0-0.1-0.2-0.4-0.3-0.4
			C65.2,70.7,63.8,69.2,63.2,66.9z M46.5,83.3c-0.5-1-1.1-1.7-2.1-2.1c0,0.8,0,1.4,0,2.1C45.1,83.3,45.7,83.3,46.5,83.3z M46.5,66.9
			c-0.7,0-1.4,0-2.1,0c0,0.7,0,1.3,0,2.1C45.4,68.6,46.1,68,46.5,66.9z M67.8,81.2c-1,0.4-1.7,1.1-2.1,2.1c0.7,0,1.4,0,2.1,0
			C67.8,82.6,67.8,81.9,67.8,81.2z M65.7,66.9c0.4,1,1.1,1.7,2.1,2.1c0-0.7,0-1.4,0-2.1C67.1,66.9,66.4,66.9,65.7,66.9z"/>
		<path fill="#FFFFFF" d="M44.5,89.2c1.8,0,3.5,0,5.3,0c1.6,0,2.7,0.6,3.5,1.9c0.6,0.9,0.6,0.9,1.6,0.7c5.2-1,10.5-2,15.7-3.1
			c1.8-0.4,3.4,0.5,4,2.1c0.6,1.7,0,3.4-1.7,4.4c-5.8,3.3-11.7,6.6-17.5,9.9c-1.3,0.7-2.5,0.6-3.8-0.1c-2-1.3-4-2.6-6.1-3.8
			c-0.2-0.1-0.5-0.2-0.8-0.2c-2,0-4,0-6,0c-1.1,0-1.5-0.4-1.5-1.5c0-2.9,0-5.8,0-8.8c0-1.1,0.4-1.5,1.5-1.5
			C40.7,89.2,42.6,89.2,44.5,89.2z M44.4,98.6c0.4,0,0.7,0,1,0c0.3,0,0.7,0.1,1,0.3c2.1,1.3,4.2,2.6,6.3,4c0.7,0.5,1.2,0.5,1.9,0.1
			c2.8-1.6,5.5-3.1,8.3-4.7c3-1.7,5.9-3.3,8.9-5c0.6-0.3,0.8-0.9,0.6-1.5c-0.2-0.6-0.7-0.8-1.4-0.7c-3.8,0.7-7.5,1.5-11.3,2.2
			c-1.5,0.3-3,0.6-4.5,0.9c0.4,0.5,0.7,1,1,1.5c0.9,1.5,0.5,3.5-0.9,4.6c-1.3,1-3.3,0.9-4.4-0.4c-0.6-0.7-1.1-1.5-1.6-2.3
			c0.7-0.4,1.3-0.8,2-1.3c0.4,0.6,0.7,1.2,1.1,1.7c0.4,0.5,0.9,0.7,1.4,0.4c0.5-0.3,0.6-0.9,0.4-1.4c-0.1-0.2-0.2-0.3-0.3-0.5
			c-0.7-1.1-1.6-2.2-2.2-3.4c-0.6-1.2-1.5-1.6-2.8-1.5c-1.5,0.1-3,0-4.6,0C44.4,93.9,44.4,96.2,44.4,98.6z M42,98.5
			c0-2.3,0-4.6,0-6.9c-0.8,0-1.5,0-2.3,0c0,2.3,0,4.6,0,6.9C40.5,98.5,41.2,98.5,42,98.5z"/>
		<path fill="#FFFFFF" d="M67.7,47c-3.6,0-7,0-10.5,0c0,4.6,0,9.3,0,14c-0.8,0-1.6,0-2.4,0c0-0.2,0-0.5,0-0.7c0-4.7,0-9.3,0-14
			c0-1.3,0.3-1.7,1.7-1.7c3.5,0,6.9,0,10.4,0c0.2,0,0.4,0,0.7,0c0,0,0-0.1,0-0.1c-0.6-0.4-1.1-0.8-1.7-1.3c0.5-0.6,0.9-1.2,1.4-1.9
			c0.8,0.6,1.6,1.2,2.4,1.8c0.8,0.6,1.5,1.1,2.2,1.7c0.7,0.5,0.7,1.3,0.1,1.8c-1.5,1.2-3.1,2.4-4.7,3.6c-0.5-0.6-0.9-1.2-1.4-1.9
			C66.5,48,67.1,47.5,67.7,47z"/>
		<path fill="#FFFFFF" d="M100.6,51.7c0,3.4,0,6.8,0,10.2c0,0.3,0,0.6-0.1,0.8c-0.2,0.7-0.8,0.8-1.4,0.8c-4.2,0-8.4,0-12.6,0
			c-0.3,0-0.7,0-1,0c-0.9,0-1.3-0.4-1.3-1.4c0-3.2,0-6.4,0-9.6c0-0.2,0-0.5,0-0.7c-0.4,0-0.7,0-1,0c-0.6,0-1-0.2-1.2-0.8
			c-0.2-0.5,0-1,0.4-1.4c0.8-0.8,1.5-1.5,2.3-2.3c2.2-2.2,4.4-4.5,6.7-6.7c0.8-0.8,1.4-0.9,2.2,0c3,3,6,6,9,9
			c0.4,0.4,0.6,0.8,0.4,1.4c-0.2,0.6-0.7,0.8-1.3,0.7C101.3,51.7,101,51.7,100.6,51.7z M92.5,42.9c-2.2,2.2-4.3,4.3-6.5,6.5
			c0.6,0.3,0.7,0.9,0.7,1.6c0,3.1,0,6.2,0,9.3c0,0.2,0,0.5,0,0.8c3.9,0,7.8,0,11.7,0c0-0.3,0-0.5,0-0.7c0-3.1,0-6.2,0-9.3
			c0-0.7,0.1-1.2,0.7-1.6C96.8,47.2,94.6,45,92.5,42.9z"/>
		<path fill="#FFFFFF" d="M88.9,71.5c0-0.8,0-1.5,0-2.2c2.3,0,4.6,0,7,0c0,0.7,0,1.5,0,2.2C93.6,71.5,91.3,71.5,88.9,71.5z"/>
		<path fill="#FFFFFF" d="M52.6,77.5c0.8,0,1.5,0,2.3,0c0.1,0.2,0.1,0.4,0.2,0.5c0.3,0.5,0.7,0.7,1.3,0.6c0.5-0.1,0.8-0.5,0.9-1
			c0.1-0.6-0.2-0.9-0.7-1.1c-0.6-0.2-1.1-0.4-1.7-0.6c-1.3-0.5-2.2-1.4-2.2-2.9c-0.1-1.5,0.6-2.7,1.9-3.4c0.3-0.2,0.4-0.4,0.4-0.7
			c0-0.3,0-0.5,0-0.8c0.8,0,1.5,0,2.4,0c-0.4,1,0.3,1.5,1,2c0.9,0.6,1.3,1.6,1.2,2.6c-0.7,0-1.5,0-2.2,0c-0.1-0.2-0.1-0.4-0.2-0.6
			c-0.3-0.5-0.7-0.7-1.3-0.5c-0.6,0.1-0.8,0.5-0.9,1.1c-0.1,0.5,0.3,0.8,0.7,1c0.6,0.2,1.1,0.4,1.7,0.6c1.3,0.5,2.2,1.5,2.2,2.9
			c0.1,1.5-0.6,2.6-1.9,3.3c-0.3,0.2-0.5,0.4-0.4,0.7c0,0.3,0,0.5,0,0.8c-0.8,0-1.5,0-2.4,0c0.4-1.1-0.4-1.5-1.1-2.1
			C53,79.4,52.6,78.5,52.6,77.5z"/>
		<path fill="#FFFFFF" d="M88.9,55.2c0.8,0,1.5,0,2.3,0c0,0,0,0.1,0.1,0.1c0.3,0.8,0.7,1.1,1.3,1c0.6-0.1,1-0.5,1.1-1.1
			c0.1-0.6-0.2-0.9-1.1-1.2c-0.5-0.2-1.1-0.3-1.6-0.6c-1.2-0.5-2-1.4-2-2.8c-0.1-1.3,0.4-2.5,1.6-3.1c0.7-0.4,0.8-0.8,0.8-1.5
			c0-0.1,0-0.2,0-0.3c0.7,0,1.5,0,2.2,0c0,0,0.1,0,0.1,0.1c-0.1,0.9,0.2,1.4,1,1.9c0.9,0.5,1.3,1.5,1.3,2.7c-0.8,0-1.5,0-2.3,0
			c-0.1-0.2-0.1-0.3-0.2-0.5c-0.3-0.5-0.7-0.7-1.3-0.6c-0.5,0.1-0.9,0.5-0.9,1c-0.1,0.6,0.2,0.9,0.8,1.1c0.6,0.2,1.3,0.4,1.9,0.7
			c1.2,0.5,2,1.4,2,2.7c0.1,1.4-0.4,2.5-1.6,3.2c-0.6,0.3-0.8,0.7-0.7,1.3c0,0.1,0,0.2,0,0.4c-0.7,0-1.5,0-2.2,0
			c0,0-0.1-0.1-0.1-0.1c0.1-0.8-0.2-1.4-1-1.8C89.4,57.4,89,56.4,88.9,55.2z"/>
	</g>
	<g>
		<path fill="#7A96F2" d="M44.5,89.2c1.8,0,3.5,0,5.3,0c1.6,0,2.7,0.6,3.5,1.9c0.6,0.9,0.6,0.9,1.6,0.7c5.2-1,10.5-2,15.7-3.1
			c1.8-0.4,3.4,0.5,4,2.1c0.6,1.7,0,3.4-1.7,4.4c-5.8,3.3-11.7,6.6-17.5,9.9c-1.3,0.7-2.5,0.6-3.8-0.1c-2-1.3-4-2.6-6.1-3.8
			c-0.2-0.1-0.5-0.2-0.8-0.2c-2,0-4,0-6,0c-1.1,0-1.5-0.4-1.5-1.5c0-2.9,0-5.8,0-8.8c0-1.1,0.4-1.5,1.5-1.5
			C40.7,89.2,42.6,89.2,44.5,89.2z M44.4,98.6c0.4,0,0.7,0,1,0c0.3,0,0.7,0.1,1,0.3c2.1,1.3,4.2,2.6,6.3,4c0.7,0.5,1.2,0.5,1.9,0.1
			c2.8-1.6,5.5-3.1,8.3-4.7c3-1.7,5.9-3.3,8.9-5c0.6-0.3,0.8-0.9,0.6-1.5c-0.2-0.6-0.7-0.8-1.4-0.7c-3.8,0.7-7.5,1.5-11.3,2.2
			c-1.5,0.3-3,0.6-4.5,0.9c0.4,0.5,0.7,1,1,1.5c0.9,1.5,0.5,3.5-0.9,4.6c-1.3,1-3.3,0.9-4.4-0.4c-0.6-0.7-1.1-1.5-1.6-2.3
			c0.7-0.4,1.3-0.8,2-1.3c0.4,0.6,0.7,1.2,1.1,1.7c0.4,0.5,0.9,0.7,1.4,0.4c0.5-0.3,0.6-0.9,0.4-1.4c-0.1-0.2-0.2-0.3-0.3-0.5
			c-0.7-1.1-1.6-2.2-2.2-3.4c-0.6-1.2-1.5-1.6-2.8-1.5c-1.5,0.1-3,0-4.6,0C44.4,93.9,44.4,96.2,44.4,98.6z M42,98.5
			c0-2.3,0-4.6,0-6.9c-0.8,0-1.5,0-2.3,0c0,2.3,0,4.6,0,6.9C40.5,98.5,41.2,98.5,42,98.5z"/>
		<path fill="#7A96F2" d="M67.7,47c-3.6,0-7,0-10.5,0c0,4.6,0,9.3,0,14c-0.8,0-1.6,0-2.4,0c0-0.2,0-0.5,0-0.7c0-4.7,0-9.3,0-14
			c0-1.3,0.3-1.7,1.7-1.7c3.5,0,6.9,0,10.4,0c0.2,0,0.4,0,0.7,0c0,0,0-0.1,0-0.1c-0.6-0.4-1.1-0.8-1.7-1.3c0.5-0.6,0.9-1.2,1.4-1.9
			c0.8,0.6,1.6,1.2,2.4,1.8c0.8,0.6,1.5,1.1,2.2,1.7c0.7,0.5,0.7,1.3,0.1,1.8c-1.5,1.2-3.1,2.4-4.7,3.6c-0.5-0.6-0.9-1.2-1.4-1.9
			C66.5,48,67.1,47.5,67.7,47z"/>
	</g>
</g>
</svg>
