<?xml version="1.0" encoding="utf-8"?>
<!-- Generator: Adobe Illustrator 18.0.0, SVG Export Plug-In . SVG Version: 6.00 Build 0)  -->
<!DOCTYPE svg PUBLIC "-//W3C//DTD SVG 1.1//EN" "http://www.w3.org/Graphics/SVG/1.1/DTD/svg11.dtd">
<svg version="1.1" id="Слой_1" xmlns="http://www.w3.org/2000/svg" xmlns:xlink="http://www.w3.org/1999/xlink" x="0px" y="0px"
	 width="198.1px" height="198.1px" viewBox="4 5.6 198.1 198.1" enable-background="new 4 5.6 198.1 198.1" xml:space="preserve">
<linearGradient id="SVGID_1_" gradientUnits="userSpaceOnUse" x1="-641.3742" y1="258.3362" x2="-758.2869" y2="375.2489" gradientTransform="matrix(0.7071 0.7071 0.7071 -0.7071 373.8672 823.5231)">
	<stop  offset="0" style="stop-color:#08095D"/>
	<stop  offset="1" style="stop-color:#092BA3"/>
</linearGradient>
<path fill="url(#SVGID_1_)" stroke="#102771" stroke-width="5" stroke-miterlimit="10" d="M120.9,180c-9.8,9.8-25.8,9.8-35.7,0
	l-57.5-57.5c-9.8-9.8-9.8-25.8,0-35.7l57.5-57.5c9.8-9.8,25.8-9.8,35.7,0l57.5,57.5c9.8,9.8,9.8,25.8,0,35.7L120.9,180z"/>
<g opacity="0.15">
	<path fill="#FFFFFF" d="M103,203.7c-8.3,0-16-3.2-21.8-9.1L13,126.5c-12-12-12-31.7,0-43.7l68.1-68.1C87,8.8,94.8,5.6,103,5.6
		s16,3.2,21.8,9.1L193,82.8c12,12,12,31.7,0,43.7l-68.1,68.1C119,200.5,111.3,203.7,103,203.7z M103,7.6c-7.7,0-15,3-20.5,8.5
		L14.4,84.2c-11.3,11.3-11.3,29.6,0,40.9l68.1,68.1c5.5,5.5,12.7,8.5,20.5,8.5c7.7,0,15-3,20.5-8.5l68.1-68.1
		c11.3-11.3,11.3-29.6,0-40.9l-68.1-68.1C118,10.6,110.7,7.6,103,7.6z"/>
</g>
<g>
	<g>
		<g>
			<path fill="#FEFFFF" d="M101.8,81.7c0-2.7,0-5.4,0-8.1c0-0.4-0.1-0.6-0.5-0.8c-1.6-0.8-2.3-2.5-1.9-4.1c0.4-1.7,1.9-2.8,3.6-2.8
				c1.7,0,3.1,1.1,3.5,2.8c0.4,1.6-0.3,3.3-1.8,4.1c-0.4,0.2-0.5,0.4-0.5,0.9c0,5.4,0,10.7,0,16.1c0,0.5,0.1,0.7,0.7,0.8
				c5.8,0.7,10.7,5.6,11.4,11.4c0.1,0.6,0.3,0.7,0.8,0.7c1.3,0,2.5,0,3.8,0c0.4,0,0.6-0.1,0.6-0.5c0.9-4.8,4.9-8.1,9.7-8.1
				c4.7,0,8.7,3.5,9.5,8.2c0.9,5.2-2.8,10.3-7.9,11.2c-5.3,0.9-10.4-2.6-11.3-7.8c-0.1-0.5-0.2-0.7-0.7-0.6c-1.3,0-2.6,0-3.8,0
				c-0.4,0-0.6,0.1-0.6,0.6c-0.8,6-5.6,10.8-11.5,11.5c-0.5,0.1-0.6,0.3-0.6,0.7c0,5.4,0,10.8,0,16.2c0,0.4,0.1,0.6,0.5,0.8
				c1.6,0.8,2.3,2.5,1.8,4.2c-0.4,1.6-2,2.7-3.6,2.7c-1.7,0-3.2-1.3-3.6-3c-0.3-1.5,0.4-3.1,1.9-3.9c0.4-0.2,0.5-0.5,0.5-0.9
				c0-5.4,0-10.7,0-16.1c0-0.5-0.1-0.7-0.7-0.8c-5.8-0.7-10.7-5.7-11.4-11.4c-0.1-0.5-0.3-0.7-0.8-0.7c-1.3,0-2.5,0-3.8,0
				c-0.4,0-0.6,0.1-0.7,0.6c-0.9,4.8-5.1,8.2-10,8c-5-0.2-9.1-4.2-9.4-9.4c-0.3-4.8,3.5-9.4,8.3-10c5.3-0.7,10.1,2.7,11,7.9
				c0.1,0.4,0.2,0.5,0.6,0.5c1.3,0,2.7,0,4,0c0.4,0,0.5-0.2,0.6-0.6c0.8-6.1,5.5-10.7,11.6-11.6c0.5-0.1,0.6-0.3,0.6-0.7
				C101.8,87.2,101.8,84.4,101.8,81.7z M103,92.9c-6.1,0-11,4.9-11,11c0,6.1,4.9,11,11,11c6.1,0,11-4.9,11-11
				C114,97.8,109.1,92.9,103,92.9z M131.2,111.2c4.1,0,7.3-3.3,7.3-7.3s-3.3-7.3-7.3-7.3c-4.1,0-7.3,3.3-7.3,7.3
				C123.8,107.9,127.1,111.2,131.2,111.2z M74.9,111.2c4,0,7.3-3.2,7.4-7.2c0-4.1-3.3-7.4-7.3-7.4c-4.1,0-7.4,3.3-7.4,7.4
				C67.5,107.9,70.8,111.2,74.9,111.2z M104.2,69.6c0-0.7-0.5-1.2-1.2-1.2c-0.7,0-1.2,0.5-1.2,1.2c0,0.7,0.5,1.2,1.2,1.2
				C103.7,70.8,104.2,70.3,104.2,69.6z M103,136.9c-0.7,0-1.2,0.5-1.2,1.2c0,0.7,0.5,1.3,1.2,1.3c0.6,0,1.2-0.5,1.2-1.2
				C104.2,137.5,103.7,136.9,103,136.9z"/>
			<path fill="#FEFFFF" d="M106.6,102.6c-0.8,0-1.6,0-2.3,0c-0.2-0.7,0.3-1.7-0.6-2.2c-0.5-0.3-1.2-0.2-1.9-0.3c0,0.6,0,1.1,0,1.5
				c0.1,0.7,0.5,1,1.5,1.1c1.7,0.1,3.2,1.5,3.3,3.2c0.1,1.3,0,2.7,0,4.1c-0.8,0-1.6,0-2.4,0c0,0.8,0,1.6,0,2.4c-0.8,0-1.6,0-2.4,0
				c0-0.7,0-1.5,0-2.2c0-0.2-0.1-0.5-0.3-0.6c-1.7-0.8-2.4-2.3-2.1-4.6c0.7,0,1.4,0,2.1,0c0.1,0,0.2,0.2,0.3,0.3c0,0,0,0.1,0,0.2
				c-0.2,1.7,0.7,2.1,2.4,1.9c0-0.4,0-0.9,0-1.3c-0.1-0.7-0.5-1-1.5-1.1c-1.7-0.1-3.2-1.5-3.3-3.2c-0.1-1.3,0-2.7,0-4.1
				c0.8,0,1.6,0,2.4,0c0-0.8,0-1.6,0-2.4c0.8,0,1.6,0,2.4,0c0,0.7,0,1.5,0,2.2c0,0.2,0.1,0.5,0.3,0.6
				C106.4,99,106.9,100.6,106.6,102.6z"/>
			<path fill="#FEFFFF" d="M136,103.9c0,2.7-2.2,4.9-4.9,4.9c-2.7,0-4.9-2.2-4.9-4.9c0-2.7,2.2-4.9,4.9-4.9
				C133.9,99,136.1,101.2,136,103.9z M133.6,103.9c0-1.4-1.1-2.5-2.4-2.5c-1.3,0-2.4,1.1-2.5,2.4c0,1.3,1.1,2.5,2.4,2.5
				C132.5,106.3,133.6,105.2,133.6,103.9z"/>
			<path fill="#FEFFFF" d="M70,103.8c0-2.7,2.2-4.9,4.9-4.9c2.7,0,4.9,2.2,4.9,4.9c0,2.7-2.2,4.9-4.9,4.9
				C72.2,108.7,70,106.6,70,103.8z M77.3,103.8c0-1.3-1.1-2.5-2.4-2.4c-1.3,0-2.4,1.1-2.4,2.5c0,1.4,1.1,2.5,2.4,2.4
				C76.2,106.3,77.3,105.2,77.3,103.8z"/>
		</g>
	</g>
	<g>
		<path fill="#5473D8" d="M124.5,96.7c1.6-0.9,3.3-1.8,4.9-2.5C127.5,94.6,125.8,95.5,124.5,96.7z"/>
		<path fill="#5473D8" d="M107.7,124.2c6.2-1.6,10.8-5.2,13.9-10.8c4.6,1.8,9.1,3.5,13.7,5.3c-4.5,9.9-13.7,17.4-24,19.7
			C110,133.7,108.9,129,107.7,124.2z M113,135.4c8.3-2.8,14.5-7.9,18.9-15.4c-3.1-1.2-6.2-2.4-9.3-3.6c-3,4.5-6.9,7.7-12,9.5
			C111.4,129,112.2,132.2,113,135.4z"/>
		<path fill="#5473D8" d="M97.9,124c-6-1.6-10.5-5.2-13.4-10.7c-4.6,1.8-9.1,3.5-13.7,5.3c4.9,10.7,14.7,17.7,24.1,19.7
			c1-4.1,2.1-8.2,3.1-12.3C97.9,125.4,97.9,124.7,97.9,124z M93,135.4c-8.3-2.8-14.5-7.9-18.9-15.4c3.1-1.2,6.2-2.4,9.3-3.6
			c2.9,4.5,6.9,7.6,12,9.5C94.6,129,93.8,132.1,93,135.4z"/>
		<path fill="#5473D8" d="M98.4,83.5c-1.2-4.8-2.4-9.4-3.6-14.2c-5.9,1.5-11.1,4.2-15.6,8.2c-3.6,3.3-6.4,7.1-8.5,11.5
			c4.6,1.8,9.1,3.5,13.7,5.3C87.5,88.7,92.2,85.1,98.4,83.5C98.4,83.5,98.4,83.5,98.4,83.5z M83.4,91.3c-3.1-1.2-6.2-2.4-9.3-3.6
			c4.4-7.5,10.6-12.6,18.9-15.4c0.8,3.2,1.6,6.3,2.4,9.5C90.3,83.7,86.4,86.8,83.4,91.3z"/>
		<path fill="#5473D8" d="M107.7,83.6c1.2-4.8,2.4-9.5,3.6-14.3c11.1,2.9,19,9.5,24.1,19.8c-4.6,1.8-9.2,3.5-13.8,5.3
			c-1.5-2.7-3.3-5.1-5.8-6.9C113.4,85.6,110.7,84.3,107.7,83.6z M131.9,87.8c-4.4-7.5-10.6-12.7-18.9-15.4c-0.8,3.2-1.6,6.4-2.4,9.5
			c5.1,1.8,9.1,5,12,9.5C125.7,90.1,128.8,89,131.9,87.8z"/>
	</g>
</g>
</svg>
