<?xml version="1.0" encoding="utf-8"?>
<!-- Generator: Adobe Illustrator 18.0.0, SVG Export Plug-In . SVG Version: 6.00 Build 0)  -->
<!DOCTYPE svg PUBLIC "-//W3C//DTD SVG 1.1//EN" "http://www.w3.org/Graphics/SVG/1.1/DTD/svg11.dtd">
<svg version="1.1" id="Слой_1" xmlns="http://www.w3.org/2000/svg" xmlns:xlink="http://www.w3.org/1999/xlink" x="0px" y="0px"
	 width="38px" height="38px" viewBox="-4 -5.5 38 38" enable-background="new -4 -5.5 38 38" xml:space="preserve">
<g>
	<g>
		<path fill="#434985" d="M19.7,5.4c1.4,0.1,2.5,0.8,3.2,2.2c0.6,1.4,0.4,2.7-0.7,3.9c-0.1,0.1-0.1,0.1-0.2,0.2c-3,3-6,6-9,9.1
			c-0.5,0.5-1.1,0.8-1.8,1c-0.9,0.1-1.8,0.3-2.6,0.5c-1.3,0.3-2.4-0.8-2.2-2.1C6.5,19,6.8,17.9,7,16.9C7,16.5,7.2,16.2,7.5,16
			c3.2-3.2,6.4-6.4,9.5-9.5C17.7,5.7,18.6,5.4,19.7,5.4z M18.8,12.2c-0.8-0.8-1.7-1.7-2.5-2.5c-2.1,2.1-4.2,4.2-6.3,6.3
			c0.8,0.8,1.7,1.7,2.5,2.5C14.7,16.4,16.8,14.2,18.8,12.2z M20.2,10.9c0.3-0.3,0.6-0.5,0.8-0.9c0.5-0.7,0.4-1.7-0.2-2.3
			c-0.6-0.6-1.6-0.7-2.3-0.1c-0.3,0.2-0.5,0.5-0.8,0.8C18.5,9.2,19.3,10,20.2,10.9z M8.7,17.3c-0.2,1-0.4,2.1-0.6,3.1
			c1.1-0.2,2.1-0.4,3.1-0.6C10.4,18.9,9.6,18.1,8.7,17.3z"/>
		<path fill="#434985" d="M19.2,22.9c-1,0-2.1,0-3.1,0c-0.5,0-0.9-0.3-0.9-0.8c0-0.5,0.3-0.9,0.7-1c0.1,0,0.2,0,0.2,0
			c2.1,0,4.1,0,6.2,0c0.6,0,1,0.4,1,0.9c0,0.5-0.4,0.9-0.9,0.9C21.3,22.9,20.3,22.9,19.2,22.9z"/>
	</g>
</g>
</svg>
