<?xml version="1.0" encoding="utf-8"?>
<!-- Generator: Adobe Illustrator 18.0.0, SVG Export Plug-In . SVG Version: 6.00 Build 0)  -->
<!DOCTYPE svg PUBLIC "-//W3C//DTD SVG 1.1//EN" "http://www.w3.org/Graphics/SVG/1.1/DTD/svg11.dtd">
<svg version="1.1" id="Слой_1" xmlns="http://www.w3.org/2000/svg" xmlns:xlink="http://www.w3.org/1999/xlink" x="0px" y="0px"
	 width="67px" height="72px" viewBox="7.4 9.2 67 72" enable-background="new 7.4 9.2 67 72" xml:space="preserve">
<g>
	<g>
		<g>
			<g>
				<path fill="#F1F4FC" d="M65.5,9.3c0.6,0,1.1,0,1.7,0.1c2.2,0.2,4.1,1.1,5.4,3c1,1.4,1.2,3,1.3,4.7c0,4.8,0,9.7,0.1,14.5
					c0,5.7,0.1,11.4,0.1,17.1c0,2.5-0.8,4.7-2.8,6.4c-6.9,6-13.8,12-20.6,18c-1.7,1.5-3.4,3-5.1,4.5c-1.1,0.9-2.1,1.9-3.2,2.8
					c-1,0.8-1.7,0.8-2.7,0c-0.1-0.1-0.2-0.2-0.3-0.3c-9.3-8.1-18.6-16.3-27.9-24.4c-2.4-2-3.5-4.4-3.5-7.5c0.1-5.1,0-10.2,0-15.3
					c0-5.4,0-10.9,0-16.3c0-3.4,1.8-6,4.7-7c1.1-0.3,2.2-0.5,3.3-0.5c8.3,0,16.6,0,24.9,0C49,9.3,57.2,9.3,65.5,9.3z M70,48
					c0-10.3,0-20.6,0-30.9c0-0.8-0.2-1.6-0.5-2.3c-0.5-1-1.5-1.4-2.6-1.5c-0.3,0-0.6,0-0.9,0c-16.7,0-33.4,0-50.1,0
					c-0.3,0-0.7,0-1,0c-1.8,0.2-2.9,1.4-3,3.2c0,0.2,0,0.3,0,0.5c0,10.4,0,20.8,0,31.2c0,0.2,0,0.3,0,0.6c6.5-5.6,12.9-11,19.4-16.7
					c-0.2-0.1-0.4-0.2-0.5-0.3C26.3,28,22,24.2,17.6,20.5c-0.6-0.5-1-1-0.9-1.8c0.2-1.1,1.2-1.7,2.2-1.2c0.4,0.2,0.7,0.4,1.1,0.7
					c6.8,5.8,13.5,11.7,20.3,17.6c0.4,0.4,0.7,0.4,1.2,0C48,30,54.6,24.3,61.2,18.7c0.4-0.3,0.7-0.6,1.1-0.9
					c0.8-0.6,1.8-0.6,2.4,0.1c0.6,0.7,0.6,1.7-0.2,2.4c-1,0.9-1.9,1.7-2.9,2.5c-3.5,3-7,6-10.5,9c-0.1,0.1-0.2,0.2-0.4,0.4
					c6.4,5.5,12.8,11,19.2,16.5c0.1,0,0.1-0.1,0.2-0.1C70,48.4,70,48.2,70,48z M48.2,34.3c-1.2,1-2.4,2.1-3.6,3.1
					c-0.7,0.6-1.3,1.2-2,1.7c-1.3,1.1-2.1,1.1-3.3,0c-1.7-1.5-3.4-2.9-5-4.4c-0.2-0.1-0.3-0.3-0.5-0.4c-6.9,5.9-13.8,11.9-20.8,17.8
					c9.3,8.1,18.6,16.3,27.9,24.4c9.4-8.1,18.7-16.3,28.1-24.4C62,46.1,55.1,40.3,48.2,34.3z"/>
			</g>
		</g>
		<path fill="#F1F4FC" d="M43.7,60.2c-2.4,1.4-5.1,0.8-6.6-0.8c-1.6-1.6-1.9-4-0.8-5.9c0.7-1.2,1.7-2,3-2.4c1.3-0.4,2.6-0.2,3.9,0.3
			c0-0.2,0.1-0.4,0.1-0.5c0.8,0,1.6,0,2.5,0c0,0.2,0,0.4,0,0.7c0,2,0,4.1,0,6.1c0,0.5,0,1,0.5,1.2c0.6,0.2,1.1,0,1.5-0.4
			c0.8-0.7,1-1.6,1.1-2.6c0.2-3.4-1.8-6.4-5.1-7.5c-4.8-1.6-9.6,1-10.6,5.8c-0.6,3.1,0.3,5.8,2.8,7.8c2.4,2,5.2,2.3,8.1,1.1
			c0.4-0.2,0.8-0.4,1.2-0.6c0.4,0.7,0.8,1.4,1.3,2.1c-1.4,0.9-2.8,1.4-4.4,1.6c-4.8,0.6-9.7-2.4-11.1-7.1
			c-2.4-8.2,4.4-14.6,11.3-13.6c4.5,0.7,7.9,3.8,8.8,8c0.4,2.1,0.1,4.1-1.1,6c-1,1.4-2.7,2.2-4.3,1.8C45.1,61.1,44.5,60.6,43.7,60.2
			z M43.3,56c-0.1-0.5,0-1.1-0.3-1.5c-0.5-0.9-1.8-1.3-2.8-1c-1.1,0.3-2,1.3-2.1,2.3c-0.1,1.5,1,2.7,2.5,2.7
			C42.4,58.5,43.2,57.7,43.3,56z"/>
	</g>
</g>
<g>
	<path fill="#C8CCEA" d="M11.8,30.3c0-4.4,0-8.9,0-13.3c0-0.2,0-0.3,0-0.5c0.1-1.8,1.2-3,3-3.2c0.3,0,0.7,0,1,0
		c16.7,0,33.4,0,50.1,0c0.3,0,0.6,0,0.9,0c1.1,0.1,2.1,0.5,2.6,1.5c0.3,0.7,0.5,1.6,0.5,2.3c0,4.2,0,8.5,0,12.7c1.3,0,2.5,0,3.8,0
		c0-4.2,0-8.4,0-12.6c0-1.7-0.3-3.3-1.3-4.7c-1.3-1.9-3.1-2.8-5.4-3c-0.5-0.1-1.1-0.1-1.7-0.1c-8.2,0-16.5,0-24.7,0
		c-8.3,0-16.6,0-24.9,0c-1.1,0-2.3,0.1-3.3,0.5c-2.9,0.9-4.7,3.6-4.7,7c0,4.5,0,9,0,13.5L11.8,30.3L11.8,30.3z"/>
	<path fill="#C8CCEA" d="M20,18.2c-0.3-0.3-0.7-0.5-1.1-0.7c-1-0.4-2.1,0.2-2.2,1.2c-0.1,0.8,0.3,1.3,0.9,1.8
		c3.8,3.3,7.6,6.5,11.4,9.8h5C29.3,26.2,24.7,22.2,20,18.2z"/>
	<path fill="#C8CCEA" d="M64.4,20.3c0.8-0.7,0.8-1.7,0.2-2.4c-0.6-0.7-1.5-0.8-2.4-0.1c-0.4,0.3-0.7,0.6-1.1,0.9
		c-4.5,3.9-8.9,7.7-13.4,11.6c1.7,0,3.5-0.1,5.2-0.1c2.8-2.4,5.6-4.9,8.5-7.3C62.4,22,63.4,21.2,64.4,20.3z"/>
</g>
</svg>
