<?xml version="1.0" encoding="utf-8"?>
<!-- Generator: Adobe Illustrator 18.0.0, SVG Export Plug-In . SVG Version: 6.00 Build 0)  -->
<!DOCTYPE svg PUBLIC "-//W3C//DTD SVG 1.1//EN" "http://www.w3.org/Graphics/SVG/1.1/DTD/svg11.dtd">
<svg version="1.1" id="Слой_1" xmlns="http://www.w3.org/2000/svg" xmlns:xlink="http://www.w3.org/1999/xlink" x="0px" y="0px"
	 width="115px" height="170px" viewBox="28.9 29.4 115 170" enable-background="new 28.9 29.4 115 170" xml:space="preserve">
<polygon fill="#1A0F63" points="144,108.5 86.3,199.4 28.9,108.5 28.9,37.7 86.3,29.4 144,37.7 "/>
<g>
	<g id="left_3_">
		<polygon fill="#FFFFFF" points="68.5,69.2 76.5,68.5 76.5,60.8 68.5,62.1 		"/>
		<polygon fill="#FFFFFF" points="77.1,75.7 85.7,76.4 85.7,68.8 77.1,69.3 		"/>
		<polygon fill="#FFFFFF" points="68.5,79.6 76.4,80.8 76.4,76.3 68.5,75.7 		"/>
		<polygon fill="#FFFFFF" points="77.1,80.9 85.7,82.1 85.7,77 77.1,76.4 		"/>
		<polygon fill="#FFFFFF" points="61.3,62.8 68,61.6 68,53.8 61.3,56 		"/>
		<polygon fill="#FFFFFF" points="68,62.1 61.3,63.4 61.3,69.7 68,69.3 		"/>
		<polygon fill="#FFFFFF" points="68,69.9 61.3,70.1 61.3,74.8 68,75.3 		"/>
		<polygon fill="#FFFFFF" points="68,75.7 61.3,75.1 61.3,78.5 68,79.6 		"/>
		<polygon fill="#FFFFFF" points="60.7,63.1 54.9,64 54.9,58.3 60.7,56.2 		"/>
		<polygon fill="#FFFFFF" points="60.7,70.2 55,70.6 55,74.4 60.7,74.8 		"/>
		<polygon fill="#FFFFFF" points="54.4,70 49.7,70.2 49.7,65.6 54.4,64.8 		"/>
		<polygon fill="#FFFFFF" points="54.4,77.3 49.8,76.6 49.8,74.5 54.4,74.8 		"/>
		<polygon fill="#FFFFFF" points="68.6,61.5 76.5,60.2 76.5,50.9 68.6,53.5 		"/>
		<polygon fill="#FFFFFF" points="77.1,68.6 85.7,68.1 85.7,59.2 77.1,60.7 		"/>
	</g>
	<g id="right_2_">
		<polygon fill="#FFFFFF" points="103.6,69.2 95.7,68.5 95.7,60.8 103.6,62.1 		"/>
		<polygon fill="#FFFFFF" points="95.1,75.7 86.5,76.4 86.5,68.8 95.1,69.3 		"/>
		<polygon fill="#FFFFFF" points="103.6,79.6 95.8,80.8 95.8,76.3 103.6,75.7 		"/>
		<polygon fill="#FFFFFF" points="104.2,62.1 111,63.4 111,69.7 104.2,69.3 		"/>
		<polygon fill="#FFFFFF" points="104.2,69.9 110.9,70.1 110.9,74.8 104.2,75.3 		"/>
		<polygon fill="#FFFFFF" points="104.2,75.7 110.9,75.1 110.9,78.5 104.2,79.6 		"/>
		<polygon fill="#FFFFFF" points="111.5,63.1 117.2,64 117.2,58.3 111.5,56.2 		"/>
		<polygon fill="#FFFFFF" points="111.5,70.2 117.2,70.6 117.2,74.4 111.5,74.8 		"/>
		<polygon fill="#FFFFFF" points="117.6,70 122.5,70.2 122.5,65.5 117.6,64.6 		"/>
		<polygon fill="#FFFFFF" points="103.6,61.5 95.7,60.2 95.7,50.9 103.6,53.5 		"/>
		<polygon fill="#FFFFFF" points="117.7,74.4 122.5,74 122.5,70.9 117.7,70.7 		"/>
		<polygon fill="#FFFFFF" points="111.5,78.3 117.2,77.5 117.2,74.7 111.5,75.1 		"/>
		<polygon fill="#FFFFFF" points="95.3,60.2 86.5,58.6 86.5,47.6 95.3,50.7 		"/>
	</g>
	<polyline id="line_3_" fill="none" stroke="#FFFFFF" stroke-width="2" stroke-miterlimit="10" points="49.9,78.5 86.3,84.8 
		122.3,77.9 	"/>
	<g>
		<path fill="#FFFFFF" d="M85.9,115.2l-1,2.5l-1-2.5h-0.2l1.2,2.7H85l1.2-2.7H85.9L85.9,115.2z M115.7,115.2v1.4c0,0.6-0.3,1-0.9,1
			c-0.6,0-0.9-0.3-0.9-0.9v-1.5h-0.2v1.6c0,0.7,0.4,1.1,1,1.1c0.5,0,0.8-0.2,0.9-0.6v0.6h0.2v-2.7L115.7,115.2L115.7,115.2z
			 M55.1,115.4c0.6,0,0.9,0.4,0.9,1h-1.9C54.2,115.8,54.5,115.4,55.1,115.4 M53.9,116.5c0,0.8,0.6,1.3,1.3,1.3
			c0.4,0,0.7-0.2,0.9-0.4l-0.2-0.2c-0.2,0.2-0.5,0.3-0.8,0.3c-0.6,0-1-0.4-1-1h2.1v-0.1c0-0.8-0.5-1.3-1.2-1.3
			C54.5,115.2,53.9,115.7,53.9,116.5 M57.1,117.1c0-0.3,0.2-0.5,0.7-0.5h0.9v0.5c-0.2,0.3-0.5,0.6-0.9,0.6
			C57.3,117.6,57.1,117.4,57.1,117.1 M56.9,115.5l0.2,0.2c0.2-0.2,0.6-0.3,0.9-0.3c0.5,0,0.8,0.2,0.8,0.8v0.2h-0.9
			c-0.7,0-0.9,0.4-0.9,0.7c0,0.4,0.3,0.7,0.9,0.7c0.5,0,0.8-0.2,0.9-0.5v0.5h0.2v-1.7c0-0.7-0.4-1-1-1
			C57.5,115.2,57.2,115.3,56.9,115.5 M65.6,115.9c0,1,1.7,0.5,1.7,1.3c0,0.3-0.2,0.5-0.8,0.5c-0.4,0-0.8-0.2-0.9-0.3l-0.2,0.2
			c0.2,0.2,0.6,0.3,1,0.3c0.7,0,1-0.3,1-0.7c0-1-1.7-0.5-1.7-1.3c0-0.3,0.2-0.5,0.7-0.5c0.3,0,0.6,0.1,0.8,0.2l0.2-0.2
			c-0.2-0.2-0.6-0.2-0.9-0.2C65.9,115.2,65.6,115.5,65.6,115.9 M70.3,117.1c0-0.3,0.2-0.5,0.7-0.5h0.9v0.5c-0.2,0.3-0.5,0.6-0.9,0.6
			C70.5,117.6,70.3,117.4,70.3,117.1 M70,115.5l0.2,0.2c0.2-0.2,0.6-0.3,0.9-0.3c0.5,0,0.8,0.2,0.8,0.8v0.2H71
			c-0.7,0-0.9,0.4-0.9,0.7c0,0.4,0.3,0.7,0.9,0.7c0.5,0,0.8-0.2,0.9-0.5v0.5h0.2v-1.7c0-0.7-0.4-1-1-1
			C70.8,115.2,70.4,115.3,70,115.5 M76,115.4c0.6,0,0.9,0.4,0.9,1H75C75.1,115.8,75.5,115.4,76,115.4 M74.8,116.5
			c0,0.8,0.6,1.3,1.3,1.3c0.4,0,0.7-0.2,0.9-0.4l-0.2-0.2c-0.2,0.2-0.5,0.3-0.8,0.3c-0.6,0-1-0.4-1-1h2.1v-0.1
			c0-0.8-0.5-1.3-1.2-1.3C75.3,115.2,74.8,115.7,74.8,116.5 M81,115.7v-0.6h-0.2v2.7H81v-1.4c0-0.6,0.4-1,0.9-1
			c0.5,0,0.8,0.3,0.8,0.9v1.5H83v-1.6c0-0.7-0.4-1.1-1-1.1C81.6,115.2,81.2,115.3,81,115.7 M87.6,115.4c0.6,0,0.9,0.4,0.9,1h-1.9
			C86.7,115.8,87.1,115.4,87.6,115.4 M86.4,116.5c0,0.8,0.6,1.3,1.3,1.3c0.4,0,0.7-0.2,0.9-0.4l-0.2-0.2c-0.2,0.2-0.5,0.3-0.8,0.3
			c-0.6,0-1-0.4-1-1h2.1v-0.1c0-0.8-0.5-1.3-1.2-1.3C87,115.2,86.4,115.7,86.4,116.5 M89.4,115.9c0,1,1.7,0.5,1.7,1.3
			c0,0.3-0.2,0.5-0.8,0.5c-0.4,0-0.8-0.2-0.9-0.3l-0.2,0.2c0.2,0.2,0.6,0.3,1,0.3c0.7,0,1-0.3,1-0.7c0-1-1.7-0.5-1.7-1.3
			c0-0.3,0.2-0.5,0.7-0.5c0.3,0,0.6,0.1,0.8,0.2l0.2-0.2c-0.2-0.2-0.6-0.2-0.9-0.2C89.7,115.2,89.4,115.5,89.4,115.9 M96.3,115.8
			c-0.2-0.4-0.5-0.6-0.9-0.6s-0.9,0.2-1,0.6v-0.6h-0.2v2.7h0.2v-1.4c0-0.6,0.4-1,0.9-1c0.5,0,0.8,0.3,0.8,0.9v1.5h0.3v-1.4
			c0-0.6,0.4-1,0.9-1c0.5,0,0.8,0.3,0.8,0.9v1.5h0.2v-1.6c0-0.7-0.4-1.1-1-1.1C96.8,115.2,96.5,115.4,96.3,115.8 M100.3,115.4
			c0.6,0,0.9,0.4,0.9,1h-1.9C99.4,115.8,99.8,115.4,100.3,115.4 M99.1,116.5c0,0.8,0.6,1.3,1.3,1.3c0.4,0,0.7-0.2,0.9-0.4l-0.2-0.2
			c-0.2,0.2-0.5,0.3-0.8,0.3c-0.6,0-1-0.4-1-1h2.1v-0.1c0-0.8-0.5-1.3-1.2-1.3C99.6,115.2,99.1,115.7,99.1,116.5 M102.6,115.7v-0.6
			h-0.2v2.7h0.2v-1.4c0-0.6,0.4-1,0.9-1c0.5,0,0.8,0.3,0.8,0.9v1.5h0.2v-1.6c0-0.7-0.4-1.1-1-1.1
			C103.1,115.2,102.8,115.3,102.6,115.7 M116.8,115.9c0,1,1.7,0.5,1.7,1.3c0,0.3-0.2,0.5-0.8,0.5c-0.4,0-0.8-0.2-0.9-0.3l-0.2,0.2
			c0.2,0.2,0.6,0.3,1,0.3c0.7,0,1-0.3,1-0.7c0-1-1.7-0.5-1.7-1.3c0-0.3,0.2-0.5,0.7-0.5c0.3,0,0.6,0.1,0.8,0.2l0.2-0.2
			c-0.2-0.2-0.6-0.2-0.9-0.2C117.1,115.2,116.8,115.5,116.8,115.9 M121.2,115.9c0,1,1.7,0.5,1.7,1.3c0,0.3-0.2,0.5-0.8,0.5
			c-0.4,0-0.8-0.2-0.9-0.3l-0.2,0.2c0.2,0.2,0.6,0.3,1,0.3c0.7,0,1-0.3,1-0.7c0-1-1.7-0.5-1.7-1.3c0-0.3,0.2-0.5,0.7-0.5
			c0.3,0,0.6,0.1,0.8,0.2l0.2-0.2c-0.2-0.2-0.6-0.2-0.9-0.2C121.5,115.2,121.2,115.5,121.2,115.9 M112,115.7v-0.6h-0.2v2.7h0.2v-1.4
			c0-0.6,0.3-1,0.9-1h0.1v-0.2C112.5,115.1,112.2,115.3,112,115.7 M68.3,114.6v0.6h-0.5v0.2h0.5v1.7c0,0.5,0.2,0.7,0.7,0.7
			c0.2,0,0.4-0.1,0.6-0.2l-0.1-0.2c-0.1,0.1-0.2,0.2-0.4,0.2c-0.3,0-0.5-0.2-0.5-0.6v-1.7h0.8V115h-0.8v-0.6L68.3,114.6L68.3,114.6z
			 M73.2,114.6v0.6h-0.5v0.2h0.5v1.7c0,0.5,0.2,0.7,0.7,0.7c0.2,0,0.4-0.1,0.6-0.2l-0.1-0.2c-0.1,0.1-0.2,0.2-0.4,0.2
			c-0.3,0-0.5-0.2-0.5-0.6v-1.7h0.8V115h-0.8v-0.6L73.2,114.6L73.2,114.6z M92.1,114.6v0.6h-0.5v0.2h0.5v1.7c0,0.5,0.2,0.7,0.7,0.7
			c0.2,0,0.4-0.1,0.6-0.2l-0.1-0.2c-0.1,0.1-0.2,0.2-0.4,0.2c-0.3,0-0.5-0.2-0.5-0.6v-1.7h0.8V115h-0.9v-0.6L92.1,114.6L92.1,114.6z
			 M105.7,114.6v0.6h-0.5v0.2h0.5v1.7c0,0.5,0.2,0.7,0.7,0.7c0.2,0,0.4-0.1,0.6-0.2l-0.1-0.2c-0.1,0.1-0.2,0.2-0.4,0.2
			c-0.3,0-0.5-0.2-0.5-0.6v-1.7h0.8V115H106v-0.6L105.7,114.6L105.7,114.6z M119.5,114.6v0.6H119v0.2h0.5v1.7c0,0.5,0.2,0.7,0.7,0.7
			c0.2,0,0.4-0.1,0.6-0.2l-0.1-0.2c-0.1,0.1-0.2,0.2-0.4,0.2c-0.3,0-0.5-0.2-0.5-0.6v-1.7h0.8V115h-0.8v-0.6L119.5,114.6
			L119.5,114.6z M79.4,117.9h0.2v-3.5h-0.2V117.9z M50.8,114.6h1c0.8,0,1.2,0.3,1.2,0.9c0,0.6-0.4,0.9-1.2,0.9h-1V114.6z
			 M50.6,114.3v3.5h0.2v-1.1h1c0.2,0,0.2,0,0.3,0l0.9,1.1h0.3l-0.9-1.2c0.6-0.2,0.8-0.6,0.8-1.1c0-0.8-0.6-1.2-1.4-1.2H50.6
			L50.6,114.3z M62.6,114.3v3.5h2.5v-0.2h-2.1v-1.4h1.9v-0.2h-1.9v-1.4H65v-0.2L62.6,114.3L62.6,114.3z M108.4,114.3v0.2h1.3v3.2
			h0.2v-3.2h1.3v-0.2H108.4z M60,117.9h0.2v-3.8H60V117.9z"/>
	</g>
	<g>
		<path fill="#FFFFFF" d="M77.6,97.3c-0.2,0-0.3,0.1-0.3,0.2c0,0.1,0.1,0.2,0.2,0.2c0.2,0,0.3,0,0.6,0.1c0.4,0.1,0.6,0.3,0.6,0.9
			c0.1,0.6,0.1,1,0.1,3.8v3.1c0,1.7,0,3.1-0.1,3.8c-0.1,0.5-0.2,0.9-0.5,0.9c-0.2,0.1-0.4,0.1-0.6,0.1c-0.1,0-0.2,0.1-0.2,0.2
			c0,0.1,0.1,0.2,0.3,0.2h4c0.2,0,0.3-0.1,0.3-0.2c0-0.1-0.1-0.2-0.2-0.2c-0.2,0-0.6-0.1-0.9-0.1c-0.6-0.1-0.6-0.4-0.6-0.9
			c-0.1-0.7-0.1-2.1-0.1-3.8v-3.1c0-2.8,0-3.2,0-3.8c0.1-0.6,0.2-0.9,0.6-0.9c0.2-0.1,0.3-0.1,0.5-0.1c0.1,0,0.2-0.1,0.2-0.2
			c0-0.1-0.1-0.2-0.3-0.2H77.6z M113.9,97.3c-0.2,0-0.3,0.1-0.3,0.2c0,0.1,0.1,0.2,0.2,0.2c0.2,0,0.5,0,0.6,0.1
			c0.6,0.1,0.7,0.4,0.7,0.9c0.1,0.6,0.1,1,0.1,3.8v3.1c0,1.7,0,3.1-0.1,3.8c-0.1,0.5-0.2,0.9-0.5,0.9c-0.2,0.1-0.4,0.1-0.6,0.1
			c-0.1,0-0.2,0.1-0.2,0.2c0,0.1,0.1,0.2,0.3,0.2h4c0.2,0,0.3-0.1,0.3-0.2c0-0.1-0.1-0.2-0.2-0.2c-0.2,0-0.6-0.1-0.8-0.1
			c-0.6-0.1-0.6-0.4-0.7-0.9c-0.1-0.7-0.1-2.1-0.1-3.8v-7.3c0-0.2,0.1-0.3,0.2-0.3c0.2-0.1,0.7-0.2,1-0.2c0.4,0,1.5-0.1,2.5,0.9
			c0.9,0.9,1,2.1,1,2.7c0,1.6-1.4,2.8-3.3,2.8c-0.4,0-0.5,0.1-0.5,0.2c0,0.1,0.1,0.2,0.2,0.2s0.4,0,0.5,0c2.8,0,4.7-1.7,4.7-4.2
			c0-0.9-0.5-1.7-0.9-2.1c-0.3-0.2-1.2-0.9-3.5-0.9L113.9,97.3z M73.1,97.1c-0.2,0.1-0.5,0.2-0.8,0.2c-0.4,0-4.3,0-4.3,0
			c-0.1,0-1.3-0.1-2.1-0.1c-0.2,0-0.3,0.1-0.3,0.2c0,0.1,0.1,0.2,0.2,0.2c0.2,0,0.5,0,0.6,0.1c0.6,0.1,0.7,0.4,0.7,0.9
			c0.1,0.6,0.1,1,0.1,3.8v3.2c0,1.7,0,3.1-0.1,3.9c-0.1,0.6-0.2,0.9-0.5,0.9c-0.2-0.1-0.4,0-0.6,0c-0.1,0-0.2,0.1-0.2,0.2
			c0,0.2,0.1,0.2,0.3,0.2c0.3,0,0.7,0,1-0.1c0.4-0.1,0.7-0.1,0.8-0.1c0.2,0,0.7,0,1.5,0.1s1.8,0.1,3.2,0.1c0.7,0,0.9,0,0.9-0.5
			c0.1-0.4,0.2-1.6,0.2-1.7c0-0.2,0-0.2-0.2-0.2c-0.1,0-0.2,0.1-0.2,0.2c-0.1,0.7-0.3,1-0.8,1.3c-0.5,0.2-1.3,0.2-1.8,0.2
			c-1.8,0-2.1-0.2-2.2-1.4c0-0.3,0-2.4,0-3V104c0-0.1,0-0.2,0.2-0.2c0.3,0,2.3,0,2.8,0.1c0.7,0.1,0.9,0.3,0.9,0.6
			c0.1,0.2,0.1,0.4,0.1,0.6c0,0.1,0.1,0.2,0.1,0.2c0.1,0,0.2-0.2,0.2-0.3c0-0.2,0.1-0.8,0.1-1.2c0.1-0.6,0.2-0.9,0.2-1
			s-0.1-0.2-0.1-0.2s-0.2,0.1-0.2,0.2c-0.2,0.2-0.5,0.2-0.9,0.2c-0.4,0.1-2.8,0.1-3.1,0.1c-0.1,0-0.1-0.1-0.1-0.2v-4.7
			c0-0.2,0-0.2,0.1-0.2c0.2,0,2.4,0,2.7,0.1c1,0.2,1.2,0.2,1.3,0.6c0.1,0.2,0.1,0.5,0.1,0.6c0,0.2,0.1,0.2,0.2,0.2s0.2-0.1,0.2-0.2
			c0.1-0.3,0.1-1.1,0.1-1.3c0.1-0.5,0.2-0.7,0.2-0.9c0-0.1,0-0.2-0.1-0.2C73.3,97,73.2,97.1,73.1,97.1 M84.3,97.3
			c-0.1,0.1-0.4,1.7-0.4,1.9c0,0.1,0.1,0.2,0.2,0.2s0.2,0,0.2-0.2c0.1-0.2,0.1-0.2,0.3-0.6c0.2-0.4,0.7-0.6,1.8-0.6l2.6-0.1v7.4
			c0,1.7,0,3.1-0.1,3.8c-0.1,0.5-0.2,0.9-0.6,0.9c-0.2,0.1-0.4,0.1-0.6,0.1c-0.1,0-0.2,0.1-0.2,0.2c0,0.1,0.1,0.2,0.3,0.2H92
			c0.2,0,0.3-0.1,0.3-0.2c0-0.1,0-0.2-0.2-0.2c-0.2,0-0.6-0.1-0.9-0.1c-0.6-0.1-0.6-0.4-0.7-0.9c-0.1-0.7-0.1-2.1-0.1-3.8V98
			l2.4,0.1c1.8,0.1,2.2,0.4,2.3,0.9v0.2c0,0.2,0.1,0.3,0.2,0.3s0.2-0.1,0.2-0.2c0-0.2,0.1-1.4,0.1-2c0-0.1,0-0.2-0.1-0.2
			c-0.1,0-0.2,0.1-0.6,0.1c-0.3,0-0.7,0-1.3,0h-6.9c-0.2,0-0.9,0-1.4-0.1c-0.5,0-0.7-0.2-0.8-0.2C84.4,97,84.4,97.2,84.3,97.3
			 M98.7,103.4c0-3.8,2.2-5.7,5.3-5.7c2.9,0,5.5,2.2,5.5,6.4c0,5.1-3.3,5.9-5,5.9C101.1,110.1,98.7,107.5,98.7,103.4 M96.8,103.9
			c0,3.2,2.1,7,7.2,7c4.4,0,7.4-3.3,7.4-7.2c0-4.1-3.2-6.6-7.3-6.6C99,97,96.8,101,96.8,103.9 M53.8,102.9c-0.1-0.1-0.2-0.2-0.2-0.2
			v-6.8c0-0.2,0.1-0.2,0.2-0.2c0.2-0.1,0.8-0.2,1.4-0.2c2.2,0,3.6,1.6,3.6,4.1c0,1.6-0.6,2.7-1.3,3.2c-0.5,0.3-1,0.4-1.6,0.4
			C55,103.3,54.1,103.1,53.8,102.9 M50.5,94.9c-0.2,0-0.3,0.1-0.3,0.2s0.1,0.1,0.2,0.1c0.2,0,0.6,0,0.7,0.1c0.7,0.2,0.9,0.5,0.9,1.2
			C52,97,52,97.6,52,100.9v3.6c0,2,0,3.6-0.1,4.5c-0.1,0.6-0.2,1-0.6,1.2c-0.2,0.1-0.4,0.1-0.6,0.1c-0.2,0-0.2,0.1-0.2,0.1
			c0,0.1,0.1,0.2,0.3,0.2h4.4c0.2,0,0.3-0.1,0.3-0.2c0-0.1-0.1-0.1-0.2-0.1c-0.2,0-0.6-0.1-0.9-0.1c-0.6-0.1-0.7-0.6-0.8-1.2
			c-0.1-0.9-0.1-2.5-0.1-4.5V104c0-0.1,0.1-0.2,0.2-0.2l2.5,0.1c0.2,0,0.2,0.1,0.2,0.2c0.4,0.6,1.4,1.9,2.3,3.1
			c1.1,1.6,1.8,2.6,2.7,3.1c0.6,0.2,1,0.3,2.2,0.3h1.5c0.4,0,0.5-0.1,0.5-0.2c0-0.1-0.1-0.1-0.2-0.1c-0.2,0-0.4,0-0.8-0.1
			c-0.6-0.1-1.4-0.3-2.5-1.5c-1.2-1.3-2.5-3.2-4.2-5.3c1.8-1.7,2.4-3.2,2.4-4.8c0-1.4-0.9-2.5-1.3-2.8c-1.1-0.8-2.5-0.9-3.8-0.9
			L50.5,94.9z"/>
	</g>
</g>
</svg>
