<?xml version="1.0" encoding="utf-8"?>
<!-- Generator: Adobe Illustrator 18.0.0, SVG Export Plug-In . SVG Version: 6.00 Build 0)  -->
<!DOCTYPE svg PUBLIC "-//W3C//DTD SVG 1.1//EN" "http://www.w3.org/Graphics/SVG/1.1/DTD/svg11.dtd">
<svg version="1.1" id="Слой_1" xmlns="http://www.w3.org/2000/svg" xmlns:xlink="http://www.w3.org/1999/xlink" x="0px" y="0px"
	 width="129.2px" height="66.3px" viewBox="16.3 9.1 129.2 66.3" enable-background="new 16.3 9.1 129.2 66.3" xml:space="preserve"
	>
<g>
	<g>
		<path fill="#B4B9D8" d="M82.1,9.1c2.6,1,5.3,2,7.9,2.9c2.1,0.8,4.2,1.4,6.3,2.2c0.4,0.1,0.8,0.6,0.8,0.9c0.1,5.4,0,10.8,0,16.3
			c-5.2-0.9-10.4-1.8-15.6-2.7c0-6.6,0-13.1,0-19.6C81.8,9.1,81.9,9.1,82.1,9.1z"/>
		<path fill="#B4B9D8" d="M16.3,41c2.7-0.4,5.3-0.9,8.1-1.3c0,3.1,0,6.1,0,9.1c-2.7,0.2-5.4,0.4-8.1,0.6
			C16.3,46.6,16.3,43.8,16.3,41z"/>
		<path fill="#B4B9D8" d="M16.3,56.9c2.7,0.2,5.3,0.3,8.1,0.5c0,1.5,0,3,0,4.6c-2.7-0.4-5.4-0.8-8.1-1.2
			C16.3,59.4,16.3,58.1,16.3,56.9z"/>
		<path fill="#B4B9D8" d="M80.1,45.6C75,45.9,70,46.2,64.9,46.5c0-4.7,0-9.3,0-14.1c5-0.9,10.1-1.8,15.2-2.6
			C80.1,35.1,80.1,40.3,80.1,45.6z"/>
		<path fill="#B4B9D8" d="M63.8,31.6c-4.7,0.7-9.3,1.5-14,2.2c0-4.8,0-9.4,0-14.2c4.6-1.5,9.2-3.1,14-4.7
			C63.8,20.6,63.8,26.1,63.8,31.6z"/>
		<path fill="#B4B9D8" d="M98,15c4.7,1.6,9.4,3.1,14,4.7c0,4.8,0,9.4,0,14.2c-4.7-0.7-9.3-1.5-14-2.2C98,26.1,98,20.6,98,15z"/>
		<path fill="#B4B9D8" d="M64.9,47.6c5-0.3,10.1-0.6,15.1-0.9c0,4.5,0,9,0,13.6C75,60,70,59.6,64.9,59.2
			C64.9,55.4,64.9,51.6,64.9,47.6z"/>
		<path fill="#B4B9D8" d="M81.7,46.8c5.1,0.3,10.1,0.6,15.2,0.9c0,3.9,0,7.7,0,11.6c-5.1,0.4-10.1,0.7-15.2,1.1
			C81.7,55.8,81.7,51.4,81.7,46.8z"/>
		<path fill="#B4B9D8" d="M49.7,47.6c0-4.3,0-8.5,0-12.7c4.7-0.8,9.3-1.5,14.1-2.3c0,4.6,0,9.2,0,13.8
			C59.1,46.8,54.5,47.2,49.7,47.6z"/>
		<path fill="#B4B9D8" d="M98,46.5c0-4.7,0-9.2,0-13.9c4.7,0.8,9.4,1.5,14.1,2.3c0,4.2,0,8.4,0,12.7C107.4,47.2,102.7,46.8,98,46.5z
			"/>
		<path fill="#B4B9D8" d="M36.8,24c4-1.3,7.8-2.6,11.9-3.9c0,4.7,0,9.3,0,14.1c-3.9,0.7-7.8,1.5-11.9,2.2
			C36.8,32.2,36.8,28.1,36.8,24z"/>
		<path fill="#B4B9D8" d="M48.7,35c0,4.3,0,8.5,0,12.8c-4,0.2-7.9,0.4-11.9,0.7c0-3.8,0-7.5,0-11.2C40.7,36.5,44.6,35.8,48.7,35z"/>
		<path fill="#B4B9D8" d="M125,37.2c0,3.8,0,7.5,0,11.2c-4-0.2-7.9-0.4-11.9-0.7c0-4.2,0-8.4,0-12.8C117.1,35.7,121,36.5,125,37.2z"
			/>
		<path fill="#B4B9D8" d="M80.1,61.4c0,3.1,0,6.1,0,9.2c-5.1-0.7-10.2-1.5-15.2-2.2c0-2.7,0-5.3,0-8.1C69.9,60.7,75,61,80.1,61.4z"
			/>
		<path fill="#B4B9D8" d="M35.7,36.7c-3.4,0.6-6.7,1.1-10.2,1.7c0-2.3,0-4.6,0-6.8c0-1.2-0.3-2.6,0.2-3.4c0.5-0.8,2-0.9,3-1.3
			c2.3-0.8,4.6-1.7,7-2.5C35.7,28.6,35.7,32.6,35.7,36.7z"/>
		<path fill="#B4B9D8" d="M126.1,36.7c0-4.1,0-8.1,0-12.2c3.3,1.2,6.5,2.4,9.7,3.6c0.2,0.1,0.5,0.4,0.5,0.7c0,3.2,0,6.4,0,9.7
			C132.8,37.8,129.5,37.3,126.1,36.7z"/>
		<path fill="#B4B9D8" d="M36.8,57.4c0-2.8,0-5.5,0-8.2c3.9-0.1,7.8-0.3,11.8-0.4c0,3.2,0,6.3,0,9.6C44.7,58,40.8,57.7,36.8,57.4z"
			/>
		<path fill="#B4B9D8" d="M113.1,48.8c4,0.1,7.9,0.3,11.8,0.4c0,2.7,0,5.4,0,8.2c-3.9,0.3-7.8,0.6-11.8,0.9
			C113.1,55.1,113.1,52,113.1,48.8z"/>
		<path fill="#B4B9D8" d="M63.6,60.1c0,2.7,0,5.3,0,8c-4.6-0.7-9.2-1.3-13.8-2c0-2.3,0-4.6,0-7.1C54.3,59.4,58.9,59.7,63.6,60.1z"/>
		<path fill="#B4B9D8" d="M112,66.1c-4.6,0.7-9.2,1.3-13.8,2c0-2.7,0-5.3,0-8c4.6-0.4,9.2-0.7,13.8-1.1C112,61.4,112,63.7,112,66.1z
			"/>
		<path fill="#B4B9D8" d="M48.7,58.9c0,2.4,0,4.7,0,7.1c-3.9-0.7-7.8-1.3-11.8-2c0-2,0-3.9,0-6C40.8,58.3,44.7,58.6,48.7,58.9z"/>
		<path fill="#B4B9D8" d="M124.9,58c0,2.1,0,4,0,6c-3.9,0.7-7.8,1.3-11.8,2c0-2.4,0-4.7,0-7.1C117,58.6,120.9,58.3,124.9,58z"/>
		<path fill="#B4B9D8" d="M137,48.9c0-3.2,0-6.3,0-9.6c2.8,0.5,5.6,1,8.4,1.5c0,2.8,0,5.6,0,8.5C142.6,49.2,139.9,49.1,137,48.9z"/>
		<path fill="#B4B9D8" d="M25.7,56.8c0-2.3,0-4.5,0-6.9c3.3-0.2,6.6-0.4,9.9-0.6c0,2.7,0,5.4,0,8.1C32.4,57.2,29.1,57,25.7,56.8z"/>
		<path fill="#B4B9D8" d="M126.1,57.5c0-2.8,0-5.4,0-8.1c3.3,0.2,6.6,0.4,10,0.6c0,2.3,0,4.5,0,6.9C132.7,57,129.4,57.2,126.1,57.5z
			"/>
		<path fill="#B4B9D8" d="M145.2,63.3c-1.6,0.3-3.2,0.7-4.8,1C121,68,101.6,71.7,82.1,75.3c-1.8,0.3-3.7-0.2-5.5-0.6
			c-17.4-3-34.7-6-52.1-9.1c-2.4-0.4-4.7-0.8-7.1-1.2c-0.3-0.1-0.6-0.2-0.9-0.3c0-0.1,0-0.2,0.1-0.3c1.1,0.2,2.1,0.3,3.2,0.5
			c18.3,3.2,36.5,6.4,54.8,9.6c1.3,0.2,2.5,0.3,3.8,0.7c3.4,1,6.6-0.3,9.8-0.9c18.8-3.6,37.7-7.2,56.5-10.8c0.2,0,0.4,0,0.6,0
			C145.2,63.1,145.2,63.2,145.2,63.3z"/>
		<path fill="#B4B9D8" d="M136,57.3c0,1.8,0,3.3,0,4.9c-3.3,0.5-6.6,1-10,1.5c0-1.9,0-3.8,0-5.8C129.3,57.8,132.6,57.5,136,57.3z"/>
		<path fill="#B4B9D8" d="M145.5,50.5c0,1.9,0,3.7,0,5.6c-2.8,0.2-5.6,0.4-8.4,0.6c0-2.2,0-4.3,0-6.6
			C139.9,50.3,142.6,50.4,145.5,50.5z"/>
	</g>
</g>
</svg>
