<?xml version="1.0" encoding="utf-8"?>
<!-- Generator: Adobe Illustrator 18.0.0, SVG Export Plug-In . SVG Version: 6.00 Build 0)  -->
<!DOCTYPE svg PUBLIC "-//W3C//DTD SVG 1.1//EN" "http://www.w3.org/Graphics/SVG/1.1/DTD/svg11.dtd">
<svg version="1.1" id="Слой_1" xmlns="http://www.w3.org/2000/svg" xmlns:xlink="http://www.w3.org/1999/xlink" x="0px" y="0px"
	 width="134.6px" height="134.6px" viewBox="5.4 2.6 134.6 134.6" enable-background="new 5.4 2.6 134.6 134.6"
	 xml:space="preserve">
<g>
	
		<linearGradient id="SVGID_1_" gradientUnits="userSpaceOnUse" x1="-1238.0295" y1="1146.6028" x2="-1338.777" y2="1045.8553" gradientTransform="matrix(1 0 0 1 1361.1646 -1026.3517)">
		<stop  offset="0" style="stop-color:#08095D"/>
		<stop  offset="1" style="stop-color:#092BA3"/>
	</linearGradient>
	<path fill="url(#SVGID_1_)" stroke="#3E55A9" stroke-width="8.0648" stroke-miterlimit="10" d="M129.5,104.9
		c0,12-9.7,21.7-21.7,21.7l-70,0c-12,0-21.7-9.7-21.7-21.7l0-70c0-12,9.7-21.7,21.7-21.7l70,0c12,0,21.7,9.7,21.7,21.7V104.9z"/>
	<g opacity="0.2">
		<path fill="#FFFFFF" d="M132.4,129.5c-5,5-11.6,7.7-18.6,7.7l-82,0c-14.5,0-26.3-11.8-26.3-26.3v-82c0-7,2.7-13.6,7.7-18.6
			c5-5,11.6-7.7,18.6-7.7h82c14.5,0,26.3,11.8,26.3,26.3v82C140.1,117.9,137.3,124.5,132.4,129.5z M14.3,11.4
			c-4.6,4.7-7.2,10.8-7.2,17.4v82c0,13.6,11,24.6,24.6,24.6l82,0c6.6,0,12.8-2.6,17.4-7.2c4.7-4.7,7.2-10.8,7.2-17.4l0-82
			c0-13.6-11-24.6-24.6-24.6h-82C25.2,4.2,19,6.8,14.3,11.4z"/>
	</g>
	<g>
		<g>
			<path fill="#FFFFFF" d="M110.9,86c-1.6-7.1-5.9-11.9-12.9-14c-7-2.1-13.2-0.4-18.5,4.6c-0.1,0.1-0.3,0.2-0.5,0.4
				c0-1.3,0-2.5,0-3.7c0-0.4,0.1-0.7,0.3-1c1.4-2.2,2.1-4.6,2.2-7.2c0-0.5-0.2-0.9-0.6-1.2c-1.1-0.9-2.4-1.4-3.7-1.8
				c-1-0.3-2.1-0.5-3.2-0.7v-5.1c1.1,0,2.2,0,3.3,0c0.8,0,1.7,0,2.5-0.2c6.6-1.2,11.2-6.4,11.5-13.1c0.1-1.4,0-2.7,0-4.1
				c-2.2,0-4.2,0-6.3,0c-4.4,0.1-7.9,1.9-10.7,5.3c-0.1,0.1-0.2,0.3-0.4,0.5c0-0.2,0-0.3,0-0.4c-0.4-6.2-5.2-11.7-11.4-12.5
				c-2.7-0.4-5.4-0.2-8.1-0.3c-0.4,0-0.4,0.2-0.4,0.5c0,1.2,0,2.3,0,3.5c0.2,6.1,4.1,11.2,9.9,12.9c2.1,0.6,4.2,0.5,6.3,0.5h1.2
				v12.5H69v2.4c-0.2,0-0.4,0.1-0.6,0.1c-2,0.3-3.4,1.4-4.3,3.2c-0.1,0.2-0.1,0.6,0,0.8c0.7,1.4,1.4,2.8,2.1,4.2
				c0.1,0.2,0.3,0.4,0.3,0.7c0,1.4,0,2.8,0,4.4c0.1,0.1,0,0-0.1-0.1c-0.2-0.2-0.4-0.4-0.6-0.5c-0.2,0.1-0.5,0.1-0.6-0.2
				c-0.3-0.5-1-0.8-1.4-1.2c-0.1,0-0.3,0-0.4-0.1c-2.3-2.4-5.9-2.5-9-3.3c-2.8-0.2-5.7,0.2-8.5,0.8c-8.1,3.3-13.1,12.1-11.2,21
				c2.6,12.3,16.3,18.6,27.3,12.5c0.5-0.3,0.8-0.2,1.2,0.1c1.6,1.1,3.4,1.9,5.4,2.1c2,0.2,4,0.2,6,0.2c3,0,5.7-0.7,8.1-2.4
				c0.3-0.2,0.5-0.2,0.9,0c3.9,2.2,8.1,2.9,12.6,2.1C106.2,106.3,113.2,96,110.9,86z M77.7,44.2c2.7-2.5,6.6-3.5,11.2-2.8
				c0.2,3.3-0.7,6.3-3,8.8c-3,3.2-6.8,3.9-11,3.5c1.1-2,2.6-3.6,4.4-4.9c1.8-1.3,3.8-2.1,6.1-2.5c-0.1-0.8-0.3-1.6-0.4-2.4
				c-4.3,0.8-7.8,2.8-10.6,6.1C74.8,47.6,76,45.7,77.7,44.2z M70.6,46.2c-4.8,0.5-9-0.6-11.9-4.7c-1.6-2.3-2.2-4.8-2-7.7
				c2.5,0.1,5-0.3,7.4,0.6c3.6,1.3,5.9,3.8,7,7.5c0.1,0.2,0.1,0.4,0.1,0.6c-2.8-3.3-6.3-5.4-10.6-6.2c-0.1,0.8-0.3,1.6-0.4,2.4
				C64.7,39.7,68.2,42.1,70.6,46.2z M71.6,63.7c2.4,0.1,4.6,0.5,6.8,1.5c0.4,0.2,0.6,0.5,0.5,1c-0.2,1.6-0.7,3.1-1.5,4.5
				c-0.2,0.3-0.4,0.5-0.8,0.5c-0.9,0-1.7,0-2.6,0c-0.2,0-0.5-0.1-0.6-0.3c-1.1-2.2-1.7-4.5-1.8-6.9C71.6,63.8,71.6,63.8,71.6,63.7z
				 M76.5,73.7v2.4h-7.4v-2.4H76.5z M67,67.2c0.6-0.7,1.4-1,2.3-1c0.5,1.7,0.9,3.3,1.4,4.9c-0.6,0-1.3,0-1.9,0
				c-0.1,0-0.3-0.2-0.4-0.4c-0.5-1-1-1.9-1.4-2.9C66.8,67.6,66.8,67.3,67,67.2z M39.9,99.4c-5.4-7.2-3.9-17.4,3.4-22.7
				c7.3-5.3,16.8-3.3,21.5,2.3c-0.5,0.6-1,1.2-1.5,1.9c0,0,0,0-0.1-0.1c-0.1,0.1-0.2,0.1-0.4,0c-0.6-0.2-1-0.5-1.5-0.9
				c-1.3-1.1-2.6-1.9-4.2-2.4c-2.2-0.7-4.4-0.9-6.7-1.2c-2.4,0.4-4.6,1.4-6.5,3.1c-5,4.3-6.2,11.4-3,17.1c3.1,5.5,10.5,9.1,17.9,5.6
				c0.5,0.6,1,1.3,1.5,1.9C54.9,107.3,45.5,106.8,39.9,99.4z M56.7,95.9c-2.3,0.4-4.2-0.5-4.8-2.4H54V91h-2.4v-2.5h2.4v-2.5h-2.2
				c1-2.2,2.6-2.7,4.7-2.5v-2.4c-3.1-0.5-6.4,1.2-7.3,4.9h-2.5v2.5h2.4V91h-2.4v2.5h2.5c0.1,0.2,0.1,0.3,0.2,0.5
				c0.9,2.8,3.1,4.5,6.1,4.6c0.2,0,0.4,0,0.6,0c1.3,0,1.3,0,1.6,1.3c-3.6,2.1-10.3,1.8-14.1-3.8c-3.5-5.2-2-12.2,3.2-15.6
				C52,77,58.6,78.7,61.7,83c-1.5,1.9-3.1,3.7-4,5.9C56.8,91.2,56.4,93.5,56.7,95.9z M75,105.9c-2.2,0.1-4.4,0.1-6.5-0.2
				c-8.5-1.5-12.3-11.6-7-18.4c2.2-2.8,4.4-5.5,6.6-8.3c0.2-0.2,0.5-0.3,0.8-0.4c1.3,0,2.6,0,3.9,0c1.3,0,2.6,0,3.8,0
				c0.3,0,0.6,0.2,0.8,0.4c2.2,2.7,4.4,5.4,6.5,8.2c2.8,3.7,3.3,7.9,1.3,12.1C83.2,103.5,79.7,105.8,75,105.9z M93.9,98.4v-4.9h2.5
				V91h-2.5c0-1.1,0-2.1,0-3.1c0-0.2,0.2-0.4,0.3-0.6c1-1.4,2.1-2.8,3.1-4.2c-0.7-0.5-1.3-1-2-1.5c-0.9,1.2-1.8,2.4-2.7,3.6
				c-0.9-1.2-1.8-2.4-2.7-3.6c-0.7,0.5-1.3,1-2,1.5c1,1.4,2,2.7,3.1,4.1c0.3,0.4,0.5,0.8,0.4,1.3c0,0.8,0,1.7,0,2.6
				c-0.9,0-1.8,0-2.6,0c-0.1,0-0.3-0.2-0.4-0.3c-0.7-2.9-2.4-5.1-4.3-7.3c-0.1-0.1-0.2-0.3-0.3-0.4c2.7-3.9,9-6,14.5-2.9
				c5.4,3.2,7.2,10.3,3.8,15.6c-3.6,5.7-10.4,6.3-14.3,4.1c0.8-2,1.2-4,1.1-6.2h2.5v4.9L93.9,98.4L93.9,98.4z M106.1,98.7
				c-4.9,7.4-14.4,9-21,5.3c0.5-0.6,1-1.3,1.5-2c4,1.8,8,1.9,11.9,0c3-1.4,5.2-3.7,6.5-6.7c2.7-6,0.8-13-4.6-16.8
				c-5.4-3.8-13.3-3.4-18.3,2.4c-0.5-0.6-1-1.3-1.5-1.9c4.9-5.7,14.1-7.5,21.2-2.5C109.1,81.6,111,91.4,106.1,98.7z"/>
			<path fill="#FFFFFF" d="M52.9,53.4c-1.3,1.8-2.5,3.5-3.8,5.3c0.9,0,1.7,0,2.5,0c0,0.2,0.1,0.4,0.1,0.6c0,2.9,0,5.8,0,8.7
				c0,0.5-0.1,0.7-0.6,0.6c-0.6,0-1.2,0-1.8,0c0-2.5,0-4.9,0-7.5c-1.6,0-3.2,0-4.9,0c2.9-4.1,5.8-8.1,8.6-12.1c2.9,4,5.7,8,8.6,12.1
				c-1.7,0-3.2,0-4.9,0c0,2.5,0,5,0,7.5c-0.8,0-1.5,0-2.2,0c-0.1,0-0.3-0.2-0.3-0.3c0-3.2,0-6.3,0-9.5c0.8,0,1.6,0,2.6,0
				C55.4,56.9,54.2,55.2,52.9,53.4z"/>
			<path fill="#FFFFFF" d="M101.3,61.2c-1.7,0-3.3,0-4.9,0c0,2.5,0,5,0,7.5c-0.7,0-1.4,0-2.1,0c-0.5,0-0.4-0.3-0.4-0.6
				c0-2.7,0-5.4,0-8.1c0-0.4,0-0.8,0-1.3c0.9,0,1.6,0,2.6,0c-1.3-1.8-2.5-3.5-3.8-5.3c-1.3,1.8-2.5,3.5-3.8,5.3c0.9,0,1.7,0,2.5,0
				c0,3.4,0,6.6,0,9.9c-0.8,0-1.6,0-2.5,0c0-2.5,0-4.9,0-7.4c-1.6,0-3.2,0-4.9,0c2.9-4.1,5.7-8,8.6-12.1
				C95.5,53.1,98.3,57.1,101.3,61.2z"/>
			<path fill="#FFFFFF" d="M74,96.1c0-0.6,0-1,0-1.4c0-0.7-0.5-1.2-1.2-1.2c-2.5-0.2-3.7-1.6-3.7-4.1c0-1.1,0-2.2,0-3.4
				c0.8,0,1.6,0,2.5,0c0-0.9,0-1.6,0-2.5c0.8,0,1.6,0,2.5,0c0,0.7,0,1.5,0,2.2c0,0.2,0.1,0.5,0.3,0.6c1.9,1,2.4,2.6,2.1,4.6
				c-0.8,0-1.6,0-2.4,0c-0.2-0.7,0.3-1.7-0.6-2.2c-0.5-0.3-1.2-0.2-1.9-0.3c0,0.6-0.1,1.1,0,1.5c0.1,0.7,0.5,1,1.2,1
				c0.9,0,1.6,0.3,2.3,0.8c0.8,0.6,1.3,1.4,1.3,2.4c0.1,1.4,0,2.8,0,4.3c-0.8,0-1.6,0-2.4,0c0,0.8,0,1.6,0,2.4c-0.8,0-1.6,0-2.5,0
				c0-0.7,0-1.5,0-2.2c0-0.2-0.1-0.4-0.2-0.5c-2-1.4-2.4-2.2-2.2-4.6c0.8,0,1.6,0,2.4,0c0.2,0.7-0.3,1.7,0.6,2.2
				C72.6,96,73.3,96,74,96.1z"/>
		</g>
		<g>
			<g>
				<path fill="#7C9BF2" d="M64,48.2c2.1,0.6,4.2,0.5,6.3,0.5h1.2v12.4c0.4,0.1,2,0.2,2.6,0.2c0,0,0,0,0,0v-5.1c1.1,0,2.2,0,3.3,0
					c0.8,0,1.7,0,2.5-0.2c6.6-1.2,11.2-6.4,11.5-13.1c0.1-1.4,0-2.7,0-4.1c-2.2,0-4.2,0-6.3,0c-4.4,0.1-7.9,1.9-10.7,5.3
					c-0.1,0.1-0.2,0.3-0.4,0.5c0-0.2,0-0.3,0-0.4c-0.4-6.2-5.2-11.7-11.4-12.5c-2.7-0.4-5.4-0.2-8.1-0.3c-0.4,0-0.4,0.2-0.4,0.5
					c0,1.2,0,2.3,0,3.5C54.3,41.5,58.2,46.5,64,48.2z M77.7,44.2c2.7-2.5,6.6-3.5,11.2-2.8c0.2,3.3-0.7,6.3-3,8.8
					c-3,3.2-6.8,3.9-11,3.5c1.1-2,2.6-3.6,4.4-4.9c1.8-1.3,3.8-2.1,6.1-2.5c-0.1-0.8-0.3-1.6-0.4-2.4c-4.3,0.8-7.8,2.8-10.6,6.1
					C74.8,47.6,76,45.7,77.7,44.2z M56.6,33.8c2.5,0.1,5-0.3,7.4,0.6c3.6,1.3,5.9,3.8,7,7.5c0.1,0.2,0.1,0.4,0.1,0.6
					c-2.8-3.3-6.3-5.4-10.6-6.2c-0.1,0.8-0.3,1.6-0.4,2.4c4.6,0.9,8.1,3.3,10.5,7.4c-4.8,0.5-9-0.6-11.9-4.7
					C57,39.2,56.4,36.7,56.6,33.8z"/>
				<path fill="#7C9BF2" d="M46.7,91v2.5h2.5c0.1,0.2,0.1,0.3,0.2,0.5c0.9,2.8,3.1,4.5,6.1,4.6c0.2,0,0.4,0,0.6,0c0.7,0,1,0,1.2,0.2
					c-0.3-0.9-0.5-1.8-0.6-2.7c-2.2,0.4-4.1-0.6-4.7-2.4H54V91h-2.4v-2.5h2.4v-2.5h-2.2c1-2.2,2.6-2.7,4.7-2.5v-2.4
					c-3.1-0.5-6.4,1.2-7.3,4.9h-2.5v2.5h2.4V91L46.7,91L46.7,91z"/>
				<path fill="#7C9BF2" d="M66.5,77c-4.4-4.1-10.2-6.5-16.2-5.7c-10.7,1.4-17.9,11.7-15.7,22.2c2.6,12.3,16.3,18.6,27.3,12.5
					c0.4-0.2,0.7-0.2,1.1,0c-1-0.7-2-1.5-2.8-2.4c0.1,0.1,0.1,0.2,0.2,0.2c-5.5,3.3-14.9,2.8-20.5-4.5c-5.4-7.2-3.9-17.4,3.4-22.7
					c7.1-5.2,16.6-3,21.5,2.3C66,77.6,66.2,77.5,66.5,77z"/>
				<path fill="#7C9BF2" d="M93.9,87.9c0-0.2,0.2-0.4,0.3-0.6c1-1.4,2.1-2.8,3.1-4.2c-0.7-0.5-1.3-1-2-1.5c-0.9,1.2-1.8,2.4-2.7,3.6
					c-0.9-1.2-1.8-2.4-2.7-3.6c-0.7,0.5-1.3,1-2,1.5c1,1.4,2,2.7,3.1,4.1c0.3,0.4,0.5,0.8,0.4,1.3c0,0.8,0,1.7,0,2.6
					c-0.1,0-2.2-0.2-2.9-0.3c0.2,0.4,0.4,1.3,0.4,2.8h2.5v4.9h2.5v-4.9h2.5V91h-2.5C93.9,89.9,93.9,88.9,93.9,87.9z"/>
				<path fill="#7C9BF2" d="M110.9,86c-1.6-7.1-5.9-11.9-12.9-14c-7-2.1-13.2-0.4-18.5,4.6c-0.1,0.1-0.3,0.2-0.5,0.4
					c0,0.1,1.2,1.5,1.7,2c4.9-5.6,14.2-7.4,21.2-2.5c7.2,5.1,9.1,14.8,4.2,22.2c-4.9,7.4-14.4,9-21,5.3c0,0,0,0,0,0c0,0,0,0,0,0
					c-1.2,1.2-2.1,1.8-2,1.9c3.9,2.2,8.6,3,13,2.2C106.2,106.3,113.2,96,110.9,86z"/>
				<path fill="#7C9BF2" d="M98.6,102.1c3-1.4,5.2-3.7,6.5-6.7c2.7-6,0.8-13-4.6-16.8c-5.2-3.7-12.8-3.6-18.3,2.4
					c0.6,0.6,1.2,1.3,1.7,2.1c3.7-4.4,9.8-5.8,14.5-2.9c5.3,3.3,7.2,10.3,3.8,15.6c-3.6,5.7-10.4,6.2-14.2,4.1
					c-0.4,0.8-0.8,1.6-1.2,2.3C90.6,103.9,94.6,104,98.6,102.1z"/>
				<path fill="#7C9BF2" d="M88.9,93.5c0.1,2.2-0.3,4.3-1.1,6.2c0,0,0,0,0.1,0C88.6,98.1,89.1,96,88.9,93.5z"/>
				<path fill="#7C9BF2" d="M44,79.4c-5,4.3-6.2,11.4-3,17.1c3.1,5.5,10.5,9.1,17.9,5.6c-0.5-0.7-0.9-1.5-1.3-2.3
					c-3.6,2.1-10.3,1.7-14.1-3.8c-3.5-5.2-2-12.2,3.2-15.6c4.9-3.2,11-2,14.9,2.6c0.5-0.7,1.1-1.5,1.7-2.1c-2.9-3-5.4-4.9-11-4.8
					C49.2,76.2,46.4,77.3,44,79.4z"/>
			</g>
		</g>
	</g>
</g>
</svg>
