<?xml version="1.0" encoding="utf-8"?>
<!-- Generator: Adobe Illustrator 18.0.0, SVG Export Plug-In . SVG Version: 6.00 Build 0)  -->
<!DOCTYPE svg PUBLIC "-//W3C//DTD SVG 1.1//EN" "http://www.w3.org/Graphics/SVG/1.1/DTD/svg11.dtd">
<svg version="1.1" id="Слой_1" xmlns="http://www.w3.org/2000/svg" xmlns:xlink="http://www.w3.org/1999/xlink" x="0px" y="0px"
	 viewBox="1.2 1.5 36.1 36.1" enable-background="new 1.2 1.5 36.1 36.1" xml:space="preserve">
<g>
	<g>
		<path fill="#9D9EBE" d="M19.3,1.5c10,0,18,8.1,18,18.1s-8.1,18-18.1,18s-18-8.1-18-18.1C1.3,9.5,9.3,1.5,19.3,1.5z M18.4,15.9
			c-0.3,0-0.6,0-1,0c-0.7,0-1.5,0-2.2,0c-0.4,0-0.6,0.3-0.6,0.6c0,0.3,0.2,0.6,0.6,0.7c0.3,0.1,0.6,0.1,0.8,0.1
			c0.7,0.1,1,0.4,0.9,1.1c0,0.1,0,0.3-0.1,0.4c-0.4,2.5-0.9,5-1.3,7.6c-0.3,1.8,0.8,3.2,2.6,3.5c0.5,0.1,1.1,0.1,1.6,0.1
			c1.5,0,2.7-0.6,3.7-1.6c0.1-0.2,0.3-0.4,0.3-0.6c0-0.1,0-0.4-0.1-0.5s-0.3-0.1-0.5-0.1s-0.4,0.2-0.6,0.2c-0.4,0.2-0.8,0.3-1.2,0.5
			c-0.5,0.1-0.8-0.1-0.9-0.6c-0.1-0.4-0.1-0.8,0-1.2c0.3-2,0.7-4,1.1-6c0.2-1,0.4-2,0.5-3c0.1-0.9-0.3-1.2-1.1-1.2
			C20.1,15.9,19.2,15.9,18.4,15.9z M17.2,11.8c0,1.5,1.2,2.8,2.8,2.8c1.5,0,2.8-1.3,2.8-2.8S21.6,9,20,9
			C18.5,9.1,17.2,10.3,17.2,11.8z"/>
	</g>
</g>
</svg>
