<?xml version="1.0" encoding="utf-8"?>
<!-- Generator: Adobe Illustrator 18.0.0, SVG Export Plug-In . SVG Version: 6.00 Build 0)  -->
<!DOCTYPE svg PUBLIC "-//W3C//DTD SVG 1.1//EN" "http://www.w3.org/Graphics/SVG/1.1/DTD/svg11.dtd">
<svg version="1.1" id="Слой_1" xmlns="http://www.w3.org/2000/svg" xmlns:xlink="http://www.w3.org/1999/xlink" x="0px" y="0px"
	 width="198.1px" height="198.1px" viewBox="4 5.6 198.1 198.1" enable-background="new 4 5.6 198.1 198.1" xml:space="preserve">
<g>
	
		<linearGradient id="SVGID_1_" gradientUnits="userSpaceOnUse" x1="-641.3969" y1="258.3135" x2="-758.3096" y2="375.2263" gradientTransform="matrix(0.7071 0.7071 0.7071 -0.7071 373.8672 823.5231)">
		<stop  offset="0" style="stop-color:#08095D"/>
		<stop  offset="1" style="stop-color:#092BA3"/>
	</linearGradient>
	<path fill="url(#SVGID_1_)" stroke="#102771" stroke-width="5" stroke-miterlimit="10" d="M120.8,180c-9.8,9.8-25.8,9.8-35.7,0
		l-57.5-57.5c-9.8-9.8-9.8-25.8,0-35.7l57.5-57.5c9.8-9.8,25.8-9.8,35.7,0l57.5,57.5c9.8,9.8,9.8,25.8,0,35.7L120.8,180z"/>
	<g opacity="0.15">
		<path fill="#FFFFFF" d="M103,203.7c-8.3,0-16-3.2-21.8-9.1L13,126.5c-12-12-12-31.7,0-43.7l68.1-68.1C87,8.8,94.7,5.6,103,5.6
			s16,3.2,21.8,9.1L193,82.8c12,12,12,31.7,0,43.7l-68.1,68.1C119,200.5,111.2,203.7,103,203.7z M103,7.6c-7.7,0-15,3-20.5,8.5
			L14.4,84.2c-11.3,11.3-11.3,29.6,0,40.9l68.1,68.1c5.5,5.5,12.7,8.5,20.5,8.5c7.7,0,15-3,20.5-8.5l68.1-68.1
			c11.3-11.3,11.3-29.6,0-40.9l-68.1-68.1C118,10.6,110.7,7.6,103,7.6z"/>
	</g>
	<g>
		<path fill="#FFFFFE" d="M101.5,98.8c0-0.8,0-1.6,0-2.5c-0.3,0-0.6,0-0.9,0c-2.1,0-4.2,0.1-6.3-0.1c-2.9-0.3-5.1-2.9-5.1-5.9
			c0-0.9,0-1.7,0-2.6c0-0.8,0.5-1.3,1.3-1.3c2.5,0,5.1,0,7.6,0c1.6,0,2.9,0.7,4,1.8c0.2,0.2,0.4,0.4,0.5,0.6c0.1,0,0.1,0,0.1,0
			c1.4-1.7,3.3-2.4,5.5-2.4c2.1,0.1,4.3,0,6.4,0c1.1,0,1.5,0.4,1.5,1.5c0,1,0.1,2.1-0.1,3.1c-0.5,3.1-3,5.3-6.2,5.3c-2,0-4,0-6,0
			c0,0.8,0,1.6,0,2.5c5.3,0.6,9.6,3.1,12.4,7.7c2.1,3.5,2.8,7.2,2.1,11.2c-1.5,7.8-8.5,13.5-16.8,13.1c-7.5-0.4-14.2-6.8-14.9-14.2
			C85.9,107.3,92.9,99.4,101.5,98.8z M102.8,128.4c7.5,0,13.6-6.1,13.5-13.7c0-7.4-6.1-13.5-13.6-13.5c-7.5,0-13.6,6.1-13.6,13.6
			C89.2,122.4,95.4,128.5,102.8,128.4z M91.7,88.9c0,0.4,0,0.8,0,1.1c0,2.3,1.6,3.8,3.9,3.8c1.4,0,2.8,0,4.2,0c0.6,0,1.2,0,1.8,0
			c0-0.4,0-0.8,0-1.1c-0.1-2.2-1.6-3.8-3.8-3.8c-0.9,0-1.8,0-2.7,0C94,88.9,92.9,88.9,91.7,88.9z M113.8,89c-0.1,0-0.2,0-0.2,0
			c-1.9,0-3.8,0-5.7,0c-2.6,0-4.4,2.3-3.8,4.9c2.2,0,4.4,0,6.6,0c0.1,0,0.2,0,0.3-0.1C113.1,93.3,114.2,91.4,113.8,89z"/>
		<g>
			<path fill="#6582DC" d="M72.5,125.6c-6,0.3-11.1-4.6-11.4-10.8c-0.3-5.8,4.6-11.1,10.4-11.4c6.3-0.3,11.6,4.4,11.8,10.4
				C83.6,120.2,78.9,125.3,72.5,125.6z M72.3,105.9c-4.8,0-8.7,3.8-8.7,8.5c0,4.8,3.8,8.7,8.6,8.8c4.8,0,8.7-3.8,8.7-8.6
				C80.9,109.8,77.1,105.9,72.3,105.9z"/>
		</g>
		<g>
			<path fill="#6683DB" d="M133.8,103.4c6.1,0,11.1,5,11.1,11.1c0,6.1-5,11.1-11.1,11.1c-6.1,0-11.1-5-11.1-11.2
				C122.7,108.3,127.6,103.4,133.8,103.4z M133.7,105.9c-4.8,0-8.6,3.8-8.6,8.6c0,4.8,3.9,8.7,8.6,8.7c4.7,0,8.6-3.9,8.6-8.6
				C142.4,109.7,138.5,105.8,133.7,105.9z"/>
		</g>
		<path fill="#FFFFFE" d="M110.2,76.6c0,2.5,0,4.9,0,7.4c-0.8,0-1.6,0-2.4,0c0-0.2,0-0.4,0-0.6c0-2.5,0-5.1,0-7.6
			c0-1.2,0.4-1.6,1.6-1.6c0.5,0,1.1,0,1.8,0c-2.8-3.1-5.6-6.2-8.3-9.3c-2.8,3.1-5.5,6.1-8.3,9.3c0.8,0,1.4,0,2,0
			c0.9,0,1.4,0.5,1.4,1.3c0,2.7,0,5.5,0,8.2c0,0.1,0,0.2,0,0.3c-0.8,0-1.6,0-2.4,0c0-2.4,0-4.8,0-7.3c-0.3,0-0.5,0-0.7,0
			c-1,0-2,0-3,0c-0.6,0-1-0.2-1.2-0.7c-0.2-0.5-0.1-1,0.3-1.4c0.1-0.1,0.1-0.1,0.2-0.2c3.5-3.9,7.1-7.9,10.6-11.8
			c0.8-0.9,1.5-0.9,2.4,0c3.5,3.9,7.1,7.9,10.6,11.8c0.4,0.5,0.7,1,0.4,1.6c-0.3,0.6-0.8,0.8-1.5,0.7
			C112.5,76.6,111.4,76.6,110.2,76.6z"/>
		<path fill="#FFFFFE" d="M101.6,103.8c0.9,0,1.6,0,2.4,0c0,0.7,0,1.3,0,2c0,0.4,0.1,0.6,0.5,0.8c1.9,0.8,2.9,2.1,3.1,4.2
			c0,0.1,0,0.2,0,0.4c-0.8,0-1.5,0-2.4,0c0-0.1-0.1-0.3-0.1-0.4c-0.3-1.4-1.4-2.2-2.8-2c-1.2,0.2-2.1,1.3-2.1,2.5
			c0.1,1.3,1.1,2.3,2.5,2.4c2.2,0.1,4,1.4,4.7,3.4c0.8,2.4-0.4,5.1-2.8,6.1c-0.5,0.2-0.7,0.5-0.6,1c0,0.6,0,1.2,0,1.9
			c-0.8,0-1.6,0-2.4,0c0-0.7,0-1.3,0-2c0-0.5-0.1-0.7-0.6-0.9c-1.9-0.7-3.1-2.5-3.1-4.5c0.8,0,1.5,0,2.4,0c0,0.2,0.1,0.4,0.1,0.6
			c0.3,1.3,1.5,2,2.8,1.8c1.2-0.2,2.1-1.3,2-2.5c-0.1-1.3-1.1-2.3-2.4-2.3c-3.2-0.2-5.4-2.6-4.9-5.7c0.3-1.9,1.3-3.2,3.1-3.9
			c0.5-0.2,0.6-0.4,0.6-0.9C101.5,105.1,101.6,104.5,101.6,103.8z"/>
		<g>
			<path fill="#6582DC" d="M68.1,120.2c-0.5-0.5-1.1-1.1-1.5-1.5c3.3-3.3,6.6-6.6,9.8-9.8c0.5,0.5,1,1,1.5,1.5
				C74.7,113.6,71.4,116.9,68.1,120.2z"/>
		</g>
		<g>
			<path fill="#6582DC" d="M67.3,112c0-0.8,0-1.5,0-2.4c0.8,0,1.6,0,2.4,0c0,0.8,0,1.5,0,2.4C69,112,68.2,112,67.3,112z"/>
		</g>
		<g>
			<path fill="#6582DC" d="M74.8,117c0.8,0,1.6,0,2.4,0c0,0.8,0,1.6,0,2.4c-0.8,0-1.5,0-2.4,0C74.8,118.6,74.8,117.8,74.8,117z"/>
		</g>
		<g>
			<path fill="#6683DB" d="M128.1,118.5c3.2-3.2,6.5-6.5,9.8-9.7c0.5,0.5,1.1,1.1,1.6,1.6c-3.3,3.2-6.5,6.5-9.7,9.7
				C129.2,119.6,128.6,119.1,128.1,118.5z"/>
		</g>
		<g>
			<path fill="#6683DB" d="M136.2,117c0.8,0,1.6,0,2.4,0c0,0.8,0,1.6,0,2.4c-0.8,0-1.6,0-2.4,0C136.2,118.6,136.2,117.8,136.2,117z"
				/>
		</g>
		<g>
			<path fill="#6683DB" d="M128.8,109.6c0.8,0,1.6,0,2.4,0c0,0.8,0,1.6,0,2.4c-0.8,0-1.6,0-2.4,0
				C128.8,111.2,128.8,110.4,128.8,109.6z"/>
		</g>
	</g>
</g>
</svg>
