<?xml version="1.0" encoding="utf-8"?>
<!-- Generator: Adobe Illustrator 18.0.0, SVG Export Plug-In . SVG Version: 6.00 Build 0)  -->
<!DOCTYPE svg PUBLIC "-//W3C//DTD SVG 1.1//EN" "http://www.w3.org/Graphics/SVG/1.1/DTD/svg11.dtd">
<svg version="1.1" id="Слой_1" xmlns="http://www.w3.org/2000/svg" xmlns:xlink="http://www.w3.org/1999/xlink" x="0px" y="0px"
	 width="45px" height="46px" viewBox="7.9 9 45 46" enable-background="new 7.9 9 45 46" xml:space="preserve">
<g>
	<path fill="#FFFFFF" d="M31.8,25.3c0,2.1,0,4.1,0,6.2c0.6,0.1,1.2,0.2,1.8,0.4c0.6,0.2,1.2,0.4,1.7,0.7c1.7,0.9,2.3,2.2,2.1,4.1
		c-0.4,3-2.4,5-5.4,5.4c0,0-0.1,0-0.2,0c0,0.9,0,1.8,0,2.8c-1,0-1.9,0-2.8,0c0-1,0-2,0-3c-2-0.5-3.7-1.4-4.7-3.2
		c-0.7-1.1-1-2.3-0.9-3.6c0.9,0,1.8,0,2.6,0c0.1,0,0.2,0.2,0.2,0.3c0.1,1.7,1.1,3,2.8,3.5c0-1.6,0-3.2,0-4.8
		c-0.7-0.2-1.5-0.4-2.2-0.7c-1.5-0.6-2.7-1.5-3.2-3.1c-0.8-2.4,0-4.8,2.1-6.4c0.9-0.7,1.9-1.1,2.9-1.3c0.3-0.1,0.4-0.2,0.4-0.5
		c0-0.7,0-1.4,0-2.1c0.9,0,1.9,0,2.8,0c0,0.8,0,1.6,0,2.4c1.9,0.4,3.3,1.3,4.4,2.9c0.9,1.3,1.3,2.8,1.4,4.4
		c-0.9,0.1-1.8,0.2-2.8,0.3C34.5,27.9,33.9,26.2,31.8,25.3z M28.9,31.2c0-2,0-3.8,0-5.7c-1.1,0.1-2.4,1.1-2.7,2.2
		c-0.4,1.5,0,2.4,1.2,3C27.9,30.8,28.4,31,28.9,31.2z M31.9,39.1c1.7-0.2,3-1.8,2.8-3.5c0-0.1-0.1-0.3-0.2-0.4
		c-0.7-0.6-1.6-0.8-2.6-0.9C31.9,36,31.9,37.5,31.9,39.1z"/>
	<path fill="#FFFFFF" d="M34.6,48.7c2.1-0.2,4.1-0.3,6.2-0.5c-0.4,2-0.7,4-1.1,6.1c-0.5-0.6-1-1.1-1.5-1.7c-4.1,2.4-8.4,3-13,1.5
		c-2.7-0.9-4.9-2.5-6.8-4.7c0.8-0.6,1.6-1.2,2.4-1.9c2.3,2.6,5.2,4,8.7,4.2c2.3,0.1,4.5-0.4,6.5-1.6C35.6,49.7,35.1,49.2,34.6,48.7z
		"/>
	<path fill="#FFFFFF" d="M48,26.8c-0.5,0.5-1,0.9-1.6,1.4c-0.2-2.1-0.3-4.2-0.5-6.2c2,0.4,4,0.8,6.1,1.2c-0.6,0.5-1.1,1-1.7,1.5
		c2.4,3.9,2.9,8.1,1.6,12.5c-0.9,2.9-2.5,5.2-4.8,7.2c-0.6-0.8-1.2-1.6-1.8-2.4C50.4,37.7,50.3,30.8,48,26.8z"/>
	<path fill="#FFFFFF" d="M13.7,19.2c0.6,0.8,1.2,1.6,1.8,2.4c-5.1,4.4-5.1,11.3-2.7,15.2c0.5-0.5,1-0.9,1.6-1.4
		c0.2,2.1,0.3,4.2,0.5,6.2c-2-0.4-4-0.7-6.1-1.1c0.6-0.5,1.1-1,1.7-1.5C5.9,31.4,8.8,23.2,13.7,19.2z"/>
	<path fill="#FFFFFF" d="M42.1,14.5c-0.8,0.6-1.6,1.2-2.4,1.8c-4.2-4.9-11.1-5.2-15.2-2.6c0.5,0.5,0.9,1,1.4,1.6
		c-2.1,0.2-4.2,0.3-6.2,0.5c0.4-2,0.7-4,1.1-6.1c0.5,0.6,1,1.1,1.5,1.7c3.8-2.3,7.8-2.9,12.1-1.7C37.5,10.4,40.6,12.4,42.1,14.5z"/>
</g>
</svg>
