<?xml version="1.0" encoding="utf-8"?>
<!-- Generator: Adobe Illustrator 18.0.0, SVG Export Plug-In . SVG Version: 6.00 Build 0)  -->
<!DOCTYPE svg PUBLIC "-//W3C//DTD SVG 1.1//EN" "http://www.w3.org/Graphics/SVG/1.1/DTD/svg11.dtd">
<svg version="1.1" id="Слой_1" xmlns="http://www.w3.org/2000/svg" xmlns:xlink="http://www.w3.org/1999/xlink" x="0px" y="0px"
	 width="5px" height="9px" viewBox="1.8 1.8 5 9" enable-background="new 1.8 1.8 5 9" xml:space="preserve">
<path fill="#061978" d="M6.8,6.6c0-0.1,0-0.2,0-0.3c0-0.1,0-0.2,0-0.3c0,0,0,0,0,0c0-0.1-0.1-0.2-0.1-0.3c0,0,0,0,0-0.1L3.6,2.1
	C3.2,1.7,2.6,1.7,2.2,2C1.8,2.3,1.8,2.9,2.1,3.3l2.5,3l-2.5,3c-0.3,0.4-0.3,1,0.1,1.3c0.4,0.3,1.1,0.3,1.4-0.1l3.1-3.5
	c0,0,0,0,0-0.1C6.7,6.8,6.8,6.7,6.8,6.6C6.8,6.6,6.8,6.6,6.8,6.6z"/>
</svg>
