<?xml version="1.0" encoding="utf-8"?>
<!-- Generator: Adobe Illustrator 18.0.0, SVG Export Plug-In . SVG Version: 6.00 Build 0)  -->
<!DOCTYPE svg PUBLIC "-//W3C//DTD SVG 1.1//EN" "http://www.w3.org/Graphics/SVG/1.1/DTD/svg11.dtd">
<svg version="1.1" id="Layer_1" xmlns="http://www.w3.org/2000/svg" xmlns:xlink="http://www.w3.org/1999/xlink" x="0px" y="0px"
	 width="543.4px" height="520.3px" viewBox="0 0 543.4 520.3" enable-background="new 0 0 543.4 520.3" xml:space="preserve">
<g id="Logotype" display="none">
	<rect id="bg_1_" x="-370" y="-234" display="inline" fill="#071E35" width="1280" height="1024"/>
	<rect id="bg" x="-370" y="-234" display="inline" fill="#090F14" width="1280" height="1024"/>
	<g id="text" display="inline">
		<g>
			<g>
				<defs>
					<text id="SVGID_1_" transform="matrix(1 0 0 1 48.3525 520.2764)" font-family="'ArialMT'" font-size="37">Real Estate Investment Trusts</text>
				</defs>
				<clipPath id="SVGID_2_">
					<use xlink:href="#SVGID_1_"  overflow="visible"/>
				</clipPath>
				
					<linearGradient id="SVGID_3_" gradientUnits="userSpaceOnUse" x1="0" y1="87.05" x2="564" y2="87.05" gradientTransform="matrix(1 0 0 -1 0 522.5499)">
					<stop  offset="0" style="stop-color:#FFD594"/>
					<stop  offset="1" style="stop-color:#BF8044"/>
				</linearGradient>
				<rect y="327" clip-path="url(#SVGID_2_)" fill="url(#SVGID_3_)" width="564" height="217"/>
			</g>
		</g>
		<g id="REITOP">
			<g>
				<defs>
					<text id="SVGID_4_" transform="matrix(1 0 0 1 -15.2407 466.0458)" font-family="'TrajanPro-Regular'" font-size="154">Reitop</text>
				</defs>
				<clipPath id="SVGID_5_">
					<use xlink:href="#SVGID_4_"  overflow="visible"/>
				</clipPath>
				
					<linearGradient id="SVGID_6_" gradientUnits="userSpaceOnUse" x1="0" y1="90.05" x2="564" y2="90.05" gradientTransform="matrix(1 0 0 -1 0 522.5499)">
					<stop  offset="0" style="stop-color:#FFD594"/>
					<stop  offset="1" style="stop-color:#BF8044"/>
				</linearGradient>
				<rect y="324" clip-path="url(#SVGID_5_)" fill="url(#SVGID_6_)" width="564" height="217"/>
			</g>
		</g>
	</g>
	<g id="logo" display="inline">
		<g id="left_2_">
			
				<linearGradient id="SVGID_7_" gradientUnits="userSpaceOnUse" x1="69.6652" y1="564.5503" x2="246.5997" y2="258.0907" gradientTransform="matrix(1 0 0 -1 0 522.5499)">
				<stop  offset="0" style="stop-color:#FFD594"/>
				<stop  offset="1" style="stop-color:#BF8044"/>
			</linearGradient>
			<polygon fill="url(#SVGID_7_)" points="138.9,160.2 198,155.4 198,98 138.9,107.5 			"/>
			
				<linearGradient id="SVGID_8_" gradientUnits="userSpaceOnUse" x1="99.2698" y1="573.3192" x2="275.666" y2="267.7923" gradientTransform="matrix(1 0 0 -1 0 522.5499)">
				<stop  offset="0" style="stop-color:#FFD594"/>
				<stop  offset="1" style="stop-color:#BF8044"/>
			</linearGradient>
			<polygon fill="url(#SVGID_8_)" points="202.3,208.7 266,213.3 266,157 202.3,160.7 			"/>
			
				<linearGradient id="SVGID_9_" gradientUnits="userSpaceOnUse" x1="48.4951" y1="504.5384" x2="217.1022" y2="212.5024" gradientTransform="matrix(1 0 0 -1 0 522.5499)">
				<stop  offset="0" style="stop-color:#FFD594"/>
				<stop  offset="1" style="stop-color:#BF8044"/>
			</linearGradient>
			<polygon fill="url(#SVGID_9_)" points="139,237.4 197,245.7 197,212.6 139,208 			"/>
			
				<linearGradient id="SVGID_10_" gradientUnits="userSpaceOnUse" x1="90.2171" y1="539.2391" x2="260.8015" y2="243.7784" gradientTransform="matrix(1 0 0 -1 0 522.5499)">
				<stop  offset="0" style="stop-color:#FFD594"/>
				<stop  offset="1" style="stop-color:#BF8044"/>
			</linearGradient>
			<polygon fill="url(#SVGID_10_)" points="202,246.7 266,256 266,218 202,213.3 			"/>
			
				<linearGradient id="SVGID_11_" gradientUnits="userSpaceOnUse" x1="44.8742" y1="555.8511" x2="221.9607" y2="249.1284" gradientTransform="matrix(1 0 0 -1 0 522.5499)">
				<stop  offset="0" style="stop-color:#FFD594"/>
				<stop  offset="1" style="stop-color:#BF8044"/>
			</linearGradient>
			<polygon fill="url(#SVGID_11_)" points="85,113.3 135,104 135,45.7 85,62.4 			"/>
			
				<linearGradient id="SVGID_12_" gradientUnits="userSpaceOnUse" x1="28.0463" y1="528.7711" x2="207.2069" y2="218.4559" gradientTransform="matrix(1 0 0 -1 0 522.5499)">
				<stop  offset="0" style="stop-color:#FFD594"/>
				<stop  offset="1" style="stop-color:#BF8044"/>
			</linearGradient>
			<polygon fill="url(#SVGID_12_)" points="135.2,108 85,117.3 85,163.8 135.2,161 			"/>
			
				<linearGradient id="SVGID_13_" gradientUnits="userSpaceOnUse" x1="16.7851" y1="500.9628" x2="191.9851" y2="197.5075" gradientTransform="matrix(1 0 0 -1 0 522.5499)">
				<stop  offset="0" style="stop-color:#FFD594"/>
				<stop  offset="1" style="stop-color:#BF8044"/>
			</linearGradient>
			<polygon fill="url(#SVGID_13_)" points="135,165.4 85.3,167.2 85.3,201.2 135,205 			"/>
			
				<linearGradient id="SVGID_14_" gradientUnits="userSpaceOnUse" x1="9.9137" y1="478.0875" x2="180.2955" y2="182.9776" gradientTransform="matrix(1 0 0 -1 0 522.5499)">
				<stop  offset="0" style="stop-color:#FFD594"/>
				<stop  offset="1" style="stop-color:#BF8044"/>
			</linearGradient>
			<polygon fill="url(#SVGID_14_)" points="135,207.7 85.5,203.9 85.5,228.8 135,237 			"/>
			
				<linearGradient id="SVGID_15_" gradientUnits="userSpaceOnUse" x1="8.3487" y1="518.5297" x2="183.2718" y2="215.5538" gradientTransform="matrix(1 0 0 -1 0 522.5499)">
				<stop  offset="0" style="stop-color:#FFD594"/>
				<stop  offset="1" style="stop-color:#BF8044"/>
			</linearGradient>
			<polygon fill="url(#SVGID_15_)" points="81,114.8 38.5,122 38.5,79.6 81,64.1 			"/>
			
				<linearGradient id="SVGID_16_" gradientUnits="userSpaceOnUse" x1="-15.1236" y1="469.5179" x2="155.8534" y2="173.377" gradientTransform="matrix(1 0 0 -1 0 522.5499)">
				<stop  offset="0" style="stop-color:#FFD594"/>
				<stop  offset="1" style="stop-color:#BF8044"/>
			</linearGradient>
			<polygon fill="url(#SVGID_16_)" points="81,167.6 39,170.3 39,198.7 81,201.4 			"/>
			
				<linearGradient id="SVGID_17_" gradientUnits="userSpaceOnUse" x1="-33.4265" y1="462.3913" x2="132.9252" y2="174.2616" gradientTransform="matrix(1 0 0 -1 0 522.5499)">
				<stop  offset="0" style="stop-color:#FFD594"/>
				<stop  offset="1" style="stop-color:#BF8044"/>
			</linearGradient>
			<polygon fill="url(#SVGID_17_)" points="34,165.8 0,167.5 0,133.5 34,127.5 			"/>
			
				<linearGradient id="SVGID_18_" gradientUnits="userSpaceOnUse" x1="-44.3093" y1="420.764" x2="109.3652" y2="154.592" gradientTransform="matrix(1 0 0 -1 0 522.5499)">
				<stop  offset="0" style="stop-color:#FFD594"/>
				<stop  offset="1" style="stop-color:#BF8044"/>
			</linearGradient>
			<polygon fill="url(#SVGID_18_)" points="34,220 0.2,214.9 0.2,198.9 34,201.4 			"/>
			
				<linearGradient id="SVGID_19_" gradientUnits="userSpaceOnUse" x1="87.9775" y1="598.4288" x2="266.6267" y2="288.9993" gradientTransform="matrix(1 0 0 -1 0 522.5499)">
				<stop  offset="0" style="stop-color:#FFD594"/>
				<stop  offset="1" style="stop-color:#BF8044"/>
			</linearGradient>
			<polygon fill="url(#SVGID_19_)" points="139.3,103 198,93.7 198,24.7 139.3,44.3 			"/>
			
				<linearGradient id="SVGID_20_" gradientUnits="userSpaceOnUse" x1="115.0847" y1="607.4673" x2="293.2849" y2="298.8155" gradientTransform="matrix(1 0 0 -1 0 522.5499)">
				<stop  offset="0" style="stop-color:#FFD594"/>
				<stop  offset="1" style="stop-color:#BF8044"/>
			</linearGradient>
			<polygon fill="url(#SVGID_20_)" points="202,155.8 266,152.1 266,86.3 202,97.4 			"/>
		</g>
		<g id="right">
			
				<linearGradient id="SVGID_21_" gradientUnits="userSpaceOnUse" x1="297.7276" y1="489.0647" x2="471.7276" y2="251.7314" gradientTransform="matrix(1 0 0 -1 0 522.5499)">
				<stop  offset="0" style="stop-color:#FFD594"/>
				<stop  offset="7.679945e-002" style="stop-color:#F6CA89"/>
				<stop  offset="0.3289" style="stop-color:#DEAA6B"/>
				<stop  offset="0.5723" style="stop-color:#CD9356"/>
				<stop  offset="0.801" style="stop-color:#C38548"/>
				<stop  offset="1" style="stop-color:#BF8044"/>
			</linearGradient>
			<polygon fill="url(#SVGID_21_)" points="399.1,160.2 340,155.4 340,98 399.1,107.5 			"/>
			
				<linearGradient id="SVGID_22_" gradientUnits="userSpaceOnUse" x1="228.5074" y1="438.3161" x2="402.5074" y2="200.9828" gradientTransform="matrix(1 0 0 -1 0 522.5499)">
				<stop  offset="0" style="stop-color:#FFD594"/>
				<stop  offset="7.679945e-002" style="stop-color:#F6CA89"/>
				<stop  offset="0.3289" style="stop-color:#DEAA6B"/>
				<stop  offset="0.5723" style="stop-color:#CD9356"/>
				<stop  offset="0.801" style="stop-color:#C38548"/>
				<stop  offset="1" style="stop-color:#BF8044"/>
			</linearGradient>
			<polygon fill="url(#SVGID_22_)" points="335.7,208.7 272,213.3 272,157 335.7,160.7 			"/>
			
				<linearGradient id="SVGID_23_" gradientUnits="userSpaceOnUse" x1="252.5296" y1="455.9279" x2="426.5295" y2="218.5946" gradientTransform="matrix(1 0 0 -1 0 522.5499)">
				<stop  offset="0" style="stop-color:#FFD594"/>
				<stop  offset="7.679945e-002" style="stop-color:#F6CA89"/>
				<stop  offset="0.3289" style="stop-color:#DEAA6B"/>
				<stop  offset="0.5723" style="stop-color:#CD9356"/>
				<stop  offset="0.801" style="stop-color:#C38548"/>
				<stop  offset="1" style="stop-color:#BF8044"/>
			</linearGradient>
			<polygon fill="url(#SVGID_23_)" points="399,237.4 341,245.7 341,212.6 399,208 			"/>
			
				<linearGradient id="SVGID_24_" gradientUnits="userSpaceOnUse" x1="332.007" y1="514.1965" x2="506.007" y2="276.8632" gradientTransform="matrix(1 0 0 -1 0 522.5499)">
				<stop  offset="0" style="stop-color:#FFD594"/>
				<stop  offset="7.679945e-002" style="stop-color:#F6CA89"/>
				<stop  offset="0.3289" style="stop-color:#DEAA6B"/>
				<stop  offset="0.5723" style="stop-color:#CD9356"/>
				<stop  offset="0.801" style="stop-color:#C38548"/>
				<stop  offset="1" style="stop-color:#BF8044"/>
			</linearGradient>
			<polygon fill="url(#SVGID_24_)" points="402.8,108 453,117.3 453,163.8 402.8,161 			"/>
			
				<linearGradient id="SVGID_25_" gradientUnits="userSpaceOnUse" x1="309.5868" y1="497.7592" x2="483.5868" y2="260.4258" gradientTransform="matrix(1 0 0 -1 0 522.5499)">
				<stop  offset="0" style="stop-color:#FFD594"/>
				<stop  offset="7.679945e-002" style="stop-color:#F6CA89"/>
				<stop  offset="0.3289" style="stop-color:#DEAA6B"/>
				<stop  offset="0.5723" style="stop-color:#CD9356"/>
				<stop  offset="0.801" style="stop-color:#C38548"/>
				<stop  offset="1" style="stop-color:#BF8044"/>
			</linearGradient>
			<polygon fill="url(#SVGID_25_)" points="403,165.4 452.7,167.2 452.7,201.2 403,205 			"/>
			
				<linearGradient id="SVGID_26_" gradientUnits="userSpaceOnUse" x1="293.1422" y1="485.703" x2="467.1422" y2="248.3696" gradientTransform="matrix(1 0 0 -1 0 522.5499)">
				<stop  offset="0" style="stop-color:#FFD594"/>
				<stop  offset="7.679945e-002" style="stop-color:#F6CA89"/>
				<stop  offset="0.3289" style="stop-color:#DEAA6B"/>
				<stop  offset="0.5723" style="stop-color:#CD9356"/>
				<stop  offset="0.801" style="stop-color:#C38548"/>
				<stop  offset="1" style="stop-color:#BF8044"/>
			</linearGradient>
			<polygon fill="url(#SVGID_26_)" points="403,207.7 452.5,203.9 452.5,228.8 403,237 			"/>
			
				<linearGradient id="SVGID_27_" gradientUnits="userSpaceOnUse" x1="384.7584" y1="552.871" x2="558.7585" y2="315.5377" gradientTransform="matrix(1 0 0 -1 0 522.5499)">
				<stop  offset="0" style="stop-color:#FFD594"/>
				<stop  offset="7.679945e-002" style="stop-color:#F6CA89"/>
				<stop  offset="0.3289" style="stop-color:#DEAA6B"/>
				<stop  offset="0.5723" style="stop-color:#CD9356"/>
				<stop  offset="0.801" style="stop-color:#C38548"/>
				<stop  offset="1" style="stop-color:#BF8044"/>
			</linearGradient>
			<polygon fill="url(#SVGID_27_)" points="457,114.8 499.5,122 499.5,79.6 457,64.1 			"/>
			
				<linearGradient id="SVGID_28_" gradientUnits="userSpaceOnUse" x1="342.3238" y1="521.7602" x2="516.3238" y2="284.4269" gradientTransform="matrix(1 0 0 -1 0 522.5499)">
				<stop  offset="0" style="stop-color:#FFD594"/>
				<stop  offset="7.679945e-002" style="stop-color:#F6CA89"/>
				<stop  offset="0.3289" style="stop-color:#DEAA6B"/>
				<stop  offset="0.5723" style="stop-color:#CD9356"/>
				<stop  offset="0.801" style="stop-color:#C38548"/>
				<stop  offset="1" style="stop-color:#BF8044"/>
			</linearGradient>
			<polygon fill="url(#SVGID_28_)" points="457,167.6 499,170.3 499,198.7 457,201.4 			"/>
			
				<linearGradient id="SVGID_29_" gradientUnits="userSpaceOnUse" x1="381.8185" y1="562.5547" x2="562.4606" y2="316.1617" gradientTransform="matrix(1 0 0 -1 0 522.5499)">
				<stop  offset="0" style="stop-color:#FFD594"/>
				<stop  offset="7.679945e-002" style="stop-color:#F6CA89"/>
				<stop  offset="0.3289" style="stop-color:#DEAA6B"/>
				<stop  offset="0.5723" style="stop-color:#CD9356"/>
				<stop  offset="0.801" style="stop-color:#C38548"/>
				<stop  offset="1" style="stop-color:#BF8044"/>
			</linearGradient>
			<polygon fill="url(#SVGID_29_)" points="502.7,165.7 538,167.5 538,132.2 502.7,126 			"/>
			
				<linearGradient id="SVGID_30_" gradientUnits="userSpaceOnUse" x1="327.4088" y1="510.8253" x2="501.4088" y2="273.4921" gradientTransform="matrix(1 0 0 -1 0 522.5499)">
				<stop  offset="0" style="stop-color:#FFD594"/>
				<stop  offset="7.679945e-002" style="stop-color:#F6CA89"/>
				<stop  offset="0.3289" style="stop-color:#DEAA6B"/>
				<stop  offset="0.5723" style="stop-color:#CD9356"/>
				<stop  offset="0.801" style="stop-color:#C38548"/>
				<stop  offset="1" style="stop-color:#BF8044"/>
			</linearGradient>
			<polygon fill="url(#SVGID_30_)" points="398.8,103 340,93.7 340,24.7 398.8,44.3 			"/>
			
				<linearGradient id="SVGID_31_" gradientUnits="userSpaceOnUse" x1="375.3994" y1="588.6179" x2="542.7098" y2="298.8279" gradientTransform="matrix(1 0 0 -1 0 522.5499)">
				<stop  offset="0" style="stop-color:#FFD594"/>
				<stop  offset="3.373080e-002" style="stop-color:#FCD190"/>
				<stop  offset="0.4666" style="stop-color:#DBA567"/>
				<stop  offset="0.8031" style="stop-color:#C78A4E"/>
				<stop  offset="1" style="stop-color:#BF8044"/>
			</linearGradient>
			<polygon fill="url(#SVGID_31_)" points="503,198.4 538.4,195.8 538.4,172.8 503,171 			"/>
			
				<linearGradient id="SVGID_32_" gradientUnits="userSpaceOnUse" x1="343.965" y1="540.009" x2="503.9574" y2="262.894" gradientTransform="matrix(1 0 0 -1 0 522.5499)">
				<stop  offset="0" style="stop-color:#FFD594"/>
				<stop  offset="3.373080e-002" style="stop-color:#FCD190"/>
				<stop  offset="0.4666" style="stop-color:#DBA567"/>
				<stop  offset="0.8031" style="stop-color:#C78A4E"/>
				<stop  offset="1" style="stop-color:#BF8044"/>
			</linearGradient>
			<polygon fill="url(#SVGID_32_)" points="456.6,227.7 499,221.3 499,201 456.6,203.8 			"/>
			
				<linearGradient id="SVGID_33_" gradientUnits="userSpaceOnUse" x1="250.9706" y1="562.9424" x2="452.5493" y2="213.7977" gradientTransform="matrix(1 0 0 -1 0 522.5499)">
				<stop  offset="0" style="stop-color:#FFD594"/>
				<stop  offset="3.373080e-002" style="stop-color:#FCD190"/>
				<stop  offset="0.4666" style="stop-color:#DBA567"/>
				<stop  offset="0.8031" style="stop-color:#C78A4E"/>
				<stop  offset="1" style="stop-color:#BF8044"/>
			</linearGradient>
			<polygon fill="url(#SVGID_33_)" points="336.9,93 271.9,81.6 271.9,0 336.9,22.7 			"/>
		</g>
		
			<linearGradient id="line_4_" gradientUnits="userSpaceOnUse" x1="0.8282" y1="272.0328" x2="537.188" y2="272.0328" gradientTransform="matrix(1 0 0 -1 0 522.5499)">
			<stop  offset="0" style="stop-color:#FFD594"/>
			<stop  offset="1" style="stop-color:#BF8044"/>
		</linearGradient>
		<polyline id="line_2_" fill="none" stroke="url(#line_4_)" stroke-width="2" stroke-miterlimit="10" points="1,229 270.5,276 
			537,225 		"/>
	</g>
</g>
<g id="logo_copy_2">
</g>
<g>
	<g id="left_3_">
		<polygon fill="#FFFFFF" points="138.9,160.2 198,155.4 198,98 138.9,107.5 		"/>
		<polygon fill="#FFFFFF" points="202.3,208.7 266,213.3 266,157 202.3,160.7 		"/>
		<polygon fill="#FFFFFF" points="139,237.4 197,245.7 197,212.6 139,208 		"/>
		<polygon fill="#FFFFFF" points="202,246.7 266,256 266,218 202,213.3 		"/>
		<polygon fill="#FFFFFF" points="85,113.3 135,104 135,45.7 85,62.4 		"/>
		<polygon fill="#FFFFFF" points="135.2,108 85,117.3 85,163.8 135.2,161 		"/>
		<polygon fill="#FFFFFF" points="135,165.4 85.3,167.2 85.3,201.2 135,205 		"/>
		<polygon fill="#FFFFFF" points="135,207.7 85.5,203.9 85.5,228.8 135,237 		"/>
		<polygon fill="#FFFFFF" points="81,114.8 38.5,122 38.5,79.6 81,64.1 		"/>
		<polygon fill="#FFFFFF" points="81,167.6 39,170.3 39,198.7 81,201.4 		"/>
		<polygon fill="#FFFFFF" points="34,165.8 0,167.5 0,133.5 34,127.5 		"/>
		<polygon fill="#FFFFFF" points="34,220 0.2,214.9 0.2,198.9 34,201.4 		"/>
		<polygon fill="#FFFFFF" points="139.3,103 198,93.7 198,24.7 139.3,44.3 		"/>
		<polygon fill="#FFFFFF" points="202,155.8 266,152.1 266,86.3 202,97.4 		"/>
	</g>
	<g id="right_2_">
		<polygon fill="#FFFFFF" points="399.1,160.2 340,155.4 340,98 399.1,107.5 		"/>
		<polygon fill="#FFFFFF" points="335.7,208.7 272,213.3 272,157 335.7,160.7 		"/>
		<polygon fill="#FFFFFF" points="399,237.4 341,245.7 341,212.6 399,208 		"/>
		<polygon fill="#FFFFFF" points="402.8,108 453,117.3 453,163.8 402.8,161 		"/>
		<polygon fill="#FFFFFF" points="403,165.4 452.7,167.2 452.7,201.2 403,205 		"/>
		<polygon fill="#FFFFFF" points="403,207.7 452.5,203.9 452.5,228.8 403,237 		"/>
		<polygon fill="#FFFFFF" points="457,114.8 499.5,122 499.5,79.6 457,64.1 		"/>
		<polygon fill="#FFFFFF" points="457,167.6 499,170.3 499,198.7 457,201.4 		"/>
		<polygon fill="#FFFFFF" points="502.7,165.7 538,167.5 538,132.2 502.7,126 		"/>
		<polygon fill="#FFFFFF" points="398.8,103 340,93.7 340,24.7 398.8,44.3 		"/>
		<polygon fill="#FFFFFF" points="503,198.4 538.4,195.8 538.4,172.8 503,171 		"/>
		<polygon fill="#FFFFFF" points="456.6,227.7 499,221.3 499,201 456.6,203.8 		"/>
		<polygon fill="#FFFFFF" points="336.9,93 271.9,81.6 271.9,0 336.9,22.7 		"/>
	</g>
	<polyline id="line_3_" fill="none" stroke="#FFFFFF" stroke-width="2" stroke-miterlimit="10" points="1,229 270.5,276 537,225 	
		"/>
	<g>
		<path fill="#FFFFFF" d="M267.4,500.3l-7.6,18.2l-7.5-18.2h-1.9l8.5,19.9h1.8l8.5-19.9L267.4,500.3L267.4,500.3z M488.4,500.3v10.5
			c0,4.7-2.6,7.7-6.9,7.7c-3.9,0-6.2-2.4-6.2-6.8v-11.4h-1.8v11.6c0,5.5,3.1,8.4,7.9,8.4c3.3,0,5.9-1.6,7.1-4.4v4.3h1.8v-19.9
			L488.4,500.3L488.4,500.3z M39.6,502c3.9,0,6.8,3.1,7.1,7.4H32.5C32.8,505,35.7,502,39.6,502 M30.7,510.6c0,5.6,4,9.7,9.6,9.7
			c2.8,0,5.3-1.1,7-3.1l-1.1-1.2c-1.4,1.8-3.6,2.6-5.9,2.6c-4.4,0-7.7-3-7.8-7.4h16c0-0.2,0-0.4,0-0.6c0-6.1-3.8-10.2-8.9-10.2
			C34.6,500.3,30.7,504.5,30.7,510.6 M54.1,514.8c0-2.1,1.4-3.6,5.5-3.6h6.7v3.4c-1.1,2.6-3.4,4.1-6.7,4.1
			C56.1,518.6,54.1,517.1,54.1,514.8 M52.7,503.1l0.9,1.4c1.6-1.5,4-2.6,6.7-2.6c3.8,0,5.8,2,5.8,5.8v1.6h-6.7
			c-5.4,0-7.3,2.7-7.3,5.4c0,3.1,2.6,5.4,7,5.4c3.4,0,5.8-1.5,7-3.6v3.6h1.8v-12.3c0-5-2.7-7.6-7.5-7.6
			C57.5,500.3,54.7,501.4,52.7,503.1 M117.4,505.6c0,7.7,13,3.4,13,9.2c0,2.2-1.7,3.7-5.8,3.7c-2.9,0-5.6-1.1-7.1-2.4l-0.9,1.5
			c1.5,1.4,4.6,2.6,7.8,2.6c5,0,7.7-2.2,7.7-5.4c0-7.6-13-3.3-13-9.3c0-2.1,1.7-3.6,5.5-3.6c2.1,0,4.3,0.6,5.9,1.7l0.9-1.5
			c-1.5-1.2-4.2-2-6.7-2C119.8,500.3,117.4,502.7,117.4,505.6 M151.6,514.8c0-2.1,1.4-3.6,5.5-3.6h6.7v3.4c-1.1,2.6-3.4,4.1-6.7,4.1
			C153.6,518.6,151.6,517.1,151.6,514.8 M150.3,503.1l0.9,1.4c1.6-1.5,4-2.6,6.7-2.6c3.8,0,5.8,2,5.8,5.8v1.6H157
			c-5.4,0-7.3,2.7-7.3,5.4c0,3.1,2.6,5.4,7,5.4c3.4,0,5.8-1.5,7-3.6v3.6h1.8v-12.3c0-5-2.7-7.6-7.5-7.6
			C155.1,500.3,152.2,501.4,150.3,503.1 M194.3,502c3.9,0,6.8,3.1,7.1,7.4h-14.2C187.5,505,190.4,502,194.3,502 M185.4,510.6
			c0,5.6,4,9.7,9.6,9.7c2.8,0,5.3-1.1,7-3.1l-1.1-1.2c-1.4,1.8-3.6,2.6-5.9,2.6c-4.4,0-7.6-3-7.8-7.4h16c0-0.2,0-0.4,0-0.6
			c0-6.1-3.8-10.2-8.9-10.2C189.3,500.3,185.4,504.5,185.4,510.6 M231.7,504.7v-4.4h-1.8v19.9h1.9v-10.6c0-4.7,2.7-7.7,7.1-7.7
			c3.8,0,6.1,2.3,6.1,6.8v11.4h1.9v-11.6c0-5.5-3.1-8.4-7.7-8.4C235.5,500.3,232.9,501.9,231.7,504.7 M280.3,502
			c3.9,0,6.8,3.1,7.1,7.4h-14.2C273.5,505,276.4,502,280.3,502 M271.4,510.6c0,5.6,4,9.7,9.6,9.7c2.8,0,5.3-1.1,7-3.1l-1-1.2
			c-1.4,1.8-3.6,2.6-5.9,2.6c-4.4,0-7.7-3-7.8-7.4h16c0-0.2,0-0.4,0-0.6c0-6.1-3.8-10.2-8.9-10.2
			C275.3,500.3,271.4,504.5,271.4,510.6 M293.5,505.6c0,7.7,13,3.4,13,9.2c0,2.2-1.7,3.7-5.8,3.7c-2.9,0-5.6-1.1-7.1-2.4l-0.9,1.5
			c1.5,1.4,4.6,2.6,7.8,2.6c5,0,7.7-2.2,7.7-5.4c0-7.6-13-3.3-13-9.3c0-2.1,1.7-3.6,5.5-3.6c2.1,0,4.3,0.6,5.9,1.7l0.9-1.5
			c-1.5-1.2-4.2-2-6.7-2C295.9,500.3,293.5,502.7,293.5,505.6 M344.2,505c-1-3.1-3.6-4.8-7.1-4.8s-6.2,1.6-7.4,4.4v-4.3h-1.8v19.9
			h1.8v-10.6c0-4.7,2.7-7.7,7.1-7.7c3.8,0,6.1,2.3,6.1,6.8v11.4h1.9v-10.5c0-4.7,2.7-7.7,7.1-7.7c3.8,0,6.1,2.3,6.1,6.8v11.4h1.8
			v-11.6c0-5.5-3-8.4-7.7-8.4C348.3,500.3,345.5,502.2,344.2,505 M374.2,502c3.9,0,6.8,3.1,7.1,7.4h-14.2
			C367.4,505,370.3,502,374.2,502 M365.3,510.6c0,5.6,4,9.7,9.6,9.7c2.8,0,5.3-1.1,7-3.1l-1.1-1.2c-1.4,1.8-3.6,2.6-5.9,2.6
			c-4.4,0-7.6-3-7.8-7.4h16c0-0.2,0-0.4,0-0.6c0-6.1-3.8-10.2-8.9-10.2C369.2,500.3,365.3,504.5,365.3,510.6 M391.2,504.7v-4.4h-1.8
			v19.9h1.9v-10.6c0-4.7,2.7-7.7,7.1-7.7c3.8,0,6.1,2.3,6.1,6.8v11.4h1.9v-11.6c0-5.5-3.1-8.4-7.7-8.4
			C395,500.3,392.4,501.9,391.2,504.7 M496.2,505.6c0,7.7,13,3.4,13,9.2c0,2.2-1.7,3.7-5.8,3.7c-2.9,0-5.6-1.1-7-2.4l-0.9,1.5
			c1.5,1.4,4.6,2.6,7.8,2.6c5,0,7.7-2.2,7.7-5.4c0-7.6-13-3.3-13-9.3c0-2.1,1.7-3.6,5.5-3.6c2.1,0,4.3,0.6,5.9,1.7l0.9-1.5
			c-1.5-1.2-4.2-2-6.7-2C498.6,500.3,496.2,502.7,496.2,505.6 M528.6,505.6c0,7.7,13,3.4,13,9.2c0,2.2-1.7,3.7-5.8,3.7
			c-2.9,0-5.6-1.1-7.1-2.4l-0.9,1.5c1.5,1.4,4.6,2.6,7.8,2.6c5,0,7.7-2.2,7.7-5.4c0-7.6-13-3.3-13-9.3c0-2.1,1.7-3.6,5.5-3.6
			c2.1,0,4.3,0.6,5.9,1.7l0.9-1.5c-1.5-1.2-4.2-2-6.7-2C531,500.3,528.6,502.7,528.6,505.6 M460.6,504.7v-4.3h-1.8v19.9h1.9v-10.4
			c0-4.9,2.6-7.8,6.8-7.8c0.1,0,0.3,0,0.4,0v-1.8C464.4,500.2,461.8,501.8,460.6,504.7 M137.1,496.1v4.2h-3.6v1.7h3.6v12.9
			c0,3.3,1.8,5.4,5.3,5.4c1.4,0,3-0.5,4-1.5l-0.8-1.3c-0.8,0.7-1.9,1.1-3,1.1c-2.4,0-3.6-1.4-3.6-3.9V502h6.1v-1.7H139v-4.2
			L137.1,496.1L137.1,496.1z M173.4,496.1v4.2h-3.6v1.7h3.6v12.9c0,3.3,1.8,5.4,5.3,5.4c1.4,0,3-0.5,4-1.5l-0.8-1.3
			c-0.8,0.7-1.9,1.1-3,1.1c-2.4,0-3.6-1.4-3.6-3.9V502h6.1v-1.7h-6.1v-4.2L173.4,496.1L173.4,496.1z M313.2,496.1v4.2h-3.6v1.7h3.6
			v12.9c0,3.3,1.9,5.4,5.3,5.4c1.4,0,3-0.5,4-1.5l-0.8-1.3c-0.8,0.7-1.9,1.1-3,1.1c-2.4,0-3.6-1.4-3.6-3.9V502h6.1v-1.7H315v-4.2
			L313.2,496.1L313.2,496.1z M414.3,496.1v4.2h-3.6v1.7h3.6v12.9c0,3.3,1.9,5.4,5.3,5.4c1.4,0,3-0.5,4-1.5l-0.8-1.3
			c-0.8,0.7-1.9,1.1-3,1.1c-2.4,0-3.6-1.4-3.6-3.9V502h6.1v-1.7h-6.1v-4.2L414.3,496.1L414.3,496.1z M515.9,496.1v4.2h-3.6v1.7h3.6
			v12.9c0,3.3,1.8,5.4,5.3,5.4c1.4,0,3-0.5,4-1.5l-0.8-1.3c-0.8,0.7-1.8,1.1-3,1.1c-2.4,0-3.6-1.4-3.6-3.9V502h6.1v-1.7h-6.1v-4.2
			L515.9,496.1L515.9,496.1z M219,520.2h1.9v-25.9H219V520.2z M7.9,496h7.5c5.6,0,8.6,2.6,8.6,7.2s-3,7.2-8.6,7.2H7.9V496z M6,494.3
			v25.9h1.9v-8.1h7.5c0.9,0,1.7-0.1,2.5-0.2l6.3,8.3h2.1l-6.5-8.7c3.9-1.2,6.1-4.1,6.1-8.3c0-5.6-3.9-8.9-10.5-8.9L6,494.3L6,494.3z
			 M94.9,494.3v26h17.9v-1.7h-16v-10.4h13.8v-1.7H96.8V496h15.4v-1.7H94.9z M434.2,494.3v1.7h9.3v24.2h1.9V496h9.3v-1.7H434.2z
			 M75.8,520.2h1.9v-27.9h-1.9V520.2z"/>
	</g>
	<g>
		<path fill="#FFFFFF" d="M205.9,368.2c-1.5,0-2.2,0.3-2.2,0.9c0,0.4,0.5,0.9,1.1,0.9c0.9,0,2.6,0.1,4.2,0.5c2.9,0.6,4,2.6,4.3,7
			c0.3,4.1,0.3,7.8,0.3,28v22.9c0,12.5-0.2,22.8-0.8,28.1c-0.5,3.8-0.9,6.3-3.5,6.9c-1.2,0.3-2.9,0.6-4.2,0.6
			c-0.8,0-1.1,0.5-1.1,0.9c0,0.7,0.8,0.9,2.2,0.9h29.9c1.5,0,2.2-0.4,2.2-0.9c0-0.4-0.3-0.9-1.1-0.9c-1.2,0-4.2-0.3-6.2-0.6
			c-4-0.6-4.5-3.1-4.9-6.9c-0.6-5.3-0.6-15.6-0.6-28.1v-22.9c0-20.2,0-23.8,0.2-28c0.3-4.6,1.1-6.4,4.8-7.2c1.5-0.3,2.5-0.3,3.4-0.3
			c0.5,0,1.1-0.5,1.1-0.9c0-0.7-0.6-0.9-2.2-0.9H205.9z M474.8,368.2c-1.5,0-2.2,0.3-2.2,0.9c0,0.4,0.6,0.9,1.1,0.9
			c1.2,0,3.5,0.2,4.6,0.3c4.5,0.6,5.2,2.8,5.5,7.2c0.3,4.1,0.3,7.8,0.3,28v22.9c0,12.5,0,22.7-0.8,28.1c-0.6,3.8-0.9,6.3-3.5,6.9
			c-1.2,0.3-2.9,0.6-4.2,0.6c-0.8,0-1.1,0.5-1.1,0.9c0,0.7,0.8,0.9,2.2,0.9h30.1c1.5,0,2.1-0.4,2.1-0.9c0-0.4-0.3-0.9-1.1-0.9
			c-1.2,0-4.1-0.3-5.9-0.6c-4.1-0.6-4.9-3.1-5.3-6.9c-0.6-5.3-0.6-15.6-0.6-28.1v-53c0-1.4,0.3-2.3,1.1-2.5c1.4-0.3,5.2-0.9,7.5-0.9
			c3,0,11.1-0.7,18.1,6.3c7.1,7,7.6,15.5,7.6,19.8c0,11.8-10.3,21-24.8,21c-2.7,0-3.5,0.3-3.5,1.4c0,0.6,0.8,1.2,1.4,1.2
			c0.8,0.2,3,0.2,3.8,0.2c20.5,0,34.8-12.4,34.8-31.1c0-7-3.7-12.8-6.9-15.6c-2.3-2-8.5-7.1-25.7-7.1L474.8,368.2z M173,366.7
			c-1.1,0.6-3.3,1.1-5.9,1.2c-3.1,0.2-31.4,0-32.3,0c-0.7,0-9.3-0.3-15.5-0.3c-1.5,0-2.2,0.3-2.2,1.1c0,0.5,0.6,1.2,1.1,1.2
			c1.2,0.1,3.5,0.2,4.6,0.4c4.5,0.6,5.2,2.7,5.5,7.1c0.3,4.1,0.3,7.7,0.3,27.8v23.4c0,12.7,0,23-0.8,28.4c-0.6,3.9-0.9,6.5-3.5,6.9
			c-1.2-0.5-2.9,0-4.2,0c-0.8,0-1.1,0.5-1.1,0.9c0,1.5,0.8,1.8,2.2,1.8c2.2,0,5.2-0.2,7.8-0.3c2.8-0.5,5.3-0.5,5.6-0.5
			c1.9,0,5.3,0,11.1,0.3c5.6,0.5,13.5,0.8,23.7,0.8c5,0,6.3,0,7.3-3.5c0.8-2.8,1.9-11.7,1.9-12.7c0-0.9-0.2-1.9-0.9-1.9
			c-0.8,0-1.1,0.3-1.4,1.9c-0.8,5.2-2.6,7.5-6,9.1c-3.5,1.4-10,1.4-13.5,1.4c-13.5,0-16-1.7-16.3-10.4c-0.1-2.6,0-17.8,0-22.3v-10.9
			c0-0.5,0.2-0.9,0.9-0.9c2.3,0,16.9,0.2,20.6,0.6c5.3,0.6,6.5,2.2,7,4c0.6,1.7,0.6,3.1,0.6,4.3c0,0.8,0.3,1.2,0.8,1.2
			c0.8,0,1.1-1.4,1.1-2.5c0-0.9,0.3-5.8,0.6-8.5c0.3-4.7,1.1-6.8,1.1-7.6c0-0.8-0.3-1.1-0.8-1.1s-1.1,0.8-1.9,1.7
			c-1.2,1.4-3.3,1.5-6.5,1.8c-3.1,0.3-21.1,0.3-22.8,0.3c-0.8,0-0.8-0.5-0.8-1.4V375c0-0.9,0.2-1.4,0.8-1.4c1.5,0,17.4,0.2,19.7,0.5
			c7.4,0.9,8.8,1.8,9.6,3.9c0.5,1.5,0.7,3.6,0.7,4.5c0,1.1,0.3,1.7,1,1.7c0.6,0,1.1-0.8,1.2-1.4c0.3-2.2,0.6-8.1,0.8-9.3
			c0.3-3.7,1.1-5.3,1.1-6.2c0-0.6-0.2-1.2-0.6-1.2C174.3,366.1,173.7,366.6,173,366.7 M255.7,368.5c-0.3,0.7-2.9,12.4-2.9,13.8
			c0,0.8,0.6,1.1,0.9,1.1c0.6,0,1.1-0.2,1.4-1.2c0.5-0.9,0.6-1.8,2.2-4.1c2-3.1,5.2-4,13.7-4.1l19.6-0.3v54.7
			c0,12.6,0,22.8-0.6,28.2c-0.5,3.8-1.2,6.4-4,7c-1.2,0.3-2.8,0.6-4,0.6c-0.8,0-1.1,0.4-1.1,0.9c0,0.7,0.6,1,2.2,1h30.6
			c1.6,0,2.2-0.4,2.2-1c0-0.4-0.2-1-1.1-1c-1.3,0-4.4-0.3-6.3-0.6c-4.3-0.6-4.9-3.1-5.4-6.9c-0.6-5.4-0.6-15.6-0.6-28.2v-54.7
			l17.3,0.3c13.2,0.3,16.2,3.2,16.7,7.2l0.2,1.4c0.2,1.8,0.5,2.3,1.1,2.3s1.2-0.6,1.2-1.7c0-1.2,0.5-10.5,0.5-14.5
			c0-0.8,0-1.5-0.6-1.5s-1.8,0.3-3.9,0.6c-2.2-0.1-5.4,0.2-9.9,0.2h-51.2c-1.5,0-6.8-0.2-10.6-0.6c-3.7-0.1-5.1-1.2-6-1.2
			C256.7,366.1,255.9,367.8,255.7,368.5 M361.8,413.3c0-28.3,16.5-42.3,39.3-42.3c21.6,0,40.8,16.3,40.8,47.5c0,37.6-24.7,44-37,44
			C380.3,462.4,361.8,443.5,361.8,413.3 M347.9,416.8c0,23.4,15.7,51.4,53.2,51.4c32.9,0,54.7-24.3,54.7-53.3
			c0-30.2-23.2-48.7-53.9-48.7C364.1,366.1,347.9,395.8,347.9,416.8 M29.6,409.7c-0.8-0.5-1.1-1.1-1.1-1.8v-50.2
			c0-0.9,0.5-1.5,1.2-1.8c1.5-0.5,5.7-0.9,10.3-0.9c16.4,0,26.6,11.5,26.6,30.7c0,11.7-4,19.9-9.4,23.6c-3.5,2.5-7.8,2.9-11.5,2.9
			C39,412.2,31.9,411.1,29.6,409.7 M5.7,350.2c-1.7,0-2.5,0.3-2.5,1.1c0,0.5,0.6,0.8,1.2,0.8c1.4,0,4,0.2,5.2,0.5
			c5.1,1.1,6.3,3.5,6.6,8.8c0.3,4.9,0.3,9.2,0.3,33.2v27.1c0,14.8,0,26.9-0.8,33.4c-0.6,4.5-1.4,7.8-4.5,8.5
			c-1.4,0.3-3.2,0.6-4.6,0.6c-0.9,0-1.2,0.4-1.2,0.8c0,0.8,0.8,1.1,2.5,1.1h33c1.7,0,2.5-0.4,2.5-1.1c0-0.4-0.3-0.8-1.2-0.8
			c-1.4,0-4.8-0.3-6.9-0.6c-4.6-0.6-5.5-4-6-8.5c-0.8-6.5-0.8-18.6-0.8-33.4V418c0-0.8,0.3-1.2,1.1-1.2l18.9,0.3
			c0.9,0,1.4,0.3,2,0.9c3.1,4,10.3,14.3,16.7,22.8c8.1,11.5,13.2,19.1,19.8,22.6c4,2,7.9,2.6,16.5,2.6h10.9c2.8,0,3.7-0.3,3.7-1.1
			c0-0.4-0.6-0.8-1.4-0.8c-0.9,0-3.1,0-6-0.5c-3.9-0.6-10.5-2.3-18.8-11.1c-8.9-9.5-18.9-23.2-31-39.4
			c13.2-12.8,17.6-24.1,17.6-35.5c0-10.6-6.2-18.1-9.8-20.9c-8-5.7-18.3-6.5-27.9-6.5L5.7,350.2z"/>
	</g>
</g>
<g id="Logo_black" display="none">
	<g id="text_1_" display="inline">
		<g>
			<g>
				<defs>
					<text id="SVGID_34_" transform="matrix(1 0 0 1 48.3525 520.2764)" font-family="'ArialMT'" font-size="37">Real Estate Investment Trusts</text>
				</defs>
				<clipPath id="SVGID_35_">
					<use xlink:href="#SVGID_34_"  overflow="visible"/>
				</clipPath>
				
					<linearGradient id="SVGID_36_" gradientUnits="userSpaceOnUse" x1="0" y1="87.05" x2="564" y2="87.05" gradientTransform="matrix(1 0 0 -1 0 522.5499)">
					<stop  offset="0" style="stop-color:#FFD594"/>
					<stop  offset="1" style="stop-color:#BF8044"/>
				</linearGradient>
				<rect y="327" clip-path="url(#SVGID_35_)" fill="url(#SVGID_36_)" width="564" height="217"/>
			</g>
		</g>
		<g id="REITOP_1_">
			<g>
				<defs>
					<text id="SVGID_37_" transform="matrix(1 0 0 1 -15.2407 466.0458)" font-family="'TrajanPro-Regular'" font-size="154">Reitop</text>
				</defs>
				<clipPath id="SVGID_38_">
					<use xlink:href="#SVGID_37_"  overflow="visible"/>
				</clipPath>
				
					<linearGradient id="SVGID_39_" gradientUnits="userSpaceOnUse" x1="0" y1="90.05" x2="564" y2="90.05" gradientTransform="matrix(1 0 0 -1 0 522.5499)">
					<stop  offset="0" style="stop-color:#FFD594"/>
					<stop  offset="1" style="stop-color:#BF8044"/>
				</linearGradient>
				<rect y="324" clip-path="url(#SVGID_38_)" fill="url(#SVGID_39_)" width="564" height="217"/>
			</g>
		</g>
	</g>
	<g id="logo_copy" display="inline">
		<g id="left_1_">
			
				<linearGradient id="SVGID_40_" gradientUnits="userSpaceOnUse" x1="69.6652" y1="564.5503" x2="246.5997" y2="258.0907" gradientTransform="matrix(1 0 0 -1 0 522.5499)">
				<stop  offset="0" style="stop-color:#FFD594"/>
				<stop  offset="1" style="stop-color:#BF8044"/>
			</linearGradient>
			<polygon fill="url(#SVGID_40_)" points="138.9,160.2 198,155.4 198,98 138.9,107.5 			"/>
			
				<linearGradient id="SVGID_41_" gradientUnits="userSpaceOnUse" x1="99.2698" y1="573.3192" x2="275.666" y2="267.7923" gradientTransform="matrix(1 0 0 -1 0 522.5499)">
				<stop  offset="0" style="stop-color:#FFD594"/>
				<stop  offset="1" style="stop-color:#BF8044"/>
			</linearGradient>
			<polygon fill="url(#SVGID_41_)" points="202.3,208.7 266,213.3 266,157 202.3,160.7 			"/>
			
				<linearGradient id="SVGID_42_" gradientUnits="userSpaceOnUse" x1="48.4951" y1="504.5384" x2="217.1022" y2="212.5024" gradientTransform="matrix(1 0 0 -1 0 522.5499)">
				<stop  offset="0" style="stop-color:#FFD594"/>
				<stop  offset="1" style="stop-color:#BF8044"/>
			</linearGradient>
			<polygon fill="url(#SVGID_42_)" points="139,237.4 197,245.7 197,212.6 139,208 			"/>
			
				<linearGradient id="SVGID_43_" gradientUnits="userSpaceOnUse" x1="90.2171" y1="539.2391" x2="260.8015" y2="243.7784" gradientTransform="matrix(1 0 0 -1 0 522.5499)">
				<stop  offset="0" style="stop-color:#FFD594"/>
				<stop  offset="1" style="stop-color:#BF8044"/>
			</linearGradient>
			<polygon fill="url(#SVGID_43_)" points="202,246.7 266,256 266,218 202,213.3 			"/>
			
				<linearGradient id="SVGID_44_" gradientUnits="userSpaceOnUse" x1="44.8742" y1="555.8511" x2="221.9607" y2="249.1284" gradientTransform="matrix(1 0 0 -1 0 522.5499)">
				<stop  offset="0" style="stop-color:#FFD594"/>
				<stop  offset="1" style="stop-color:#BF8044"/>
			</linearGradient>
			<polygon fill="url(#SVGID_44_)" points="85,113.3 135,104 135,45.7 85,62.4 			"/>
			
				<linearGradient id="SVGID_45_" gradientUnits="userSpaceOnUse" x1="28.0463" y1="528.7711" x2="207.2069" y2="218.4559" gradientTransform="matrix(1 0 0 -1 0 522.5499)">
				<stop  offset="0" style="stop-color:#FFD594"/>
				<stop  offset="1" style="stop-color:#BF8044"/>
			</linearGradient>
			<polygon fill="url(#SVGID_45_)" points="135.2,108 85,117.3 85,163.8 135.2,161 			"/>
			
				<linearGradient id="SVGID_46_" gradientUnits="userSpaceOnUse" x1="16.7851" y1="500.9628" x2="191.9851" y2="197.5075" gradientTransform="matrix(1 0 0 -1 0 522.5499)">
				<stop  offset="0" style="stop-color:#FFD594"/>
				<stop  offset="1" style="stop-color:#BF8044"/>
			</linearGradient>
			<polygon fill="url(#SVGID_46_)" points="135,165.4 85.3,167.2 85.3,201.2 135,205 			"/>
			
				<linearGradient id="SVGID_47_" gradientUnits="userSpaceOnUse" x1="9.9137" y1="478.0875" x2="180.2955" y2="182.9776" gradientTransform="matrix(1 0 0 -1 0 522.5499)">
				<stop  offset="0" style="stop-color:#FFD594"/>
				<stop  offset="1" style="stop-color:#BF8044"/>
			</linearGradient>
			<polygon fill="url(#SVGID_47_)" points="135,207.7 85.5,203.9 85.5,228.8 135,237 			"/>
			
				<linearGradient id="SVGID_48_" gradientUnits="userSpaceOnUse" x1="8.3487" y1="518.5297" x2="183.2718" y2="215.5538" gradientTransform="matrix(1 0 0 -1 0 522.5499)">
				<stop  offset="0" style="stop-color:#FFD594"/>
				<stop  offset="1" style="stop-color:#BF8044"/>
			</linearGradient>
			<polygon fill="url(#SVGID_48_)" points="81,114.8 38.5,122 38.5,79.6 81,64.1 			"/>
			
				<linearGradient id="SVGID_49_" gradientUnits="userSpaceOnUse" x1="-15.1236" y1="469.5179" x2="155.8534" y2="173.377" gradientTransform="matrix(1 0 0 -1 0 522.5499)">
				<stop  offset="0" style="stop-color:#FFD594"/>
				<stop  offset="1" style="stop-color:#BF8044"/>
			</linearGradient>
			<polygon fill="url(#SVGID_49_)" points="81,167.6 39,170.3 39,198.7 81,201.4 			"/>
			
				<linearGradient id="SVGID_50_" gradientUnits="userSpaceOnUse" x1="-33.4265" y1="462.3913" x2="132.9252" y2="174.2616" gradientTransform="matrix(1 0 0 -1 0 522.5499)">
				<stop  offset="0" style="stop-color:#FFD594"/>
				<stop  offset="1" style="stop-color:#BF8044"/>
			</linearGradient>
			<polygon fill="url(#SVGID_50_)" points="34,165.8 0,167.5 0,133.5 34,127.5 			"/>
			
				<linearGradient id="SVGID_51_" gradientUnits="userSpaceOnUse" x1="-44.3093" y1="420.764" x2="109.3652" y2="154.592" gradientTransform="matrix(1 0 0 -1 0 522.5499)">
				<stop  offset="0" style="stop-color:#FFD594"/>
				<stop  offset="1" style="stop-color:#BF8044"/>
			</linearGradient>
			<polygon fill="url(#SVGID_51_)" points="34,220 0.2,214.9 0.2,198.9 34,201.4 			"/>
			
				<linearGradient id="SVGID_52_" gradientUnits="userSpaceOnUse" x1="87.9775" y1="598.4288" x2="266.6267" y2="288.9993" gradientTransform="matrix(1 0 0 -1 0 522.5499)">
				<stop  offset="0" style="stop-color:#FFD594"/>
				<stop  offset="1" style="stop-color:#BF8044"/>
			</linearGradient>
			<polygon fill="url(#SVGID_52_)" points="139.3,103 198,93.7 198,24.7 139.3,44.3 			"/>
			
				<linearGradient id="SVGID_53_" gradientUnits="userSpaceOnUse" x1="115.0847" y1="607.4673" x2="293.2849" y2="298.8155" gradientTransform="matrix(1 0 0 -1 0 522.5499)">
				<stop  offset="0" style="stop-color:#FFD594"/>
				<stop  offset="1" style="stop-color:#BF8044"/>
			</linearGradient>
			<polygon fill="url(#SVGID_53_)" points="202,155.8 266,152.1 266,86.3 202,97.4 			"/>
		</g>
		<g id="right_1_">
			
				<linearGradient id="SVGID_54_" gradientUnits="userSpaceOnUse" x1="297.7276" y1="489.0647" x2="471.7276" y2="251.7314" gradientTransform="matrix(1 0 0 -1 0 522.5499)">
				<stop  offset="0" style="stop-color:#FFD594"/>
				<stop  offset="7.679945e-002" style="stop-color:#F6CA89"/>
				<stop  offset="0.3289" style="stop-color:#DEAA6B"/>
				<stop  offset="0.5723" style="stop-color:#CD9356"/>
				<stop  offset="0.801" style="stop-color:#C38548"/>
				<stop  offset="1" style="stop-color:#BF8044"/>
			</linearGradient>
			<polygon fill="url(#SVGID_54_)" points="399.1,160.2 340,155.4 340,98 399.1,107.5 			"/>
			
				<linearGradient id="SVGID_55_" gradientUnits="userSpaceOnUse" x1="228.5074" y1="438.3161" x2="402.5074" y2="200.9828" gradientTransform="matrix(1 0 0 -1 0 522.5499)">
				<stop  offset="0" style="stop-color:#FFD594"/>
				<stop  offset="7.679945e-002" style="stop-color:#F6CA89"/>
				<stop  offset="0.3289" style="stop-color:#DEAA6B"/>
				<stop  offset="0.5723" style="stop-color:#CD9356"/>
				<stop  offset="0.801" style="stop-color:#C38548"/>
				<stop  offset="1" style="stop-color:#BF8044"/>
			</linearGradient>
			<polygon fill="url(#SVGID_55_)" points="335.7,208.7 272,213.3 272,157 335.7,160.7 			"/>
			
				<linearGradient id="SVGID_56_" gradientUnits="userSpaceOnUse" x1="252.5296" y1="455.9279" x2="426.5295" y2="218.5946" gradientTransform="matrix(1 0 0 -1 0 522.5499)">
				<stop  offset="0" style="stop-color:#FFD594"/>
				<stop  offset="7.679945e-002" style="stop-color:#F6CA89"/>
				<stop  offset="0.3289" style="stop-color:#DEAA6B"/>
				<stop  offset="0.5723" style="stop-color:#CD9356"/>
				<stop  offset="0.801" style="stop-color:#C38548"/>
				<stop  offset="1" style="stop-color:#BF8044"/>
			</linearGradient>
			<polygon fill="url(#SVGID_56_)" points="399,237.4 341,245.7 341,212.6 399,208 			"/>
			
				<linearGradient id="SVGID_57_" gradientUnits="userSpaceOnUse" x1="332.007" y1="514.1965" x2="506.007" y2="276.8632" gradientTransform="matrix(1 0 0 -1 0 522.5499)">
				<stop  offset="0" style="stop-color:#FFD594"/>
				<stop  offset="7.679945e-002" style="stop-color:#F6CA89"/>
				<stop  offset="0.3289" style="stop-color:#DEAA6B"/>
				<stop  offset="0.5723" style="stop-color:#CD9356"/>
				<stop  offset="0.801" style="stop-color:#C38548"/>
				<stop  offset="1" style="stop-color:#BF8044"/>
			</linearGradient>
			<polygon fill="url(#SVGID_57_)" points="402.8,108 453,117.3 453,163.8 402.8,161 			"/>
			
				<linearGradient id="SVGID_58_" gradientUnits="userSpaceOnUse" x1="309.5868" y1="497.7592" x2="483.5868" y2="260.4258" gradientTransform="matrix(1 0 0 -1 0 522.5499)">
				<stop  offset="0" style="stop-color:#FFD594"/>
				<stop  offset="7.679945e-002" style="stop-color:#F6CA89"/>
				<stop  offset="0.3289" style="stop-color:#DEAA6B"/>
				<stop  offset="0.5723" style="stop-color:#CD9356"/>
				<stop  offset="0.801" style="stop-color:#C38548"/>
				<stop  offset="1" style="stop-color:#BF8044"/>
			</linearGradient>
			<polygon fill="url(#SVGID_58_)" points="403,165.4 452.7,167.2 452.7,201.2 403,205 			"/>
			
				<linearGradient id="SVGID_59_" gradientUnits="userSpaceOnUse" x1="293.1422" y1="485.703" x2="467.1422" y2="248.3696" gradientTransform="matrix(1 0 0 -1 0 522.5499)">
				<stop  offset="0" style="stop-color:#FFD594"/>
				<stop  offset="7.679945e-002" style="stop-color:#F6CA89"/>
				<stop  offset="0.3289" style="stop-color:#DEAA6B"/>
				<stop  offset="0.5723" style="stop-color:#CD9356"/>
				<stop  offset="0.801" style="stop-color:#C38548"/>
				<stop  offset="1" style="stop-color:#BF8044"/>
			</linearGradient>
			<polygon fill="url(#SVGID_59_)" points="403,207.7 452.5,203.9 452.5,228.8 403,237 			"/>
			
				<linearGradient id="SVGID_60_" gradientUnits="userSpaceOnUse" x1="384.7584" y1="552.871" x2="558.7585" y2="315.5377" gradientTransform="matrix(1 0 0 -1 0 522.5499)">
				<stop  offset="0" style="stop-color:#FFD594"/>
				<stop  offset="7.679945e-002" style="stop-color:#F6CA89"/>
				<stop  offset="0.3289" style="stop-color:#DEAA6B"/>
				<stop  offset="0.5723" style="stop-color:#CD9356"/>
				<stop  offset="0.801" style="stop-color:#C38548"/>
				<stop  offset="1" style="stop-color:#BF8044"/>
			</linearGradient>
			<polygon fill="url(#SVGID_60_)" points="457,114.8 499.5,122 499.5,79.6 457,64.1 			"/>
			
				<linearGradient id="SVGID_61_" gradientUnits="userSpaceOnUse" x1="342.3238" y1="521.7602" x2="516.3238" y2="284.4269" gradientTransform="matrix(1 0 0 -1 0 522.5499)">
				<stop  offset="0" style="stop-color:#FFD594"/>
				<stop  offset="7.679945e-002" style="stop-color:#F6CA89"/>
				<stop  offset="0.3289" style="stop-color:#DEAA6B"/>
				<stop  offset="0.5723" style="stop-color:#CD9356"/>
				<stop  offset="0.801" style="stop-color:#C38548"/>
				<stop  offset="1" style="stop-color:#BF8044"/>
			</linearGradient>
			<polygon fill="url(#SVGID_61_)" points="457,167.6 499,170.3 499,198.7 457,201.4 			"/>
			
				<linearGradient id="SVGID_62_" gradientUnits="userSpaceOnUse" x1="381.8185" y1="562.5547" x2="562.4606" y2="316.1617" gradientTransform="matrix(1 0 0 -1 0 522.5499)">
				<stop  offset="0" style="stop-color:#FFD594"/>
				<stop  offset="7.679945e-002" style="stop-color:#F6CA89"/>
				<stop  offset="0.3289" style="stop-color:#DEAA6B"/>
				<stop  offset="0.5723" style="stop-color:#CD9356"/>
				<stop  offset="0.801" style="stop-color:#C38548"/>
				<stop  offset="1" style="stop-color:#BF8044"/>
			</linearGradient>
			<polygon fill="url(#SVGID_62_)" points="502.7,165.7 538,167.5 538,132.2 502.7,126 			"/>
			
				<linearGradient id="SVGID_63_" gradientUnits="userSpaceOnUse" x1="327.4088" y1="510.8253" x2="501.4088" y2="273.4921" gradientTransform="matrix(1 0 0 -1 0 522.5499)">
				<stop  offset="0" style="stop-color:#FFD594"/>
				<stop  offset="7.679945e-002" style="stop-color:#F6CA89"/>
				<stop  offset="0.3289" style="stop-color:#DEAA6B"/>
				<stop  offset="0.5723" style="stop-color:#CD9356"/>
				<stop  offset="0.801" style="stop-color:#C38548"/>
				<stop  offset="1" style="stop-color:#BF8044"/>
			</linearGradient>
			<polygon fill="url(#SVGID_63_)" points="398.8,103 340,93.7 340,24.7 398.8,44.3 			"/>
			
				<linearGradient id="SVGID_64_" gradientUnits="userSpaceOnUse" x1="375.3994" y1="588.6179" x2="542.7098" y2="298.8279" gradientTransform="matrix(1 0 0 -1 0 522.5499)">
				<stop  offset="0" style="stop-color:#FFD594"/>
				<stop  offset="3.373080e-002" style="stop-color:#FCD190"/>
				<stop  offset="0.4666" style="stop-color:#DBA567"/>
				<stop  offset="0.8031" style="stop-color:#C78A4E"/>
				<stop  offset="1" style="stop-color:#BF8044"/>
			</linearGradient>
			<polygon fill="url(#SVGID_64_)" points="503,198.4 538.4,195.8 538.4,172.8 503,171 			"/>
			
				<linearGradient id="SVGID_65_" gradientUnits="userSpaceOnUse" x1="343.965" y1="540.009" x2="503.9574" y2="262.894" gradientTransform="matrix(1 0 0 -1 0 522.5499)">
				<stop  offset="0" style="stop-color:#FFD594"/>
				<stop  offset="3.373080e-002" style="stop-color:#FCD190"/>
				<stop  offset="0.4666" style="stop-color:#DBA567"/>
				<stop  offset="0.8031" style="stop-color:#C78A4E"/>
				<stop  offset="1" style="stop-color:#BF8044"/>
			</linearGradient>
			<polygon fill="url(#SVGID_65_)" points="456.6,227.7 499,221.3 499,201 456.6,203.8 			"/>
			
				<linearGradient id="SVGID_66_" gradientUnits="userSpaceOnUse" x1="250.9706" y1="562.9424" x2="452.5493" y2="213.7977" gradientTransform="matrix(1 0 0 -1 0 522.5499)">
				<stop  offset="0" style="stop-color:#FFD594"/>
				<stop  offset="3.373080e-002" style="stop-color:#FCD190"/>
				<stop  offset="0.4666" style="stop-color:#DBA567"/>
				<stop  offset="0.8031" style="stop-color:#C78A4E"/>
				<stop  offset="1" style="stop-color:#BF8044"/>
			</linearGradient>
			<polygon fill="url(#SVGID_66_)" points="336.9,93 271.9,81.6 271.9,0 336.9,22.7 			"/>
		</g>
		
			<linearGradient id="line_5_" gradientUnits="userSpaceOnUse" x1="0.8282" y1="272.0328" x2="537.188" y2="272.0328" gradientTransform="matrix(1 0 0 -1 0 522.5499)">
			<stop  offset="0" style="stop-color:#FFD594"/>
			<stop  offset="1" style="stop-color:#BF8044"/>
		</linearGradient>
		<polyline id="line_1_" fill="none" stroke="url(#line_5_)" stroke-width="2" stroke-miterlimit="10" points="1,229 270.5,276 
			537,225 		"/>
	</g>
</g>
</svg>
