<?xml version="1.0" encoding="utf-8"?>
<!-- Generator: Adobe Illustrator 18.0.0, SVG Export Plug-In . SVG Version: 6.00 Build 0)  -->
<!DOCTYPE svg PUBLIC "-//W3C//DTD SVG 1.1//EN" "http://www.w3.org/Graphics/SVG/1.1/DTD/svg11.dtd">
<svg version="1.1" xmlns="http://www.w3.org/2000/svg" xmlns:xlink="http://www.w3.org/1999/xlink" x="0px" y="0px" width="543.4px"
	 height="520.3px" viewBox="0 0 543.4 520.3" style="enable-background:new 0 0 543.4 520.3;" xml:space="preserve">
<style type="text/css">
	.st0{display:none;}
	.st1{fill:#071E35;}
	.st2{fill:#090F14;}
	.st3{display:inline;}
	.st4{font-family:'Montserrat-Light';}
	.st5{font-size:37;}
	.st6{clip-path:url(#SVGID_2_);fill:url(#SVGID_3_);}
	.st7{font-family:'TrajanPro-Regular';}
	.st8{font-size:154;}
	.st9{clip-path:url(#Reitop_8_3_);fill:url(#SVGID_4_);}
	.st10{fill:url(#SVGID_5_);}
	.st11{fill:url(#SVGID_6_);}
	.st12{fill:url(#SVGID_7_);}
	.st13{fill:url(#SVGID_8_);}
	.st14{fill:url(#SVGID_9_);}
	.st15{fill:url(#SVGID_10_);}
	.st16{fill:url(#SVGID_11_);}
	.st17{fill:url(#SVGID_12_);}
	.st18{fill:url(#SVGID_13_);}
	.st19{fill:url(#SVGID_14_);}
	.st20{fill:url(#SVGID_15_);}
	.st21{fill:url(#SVGID_16_);}
	.st22{fill:url(#SVGID_17_);}
	.st23{fill:url(#SVGID_18_);}
	.st24{fill:url(#SVGID_19_);}
	.st25{fill:url(#SVGID_20_);}
	.st26{fill:url(#SVGID_21_);}
	.st27{fill:url(#SVGID_22_);}
	.st28{fill:url(#SVGID_23_);}
	.st29{fill:url(#SVGID_24_);}
	.st30{fill:url(#SVGID_25_);}
	.st31{fill:url(#SVGID_26_);}
	.st32{fill:url(#SVGID_27_);}
	.st33{fill:url(#SVGID_28_);}
	.st34{fill:url(#SVGID_29_);}
	.st35{fill:url(#SVGID_30_);}
	.st36{fill:url(#SVGID_31_);}
	.st37{fill:none;stroke:url(#line_4_);stroke-width:2;stroke-miterlimit:10;}
	.st38{fill:url(#SVGID_32_);}
	.st39{fill:url(#SVGID_33_);}
	.st40{fill:url(#SVGID_34_);}
	.st41{fill:url(#SVGID_35_);}
	.st42{fill:url(#SVGID_36_);}
	.st43{fill:url(#SVGID_37_);}
	.st44{fill:url(#SVGID_38_);}
	.st45{fill:url(#SVGID_39_);}
	.st46{fill:url(#SVGID_40_);}
	.st47{fill:url(#SVGID_41_);}
	.st48{fill:url(#SVGID_42_);}
	.st49{fill:url(#SVGID_43_);}
	.st50{fill:url(#SVGID_44_);}
	.st51{fill:url(#SVGID_45_);}
	.st52{fill:url(#SVGID_46_);}
	.st53{fill:url(#SVGID_47_);}
	.st54{fill:url(#SVGID_48_);}
	.st55{fill:url(#SVGID_49_);}
	.st56{fill:url(#SVGID_50_);}
	.st57{fill:url(#SVGID_51_);}
	.st58{fill:url(#SVGID_52_);}
	.st59{fill:url(#SVGID_53_);}
	.st60{fill:url(#SVGID_54_);}
	.st61{fill:url(#SVGID_55_);}
	.st62{fill:url(#SVGID_56_);}
	.st63{fill:url(#SVGID_57_);}
	.st64{fill:url(#SVGID_58_);}
	.st65{fill:none;stroke:url(#line_5_);stroke-width:2;stroke-miterlimit:10;}
	.st66{fill:#0E1E70;}
	.st67{clip-path:url(#SVGID_60_);fill:url(#SVGID_61_);}
	.st68{clip-path:url(#Reitop_8_4_);fill:url(#SVGID_62_);}
	.st69{fill:url(#SVGID_63_);}
	.st70{fill:url(#SVGID_64_);}
	.st71{fill:url(#SVGID_65_);}
	.st72{fill:url(#SVGID_66_);}
	.st73{fill:url(#SVGID_67_);}
	.st74{fill:url(#SVGID_68_);}
	.st75{fill:url(#SVGID_69_);}
	.st76{fill:url(#SVGID_70_);}
	.st77{fill:url(#SVGID_71_);}
	.st78{fill:url(#SVGID_72_);}
	.st79{fill:url(#SVGID_73_);}
	.st80{fill:url(#SVGID_74_);}
	.st81{fill:url(#SVGID_75_);}
	.st82{fill:url(#SVGID_76_);}
	.st83{fill:url(#SVGID_77_);}
	.st84{fill:url(#SVGID_78_);}
	.st85{fill:url(#SVGID_79_);}
	.st86{fill:url(#SVGID_80_);}
	.st87{fill:url(#SVGID_81_);}
	.st88{fill:url(#SVGID_82_);}
	.st89{fill:url(#SVGID_83_);}
	.st90{fill:url(#SVGID_84_);}
	.st91{fill:url(#SVGID_85_);}
	.st92{fill:url(#SVGID_86_);}
	.st93{fill:url(#SVGID_87_);}
	.st94{fill:url(#SVGID_88_);}
	.st95{fill:url(#SVGID_89_);}
	.st96{fill:none;stroke:url(#line_6_);stroke-width:2;stroke-miterlimit:10;}
</style>
<g id="Logotype" class="st0">
	<rect id="bg_1_" x="-370" y="-234" class="st1" width="1280" height="1024"/>
	<rect id="bg" x="-370" y="-234" class="st2" width="1280" height="1024"/>
	<g id="text" class="st3">
		<g>
			<defs>
				<text id="SVGID_1_" transform="matrix(1 0 0 1 48.3525 520.2764)" class="st4 st5">Real Estate Investment Trusts</text>
			</defs>
			<clipPath id="SVGID_2_">
				<use xlink:href="#SVGID_1_"  style="overflow:visible;"/>
			</clipPath>
			<linearGradient id="SVGID_3_" gradientUnits="userSpaceOnUse" x1="8.747247e-007" y1="435.5" x2="564" y2="435.5">
				<stop  offset="0" style="stop-color:#FFD594"/>
				<stop  offset="1" style="stop-color:#BF8044"/>
			</linearGradient>
			<rect x="0" y="327" class="st6" width="564" height="217"/>
		</g>
		<g id="REITOP">
			<defs>
				<text id="Reitop_8_1_" transform="matrix(1 0 0 1 -15.2407 466.0459)" class="st7 st8">Reitop</text>
			</defs>
			<clipPath id="Reitop_8_3_">
				<use xlink:href="#Reitop_8_1_"  style="overflow:visible;"/>
			</clipPath>
			<linearGradient id="SVGID_4_" gradientUnits="userSpaceOnUse" x1="8.747247e-007" y1="432.5" x2="564" y2="432.5">
				<stop  offset="0" style="stop-color:#FFD594"/>
				<stop  offset="1" style="stop-color:#BF8044"/>
			</linearGradient>
			<rect x="0" y="324" class="st9" width="564" height="217"/>
		</g>
	</g>
	<g id="logo" class="st3">
		<g id="left_2_">
			<linearGradient id="SVGID_5_" gradientUnits="userSpaceOnUse" x1="69.6738" y1="-42.0053" x2="246.6084" y2="264.4543">
				<stop  offset="0" style="stop-color:#FFD594"/>
				<stop  offset="1" style="stop-color:#BF8044"/>
			</linearGradient>
			<polygon class="st10" points="138.9,160.2 198,155.4 198,98 138.9,107.5 			"/>
			<linearGradient id="SVGID_6_" gradientUnits="userSpaceOnUse" x1="99.2494" y1="-50.7574" x2="275.6455" y2="254.7695">
				<stop  offset="0" style="stop-color:#FFD594"/>
				<stop  offset="1" style="stop-color:#BF8044"/>
			</linearGradient>
			<polygon class="st11" points="202.3,208.7 266,213.3 266,157 202.3,160.7 			"/>
			<linearGradient id="SVGID_7_" gradientUnits="userSpaceOnUse" x1="48.502" y1="18.0076" x2="217.1091" y2="310.0436">
				<stop  offset="0" style="stop-color:#FFD594"/>
				<stop  offset="1" style="stop-color:#BF8044"/>
			</linearGradient>
			<polygon class="st12" points="139,237.4 197,245.7 197,212.6 139,208 			"/>
			<linearGradient id="SVGID_8_" gradientUnits="userSpaceOnUse" x1="90.2181" y1="-16.6897" x2="260.8025" y2="278.771">
				<stop  offset="0" style="stop-color:#FFD594"/>
				<stop  offset="1" style="stop-color:#BF8044"/>
			</linearGradient>
			<polygon class="st13" points="202,246.7 266,256 266,218 202,213.3 			"/>
			<linearGradient id="SVGID_9_" gradientUnits="userSpaceOnUse" x1="44.8742" y1="-33.3011" x2="221.9607" y2="273.4216">
				<stop  offset="0" style="stop-color:#FFD594"/>
				<stop  offset="1" style="stop-color:#BF8044"/>
			</linearGradient>
			<polygon class="st14" points="85,113.3 135,104 135,45.7 85,62.4 			"/>
			<linearGradient id="SVGID_10_" gradientUnits="userSpaceOnUse" x1="28.0511" y1="-6.2239" x2="207.2117" y2="304.0913">
				<stop  offset="0" style="stop-color:#FFD594"/>
				<stop  offset="1" style="stop-color:#BF8044"/>
			</linearGradient>
			<polygon class="st15" points="135.2,108 85,117.3 85,163.8 135.2,161 			"/>
			<linearGradient id="SVGID_11_" gradientUnits="userSpaceOnUse" x1="16.763" y1="21.5999" x2="191.963" y2="325.0552">
				<stop  offset="0" style="stop-color:#FFD594"/>
				<stop  offset="1" style="stop-color:#BF8044"/>
			</linearGradient>
			<polygon class="st16" points="135,165.4 85.3,167.2 85.3,201.2 135,205 			"/>
			<linearGradient id="SVGID_12_" gradientUnits="userSpaceOnUse" x1="9.9408" y1="44.4468" x2="180.3226" y2="339.5567">
				<stop  offset="0" style="stop-color:#FFD594"/>
				<stop  offset="1" style="stop-color:#BF8044"/>
			</linearGradient>
			<polygon class="st17" points="135,207.7 85.5,203.9 85.5,228.8 135,237 			"/>
			<linearGradient id="SVGID_13_" gradientUnits="userSpaceOnUse" x1="8.332" y1="4.03" x2="183.2551" y2="307.0059">
				<stop  offset="0" style="stop-color:#FFD594"/>
				<stop  offset="1" style="stop-color:#BF8044"/>
			</linearGradient>
			<polygon class="st18" points="81,114.8 38.5,122 38.5,79.6 81,64.1 			"/>
			<linearGradient id="SVGID_14_" gradientUnits="userSpaceOnUse" x1="-15.1151" y1="53.0272" x2="155.8619" y2="349.1681">
				<stop  offset="0" style="stop-color:#FFD594"/>
				<stop  offset="1" style="stop-color:#BF8044"/>
			</linearGradient>
			<polygon class="st19" points="81,167.6 39,170.3 39,198.7 81,201.4 			"/>
			<linearGradient id="SVGID_15_" gradientUnits="userSpaceOnUse" x1="-33.4265" y1="60.1587" x2="132.9252" y2="348.2884">
				<stop  offset="0" style="stop-color:#FFD594"/>
				<stop  offset="1" style="stop-color:#BF8044"/>
			</linearGradient>
			<polygon class="st20" points="34,165.8 0,167.5 0,133.5 34,127.5 			"/>
			<linearGradient id="SVGID_16_" gradientUnits="userSpaceOnUse" x1="-44.3179" y1="101.791" x2="109.3566" y2="367.963">
				<stop  offset="0" style="stop-color:#FFD594"/>
				<stop  offset="1" style="stop-color:#BF8044"/>
			</linearGradient>
			<polygon class="st21" points="34,220 0.2,214.9 0.2,198.9 34,201.4 			"/>
			<linearGradient id="SVGID_17_" gradientUnits="userSpaceOnUse" x1="87.966" y1="-75.8722" x2="266.6152" y2="233.5573">
				<stop  offset="0" style="stop-color:#FFD594"/>
				<stop  offset="1" style="stop-color:#BF8044"/>
			</linearGradient>
			<polygon class="st22" points="139.3,103 198,93.7 198,24.7 139.3,44.3 			"/>
			<linearGradient id="SVGID_18_" gradientUnits="userSpaceOnUse" x1="115.0875" y1="-84.919" x2="293.2878" y2="223.7329">
				<stop  offset="0" style="stop-color:#FFD594"/>
				<stop  offset="1" style="stop-color:#BF8044"/>
			</linearGradient>
			<polygon class="st23" points="202,155.8 266,152.1 266,86.3 202,97.4 			"/>
		</g>
		<g id="right">
			<linearGradient id="SVGID_19_" gradientUnits="userSpaceOnUse" x1="297.7182" y1="33.4922" x2="471.7182" y2="270.8255">
				<stop  offset="0" style="stop-color:#FFD594"/>
				<stop  offset="7.679945e-002" style="stop-color:#F6CA89"/>
				<stop  offset="0.3289" style="stop-color:#DEAA6B"/>
				<stop  offset="0.5723" style="stop-color:#CD9356"/>
				<stop  offset="0.801" style="stop-color:#C38548"/>
				<stop  offset="1" style="stop-color:#BF8044"/>
			</linearGradient>
			<polygon class="st24" points="399.1,160.2 340,155.4 340,98 399.1,107.5 			"/>
			<linearGradient id="SVGID_20_" gradientUnits="userSpaceOnUse" x1="228.5095" y1="84.2323" x2="402.5095" y2="321.5656">
				<stop  offset="0" style="stop-color:#FFD594"/>
				<stop  offset="7.679945e-002" style="stop-color:#F6CA89"/>
				<stop  offset="0.3289" style="stop-color:#DEAA6B"/>
				<stop  offset="0.5723" style="stop-color:#CD9356"/>
				<stop  offset="0.801" style="stop-color:#C38548"/>
				<stop  offset="1" style="stop-color:#BF8044"/>
			</linearGradient>
			<polygon class="st25" points="335.7,208.7 272,213.3 272,157 335.7,160.7 			"/>
			<linearGradient id="SVGID_21_" gradientUnits="userSpaceOnUse" x1="252.5413" y1="66.6135" x2="426.5413" y2="303.9468">
				<stop  offset="0" style="stop-color:#FFD594"/>
				<stop  offset="7.679945e-002" style="stop-color:#F6CA89"/>
				<stop  offset="0.3289" style="stop-color:#DEAA6B"/>
				<stop  offset="0.5723" style="stop-color:#CD9356"/>
				<stop  offset="0.801" style="stop-color:#C38548"/>
				<stop  offset="1" style="stop-color:#BF8044"/>
			</linearGradient>
			<polygon class="st26" points="399,237.4 341,245.7 341,212.6 399,208 			"/>
			<linearGradient id="SVGID_22_" gradientUnits="userSpaceOnUse" x1="332.0106" y1="8.3509" x2="506.0106" y2="245.6842">
				<stop  offset="0" style="stop-color:#FFD594"/>
				<stop  offset="7.679945e-002" style="stop-color:#F6CA89"/>
				<stop  offset="0.3289" style="stop-color:#DEAA6B"/>
				<stop  offset="0.5723" style="stop-color:#CD9356"/>
				<stop  offset="0.801" style="stop-color:#C38548"/>
				<stop  offset="1" style="stop-color:#BF8044"/>
			</linearGradient>
			<polygon class="st27" points="402.8,108 453,117.3 453,163.8 402.8,161 			"/>
			<linearGradient id="SVGID_23_" gradientUnits="userSpaceOnUse" x1="309.6125" y1="24.7719" x2="483.6125" y2="262.1053">
				<stop  offset="0" style="stop-color:#FFD594"/>
				<stop  offset="7.679945e-002" style="stop-color:#F6CA89"/>
				<stop  offset="0.3289" style="stop-color:#DEAA6B"/>
				<stop  offset="0.5723" style="stop-color:#CD9356"/>
				<stop  offset="0.801" style="stop-color:#C38548"/>
				<stop  offset="1" style="stop-color:#BF8044"/>
			</linearGradient>
			<polygon class="st28" points="403,165.4 452.7,167.2 452.7,201.2 403,205 			"/>
			<linearGradient id="SVGID_24_" gradientUnits="userSpaceOnUse" x1="293.1177" y1="36.865" x2="467.1177" y2="274.1984">
				<stop  offset="0" style="stop-color:#FFD594"/>
				<stop  offset="7.679945e-002" style="stop-color:#F6CA89"/>
				<stop  offset="0.3289" style="stop-color:#DEAA6B"/>
				<stop  offset="0.5723" style="stop-color:#CD9356"/>
				<stop  offset="0.801" style="stop-color:#C38548"/>
				<stop  offset="1" style="stop-color:#BF8044"/>
			</linearGradient>
			<polygon class="st29" points="403,207.7 452.5,203.9 452.5,228.8 403,237 			"/>
			<linearGradient id="SVGID_25_" gradientUnits="userSpaceOnUse" x1="384.7873" y1="-30.3422" x2="558.7874" y2="206.9911">
				<stop  offset="0" style="stop-color:#FFD594"/>
				<stop  offset="7.679945e-002" style="stop-color:#F6CA89"/>
				<stop  offset="0.3289" style="stop-color:#DEAA6B"/>
				<stop  offset="0.5723" style="stop-color:#CD9356"/>
				<stop  offset="0.801" style="stop-color:#C38548"/>
				<stop  offset="1" style="stop-color:#BF8044"/>
			</linearGradient>
			<polygon class="st30" points="457,114.8 499.5,122 499.5,79.6 457,64.1 			"/>
			<linearGradient id="SVGID_26_" gradientUnits="userSpaceOnUse" x1="342.3145" y1="0.7966" x2="516.3145" y2="238.1299">
				<stop  offset="0" style="stop-color:#FFD594"/>
				<stop  offset="7.679945e-002" style="stop-color:#F6CA89"/>
				<stop  offset="0.3289" style="stop-color:#DEAA6B"/>
				<stop  offset="0.5723" style="stop-color:#CD9356"/>
				<stop  offset="0.801" style="stop-color:#C38548"/>
				<stop  offset="1" style="stop-color:#BF8044"/>
			</linearGradient>
			<polygon class="st31" points="457,167.6 499,170.3 499,198.7 457,201.4 			"/>
			<linearGradient id="SVGID_27_" gradientUnits="userSpaceOnUse" x1="381.8223" y1="-40.0075" x2="562.4644" y2="206.3855">
				<stop  offset="0" style="stop-color:#FFD594"/>
				<stop  offset="7.679945e-002" style="stop-color:#F6CA89"/>
				<stop  offset="0.3289" style="stop-color:#DEAA6B"/>
				<stop  offset="0.5723" style="stop-color:#CD9356"/>
				<stop  offset="0.801" style="stop-color:#C38548"/>
				<stop  offset="1" style="stop-color:#BF8044"/>
			</linearGradient>
			<polygon class="st32" points="502.7,165.7 538,167.5 538,132.2 502.7,126 			"/>
			<linearGradient id="SVGID_28_" gradientUnits="userSpaceOnUse" x1="327.4105" y1="11.7234" x2="501.4105" y2="249.0567">
				<stop  offset="0" style="stop-color:#FFD594"/>
				<stop  offset="7.679945e-002" style="stop-color:#F6CA89"/>
				<stop  offset="0.3289" style="stop-color:#DEAA6B"/>
				<stop  offset="0.5723" style="stop-color:#CD9356"/>
				<stop  offset="0.801" style="stop-color:#C38548"/>
				<stop  offset="1" style="stop-color:#BF8044"/>
			</linearGradient>
			<polygon class="st33" points="398.8,103 340,93.7 340,24.7 398.8,44.3 			"/>
			<linearGradient id="SVGID_29_" gradientUnits="userSpaceOnUse" x1="375.4021" y1="-66.0695" x2="542.7125" y2="223.7206">
				<stop  offset="0" style="stop-color:#FFD594"/>
				<stop  offset="3.373080e-002" style="stop-color:#FCD190"/>
				<stop  offset="0.4666" style="stop-color:#DBA567"/>
				<stop  offset="0.8031" style="stop-color:#C78A4E"/>
				<stop  offset="1" style="stop-color:#BF8044"/>
			</linearGradient>
			<polygon class="st34" points="503,198.4 538.4,195.8 538.4,172.8 503,171 			"/>
			<linearGradient id="SVGID_30_" gradientUnits="userSpaceOnUse" x1="343.9514" y1="-17.4511" x2="503.9438" y2="259.6638">
				<stop  offset="0" style="stop-color:#FFD594"/>
				<stop  offset="3.373080e-002" style="stop-color:#FCD190"/>
				<stop  offset="0.4666" style="stop-color:#DBA567"/>
				<stop  offset="0.8031" style="stop-color:#C78A4E"/>
				<stop  offset="1" style="stop-color:#BF8044"/>
			</linearGradient>
			<polygon class="st35" points="456.6,227.7 499,221.3 499,201 456.6,203.8 			"/>
			<linearGradient id="SVGID_31_" gradientUnits="userSpaceOnUse" x1="250.9708" y1="-40.3925" x2="452.5495" y2="308.7522">
				<stop  offset="0" style="stop-color:#FFD594"/>
				<stop  offset="3.373080e-002" style="stop-color:#FCD190"/>
				<stop  offset="0.4666" style="stop-color:#DBA567"/>
				<stop  offset="0.8031" style="stop-color:#C78A4E"/>
				<stop  offset="1" style="stop-color:#BF8044"/>
			</linearGradient>
			<polygon class="st36" points="336.9,93 271.9,81.6 271.9,0 336.9,22.7 			"/>
		</g>
		<linearGradient id="line_4_" gradientUnits="userSpaceOnUse" x1="0.8282" y1="250.5172" x2="537.188" y2="250.5172">
			<stop  offset="0" style="stop-color:#FFD594"/>
			<stop  offset="1" style="stop-color:#BF8044"/>
		</linearGradient>
		<polyline id="line_2_" class="st37" points="1,229 270.5,276 537,225 		"/>
	</g>
</g>
<g id="Logo_blue">
	<g id="logo_copy_2">
	</g>
	<g>
		<g id="left_3_">
			<linearGradient id="SVGID_32_" gradientUnits="userSpaceOnUse" x1="158.0517" y1="100.493" x2="180.3846" y2="161.8522">
				<stop  offset="0" style="stop-color:#0F3E9E"/>
				<stop  offset="1" style="stop-color:#0D1260"/>
			</linearGradient>
			<polygon class="st38" points="138.9,160.2 198,155.4 198,98 138.9,107.5 			"/>
			<linearGradient id="SVGID_33_" gradientUnits="userSpaceOnUse" x1="223.278" y1="153.0458" x2="247.6562" y2="220.0244">
				<stop  offset="0" style="stop-color:#0F3E9E"/>
				<stop  offset="1" style="stop-color:#0D1260"/>
			</linearGradient>
			<polygon class="st39" points="202.3,208.7 266,213.3 266,157 202.3,160.7 			"/>
			<linearGradient id="SVGID_34_" gradientUnits="userSpaceOnUse" x1="159.1337" y1="200.6243" x2="178.0498" y2="252.5957">
				<stop  offset="0" style="stop-color:#0F3E9E"/>
				<stop  offset="1" style="stop-color:#0D1260"/>
			</linearGradient>
			<polygon class="st40" points="139,237.4 197,245.7 197,212.6 139,208 			"/>
			<linearGradient id="SVGID_35_" gradientUnits="userSpaceOnUse" x1="224.1456" y1="205.273" x2="245.345" y2="263.5178">
				<stop  offset="0" style="stop-color:#0F3E9E"/>
				<stop  offset="1" style="stop-color:#0D1260"/>
			</linearGradient>
			<polygon class="st41" points="202,246.7 266,256 266,218 202,213.3 			"/>
			<linearGradient id="SVGID_36_" gradientUnits="userSpaceOnUse" x1="101.5702" y1="56.3393" x2="120.8105" y2="109.2016">
				<stop  offset="0" style="stop-color:#0F3E9E"/>
				<stop  offset="1" style="stop-color:#0D1260"/>
			</linearGradient>
			<polygon class="st42" points="85,113.3 135,104 135,45.7 85,62.4 			"/>
			<linearGradient id="SVGID_37_" gradientUnits="userSpaceOnUse" x1="101.1883" y1="111.4042" x2="121.1031" y2="166.1197">
				<stop  offset="0" style="stop-color:#0F3E9E"/>
				<stop  offset="1" style="stop-color:#0D1260"/>
			</linearGradient>
			<polygon class="st43" points="135.2,108 85,117.3 85,163.8 135.2,161 			"/>
			<linearGradient id="SVGID_38_" gradientUnits="userSpaceOnUse" x1="102.0247" y1="161.0491" x2="120.0076" y2="210.4568">
				<stop  offset="0" style="stop-color:#0F3E9E"/>
				<stop  offset="1" style="stop-color:#0D1260"/>
			</linearGradient>
			<polygon class="st44" points="135,165.4 85.3,167.2 85.3,201.2 135,205 			"/>
			<linearGradient id="SVGID_39_" gradientUnits="userSpaceOnUse" x1="102.7892" y1="197.6673" x2="119.1984" y2="242.7513">
				<stop  offset="0" style="stop-color:#0F3E9E"/>
				<stop  offset="1" style="stop-color:#0D1260"/>
			</linearGradient>
			<polygon class="st45" points="135,207.7 85.5,203.9 85.5,228.8 135,237 			"/>
			<linearGradient id="SVGID_40_" gradientUnits="userSpaceOnUse" x1="52.9042" y1="74.3001" x2="69.1994" y2="119.0708">
				<stop  offset="0" style="stop-color:#0F3E9E"/>
				<stop  offset="1" style="stop-color:#0D1260"/>
			</linearGradient>
			<polygon class="st46" points="81,114.8 38.5,122 38.5,79.6 81,64.1 			"/>
			<linearGradient id="SVGID_41_" gradientUnits="userSpaceOnUse" x1="53.4352" y1="165.0938" x2="68.3255" y2="206.0045">
				<stop  offset="0" style="stop-color:#0F3E9E"/>
				<stop  offset="1" style="stop-color:#0D1260"/>
			</linearGradient>
			<polygon class="st47" points="81,167.6 39,170.3 39,198.7 81,201.4 			"/>
			<linearGradient id="SVGID_42_" gradientUnits="userSpaceOnUse" x1="10.5038" y1="129.6519" x2="24.8621" y2="169.1009">
				<stop  offset="0" style="stop-color:#0F3E9E"/>
				<stop  offset="1" style="stop-color:#0D1260"/>
			</linearGradient>
			<polygon class="st48" points="34,165.8 0,167.5 0,133.5 34,127.5 			"/>
			<linearGradient id="SVGID_43_" gradientUnits="userSpaceOnUse" x1="12.1357" y1="194.5307" x2="22.879" y2="224.0477">
				<stop  offset="0" style="stop-color:#0F3E9E"/>
				<stop  offset="1" style="stop-color:#0D1260"/>
			</linearGradient>
			<polygon class="st49" points="34,220 0.2,214.9 0.2,198.9 34,201.4 			"/>
			<linearGradient id="SVGID_44_" gradientUnits="userSpaceOnUse" x1="158.8948" y1="37.0999" x2="181.652" y2="99.6248">
				<stop  offset="0" style="stop-color:#0F3E9E"/>
				<stop  offset="1" style="stop-color:#0D1260"/>
			</linearGradient>
			<polygon class="st50" points="139.3,103 198,93.7 198,24.7 139.3,44.3 			"/>
			<linearGradient id="SVGID_45_" gradientUnits="userSpaceOnUse" x1="222.655" y1="89.8735" x2="247.7298" y2="158.7657">
				<stop  offset="0" style="stop-color:#0F3E9E"/>
				<stop  offset="1" style="stop-color:#0D1260"/>
			</linearGradient>
			<polygon class="st51" points="202,155.8 266,152.1 266,86.3 202,97.4 			"/>
		</g>
		<g id="right_2_">
			<linearGradient id="SVGID_46_" gradientUnits="userSpaceOnUse" x1="347.6669" y1="93.5735" x2="389.3756" y2="165.8151">
				<stop  offset="0" style="stop-color:#0F3E9E"/>
				<stop  offset="1" style="stop-color:#0D1260"/>
			</linearGradient>
			<polygon class="st52" points="399.1,160.2 340,155.4 340,98 399.1,107.5 			"/>
			<linearGradient id="SVGID_47_" gradientUnits="userSpaceOnUse" x1="282.902" y1="150.7057" x2="321.2358" y2="217.1018">
				<stop  offset="0" style="stop-color:#0F3E9E"/>
				<stop  offset="1" style="stop-color:#0D1260"/>
			</linearGradient>
			<polygon class="st53" points="335.7,208.7 272,213.3 272,157 335.7,160.7 			"/>
			<linearGradient id="SVGID_48_" gradientUnits="userSpaceOnUse" x1="356.571" y1="203.5656" x2="381.8344" y2="247.3232">
				<stop  offset="0" style="stop-color:#0F3E9E"/>
				<stop  offset="1" style="stop-color:#0D1260"/>
			</linearGradient>
			<polygon class="st54" points="399,237.4 341,245.7 341,212.6 399,208 			"/>
			<linearGradient id="SVGID_49_" gradientUnits="userSpaceOnUse" x1="408.1399" y1="104.917" x2="444.8423" y2="168.4876">
				<stop  offset="0" style="stop-color:#0F3E9E"/>
				<stop  offset="1" style="stop-color:#0D1260"/>
			</linearGradient>
			<polygon class="st55" points="402.8,108 453,117.3 453,163.8 402.8,161 			"/>
			<linearGradient id="SVGID_50_" gradientUnits="userSpaceOnUse" x1="412.6962" y1="159.7908" x2="440.6547" y2="208.2163">
				<stop  offset="0" style="stop-color:#0F3E9E"/>
				<stop  offset="1" style="stop-color:#0D1260"/>
			</linearGradient>
			<polygon class="st56" points="403,165.4 452.7,167.2 452.7,201.2 403,205 			"/>
			<linearGradient id="SVGID_51_" gradientUnits="userSpaceOnUse" x1="416.0125" y1="200.1793" x2="437.4982" y2="237.3937">
				<stop  offset="0" style="stop-color:#0F3E9E"/>
				<stop  offset="1" style="stop-color:#0D1260"/>
			</linearGradient>
			<polygon class="st57" points="403,207.7 452.5,203.9 452.5,228.8 403,237 			"/>
			<linearGradient id="SVGID_52_" gradientUnits="userSpaceOnUse" x1="458.6379" y1="63.163" x2="494.3405" y2="125.0017">
				<stop  offset="0" style="stop-color:#0F3E9E"/>
				<stop  offset="1" style="stop-color:#0D1260"/>
			</linearGradient>
			<polygon class="st58" points="457,114.8 499.5,122 499.5,79.6 457,64.1 			"/>
			<linearGradient id="SVGID_53_" gradientUnits="userSpaceOnUse" x1="464.8428" y1="163.0806" x2="488.785" y2="204.5498">
				<stop  offset="0" style="stop-color:#0F3E9E"/>
				<stop  offset="1" style="stop-color:#0D1260"/>
			</linearGradient>
			<polygon class="st59" points="457,167.6 499,170.3 499,198.7 457,201.4 			"/>
			<linearGradient id="SVGID_54_" gradientUnits="userSpaceOnUse" x1="506.004" y1="124.0937" x2="532.7876" y2="170.4844">
				<stop  offset="0" style="stop-color:#0F3E9E"/>
				<stop  offset="1" style="stop-color:#0D1260"/>
			</linearGradient>
			<polygon class="st60" points="502.7,165.7 538,167.5 538,132.2 502.7,126 			"/>
			<linearGradient id="SVGID_55_" gradientUnits="userSpaceOnUse" x1="342.8507" y1="23.0208" x2="391.4575" y2="107.2103">
				<stop  offset="0" style="stop-color:#0F3E9E"/>
				<stop  offset="1" style="stop-color:#0D1260"/>
			</linearGradient>
			<polygon class="st61" points="398.8,103 340,93.7 340,24.7 398.8,44.3 			"/>
			<linearGradient id="SVGID_56_" gradientUnits="userSpaceOnUse" x1="509.9557" y1="166.9841" x2="529.5465" y2="200.9163">
				<stop  offset="0" style="stop-color:#0F3E9E"/>
				<stop  offset="1" style="stop-color:#0D1260"/>
			</linearGradient>
			<polygon class="st62" points="503,198.4 538.4,195.8 538.4,172.8 503,171 			"/>
			<linearGradient id="SVGID_57_" gradientUnits="userSpaceOnUse" x1="467.9" y1="197.2341" x2="486.0892" y2="228.7389">
				<stop  offset="0" style="stop-color:#0F3E9E"/>
				<stop  offset="1" style="stop-color:#0D1260"/>
			</linearGradient>
			<polygon class="st63" points="456.6,227.7 499,221.3 499,201 456.6,203.8 			"/>
			<linearGradient id="SVGID_58_" gradientUnits="userSpaceOnUse" x1="273.7007" y1="-1.0231" x2="330.2171" y2="96.8661">
				<stop  offset="0" style="stop-color:#0F3E9E"/>
				<stop  offset="1" style="stop-color:#0D1260"/>
			</linearGradient>
			<polygon class="st64" points="336.9,93 271.9,81.6 271.9,0 336.9,22.7 			"/>
		</g>
		<linearGradient id="line_5_" gradientUnits="userSpaceOnUse" x1="0.8282" y1="250.5172" x2="537.188" y2="250.5172">
			<stop  offset="0" style="stop-color:#0F3E9E"/>
			<stop  offset="1" style="stop-color:#0D1260"/>
		</linearGradient>
		<polyline id="line_3_" class="st65" points="1,229 270.5,276 537,225 		"/>
	</g>
	<g>
		<path class="st66" d="M267.4,500.3l-7.6,18.2l-7.5-18.2h-1.9l8.5,19.9h1.8l8.5-19.9H267.4z M488.4,500.3v10.5
			c0,4.7-2.6,7.7-6.9,7.7c-3.9,0-6.2-2.4-6.2-6.8v-11.4h-1.8v11.6c0,5.5,3.1,8.4,7.9,8.4c3.3,0,5.9-1.6,7.1-4.4v4.3h1.8v-19.9H488.4
			z M39.6,502c3.9,0,6.8,3.1,7.1,7.4H32.5C32.8,505,35.7,502,39.6,502 M30.7,510.6c0,5.6,4,9.7,9.6,9.7c2.8,0,5.3-1.1,7-3.1
			l-1.1-1.2c-1.4,1.8-3.6,2.6-5.9,2.6c-4.4,0-7.7-3-7.8-7.4h16c0-0.2,0-0.4,0-0.6c0-6.1-3.8-10.2-8.9-10.2
			C34.6,500.3,30.7,504.5,30.7,510.6 M54.1,514.8c0-2.1,1.4-3.6,5.5-3.6h6.7v3.4c-1.1,2.6-3.4,4.1-6.7,4.1
			C56.1,518.6,54.1,517.1,54.1,514.8 M52.7,503.1l0.9,1.4c1.6-1.5,4-2.6,6.7-2.6c3.8,0,5.8,2,5.8,5.8v1.6h-6.7
			c-5.4,0-7.3,2.7-7.3,5.4c0,3.1,2.6,5.4,7,5.4c3.4,0,5.8-1.5,7-3.6v3.6h1.8v-12.3c0-5-2.7-7.6-7.5-7.6
			C57.5,500.3,54.7,501.4,52.7,503.1 M117.4,505.6c0,7.7,13,3.4,13,9.2c0,2.2-1.7,3.7-5.8,3.7c-2.9,0-5.6-1.1-7.1-2.4l-0.9,1.5
			c1.5,1.4,4.6,2.6,7.8,2.6c5,0,7.7-2.2,7.7-5.4c0-7.6-13-3.3-13-9.3c0-2.1,1.7-3.6,5.5-3.6c2.1,0,4.3,0.6,5.9,1.7l0.9-1.5
			c-1.5-1.2-4.2-2-6.7-2C119.8,500.3,117.4,502.7,117.4,505.6 M151.6,514.8c0-2.1,1.4-3.6,5.5-3.6h6.7v3.4c-1.1,2.6-3.4,4.1-6.7,4.1
			C153.6,518.6,151.6,517.1,151.6,514.8 M150.3,503.1l0.9,1.4c1.6-1.5,4-2.6,6.7-2.6c3.8,0,5.8,2,5.8,5.8v1.6h-6.7
			c-5.4,0-7.3,2.7-7.3,5.4c0,3.1,2.6,5.4,7,5.4c3.4,0,5.8-1.5,7-3.6v3.6h1.8v-12.3c0-5-2.7-7.6-7.5-7.6
			C155.1,500.3,152.2,501.4,150.3,503.1 M194.3,502c3.9,0,6.8,3.1,7.1,7.4h-14.2C187.5,505,190.4,502,194.3,502 M185.4,510.6
			c0,5.6,4,9.7,9.6,9.7c2.8,0,5.3-1.1,7-3.1l-1.1-1.2c-1.4,1.8-3.6,2.6-5.9,2.6c-4.4,0-7.6-3-7.8-7.4h16c0-0.2,0-0.4,0-0.6
			c0-6.1-3.8-10.2-8.9-10.2C189.3,500.3,185.4,504.5,185.4,510.6 M231.7,504.7v-4.4h-1.8v19.9h1.9v-10.6c0-4.7,2.7-7.7,7.1-7.7
			c3.8,0,6.1,2.3,6.1,6.8v11.4h1.9v-11.6c0-5.5-3.1-8.4-7.7-8.4C235.5,500.3,232.9,501.9,231.7,504.7 M280.3,502
			c3.9,0,6.8,3.1,7.1,7.4h-14.2C273.5,505,276.4,502,280.3,502 M271.4,510.6c0,5.6,4,9.7,9.6,9.7c2.8,0,5.3-1.1,7-3.1L287,516
			c-1.4,1.8-3.6,2.6-5.9,2.6c-4.4,0-7.7-3-7.8-7.4h16c0-0.2,0-0.4,0-0.6c0-6.1-3.8-10.2-8.9-10.2
			C275.3,500.3,271.4,504.5,271.4,510.6 M293.5,505.6c0,7.7,13,3.4,13,9.2c0,2.2-1.7,3.7-5.8,3.7c-2.9,0-5.6-1.1-7.1-2.4l-0.9,1.5
			c1.5,1.4,4.6,2.6,7.8,2.6c5,0,7.7-2.2,7.7-5.4c0-7.6-13-3.3-13-9.3c0-2.1,1.7-3.6,5.5-3.6c2.1,0,4.3,0.6,5.9,1.7l0.9-1.5
			c-1.5-1.2-4.2-2-6.7-2C295.9,500.3,293.5,502.7,293.5,505.6 M344.2,505c-1-3.1-3.6-4.8-7.1-4.8c-3.5,0-6.2,1.6-7.4,4.4v-4.3h-1.8
			v19.9h1.8v-10.6c0-4.7,2.7-7.7,7.1-7.7c3.8,0,6.1,2.3,6.1,6.8v11.4h1.9v-10.5c0-4.7,2.7-7.7,7.1-7.7c3.8,0,6.1,2.3,6.1,6.8v11.4
			h1.8v-11.6c0-5.5-3-8.4-7.7-8.4C348.3,500.3,345.5,502.2,344.2,505 M374.2,502c3.9,0,6.8,3.1,7.1,7.4h-14.2
			C367.4,505,370.3,502,374.2,502 M365.3,510.6c0,5.6,4,9.7,9.6,9.7c2.8,0,5.3-1.1,7-3.1l-1.1-1.2c-1.4,1.8-3.6,2.6-5.9,2.6
			c-4.4,0-7.6-3-7.8-7.4h16c0-0.2,0-0.4,0-0.6c0-6.1-3.8-10.2-8.9-10.2C369.2,500.3,365.3,504.5,365.3,510.6 M391.2,504.7v-4.4h-1.8
			v19.9h1.9v-10.6c0-4.7,2.7-7.7,7.1-7.7c3.8,0,6.1,2.3,6.1,6.8v11.4h1.9v-11.6c0-5.5-3.1-8.4-7.7-8.4
			C395,500.3,392.4,501.9,391.2,504.7 M496.2,505.6c0,7.7,13,3.4,13,9.2c0,2.2-1.7,3.7-5.8,3.7c-2.9,0-5.6-1.1-7-2.4l-0.9,1.5
			c1.5,1.4,4.6,2.6,7.8,2.6c5,0,7.7-2.2,7.7-5.4c0-7.6-13-3.3-13-9.3c0-2.1,1.7-3.6,5.5-3.6c2.1,0,4.3,0.6,5.9,1.7l0.9-1.5
			c-1.5-1.2-4.2-2-6.7-2C498.6,500.3,496.2,502.7,496.2,505.6 M528.6,505.6c0,7.7,13,3.4,13,9.2c0,2.2-1.7,3.7-5.8,3.7
			c-2.9,0-5.6-1.1-7.1-2.4l-0.9,1.5c1.5,1.4,4.6,2.6,7.8,2.6c5,0,7.7-2.2,7.7-5.4c0-7.6-13-3.3-13-9.3c0-2.1,1.7-3.6,5.5-3.6
			c2.1,0,4.3,0.6,5.9,1.7l0.9-1.5c-1.5-1.2-4.2-2-6.7-2C531,500.3,528.6,502.7,528.6,505.6 M460.6,504.7v-4.3h-1.8v19.9h1.9v-10.4
			c0-4.9,2.6-7.8,6.8-7.8c0.1,0,0.3,0,0.4,0v-1.8C464.4,500.2,461.8,501.8,460.6,504.7 M137.1,496.1v4.2h-3.6v1.7h3.6v12.9
			c0,3.3,1.8,5.4,5.3,5.4c1.4,0,3-0.5,4-1.5l-0.8-1.3c-0.8,0.7-1.9,1.1-3,1.1c-2.4,0-3.6-1.4-3.6-3.9V502h6.1v-1.7h-6.1v-4.2H137.1z
			 M173.4,496.1v4.2h-3.6v1.7h3.6v12.9c0,3.3,1.8,5.4,5.3,5.4c1.4,0,3-0.5,4-1.5l-0.8-1.3c-0.8,0.7-1.9,1.1-3,1.1
			c-2.4,0-3.6-1.4-3.6-3.9V502h6.1v-1.7h-6.1v-4.2H173.4z M313.2,496.1v4.2h-3.6v1.7h3.6v12.9c0,3.3,1.9,5.4,5.3,5.4
			c1.4,0,3-0.5,4-1.5l-0.8-1.3c-0.8,0.7-1.9,1.1-3,1.1c-2.4,0-3.6-1.4-3.6-3.9V502h6.1v-1.7H315v-4.2H313.2z M414.3,496.1v4.2h-3.6
			v1.7h3.6v12.9c0,3.3,1.9,5.4,5.3,5.4c1.4,0,3-0.5,4-1.5l-0.8-1.3c-0.8,0.7-1.9,1.1-3,1.1c-2.4,0-3.6-1.4-3.6-3.9V502h6.1v-1.7
			h-6.1v-4.2H414.3z M515.9,496.1v4.2h-3.6v1.7h3.6v12.9c0,3.3,1.8,5.4,5.3,5.4c1.4,0,3-0.5,4-1.5l-0.8-1.3c-0.8,0.7-1.8,1.1-3,1.1
			c-2.4,0-3.6-1.4-3.6-3.9V502h6.1v-1.7h-6.1v-4.2H515.9z M219,520.2h1.9v-25.9H219V520.2z M7.9,496h7.5c5.6,0,8.6,2.6,8.6,7.2
			c0,4.6-3,7.2-8.6,7.2H7.9V496z M6,494.3v25.9h1.9v-8.1h7.5c0.9,0,1.7-0.1,2.5-0.2l6.3,8.3h2.1l-6.5-8.7c3.9-1.2,6.1-4.1,6.1-8.3
			c0-5.6-3.9-8.9-10.5-8.9H6z M94.9,494.3v26h17.9v-1.7h-16v-10.4h13.8v-1.7H96.8V496h15.4v-1.7H94.9z M434.2,494.3v1.7h9.3v24.2
			h1.9V496h9.3v-1.7H434.2z M75.8,520.2h1.9v-27.9h-1.9V520.2z"/>
	</g>
	<g>
		<path class="st66" d="M205.9,368.2c-1.5,0-2.2,0.3-2.2,0.9c0,0.4,0.5,0.9,1.1,0.9c0.9,0,2.6,0.1,4.2,0.5c2.9,0.6,4,2.6,4.3,7
			c0.3,4.1,0.3,7.8,0.3,28v22.9c0,12.5-0.2,22.8-0.8,28.1c-0.5,3.8-0.9,6.3-3.5,6.9c-1.2,0.3-2.9,0.6-4.2,0.6
			c-0.8,0-1.1,0.5-1.1,0.9c0,0.7,0.8,0.9,2.2,0.9h29.9c1.5,0,2.2-0.4,2.2-0.9c0-0.4-0.3-0.9-1.1-0.9c-1.2,0-4.2-0.3-6.2-0.6
			c-4-0.6-4.5-3.1-4.9-6.9c-0.6-5.3-0.6-15.6-0.6-28.1v-22.9c0-20.2,0-23.8,0.2-28c0.3-4.6,1.1-6.4,4.8-7.2c1.5-0.3,2.5-0.3,3.4-0.3
			c0.5,0,1.1-0.5,1.1-0.9c0-0.7-0.6-0.9-2.2-0.9L205.9,368.2z M474.8,368.2c-1.5,0-2.2,0.3-2.2,0.9c0,0.4,0.6,0.9,1.1,0.9
			c1.2,0,3.5,0.2,4.6,0.3c4.5,0.6,5.2,2.8,5.5,7.2c0.3,4.1,0.3,7.8,0.3,28v22.9c0,12.5,0,22.7-0.8,28.1c-0.6,3.8-0.9,6.3-3.5,6.9
			c-1.2,0.3-2.9,0.6-4.2,0.6c-0.8,0-1.1,0.5-1.1,0.9c0,0.7,0.8,0.9,2.2,0.9h30.1c1.5,0,2.1-0.4,2.1-0.9c0-0.4-0.3-0.9-1.1-0.9
			c-1.2,0-4.1-0.3-5.9-0.6c-4.1-0.6-4.9-3.1-5.3-6.9c-0.6-5.3-0.6-15.6-0.6-28.1v-53c0-1.4,0.3-2.3,1.1-2.5c1.4-0.3,5.2-0.9,7.5-0.9
			c3,0,11.1-0.7,18.1,6.3c7.1,7,7.6,15.5,7.6,19.8c0,11.8-10.3,21-24.8,21c-2.7,0-3.5,0.3-3.5,1.4c0,0.6,0.8,1.2,1.4,1.2
			c0.8,0.2,3,0.2,3.8,0.2c20.5,0,34.8-12.4,34.8-31.1c0-7-3.7-12.8-6.9-15.6c-2.3-2-8.5-7.1-25.7-7.1L474.8,368.2z M173,366.7
			c-1.1,0.6-3.3,1.1-5.9,1.2c-3.1,0.2-31.4,0-32.3,0c-0.7,0-9.3-0.3-15.5-0.3c-1.5,0-2.2,0.3-2.2,1.1c0,0.5,0.6,1.2,1.1,1.2
			c1.2,0.1,3.5,0.2,4.6,0.4c4.5,0.6,5.2,2.7,5.5,7.1c0.3,4.1,0.3,7.7,0.3,27.8v23.4c0,12.7,0,23-0.8,28.4c-0.6,3.9-0.9,6.5-3.5,6.9
			c-1.2-0.5-2.9,0-4.2,0c-0.8,0-1.1,0.5-1.1,0.9c0,1.5,0.8,1.8,2.2,1.8c2.2,0,5.2-0.2,7.8-0.3c2.8-0.5,5.3-0.5,5.6-0.5
			c1.9,0,5.3,0,11.1,0.3c5.6,0.5,13.5,0.8,23.7,0.8c5,0,6.3,0,7.3-3.5c0.8-2.8,1.9-11.7,1.9-12.7c0-0.9-0.2-1.9-0.9-1.9
			c-0.8,0-1.1,0.3-1.4,1.9c-0.8,5.2-2.6,7.5-6,9.1c-3.5,1.4-10,1.4-13.5,1.4c-13.5,0-16-1.7-16.3-10.4c-0.1-2.6,0-17.8,0-22.3v-10.9
			c0-0.5,0.2-0.9,0.9-0.9c2.3,0,16.9,0.2,20.6,0.6c5.3,0.6,6.5,2.2,7,4c0.6,1.7,0.6,3.1,0.6,4.3c0,0.8,0.3,1.2,0.8,1.2
			c0.8,0,1.1-1.4,1.1-2.5c0-0.9,0.3-5.8,0.6-8.5c0.3-4.7,1.1-6.8,1.1-7.6c0-0.8-0.3-1.1-0.8-1.1c-0.5,0-1.1,0.8-1.9,1.7
			c-1.2,1.4-3.3,1.5-6.5,1.8c-3.1,0.3-21.1,0.3-22.8,0.3c-0.8,0-0.8-0.5-0.8-1.4V375c0-0.9,0.2-1.4,0.8-1.4c1.5,0,17.4,0.2,19.7,0.5
			c7.4,0.9,8.8,1.8,9.6,3.9c0.5,1.5,0.7,3.6,0.7,4.5c0,1.1,0.3,1.7,1,1.7c0.6,0,1.1-0.8,1.2-1.4c0.3-2.2,0.6-8.1,0.8-9.3
			c0.3-3.7,1.1-5.3,1.1-6.2c0-0.6-0.2-1.2-0.6-1.2C174.3,366.1,173.7,366.6,173,366.7 M255.7,368.5c-0.3,0.7-2.9,12.4-2.9,13.8
			c0,0.8,0.6,1.1,0.9,1.1c0.6,0,1.1-0.2,1.4-1.2c0.5-0.9,0.6-1.8,2.2-4.1c2-3.1,5.2-4,13.7-4.1l19.6-0.3v54.7
			c0,12.6,0,22.8-0.6,28.2c-0.5,3.8-1.2,6.4-4,7c-1.2,0.3-2.8,0.6-4,0.6c-0.8,0-1.1,0.4-1.1,0.9c0,0.7,0.6,1,2.2,1h30.6
			c1.6,0,2.2-0.4,2.2-1c0-0.4-0.2-1-1.1-1c-1.3,0-4.4-0.3-6.3-0.6c-4.3-0.6-4.9-3.1-5.4-6.9c-0.6-5.4-0.6-15.6-0.6-28.2v-54.7
			l17.3,0.3c13.2,0.3,16.2,3.2,16.7,7.2l0.2,1.4c0.2,1.8,0.5,2.3,1.1,2.3c0.6,0,1.2-0.6,1.2-1.7c0-1.2,0.5-10.5,0.5-14.5
			c0-0.8,0-1.5-0.6-1.5c-0.6,0-1.8,0.3-3.9,0.6c-2.2-0.1-5.4,0.2-9.9,0.2h-51.2c-1.5,0-6.8-0.2-10.6-0.6c-3.7-0.1-5.1-1.2-6-1.2
			C256.7,366.1,255.9,367.8,255.7,368.5 M361.8,413.3c0-28.3,16.5-42.3,39.3-42.3c21.6,0,40.8,16.3,40.8,47.5c0,37.6-24.7,44-37,44
			C380.3,462.4,361.8,443.5,361.8,413.3 M347.9,416.8c0,23.4,15.7,51.4,53.2,51.4c32.9,0,54.7-24.3,54.7-53.3
			c0-30.2-23.2-48.7-53.9-48.7C364.1,366.1,347.9,395.8,347.9,416.8 M29.6,409.7c-0.8-0.5-1.1-1.1-1.1-1.8v-50.2
			c0-0.9,0.5-1.5,1.2-1.8c1.5-0.5,5.7-0.9,10.3-0.9c16.4,0,26.6,11.5,26.6,30.7c0,11.7-4,19.9-9.4,23.6c-3.5,2.5-7.8,2.9-11.5,2.9
			C39,412.2,31.9,411.1,29.6,409.7 M5.7,350.2c-1.7,0-2.5,0.3-2.5,1.1c0,0.5,0.6,0.8,1.2,0.8c1.4,0,4,0.2,5.2,0.5
			c5.1,1.1,6.3,3.5,6.6,8.8c0.3,4.9,0.3,9.2,0.3,33.2v27.1c0,14.8,0,26.9-0.8,33.4c-0.6,4.5-1.4,7.8-4.5,8.5
			c-1.4,0.3-3.2,0.6-4.6,0.6c-0.9,0-1.2,0.4-1.2,0.8c0,0.8,0.8,1.1,2.5,1.1h33c1.7,0,2.5-0.4,2.5-1.1c0-0.4-0.3-0.8-1.2-0.8
			c-1.4,0-4.8-0.3-6.9-0.6c-4.6-0.6-5.5-4-6-8.5c-0.8-6.5-0.8-18.6-0.8-33.4v-3.7c0-0.8,0.3-1.2,1.1-1.2l18.9,0.3
			c0.9,0,1.4,0.3,2,0.9c3.1,4,10.3,14.3,16.7,22.8c8.1,11.5,13.2,19.1,19.8,22.6c4,2,7.9,2.6,16.5,2.6h10.9c2.8,0,3.7-0.3,3.7-1.1
			c0-0.4-0.6-0.8-1.4-0.8c-0.9,0-3.1,0-6-0.5c-3.9-0.6-10.5-2.3-18.8-11.1c-8.9-9.5-18.9-23.2-31-39.4
			c13.2-12.8,17.6-24.1,17.6-35.5c0-10.6-6.2-18.1-9.8-20.9c-8-5.7-18.3-6.5-27.9-6.5L5.7,350.2z"/>
	</g>
</g>
<g id="Logo_black" class="st0">
	<g id="text_1_" class="st3">
		<g>
			<defs>
				<text id="SVGID_59_" transform="matrix(1 0 0 1 48.3525 520.2764)" class="st4 st5">Real Estate Investment Trusts</text>
			</defs>
			<clipPath id="SVGID_60_">
				<use xlink:href="#SVGID_59_"  style="overflow:visible;"/>
			</clipPath>
			<linearGradient id="SVGID_61_" gradientUnits="userSpaceOnUse" x1="8.747247e-007" y1="435.5" x2="564" y2="435.5">
				<stop  offset="0" style="stop-color:#FFD594"/>
				<stop  offset="1" style="stop-color:#BF8044"/>
			</linearGradient>
			<rect x="0" y="327" class="st67" width="564" height="217"/>
		</g>
		<g id="REITOP_1_">
			<defs>
				<text id="Reitop_8_2_" transform="matrix(1 0 0 1 -15.2407 466.0459)" class="st7 st8">Reitop</text>
			</defs>
			<clipPath id="Reitop_8_4_">
				<use xlink:href="#Reitop_8_2_"  style="overflow:visible;"/>
			</clipPath>
			<linearGradient id="SVGID_62_" gradientUnits="userSpaceOnUse" x1="8.747247e-007" y1="432.5" x2="564" y2="432.5">
				<stop  offset="0" style="stop-color:#FFD594"/>
				<stop  offset="1" style="stop-color:#BF8044"/>
			</linearGradient>
			<rect x="0" y="324" class="st68" width="564" height="217"/>
		</g>
	</g>
	<g id="logo_copy" class="st3">
		<g id="left_1_">
			<linearGradient id="SVGID_63_" gradientUnits="userSpaceOnUse" x1="69.6738" y1="-42.0053" x2="246.6084" y2="264.4543">
				<stop  offset="0" style="stop-color:#FFD594"/>
				<stop  offset="1" style="stop-color:#BF8044"/>
			</linearGradient>
			<polygon class="st69" points="138.9,160.2 198,155.4 198,98 138.9,107.5 			"/>
			<linearGradient id="SVGID_64_" gradientUnits="userSpaceOnUse" x1="99.2494" y1="-50.7574" x2="275.6455" y2="254.7695">
				<stop  offset="0" style="stop-color:#FFD594"/>
				<stop  offset="1" style="stop-color:#BF8044"/>
			</linearGradient>
			<polygon class="st70" points="202.3,208.7 266,213.3 266,157 202.3,160.7 			"/>
			<linearGradient id="SVGID_65_" gradientUnits="userSpaceOnUse" x1="48.502" y1="18.0076" x2="217.1091" y2="310.0436">
				<stop  offset="0" style="stop-color:#FFD594"/>
				<stop  offset="1" style="stop-color:#BF8044"/>
			</linearGradient>
			<polygon class="st71" points="139,237.4 197,245.7 197,212.6 139,208 			"/>
			<linearGradient id="SVGID_66_" gradientUnits="userSpaceOnUse" x1="90.2181" y1="-16.6897" x2="260.8025" y2="278.771">
				<stop  offset="0" style="stop-color:#FFD594"/>
				<stop  offset="1" style="stop-color:#BF8044"/>
			</linearGradient>
			<polygon class="st72" points="202,246.7 266,256 266,218 202,213.3 			"/>
			<linearGradient id="SVGID_67_" gradientUnits="userSpaceOnUse" x1="44.8742" y1="-33.3011" x2="221.9607" y2="273.4216">
				<stop  offset="0" style="stop-color:#FFD594"/>
				<stop  offset="1" style="stop-color:#BF8044"/>
			</linearGradient>
			<polygon class="st73" points="85,113.3 135,104 135,45.7 85,62.4 			"/>
			<linearGradient id="SVGID_68_" gradientUnits="userSpaceOnUse" x1="28.0511" y1="-6.2239" x2="207.2117" y2="304.0913">
				<stop  offset="0" style="stop-color:#FFD594"/>
				<stop  offset="1" style="stop-color:#BF8044"/>
			</linearGradient>
			<polygon class="st74" points="135.2,108 85,117.3 85,163.8 135.2,161 			"/>
			<linearGradient id="SVGID_69_" gradientUnits="userSpaceOnUse" x1="16.763" y1="21.5999" x2="191.963" y2="325.0552">
				<stop  offset="0" style="stop-color:#FFD594"/>
				<stop  offset="1" style="stop-color:#BF8044"/>
			</linearGradient>
			<polygon class="st75" points="135,165.4 85.3,167.2 85.3,201.2 135,205 			"/>
			<linearGradient id="SVGID_70_" gradientUnits="userSpaceOnUse" x1="9.9408" y1="44.4468" x2="180.3226" y2="339.5567">
				<stop  offset="0" style="stop-color:#FFD594"/>
				<stop  offset="1" style="stop-color:#BF8044"/>
			</linearGradient>
			<polygon class="st76" points="135,207.7 85.5,203.9 85.5,228.8 135,237 			"/>
			<linearGradient id="SVGID_71_" gradientUnits="userSpaceOnUse" x1="8.332" y1="4.03" x2="183.2551" y2="307.0059">
				<stop  offset="0" style="stop-color:#FFD594"/>
				<stop  offset="1" style="stop-color:#BF8044"/>
			</linearGradient>
			<polygon class="st77" points="81,114.8 38.5,122 38.5,79.6 81,64.1 			"/>
			<linearGradient id="SVGID_72_" gradientUnits="userSpaceOnUse" x1="-15.1151" y1="53.0272" x2="155.8619" y2="349.1681">
				<stop  offset="0" style="stop-color:#FFD594"/>
				<stop  offset="1" style="stop-color:#BF8044"/>
			</linearGradient>
			<polygon class="st78" points="81,167.6 39,170.3 39,198.7 81,201.4 			"/>
			<linearGradient id="SVGID_73_" gradientUnits="userSpaceOnUse" x1="-33.4265" y1="60.1587" x2="132.9252" y2="348.2884">
				<stop  offset="0" style="stop-color:#FFD594"/>
				<stop  offset="1" style="stop-color:#BF8044"/>
			</linearGradient>
			<polygon class="st79" points="34,165.8 0,167.5 0,133.5 34,127.5 			"/>
			<linearGradient id="SVGID_74_" gradientUnits="userSpaceOnUse" x1="-44.3179" y1="101.791" x2="109.3566" y2="367.963">
				<stop  offset="0" style="stop-color:#FFD594"/>
				<stop  offset="1" style="stop-color:#BF8044"/>
			</linearGradient>
			<polygon class="st80" points="34,220 0.2,214.9 0.2,198.9 34,201.4 			"/>
			<linearGradient id="SVGID_75_" gradientUnits="userSpaceOnUse" x1="87.966" y1="-75.8722" x2="266.6152" y2="233.5573">
				<stop  offset="0" style="stop-color:#FFD594"/>
				<stop  offset="1" style="stop-color:#BF8044"/>
			</linearGradient>
			<polygon class="st81" points="139.3,103 198,93.7 198,24.7 139.3,44.3 			"/>
			<linearGradient id="SVGID_76_" gradientUnits="userSpaceOnUse" x1="115.0875" y1="-84.919" x2="293.2878" y2="223.7329">
				<stop  offset="0" style="stop-color:#FFD594"/>
				<stop  offset="1" style="stop-color:#BF8044"/>
			</linearGradient>
			<polygon class="st82" points="202,155.8 266,152.1 266,86.3 202,97.4 			"/>
		</g>
		<g id="right_1_">
			<linearGradient id="SVGID_77_" gradientUnits="userSpaceOnUse" x1="297.7182" y1="33.4922" x2="471.7182" y2="270.8255">
				<stop  offset="0" style="stop-color:#FFD594"/>
				<stop  offset="7.679945e-002" style="stop-color:#F6CA89"/>
				<stop  offset="0.3289" style="stop-color:#DEAA6B"/>
				<stop  offset="0.5723" style="stop-color:#CD9356"/>
				<stop  offset="0.801" style="stop-color:#C38548"/>
				<stop  offset="1" style="stop-color:#BF8044"/>
			</linearGradient>
			<polygon class="st83" points="399.1,160.2 340,155.4 340,98 399.1,107.5 			"/>
			<linearGradient id="SVGID_78_" gradientUnits="userSpaceOnUse" x1="228.5095" y1="84.2323" x2="402.5095" y2="321.5656">
				<stop  offset="0" style="stop-color:#FFD594"/>
				<stop  offset="7.679945e-002" style="stop-color:#F6CA89"/>
				<stop  offset="0.3289" style="stop-color:#DEAA6B"/>
				<stop  offset="0.5723" style="stop-color:#CD9356"/>
				<stop  offset="0.801" style="stop-color:#C38548"/>
				<stop  offset="1" style="stop-color:#BF8044"/>
			</linearGradient>
			<polygon class="st84" points="335.7,208.7 272,213.3 272,157 335.7,160.7 			"/>
			<linearGradient id="SVGID_79_" gradientUnits="userSpaceOnUse" x1="252.5413" y1="66.6135" x2="426.5413" y2="303.9468">
				<stop  offset="0" style="stop-color:#FFD594"/>
				<stop  offset="7.679945e-002" style="stop-color:#F6CA89"/>
				<stop  offset="0.3289" style="stop-color:#DEAA6B"/>
				<stop  offset="0.5723" style="stop-color:#CD9356"/>
				<stop  offset="0.801" style="stop-color:#C38548"/>
				<stop  offset="1" style="stop-color:#BF8044"/>
			</linearGradient>
			<polygon class="st85" points="399,237.4 341,245.7 341,212.6 399,208 			"/>
			<linearGradient id="SVGID_80_" gradientUnits="userSpaceOnUse" x1="332.0106" y1="8.3509" x2="506.0106" y2="245.6842">
				<stop  offset="0" style="stop-color:#FFD594"/>
				<stop  offset="7.679945e-002" style="stop-color:#F6CA89"/>
				<stop  offset="0.3289" style="stop-color:#DEAA6B"/>
				<stop  offset="0.5723" style="stop-color:#CD9356"/>
				<stop  offset="0.801" style="stop-color:#C38548"/>
				<stop  offset="1" style="stop-color:#BF8044"/>
			</linearGradient>
			<polygon class="st86" points="402.8,108 453,117.3 453,163.8 402.8,161 			"/>
			<linearGradient id="SVGID_81_" gradientUnits="userSpaceOnUse" x1="309.6125" y1="24.7719" x2="483.6125" y2="262.1053">
				<stop  offset="0" style="stop-color:#FFD594"/>
				<stop  offset="7.679945e-002" style="stop-color:#F6CA89"/>
				<stop  offset="0.3289" style="stop-color:#DEAA6B"/>
				<stop  offset="0.5723" style="stop-color:#CD9356"/>
				<stop  offset="0.801" style="stop-color:#C38548"/>
				<stop  offset="1" style="stop-color:#BF8044"/>
			</linearGradient>
			<polygon class="st87" points="403,165.4 452.7,167.2 452.7,201.2 403,205 			"/>
			<linearGradient id="SVGID_82_" gradientUnits="userSpaceOnUse" x1="293.1177" y1="36.865" x2="467.1177" y2="274.1984">
				<stop  offset="0" style="stop-color:#FFD594"/>
				<stop  offset="7.679945e-002" style="stop-color:#F6CA89"/>
				<stop  offset="0.3289" style="stop-color:#DEAA6B"/>
				<stop  offset="0.5723" style="stop-color:#CD9356"/>
				<stop  offset="0.801" style="stop-color:#C38548"/>
				<stop  offset="1" style="stop-color:#BF8044"/>
			</linearGradient>
			<polygon class="st88" points="403,207.7 452.5,203.9 452.5,228.8 403,237 			"/>
			<linearGradient id="SVGID_83_" gradientUnits="userSpaceOnUse" x1="384.7873" y1="-30.3422" x2="558.7874" y2="206.9911">
				<stop  offset="0" style="stop-color:#FFD594"/>
				<stop  offset="7.679945e-002" style="stop-color:#F6CA89"/>
				<stop  offset="0.3289" style="stop-color:#DEAA6B"/>
				<stop  offset="0.5723" style="stop-color:#CD9356"/>
				<stop  offset="0.801" style="stop-color:#C38548"/>
				<stop  offset="1" style="stop-color:#BF8044"/>
			</linearGradient>
			<polygon class="st89" points="457,114.8 499.5,122 499.5,79.6 457,64.1 			"/>
			<linearGradient id="SVGID_84_" gradientUnits="userSpaceOnUse" x1="342.3145" y1="0.7966" x2="516.3145" y2="238.1299">
				<stop  offset="0" style="stop-color:#FFD594"/>
				<stop  offset="7.679945e-002" style="stop-color:#F6CA89"/>
				<stop  offset="0.3289" style="stop-color:#DEAA6B"/>
				<stop  offset="0.5723" style="stop-color:#CD9356"/>
				<stop  offset="0.801" style="stop-color:#C38548"/>
				<stop  offset="1" style="stop-color:#BF8044"/>
			</linearGradient>
			<polygon class="st90" points="457,167.6 499,170.3 499,198.7 457,201.4 			"/>
			<linearGradient id="SVGID_85_" gradientUnits="userSpaceOnUse" x1="381.8223" y1="-40.0075" x2="562.4644" y2="206.3855">
				<stop  offset="0" style="stop-color:#FFD594"/>
				<stop  offset="7.679945e-002" style="stop-color:#F6CA89"/>
				<stop  offset="0.3289" style="stop-color:#DEAA6B"/>
				<stop  offset="0.5723" style="stop-color:#CD9356"/>
				<stop  offset="0.801" style="stop-color:#C38548"/>
				<stop  offset="1" style="stop-color:#BF8044"/>
			</linearGradient>
			<polygon class="st91" points="502.7,165.7 538,167.5 538,132.2 502.7,126 			"/>
			<linearGradient id="SVGID_86_" gradientUnits="userSpaceOnUse" x1="327.4105" y1="11.7234" x2="501.4105" y2="249.0567">
				<stop  offset="0" style="stop-color:#FFD594"/>
				<stop  offset="7.679945e-002" style="stop-color:#F6CA89"/>
				<stop  offset="0.3289" style="stop-color:#DEAA6B"/>
				<stop  offset="0.5723" style="stop-color:#CD9356"/>
				<stop  offset="0.801" style="stop-color:#C38548"/>
				<stop  offset="1" style="stop-color:#BF8044"/>
			</linearGradient>
			<polygon class="st92" points="398.8,103 340,93.7 340,24.7 398.8,44.3 			"/>
			<linearGradient id="SVGID_87_" gradientUnits="userSpaceOnUse" x1="375.4021" y1="-66.0695" x2="542.7125" y2="223.7206">
				<stop  offset="0" style="stop-color:#FFD594"/>
				<stop  offset="3.373080e-002" style="stop-color:#FCD190"/>
				<stop  offset="0.4666" style="stop-color:#DBA567"/>
				<stop  offset="0.8031" style="stop-color:#C78A4E"/>
				<stop  offset="1" style="stop-color:#BF8044"/>
			</linearGradient>
			<polygon class="st93" points="503,198.4 538.4,195.8 538.4,172.8 503,171 			"/>
			<linearGradient id="SVGID_88_" gradientUnits="userSpaceOnUse" x1="343.9514" y1="-17.4511" x2="503.9438" y2="259.6638">
				<stop  offset="0" style="stop-color:#FFD594"/>
				<stop  offset="3.373080e-002" style="stop-color:#FCD190"/>
				<stop  offset="0.4666" style="stop-color:#DBA567"/>
				<stop  offset="0.8031" style="stop-color:#C78A4E"/>
				<stop  offset="1" style="stop-color:#BF8044"/>
			</linearGradient>
			<polygon class="st94" points="456.6,227.7 499,221.3 499,201 456.6,203.8 			"/>
			<linearGradient id="SVGID_89_" gradientUnits="userSpaceOnUse" x1="250.9708" y1="-40.3925" x2="452.5495" y2="308.7522">
				<stop  offset="0" style="stop-color:#FFD594"/>
				<stop  offset="3.373080e-002" style="stop-color:#FCD190"/>
				<stop  offset="0.4666" style="stop-color:#DBA567"/>
				<stop  offset="0.8031" style="stop-color:#C78A4E"/>
				<stop  offset="1" style="stop-color:#BF8044"/>
			</linearGradient>
			<polygon class="st95" points="336.9,93 271.9,81.6 271.9,0 336.9,22.7 			"/>
		</g>
		<linearGradient id="line_6_" gradientUnits="userSpaceOnUse" x1="0.8282" y1="250.5172" x2="537.188" y2="250.5172">
			<stop  offset="0" style="stop-color:#FFD594"/>
			<stop  offset="1" style="stop-color:#BF8044"/>
		</linearGradient>
		<polyline id="line_1_" class="st96" points="1,229 270.5,276 537,225 		"/>
	</g>
</g>
</svg>
