<?xml version="1.0" encoding="utf-8"?>
<!-- Generator: Adobe Illustrator 18.0.0, SVG Export Plug-In . SVG Version: 6.00 Build 0)  -->
<!DOCTYPE svg PUBLIC "-//W3C//DTD SVG 1.1//EN" "http://www.w3.org/Graphics/SVG/1.1/DTD/svg11.dtd">
<svg version="1.1" id="Слой_1" xmlns="http://www.w3.org/2000/svg" xmlns:xlink="http://www.w3.org/1999/xlink" x="0px" y="0px"
	 width="39px" height="35px" viewBox="0 0 39 35" enable-background="new 0 0 39 35" xml:space="preserve">
<g>
	<g>
		<path fill="#FFFFFF" d="M19,9.2c0.1,0,0.2,0,0.3,0c1.5,0,3.1,0,4.6,0c0.8,0,1.3,0.5,1.3,1.3c0,1.5,0,3.1,0,4.6
			c0,0.6-0.5,1.1-1.1,1.2c-0.6,0.1-1.2-0.3-1.3-0.9c0-0.1,0-0.3,0-0.4c0-1,0-2,0-3.1c0-0.1,0-0.2,0-0.3c-1.3,0-2.5,0-3.8,0
			c0,0.1,0,0.2,0,0.3c0,5,0,9.9,0,14.9c0,0.2,0.1,0.3,0.3,0.3c1.1,0,2.1,0,3.2,0c0.1,0,0.2,0,0.3,0c0-0.1,0-0.2,0-0.3
			c0-1,0-2.1,0-3.1c0-0.8,0.6-1.3,1.3-1.3c0.6,0,1.1,0.5,1.1,1.1c0,1.6,0,3.3,0,4.9c0,0.6-0.6,1.2-1.2,1.2c-1.5,0-3.1,0-4.6,0
			c-0.1,0-0.2,0-0.3,0c0,0.2,0,0.4,0,0.6c0,1-0.7,1.5-1.6,1.3c-3.1-0.6-6.2-1.2-9.3-1.9C7.3,29.6,7,29.1,7,28.3c0-5.9,0-11.8,0-17.7
			c0-0.8,0.3-1.2,1.1-1.4c3.1-0.6,6.2-1.3,9.3-1.9C18.3,7.2,19,7.7,19,8.6C19,8.8,19,9,19,9.2z M14,19.5c0,0.7,0.6,1.3,1.3,1.3
			c0.7,0,1.3-0.6,1.3-1.3s-0.6-1.3-1.3-1.3C14.6,18.2,14,18.7,14,19.5z"/>
		<path fill="#FFFFFF" d="M30.3,18.2c-0.5-0.5-1-0.9-1.4-1.4c-0.7-0.7-0.3-1.8,0.6-2.1c0.4-0.1,0.8,0,1.1,0.3
			c1.2,1.2,2.5,2.4,3.7,3.7c0.5,0.5,0.5,1.2,0,1.7c-1.2,1.2-2.4,2.4-3.7,3.6c-0.5,0.5-1.3,0.4-1.7,0c-0.5-0.5-0.5-1.2,0-1.7
			c0.4-0.4,0.8-0.8,1.3-1.3c0.1-0.1,0.1-0.1,0.2-0.2c-0.1,0-0.2,0-0.3,0c-2.5,0-5,0-7.6,0c-0.7,0-1.2-0.3-1.3-0.9
			c-0.2-0.8,0.4-1.5,1.2-1.5c1.3,0,2.6,0,3.9,0c1.3,0,2.5,0,3.8,0C30.1,18.2,30.2,18.2,30.3,18.2C30.3,18.2,30.3,18.2,30.3,18.2z"/>
	</g>
</g>
</svg>
