<?xml version="1.0" encoding="utf-8"?>
<!-- Generator: Adobe Illustrator 18.0.0, SVG Export Plug-In . SVG Version: 6.00 Build 0)  -->
<!DOCTYPE svg PUBLIC "-//W3C//DTD SVG 1.1//EN" "http://www.w3.org/Graphics/SVG/1.1/DTD/svg11.dtd">
<svg version="1.1" id="Слой_1" xmlns="http://www.w3.org/2000/svg" xmlns:xlink="http://www.w3.org/1999/xlink" x="0px" y="0px"
	 width="22px" height="22px" viewBox="2 1.4 22 22" enable-background="new 2 1.4 22 22" xml:space="preserve">
<g>
	<g>
		<path fill="#08177C" d="M13,23.1c-3.1,0-6.2,0-9.3,0c-0.7,0-1.2-0.4-1.4-1.1c0-0.1,0-0.2,0-0.3c0-3.9,0-7.8,0-11.7
			c0-0.2,0.1-0.4,0.3-0.5C3.4,9,4.2,8.4,5,7.8C5,7.7,5,7.6,5,7.5c0-1,0-2.1,0-3.1C5,4,5.2,3.8,5.6,3.8c1.4,0,2.8,0,4.2,0
			c0.2,0,0.4-0.1,0.5-0.2c0.8-0.6,1.5-1.2,2.3-1.7c0.3-0.2,0.4-0.2,0.7,0c0.8,0.6,1.5,1.2,2.3,1.8c0.1,0.1,0.3,0.1,0.4,0.1
			c1.4,0,2.8,0,4.3,0C20.9,3.8,21,4,21,4.4c0,1,0,2,0,3.1c0,0.2,0,0.3,0.2,0.4C22,8.4,22.7,9,23.5,9.6c0.2,0.1,0.2,0.3,0.2,0.5
			c0,1.2,0,2.4,0,3.6c0,2.7,0,5.4,0,8.1c0,0.9-0.5,1.4-1.4,1.4C19.2,23.1,16.1,23.1,13,23.1z M5.9,4.7c0,0.1,0,0.2,0,0.2
			c0,2.2,0,4.4,0,6.6c0,0.1,0,0.2,0.2,0.3c2.3,1.7,4.5,3.4,6.8,5.2c0,0,0.1,0.1,0.1,0.1c0,0,0,0,0.1,0c2.3-1.7,4.6-3.5,6.9-5.2
			c0.1-0.1,0.1-0.2,0.1-0.3c0-2.2,0-4.4,0-6.6c0-0.1,0-0.2,0-0.2C15.4,4.7,10.7,4.7,5.9,4.7z M21.9,22.2c-2.4-1.8-4.7-3.6-7-5.4
			c-0.5,0.4-1,0.7-1.4,1.1c-0.4,0.3-0.5,0.3-0.8,0c-0.5-0.4-0.9-0.7-1.4-1.1c-2.3,1.8-4.7,3.5-7,5.4C10.1,22.2,16,22.2,21.9,22.2z
			 M15.6,16.3c2.4,1.8,4.8,3.7,7.2,5.5c0-3.7,0-7.3,0-11C20.4,12.7,18,14.5,15.6,16.3z M10.4,16.3c-2.4-1.8-4.8-3.6-7.2-5.5
			c0,3.7,0,7.3,0,11C5.6,20,8,18.2,10.4,16.3z M5,8.9C4.5,9.2,4,9.6,3.6,10c0.5,0.4,1,0.7,1.5,1.1C5,10.3,5,9.6,5,8.9z M21,8.9
			c0,0.8,0,1.5,0,2.2c0.5-0.4,1-0.7,1.5-1.1C22,9.6,21.5,9.2,21,8.9z M11.6,3.8c0.9,0,1.8,0,2.8,0c-0.5-0.3-0.9-0.7-1.3-1
			c0,0-0.1,0-0.2,0C12.5,3.2,12.1,3.5,11.6,3.8z"/>
	</g>
</g>
</svg>
