<?xml version="1.0" encoding="utf-8"?>
<!-- Generator: Adobe Illustrator 18.0.0, SVG Export Plug-In . SVG Version: 6.00 Build 0)  -->
<!DOCTYPE svg PUBLIC "-//W3C//DTD SVG 1.1//EN" "http://www.w3.org/Graphics/SVG/1.1/DTD/svg11.dtd">
<svg version="1.1" id="Слой_1" xmlns="http://www.w3.org/2000/svg" xmlns:xlink="http://www.w3.org/1999/xlink" x="0px" y="0px"
	 width="10px" height="18px" viewBox="4 4.8 10 18" enable-background="new 4 4.8 10 18" xml:space="preserve">
<g>
	<g>
		<path fill="#002B5E" d="M4.1,13.8c0-2.5,0-5.1,0-7.6c0-0.6,0.4-1.1,0.9-1.2c0.1,0,0.3,0,0.4,0c2.4,0,4.8,0,7.1,0
			c0.8,0,1.3,0.5,1.3,1.3c0,5.1,0,10.1,0,15.2c0,0.8-0.5,1.3-1.3,1.3c-2.4,0-4.8,0-7.1,0c-0.8,0-1.3-0.5-1.3-1.3
			C4.1,18.8,4.1,16.3,4.1,13.8z M13.1,19.4c0-4.3,0-8.6,0-12.8c-2.7,0-5.5,0-8.2,0c0,4.3,0,8.6,0,12.8C7.6,19.4,10.3,19.4,13.1,19.4
			z M9,21.6c0.4,0,0.7-0.3,0.8-0.7c0-0.4-0.3-0.8-0.7-0.8c-0.4,0-0.8,0.3-0.8,0.7C8.2,21.3,8.6,21.6,9,21.6z"/>
	</g>
</g>
</svg>
