<?xml version="1.0" encoding="utf-8"?>
<!-- Generator: Adobe Illustrator 18.0.0, SVG Export Plug-In . SVG Version: 6.00 Build 0)  -->
<!DOCTYPE svg PUBLIC "-//W3C//DTD SVG 1.1//EN" "http://www.w3.org/Graphics/SVG/1.1/DTD/svg11.dtd">
<svg version="1.1" id="Слой_1" xmlns="http://www.w3.org/2000/svg" xmlns:xlink="http://www.w3.org/1999/xlink" x="0px" y="0px"
	 width="84px" height="84px" viewBox="31 28.7 84 84" enable-background="new 31 28.7 84 84" xml:space="preserve">
<g>
	<path fill="#FFFFFF" d="M31,70.7c-0.2-22.9,18.9-42.1,42-41.9c23.1,0.1,41.9,18.8,42,41.9c0,23.1-19,42.1-42,42.1
		C49.8,112.7,31,93.9,31,70.7z M100.1,96.2c8.1-7.6,13.3-22.5,8.5-37c-5-15.5-19.5-26-35.6-26c-16.2,0-30.6,10.5-35.7,25.9
		c-4.8,14.7,0.5,29.6,8.5,37.2c3.5-7.1,9.6-11.3,16.7-14.2c-11.9-7.6-12.8-22.2-5.3-31c7.6-9,21.2-9.8,29.7-1.8
		c4.3,4,6.5,9.1,6.5,14.9c-0.1,7.7-3.6,13.5-10.1,17.8C90.6,85,96.5,89.2,100.1,96.2z M73.1,48.3c-9,0-16.2,7.1-16.2,16
		c0,8.7,7.2,16,15.9,16c8.7,0.1,16-7.2,16.1-15.9C89,55.6,81.9,48.3,73.1,48.3z M72.9,108.2c7.4-0.1,14.2-2,20.3-6
		c3.7-2.4,3.8-2.8,1.2-6.4C86.8,85.3,70.9,80.3,57.4,90c-3.2,2.2-5.8,4.9-7.5,8.5c-0.4,1-0.3,1.6,0.6,2.3
		C57.2,105.6,64.7,108.1,72.9,108.2z"/>
</g>
</svg>
