<?xml version="1.0" encoding="utf-8"?>
<!-- Generator: Adobe Illustrator 18.0.0, SVG Export Plug-In . SVG Version: 6.00 Build 0)  -->
<!DOCTYPE svg PUBLIC "-//W3C//DTD SVG 1.1//EN" "http://www.w3.org/Graphics/SVG/1.1/DTD/svg11.dtd">
<svg version="1.1" id="Слой_1" xmlns="http://www.w3.org/2000/svg" xmlns:xlink="http://www.w3.org/1999/xlink" x="0px" y="0px"
	 width="198px" height="198.1px" viewBox="4 5.6 198 198.1" enable-background="new 4 5.6 198 198.1" xml:space="preserve">
<linearGradient id="SVGID_1_" gradientUnits="userSpaceOnUse" x1="-387.4823" y1="565.3103" x2="-504.4389" y2="448.3538" gradientTransform="matrix(0.7071 0.7071 -0.7071 0.7071 776.6697 61.6077)">
	<stop  offset="0" style="stop-color:#08095D"/>
	<stop  offset="1" style="stop-color:#092BA3"/>
</linearGradient>
<path fill="url(#SVGID_1_)" stroke="#102771" stroke-width="5" stroke-miterlimit="10" d="M120.8,180c-9.8,9.8-25.8,9.8-35.7,0
	l-57.5-57.5c-9.8-9.8-9.8-25.8,0-35.7l57.5-57.5c9.8-9.8,25.8-9.8,35.7,0l57.5,57.5c9.8,9.8,9.8,25.8,0,35.7L120.8,180z"/>
<g opacity="0.15">
	<path fill="#FFFFFF" d="M103,203.7c-8.3,0-16-3.2-21.8-9.1L13,126.5c-12-12-12-31.7,0-43.7l68.1-68.1C87,8.8,94.7,5.6,103,5.6
		s16,3.2,21.8,9.1L193,82.8c12,12,12,31.7,0,43.7l-68.1,68.1C119,200.5,111.3,203.7,103,203.7z M103,7.6c-7.7,0-15,3-20.5,8.5
		L14.4,84.2c-11.3,11.3-11.3,29.6,0,40.9l68.1,68.1c5.5,5.5,12.7,8.5,20.5,8.5c7.7,0,15-3,20.5-8.5l68.1-68.1
		c11.3-11.3,11.3-29.6,0-40.9l-68.1-68.1C118,10.6,110.7,7.6,103,7.6z"/>
</g>
<g>
	<g>
		<path fill="#5473D8" d="M139.9,99c0.5,0,0.9,0,1.3,0c0.8,0,1.3,0.5,1.3,1.3c0,1.8,0,3.5,0,5.3c0,0.8-0.5,1.3-1.3,1.3s-1.7,0-2.6,0
			c0,0.3,0,0.6,0,0.9c0,9.7,0,19.3,0,29c0,1.4-0.4,1.8-1.8,1.8c-22.5,0-45.1,0-67.6,0c-1.4,0-1.8-0.4-1.8-1.8c0-9.7,0-19.3,0-29
			c0-0.3,0-0.6,0-0.9c-0.8,0-1.6,0-2.4,0c-1.2,0-1.6-0.4-1.6-1.6c0-1.5,0-3.1,0-4.6c0-1.2,0.4-1.6,1.6-1.6c0.3,0,0.6,0,1,0
			c0-0.3,0-0.6,0-0.9c0.1-2.1-0.1-4.3,0.2-6.4c0.5-3.6,2.3-6.4,5.2-8.6c0.1-0.1,0.2-0.2,0.4-0.3c-2.5-2.6-3.6-5.7-3-9.3
			c0.4-2.7,1.8-4.9,3.9-6.6c4.3-3.3,10.4-2.9,14.1,1.1c3.6,3.8,4.1,10.2,0.1,14.5c1.1,1.1,2.1,2.2,3.1,3.3c0.7-3.2,2.5-6.1,5.5-8.2
			c-2.5-2.7-3.6-5.8-3-9.5c0.5-2.6,1.8-4.7,3.9-6.4c4.1-3.2,10-2.9,13.8,0.7c3.6,3.4,4.9,10.1,0.1,15.1c2.9,2.1,4.8,4.9,5.5,8.2
			c1-1,2-2.1,3.1-3.2c-4.3-4.5-3.4-11.3,0.5-14.9c4-3.7,10.2-3.8,14.3-0.1c4,3.6,5.1,10.4,0.3,15.4c0.1,0.1,0.2,0.2,0.3,0.3
			c3.5,2.7,5.4,6.2,5.4,10.7c0,1.5,0,3,0,4.4C139.9,98.4,139.9,98.7,139.9,99z M70.1,135.8c22,0,43.9,0,65.8,0c0-9.7,0-19.3,0-28.9
			c-22,0-43.9,0-65.8,0C70.1,116.6,70.1,126.2,70.1,135.8z M92.6,98.9c7,0,13.9,0,20.9,0c0-3.8,0.1-7.5,0-11.3
			c-0.2-3.5-1.9-6.2-4.9-8.1c-0.2-0.2-0.7-0.2-0.9-0.1c-3.1,1.4-6.2,1.4-9.4,0c-0.2-0.1-0.7-0.1-0.9,0.1c-2.7,1.7-4.6,4.2-4.8,7.4
			C92.4,90.9,92.6,94.9,92.6,98.9z M137.3,99c0-2,0.1-3.9,0-5.7c-0.2-3.6-1.9-6.4-4.9-8.4c-0.3-0.2-0.6-0.3-1-0.1
			c-3.1,1.5-6.1,1.5-9.2,0c-0.4-0.2-0.7-0.2-1,0.1c-2.4,1.5-3.9,3.7-4.6,6.4c-0.6,2.6-0.2,5.2-0.3,7.8C123.3,99,130.2,99,137.3,99z
			 M68.7,98.9c7.1,0,14.1,0,21.1,0c0-1.9,0.1-3.8,0-5.7c-0.2-3.7-1.9-6.5-5-8.5c-0.2-0.1-0.6-0.1-0.9,0c-3.1,1.4-6.2,1.4-9.3,0
			c-0.2-0.1-0.6-0.1-0.9,0c-2,1.2-3.4,2.9-4.2,5C68.3,92.7,68.9,95.9,68.7,98.9z M103,62.1c-4.4,0-7.9,3.5-7.9,7.9s3.6,7.9,7.9,7.9
			s7.9-3.5,7.9-7.9S107.4,62.1,103,62.1z M126.7,83.1c4.4,0,7.9-3.5,7.9-7.8c0-4.4-3.5-8-7.8-8c-4.4,0-8,3.5-8,7.9
			C118.9,79.6,122.4,83.1,126.7,83.1z M87.2,75.2c-0.1-4.4-3.6-7.9-8-7.9c-4.4,0.1-7.9,3.7-7.8,8.1c0.1,4.3,3.7,7.7,8,7.7
			C83.8,83.1,87.3,79.5,87.2,75.2z M139.9,101.7c-24.6,0-49.2,0-73.7,0c0,0.9,0,1.7,0,2.5c24.6,0,49.1,0,73.7,0
			C139.9,103.3,139.9,102.5,139.9,101.7z"/>
		<path fill="#5473D8" d="M122.8,130.7c0,0.9,0,1.7,0,2.6c-0.9,0-1.7,0-2.6,0c0-0.9,0-1.7,0-2.6
			C121.1,130.7,121.9,130.7,122.8,130.7z"/>
		<path fill="#5473D8" d="M128,133.2c-0.9,0-1.7,0-2.5,0c0-0.9,0-1.7,0-2.6c0.9,0,1.7,0,2.5,0C128,131.5,128,132.3,128,133.2z"/>
		<path fill="#5473D8" d="M133.3,133.2c-0.9,0-1.7,0-2.5,0c0-0.9,0-1.7,0-2.6c0.8,0,1.6,0,2.5,0
			C133.3,131.5,133.3,132.3,133.3,133.2z"/>
		<path fill="#5473D8" d="M107,83.2c0,0.9,0,1.7,0,2.6c-0.9,0-1.7,0-2.6,0c0,3.5,0,7,0,10.5c-0.9,0-1.7,0-2.6,0c0-3.5,0-6.9,0-10.5
			c-0.9,0-1.7,0-2.6,0c0-0.9,0-1.7,0-2.6C101.7,83.2,104.3,83.2,107,83.2z"/>
		<path fill="#5473D8" d="M125.5,88.5c0.9,0,1.7,0,2.5,0c0,0.9,0,1.7,0,2.6c-0.8,0-1.7,0-2.5,0C125.5,90.2,125.5,89.4,125.5,88.5z"
			/>
		<path fill="#5473D8" d="M125.5,96.3c0-0.8,0-1.6,0-2.5c0.8,0,1.7,0,2.6,0c0,0.8,0,1.7,0,2.5C127.2,96.3,126.3,96.3,125.5,96.3z"/>
		<path fill="#5473D8" d="M80.6,91.1c-0.9,0-1.7,0-2.5,0c0-0.8,0-1.7,0-2.6c0.8,0,1.6,0,2.5,0C80.6,89.3,80.6,90.2,80.6,91.1z"/>
		<path fill="#5473D8" d="M80.6,93.8c0,0.9,0,1.7,0,2.5c-0.9,0-1.7,0-2.6,0c0-0.9,0-1.7,0-2.5C78.9,93.8,79.7,93.8,80.6,93.8z"/>
	</g>
</g>
<g>
	<path fill="#FFFFFF" d="M135.9,107.3h2.7v-0.4c0.9,0,1.8,0,2.6,0s1.3-0.5,1.3-1.3c0-1.8,0-3.5,0-5.3c0-0.8-0.5-1.3-1.3-1.3
		c-0.4,0-0.8,0-1.3,0v-0.8c0-1.5,0-3,0-4.4c-0.1-4.4-1.9-8-5.4-10.7c-0.1-0.1-0.2-0.2-0.3-0.3c4.7-4.9,3.7-11.7-0.3-15.4
		c-4.1-3.7-10.2-3.6-14.3,0.1c-4,3.7-4.9,10.4-0.5,14.9c-1.1,1.1-2.1,2.2-3.1,3.2c-0.7-3.2-2.5-6.1-5.5-8.2
		c4.8-5.1,3.5-11.7-0.1-15.1c-3.8-3.6-9.7-4-13.8-0.7c-2.1,1.6-3.4,3.8-3.9,6.4c-0.6,3.6,0.4,6.8,3,9.5c-3,2.1-4.8,5-5.5,8.2
		c-1-1.1-2.1-2.2-3.1-3.3c4.1-4.2,3.6-10.6-0.1-14.5s-9.8-4.4-14.1-1.1c-2.2,1.7-3.5,3.9-3.9,6.6c-0.6,3.6,0.5,6.6,3,9.3
		c-0.2,0.1-0.3,0.2-0.4,0.3c-2.9,2.2-4.7,5-5.2,8.6c-0.3,2.1-0.2,4.3-0.2,6.4c0,0.3,0,0.6,0,0.9c-0.4,0-0.7,0-1,0
		c-1.2,0-1.6,0.4-1.6,1.6c0,1.5,0,3.1,0,4.6c0,1.2,0.4,1.6,1.6,1.6c0.6,0,1.2,0,1.8,0c0.1-0.1,0.2-0.1,0.3-0.1
		c2.3,0,4.6,0.1,6.9,0.2H136L135.9,107.3L135.9,107.3z M118.9,75.3c0-4.4,3.6-7.9,8-7.9c4.3,0,7.9,3.6,7.8,8c0,4.3-3.6,7.8-7.9,7.8
		C122.4,83.1,118.9,79.6,118.9,75.3z M116.5,91.2c0.7-2.7,2.3-4.8,4.6-6.4c0.4-0.2,0.6-0.2,1-0.1c3.1,1.4,6.1,1.4,9.2,0
		c0.4-0.2,0.7-0.1,1,0.1c3,2,4.7,4.8,4.9,8.4c0.1,1.9,0,3.8,0,5.7h-21.1C116.4,96.3,115.9,93.7,116.5,91.2z M95.1,70
		c0-4.4,3.5-7.9,7.9-7.9s7.9,3.5,7.9,7.9c0,4.3-3.5,7.9-7.9,7.9C98.7,77.9,95.1,74.4,95.1,70z M92.7,86.9c0.2-3.2,2.1-5.6,4.8-7.4
		c0.2-0.1,0.6-0.2,0.9-0.1c3.1,1.4,6.2,1.4,9.4,0c0.3-0.1,0.7-0.1,0.9,0.1c2.9,1.9,4.7,4.6,4.9,8.1c0.2,3.7,0,7.5,0,11.3h-21
		C92.6,94.9,92.4,90.9,92.7,86.9z M71.4,75.5c-0.1-4.4,3.4-8,7.8-8.1s7.9,3.4,8,7.9c0.1,4.3-3.4,7.8-7.8,7.9
		C75.1,83.2,71.5,79.8,71.4,75.5z M69.6,89.8c0.9-2.1,2.3-3.8,4.2-5c0.2-0.1,0.6-0.2,0.9,0c3.1,1.4,6.2,1.4,9.3,0
		c0.2-0.1,0.7-0.1,0.9,0c3.1,2,4.8,4.8,5,8.5c0.1,1.9,0,3.8,0,5.7H68.7C68.9,95.9,68.3,92.7,69.6,89.8z M66.2,104.2v-2.5h73.7v2.5
		H66.2z"/>
	<path fill="#FFFFFF" d="M107,83.2c0,0.9,0,1.7,0,2.6c-0.9,0-1.7,0-2.6,0c0,3.5,0,7,0,10.5c-0.9,0-1.7,0-2.6,0c0-3.5,0-6.9,0-10.5
		c-0.9,0-1.7,0-2.6,0c0-0.9,0-1.7,0-2.6C101.7,83.2,104.3,83.2,107,83.2z"/>
	<path fill="#FFFFFF" d="M125.5,88.5c0.9,0,1.7,0,2.5,0c0,0.9,0,1.7,0,2.6c-0.8,0-1.7,0-2.5,0C125.5,90.2,125.5,89.4,125.5,88.5z"/>
	<path fill="#FFFFFF" d="M125.5,96.3c0-0.8,0-1.6,0-2.5c0.8,0,1.7,0,2.6,0c0,0.8,0,1.7,0,2.5C127.2,96.3,126.3,96.3,125.5,96.3z"/>
	<path fill="#FFFFFF" d="M80.6,91.1c-0.9,0-1.7,0-2.5,0c0-0.8,0-1.7,0-2.6c0.8,0,1.6,0,2.5,0C80.6,89.3,80.6,90.2,80.6,91.1z"/>
	<path fill="#FFFFFF" d="M80.6,93.8c0,0.9,0,1.7,0,2.5c-0.9,0-1.7,0-2.6,0c0-0.9,0-1.7,0-2.5C78.9,93.8,79.7,93.8,80.6,93.8z"/>
</g>
</svg>
