<?xml version="1.0" encoding="utf-8"?>
<!-- Generator: Adobe Illustrator 18.0.0, SVG Export Plug-In . SVG Version: 6.00 Build 0)  -->
<!DOCTYPE svg PUBLIC "-//W3C//DTD SVG 1.1//EN" "http://www.w3.org/Graphics/SVG/1.1/DTD/svg11.dtd">
<svg version="1.1" id="_1" xmlns="http://www.w3.org/2000/svg" xmlns:xlink="http://www.w3.org/1999/xlink" x="0px" y="0px"
	 viewBox="0 0 660 400" enable-background="new 0 0 660 400" xml:space="preserve">
<linearGradient id="SVGID_1_" gradientUnits="userSpaceOnUse" x1="634.6577" y1="430.3055" x2="15.5342" y2="-37.7216">
	<stop  offset="2.020200e-002" style="stop-color:#45108A"/>
	<stop  offset="0.2929" style="stop-color:#3D065F"/>
	<stop  offset="1" style="stop-color:#12054E"/>
	<stop  offset="1" style="stop-color:#10054D"/>
</linearGradient>
<rect x="0" y="0" fill="url(#SVGID_1_)" width="660" height="400"/>
<linearGradient id="SVGID_2_" gradientUnits="userSpaceOnUse" x1="634.6577" y1="430.3055" x2="15.5342" y2="-37.7216">
	<stop  offset="2.020200e-002" style="stop-color:#45108A"/>
	<stop  offset="0.2929" style="stop-color:#3D065F"/>
	<stop  offset="1" style="stop-color:#12054E"/>
	<stop  offset="1" style="stop-color:#10054D"/>
</linearGradient>
<rect x="0" y="0" fill="url(#SVGID_2_)" width="660" height="400"/>
<radialGradient id="SVGID_3_" cx="-5537.5713" cy="-481.1079" r="159.1776" gradientTransform="matrix(0.4167 0 0 0.8342 2782.2202 563.1173)" gradientUnits="userSpaceOnUse">
	<stop  offset="0" style="stop-color:#FA45C1"/>
	<stop  offset="0.2052" style="stop-color:#CB389D"/>
	<stop  offset="0.6676" style="stop-color:#571843"/>
	<stop  offset="1" style="stop-color:#000000"/>
</radialGradient>
<ellipse opacity="0.5" fill="url(#SVGID_3_)" cx="474.7" cy="161.8" rx="66.3" ry="132.8"/>
<radialGradient id="SVGID_4_" cx="-7243.2388" cy="-407.8056" r="159.1796" gradientTransform="matrix(0.3455 0 0 0.8016 3067.2539 552.5273)" gradientUnits="userSpaceOnUse">
	<stop  offset="0" style="stop-color:#FA45C1"/>
	<stop  offset="0.2052" style="stop-color:#CB389D"/>
	<stop  offset="0.6676" style="stop-color:#571843"/>
	<stop  offset="1" style="stop-color:#000000"/>
</radialGradient>
<ellipse opacity="0.5" fill="url(#SVGID_4_)" cx="564.7" cy="225.6" rx="55" ry="127.6"/>
<radialGradient id="SVGID_5_" cx="502.7141" cy="268.6362" r="133.6618" gradientUnits="userSpaceOnUse">
	<stop  offset="0" style="stop-color:#364F87"/>
	<stop  offset="3.874605e-003" style="stop-color:#3A3E87"/>
	<stop  offset="1.145768e-002" style="stop-color:#3F2386"/>
	<stop  offset="1.918563e-002" style="stop-color:#441086"/>
	<stop  offset="2.707107e-002" style="stop-color:#460586"/>
	<stop  offset="3.535350e-002" style="stop-color:#470186"/>
	<stop  offset="1" style="stop-color:#000000"/>
</radialGradient>
<polygon fill="url(#SVGID_5_)" points="441,10.9 441,167.4 659.2,293.2 659.2,136.7 "/>
<g>
	<defs>
		<polyline id="SVGID_6_" points="660,0 660,400 0,400 		"/>
	</defs>
	<clipPath id="SVGID_7_">
		<use xlink:href="#SVGID_6_"  overflow="visible"/>
	</clipPath>
	<g clip-path="url(#SVGID_7_)">
		<g opacity="0.2">
			<path opacity="0" d="M439.6,459.7c8.2,0,15.7-1.8,21.6-5.2L762,281.4c7.9-4.5,12.4-11.7,12.4-19.7c0-8.8-5.4-16.9-14.9-22.4
				l-129.7-74.9c-7.4-4.3-16.8-6.7-26.2-6.7c-8.2,0-15.7,1.8-21.6,5.2L281.2,336c-7.9,4.5-12.4,11.7-12.4,19.7
				c0,8.8,5.4,16.9,14.9,22.4l129.7,74.9C420.8,457.4,430.2,459.7,439.6,459.7z"/>
			<path opacity="9.090909e-002" d="M582.1,163.5L281.4,336.6c-7.6,4.4-11.8,11.2-11.8,18.8c0,8.3,5.2,16.1,14.3,21.3l123.9,71.5
				c0.2,0.1,6.3,3.6,6.5,3.6c7.6,4.2,17.1,6.3,26.4,5.9c7.5,0,15.9-2.6,21.3-5.7L761,280c7.6-4.4,11.8-11.2,11.8-18.8
				c0-8.3-5.2-16.1-14.3-21.3l-128.9-74.4c-2.7-1.6-6.4-3.2-9.6-4.2c-5.1-1.7-10.7-2.6-16.4-2.7C595.5,158.4,588,160.1,582.1,163.5z
				"/>
			<path opacity="0.1818" d="M582.4,164L281.6,337.1c-7.3,4.2-11.3,10.7-11.2,17.9c0.1,7.8,5,15.2,13.8,20.2l124.5,71.9
				c0.4,0.2,6.1,3.4,6.6,3.6c7.8,4.1,17.5,5.9,26.5,5.2c6.7,0,16.2-3.4,21-6.2l297.4-171.2c7.3-4.2,11.3-10.7,11.2-17.9
				c-0.1-7.8-5-15.2-13.8-20.2l-128.2-74c-2.4-1.4-6.7-3.4-9.5-4.3c-5.1-1.7-10.6-2.8-16.2-2.9C595.7,159,588.2,160.6,582.4,164z"/>
			<path opacity="0.2727" d="M582.6,164.5L281.9,337.6c-6.9,4-10.8,10.2-10.7,17c0.1,7.4,4.9,14.4,13.2,19.2L409.5,446
				c0.6,0.3,5.9,3.3,6.6,3.5c8,3.9,17.9,5.5,26.7,4.4c6,0,16.4-4.2,20.7-6.6L759.2,277c6.9-4,10.8-10.2,10.7-17
				c-0.1-7.4-4.9-14.4-13.2-19.2l-127.4-73.6c-2.2-1.2-6.9-3.5-9.4-4.4c-5-1.7-10.5-2.9-16.1-3.1
				C595.9,159.6,588.4,161.2,582.6,164.5z"/>
			<path opacity="0.3636" d="M582.9,165L282.1,338.1c-6.6,3.8-10.2,9.7-10.1,16.1c0.1,6.9,4.7,13.5,12.6,18.1l125.6,72.5
				c0.8,0.5,5.8,3.2,6.7,3.5c8.2,3.8,18.3,5.1,26.9,3.7c5.2,0,16.6-5,20.4-7.1l294.1-169.3c6.6-3.8,10.2-9.7,10.1-16.1
				c-0.1-6.9-4.7-13.5-12.6-18.1l-126.6-73.1c-1.9-1.1-7.1-3.7-9.2-4.5c-5-1.8-10.4-3.1-15.9-3.3C596.1,160.2,588.5,161.7,582.9,165
				z"/>
			<path opacity="0.4545" d="M583.1,165.5L282.4,338.6c-6.3,3.7-9.7,9.2-9.5,15.2c0.2,6.5,4.5,12.7,12,17l126.2,72.9
				c1,0.6,5.6,3.1,6.8,3.4c8.4,3.7,18.6,4.8,27.1,2.9c4.5,0,16.8-5.8,20.1-7.6l292.5-168.3c6.3-3.7,9.7-9.2,9.5-15.2
				c-0.2-6.5-4.5-12.7-12-17l-125.8-72.7c-1.6-0.9-7.3-3.8-9.1-4.5c-4.9-1.8-10.3-3.2-15.8-3.5C596.3,160.8,588.7,162.3,583.1,165.5
				z"/>
			<path opacity="0.5455" d="M583.3,166L282.6,339.2c-6,3.5-9.1,8.7-8.9,14.3c0.2,6,4.3,11.8,11.5,16l126.8,73.2
				c1.2,0.7,5.4,2.9,6.8,3.4c8.6,3.6,19,4.4,27.2,2.1c3.7,0,17.1-6.5,19.8-8.1l290.8-167.4c6-3.5,9.1-8.7,8.9-14.3
				c-0.2-6-4.3-11.8-11.5-16l-125.1-72.2c-1.3-0.8-7.5-4-9-4.6c-4.8-1.8-10.1-3.3-15.6-3.7C596.5,161.4,588.9,162.8,583.3,166z"/>
			<path opacity="0.6364" d="M583.6,166.6L282.8,339.7c-5.7,3.3-8.6,8.2-8.3,13.4c0.3,5.6,4.1,11,10.9,14.9l127.4,73.5
				c1.4,0.8,5.3,2.8,6.9,3.3c8.8,3.4,19.4,4,27.4,1.4c3,0,17.3-7.3,19.5-8.6l289.1-166.4c5.7-3.3,8.6-8.2,8.3-13.4
				c-0.3-5.6-4.1-11-10.9-14.9l-124.3-71.8c-1.1-0.6-7.7-4.2-8.9-4.7c-4.8-1.9-10-3.5-15.5-3.9C596.6,162.1,589.1,163.4,583.6,166.6
				z"/>
			<path opacity="0.7273" d="M583.8,167.1L283.1,340.2c-5.4,3.1-8.1,7.6-7.8,12.5c0.3,5.1,3.9,10.1,10.3,13.8l128,73.9
				c1.6,0.9,5.1,2.7,7,3.2c9,3.3,19.8,3.6,27.6,0.6c2.2,0,17.5-8.1,19.2-9.1l287.5-165.5c5.4-3.1,8.1-7.6,7.8-12.5
				c-0.3-5.1-3.9-10.1-10.3-13.8l-123.5-71.3c-0.8-0.5-7.9-4.4-8.8-4.7c-4.7-1.9-9.9-3.6-15.3-4.1
				C596.8,162.7,589.3,163.9,583.8,167.1z"/>
			<path opacity="0.8182" d="M584.1,167.6L283.3,340.7c-5.1,2.9-7.5,7.1-7.2,11.6c0.3,4.6,3.7,9.2,9.7,12.7l128.6,74.2
				c1.8,1,4.9,2.5,7,3.2c9.2,3.2,20.2,3.3,27.7-0.1c1.5,0,17.8-8.9,18.8-9.5l285.8-164.5c5.1-2.9,7.5-7.1,7.2-11.6
				c-0.3-4.6-3.7-9.3-9.7-12.7l-122.7-70.9c-0.5-0.3-8.1-4.5-8.7-4.8c-4.7-1.9-9.8-3.8-15.2-4.3C597,163.3,589.5,164.5,584.1,167.6z
				"/>
			<path opacity="0.9091" d="M584.3,168.1L283.6,341.2c-4.8,2.8-7,6.6-6.6,10.7c0.4,4.2,3.5,8.4,9.1,11.7l129.1,74.6
				c2,1.1,4.8,2.4,7.1,3.1c9.4,3.1,20.5,2.9,27.9-0.9c0.7,0,18-9.7,18.5-10l284.2-163.6c4.8-2.8,7-6.6,6.6-10.7
				c-0.4-4.2-3.5-8.4-9.1-11.7l-122-70.4c-0.3-0.2-8.3-4.7-8.6-4.9c-4.6-2-9.7-3.9-15-4.5C597.2,163.9,589.7,165,584.3,168.1z"/>
			<path d="M451.3,438.4L752,265.3c9-5.2,7.9-14.3-2.5-20.3l-129.7-74.9c-10.4-6-26.2-6.7-35.2-1.5L283.8,341.7
				c-9,5.2-7.9,14.3,2.5,20.3L416.1,437C426.5,443,442.2,443.6,451.3,438.4z"/>
		</g>
		
			<linearGradient id="SVGID_8_" gradientUnits="userSpaceOnUse" x1="6873.3818" y1="306.7695" x2="7355.5254" y2="306.7695" gradientTransform="matrix(-1 0 0 1 7633.6777 0)">
			<stop  offset="0" style="stop-color:#2F054A"/>
			<stop  offset="1" style="stop-color:#5824B0"/>
		</linearGradient>
		<path fill="url(#SVGID_8_)" d="M408.7,440.6l-121.3-70c-13.7-7.9-12-21.7,3.8-30.8l285.2-164.7c15.8-9.1,39.7-10.1,53.4-2.2
			l121.3,70c13.7,7.9,12,21.7-3.8,30.8L462,438.4C446.2,447.5,422.3,448.5,408.7,440.6z"/>
		
			<linearGradient id="SVGID_9_" gradientUnits="userSpaceOnUse" x1="6936.7705" y1="304.6912" x2="7418.9165" y2="304.6912" gradientTransform="matrix(-1 0 0 1 7633.6777 0)">
			<stop  offset="5.555560e-002" style="stop-color:#2F0D5E"/>
			<stop  offset="0.2777" style="stop-color:#2F105F"/>
			<stop  offset="0.4697" style="stop-color:#311B61"/>
			<stop  offset="0.482" style="stop-color:#351F65"/>
			<stop  offset="0.4954" style="stop-color:#422C73"/>
			<stop  offset="0.5093" style="stop-color:#584188"/>
			<stop  offset="0.5235" style="stop-color:#765FA7"/>
			<stop  offset="0.5303" style="stop-color:#8770B8"/>
			<stop  offset="0.5366" style="stop-color:#7E67AE"/>
			<stop  offset="0.5617" style="stop-color:#5C468D"/>
			<stop  offset="0.5857" style="stop-color:#442E75"/>
			<stop  offset="0.6078" style="stop-color:#362066"/>
			<stop  offset="0.6263" style="stop-color:#311B61"/>
			<stop  offset="0.6724" style="stop-color:#2A1155"/>
			<stop  offset="0.7491" style="stop-color:#230446"/>
			<stop  offset="0.8131" style="stop-color:#200041"/>
			<stop  offset="1" style="stop-color:#200041"/>
		</linearGradient>
		<path fill="url(#SVGID_9_)" d="M408.7,438.5l-121.3-70c-6.1-3.5-9.2-8.2-9.2-13.2c0-0.4,0-9.9,0-10.4c0.5-5.7,4.9-2.6,13-7.3
			l285.2-164.7c15.8-9.1,39.7-10.1,53.4-2.2l121.3,70c6.1,3.5,9.1-2.7,9.2,2.3c0,0.4,0,11.8,0,12.2c-0.5,5.7-4.9,11.7-13,16.4
			L462,436.3C446.2,445.4,422.3,446.4,408.7,438.5z"/>
		
			<linearGradient id="SVGID_10_" gradientUnits="userSpaceOnUse" x1="6873.3818" y1="294.2987" x2="7355.5254" y2="294.2987" gradientTransform="matrix(-1 0 0 1 7633.6777 0)">
			<stop  offset="0" style="stop-color:#58098A"/>
			<stop  offset="1" style="stop-color:#9E3BDB"/>
		</linearGradient>
		<path fill="url(#SVGID_10_)" d="M408.7,428.2l-121.3-70c-13.7-7.9-12-21.7,3.8-30.8l285.2-164.7c15.8-9.1,39.7-10.1,53.4-2.2
			l121.3,70c13.7,7.9,12,21.7-3.8,30.8L462,425.9C446.2,435.1,422.3,436,408.7,428.2z"/>
		<linearGradient id="SVGID_11_" gradientUnits="userSpaceOnUse" x1="181.8224" y1="358.6232" x2="663.9689" y2="358.6232">
			<stop  offset="5.555560e-002" style="stop-color:#2F0D5E"/>
			<stop  offset="0.2777" style="stop-color:#2F105F"/>
			<stop  offset="0.4697" style="stop-color:#311B61"/>
			<stop  offset="0.482" style="stop-color:#351F65"/>
			<stop  offset="0.4954" style="stop-color:#422C73"/>
			<stop  offset="0.5093" style="stop-color:#584188"/>
			<stop  offset="0.5235" style="stop-color:#765FA7"/>
			<stop  offset="0.5303" style="stop-color:#8770B8"/>
			<stop  offset="0.5366" style="stop-color:#7E67AE"/>
			<stop  offset="0.5617" style="stop-color:#5C468D"/>
			<stop  offset="0.5857" style="stop-color:#442E75"/>
			<stop  offset="0.6078" style="stop-color:#362066"/>
			<stop  offset="0.6263" style="stop-color:#311B61"/>
			<stop  offset="0.6724" style="stop-color:#2A1155"/>
			<stop  offset="0.7491" style="stop-color:#230446"/>
			<stop  offset="0.8131" style="stop-color:#200041"/>
			<stop  offset="1" style="stop-color:#200041"/>
		</linearGradient>
		<path opacity="0.2" fill="url(#SVGID_11_)" d="M760.3,259c0-0.7-0.1-1.2-0.2-1.5c1.2,6.7-3.1,14-12.8,19.6L462,441.8
			c-15.8,9.1-39.7,10.1-53.4,2.2l-121.3-70c-5.9-3.4-8.9-7.9-9.2-12.7c0,2,0,9.5,0,9.9c0.1,4.9,3.1,9.6,9.2,13.2l121.3,70
			c13.7,7.9,37.6,6.9,53.4-2.2l285.2-164.7c8.1-4.7,12.5-10.6,13-16.4C760.3,270.8,760.3,259.4,760.3,259z"/>
		<radialGradient id="SVGID_12_" cx="486.9526" cy="347.6275" r="183.2585" gradientUnits="userSpaceOnUse">
			<stop  offset="0" style="stop-color:#FFFFFF"/>
			<stop  offset="1" style="stop-color:#000000"/>
		</radialGradient>
		<path fill="url(#SVGID_12_)" d="M287.4,356.8l121.3,70c13.7,7.9,37.6,6.9,53.4-2.2l285.2-164.7c8.3-4.8,12.7-10.9,13-16.7
			c0.3,6.3-4.1,12.9-13,18.1L462,425.9c-15.8,9.1-39.7,10.1-53.4,2.2l-121.3-70c-6.5-3.7-9.5-8.8-9.2-14.1
			C278.4,348.8,281.5,353.3,287.4,356.8z"/>
		
			<linearGradient id="SVGID_13_" gradientUnits="userSpaceOnUse" x1="6878.1987" y1="294.2989" x2="7350.7085" y2="294.2989" gradientTransform="matrix(-1 0 0 1 7633.6777 0)">
			<stop  offset="0" style="stop-color:#2F054A"/>
			<stop  offset="1" style="stop-color:#5E1D9A"/>
		</linearGradient>
		<path fill="url(#SVGID_13_)" d="M294.4,329.4L580,164.5c13.8-8,34.8-8.9,46.8-1.9l120.6,69.7c12,6.9,10.5,19-3.4,27L458.5,424.1
			c-13.9,8-34.8,8.9-46.8,1.9l-120.6-69.7C279.1,349.5,280.6,337.4,294.4,329.4z"/>
		<path fill="#1F0D3D" d="M300,331.7l284.1-164c11.6-6.7,29.1-7.4,39.2-1.6l118.1,68.2c10,5.8,8.8,15.9-2.8,22.6l-284.1,164
			c-11.6,6.7-29.1,7.4-39.2,1.6l-118.1-68.2C287.1,348.6,288.4,338.4,300,331.7z"/>
		<path fill="#3D065F" d="M723.5,226.8c-5.8,3.4-15.3,3.3-21.2,0l-66.1-38.1c-5.9-3.4-5.9-8.9-0.1-12.2l-14-8.1
			c-9.5-5.5-24.8-5.5-34.2-0.1L300.8,334c-9.4,5.4-9.4,14.3,0.1,19.7l115.3,66.6c9.5,5.5,24.8,5.5,34.2,0.1l287.2-165.8
			c9.4-5.4,9.4-14.3-0.1-19.7L723.5,226.8z"/>
		<linearGradient id="SVGID_14_" gradientUnits="userSpaceOnUse" x1="543.2712" y1="174.0598" x2="459.5863" y2="592.4854">
			<stop  offset="1.010100e-002" style="stop-color:#9F19AB"/>
			<stop  offset="0.4293" style="stop-color:#5F27BD"/>
			<stop  offset="0.904" style="stop-color:#3D065F"/>
		</linearGradient>
		<path fill="url(#SVGID_14_)" d="M433.4,422.1c6,0,11.6-1.3,15.8-3.7l287.2-165.8c3.8-2.2,5.8-4.9,5.8-7.8c0-2.9-2.1-5.7-6-7.9
			l-12.9-7.4c-3,1.4-6.6,2.2-10.5,2.2c-4.4,0-8.6-1-11.8-2.9l-66.1-38.1c-3.6-2.1-5.6-5-5.6-8.2c0-2.1,0.9-4.1,2.5-5.8l-11-6.4
			c-4.2-2.5-9.9-3.8-16-3.8c-6,0-11.6,1.3-15.8,3.7L302,336.1c-3.8,2.2-5.9,4.9-5.9,7.8c0,2.9,2.1,5.7,6,7.9l115.3,66.6
			C421.7,420.8,427.3,422.1,433.4,422.1z"/>
		
			<linearGradient id="SVGID_15_" gradientUnits="userSpaceOnUse" x1="9163.3359" y1="-720.3413" x2="9186.5752" y2="-720.3413" gradientTransform="matrix(-0.866 0.5 -0.5 1.4434 8285.3174 -3254.0493)">
			<stop  offset="0" style="stop-color:#3D065F"/>
			<stop  offset="1" style="stop-color:#5F27BD"/>
		</linearGradient>
		<path fill="url(#SVGID_15_)" d="M693.4,301.5l13.2-7.6c1.6-1,3-3.5,3-5.7l0,0c0-2.2-1.3-3.2-3-2.3l-13.2,7.6c-1.6,1-3,3.5-3,5.7
			l0,0C690.4,301.4,691.7,302.4,693.4,301.5z"/>
		
			<linearGradient id="SVGID_16_" gradientUnits="userSpaceOnUse" x1="9163.3359" y1="-720.3413" x2="9186.5752" y2="-720.3413" gradientTransform="matrix(-0.866 0.5 -0.5 1.4434 8285.3174 -3254.0493)">
			<stop  offset="0" style="stop-color:#2F054A"/>
			<stop  offset="1" style="stop-color:#5824B0"/>
		</linearGradient>
		<path fill="url(#SVGID_16_)" d="M693.4,301.5l13.2-7.6c1.6-1,3-3.5,3-5.7l0,0c0-2.2-1.3-3.2-3-2.3l-13.2,7.6c-1.6,1-3,3.5-3,5.7
			l0,0C690.4,301.4,691.7,302.4,693.4,301.5z"/>
		
			<linearGradient id="SVGID_17_" gradientUnits="userSpaceOnUse" x1="9138.0391" y1="-651.4966" x2="9128.4268" y2="-633.5717" gradientTransform="matrix(-0.866 0.5 -0.5 1.4434 8285.3174 -3254.0493)">
			<stop  offset="5.555560e-002" style="stop-color:#9F79B8"/>
			<stop  offset="0.2575" style="stop-color:#A17BBA"/>
			<stop  offset="0.3569" style="stop-color:#A783BF"/>
			<stop  offset="0.4338" style="stop-color:#B290C9"/>
			<stop  offset="0.4949" style="stop-color:#C1A1D5"/>
			<stop  offset="0.5067" style="stop-color:#C4A5D7"/>
			<stop  offset="0.5196" style="stop-color:#CDB3DD"/>
			<stop  offset="0.5329" style="stop-color:#DBC8E7"/>
			<stop  offset="0.5466" style="stop-color:#EFE7F4"/>
			<stop  offset="0.5556" style="stop-color:#FFFFFF"/>
			<stop  offset="0.5678" style="stop-color:#ECE0F3"/>
			<stop  offset="0.5801" style="stop-color:#DDC8EA"/>
			<stop  offset="0.5915" style="stop-color:#D4B9E5"/>
			<stop  offset="0.601" style="stop-color:#D1B4E3"/>
			<stop  offset="0.658" style="stop-color:#B395D6"/>
			<stop  offset="0.7155" style="stop-color:#9C7DCB"/>
			<stop  offset="0.7687" style="stop-color:#8E6EC5"/>
			<stop  offset="0.8131" style="stop-color:#8969C3"/>
			<stop  offset="1" style="stop-color:#B086CC"/>
		</linearGradient>
		<path fill="url(#SVGID_17_)" d="M692.2,301.1c0.2,0,0.5-0.1,0.8-0.3l13.2-7.6c1.4-0.8,2.6-3.1,2.6-5c0-0.8-0.3-1.8-1-1.8
			c-0.2,0-0.5,0.1-0.8,0.3l-13.2,7.6c-1.4,0.8-2.6,3.1-2.6,5C691.2,300.1,691.4,301.1,692.2,301.1z"/>
		
			<linearGradient id="SVGID_18_" gradientUnits="userSpaceOnUse" x1="9190.5918" y1="-720.3436" x2="9213.8271" y2="-720.3436" gradientTransform="matrix(-0.866 0.5 -0.5 1.4434 8285.3174 -3254.0493)">
			<stop  offset="0" style="stop-color:#3D065F"/>
			<stop  offset="1" style="stop-color:#5F27BD"/>
		</linearGradient>
		<path fill="url(#SVGID_18_)" d="M669.8,315.1l13.2-7.6c1.7-1,3-3.5,3-5.7l0,0c0-2.2-1.3-3.2-3-2.3l-13.2,7.6c-1.7,1-3,3.5-3,5.7
			l0,0C666.8,315.1,668.1,316.1,669.8,315.1z"/>
		
			<linearGradient id="SVGID_19_" gradientUnits="userSpaceOnUse" x1="9190.5918" y1="-720.3436" x2="9213.8271" y2="-720.3436" gradientTransform="matrix(-0.866 0.5 -0.5 1.4434 8285.3174 -3254.0493)">
			<stop  offset="0" style="stop-color:#2F054A"/>
			<stop  offset="1" style="stop-color:#5824B0"/>
		</linearGradient>
		<path fill="url(#SVGID_19_)" d="M669.8,315.1l13.2-7.6c1.7-1,3-3.5,3-5.7l0,0c0-2.2-1.3-3.2-3-2.3l-13.2,7.6c-1.7,1-3,3.5-3,5.7
			l0,0C666.8,315.1,668.1,316.1,669.8,315.1z"/>
		
			<linearGradient id="SVGID_20_" gradientUnits="userSpaceOnUse" x1="9159.1895" y1="-640.116" x2="9149.5732" y2="-622.184" gradientTransform="matrix(-0.866 0.5 -0.5 1.4434 8285.3174 -3254.0493)">
			<stop  offset="5.555560e-002" style="stop-color:#9F79B8"/>
			<stop  offset="0.2575" style="stop-color:#A17BBA"/>
			<stop  offset="0.3569" style="stop-color:#A783BF"/>
			<stop  offset="0.4338" style="stop-color:#B290C9"/>
			<stop  offset="0.4949" style="stop-color:#C1A1D5"/>
			<stop  offset="0.5067" style="stop-color:#C4A5D7"/>
			<stop  offset="0.5196" style="stop-color:#CDB3DD"/>
			<stop  offset="0.5329" style="stop-color:#DBC8E7"/>
			<stop  offset="0.5466" style="stop-color:#EFE7F4"/>
			<stop  offset="0.5556" style="stop-color:#FFFFFF"/>
			<stop  offset="0.5678" style="stop-color:#ECE0F3"/>
			<stop  offset="0.5801" style="stop-color:#DDC8EA"/>
			<stop  offset="0.5915" style="stop-color:#D4B9E5"/>
			<stop  offset="0.601" style="stop-color:#D1B4E3"/>
			<stop  offset="0.658" style="stop-color:#B395D6"/>
			<stop  offset="0.7155" style="stop-color:#9C7DCB"/>
			<stop  offset="0.7687" style="stop-color:#8E6EC5"/>
			<stop  offset="0.8131" style="stop-color:#8969C3"/>
			<stop  offset="1" style="stop-color:#B086CC"/>
		</linearGradient>
		<path fill="url(#SVGID_20_)" d="M668.6,314.7c0.2,0,0.5-0.1,0.8-0.3l13.2-7.6c1.4-0.8,2.6-3.1,2.6-5c0-0.8-0.3-1.8-1-1.8
			c-0.2,0-0.5,0.1-0.8,0.3l-13.2,7.6c-1.4,0.8-2.6,3.1-2.6,5C667.6,313.7,667.8,314.7,668.6,314.7z"/>
		<path fill="#3D065F" d="M554.6,372.8L747.2,261c8.1-4.7,12.5-10.6,13-16.4c0-0.2,0-2.5,0-5.1c0,0,0,11.9,0,12.3
			c-0.5,5.7-4.9,11.7-13,16.4L554.6,372.8z"/>
		
			<radialGradient id="SVGID_21_" cx="7805.186" cy="2763.7761" r="45.2407" gradientTransform="matrix(-0.9249 -0.3801 -0.2523 0.614 8355.3408 1707.3756)" gradientUnits="userSpaceOnUse">
			<stop  offset="0" style="stop-color:#972A74"/>
			<stop  offset="4.128253e-002" style="stop-color:#8A266A"/>
			<stop  offset="0.1941" style="stop-color:#601B4A"/>
			<stop  offset="0.35" style="stop-color:#3D112F"/>
			<stop  offset="0.5074" style="stop-color:#220A1B"/>
			<stop  offset="0.6667" style="stop-color:#0F040C"/>
			<stop  offset="0.8293" style="stop-color:#040103"/>
			<stop  offset="1" style="stop-color:#000000"/>
		</radialGradient>
		<path fill="url(#SVGID_21_)" d="M397.2,420.4c-6.3,15.3,7.3,35.5,30.4,45c23.1,9.5,47,4.8,53.3-10.6c6.3-15.3-7.3-35.5-30.4-45
			C427.3,400.3,403.5,405,397.2,420.4z"/>
		<path d="M336.9,396.3l21.7,12.5l0,0c0-4-2.4-8.6-5.4-10.3l-10.9-6.3C339.4,390.5,336.9,392.3,336.9,396.3L336.9,396.3z"/>
	</g>
</g>
<g>
	<path opacity="0.1" d="M456.5,288.5c18.2,7.6,27.2,1.6,40.9-6.3c13.7-7.9,15.2-15.7,4.7-20.6c-19.8-9.3-31.1,0.1-44.8,8
		C443.6,277.5,445.8,284.1,456.5,288.5z"/>
	<path opacity="0.1" d="M533.5,339.5c20,7.6,28.9,1.8,42.6-6.1c13.7-7.9,19.6-14.7,4.7-20.6c-14.6-5.8-29.2,0.3-42.8,8.2
		C524.4,328.9,522.7,335.4,533.5,339.5z"/>
	<radialGradient id="SVGID_22_" cx="544.9277" cy="248.0601" r="13.3043" gradientUnits="userSpaceOnUse">
		<stop  offset="3.030300e-002" style="stop-color:#FEDFCB"/>
		<stop  offset="0.7778" style="stop-color:#F9B69E"/>
		<stop  offset="0.9949" style="stop-color:#F2A78C"/>
	</radialGradient>
	<path fill="url(#SVGID_22_)" d="M535.7,242.7c-0.2,3-1.4,5.9-2.2,7.6c-0.9,1.9-1.2,4.1-2.3,3.8c-1-0.4,0.3-9.3,0.3-9.3L535.7,242.7
		z"/>
	<path fill="#10054D" d="M582.9,321.3c0,0,1,3.8,0.2,5.5c-0.8,1.6-4.3,2.9-7.2,1.5c-2.8-1.4-4.1-4.3-5.2-5.1
		c-1.1-0.8-7.2-1.5-11.7-5.3c-4.5-3.8-3.9-8.1,0.6-8.2c4.5-0.1,12.8,2,15.7,3.9C578.4,315.6,582.9,321.3,582.9,321.3z"/>
	<linearGradient id="SVGID_23_" gradientUnits="userSpaceOnUse" x1="570.068" y1="320.0397" x2="570.068" y2="304.9145">
		<stop  offset="9.090910e-002" style="stop-color:#25054D"/>
		<stop  offset="0.4708" style="stop-color:#330A68"/>
		<stop  offset="0.8939" style="stop-color:#45108A"/>
	</linearGradient>
	<path fill="url(#SVGID_23_)" d="M580.8,325.4c-3.3,0.7-7.4-2.2-9.3-3.8c-1.9-1.6-5.3-0.8-9.7-4.2c-4.4-3.5-5.9-5.8-3.9-7
		s9.3-0.8,15,2.3c5.7,3.1,9.5,5.3,9.5,5.3s1.4,4.2,0.7,5.2C582.3,324,582.6,325,580.8,325.4z"/>
	<linearGradient id="SVGID_24_" gradientUnits="userSpaceOnUse" x1="561.9669" y1="276.5005" x2="584.7171" y2="276.5005">
		<stop  offset="3.535350e-002" style="stop-color:#138BBD"/>
		<stop  offset="0.2257" style="stop-color:#169AC7"/>
		<stop  offset="0.5946" style="stop-color:#1FC3DF"/>
		<stop  offset="1" style="stop-color:#2AF6FF"/>
	</linearGradient>
	<path fill="url(#SVGID_24_)" d="M580.8,228.4c0,0,2.4,10.4,0.8,23.5c-1.6,13.2,0.9,39.6,1.5,48.9c0.6,9.3,3.8,20.8-0.9,23.2
		c-2.7,1.4-7.6,0.6-11.4-3.8c-3.8-4.4-4.6-8.7-4.2-9.5c0.5-0.8,1.2-4.4-0.3-12.1c-1.5-7.7-4.5-26.5-4.3-32.7
		c0.2-6.1,2.4-34.8,2.4-34.8L580.8,228.4z"/>
	<path fill="#D1D3D4" d="M562,266c-0.2,6.1,2.8,24.9,4.3,32.7c1.5,7.7,0.8,11.3,0.3,12.1c-0.5,0.8,0.3,5.1,4.2,9.5
		c1.5,1.7,3.2,2.9,4.8,3.6c-1.6-3.1-4.1-9.5-4.1-20.1c0-15.9-3.3-36.2-3.8-47.3c-0.3-6.5,1.3-18.8,1.3-26.6l-4.5,1.3
		C564.4,231.1,562.2,259.9,562,266z"/>
	
		<radialGradient id="SVGID_25_" cx="92.8263" cy="507.5578" r="17.1224" gradientTransform="matrix(0.997 7.750000e-002 -7.750000e-002 0.997 479.0681 -337.3189)" gradientUnits="userSpaceOnUse">
		<stop  offset="3.030300e-002" style="stop-color:#FEDFCB"/>
		<stop  offset="0.7778" style="stop-color:#F9B69E"/>
		<stop  offset="0.9949" style="stop-color:#F2A78C"/>
	</radialGradient>
	<path fill="url(#SVGID_25_)" d="M534.6,160.5c0,0-9.9-1-13.8,0.9c-3.9,1.9-10.3,8.1-10.3,10.1c0,1.8,5.3,4.1,8.5,3.2
		c3.2-0.9,3.6-1.4,6.2-1.9c2.6-0.5,7.8-2.2,9.7-3.2C536.7,168.5,534.6,160.5,534.6,160.5z"/>
	<path fill="#10054D" d="M477.9,256.1l-1.3,7.5c0,0,3.7,2.2,5.4,2.7c1.7,0.5,4.5-0.5,5.8,1.2c1.4,1.8,7.1,6.3,11.8,7.2
		c5.1,1,8.6-0.6,8.7-2.1c0.1-1.5-1.2-3.8-5.8-6.8c-4.6-3-8.5-10.3-8.5-10.3L477.9,256.1z"/>
	<linearGradient id="SVGID_26_" gradientUnits="userSpaceOnUse" x1="477.4092" y1="264.469" x2="507.6602" y2="264.469">
		<stop  offset="9.090910e-002" style="stop-color:#25054D"/>
		<stop  offset="0.4708" style="stop-color:#330A68"/>
		<stop  offset="0.8939" style="stop-color:#45108A"/>
	</linearGradient>
	<path fill="url(#SVGID_26_)" d="M477.5,260.8c0.7,0.8,9.2,2.8,10.6,4.6c1.6,2,9.5,6.9,13.5,7.6c3.6,0.6,6.4-1.2,6.1-2.6
		c-0.5-2-3.8-3.8-6.8-6.1c-2.9-2.2-6.1-7.4-6.1-7.4l-17.4-1.2L477.5,260.8z"/>
	<path fill="#10054D" d="M452.9,269.7l-0.2,6.9l3.2,3.2l1-0.4c0,0,2.1,5.1,8.1,9c5.2,3.4,11.5,2.6,13.1,1.3c1.5-1.2,1.5-2.4-2.3-7.5
		c-3.8-5.2-9.4-12.6-9.4-12.6L452.9,269.7z"/>
	<linearGradient id="SVGID_27_" gradientUnits="userSpaceOnUse" x1="453.1103" y1="279.8099" x2="478.4226" y2="279.8099">
		<stop  offset="9.090910e-002" style="stop-color:#25054D"/>
		<stop  offset="0.4708" style="stop-color:#330A68"/>
		<stop  offset="0.8939" style="stop-color:#45108A"/>
	</linearGradient>
	<path fill="url(#SVGID_27_)" d="M453.3,273.7c0,0,5.6,5.2,7.5,8.2c2.9,4.6,10.6,8.1,15.7,6.4c5.1-1.7-1.8-7-3.2-9.3
		c-1.4-2.3-5.3-8.1-5.3-8.1l-15-0.2L453.3,273.7z"/>
	<linearGradient id="SVGID_28_" gradientUnits="userSpaceOnUse" x1="476.825" y1="216.8506" x2="496.6807" y2="216.8506">
		<stop  offset="3.535350e-002" style="stop-color:#6B24D6"/>
		<stop  offset="0.2945" style="stop-color:#7733DC"/>
		<stop  offset="0.7943" style="stop-color:#975CED"/>
		<stop  offset="1" style="stop-color:#A56EF4"/>
	</linearGradient>
	<path fill="url(#SVGID_28_)" d="M495.2,170.7c0,0,1.6,33.1,1.3,41.1c-0.2,8-4.8,28.7-4,32.4c0.8,3.7,2.5,6.9,3,9.3
		c0.5,2.3,1.1,5.5,1.1,5.5s-5,4.7-10.6,4c-5.7-0.7-8.6-1.7-9.1-3.1c-0.5-1.4,0.8-37.5,0.8-37.5l-0.8-46.8L495.2,170.7z"/>
	<path fill="#D1D3D4" d="M481.5,252.8c-0.8-9.2,1.9-20.7,4.7-33.1c2.4-10.5,1.1-36,0.7-43.8l-9.8,2.6l0.6,43.9
		c0,0-1.3,36.1-0.8,37.5c0.5,1.3,3.2,2.3,8.4,3C483.6,259.7,481.8,255.6,481.5,252.8z"/>
	<linearGradient id="SVGID_29_" gradientUnits="userSpaceOnUse" x1="451.9053" y1="223.8965" x2="479.5478" y2="223.8965">
		<stop  offset="3.535350e-002" style="stop-color:#6B24D6"/>
		<stop  offset="0.2945" style="stop-color:#7733DC"/>
		<stop  offset="0.7943" style="stop-color:#975CED"/>
		<stop  offset="1" style="stop-color:#A56EF4"/>
	</linearGradient>
	<path fill="url(#SVGID_29_)" d="M479.5,172.9c0,0-2.3,26.3-2.8,38c-0.6,11.7-3.5,28-5,34.2c-1.5,6.1-3.2,14.8-2.8,19
		c0.5,4.3,2.4,7.6-0.1,9.5c-2.5,1.8-11.1,2.9-13.2,1.8c-2.1-1-3.8-0.8-3.8-5s0.6-27.6,2.2-36.9c1.6-9.3-1-42.1-1-46.3
		c-0.1-9.8,3.7-15.2,3.7-15.2L479.5,172.9z"/>
	<linearGradient id="SVGID_30_" gradientUnits="userSpaceOnUse" x1="476.0663" y1="124.3549" x2="494.8998" y2="110.5215">
		<stop  offset="3.535350e-002" style="stop-color:#9D9EB3"/>
		<stop  offset="0.5808" style="stop-color:#D4D1D8"/>
		<stop  offset="1" style="stop-color:#EEEBF2"/>
	</linearGradient>
	<path fill="url(#SVGID_30_)" d="M473.9,91.7c-4.2,1.2-9.3,0.8-4.8,11.5s20.8,47.3,20.8,47.3s5.5-13.3,4.7-24.8
		c-0.8-11.5-7.7-31.3-7.7-31.3L473.9,91.7z"/>
	<linearGradient id="SVGID_31_" gradientUnits="userSpaceOnUse" x1="482.2723" y1="129.2942" x2="493.6057" y2="122.2942">
		<stop  offset="3.535350e-002" style="stop-color:#9F19AB"/>
		<stop  offset="0.2438" style="stop-color:#AE25B1"/>
		<stop  offset="0.6455" style="stop-color:#D744BF"/>
		<stop  offset="1" style="stop-color:#FF63CE"/>
	</linearGradient>
	<path fill="url(#SVGID_31_)" d="M482.1,104.8l1.8-0.8l1.2,1.2l-0.5,2.5c0,0,4.9,9.6,6.8,15.5c1.8,5.8,2.2,13.8,1.5,17.5
		c-0.7,3.7-4.1,9.1-4.1,9.1s-2.5-17.7-3.2-21.9c-0.8-4.2-3.2-19.3-3.2-19.3l-1.8-1.1L482.1,104.8z"/>
	<linearGradient id="SVGID_32_" gradientUnits="userSpaceOnUse" x1="482.5793" y1="136.1443" x2="516.7435" y2="137.1442">
		<stop  offset="3.535350e-002" style="stop-color:#6B24D6"/>
		<stop  offset="0.2945" style="stop-color:#7733DC"/>
		<stop  offset="0.7943" style="stop-color:#975CED"/>
		<stop  offset="1" style="stop-color:#A56EF4"/>
	</linearGradient>
	<path fill="url(#SVGID_32_)" d="M482.7,92.1c0,0,5.2-0.6,9.1,2.9c2.8,2.5,4.4,5.8,5.3,12.3c0.8,5.7-0.3,18.5,0,21.7
		c0.2,3.2,1.3,23.7,1.8,30c0.6,6.3,2.5,13.6-1,17.2c-3.6,3.6-7.4,5.4-8.3,3.3c-0.9-2.1-3.7-20.7-2.2-26.2c1.5-5.5,5.7-16.8,5.4-23.7
		c-0.2-6.8-3.2-25-5.2-28.6C485.6,97.6,482.7,92.1,482.7,92.1z"/>
	<path fill="#D1D3D4" d="M495.4,118.2c-0.5-6.3-0.6-11.2-0.6-11.2l-2.4-1.3l1.6-2.9c0,0-2.9-1.7-3.9-3.9c-0.9-1.9-3.1-4.4-4.9-6.7
		l0,0c-1.4-0.1-2.4,0.1-2.4,0.1s2.9,5.4,4.8,9c2,3.6,5,21.8,5.2,28.6c0.1,4.2-1.4,10.1-2.9,15.3c0.7-1.6,2.1-5.1,2.4-6
		C493.8,133.7,495.9,124.5,495.4,118.2z"/>
	<linearGradient id="SVGID_33_" gradientUnits="userSpaceOnUse" x1="482.7178" y1="118.5648" x2="494.9557" y2="118.5648">
		<stop  offset="3.535350e-002" style="stop-color:#6B24D6"/>
		<stop  offset="0.2945" style="stop-color:#7733DC"/>
		<stop  offset="0.7943" style="stop-color:#975CED"/>
		<stop  offset="1" style="stop-color:#A56EF4"/>
	</linearGradient>
	<path fill="url(#SVGID_33_)" d="M494.9,117.5c-0.5-6.3-0.6-11.2-0.6-11.2l-2.8-0.8l2-3.7c0,0-2.3-0.8-3.2-2.9
		c-0.9-2-2.6-5.1-5.1-6.9l0,0c-1.4-0.1-2.4,0.1-2.4,0.1s2.9,5.4,4.8,9c2,3.6,5,21.8,5.2,28.6c0.1,4.2-1.4,10.1-2.9,15.3
		c0.7-1.6,2.1-5.1,2.4-6C493.8,133.7,495.3,123.8,494.9,117.5z"/>
	<path fill="#D1D3D4" d="M456.8,172c0,0-3.8,5.4-3.7,15.2c0.1,4.2,2.7,36.9,1,46.3c-1.6,9.3-2.2,32.8-2.2,36.9s1.7,3.9,3.8,5
		c0.8,0.4,2.6,0.5,4.7,0.3c-1.6-2.8-3.3-7.1-3.8-13.5c-1-13.3,3.8-28.2,3.2-40.3c-0.6-10.8-0.9-35,0.9-49.4L456.8,172z"/>
	<path fill="#D1D3D4" d="M484.3,93.9l-10.3-2.2c-3.2,0.9-7,0.9-6.5,5.8c2.2,3.8,5,8.3,6.8,10c3.3,3.2,5.7,6.2,5.7,6.2l3-10.6
		l5.1,6.9c0,0,0.3-6.1-0.2-8.1C487.6,100.8,485.9,97.2,484.3,93.9z"/>
	<linearGradient id="SVGID_34_" gradientUnits="userSpaceOnUse" x1="463.8367" y1="108.4892" x2="483.585" y2="98.0526">
		<stop  offset="3.535350e-002" style="stop-color:#9D9EB3"/>
		<stop  offset="0.5808" style="stop-color:#D4D1D8"/>
		<stop  offset="1" style="stop-color:#EEEBF2"/>
	</linearGradient>
	<path fill="url(#SVGID_34_)" d="M484.3,93.9l-10.3-2.2c-3.2,0.9-7,0.9-6.5,5.8c2.2,3.8,5,8.3,6.8,10c3.3,3.2,5.5,4.6,5.5,4.6
		l3.2-9.1l4.9,5.4c0,0,0.5-4.5,0-6.5C487.6,100.8,485.9,97.2,484.3,93.9z"/>
	<linearGradient id="SVGID_35_" gradientUnits="userSpaceOnUse" x1="449.3132" y1="144.0942" x2="497.1257" y2="135.5079">
		<stop  offset="3.535350e-002" style="stop-color:#6B24D6"/>
		<stop  offset="0.2945" style="stop-color:#7733DC"/>
		<stop  offset="0.7943" style="stop-color:#975CED"/>
		<stop  offset="1" style="stop-color:#A56EF4"/>
	</linearGradient>
	<path fill="url(#SVGID_35_)" d="M470.3,92c0,0-3.2,1-1.5,5.6c1.8,4.6,8.8,12.4,13.3,23c4.5,10.6,7.6,21.8,7.3,34.7
		c-0.3,12.8-1.2,24.4-4.2,27.5c-3.3,3.4-13.3,7.3-23.9,5.5c-10.6-1.8-13.7-5.9-12.5-8.5c1.2-2.5,7.4-29,7.8-32.9
		c0.5-3.9-3.2-14.4-4.4-18.5c-1.2-4.2-3.2-12.5-1.7-17.2c1.5-4.6,4.1-5.2,6.8-7.9c1.8-1.8,4.4-4.4,7.5-7.1
		C466.6,94.7,468.2,92.6,470.3,92z"/>
	<path fill="#D1D3D4" d="M482.2,120.6c-4.5-10.6-11.5-18.4-13.3-23c-1.5-3.9,0.6-5.2,1.3-5.5c0,0,0,0,0,0c-1.9,0.6-3.6,1.7-5.2,3
		c-0.4,3.1-0.6,3.8,0.7,9.3c1.4,5.8,1,8.2,1,8.2l3.9,0.8v3.8c0,0,1.7-1.4,6.9,6.9c5.3,8.4,9,12.7,11.7,22.8
		C488.4,137.5,485.7,128.9,482.2,120.6z"/>
	<linearGradient id="SVGID_36_" gradientUnits="userSpaceOnUse" x1="459.1375" y1="128.1841" x2="480.4728" y2="119.1832">
		<stop  offset="3.535350e-002" style="stop-color:#6B24D6"/>
		<stop  offset="0.2945" style="stop-color:#7733DC"/>
		<stop  offset="0.7943" style="stop-color:#975CED"/>
		<stop  offset="1" style="stop-color:#A56EF4"/>
	</linearGradient>
	<path fill="url(#SVGID_36_)" d="M482.2,120.6c-4.5-10.6-11.5-18.4-13.3-23c-1.5-3.9,0.6-5.2,1.3-5.5c0,0,0,0,0,0
		c-1.9,0.6-3.6,1.7-5.2,3c-0.4,3.1-0.6,3.8,0.7,9.3c1.4,5.8,1.8,7.2,1.8,7.2l3.9,0.8v3.8c0,0,2.7-0.3,7.5,8.3
		c4.5,8,7.6,12.5,10.4,22.6C488.4,137.5,485.7,128.9,482.2,120.6z"/>
	<radialGradient id="SVGID_37_" cx="466.6867" cy="124.6352" r="17.514" gradientUnits="userSpaceOnUse">
		<stop  offset="0" style="stop-color:#FFFFFF"/>
		<stop  offset="1" style="stop-color:#000000"/>
	</radialGradient>
	<path fill="url(#SVGID_37_)" d="M479.2,124.3c-4.8-8.6-7.5-8.6-7.5-8.6v-3.8l-3.9-0.8c0,0-0.4-1.3-1.8-7.2c-1.3-5.3-1-6.3-0.6-9.1
		c-0.1,0.1-0.3,0.2-0.4,0.3c-0.4,3.1-0.6,3.8,0.7,9.3c1.4,5.8,1.8,7.2,1.8,7.2l3.9,0.8v3.8c0,0,2.7-0.3,7.5,8.3
		c4.5,8,7.6,12.5,10.4,22.6c-0.1-1.2-0.3-1.9-0.5-3C486.2,135.9,483.2,131.5,479.2,124.3z"/>
	<path fill="#D1D3D4" d="M458,159.6c0,0,3.2,1.3,6.6,2.3c3.4,1,7.5,2.1,7.5,2.1s0,5-2,5.1c-2,0.1-12.2-2.6-12.8-3.8
		C456.6,164,458,159.6,458,159.6z"/>
	<linearGradient id="SVGID_38_" gradientUnits="userSpaceOnUse" x1="452.8615" y1="164.9288" x2="473.8623" y2="162.9288">
		<stop  offset="3.535350e-002" style="stop-color:#6B24D6"/>
		<stop  offset="0.2945" style="stop-color:#7733DC"/>
		<stop  offset="0.7943" style="stop-color:#975CED"/>
		<stop  offset="1" style="stop-color:#A56EF4"/>
	</linearGradient>
	<path fill="url(#SVGID_38_)" d="M458,159.6c0,0,3.2,1.3,6.6,2.3c3.4,1,7.5,2.1,7.5,2.1s-0.3,4.1-2.3,4.2c-2,0.1-12.2-2.6-12.8-3.8
		C456.3,163.1,458,159.6,458,159.6z"/>
	<linearGradient id="SVGID_39_" gradientUnits="userSpaceOnUse" x1="499.5682" y1="162.2986" x2="506.3543" y2="162.2986">
		<stop  offset="3.535350e-002" style="stop-color:#6B24D6"/>
		<stop  offset="0.2945" style="stop-color:#7733DC"/>
		<stop  offset="0.7943" style="stop-color:#975CED"/>
		<stop  offset="1" style="stop-color:#A56EF4"/>
	</linearGradient>
	<path fill="url(#SVGID_39_)" d="M506.3,155.7c0,0,0.3,3.7-1.5,7.1c-1.8,3.4-5.2,6.2-5.2,6.2s-0.5-7,1.3-9.6
		C502.8,156.7,506.3,155.7,506.3,155.7z"/>
	<radialGradient id="SVGID_40_" cx="521.5062" cy="159.957" r="20.6737" gradientUnits="userSpaceOnUse">
		<stop  offset="3.030300e-002" style="stop-color:#FEDFCB"/>
		<stop  offset="1" style="stop-color:#F9B69E"/>
	</radialGradient>
	<path fill="url(#SVGID_40_)" d="M504.1,156c0,0,2.3,1.8,4.1,2c1.8,0.2,7.7-0.1,9.6,0.6c1.8,0.6,7.6,2.4,7.7,3.9
		c0.2,1.5-2,0.5-3.6,0.3c-1.7-0.2-4.4-0.4-4.4-0.4s3.4,3.5,5.5,4.7c2.1,1.2,5.5,1.8,6,3c0.6,1.2-0.2,2.3-1.9,3.5
		c-2.6,1.8-4.7,1.2-6.9,1.3c-3.8,0.1-8.3-1.4-10.1-2.9c-1.8-1.5-6.8-5.4-7.9-6.1c-1.1-0.7-5.2-2.2-5.2-2.2l6.8-7.8L504.1,156z"/>
	<radialGradient id="SVGID_41_" cx="527.048" cy="150.6898" r="32.1124" gradientUnits="userSpaceOnUse">
		<stop  offset="3.030300e-002" style="stop-color:#FEDFCB"/>
		<stop  offset="0.7778" style="stop-color:#F9B69E"/>
		<stop  offset="0.9949" style="stop-color:#F2A78C"/>
	</radialGradient>
	<path fill="url(#SVGID_41_)" d="M527.1,173.5c1.7-1.2,2.4-2.3,1.9-3.5c-0.1-0.2-0.3-0.4-0.5-0.6c-1.4,1.8-5.9,2.7-8.8,2.1
		c-3-0.7-10.8-5.9-13-8c-1.2-1.1-4.9-2.5-8.3-3.6l-1.4,3.7c0,0,4.1,1.5,5.2,2.2c1.1,0.7,6.2,4.6,7.9,6.1c1.8,1.5,6.2,3,10.1,2.9
		C522.4,174.7,524.5,175.3,527.1,173.5z"/>
	<path fill="#D1D3D4" d="M464.3,174.8c0.1-8.5,5.6-19.3,8.3-25.6s-0.8-25.6-4.8-34c-3.3-6.8-12.7-4.4-17.5-2.3
		c-0.7,4.8,1,11.8,2.1,15.4c1.2,4.2,4.8,14.6,4.4,18.5c-0.5,3.9-6.7,30.4-7.8,32.9c-1.2,2.5,1.9,6.6,12.5,8.5
		c1.8,0.3,3.6,0.5,5.4,0.5C465.7,185.5,464.2,180.2,464.3,174.8z"/>
	<linearGradient id="SVGID_42_" gradientUnits="userSpaceOnUse" x1="423.6606" y1="140.3713" x2="496.4579" y2="136.8212">
		<stop  offset="3.535350e-002" style="stop-color:#6B24D6"/>
		<stop  offset="0.2945" style="stop-color:#7733DC"/>
		<stop  offset="0.7943" style="stop-color:#975CED"/>
		<stop  offset="1" style="stop-color:#A56EF4"/>
	</linearGradient>
	<path fill="url(#SVGID_42_)" d="M453.3,107.2c-4.5,1.4-4.7,10.1-1.9,16.4c1.8,4.1,6.2,13.4,7.7,17.4c1.5,4,4,12.2,8.3,14.5
		c4.3,2.3,15.6,6.1,20.1,8c4.5,1.9,12.2,5.4,12.2,5.4s1.3-5.3,3.2-8.6c1.9-3.3,3.5-4.6,3.5-4.6s-15.2-7.2-20.5-10.1
		c-5.2-2.9-7.9-4.5-9.1-7.2c-1.2-2.7-4.9-14.3-6.1-17.2C467.6,114,463.9,103.8,453.3,107.2z"/>
	<path fill="#10054D" d="M558.7,335c0,0,1.7,5-0.4,6.1c-2.1,1.1-5.3,1.7-7.9,0.5c-2.6-1.2-3.7-2.3-6.5-2.3c-2.8,0-13.5-5.3-15.6-7.9
		c-2.1-2.6,0-5.6,5.2-5.2c5.2,0.4,12.5,1,13.8,1.5C548.7,328,558.7,335,558.7,335z"/>
	<linearGradient id="SVGID_43_" gradientUnits="userSpaceOnUse" x1="542.2627" y1="336.8269" x2="548.2617" y2="319.2047">
		<stop  offset="9.090910e-002" style="stop-color:#25054D"/>
		<stop  offset="0.4708" style="stop-color:#330A68"/>
		<stop  offset="0.8939" style="stop-color:#45108A"/>
	</linearGradient>
	<path fill="url(#SVGID_43_)" d="M556.4,338.6c-4.8,0.6-6.4-0.8-10.8-1.7c-4.5-0.9-17.2-6.1-16.9-8.9c0.2-2.8,3.1-2.2,5.6-2
		c2.5,0.2,10.3,0.8,10.9,0.8c0.6,0,13.4,5.8,13.4,5.8s0.9,4.2,0.1,4.8C557.8,338,557.7,338.5,556.4,338.6z"/>
	<linearGradient id="SVGID_44_" gradientUnits="userSpaceOnUse" x1="537.9917" y1="283.4487" x2="567.1047" y2="283.4487">
		<stop  offset="3.535350e-002" style="stop-color:#138BBD"/>
		<stop  offset="0.2257" style="stop-color:#169AC7"/>
		<stop  offset="0.5946" style="stop-color:#1FC3DF"/>
		<stop  offset="1" style="stop-color:#2AF6FF"/>
	</linearGradient>
	<path fill="url(#SVGID_44_)" d="M565.8,231.8c0,0,2.9,6.2,0.1,17c-2.8,10.7-6,23.4-6.1,37c-0.1,13.6,1.5,48.8-0.6,50.8
		c-2.1,2-9.4,2.6-12.3,0.5c-4.8-3.5-7.4-8.5-6.9-10.3c0.5-1.7,4.2-8,2.9-13.5c-1.3-5.5-5.5-24.7-4.7-37.7c0.8-13,3-47.1,3-47.1
		L565.8,231.8z"/>
	<radialGradient id="SVGID_45_" cx="552.048" cy="137.2068" r="20.2659" gradientUnits="userSpaceOnUse">
		<stop  offset="3.030300e-002" style="stop-color:#FEDFCB"/>
		<stop  offset="1" style="stop-color:#F9B69E"/>
	</radialGradient>
	<path fill="url(#SVGID_45_)" d="M554,124.2c-3.1,1.5-6.2,4-6.3,11.7c-0.2,7.7-0.2,11.4,1.3,12.4c1.5,1,2.7,0,3,2.2
		c0.3,2.2-0.3,5.7-0.3,5.7l16.8-3.8c0,0-1.2-2.7-0.1-5.5c1.1-2.8,5.9-8.2,2.2-16.1C566.9,122.9,557.6,122.4,554,124.2z"/>
	<linearGradient id="SVGID_46_" gradientUnits="userSpaceOnUse" x1="568.6639" y1="148.488" x2="554.9973" y2="124.3213">
		<stop  offset="3.535350e-002" style="stop-color:#602213"/>
		<stop  offset="0.571" style="stop-color:#6D310E"/>
		<stop  offset="1" style="stop-color:#7A4108"/>
	</linearGradient>
	<path fill="url(#SVGID_46_)" d="M547.5,130.7c-0.1,1.5,0.8,3.8,2.9,4c2.1,0.2,3.1,2.6,2.6,3.8c-0.5,1.2-0.2,1.5-0.2,1.5
		s1.5-0.6,2.2,0.6c0.7,1.2-0.2,3.8-0.7,4.8c-0.5,1,3,4.1,5.8,4.3c2.8,0.2,6.7-0.1,7.9-1.5c1.2-1.5,5.8-6.4,4.2-14.2
		c-1.6-7.8-8.8-12.5-15.5-11.2C550.1,124,547.6,128.6,547.5,130.7z"/>
	<linearGradient id="SVGID_47_" gradientUnits="userSpaceOnUse" x1="531.5436" y1="162.3156" x2="585.4132" y2="162.3156">
		<stop  offset="3.535350e-002" style="stop-color:#138BBD"/>
		<stop  offset="0.2257" style="stop-color:#169AC7"/>
		<stop  offset="0.5946" style="stop-color:#1FC3DF"/>
		<stop  offset="1" style="stop-color:#2AF6FF"/>
	</linearGradient>
	<path fill="url(#SVGID_47_)" d="M533.3,159.9c0,0-2.1,1.6-1.8,4.5c0.4,2.9,3.2,7.4,3.2,7.4l29.2-1.6c0,0,22.5-1,21.5-10.1
		c-1-8.7-6.9-8.3-19.9-5c-13,3.4-18.1,3.9-22.3,4.3C538.9,159.8,533.3,159.9,533.3,159.9z"/>
	<linearGradient id="SVGID_48_" gradientUnits="userSpaceOnUse" x1="562.1246" y1="160.2163" x2="557.8745" y2="152.6744">
		<stop  offset="3.535350e-002" style="stop-color:#9D9EB3"/>
		<stop  offset="0.5808" style="stop-color:#D4D1D8"/>
		<stop  offset="1" style="stop-color:#EEEBF2"/>
	</linearGradient>
	<path fill="url(#SVGID_48_)" d="M548.9,160.4c0,0,1.8-6.3,5.6-7.1c3.8-0.8,7.1-0.3,9.6-1.5c2.5-1.2,3.9-3.3,3.9-3.3
		s2.9,0.8,0.8,3.4C566.6,154.6,548.9,160.4,548.9,160.4z"/>
	<path fill="#D1D3D4" d="M532.9,168.4c1.1,2.2,1.8,3.4,1.8,3.4l29.2-1.6c0,0,22.4-1,21.5-10.1c-5.4,1.3-18.9,6.9-31.3,7.5
		C542.8,168.2,535.9,168.4,532.9,168.4z"/>
	<path fill="#D1D3D4" d="M549.8,229.7l-8.7-1.2c0,0-2.2,34-3,47.1c-0.8,13,3.5,32.2,4.7,37.7c1.3,5.5-2.4,11.8-2.9,13.5
		c-0.4,1.6,1.7,5.9,5.7,9.3c-0.6-7.3,0-14.9,0.4-20.1c0.5-6-4-27.8-2.8-40.8C544.4,264,548.7,236.6,549.8,229.7z"/>
	<linearGradient id="SVGID_49_" gradientUnits="userSpaceOnUse" x1="537.11" y1="198.8137" x2="588.1555" y2="198.8137">
		<stop  offset="3.535350e-002" style="stop-color:#138BBD"/>
		<stop  offset="0.2257" style="stop-color:#169AC7"/>
		<stop  offset="0.5946" style="stop-color:#1FC3DF"/>
		<stop  offset="1" style="stop-color:#2AF6FF"/>
	</linearGradient>
	<path fill="url(#SVGID_49_)" d="M562.9,154.5c3.5-1.2,7.1-3.3,7.1-3.3s5.3-0.1,8.4,0.4c3.1,0.5,7.8,3.3,7.5,9.1
		c-0.3,5.8-1.6,13.2-3.5,21.2c-1.9,8.1-1.8,13.9-0.4,22c1.5,8.1,6.5,25.8,6.2,27.7c-0.4,1.9-4.8,8.8-14.8,12.3
		c-10.1,3.5-26.8,4.4-33.6-3.4c-6.8-7.8,2-34.5,2.4-47.6c0.4-13.1-4.4-18.6,1.2-25.3c5.5-6.8,11.8-10.8,15.3-11.8
		C562.1,154.9,562.9,154.5,562.9,154.5z"/>
	<path fill="#D1D3D4" d="M548.4,160.9c1.6-2.2,4.8-5.1,7.8-5.5c3-0.4,8.8-1.6,10.7-3c2.2-1.6,2.5-3,2.5-3l4.5,1.7
		c0,0,0.4,5.4-5.9,7.3c-6.3,1.9-13.4,1.8-18,4.5c-4.3,2.5-7,5-7,5L548.4,160.9z"/>
	<linearGradient id="SVGID_50_" gradientUnits="userSpaceOnUse" x1="550.4268" y1="180.5592" x2="562.9271" y2="148.3918">
		<stop  offset="3.535350e-002" style="stop-color:#138BBD"/>
		<stop  offset="0.2257" style="stop-color:#169AC7"/>
		<stop  offset="0.5946" style="stop-color:#1FC3DF"/>
		<stop  offset="1" style="stop-color:#2AF6FF"/>
	</linearGradient>
	<path fill="url(#SVGID_50_)" d="M548.4,160.9c1.6-2.2,4.8-5.1,7.8-5.5c3-0.4,8.8-1.6,10.7-3c2.2-1.6,2.5-3,2.5-3l4.5,1.7
		c0,0-0.1,4.4-6.4,6.3c-6.3,1.9-14.5,2.5-18.5,5.5c-4,3-6,5-6,5L548.4,160.9z"/>
	<radialGradient id="SVGID_51_" cx="559.8838" cy="161.3855" r="12.4634" gradientUnits="userSpaceOnUse">
		<stop  offset="0" style="stop-color:#FFFFFF"/>
		<stop  offset="1" style="stop-color:#000000"/>
	</radialGradient>
	<path fill="url(#SVGID_51_)" d="M573.5,150.9c-0.1,0.9-0.9,4.4-6.4,6.1c-6.3,1.9-14.5,2.5-18.5,5.5c-1.5,1.1-2.7,2.1-3.7,2.9
		l-1.9,2.5c0,0,2-2,6-5c4-3,12.2-3.5,18.5-5.5c6.3-1.9,6.4-6.3,6.4-6.3L573.5,150.9z"/>
	<radialGradient id="SVGID_52_" cx="491.2355" cy="84.3524" r="22.6644" gradientUnits="userSpaceOnUse">
		<stop  offset="3.030300e-002" style="stop-color:#FEDFCB"/>
		<stop  offset="1" style="stop-color:#F9B69E"/>
	</radialGradient>
	<path fill="url(#SVGID_52_)" d="M470.5,90.4l-1.3,2.8c0,0,3.9,6.5,6.8,8.3c2.9,1.8,6.4,3.9,7.4,2.5c1-1.5,2.1-5.5,2.1-5.5
		L470.5,90.4z"/>
	<radialGradient id="SVGID_53_" cx="487.235" cy="84.54" r="24.1755" gradientUnits="userSpaceOnUse">
		<stop  offset="3.030300e-002" style="stop-color:#FEDFCB"/>
		<stop  offset="1" style="stop-color:#F9B69E"/>
	</radialGradient>
	<path fill="url(#SVGID_53_)" d="M470.3,92l1.6,0.1c0,0,4.9,5.7,7.9,6.9c3,1.2,5.9,1.4,7.2-0.7c1.3-2.1,3.2-14.8,2.2-19.8
		c-1.1-5-8.2-14.5-18.5-7.6c-10.3,6.8-3,18.9-2.6,19.3C468.6,90.6,470.3,92,470.3,92z"/>
	<linearGradient id="SVGID_54_" gradientUnits="userSpaceOnUse" x1="464.4904" y1="79.0458" x2="489.9137" y2="79.0458">
		<stop  offset="3.535350e-002" style="stop-color:#602213"/>
		<stop  offset="0.571" style="stop-color:#6D310E"/>
		<stop  offset="1" style="stop-color:#7A4108"/>
	</linearGradient>
	<path fill="url(#SVGID_54_)" d="M468.2,90.4c0,0-1.5-3.4-0.2-4.4c0.2-0.1,0.4-0.2,0.6-0.3c0.7-0.2,1.6,0.1,2.1,0.6l1.4,1.6
		c0,0,0.3-1.6,1-4.7c0.5-2,2.9-3.7,8-3.2c2.7,0.2,6.1,1.6,7.9,0.2c1.8-1.5,0.4-4.6-0.5-6.2c-0.9-1.5-9.6-10.5-18.8-3.9
		C460.6,76.6,465.7,88,468.2,90.4z"/>
	<path fill="#D1D3D4" d="M555.5,172.3c-4.3-6.4-10.6-1.3-15,3.1c0.1,4.3,1.8,9.5,1.5,17.5c-0.4,13.1-9.1,39.8-2.4,47.6
		c3.3,3.8,8.9,5.5,14.9,5.9c-0.5-3-1-6.6-1.2-10.6c-0.5-11.3,2.9-17.5,4.3-32.6C559,188,561.2,180.7,555.5,172.3z"/>
	<g>
		<linearGradient id="SVGID_55_" gradientUnits="userSpaceOnUse" x1="543.5594" y1="284.6109" x2="568.7398" y2="277.071">
			<stop  offset="9.090910e-002" style="stop-color:#25054D"/>
			<stop  offset="0.4708" style="stop-color:#330A68"/>
			<stop  offset="0.8939" style="stop-color:#45108A"/>
		</linearGradient>
		<polygon fill="url(#SVGID_55_)" points="545.3,268.5 545.3,300.9 549.2,298.6 549.2,266.1 		"/>
		<linearGradient id="SVGID_56_" gradientUnits="userSpaceOnUse" x1="485.8217" y1="282.2134" x2="615.6221" y2="253.1163">
			<stop  offset="9.090910e-002" style="stop-color:#25054D"/>
			<stop  offset="0.4708" style="stop-color:#330A68"/>
			<stop  offset="0.8939" style="stop-color:#45108A"/>
		</linearGradient>
		<polygon fill="url(#SVGID_56_)" points="545.4,268.5 545.4,300.9 505.9,278.2 505.9,245.7 		"/>
		<linearGradient id="SVGID_57_" gradientUnits="userSpaceOnUse" x1="516.1216" y1="281.9281" x2="533.6357" y2="278.002">
			<stop  offset="3.535350e-002" style="stop-color:#FFA98C"/>
			<stop  offset="0.3169" style="stop-color:#FFB892"/>
			<stop  offset="0.8601" style="stop-color:#FEE1A3"/>
			<stop  offset="1" style="stop-color:#FEECA8"/>
		</linearGradient>
		<path fill="url(#SVGID_57_)" d="M527.5,279.9v2.2c0,0.8-0.9,1.3-1.6,0.9l-3-1.7c-0.6-0.4-1-1-1-1.8v-1.6c0-0.8,0.9-1.3,1.6-0.9
			l3.5,2C527.3,279.2,527.5,279.6,527.5,279.9z"/>
		<g>
			<linearGradient id="SVGID_58_" gradientUnits="userSpaceOnUse" x1="470.1324" y1="275.3564" x2="584.0272" y2="249.8248">
				<stop  offset="9.090910e-002" style="stop-color:#25054D"/>
				<stop  offset="0.4708" style="stop-color:#330A68"/>
				<stop  offset="0.8939" style="stop-color:#45108A"/>
			</linearGradient>
			<path fill="url(#SVGID_58_)" d="M545.4,268.5v9.9c0,1.3-1,2.3-2.3,2.3l-16,0c-1.8,0-3.4-0.8-4.5-2.2L507.9,260
				c-1.3-1.6-1.9-3.5-1.9-5.6v-8.8L545.4,268.5z"/>
			<radialGradient id="SVGID_59_" cx="516.069" cy="291.4197" r="22.8533" gradientUnits="userSpaceOnUse">
				<stop  offset="0" style="stop-color:#FFFFFF"/>
				<stop  offset="1" style="stop-color:#000000"/>
			</radialGradient>
			<path fill="url(#SVGID_59_)" d="M545.4,268.5v9.9c0,1.3-1,2.3-2.3,2.3l-16,0c-1.8,0-3.4-0.8-4.5-2.2L507.9,260
				c-1.3-1.6-1.9-3.5-1.9-5.6v-8.8L545.4,268.5z"/>
		</g>
		<linearGradient id="SVGID_60_" gradientUnits="userSpaceOnUse" x1="532.9816" y1="245.5795" x2="526.793" y2="257.3736">
			<stop  offset="9.090910e-002" style="stop-color:#25054D"/>
			<stop  offset="0.4708" style="stop-color:#330A68"/>
			<stop  offset="0.8939" style="stop-color:#45108A"/>
		</linearGradient>
		<polygon fill="url(#SVGID_60_)" points="505.9,245.7 545.4,268.5 549.2,266.1 509.8,243.4 		"/>
		<linearGradient id="SVGID_61_" gradientUnits="userSpaceOnUse" x1="531.6786" y1="259.77" x2="525.8452" y2="248.9364">
			<stop  offset="9.090910e-002" style="stop-color:#25054D"/>
			<stop  offset="0.4708" style="stop-color:#330A68"/>
			<stop  offset="0.8939" style="stop-color:#45108A"/>
		</linearGradient>
		<path fill="url(#SVGID_61_)" d="M530.6,248.7l-5.1-2.9c-1.3-0.7-2.4-0.8-3.2-0.3l-1.3,0.6l0.2,1c-0.1,0.4-0.2,0.8-0.2,1.2v3.3
			l1.1,0.7l0.3,1.6l1.3-0.7v-3c0-1.4,1-2,2.2-1.3l4,2.3c1.2,0.7,2.2,2.4,2.2,3.8v3l1.2,0.7l0.2,1.5l1.3-0.7v-3.3
			C535,253.5,533,250.1,530.6,248.7z"/>
		
			<linearGradient id="SVGID_62_" gradientUnits="userSpaceOnUse" x1="-124.0554" y1="3066.365" x2="-71.5583" y2="3054.5969" gradientTransform="matrix(0.866 0.5 0 1.1547 611.6161 -3232.342)">
			<stop  offset="9.090910e-002" style="stop-color:#25054D"/>
			<stop  offset="0.4708" style="stop-color:#330A68"/>
			<stop  offset="0.8939" style="stop-color:#45108A"/>
		</linearGradient>
		<path fill="url(#SVGID_62_)" d="M519.7,248.9v3.3l2.8,1.6v-3c0-1.4,1-2,2.2-1.3l4,2.3c1.2,0.7,2.2,2.4,2.2,3.8v3l2.8,1.6V257
			c0-2.8-2-6.2-4.4-7.6l-5.1-2.9C521.7,245,519.7,246.1,519.7,248.9z"/>
		<radialGradient id="SVGID_63_" cx="533.7388" cy="266.1328" r="14.4242" gradientUnits="userSpaceOnUse">
			<stop  offset="0" style="stop-color:#FFFFFF"/>
			<stop  offset="1" style="stop-color:#000000"/>
		</radialGradient>
		<polygon fill="url(#SVGID_63_)" points="545.4,279.4 545.8,268.7 549.2,266.1 545.3,267.9 518.3,252.9 544.9,268.5 		"/>
	</g>
	
		<radialGradient id="SVGID_64_" cx="-105.4768" cy="732.8109" r="14.1477" gradientTransform="matrix(0.9937 0.1122 -0.1122 0.9937 711.3982 -476.6081)" gradientUnits="userSpaceOnUse">
		<stop  offset="3.030300e-002" style="stop-color:#FEDFCB"/>
		<stop  offset="1" style="stop-color:#F9B69E"/>
	</radialGradient>
	<path fill="url(#SVGID_64_)" d="M529.3,234c0,0-4.3,5.3-6.3,8.9c-1.1,1.9-1,2.3-0.5,6.3c0.2,1.9,0.6,3.2,1.6,3.3
		c0.5,0.1,0.2-1,0.2-1s0.2,1.8,1.4,2.1c1.2,0.3,0.6-1.2,0.6-1.2s0.3,2,1.5,2.2c1.2,0.2,0.5-1.3,0.5-1.3s0.4,2.1,1.4,2.4
		c1,0.3,1.1-0.3,1.1-1.7c0-1.7,0.7-3.1,2.2-5.8c1.6-2.8,2.9-4.1,2.8-6.7c-0.2-2.7,2-4.9,2-4.9L529.3,234z"/>
	<linearGradient id="SVGID_65_" gradientUnits="userSpaceOnUse" x1="526.4238" y1="204.4693" x2="557.8424" y2="204.4693">
		<stop  offset="3.535350e-002" style="stop-color:#138BBD"/>
		<stop  offset="0.2257" style="stop-color:#169AC7"/>
		<stop  offset="0.5946" style="stop-color:#1FC3DF"/>
		<stop  offset="1" style="stop-color:#2AF6FF"/>
	</linearGradient>
	<path fill="url(#SVGID_65_)" d="M545.5,168.5c5.4-1.9,10.6,1.5,12,7.1c1.3,5.6-1.5,26.9-3.6,32.9c-2.2,5.9-15.5,32.5-15.5,32.5
		s-4.7-0.6-7.6-1.9c-2.9-1.3-4.3-4-4.3-4s9.2-22.8,11-28.2c1.8-5.3,1.1-18.8,1.7-24.8C539.8,174.8,540.4,170.4,545.5,168.5z"/>
	<path fill="#D1D3D4" d="M512.2,164.1c-0.6,0.7-0.2,2.2,1.7,2.3c1.9,0.2,6.1-0.3,7.7-0.3s9.3-3,9.3-3L512.2,164.1z"/>
	
		<radialGradient id="SVGID_66_" cx="70.6537" cy="485.8329" r="19.1948" gradientTransform="matrix(0.997 7.750000e-002 -7.750000e-002 0.997 479.0681 -337.3189)" gradientUnits="userSpaceOnUse">
		<stop  offset="3.030300e-002" style="stop-color:#FEDFCB"/>
		<stop  offset="1" style="stop-color:#F9B69E"/>
	</radialGradient>
	<path fill="url(#SVGID_66_)" d="M521.6,160.6c-1.9,1.1-4.7,1.6-6.2,2.4c-1.5,0.8-2.8,0.3-3.2,1c-0.4,0.7-0.1,2.6,3.6,1.7
		c3.8-0.8,5.9-1.4,8.1-1.3c2.2,0.1,6.6,0,7.4-1.2c0.8-1.2-0.7-2.9-0.7-2.9L521.6,160.6z"/>
	<radialGradient id="SVGID_67_" cx="516.4542" cy="169.8198" r="9.2887" gradientUnits="userSpaceOnUse">
		<stop  offset="3.030300e-002" style="stop-color:#FEDFCB"/>
		<stop  offset="1" style="stop-color:#F9B69E"/>
	</radialGradient>
	<path fill="url(#SVGID_67_)" d="M509,171.4c-0.4-0.7,3.4-0.6,4.5-0.1c1.1,0.4,5.1,2,6,2.6c0.7,0.4,1.5,1.1-0.9,1.3
		C514,175.4,510.4,174,509,171.4z"/>
</g>
<linearGradient id="SVGID_68_" gradientUnits="userSpaceOnUse" x1="64.4126" y1="464.9116" x2="595.5889" y2="-66.2648">
	<stop  offset="0" style="stop-color:#08095D"/>
	<stop  offset="1" style="stop-color:#092BA3"/>
</linearGradient>
<rect x="-0.5" y="-1.4" opacity="0.65" fill="url(#SVGID_68_)" width="661" height="401.4"/>
</svg>
