<?xml version="1.0" encoding="utf-8"?>
<!-- Generator: Adobe Illustrator 18.0.0, SVG Export Plug-In . SVG Version: 6.00 Build 0)  -->
<!DOCTYPE svg PUBLIC "-//W3C//DTD SVG 1.1//EN" "http://www.w3.org/Graphics/SVG/1.1/DTD/svg11.dtd">
<svg version="1.1" id="Слой_1" xmlns="http://www.w3.org/2000/svg" xmlns:xlink="http://www.w3.org/1999/xlink" x="0px" y="0px"
	 width="63px" height="73px" viewBox="9.5 8.4 63 73" enable-background="new 9.5 8.4 63 73" xml:space="preserve">
<g>
	<g>
		<g>
			<path fill="#ABAECC" d="M68.4,29.6c0,0.3,0,0.6,0,0.9c1.3-0.1,2.6,0,3.9,0.3c0-0.4,0-0.9,0-1.3c0-4.7-3.7-8.3-8.3-8.3
				c-6.3,0-12.6,0-18.9,0c-0.6,0-1.3,0.1-1.9,0.2c-3.8,0.9-6.4,4.2-6.4,8.2c0,0.3,0,0.6,0,0.9c0.1,0,0.2,0,0.3,0h3.6
				c0-0.6,0-1.1,0.1-1.6c0.3-2.2,2.1-3.7,4.3-3.7c6.3,0,12.7,0,19,0C66.5,25.1,68.3,27.1,68.4,29.6z"/>
			<path fill="#ABAECC" d="M45.3,15.4c-0.8-4.1-4-6.9-8.2-6.9c-6.2,0-12.5,0-18.7,0c-0.5,0-1,0-1.5,0.1c-4.2,0.7-7,4.1-7,8.5
				c0,4.4,0,8.7,0,13.1c1.3,0,2.6,0,3.9,0.2v-13c0-0.2,0-0.5,0-0.7c0.1-2.3,1.9-4.2,4.2-4.2c6.4,0,12.9,0,19.3,0
				c1.9,0,3.5,1.4,4,3.2c0.1,0.5,0.2,1,0.2,1.5h3.9C45.4,16.5,45.4,16,45.3,15.4z"/>
			<path fill="#ABAECC" d="M25.6,20.3c-2.4,0-4.7,0-7,0c0-1.3,0-2.6,0-3.9c2.4,0,4.7,0,7,0C25.6,17.8,25.6,19.1,25.6,20.3z"/>
		</g>
	</g>
	<g>
		<g>
			<path fill="#F1F4FC" d="M68.4,30.5c0,0.6,0,1.1,0,1.7H40.7c0-0.7,0-1.3,0-2h-4c0,7,0,14,0,20.9c0,7.2,0,14.5,0,21.7
				c0,4.8,3.6,8.4,8.3,8.4c6.3,0,12.6,0,18.9,0c4.7,0,8.3-3.6,8.3-8.3c0-14.2,0-28.3,0-42.5L68.4,30.5L68.4,30.5z M40.7,36.2h27.6
				v26.9H40.7V36.2z M68.3,73.3c-0.1,2.3-2,4.1-4.4,4.1c-6.3,0-12.6,0-18.9,0c-2.5,0-4.4-1.9-4.4-4.4c0-1.9,0-3.8,0-5.8h27.7
				C68.4,69.3,68.4,71.3,68.3,73.3z"/>
			<path fill="#F1F4FC" d="M18.6,64.7c-3.1,0-4.9-1.8-4.9-4.9V30H9.8c0,10.1,0,20.1,0,30.2c0,4.9,3.6,8.5,8.5,8.5
				c4.6,0,9.2,0,13.7,0c0.2,0,0.4,0,0.7,0v-3.9h-0.9C27.4,64.7,23,64.7,18.6,64.7z"/>
			<path fill="#F1F4FC" d="M58.1,74.2c-2.4,0-4.7,0-7.1,0c0-1.3,0-2.6,0-3.9c0.4,0,0.8,0,1.2,0c1.8,0,3.6,0,5.3,0
				c0.4,0,0.6,0.1,0.6,0.6C58.1,72,58.1,73.1,58.1,74.2z"/>
		</g>
	</g>
</g>
</svg>
