<?xml version="1.0" encoding="utf-8"?>
<!-- Generator: Adobe Illustrator 18.0.0, SVG Export Plug-In . SVG Version: 6.00 Build 0)  -->
<!DOCTYPE svg PUBLIC "-//W3C//DTD SVG 1.1//EN" "http://www.w3.org/Graphics/SVG/1.1/DTD/svg11.dtd">
<svg version="1.1" id="Слой_1" xmlns="http://www.w3.org/2000/svg" xmlns:xlink="http://www.w3.org/1999/xlink" x="0px" y="0px"
	 viewBox="0 0 700 400" enable-background="new 0 0 700 400" xml:space="preserve">
<linearGradient id="SVGID_1_" gradientUnits="userSpaceOnUse" x1="621.1231" y1="-17.4101" x2="-117.624" y2="574.9822">
	<stop  offset="0" style="stop-color:#005689"/>
	<stop  offset="0.1677" style="stop-color:#1A55A0"/>
	<stop  offset="0.4677" style="stop-color:#4553C7"/>
	<stop  offset="0.5964" style="stop-color:#3B44BC"/>
	<stop  offset="0.8439" style="stop-color:#2B2DAB"/>
	<stop  offset="1" style="stop-color:#2525A5"/>
</linearGradient>
<rect x="0" fill="url(#SVGID_1_)" width="700" height="400"/>
<g opacity="0.3">
	<path fill="#FFFFFF" d="M585.2,254.8c-0.1,0-0.2,0-0.3-0.1l-121.6-70.6c-2.2-1.3-3.5-3.1-3.5-5c0-1.9,1.2-3.7,3.5-5l79.2-46
		c1.8-1.1,2.9-2.4,2.9-3.9c0-1.4-1-2.8-2.9-3.9L408.4,42.7c-4-2.3-10.6-2.3-14.7,0l-45,26.1c-1.8,1.1-2.9,2.4-2.9,3.9
		c0,1.4,1,2.8,2.9,3.9l66.9,38.8c2.2,1.3,3.5,3.1,3.5,5c0,1.9-1.2,3.7-3.5,5l-100,58c-4.4,2.5-11.5,2.5-15.9,0l-66.4-38.5
		c-0.3-0.2-0.4-0.6-0.2-0.9c0.2-0.3,0.5-0.4,0.9-0.2l66.4,38.5c4,2.3,10.6,2.3,14.7,0l100-58c1.8-1.1,2.9-2.4,2.9-3.9
		c0-1.4-1-2.8-2.9-3.9l-66.9-38.8c-2.2-1.3-3.5-3.1-3.5-5c0-1.9,1.2-3.7,3.5-5l45-26.1c4.4-2.5,11.5-2.5,15.9,0l134.1,77.8
		c2.2,1.3,3.5,3.1,3.5,5c0,1.9-1.2,3.7-3.5,5l-79.2,46c-1.8,1.1-2.9,2.4-2.9,3.9c0,1.4,1,2.8,2.9,3.9l121.6,70.6
		c0.3,0.2,0.4,0.6,0.2,0.9C585.6,254.7,585.4,254.8,585.2,254.8z"/>
	<path fill="#FFFFFF" d="M556.2,201.9c-0.2,0-0.4-0.1-0.5-0.3c-0.2-0.3-0.1-0.7,0.2-0.9l118-68.5c2.5-1.5,3.9-3.4,3.9-5.4
		c0-2-1.4-3.9-3.9-5.4L560.7,55.7c-5.5-3.2-14.4-3.2-19.9,0l-25.3,14.7c-0.3,0.2-0.7,0.1-0.8-0.2c-0.2-0.3-0.1-0.7,0.2-0.9
		l25.3-14.7c5.8-3.4,15.3-3.4,21.1,0l113.2,65.7c2.9,1.7,4.6,4,4.6,6.5c0,2.5-1.6,4.8-4.6,6.5l-118,68.5
		C556.4,201.9,556.3,201.9,556.2,201.9z"/>
	<path fill="#FFFFFF" d="M275.1,391.5c-3.2,0-6.5-0.7-9-2.1l-161.7-93.9c-2.5-1.5-3.9-3.4-3.9-5.6s1.4-4.1,3.9-5.6l55.2-32
		c4.9-2.9,13-2.9,17.9,0l102,59.2c4.6,2.7,12.1,2.7,16.7,0l137.6-79.9c2.1-1.2,3.3-2.8,3.3-4.5c0-1.7-1.2-3.3-3.3-4.5l-40.7-23.6
		c-4.6-2.7-12.1-2.7-16.7,0l-79.7,46.2c-4.9,2.9-13,2.9-17.9,0l-111.3-64.6c-4.6-2.7-12.1-2.7-16.7,0l-118.9,69
		c-0.3,0.2-0.7,0.1-0.9-0.2c-0.2-0.3-0.1-0.7,0.2-0.9l118.9-69c4.9-2.9,13-2.9,17.9,0l111.3,64.6c4.6,2.7,12.1,2.7,16.7,0l79.7-46.2
		c4.9-2.9,13-2.9,17.9,0l40.7,23.6c2.5,1.5,3.9,3.4,3.9,5.6c0,2.1-1.4,4.1-3.9,5.6l-137.6,79.9c-4.9,2.9-13,2.9-17.9,0l-102-59.2
		c-4.6-2.7-12.1-2.7-16.7,0l-55.2,32c-2.1,1.2-3.3,2.8-3.3,4.5c0,1.7,1.2,3.3,3.3,4.5l161.7,93.9c4.6,2.7,12.1,2.7,16.7,0
		l209.3-121.5c0.3-0.2,0.7-0.1,0.9,0.2c0.2,0.3,0.1,0.7-0.2,0.9L284.1,389.3C281.6,390.8,278.4,391.5,275.1,391.5z"/>
	<path fill="#FFFFFF" d="M429.9,345c-0.1,0-0.2,0-0.3-0.1l-34.8-20.2c-0.3-0.2-0.4-0.6-0.2-0.9c0.2-0.3,0.6-0.4,0.9-0.2l34.8,20.2
		c0.3,0.2,0.4,0.6,0.2,0.9C430.3,344.9,430.1,345,429.9,345z"/>
	<path fill="#FFFFFF" d="M334.8,123c-0.2,0-0.4-0.1-0.5-0.3c-0.2-0.3-0.1-0.7,0.2-0.9l45.8-26.6c0.3-0.2,0.7-0.1,0.9,0.2
		c0.2,0.3,0.1,0.7-0.2,0.9l-45.8,26.6C335,122.9,334.9,123,334.8,123z"/>
	<path fill="#FFFFFF" d="M677.4,201.4c-0.1,0-0.2,0-0.3-0.1L617,166.4c-0.3-0.2-0.4-0.6-0.2-0.9c0.2-0.3,0.5-0.4,0.9-0.2l60.1,34.9
		c0.3,0.2,0.4,0.6,0.2,0.9C677.8,201.2,677.6,201.4,677.4,201.4z"/>
	<path fill="#FFFFFF" d="M335.3,134.7l-20.6,0c-0.3,0-0.6-0.3-0.6-0.6v-12c0-0.3,0.3-0.6,0.6-0.6h20.6c0.3,0,0.6,0.3,0.6,0.6l0,12
		c0,0.2-0.1,0.3-0.2,0.4C335.6,134.6,335.4,134.7,335.3,134.7z M315.3,133.4l19.4,0l0-10.7h-19.4V133.4z"/>
	<path fill="#FFFFFF" d="M581.9,108.4l-20.6,0c-0.3,0-0.6-0.3-0.6-0.6v-12c0-0.3,0.3-0.6,0.6-0.6h20.6c0.3,0,0.6,0.3,0.6,0.6v12
		c0,0.2-0.1,0.3-0.2,0.4C582.2,108.4,582,108.4,581.9,108.4z M561.8,107.2l19.4,0V96.5h-19.4V107.2z"/>
	<path fill="#FFFFFF" d="M280.1,363.7c-4,0-8-0.9-11-2.6c-3.1-1.8-4.8-4.2-4.8-6.8c0-2.6,1.7-5,4.8-6.8c6.1-3.5,16-3.5,22.1,0l0,0
		c3.1,1.8,4.8,4.2,4.8,6.8c0,2.6-1.7,5-4.8,6.8C288.1,362.8,284.1,363.7,280.1,363.7z M280.1,346.1c-3.8,0-7.5,0.8-10.4,2.5
		c-2.7,1.5-4.1,3.6-4.1,5.7c0,2.1,1.5,4.1,4.1,5.7c5.7,3.3,15.1,3.3,20.8,0c2.7-1.5,4.1-3.6,4.1-5.7c0-2.1-1.5-4.1-4.1-5.7l0,0
		C287.6,346.9,283.8,346.1,280.1,346.1z"/>
	<path fill="#FFFFFF" d="M241.5,341.3c-4,0-8-0.9-11-2.6c-3.1-1.8-4.8-4.2-4.8-6.8c0-2.6,1.7-5,4.8-6.8c6.1-3.5,16-3.5,22.1,0l0,0
		c3.1,1.8,4.8,4.2,4.8,6.8c0,2.6-1.7,5-4.8,6.8C249.5,340.4,245.5,341.3,241.5,341.3z M241.5,323.7c-3.8,0-7.5,0.8-10.4,2.5
		c-2.7,1.5-4.1,3.6-4.1,5.7c0,2.1,1.5,4.1,4.1,5.7c5.7,3.3,15.1,3.3,20.8,0c2.7-1.5,4.1-3.6,4.1-5.7c0-2.1-1.5-4.1-4.1-5.7l0,0
		C249.1,324.6,245.3,323.7,241.5,323.7z"/>
	<path fill="#FFFFFF" d="M203,319c-4,0-8-0.9-11-2.6c-3.1-1.8-4.8-4.2-4.8-6.8c0-2.6,1.7-5,4.8-6.8c6.1-3.5,16-3.5,22.1,0h0
		c3.1,1.8,4.8,4.2,4.8,6.8c0,2.6-1.7,5-4.8,6.8C211,318.1,207,319,203,319z M203,301.4c-3.8,0-7.5,0.8-10.4,2.5
		c-2.7,1.5-4.1,3.6-4.1,5.7c0,2.1,1.5,4.1,4.1,5.7c5.7,3.3,15.1,3.3,20.8,0c2.7-1.5,4.1-3.6,4.1-5.7c0-2.1-1.5-4.1-4.1-5.7h0
		C210.5,302.2,206.8,301.4,203,301.4z"/>
	<path fill="#FFFFFF" d="M164.4,296.6c-4,0-8-0.9-11-2.6c-3.1-1.8-4.8-4.2-4.8-6.8c0-2.6,1.7-5,4.8-6.8c6.1-3.5,16-3.5,22.1,0h0
		c3.1,1.8,4.8,4.2,4.8,6.8c0,2.6-1.7,5-4.8,6.8C172.4,295.7,168.4,296.6,164.4,296.6z M164.4,279c-3.8,0-7.5,0.8-10.4,2.5
		c-2.7,1.5-4.1,3.6-4.1,5.7c0,2.1,1.5,4.1,4.1,5.7c5.7,3.3,15.1,3.3,20.8,0c2.7-1.5,4.1-3.6,4.1-5.7c0-2.1-1.5-4.1-4.1-5.7h0
		C172,279.8,168.2,279,164.4,279z"/>
	<path fill="#FFFFFF" d="M175.2,281.6c-0.2,0-0.4-0.1-0.5-0.3c-0.2-0.3-0.1-0.7,0.2-0.9l25.2-14.6c0.3-0.2,0.7-0.1,0.9,0.2
		c0.2,0.3,0.1,0.7-0.2,0.9l-25.2,14.6C175.4,281.5,175.3,281.6,175.2,281.6z"/>
	<path fill="#FFFFFF" d="M313.4,372.3c-0.1,0-0.2,0-0.3-0.1l-20.9-12.3c-0.3-0.2-0.4-0.6-0.2-0.9c0.2-0.3,0.6-0.4,0.9-0.2l20.9,12.3
		c0.3,0.2,0.4,0.6,0.2,0.9C313.8,372.1,313.6,372.3,313.4,372.3z"/>
	<path fill="#FFFFFF" d="M450.5,357h-20.6c-0.3,0-0.6-0.3-0.6-0.6l0-12c0-0.2,0.1-0.3,0.2-0.4c0.1-0.1,0.3-0.2,0.4-0.2h20.6
		c0.3,0,0.6,0.3,0.6,0.6v12C451.1,356.7,450.9,357,450.5,357z M430.5,355.7h19.4V345h-19.4L430.5,355.7z"/>
</g>
<linearGradient id="SVGID_2_" gradientUnits="userSpaceOnUse" x1="5.000000e-004" y1="159.8335" x2="541.1427" y2="159.8335">
	<stop  offset="0" style="stop-color:#2525A5"/>
	<stop  offset="1" style="stop-color:#2525A5"/>
</linearGradient>
<polygon opacity="0.31" fill="url(#SVGID_2_)" points="0,319.7 541.1,0 529.8,0 0,313.7 "/>
<g>
	<g opacity="0.3">
		<g>
			
				<linearGradient id="SVGID_3_" gradientUnits="userSpaceOnUse" x1="-1000.4744" y1="1791.3544" x2="-899.5089" y2="1791.3544" gradientTransform="matrix(0.866 0.5 -0.866 0.5 2951.5894 -169.4079)">
				<stop  offset="0" style="stop-color:#C0D6FF"/>
				<stop  offset="0.2978" style="stop-color:#C5DBFF"/>
				<stop  offset="0.6488" style="stop-color:#D3E9FF"/>
				<stop  offset="1" style="stop-color:#E9FFFF"/>
			</linearGradient>
			<path fill="url(#SVGID_3_)" d="M588.9,292.9l-82.7-48.3c-1.1-0.7-1-1.8,0.3-2.6l55.3-32.1c1.3-0.8,3.3-0.8,4.5-0.2L649,258
				c1.1,0.7,1,1.8-0.3,2.6l-55.3,32.1C592,293.4,590,293.5,588.9,292.9z"/>
		</g>
		
			<linearGradient id="SVGID_4_" gradientUnits="userSpaceOnUse" x1="-1757.2008" y1="250.4766" x2="-1680.5309" y2="250.4766" gradientTransform="matrix(1 0 0 1 2275.7292 0)">
			<stop  offset="0.3548" style="stop-color:#BCD5FF"/>
			<stop  offset="0.4436" style="stop-color:#B5CFFF"/>
			<stop  offset="0.5695" style="stop-color:#A3BEFF"/>
			<stop  offset="0.7175" style="stop-color:#84A2FF"/>
			<stop  offset="0.8814" style="stop-color:#5A7BFF"/>
			<stop  offset="0.8925" style="stop-color:#5778FF"/>
		</linearGradient>
		<path fill="url(#SVGID_4_)" d="M651.7,247.7l-19.4-1.3l-66.2-38.7c-1.2-0.7-3.2-0.6-4.6,0.2l-42.8,24.8l-15.3-1v10.8l0,0
			c0,0.4,0.2,0.9,0.8,1.2l84.8,49.5c1.2,0.7,3.2,0.6,4.6-0.2l57-33.1c0.7-0.4,1.1-1,1.1-1.5l0,0V247.7z"/>
		
			<linearGradient id="SVGID_5_" gradientUnits="userSpaceOnUse" x1="-1013.4201" y1="1779.7206" x2="-909.8313" y2="1779.7206" gradientTransform="matrix(0.866 0.5 -0.866 0.5 2951.5894 -169.4079)">
			<stop  offset="0" style="stop-color:#E9FFFF"/>
			<stop  offset="0.3512" style="stop-color:#D3E9FF"/>
			<stop  offset="0.7022" style="stop-color:#C5DBFF"/>
			<stop  offset="1" style="stop-color:#C0D6FF"/>
		</linearGradient>
		<path fill="url(#SVGID_5_)" d="M589,282.4l-84.8-49.5c-1.2-0.7-1-1.9,0.3-2.7l57-33.1c1.4-0.8,3.4-0.9,4.6-0.2l84.8,49.5
			c1.2,0.7,1,1.9-0.3,2.7l-57,33.1C592.3,283,590.2,283,589,282.4z"/>
	</g>
	<g>
		<path opacity="0.5" fill="#242993" d="M650.9,236.9l-84.8-49.5c-1.2-0.7-3.2-0.6-4.6,0.2l-76,44c-1.4,0.8-1.5,2-0.3,2.7l26.7,15.6
			c-0.2,0.1-0.4,0.2-0.6,0.3c0,0-6.1-1.1-14.1,2.6c-2.8,1.3-5,2.3-6.7,3.2c0,0,0,0,0,0c-0.1,0-0.1,0.1-0.2,0.1
			c-0.3,0.1-0.6,0.3-0.8,0.4c-0.1,0-0.1,0.1-0.2,0.1c-0.3,0.2-0.6,0.3-0.9,0.5c-0.1,0-0.1,0.1-0.2,0.1c-0.2,0.1-0.4,0.2-0.6,0.4
			c-0.1,0-0.1,0.1-0.2,0.1c-0.2,0.1-0.4,0.2-0.5,0.3c-0.1,0-0.1,0.1-0.2,0.1c-0.2,0.1-0.4,0.3-0.6,0.4c0,0,0,0-0.1,0
			c-0.1,0.1-0.3,0.2-0.4,0.3c0,0-0.1,0.1-0.1,0.1c0,0,0,0,0,0c-2.8-1.8-6.9-2.9-6.9-2.9s-4.6-1.6-5.8-0.6c-1.2,1-8.6,14.3-10.3,15.7
			c-1.7,1.4-7.5,6.6-7.5,6.6s-1.4-0.9-2.9-2.2c-1.5-1.3-9.9-8.1-10.5-8.6c-0.5-0.6-10.5-8.7-11.5-10.2c-1-1.6-3.1-1.2-3.1-1.2
			c-0.1-0.7-1.1-2-1.8-2.4c-0.7-0.4-1.9-2.2-1.9-2.3c0-0.1,0-0.5,0-0.5s0.4-0.4,0.3-0.8c-0.1-0.4-1.2-0.4-1.4-0.5
			c-0.2-0.1-0.8-0.5-1.1-0.5c-0.2,0-3.1,1.1-3.5,1.5c-0.1,0.1-0.1,0.1-0.2,0.2c0,0,0,0,0,0c0,0,0,0.1,0,0.1
			c-0.1,0.2-0.1,0.3-0.1,0.5c0,0,0,0.1,0,0.1c0,0.1,0,0.1,0,0.2c0,0,0,0.1,0,0.1c0,0,0,0.1,0,0.1c0,0,0,0.1,0,0.1c0,0,0,0.1,0,0.1
			c0,0,0,0.1,0,0.1c0,0,0,0,0,0c0,0,0,0,0,0s-2.3-2.2-2.5-2.4c-0.2-0.2-1.1-0.4-1.3,0.2c-0.2,0.6,3.7,4.7,3.7,4.7s0.2,0.9,0.6,1.7
			c0.5,0.8,3.2,2,4,2.6c0.8,0.6,1.9,2.2,1.9,2.2c1.1,1.8,11.2,12.8,14.3,14.8c3.2,2,6,6,7.5,7.4c1.6,1.4,2.4,7.4,2.4,7.4l1.4,2.4
			c0,0,0,0,0,0l-0.4,0.2c0,0-0.8-0.3-1.2,0.2c-0.4,0.5-1.2,2.9-1.3,3.3c-0.2,0.3-2.3,1.2-3,2.3c-0.5,0.8-1,1.9-1.2,2.5
			c-0.2,0-0.4,0.1-0.5,0.1c-1.3,0.8-1.8,7.6,1.9,10.4c3.7,2.8,10,3.9,13.3-1.1c0.3-0.5,0.6-1,0.9-1.4c0,0,0,0,0,0
			c0-0.1,0.1-0.1,0.1-0.2c0.1-0.1,0.1-0.3,0.2-0.4c0.1-0.1,0.1-0.3,0.2-0.4c0.1-0.1,0.1-0.3,0.2-0.4c0.1-0.1,0.1-0.2,0.2-0.3
			c0.1-0.1,0.1-0.2,0.2-0.4c0-0.1,0.1-0.2,0.1-0.3c0-0.1,0.1-0.2,0.1-0.3c0-0.1,0.1-0.2,0.1-0.3c0-0.1,0.1-0.2,0.1-0.3
			c0-0.1,0-0.2,0.1-0.2c0.1-0.2,0.1-0.4,0.2-0.6c0-0.1,0-0.1,0.1-0.2c0-0.1,0-0.2,0.1-0.2c0-0.1,0-0.1,0-0.2c0-0.1,0-0.1,0-0.2
			c0-0.1,0-0.1,0-0.2c0-0.1,0-0.1,0-0.2c0-0.1,0-0.1,0-0.2c0-0.1,0-0.1,0-0.1c0,0,0-0.1,0-0.1c0,0,0-0.1,0-0.1c0,0,0-0.1,0-0.1
			c0,0,0-0.1,0-0.1c0,0,0-0.1,0-0.1c0,0,0,0,0,0c0,0,0-0.1,0-0.1c0,0,0,0,0,0c0,0,0,0,0,0l4.1-0.5c0,0,8.9,3.4,11.9,4.2
			c0,0,5.8-0.1,8-0.1c0.5,0.7,1.1,1.4,1.8,2c5.1,5.1,10.2,2.2,11.7,0.3c0.4-0.4,0.8-1,1.3-1.5c0.9-0.1,1.8-0.3,2.5-0.6
			c0,0,1.7-0.4,2.3-2.7c1.3,1.7,3.3,1.7,3.3,1.7s10-0.5,13.9-4.1c0,0,0,0,0,0c0.1-0.1,0.2-0.2,0.4-0.4c0,0,0,0,0.1-0.1
			c0.1-0.1,0.2-0.2,0.3-0.4c0,0,0.1-0.1,0.1-0.1c0.1-0.2,0.2-0.3,0.3-0.5c0.1-0.3,0.3-0.6,0.5-0.9c0.1-0.1,0.1-0.2,0.2-0.3
			c0.1-0.2,0.3-0.4,0.4-0.6c0.1-0.1,0.2-0.2,0.3-0.4c0.1-0.2,0.3-0.4,0.4-0.6c0.1-0.1,0.2-0.3,0.3-0.4c0.2-0.2,0.3-0.4,0.5-0.6
			c0.1-0.1,0.2-0.3,0.3-0.4c0.2-0.2,0.3-0.4,0.5-0.6c0.1-0.1,0.2-0.3,0.3-0.4c0.2-0.2,0.3-0.4,0.5-0.6c0.1-0.1,0.2-0.3,0.4-0.4
			c0.2-0.2,0.4-0.4,0.5-0.6c0.1-0.1,0.2-0.3,0.4-0.4c0.2-0.2,0.4-0.4,0.6-0.6c0.3-0.3,0.5-0.5,0.8-0.8c0.1-0.1,0.2-0.2,0.3-0.3
			c0.2-0.2,0.4-0.4,0.6-0.6c0.1-0.1,0.2-0.2,0.3-0.3c0.2-0.2,0.4-0.4,0.6-0.5c0.1-0.1,0.2-0.2,0.3-0.2c0.2-0.2,0.4-0.3,0.6-0.5
			c0.1-0.1,0.1-0.1,0.2-0.2c0.2-0.2,0.4-0.3,0.6-0.5c0.1,0,0.1-0.1,0.2-0.1c0.2-0.2,0.4-0.3,0.6-0.4c0,0,0.1,0,0.1-0.1
			c0.2-0.1,0.4-0.3,0.6-0.4v0c0.4-0.3,0.7-0.5,1-0.6c1.8-0.8,7.9-3.5,10.8-4.7c0.1-0.1,0.3-0.1,0.4-0.2c0.1,0,0.2-0.1,0.3-0.1
			c0.1-0.1,0.3-0.1,0.4-0.2c0,0,0,0,0,0c0.4-0.3,0.8-0.6,1.1-1c0.1-0.1,0.2-0.3,0.3-0.4c0.1-0.1,0.2-0.2,0.3-0.2l1-0.7l1-0.6
			c0.3-0.2,0.5-0.5,0.7-0.8c0.6-1.7,0.9-3.3,0.9-4.9l18.4,10.7c1.2,0.7,3.2,0.6,4.6-0.2l76-44C652,238.7,652.1,237.6,650.9,236.9z
			 M421.6,253.9c-0.5-0.2-0.9-0.4-0.9-0.4s-0.5-0.6-0.6-0.5c0,0,0.1-0.5-0.3-0.8c0,0,0.4-0.7,0.1-1.3c0,0,0.8,0.3,1.1,0.5
			c0.2,0.2,0.4,0.5,0.7,0.8c0.4,0.3,0.8,0.6,0.9,1C422.6,253.2,422.1,254.1,421.6,253.9z M495.8,289.2c-1,0.1-3,1.1-3.1,1.1
			c0,0-1.1-0.8-1.6-0.6c-0.5,0.2-1.8,1.9-2,1.9c-0.1,0-1.2,0.1-1.9,0.5c0.2-0.6,0.3-1.2,0.5-1.5c0.5-1.3,3.5-5.1,5.2-7.2
			c0.7,0.3,3.1,0.6,3.5,0.6c-0.1,0-0.1,0.1-0.1,0.1s0.1,2.3,0.2,5C496.3,289.1,496.1,289.1,495.8,289.2z M521.7,255.5
			c-1.5,0.1-3.9,0.5-6.1,1.1c-0.2,0.1-0.5,0.1-0.7,0.2c0,0,2.2-1.5,4.2-2.8L521.7,255.5z M504.4,302.9
			C504.4,302.9,504.4,302.9,504.4,302.9c-0.2,0-0.3,0-0.4,0c0,0,0,0-0.1,0c-0.1,0-0.2,0-0.3,0c0,0,0,0-0.1,0c0,0,0,0,0,0
			c0.3,0.1,0.7,0.1,1,0.1C504.6,302.9,504.5,302.9,504.4,302.9z M505.4,302.8c0.5-0.2,1-0.5,1.4-1.3
			C506.5,302.3,506,302.6,505.4,302.8z M506.3,288.1C506.3,288.1,506.3,288.1,506.3,288.1c0,0.1,0,0.3,0,0.4
			C506.3,288.4,506.3,288.2,506.3,288.1z M507.2,299.6c0,0,0-0.1,0-0.1c0-0.2,0-0.3,0-0.5c0,0,0,0,0,0c0-0.1,0-0.2,0-0.2
			C507.2,299,507.2,299.3,507.2,299.6z M530.3,261.7C530.3,261.7,530.3,261.7,530.3,261.7C530.3,261.7,530.3,261.7,530.3,261.7
			L530.3,261.7c-1.9,1.3-5.7,4.2-6.4,4.7c-0.9,0.7-8.1,4.9-11,6.9c-2.9,2-4.7,4.4-4.7,4.4c-1.1,2.2-1.6,5-1.8,7.7l0,0
			c-0.7,0.4-1.2,0.9-1.6,1.4c0-0.7,0-1.2,0-1.3c-0.1-0.4-1.4-1.4-3.2-1.9l0,0c0,0,0,0,0,0c0,0,0,0,0,0c0-0.2-0.1-0.4-0.1-0.7
			c0,0,0,0,0-0.1c-0.1-0.3-0.1-0.7-0.2-1c0,0,0,0,0,0c-0.1-0.6-0.3-1.2-0.4-1.5c0,0,0-0.1,0-0.1c0.1,0,0.1,0,0.1,0l0,0
			c0,0,0.6-0.9,1.1-2.2c0,0,0,0,0,0l0,0h0c0,0,0,0,0,0c1.4-0.8,4.9-2.9,8.8-6.4c5.1-4.6,9.3-6.6,9.3-6.6s5.8-1.6,9.8-4.6l1,0.6
			C530.7,261.2,530.5,261.4,530.3,261.7z"/>
		<g>
			
				<linearGradient id="SVGID_6_" gradientUnits="userSpaceOnUse" x1="-1031.3202" y1="1760.5089" x2="-930.3536" y2="1760.5089" gradientTransform="matrix(0.866 0.5 -0.866 0.5 2951.5894 -169.4079)">
				<stop  offset="0" style="stop-color:#C0D6FF"/>
				<stop  offset="0.2978" style="stop-color:#C5DBFF"/>
				<stop  offset="0.6488" style="stop-color:#D3E9FF"/>
				<stop  offset="1" style="stop-color:#E9FFFF"/>
			</linearGradient>
			<path fill="url(#SVGID_6_)" d="M588.9,262l-82.7-48.3c-1.1-0.7-1-1.8,0.3-2.6l55.3-32.1c1.3-0.8,3.3-0.8,4.5-0.2l82.7,48.3
				c1.1,0.7,1,1.8-0.3,2.6l-55.3,32.1C592,262.6,590,262.7,588.9,262z"/>
		</g>
		
			<linearGradient id="SVGID_7_" gradientUnits="userSpaceOnUse" x1="-1757.2008" y1="219.6311" x2="-1680.5309" y2="219.6311" gradientTransform="matrix(1 0 0 1 2275.7292 0)">
			<stop  offset="0.3548" style="stop-color:#BCD5FF"/>
			<stop  offset="0.4436" style="stop-color:#B5CFFF"/>
			<stop  offset="0.5695" style="stop-color:#A3BEFF"/>
			<stop  offset="0.7175" style="stop-color:#84A2FF"/>
			<stop  offset="0.8814" style="stop-color:#5A7BFF"/>
			<stop  offset="0.8925" style="stop-color:#5778FF"/>
		</linearGradient>
		<path fill="url(#SVGID_7_)" d="M651.7,216.9l-19.4-1.3l-66.2-38.7c-1.2-0.7-3.2-0.6-4.6,0.2l-42.8,24.8l-15.3-1v10.8l0,0
			c0,0.4,0.2,0.9,0.8,1.2l84.8,49.5c1.2,0.7,3.2,0.6,4.6-0.2l57-33.1c0.7-0.4,1.1-1,1.1-1.5l0,0V216.9z"/>
		
			<linearGradient id="SVGID_8_" gradientUnits="userSpaceOnUse" x1="-1044.2654" y1="1748.8751" x2="-940.677" y2="1748.8751" gradientTransform="matrix(0.866 0.5 -0.866 0.5 2951.5894 -169.4079)">
			<stop  offset="0" style="stop-color:#E9FFFF"/>
			<stop  offset="0.3512" style="stop-color:#D3E9FF"/>
			<stop  offset="0.7022" style="stop-color:#C5DBFF"/>
			<stop  offset="1" style="stop-color:#C0D6FF"/>
		</linearGradient>
		<path fill="url(#SVGID_8_)" d="M589,251.5L504.2,202c-1.2-0.7-1-1.9,0.3-2.7l57-33.1c1.4-0.8,3.4-0.9,4.6-0.2l84.8,49.5
			c1.2,0.7,1,1.9-0.3,2.7l-57,33.1C592.3,252.1,590.2,252.2,589,251.5z"/>
	</g>
	<g>
		<g>
			<path fill="#162184" d="M575,189.7l0.1,0.4l0.1-0.2c0,0,0.6,1.9,0.1,2.9c-0.5,1-1.2,2.2-2.2,3.5c-1,1.3-2.6,4.1-3.1,4.7
				c-0.4,0.5-2.9,2.6-6,3c-3.1,0.3-3.9-1.5-3.6-2.4c0.3-1,1.9-3.5,3.8-5.6c1.8-2.1,3.2-4.8,3.2-4.8L575,189.7z"/>
			<path fill="#162184" d="M565.7,181.2c0,0,0.1,2-0.1,2.8c-0.2,0.8-4.8,1.1-6.4,1.3c-1.6,0.2-4.5,1.4-5.3,1.8
				c-0.9,0.4-6.8,1.1-7.5-1.1c-0.7-2.2,3-4,5.5-4.6c2.5-0.6,6.6-1.8,6.6-1.8L565.7,181.2z"/>
			<path fill="#242993" d="M581.5,141.5c0,0,0.2,5.6-1.7,13.4c-1.9,7.8-1.6,13.2-1.6,13.2s1.9,8.8,0.2,14.8c-1.7,6-3.2,7.7-3.2,7.7
				s-3.4,4.6-7.9,0.5c0,0,2.5-8.2,2.8-14.8c0,0-2.2-4.8-3-9.1c0,0-0.6,6.8-1,9.6c0,0,0.4,4.1-0.7,5.7c-1.1,1.6-5.9,2.1-7.5-0.7
				c-1.5-2.8,1.3-1.5,0.4-14.5c0,0-4.5-5.6-5.1-15.9c-0.6-10.3-0.6-14.3,0-16.4c0.6-2,10.5-9.2,10.5-9.2l5.6,7.2L581.5,141.5z"/>
			<path fill="#162184" d="M559.5,153c-1.6-1.9-2.5-8-2.5-8s2.5,5.1,4.3,6.6c1.8,1.5,3.3,4.5,3.7,6.4c0.3,1.9,2.1,9.1,2.1,9.1
				s-0.6,6.8-1,9.6c0,0,0.4,4.1-0.7,5.7c-0.2,0.3-0.6,0.6-1.1,0.8c0-0.1,0.3-9,0-12.8C564.1,166.6,561.1,154.9,559.5,153z"/>
			<path fill="#485DCE" d="M596.3,100.1c0,0,4.3,8.4,4.7,9c0.4,0.6,8.4,10.9,9.2,16.8c0,0,0.6,2.3-2.1,4.3c-2.7,2-16.6,10.9-17.4,11
				c-0.9,0.1-5.9-2.3-6.1-7.8c0,0,10.8-5.1,13.2-7.6c0,0-4.2-7.1-6.3-9.2c-0.5-0.5-0.8-1.5-1-2.6c-0.7-4.7,1.2-9.4,4.6-12.6
				L596.3,100.1z"/>
			<path fill="#242993" d="M564.5,80.5c0,0-6.6,2.5-8.8,1.6c-2.2-0.8-7.8-1.6-11.6-3.7c-3.8-2.1-20.4-6.4-22.8-6.6
				c0,0,0,0.1,0.4,0.3c0.4,0.2,2.1,0.3,2.6,2.3c0.5,1.9-0.6,4.3-0.8,4.4c-0.3,0.2-0.4-0.5-2-1.3c-1.6-0.7-2.6-0.7-2.6-0.7l-0.6,0.8
				l-0.4,0.6c0,0,0.8,2.3,2.9,2.5c2.1,0.2,15.8,5.9,16.6,6.1c0.9,0.3,12.3,5.2,14.4,6c2.1,0.8,3.8,1.8,3.8,1.8s6.7-4.5,6.9-4.5
				C562.7,90.1,564.5,80.5,564.5,80.5z"/>
			<path fill="#FCE8EE" d="M504.9,69c0.3,0.1,3.7,1.2,3.7,1.2s-1.4,0.7-1.5,1.3c-0.1,0.6,0.3,4.1,0.4,4.4c0.1,0.2,0.8,0.7,1.1,0.8
				c0.2,0.1,0.7,1.3,1.2,1.2c0.5-0.2,0.6-0.8,0.6-0.8s0.4-0.2,0.5-0.3c0.1-0.1,2.6,0.2,3.4,0.7c0.8,0.5,2.7,0.8,3.4,0.6
				c0.8-0.2,1.9-0.8,2.1-0.9c0,0,0.8,0.1,1.3,0.4c0.5,0.2,2,1.3,2.2,1.3c0.2,0.1,3.3-6-2.2-7.1c0,0-2.3-0.2-3.3-0.7
				c-1-0.5-3.8-2.6-4.8-2.7s-2.1,0.3-2.1,0.3s-6.2-1.8-6.7-1.2C503.9,68.1,504.6,69,504.9,69z M509.4,73.2c0.7,0,1.3-0.8,1.3-0.8
				c0.5,0.3,1-0.1,1-0.1c0,0.1,0.9,0.3,0.9,0.3s0.4,0.3,0.9,0.7c0.5,0.4-0.2,1.4-0.2,1.4c-0.5,0-1-0.2-1.5-0.4
				c-0.5-0.2-0.9-0.2-1.2-0.3C510.2,73.9,509.4,73.2,509.4,73.2z"/>
			<path fill="#162184" d="M553.3,134.9c0.6-2,10.5-9.2,10.5-9.2l2.8,3.6l2.4,9.3l12.6,3.9v0c0,0-0.7,6.3-10.9,5.6
				c-10.3-0.7-11.5-8.7-11.5-8.7s-1.1,2.6-6.2,3.3C552.7,138.4,552.9,136.2,553.3,134.9z"/>
			<path fill="#4553C7" d="M583.8,85.7l1.7,4.5c0,0,8.4,7.3,10.8,9.9c0,0-4.1,8-4.9,16.4c0,0-3.8,3.1-5,4.6c-1.2,1.4-4.1,8.1-5,10.3
				c-0.9,2.2,1.7,8.8,1.7,8.8s-3.6,6.6-9.3,6.4c-5.7-0.2-9.6-3.7-10.4-10c-0.7-6.2-0.5-7.2-0.5-7.2s-2.6,7.7-6.5,7.7
				s-10.1-6.7-10.1-6.7s-4.2-3.8-3.8-5.5c0.4-1.7,9.8-16.6,10.4-19.1c0.5-2.5,2.6-11.2,2.6-11.2l8.9-14.1l5.4,0.3L583.8,85.7z"/>
			<path fill="#F0FFFF" d="M583.8,85.7c0,0,0,2.7-1,5.3c-1.1,2.6-4.5,17.6-12.3,22.7l-3,1.9v-9.5c0,0,0.1-5.8,1.4-9.6
				c1.3-3.7,1.3-8.2,1.3-8.2s2.2-0.6,2.2-0.6C572.4,87.8,583.8,85.7,583.8,85.7z"/>
			<path fill="#FCE8EE" d="M574.2,92.6c0,0-1.4,0.6-2-0.3c-0.6-0.9-1.2-2.7-1-3.6c0,0-3.7,0.2-4.4-1.8c-0.7-1.9,0.1-2.4,0.2-3
				c0.1-0.6,0.2-2.2,0.7-3.3l0.1-0.5c0,0-0.8-0.6-0.4-1.3c0.3-0.7,2.4-2.8,2.6-3.1c0.2-0.4-0.1-3,0.7-4.3c0.8-1.3,2.3-3.1,2.3-3.1
				s7.8-6.2,14,0c6.2,6.2-3.1,17.5-3.1,17.5s-0.7,3.7-2.5,5.1C579.5,92.3,574.2,92.6,574.2,92.6z"/>
			<path fill="#AA9AAC" d="M580,77.7c0-0.2,0-0.5,0.1-0.7c0.2-0.7,0.6-2.5-1.3-3.9c-2.4-1.7-6.5-3.3-6.4-5c0.1-1.7,6.7-6,11.5-3.7
				c4.8,2.3,9.4,8.1,6.1,14.2c-3.3,6.1-6.2,7.1-6.2,7.1s-1-0.2-0.1-1.2c0.9-1,2.5-3.6,1.2-4.4c-1.3-0.8-3.6,0.9-4,1.3
				c-0.1,0.1-0.2,0.3-0.3,0.5c-0.2,0.3-0.5,0.4-0.8,0.3l-0.1-0.1c-0.3-0.1-0.5-0.5-0.3-0.8l0.6-1.6c0.1-0.2,0.1-0.5,0.1-0.7
				L580,77.7z"/>
			<path fill="#C4E3FF" d="M574.4,94.4c0,0,1.7,1.3,2.8,3.6c0,0-1.9-1.9-2.9-2.3c0,0-2.1,1-2.1,1.6c0,0.6-0.2,4.5-0.7,6.6
				c-0.5,2.1-0.4,9.4-0.4,9.4l-1.3,0.9l-0.6-3.2l0.2-6.9l1.2-6.2c0,0,0.2-2.4,0.3-2.5C571.1,95.3,574.4,94.4,574.4,94.4z"/>
			<path fill="#242993" d="M574.4,94.4c0,0-2-2.1-3-2.2c-1,0-1.5,0.5-1.6,0.6c0,0.1-1,3.5-1,3.5s-1.9,5.8-1.7,12.6
				c0.2,6.8,0.4,6.7,0.4,6.7l2.5-1.6c0,0-0.7-4.9,0.7-10.5c1.4-5.6,0.2-6.5,0.8-7C572.2,95.9,574.8,95,574.4,94.4z"/>
			<path fill="#242993" d="M586.4,121c-1.2,1.4-4,8.1-5,10.3c-0.2,0.4-0.3,0.8-0.3,1.4c-0.2,0.2-0.4,0.2-0.4,0.2l-1.3-1.2
				c0,0,1.1-4.1,2.9-9.1c1.8-5,8.9-6.2,8.9-6.2S587.6,119.6,586.4,121z"/>
			<path fill="#FCE8EE" d="M584.5,133.5c0,0-2-3-2.7-3.4c0,0,0.2,0.8-1,1.4c-1.2,0.5-7.2,2.9-7.4,3.2c-0.2,0.3,0,0.6,0.4,0.7
				c0,0-1.3,0.4-1.8,0.4c-0.5,0-1.2,0.6-0.9,1.2c0.3,0.6,0.6,0.5,0.6,0.5s-0.2,0.6,0.2,0.8c0.4,0.1,1.3,0.2,1.3,0.2
				s-0.2,0.6,0.3,0.9c0.5,0.2,3,0.5,3,0.5s1.9-0.2,2.5-0.2c0.5,0,3,0.6,4.1,0.5c1.1-0.2,4.6-1.4,4.9-1.6
				C588.4,138.2,584.5,133.5,584.5,133.5z"/>
			<path fill="#242993" d="M586,91.6l-0.3,4l-2.2,0.7l1.4,1.2c0,0-5.8,13.3-13.3,17.6c0,0,7.1-2.5,13.8-17.5c0,0-0.7-0.8-0.9-1.1
				l1.5-0.7L586,91.6z"/>
			<path fill="#242993" d="M566.9,91.2c0,0-2.6,13.6-0.4,23.9c0,0-2.7-4.9-0.3-23.9H566.9z"/>
			<path fill="#E2C8CF" d="M507.3,71.3c0.4-0.5,1.4-1,1.4-1s2.8,1.2,3.3,1.4C511.9,71.7,509,71.3,507.3,71.3z"/>
			<path fill="#E2C8CF" d="M523.4,79c-0.1,0-0.6-0.3-1-0.6l0,0c1.9-2.5-0.2-6.2-0.2-6.2C526.4,73.7,523.7,79,523.4,79z"/>
			<path fill="#E2C8CF" d="M588.1,138.4c-0.3,0.2-2.3,0.9-3.7,1.3c0,0-0.9-3.7-0.7-4.9c0.2-1.2,0.7-1.5,0.7-1.5
				c0.1,0.1,0.1,0.2,0.1,0.2S588.4,138.2,588.1,138.4z"/>
			<path fill="#485DCE" d="M584.5,133.3c0,0-0.6,2.1,0.8,3.8c1.4,1.6,1.6,1.9,1.6,1.9h1.6c0,0,0.9-2.6,0.7-2.7
				C589.1,136.2,584.5,133.3,584.5,133.3z"/>
			<path fill="#242993" d="M569.2,95.2L569.2,95.2c0,0-1.6,9.3-1.2,12.8c0.4,3.4,0.2,7.1,0.2,7.1l-0.5,0.4l-0.1,0.1
				c0,0-0.2,0.1-0.4-6.7c-0.2-6.8,1.7-12.6,1.7-12.6S569,95.8,569.2,95.2z"/>
			<g>
				<path fill="#162184" d="M568.7,192c-0.5-0.3-0.9-0.6-1.4-1c0,0,2.5-8.2,2.8-14.8c0,0-2.2-4.8-3-9.1c0.2,0.9,2.8,5.5,4,10.2
					C572.3,182,568.7,192,568.7,192z"/>
			</g>
			<g>
				<path fill="#E2C8CF" d="M580.2,84.2C580.2,84.2,580.2,84.2,580.2,84.2C580.2,84.2,580.2,84.2,580.2,84.2z"/>
				<path fill="#E2C8CF" d="M580.2,84.2c0,0.2-0.7,3.6-2.1,5.1c-1.4,1.6-2.4,3.2-2.4,3.2c-0.9,0.1-1.5,0.2-1.5,0.2s-1.4,0.6-2-0.3
					c-0.6-0.9-1.2-2.7-1-3.6c0,0,5-0.5,6.9-1.8C579.8,85.7,580.2,84.4,580.2,84.2z"/>
			</g>
			<path fill="#1B4263" d="M582,130.2c0,0-0.3,0.6-0.3,0.6c0,0-0.1-0.4-0.1-0.4s0.2-0.5,0.2-0.5C581.8,129.9,582,130.2,582,130.2z"
				/>
			<path fill="#242993" d="M567.6,115.6c0,0-3.5,11.1-4.6,13.8l0.1,2.7C563,132.1,567.4,118.3,567.6,115.6z"/>
			
				<ellipse transform="matrix(-0.9564 -0.2922 0.2922 -0.9564 1070.905 399.7752)" fill="#242993" cx="565.3" cy="119.9" rx="1.1" ry="1.2"/>
			<path fill="#242993" d="M562.5,124.4c-0.2,0.6,0.1,1.3,0.7,1.5c0.6,0.2,1.2-0.2,1.4-0.8c0.2-0.6-0.1-1.3-0.7-1.5
				C563.3,123.4,562.7,123.7,562.5,124.4z"/>
		</g>
	</g>
	<g>
		<g>
			<path fill="#162184" d="M588.2,233.1c0,0-2.3,0.3-4.5,0.2c-2.2-0.1-8.3,0.4-8.3,2.3c0,1.9,2.9,4.9,6.8,5.6
				c3.9,0.7,8.9,0.2,11.5,0.5c2.5,0.3,4.5-1.7,3.7-3.9C596.6,235.6,588.2,233.1,588.2,233.1z"/>
			<path fill="#162184" d="M602.1,229.1c0,0,0.7,1.2,0.2,1.9c-0.5,0.7-1.8,2.3-5.2,0.3c-3.4-2-10.2-5.1-10.2-5.1s-3.9-2.2-3.4-4.3
				c0.4-2.2,4.1-1.5,4.1-1.5L602.1,229.1z"/>
			<path fill="#242993" d="M581,195.3c0,0,0.4,15.1,3.3,20.9c2.9,5.8,2.9,15.7,3.4,17.6c0.5,1.9,2.4,4.7,5.7,5.6c3.3,0.8,4-1,4-2.2
				c0-1.2-0.8-3.1-0.7-4.4c0.1-1.3,0.5-1.8,0.6-2.4c0,0,3.8,1.3,4.7-1.2c0,0-0.2-0.8-0.2-1.2c0-0.4,1.5-9.8,1.7-11
				c0.2-1.2,0.2-7.6-0.5-10.9c-0.8-3.3,0.4-10.1,0.4-10.1l-11.5-2.5L581,195.3z"/>
			<path fill="#162184" d="M599.8,196.8c0,0-0.3,2.4-1.6,4.2c0,0-0.8,7.9-2.1,11.8c0,0,0.7,7.9,1.3,10.4c0.7,2.5,0,7.1,0,7.1
				s0.4,0.2,1.1,0.3c0.6,0.1,1.7-9.2,0.9-10.9c-0.8-1.7-0.8-9.3-0.1-11.6c0.6-2.3,1.2-9,1.8-10.1c0.6-1.2-0.4-1.9-0.4-1.9
				L599.8,196.8z"/>
			<path fill="#162184" d="M595.5,136.3c0,0-3.9,2.2-4.1,6.6l2.7-0.3C594.1,142.6,593.8,137.7,595.5,136.3z"/>
			<path fill="#162184" d="M591,199.4c7.6,0.9,12.1-1.8,12.1-1.8c0.1-1,0.2-1.6,0.2-1.6l-11.5-2.5l-10.8,1.7c0,0,0.1,3,0.4,6.9
				c1.9,0.3,4-3.6,4-3.6l5.2,0.8C590.7,199.3,583.4,198.5,591,199.4z"/>
			<path fill="#4553C7" d="M582.5,195.6c0,0,16.1,7.5,25.4-3.3c0.3-0.3,0.4-0.7,0.5-1.1l0.2-2.8c0-0.4,0.1-0.7,0.3-1l0,0
				c0.3-0.7,0.5-1.4,0.4-2.2c-0.3-3.2-1-12-1.2-14.5c-0.2-3,2.9-15.1,6.5-20.3c3.6-5.2-2.6-18.3-2.6-18.3s-1.6-3.1-5.4-2.4
				c0,0,3.3,2.7,1.1,5.1c-2.2,2.4-8.1,3.8-8.1,3.8s-11,4.3-15.1,10.3c0,0-1.5,3.1-1.9,7.2c-0.4,4.1-0.7,13.7-1,15
				c-0.3,1.3-1.5,10.1-1.5,10.5C580.3,182,582.5,195.6,582.5,195.6z"/>
			<g>
				<linearGradient id="SVGID_9_" gradientUnits="userSpaceOnUse" x1="606.7502" y1="130.6624" x2="608.5703" y2="130.6624">
					<stop  offset="0" style="stop-color:#5778FF"/>
					<stop  offset="7.257640e-002" style="stop-color:#5489FF"/>
					<stop  offset="0.2791" style="stop-color:#4EB3FF"/>
					<stop  offset="0.4801" style="stop-color:#49D4FF"/>
					<stop  offset="0.6715" style="stop-color:#45ECFF"/>
					<stop  offset="0.8493" style="stop-color:#43FAFF"/>
					<stop  offset="1" style="stop-color:#42FFFF"/>
				</linearGradient>
				<path fill="url(#SVGID_9_)" d="M608.3,131.7c0.4-0.7,0.4-1.4,0.2-2c-0.5-0.1-1.1-0.1-1.7,0C606.8,129.7,607.8,130.6,608.3,131.7
					z"/>
				<path fill="#242993" d="M587.5,197.3c0,0,12.3-23.6,12.8-32.9c0.5-9.3-16.5,16.9-16.5,16.9l-1.2,14.4
					C582.5,195.6,585.6,196.9,587.5,197.3z"/>
			</g>
			<path fill="#485DCE" d="M584.5,167.7c0.5-2.1,0.9-4.2,1.1-6.3c0.3-3.7,2-9.9,9.2-8.2c10.1,2.4,4.4,15.4,3.1,17.6
				c-1.3,2.2-6.6,11.9-6.9,12.4c-0.3,0.5-8.1,12.1-10.7,14.8c-0.2,0.2-0.6,0.2-0.9,0c-0.9-0.8-3-2.8-3.2-3.9
				c-0.3-1.5,1.5-6.6,1.5-6.6s4.9-13.1,5.2-13.8C583.3,173.3,583.6,171,584.5,167.7z"/>
			<path fill="#FCE8EE" d="M595.6,136.6c0,0-0.7-1.9-2.6-2.3c-1.9-0.4-3-1-3.1-1.7c-0.1-0.7-0.1-1.6-0.5-2.6
				c-0.4-1.1-0.6-3.7-0.6-3.8c0-0.1-1.4-0.6-1.5-1.3c0-0.6,0.9-2.9,0.9-3.1c-0.1-0.2-0.8-1.7-0.6-2.8c0.2-1.1,0.5-2.7,1.2-4
				c0.7-1.3,5.6-9.4,16.2-4c10.6,5.3,1.3,13.7,1.7,19.6c0,0,0.8,1.3-1.1,3.2C603.8,135.7,598.6,135.7,595.6,136.6z"/>
			<path fill="#E2C8CF" d="M605.8,133.8c2-1.9,1.1-3.2,1.1-3.2c-0.1-0.8,0.1-1.7,0.3-2.6l-4.3,0.4c0,0-5.8-6.1-5.6-3.1
				c0.2,3-1.4,3.4-1.4,3.4l1.1,1.7c0.3,0.4,0.1,0.9-0.3,1.3c-2,2.8-6.3,1.5-6.3,1.5c0.5,0.4,1.4,0.7,2.6,0.9
				c1.9,0.4,2.6,2.3,2.6,2.3C598.6,135.7,603.8,135.7,605.8,133.8z"/>
			<g>
				<path fill="#AA9AAC" d="M588.7,111.9c0,0-0.9,2.2,0.2,3.2c1.2,1,2.2,2,2.2,2l-0.2,2.8c0,0.4,0.1,0.8,0.2,1.2l1.3,2.5
					c0.3,0.5,0.4,1,0.3,1.6l-0.1,1.1c0,0.3,0.2,0.6,0.5,0.7l0.4,0.1c0.4,0.1,0.7-0.2,0.8-0.5l0.3-1.5c0,0,0.9-1.2,2.6,0.5l1.5,0.8
					c0.4,0.2,0.7,0.6,0.9,1.1c0.3,1.2,1,3.7,1.7,4.1c0.9,0.6,4.8-0.9,5.4-1.7c0.6-0.8,2.4-6.2,3.5-8.9c1.1-2.6,1.3-9.4-6.7-11.8
					C595.6,106.5,590,109.6,588.7,111.9z"/>
			</g>
			<path fill="#F0FFFF" d="M606.9,130c0,0,2.9,2.1,1.1,4.6c-1.8,2.5-13.4,6.1-14,6.8c0,0-0.1-3.9,1.5-5.1c0,0,8.7-0.9,10.2-2.9
				C607.3,131.4,606.9,130,606.9,130z"/>
			<path fill="#C4E3FF" d="M606.9,130c0,0,0.4,1.4-1.2,3.4c-1.2,1.5-6.4,2.4-8.9,2.7l0,0c0,0,0.9,0.6,2.1,3.2c3.6-1.4,8-3.3,9-4.7
				C609.8,132.1,606.9,130,606.9,130z"/>
			<path fill="#242993" d="M608.1,138.6c0,0-5.2,2.3-7.8,3.3c-2.5,1-5.3,2.4-5.3,2.4l-0.8-1l-1.3,2.2c0,0-3.9,1.8-5.8,3.5
				c-1.9,1.6-3.4,3.8-3.6,4.4c0,0,5.1-5.4,9-6.8l1-0.4l0.7-1.8l0.8,1C594.9,145.4,606.4,140.1,608.1,138.6z"/>
		</g>
		<g>
			<path fill="#4553C7" d="M588.6,211L588.6,211L588.6,211c-0.1-0.4-0.3-0.7-0.5-0.9l-17.6-15.5c-0.5-0.4-1-0.2-1.1,0.5l-3.1,15.9
				c-0.1,0.7,0.1,1.6,0.6,2l14.5,12.7l-0.9,4.3l4.6-1.4l0,0c0.2-0.1,0.4-0.3,0.5-0.7l3.1-15.9C588.7,211.8,588.7,211.3,588.6,211z"
				/>
			<path fill="#4553C7" d="M565.3,195.7l4.5-1.3l0.1,0c0.2,0,0.3,0,0.5,0.2l17.6,15.5c0.2,0.2,0.4,0.5,0.5,0.9l-0.7,0.2l0,0
				l-3.9,1.3l-15.4-13.7l0,0L565.3,195.7z"/>
			<path fill="#242993" d="M562.2,214.4l17.6,15.5c0.5,0.4,1,0.2,1.1-0.5l3.1-15.9c0.1-0.7-0.1-1.6-0.6-2l-17.6-15.5
				c-0.5-0.4-1-0.2-1.1,0.5l-3.1,15.9C561.5,213.1,561.8,214,562.2,214.4z"/>
			<path fill="#162184" d="M583.3,228.6l3.1-15.9c0.1-0.7-0.1-1.6-0.6-2l-17.6-15.5c-0.1-0.1-0.3-0.2-0.4-0.2c0.2-0.1,0.4,0,0.6,0.2
				l17.6,15.5c0.5,0.4,0.7,1.3,0.6,2l-3.1,15.9c-0.1,0.5-0.4,0.8-0.7,0.8C583,229.3,583.2,229,583.3,228.6z"/>
			<g>
				<g>
					<path fill="#162184" d="M578.5,204.2l1-0.3c0.2-0.1,0.4-0.1,0.6,0l0.1,0c0.1,0,0.1,0.1,0.1,0.3l0,0.2l-2.8,1l0-0.2
						c0-0.1,0.1-0.3,0.2-0.4l0.1-0.1C578.1,204.4,578.3,204.2,578.5,204.2z"/>
					<polygon fill="#162184" points="578.7,206.3 577.5,205.2 580.3,203.9 581.5,204.9 					"/>
					<path fill="#4553C7" d="M579.8,205.2l1-0.3c0.2-0.1,0.4-0.1,0.6,0l0.1,0c0.1,0,0.1,0.1,0.1,0.3l0,0.2l-2.8,1l0-0.2
						c0-0.1,0.1-0.3,0.2-0.4l0.1-0.1C579.3,205.5,579.5,205.3,579.8,205.2z"/>
					<polygon fill="#162184" points="580.3,205.7 580.4,205 580.4,205 580.2,205.7 					"/>
					<polygon fill="#162184" points="580.4,205 579.2,203.9 579.1,204 580.4,205 					"/>
				</g>
				<g>
					<path fill="#162184" d="M572.9,199.2l1-0.3c0.2-0.1,0.4-0.1,0.6,0l0.1,0c0.1,0,0.1,0.1,0.1,0.3l0,0.2l-2.8,1l0-0.2
						c0-0.1,0.1-0.3,0.2-0.4l0.1-0.1C572.5,199.4,572.7,199.3,572.9,199.2z"/>
					<polygon fill="#162184" points="573.1,201.3 571.9,200.2 574.7,198.9 575.9,200 					"/>
					<path fill="#4553C7" d="M574.2,200.3l1-0.3c0.2-0.1,0.4-0.1,0.6,0l0.1,0c0.1,0,0.1,0.1,0.1,0.3l0,0.2l-2.8,1l0-0.2
						c0-0.1,0.1-0.3,0.2-0.4l0.1-0.1C573.7,200.5,573.9,200.4,574.2,200.3z"/>
					<polygon fill="#162184" points="574.7,200.8 574.8,200.1 574.8,200.1 574.6,200.8 					"/>
					<polygon fill="#162184" points="574.8,200.1 573.6,199 573.5,199 574.8,200.1 					"/>
				</g>
				<g>
					<path fill="#4553C7" d="M581.2,201.7l-0.6,3l-0.8-0.7l0.6-2.9c0.1-0.4-0.1-1-0.4-1.3l-3.6-3.2c-0.3-0.3-0.7-0.2-0.7,0.3
						l-0.6,2.9l-0.8-0.7l0.6-3c0.2-0.9,0.9-1.2,1.6-0.6l3.8,3.4C581,199.5,581.4,200.8,581.2,201.7z"/>
					<path fill="#4553C7" d="M575,196.3l1.6,0l4.3,4.2l0,2.3l-0.2,1.9l-1,0.4l0.2-2.4l0.1-1.6l-0.8-1.3c0,0-1.6-1.4-1.6-1.4
						C577.3,198.3,575,196.3,575,196.3z"/>
					<polygon fill="#4553C7" points="574,200.1 575,199.7 575.5,197.6 574.5,197.6 574.2,197.6 					"/>
					<path fill="#4553C7" d="M574.4,195.5l1.1-0.4c0,0-0.3,0.5-0.3,0.5c0,0-0.4,0.1-0.4,0.1C574.8,195.7,574.4,195.5,574.4,195.5z"
						/>
					<path fill="#162184" d="M580.2,202l-0.6,3l-0.8-0.7l0.6-2.9c0.1-0.4-0.1-1-0.4-1.3l-3.6-3.2c-0.3-0.3-0.7-0.2-0.7,0.3l-0.6,2.9
						l-0.8-0.7l0.6-3c0.2-0.9,0.9-1.2,1.6-0.6l3.8,3.4C580,199.8,580.4,201.1,580.2,202z"/>
				</g>
			</g>
		</g>
		<path fill="#FCE8EE" d="M576.5,194c0,0-0.9,2.9-0.7,3.7c0.1,0.8,1.6,2.3,2.6,2.7c0.9,0.3,0.6-0.7,0.9-1.3c0.3-0.6,0.3-2,0.3-2
			L576.5,194z"/>
		<path fill="#E2C8CF" d="M579.6,197l-3.1-3c0,0-0.2,0.6-0.4,1.3c0,0,1,2.3,3.2,3.4C579.5,198,579.6,197,579.6,197z"/>
		<path fill="#485DCE" d="M576.2,194.2c0,0,0.9,3.3,3.8,3.9l-0.7-3.6c0,0-2.4-0.8-2.5-0.9C576.8,193.6,576.2,194.2,576.2,194.2z"/>
	</g>
</g>
<g>
	<g opacity="0.3">
		<g>
			
				<linearGradient id="SVGID_10_" gradientUnits="userSpaceOnUse" x1="-487.4992" y1="169.9338" x2="-420.0206" y2="169.9338" gradientTransform="matrix(1 0 0 1 886.4464 0)">
				<stop  offset="0" style="stop-color:#C0D6FF"/>
				<stop  offset="0.2978" style="stop-color:#C5DBFF"/>
				<stop  offset="0.6488" style="stop-color:#D3E9FF"/>
				<stop  offset="1" style="stop-color:#E9FFFF"/>
			</linearGradient>
			<polygon fill="url(#SVGID_10_)" points="455.3,101.6 466.4,86.5 457.4,248.1 423.6,253.3 398.9,97 			"/>
			
				<linearGradient id="SVGID_11_" gradientUnits="userSpaceOnUse" x1="196.1628" y1="1076.97" x2="253.3542" y2="1076.97" gradientTransform="matrix(0.866 0.5 -0.866 0.5 1170.7017 -559.0693)">
				<stop  offset="0" style="stop-color:#C0D6FF"/>
				<stop  offset="0.2978" style="stop-color:#C5DBFF"/>
				<stop  offset="0.6488" style="stop-color:#D3E9FF"/>
				<stop  offset="1" style="stop-color:#E9FFFF"/>
			</linearGradient>
			<polygon fill="url(#SVGID_11_)" points="466.4,86.5 441.7,72.2 408,77.5 398.9,97 423.6,111.4 457.4,106.1 			"/>
			<polygon fill="#FFFFFF" points="465.8,86.2 457.1,105 423.3,110.2 399.3,96.3 398.9,97 423.6,111.4 457.4,106.1 466.4,86.5 			
				"/>
			
				<linearGradient id="SVGID_12_" gradientUnits="userSpaceOnUse" x1="-462.8005" y1="179.7246" x2="-429.0602" y2="179.7246" gradientTransform="matrix(1 0 0 1 886.4464 0)">
				<stop  offset="0" style="stop-color:#C0D6FF"/>
				<stop  offset="0.2978" style="stop-color:#C5DBFF"/>
				<stop  offset="0.6488" style="stop-color:#D3E9FF"/>
				<stop  offset="1" style="stop-color:#E9FFFF"/>
			</linearGradient>
			<polygon fill="url(#SVGID_12_)" points="457.4,106.1 457.4,248.1 423.6,253.3 423.6,111.4 			"/>
			
				<linearGradient id="SVGID_13_" gradientUnits="userSpaceOnUse" x1="-429.0602" y1="167.3107" x2="-420.0206" y2="167.3107" gradientTransform="matrix(1 0 0 1 886.4464 0)">
				<stop  offset="0" style="stop-color:#E9FFFF"/>
				<stop  offset="0.3512" style="stop-color:#D3E9FF"/>
				<stop  offset="0.7022" style="stop-color:#C5DBFF"/>
				<stop  offset="1" style="stop-color:#C0D6FF"/>
			</linearGradient>
			<polygon fill="url(#SVGID_13_)" points="466.4,86.5 466.4,228.5 457.4,248.1 457.4,106.1 			"/>
			
				<linearGradient id="SVGID_14_" gradientUnits="userSpaceOnUse" x1="-487.4992" y1="175.1804" x2="-462.8005" y2="175.1804" gradientTransform="matrix(1 0 0 1 886.4464 0)">
				<stop  offset="0" style="stop-color:#5778FF"/>
				<stop  offset="0.1779" style="stop-color:#5C7DFF"/>
				<stop  offset="0.3876" style="stop-color:#6A8AFF"/>
				<stop  offset="0.6134" style="stop-color:#82A0FF"/>
				<stop  offset="0.849" style="stop-color:#A3BEFF"/>
				<stop  offset="1" style="stop-color:#BCD5FF"/>
			</linearGradient>
			<polygon fill="url(#SVGID_14_)" points="398.9,97 398.9,239 423.6,253.3 423.6,111.4 			"/>
		</g>
		<g>
			
				<linearGradient id="SVGID_15_" gradientUnits="userSpaceOnUse" x1="-540.6329" y1="211.8872" x2="-473.1534" y2="211.8872" gradientTransform="matrix(1 0 0 1 886.4464 0)">
				<stop  offset="0" style="stop-color:#C0D6FF"/>
				<stop  offset="0.2978" style="stop-color:#C5DBFF"/>
				<stop  offset="0.6488" style="stop-color:#D3E9FF"/>
				<stop  offset="1" style="stop-color:#E9FFFF"/>
			</linearGradient>
			<polygon fill="url(#SVGID_15_)" points="402.2,156.4 413.3,141.3 404.3,277.2 370.5,282.5 345.8,151.8 			"/>
			
				<linearGradient id="SVGID_16_" gradientUnits="userSpaceOnUse" x1="220.2561" y1="1162.4181" x2="277.4476" y2="1162.4181" gradientTransform="matrix(0.866 0.5 -0.866 0.5 1170.7017 -559.0693)">
				<stop  offset="0" style="stop-color:#C0D6FF"/>
				<stop  offset="0.2978" style="stop-color:#C5DBFF"/>
				<stop  offset="0.6488" style="stop-color:#D3E9FF"/>
				<stop  offset="1" style="stop-color:#E9FFFF"/>
			</linearGradient>
			<polygon fill="url(#SVGID_16_)" points="413.3,141.3 388.6,127 354.9,132.2 345.8,151.8 370.5,166.1 404.3,160.9 			"/>
			<polygon fill="#FFFFFF" points="412.6,140.9 403.9,159.8 370.2,165 346.2,151.1 345.8,151.8 370.5,166.1 404.3,160.9 
				413.3,141.3 			"/>
			
				<linearGradient id="SVGID_17_" gradientUnits="userSpaceOnUse" x1="-515.9332" y1="221.678" x2="-482.194" y2="221.678" gradientTransform="matrix(1 0 0 1 886.4464 0)">
				<stop  offset="0" style="stop-color:#C0D6FF"/>
				<stop  offset="0.2978" style="stop-color:#C5DBFF"/>
				<stop  offset="0.6488" style="stop-color:#D3E9FF"/>
				<stop  offset="1" style="stop-color:#E9FFFF"/>
			</linearGradient>
			<polygon fill="url(#SVGID_17_)" points="404.3,160.9 404.3,277.2 370.5,282.5 370.5,166.1 			"/>
			
				<linearGradient id="SVGID_18_" gradientUnits="userSpaceOnUse" x1="-482.194" y1="209.2637" x2="-473.1534" y2="209.2637" gradientTransform="matrix(1 0 0 1 886.4464 0)">
				<stop  offset="0" style="stop-color:#E9FFFF"/>
				<stop  offset="0.3512" style="stop-color:#D3E9FF"/>
				<stop  offset="0.7022" style="stop-color:#C5DBFF"/>
				<stop  offset="1" style="stop-color:#C0D6FF"/>
			</linearGradient>
			<polygon fill="url(#SVGID_18_)" points="413.3,141.3 413.3,257.6 404.3,277.2 404.3,160.9 			"/>
			
				<linearGradient id="SVGID_19_" gradientUnits="userSpaceOnUse" x1="-540.6329" y1="217.1338" x2="-515.9332" y2="217.1338" gradientTransform="matrix(1 0 0 1 886.4464 0)">
				<stop  offset="0" style="stop-color:#5778FF"/>
				<stop  offset="0.1779" style="stop-color:#5C7DFF"/>
				<stop  offset="0.3876" style="stop-color:#6A8AFF"/>
				<stop  offset="0.6134" style="stop-color:#82A0FF"/>
				<stop  offset="0.849" style="stop-color:#A3BEFF"/>
				<stop  offset="1" style="stop-color:#BCD5FF"/>
			</linearGradient>
			<polygon fill="url(#SVGID_19_)" points="345.8,151.8 345.8,268.1 370.5,282.5 370.5,166.1 			"/>
		</g>
		<g>
			
				<linearGradient id="SVGID_20_" gradientUnits="userSpaceOnUse" x1="-593.7667" y1="256.6943" x2="-526.2872" y2="256.6943" gradientTransform="matrix(1 0 0 1 886.4464 0)">
				<stop  offset="0" style="stop-color:#C0D6FF"/>
				<stop  offset="0.2978" style="stop-color:#C5DBFF"/>
				<stop  offset="0.6488" style="stop-color:#D3E9FF"/>
				<stop  offset="1" style="stop-color:#E9FFFF"/>
			</linearGradient>
			<polygon fill="url(#SVGID_20_)" points="349.1,214.5 360.2,199.5 351.1,308.7 317.4,313.9 292.7,210 			"/>
			
				<linearGradient id="SVGID_21_" gradientUnits="userSpaceOnUse" x1="247.7323" y1="1251.2494" x2="304.9243" y2="1251.2494" gradientTransform="matrix(0.866 0.5 -0.866 0.5 1170.7017 -559.0693)">
				<stop  offset="0" style="stop-color:#C0D6FF"/>
				<stop  offset="0.2978" style="stop-color:#C5DBFF"/>
				<stop  offset="0.6488" style="stop-color:#D3E9FF"/>
				<stop  offset="1" style="stop-color:#E9FFFF"/>
			</linearGradient>
			<polygon fill="url(#SVGID_21_)" points="360.2,199.5 335.5,185.1 301.7,190.4 292.7,210 317.4,224.3 351.1,219.1 			"/>
			<polygon fill="#FFFFFF" points="359.5,199.1 350.8,217.9 317.1,223.2 293,209.2 292.7,210 317.4,224.3 351.1,219.1 360.2,199.5 
							"/>
			
				<linearGradient id="SVGID_22_" gradientUnits="userSpaceOnUse" x1="-569.067" y1="266.4854" x2="-535.3267" y2="266.4854" gradientTransform="matrix(1 0 0 1 886.4464 0)">
				<stop  offset="0" style="stop-color:#C0D6FF"/>
				<stop  offset="0.2978" style="stop-color:#C5DBFF"/>
				<stop  offset="0.6488" style="stop-color:#D3E9FF"/>
				<stop  offset="1" style="stop-color:#E9FFFF"/>
			</linearGradient>
			<polygon fill="url(#SVGID_22_)" points="351.1,219.1 351.1,308.7 317.4,313.9 317.4,224.3 			"/>
			
				<linearGradient id="SVGID_23_" gradientUnits="userSpaceOnUse" x1="-535.3267" y1="254.0713" x2="-526.2872" y2="254.0713" gradientTransform="matrix(1 0 0 1 886.4464 0)">
				<stop  offset="0" style="stop-color:#E9FFFF"/>
				<stop  offset="0.3512" style="stop-color:#D3E9FF"/>
				<stop  offset="0.7022" style="stop-color:#C5DBFF"/>
				<stop  offset="1" style="stop-color:#C0D6FF"/>
			</linearGradient>
			<polygon fill="url(#SVGID_23_)" points="360.2,199.5 360.2,289.1 351.1,308.7 351.1,219.1 			"/>
			
				<linearGradient id="SVGID_24_" gradientUnits="userSpaceOnUse" x1="-593.7667" y1="261.9409" x2="-569.067" y2="261.9409" gradientTransform="matrix(1 0 0 1 886.4464 0)">
				<stop  offset="0" style="stop-color:#5778FF"/>
				<stop  offset="0.1779" style="stop-color:#5C7DFF"/>
				<stop  offset="0.3876" style="stop-color:#6A8AFF"/>
				<stop  offset="0.6134" style="stop-color:#82A0FF"/>
				<stop  offset="0.849" style="stop-color:#A3BEFF"/>
				<stop  offset="1" style="stop-color:#BCD5FF"/>
			</linearGradient>
			<polygon fill="url(#SVGID_24_)" points="292.7,210 292.7,299.6 317.4,313.9 317.4,224.3 			"/>
		</g>
		<g>
			
				<linearGradient id="SVGID_25_" gradientUnits="userSpaceOnUse" x1="-646.8995" y1="293.334" x2="-579.4205" y2="293.334" gradientTransform="matrix(1 0 0 1 886.4464 0)">
				<stop  offset="0" style="stop-color:#C0D6FF"/>
				<stop  offset="0.2978" style="stop-color:#C5DBFF"/>
				<stop  offset="0.6488" style="stop-color:#D3E9FF"/>
				<stop  offset="1" style="stop-color:#E9FFFF"/>
			</linearGradient>
			<polygon fill="url(#SVGID_25_)" points="295.9,256.3 307,241.3 298,340.1 264.2,345.4 239.5,251.8 			"/>
			
				<linearGradient id="SVGID_26_" gradientUnits="userSpaceOnUse" x1="258.8715" y1="1323.7441" x2="316.063" y2="1323.7441" gradientTransform="matrix(0.866 0.5 -0.866 0.5 1170.7017 -559.0693)">
				<stop  offset="0" style="stop-color:#C0D6FF"/>
				<stop  offset="0.2978" style="stop-color:#C5DBFF"/>
				<stop  offset="0.6488" style="stop-color:#D3E9FF"/>
				<stop  offset="1" style="stop-color:#E9FFFF"/>
			</linearGradient>
			<polygon fill="url(#SVGID_26_)" points="307,241.3 282.3,227 248.6,232.2 239.5,251.8 264.2,266.1 298,260.9 			"/>
			<polygon fill="#FFFFFF" points="306.4,240.9 297.7,259.7 263.9,265 239.9,251 239.5,251.8 264.2,266.1 298,260.9 307,241.3 			
				"/>
			
				<linearGradient id="SVGID_27_" gradientUnits="userSpaceOnUse" x1="-622.2003" y1="303.1245" x2="-588.4605" y2="303.1245" gradientTransform="matrix(1 0 0 1 886.4464 0)">
				<stop  offset="0" style="stop-color:#C0D6FF"/>
				<stop  offset="0.2978" style="stop-color:#C5DBFF"/>
				<stop  offset="0.6488" style="stop-color:#D3E9FF"/>
				<stop  offset="1" style="stop-color:#E9FFFF"/>
			</linearGradient>
			<polygon fill="url(#SVGID_27_)" points="298,260.9 298,340.1 264.2,345.4 264.2,266.1 			"/>
			
				<linearGradient id="SVGID_28_" gradientUnits="userSpaceOnUse" x1="-588.4605" y1="290.7109" x2="-579.4205" y2="290.7109" gradientTransform="matrix(1 0 0 1 886.4464 0)">
				<stop  offset="0" style="stop-color:#E9FFFF"/>
				<stop  offset="0.3512" style="stop-color:#D3E9FF"/>
				<stop  offset="0.7022" style="stop-color:#C5DBFF"/>
				<stop  offset="1" style="stop-color:#C0D6FF"/>
			</linearGradient>
			<polygon fill="url(#SVGID_28_)" points="307,241.3 307,320.5 298,340.1 298,260.9 			"/>
			
				<linearGradient id="SVGID_29_" gradientUnits="userSpaceOnUse" x1="-646.8995" y1="298.5805" x2="-622.2003" y2="298.5805" gradientTransform="matrix(1 0 0 1 886.4464 0)">
				<stop  offset="0" style="stop-color:#5778FF"/>
				<stop  offset="0.1779" style="stop-color:#5C7DFF"/>
				<stop  offset="0.3876" style="stop-color:#6A8AFF"/>
				<stop  offset="0.6134" style="stop-color:#82A0FF"/>
				<stop  offset="0.849" style="stop-color:#A3BEFF"/>
				<stop  offset="1" style="stop-color:#BCD5FF"/>
			</linearGradient>
			<polygon fill="url(#SVGID_29_)" points="239.5,251.8 239.5,331 264.2,345.4 264.2,266.1 			"/>
		</g>
		<g>
			
				<linearGradient id="SVGID_30_" gradientUnits="userSpaceOnUse" x1="-700.0332" y1="334.5864" x2="-632.5537" y2="334.5864" gradientTransform="matrix(1 0 0 1 886.4464 0)">
				<stop  offset="0" style="stop-color:#C0D6FF"/>
				<stop  offset="0.2978" style="stop-color:#C5DBFF"/>
				<stop  offset="0.6488" style="stop-color:#D3E9FF"/>
				<stop  offset="1" style="stop-color:#E9FFFF"/>
			</linearGradient>
			<polygon fill="url(#SVGID_30_)" points="242.8,307.4 253.9,292.3 244.9,371.6 211.1,376.8 186.4,302.8 			"/>
			
				<linearGradient id="SVGID_31_" gradientUnits="userSpaceOnUse" x1="279.237" y1="1405.4645" x2="336.4292" y2="1405.4645" gradientTransform="matrix(0.866 0.5 -0.866 0.5 1170.7017 -559.0693)">
				<stop  offset="0" style="stop-color:#C0D6FF"/>
				<stop  offset="0.2978" style="stop-color:#C5DBFF"/>
				<stop  offset="0.6488" style="stop-color:#D3E9FF"/>
				<stop  offset="1" style="stop-color:#E9FFFF"/>
			</linearGradient>
			<polygon fill="url(#SVGID_31_)" points="253.9,292.3 229.2,278 195.5,283.2 186.4,302.8 211.1,317.2 244.9,311.9 			"/>
			<polygon fill="#FFFFFF" points="253.2,291.9 244.5,310.8 210.8,316 186.8,302.1 186.4,302.8 211.1,317.2 244.9,311.9 
				253.9,292.3 			"/>
			
				<linearGradient id="SVGID_32_" gradientUnits="userSpaceOnUse" x1="-675.3335" y1="344.3774" x2="-641.5942" y2="344.3774" gradientTransform="matrix(1 0 0 1 886.4464 0)">
				<stop  offset="0" style="stop-color:#C0D6FF"/>
				<stop  offset="0.2978" style="stop-color:#C5DBFF"/>
				<stop  offset="0.6488" style="stop-color:#D3E9FF"/>
				<stop  offset="1" style="stop-color:#E9FFFF"/>
			</linearGradient>
			<polygon fill="url(#SVGID_32_)" points="244.9,311.9 244.9,371.6 211.1,376.8 211.1,317.2 			"/>
			
				<linearGradient id="SVGID_33_" gradientUnits="userSpaceOnUse" x1="-641.5942" y1="331.9634" x2="-632.5537" y2="331.9634" gradientTransform="matrix(1 0 0 1 886.4464 0)">
				<stop  offset="0" style="stop-color:#E9FFFF"/>
				<stop  offset="0.3512" style="stop-color:#D3E9FF"/>
				<stop  offset="0.7022" style="stop-color:#C5DBFF"/>
				<stop  offset="1" style="stop-color:#C0D6FF"/>
			</linearGradient>
			<polygon fill="url(#SVGID_33_)" points="253.9,292.3 253.9,352 244.9,371.6 244.9,311.9 			"/>
			
				<linearGradient id="SVGID_34_" gradientUnits="userSpaceOnUse" x1="-700.0332" y1="339.833" x2="-675.3335" y2="339.833" gradientTransform="matrix(1 0 0 1 886.4464 0)">
				<stop  offset="0" style="stop-color:#5778FF"/>
				<stop  offset="0.1779" style="stop-color:#5C7DFF"/>
				<stop  offset="0.3876" style="stop-color:#6A8AFF"/>
				<stop  offset="0.6134" style="stop-color:#82A0FF"/>
				<stop  offset="0.849" style="stop-color:#A3BEFF"/>
				<stop  offset="1" style="stop-color:#BCD5FF"/>
			</linearGradient>
			<polygon fill="url(#SVGID_34_)" points="186.4,302.8 186.4,362.5 211.1,376.8 211.1,317.2 			"/>
		</g>
	</g>
	<g>
		<g>
			
				<linearGradient id="SVGID_35_" gradientUnits="userSpaceOnUse" x1="-487.4992" y1="121.9329" x2="-420.0206" y2="121.9329" gradientTransform="matrix(1 0 0 1 886.4464 0)">
				<stop  offset="0" style="stop-color:#C0D6FF"/>
				<stop  offset="0.2978" style="stop-color:#C5DBFF"/>
				<stop  offset="0.6488" style="stop-color:#D3E9FF"/>
				<stop  offset="1" style="stop-color:#E9FFFF"/>
			</linearGradient>
			<polygon fill="url(#SVGID_35_)" points="455.3,67.2 466.4,52.1 457.4,186.5 423.6,191.7 398.9,62.6 			"/>
			
				<linearGradient id="SVGID_36_" gradientUnits="userSpaceOnUse" x1="161.7388" y1="1042.5461" x2="218.9305" y2="1042.5461" gradientTransform="matrix(0.866 0.5 -0.866 0.5 1170.7017 -559.0693)">
				<stop  offset="0" style="stop-color:#C0D6FF"/>
				<stop  offset="0.2978" style="stop-color:#C5DBFF"/>
				<stop  offset="0.6488" style="stop-color:#D3E9FF"/>
				<stop  offset="1" style="stop-color:#E9FFFF"/>
			</linearGradient>
			<polygon fill="url(#SVGID_36_)" points="466.4,52.1 441.7,37.8 408,43 398.9,62.6 423.6,77 457.4,71.7 			"/>
			<polygon fill="#FFFFFF" points="465.8,51.7 457.1,70.6 423.3,75.8 399.3,61.9 398.9,62.6 423.6,77 457.4,71.7 466.4,52.1 			"/>
			
				<linearGradient id="SVGID_37_" gradientUnits="userSpaceOnUse" x1="-462.8005" y1="131.7236" x2="-429.0602" y2="131.7236" gradientTransform="matrix(1 0 0 1 886.4464 0)">
				<stop  offset="0" style="stop-color:#C0D6FF"/>
				<stop  offset="0.2978" style="stop-color:#C5DBFF"/>
				<stop  offset="0.6488" style="stop-color:#D3E9FF"/>
				<stop  offset="1" style="stop-color:#E9FFFF"/>
			</linearGradient>
			<polygon fill="url(#SVGID_37_)" points="457.4,71.7 457.4,186.5 423.6,191.7 423.6,77 			"/>
			
				<linearGradient id="SVGID_38_" gradientUnits="userSpaceOnUse" x1="-429.0602" y1="119.3093" x2="-420.0206" y2="119.3093" gradientTransform="matrix(1 0 0 1 886.4464 0)">
				<stop  offset="0" style="stop-color:#E9FFFF"/>
				<stop  offset="0.3512" style="stop-color:#D3E9FF"/>
				<stop  offset="0.7022" style="stop-color:#C5DBFF"/>
				<stop  offset="1" style="stop-color:#C0D6FF"/>
			</linearGradient>
			<polygon fill="url(#SVGID_38_)" points="466.4,52.1 466.4,166.9 457.4,186.5 457.4,71.7 			"/>
			
				<linearGradient id="SVGID_39_" gradientUnits="userSpaceOnUse" x1="-487.4992" y1="127.1795" x2="-462.8005" y2="127.1795" gradientTransform="matrix(1 0 0 1 886.4464 0)">
				<stop  offset="0" style="stop-color:#5778FF"/>
				<stop  offset="0.1779" style="stop-color:#5C7DFF"/>
				<stop  offset="0.3876" style="stop-color:#6A8AFF"/>
				<stop  offset="0.6134" style="stop-color:#82A0FF"/>
				<stop  offset="0.849" style="stop-color:#A3BEFF"/>
				<stop  offset="1" style="stop-color:#BCD5FF"/>
			</linearGradient>
			<polygon fill="url(#SVGID_39_)" points="398.9,62.6 398.9,177.4 423.6,191.7 423.6,77 			"/>
		</g>
		<g>
			
				<linearGradient id="SVGID_40_" gradientUnits="userSpaceOnUse" x1="-540.6329" y1="165.0493" x2="-473.1534" y2="165.0493" gradientTransform="matrix(1 0 0 1 886.4464 0)">
				<stop  offset="0" style="stop-color:#C0D6FF"/>
				<stop  offset="0.2978" style="stop-color:#C5DBFF"/>
				<stop  offset="0.6488" style="stop-color:#D3E9FF"/>
				<stop  offset="1" style="stop-color:#E9FFFF"/>
			</linearGradient>
			<polygon fill="url(#SVGID_40_)" points="402.2,121.9 413.3,106.9 404.3,218 370.5,223.2 345.8,117.4 			"/>
			
				<linearGradient id="SVGID_41_" gradientUnits="userSpaceOnUse" x1="185.8327" y1="1127.9943" x2="243.0238" y2="1127.9943" gradientTransform="matrix(0.866 0.5 -0.866 0.5 1170.7017 -559.0693)">
				<stop  offset="0" style="stop-color:#C0D6FF"/>
				<stop  offset="0.2978" style="stop-color:#C5DBFF"/>
				<stop  offset="0.6488" style="stop-color:#D3E9FF"/>
				<stop  offset="1" style="stop-color:#E9FFFF"/>
			</linearGradient>
			<polygon fill="url(#SVGID_41_)" points="413.3,106.9 388.6,92.6 354.9,97.8 345.8,117.4 370.5,131.7 404.3,126.5 			"/>
			<polygon fill="#FFFFFF" points="412.6,106.5 403.9,125.3 370.2,130.6 346.2,116.6 345.8,117.4 370.5,131.7 404.3,126.5 
				413.3,106.9 			"/>
			
				<linearGradient id="SVGID_42_" gradientUnits="userSpaceOnUse" x1="-515.9332" y1="174.8401" x2="-482.194" y2="174.8401" gradientTransform="matrix(1 0 0 1 886.4464 0)">
				<stop  offset="0" style="stop-color:#C0D6FF"/>
				<stop  offset="0.2978" style="stop-color:#C5DBFF"/>
				<stop  offset="0.6488" style="stop-color:#D3E9FF"/>
				<stop  offset="1" style="stop-color:#E9FFFF"/>
			</linearGradient>
			<polygon fill="url(#SVGID_42_)" points="404.3,126.5 404.3,218 370.5,223.2 370.5,131.7 			"/>
			
				<linearGradient id="SVGID_43_" gradientUnits="userSpaceOnUse" x1="-482.194" y1="162.4258" x2="-473.1534" y2="162.4258" gradientTransform="matrix(1 0 0 1 886.4464 0)">
				<stop  offset="0" style="stop-color:#E9FFFF"/>
				<stop  offset="0.3512" style="stop-color:#D3E9FF"/>
				<stop  offset="0.7022" style="stop-color:#C5DBFF"/>
				<stop  offset="1" style="stop-color:#C0D6FF"/>
			</linearGradient>
			<polygon fill="url(#SVGID_43_)" points="413.3,106.9 413.3,198.4 404.3,218 404.3,126.5 			"/>
			
				<linearGradient id="SVGID_44_" gradientUnits="userSpaceOnUse" x1="-540.6329" y1="170.2959" x2="-515.9332" y2="170.2959" gradientTransform="matrix(1 0 0 1 886.4464 0)">
				<stop  offset="0" style="stop-color:#5778FF"/>
				<stop  offset="0.1779" style="stop-color:#5C7DFF"/>
				<stop  offset="0.3876" style="stop-color:#6A8AFF"/>
				<stop  offset="0.6134" style="stop-color:#82A0FF"/>
				<stop  offset="0.849" style="stop-color:#A3BEFF"/>
				<stop  offset="1" style="stop-color:#BCD5FF"/>
			</linearGradient>
			<polygon fill="url(#SVGID_44_)" points="345.8,117.4 345.8,208.9 370.5,223.2 370.5,131.7 			"/>
		</g>
		<g>
			
				<linearGradient id="SVGID_45_" gradientUnits="userSpaceOnUse" x1="-593.7667" y1="209.8564" x2="-526.2872" y2="209.8564" gradientTransform="matrix(1 0 0 1 886.4464 0)">
				<stop  offset="0" style="stop-color:#C0D6FF"/>
				<stop  offset="0.2978" style="stop-color:#C5DBFF"/>
				<stop  offset="0.6488" style="stop-color:#D3E9FF"/>
				<stop  offset="1" style="stop-color:#E9FFFF"/>
			</linearGradient>
			<polygon fill="url(#SVGID_45_)" points="349.1,180.1 360.2,165 351.1,249.4 317.4,254.7 292.7,175.5 			"/>
			
				<linearGradient id="SVGID_46_" gradientUnits="userSpaceOnUse" x1="213.3083" y1="1216.8258" x2="270.4999" y2="1216.8258" gradientTransform="matrix(0.866 0.5 -0.866 0.5 1170.7017 -559.0693)">
				<stop  offset="0" style="stop-color:#C0D6FF"/>
				<stop  offset="0.2978" style="stop-color:#C5DBFF"/>
				<stop  offset="0.6488" style="stop-color:#D3E9FF"/>
				<stop  offset="1" style="stop-color:#E9FFFF"/>
			</linearGradient>
			<polygon fill="url(#SVGID_46_)" points="360.2,165 335.5,150.7 301.7,156 292.7,175.5 317.4,189.9 351.1,184.6 			"/>
			<polygon fill="#FFFFFF" points="359.5,164.7 350.8,183.5 317.1,188.7 293,174.8 292.7,175.5 317.4,189.9 351.1,184.6 360.2,165 
							"/>
			
				<linearGradient id="SVGID_47_" gradientUnits="userSpaceOnUse" x1="-569.067" y1="219.6472" x2="-535.3267" y2="219.6472" gradientTransform="matrix(1 0 0 1 886.4464 0)">
				<stop  offset="0" style="stop-color:#C0D6FF"/>
				<stop  offset="0.2978" style="stop-color:#C5DBFF"/>
				<stop  offset="0.6488" style="stop-color:#D3E9FF"/>
				<stop  offset="1" style="stop-color:#E9FFFF"/>
			</linearGradient>
			<polygon fill="url(#SVGID_47_)" points="351.1,184.6 351.1,249.4 317.4,254.7 317.4,189.9 			"/>
			
				<linearGradient id="SVGID_48_" gradientUnits="userSpaceOnUse" x1="-535.3267" y1="207.2334" x2="-526.2872" y2="207.2334" gradientTransform="matrix(1 0 0 1 886.4464 0)">
				<stop  offset="0" style="stop-color:#E9FFFF"/>
				<stop  offset="0.3512" style="stop-color:#D3E9FF"/>
				<stop  offset="0.7022" style="stop-color:#C5DBFF"/>
				<stop  offset="1" style="stop-color:#C0D6FF"/>
			</linearGradient>
			<polygon fill="url(#SVGID_48_)" points="360.2,165 360.2,229.8 351.1,249.4 351.1,184.6 			"/>
			
				<linearGradient id="SVGID_49_" gradientUnits="userSpaceOnUse" x1="-593.7667" y1="215.103" x2="-569.067" y2="215.103" gradientTransform="matrix(1 0 0 1 886.4464 0)">
				<stop  offset="0" style="stop-color:#5778FF"/>
				<stop  offset="0.1779" style="stop-color:#5C7DFF"/>
				<stop  offset="0.3876" style="stop-color:#6A8AFF"/>
				<stop  offset="0.6134" style="stop-color:#82A0FF"/>
				<stop  offset="0.849" style="stop-color:#A3BEFF"/>
				<stop  offset="1" style="stop-color:#BCD5FF"/>
			</linearGradient>
			<polygon fill="url(#SVGID_49_)" points="292.7,175.5 292.7,240.3 317.4,254.7 317.4,189.9 			"/>
		</g>
		<g>
			
				<linearGradient id="SVGID_50_" gradientUnits="userSpaceOnUse" x1="-646.8995" y1="246.4961" x2="-579.4205" y2="246.4961" gradientTransform="matrix(1 0 0 1 886.4464 0)">
				<stop  offset="0" style="stop-color:#C0D6FF"/>
				<stop  offset="0.2978" style="stop-color:#C5DBFF"/>
				<stop  offset="0.6488" style="stop-color:#D3E9FF"/>
				<stop  offset="1" style="stop-color:#E9FFFF"/>
			</linearGradient>
			<polygon fill="url(#SVGID_50_)" points="295.9,221.9 307,206.9 298,280.9 264.2,286.1 239.5,217.4 			"/>
			
				<linearGradient id="SVGID_51_" gradientUnits="userSpaceOnUse" x1="224.4476" y1="1289.3201" x2="281.6392" y2="1289.3201" gradientTransform="matrix(0.866 0.5 -0.866 0.5 1170.7017 -559.0693)">
				<stop  offset="0" style="stop-color:#C0D6FF"/>
				<stop  offset="0.2978" style="stop-color:#C5DBFF"/>
				<stop  offset="0.6488" style="stop-color:#D3E9FF"/>
				<stop  offset="1" style="stop-color:#E9FFFF"/>
			</linearGradient>
			<polygon fill="url(#SVGID_51_)" points="307,206.9 282.3,192.5 248.6,197.8 239.5,217.4 264.2,231.7 298,226.4 			"/>
			
				<linearGradient id="SVGID_52_" gradientUnits="userSpaceOnUse" x1="233.849" y1="1289.3199" x2="272.2377" y2="1289.3199" gradientTransform="matrix(0.866 0.5 -0.866 0.5 1170.7017 -559.0693)">
				<stop  offset="0" style="stop-color:#5778FF"/>
				<stop  offset="0.1779" style="stop-color:#5C7DFF"/>
				<stop  offset="0.3876" style="stop-color:#6A8AFF"/>
				<stop  offset="0.6134" style="stop-color:#82A0FF"/>
				<stop  offset="0.849" style="stop-color:#A3BEFF"/>
				<stop  offset="1" style="stop-color:#BCD5FF"/>
			</linearGradient>
			<polygon opacity="0.3" fill="url(#SVGID_52_)" points="295.9,208.6 279.4,199 256.7,202.5 250.6,215.6 267.2,225.3 289.9,221.7 
							"/>
			<polygon fill="#FFFFFF" points="306.4,206.5 297.7,225.3 263.9,230.6 239.9,216.6 239.5,217.4 264.2,231.7 298,226.4 307,206.9 
							"/>
			
				<linearGradient id="SVGID_53_" gradientUnits="userSpaceOnUse" x1="-622.2003" y1="256.2867" x2="-588.4605" y2="256.2867" gradientTransform="matrix(1 0 0 1 886.4464 0)">
				<stop  offset="0" style="stop-color:#C0D6FF"/>
				<stop  offset="0.2978" style="stop-color:#C5DBFF"/>
				<stop  offset="0.6488" style="stop-color:#D3E9FF"/>
				<stop  offset="1" style="stop-color:#E9FFFF"/>
			</linearGradient>
			<polygon fill="url(#SVGID_53_)" points="298,226.4 298,280.9 264.2,286.1 264.2,231.7 			"/>
			
				<linearGradient id="SVGID_54_" gradientUnits="userSpaceOnUse" x1="-588.4605" y1="243.873" x2="-579.4205" y2="243.873" gradientTransform="matrix(1 0 0 1 886.4464 0)">
				<stop  offset="0" style="stop-color:#E9FFFF"/>
				<stop  offset="0.3512" style="stop-color:#D3E9FF"/>
				<stop  offset="0.7022" style="stop-color:#C5DBFF"/>
				<stop  offset="1" style="stop-color:#C0D6FF"/>
			</linearGradient>
			<polygon fill="url(#SVGID_54_)" points="307,206.9 307,261.3 298,280.9 298,226.4 			"/>
			
				<linearGradient id="SVGID_55_" gradientUnits="userSpaceOnUse" x1="-646.8995" y1="251.7427" x2="-622.2003" y2="251.7427" gradientTransform="matrix(1 0 0 1 886.4464 0)">
				<stop  offset="0" style="stop-color:#5778FF"/>
				<stop  offset="0.1779" style="stop-color:#5C7DFF"/>
				<stop  offset="0.3876" style="stop-color:#6A8AFF"/>
				<stop  offset="0.6134" style="stop-color:#82A0FF"/>
				<stop  offset="0.849" style="stop-color:#A3BEFF"/>
				<stop  offset="1" style="stop-color:#BCD5FF"/>
			</linearGradient>
			<polygon fill="url(#SVGID_55_)" points="239.5,217.4 239.5,271.8 264.2,286.1 264.2,231.7 			"/>
		</g>
		<g>
			
				<linearGradient id="SVGID_56_" gradientUnits="userSpaceOnUse" x1="-646.8995" y1="194.6721" x2="-579.4205" y2="194.6721" gradientTransform="matrix(1 0 0 1 886.4464 0)">
				<stop  offset="0" style="stop-color:#C0D6FF"/>
				<stop  offset="0.2978" style="stop-color:#C5DBFF"/>
				<stop  offset="0.6488" style="stop-color:#D3E9FF"/>
				<stop  offset="1" style="stop-color:#E9FFFF"/>
			</linearGradient>
			<polygon fill="url(#SVGID_56_)" points="295.9,190.3 307,175.2 298,208.9 264.2,214.1 239.5,185.7 			"/>
			
				<linearGradient id="SVGID_57_" gradientUnits="userSpaceOnUse" x1="192.8178" y1="1257.6899" x2="250.0093" y2="1257.6899" gradientTransform="matrix(0.866 0.5 -0.866 0.5 1170.7017 -559.0693)">
				<stop  offset="0" style="stop-color:#C0D6FF"/>
				<stop  offset="0.2978" style="stop-color:#C5DBFF"/>
				<stop  offset="0.6488" style="stop-color:#D3E9FF"/>
				<stop  offset="1" style="stop-color:#E9FFFF"/>
			</linearGradient>
			<polygon fill="url(#SVGID_57_)" points="307,175.2 282.3,160.9 248.6,166.1 239.5,185.7 264.2,200.1 298,194.8 			"/>
			<polygon fill="#FFFFFF" points="306.4,174.9 297.7,193.7 263.9,198.9 239.9,185 239.5,185.7 264.2,200.1 298,194.8 307,175.2 			
				"/>
			
				<linearGradient id="SVGID_58_" gradientUnits="userSpaceOnUse" x1="-622.2003" y1="204.4629" x2="-588.4605" y2="204.4629" gradientTransform="matrix(1 0 0 1 886.4464 0)">
				<stop  offset="0" style="stop-color:#C0D6FF"/>
				<stop  offset="0.2978" style="stop-color:#C5DBFF"/>
				<stop  offset="0.6488" style="stop-color:#D3E9FF"/>
				<stop  offset="1" style="stop-color:#E9FFFF"/>
			</linearGradient>
			<polygon fill="url(#SVGID_58_)" points="298,194.8 298,208.9 264.2,214.1 264.2,200.1 			"/>
			
				<linearGradient id="SVGID_59_" gradientUnits="userSpaceOnUse" x1="-588.4605" y1="192.0486" x2="-579.4205" y2="192.0486" gradientTransform="matrix(1 0 0 1 886.4464 0)">
				<stop  offset="0" style="stop-color:#E9FFFF"/>
				<stop  offset="0.3512" style="stop-color:#D3E9FF"/>
				<stop  offset="0.7022" style="stop-color:#C5DBFF"/>
				<stop  offset="1" style="stop-color:#C0D6FF"/>
			</linearGradient>
			<polygon fill="url(#SVGID_59_)" points="307,175.2 307,189.3 298,208.9 298,194.8 			"/>
			
				<linearGradient id="SVGID_60_" gradientUnits="userSpaceOnUse" x1="-646.8995" y1="199.9187" x2="-622.2003" y2="199.9187" gradientTransform="matrix(1 0 0 1 886.4464 0)">
				<stop  offset="0" style="stop-color:#5778FF"/>
				<stop  offset="0.1779" style="stop-color:#5C7DFF"/>
				<stop  offset="0.3876" style="stop-color:#6A8AFF"/>
				<stop  offset="0.6134" style="stop-color:#82A0FF"/>
				<stop  offset="0.849" style="stop-color:#A3BEFF"/>
				<stop  offset="1" style="stop-color:#BCD5FF"/>
			</linearGradient>
			<polygon fill="url(#SVGID_60_)" points="239.5,185.7 239.5,199.8 264.2,214.1 264.2,200.1 			"/>
		</g>
		<g>
			
				<linearGradient id="SVGID_61_" gradientUnits="userSpaceOnUse" x1="-700.0332" y1="287.7485" x2="-632.5537" y2="287.7485" gradientTransform="matrix(1 0 0 1 886.4464 0)">
				<stop  offset="0" style="stop-color:#C0D6FF"/>
				<stop  offset="0.2978" style="stop-color:#C5DBFF"/>
				<stop  offset="0.6488" style="stop-color:#D3E9FF"/>
				<stop  offset="1" style="stop-color:#E9FFFF"/>
			</linearGradient>
			<polygon fill="url(#SVGID_61_)" points="242.8,273 253.9,257.9 244.9,312.3 211.1,317.6 186.4,268.4 			"/>
			
				<linearGradient id="SVGID_62_" gradientUnits="userSpaceOnUse" x1="244.8142" y1="1371.0406" x2="302.0054" y2="1371.0406" gradientTransform="matrix(0.866 0.5 -0.866 0.5 1170.7017 -559.0693)">
				<stop  offset="0" style="stop-color:#C0D6FF"/>
				<stop  offset="0.2978" style="stop-color:#C5DBFF"/>
				<stop  offset="0.6488" style="stop-color:#D3E9FF"/>
				<stop  offset="1" style="stop-color:#E9FFFF"/>
			</linearGradient>
			<polygon fill="url(#SVGID_62_)" points="253.9,257.9 229.2,243.6 195.5,248.8 186.4,268.4 211.1,282.7 244.9,277.5 			"/>
			<polygon fill="#FFFFFF" points="253.2,257.5 244.5,276.4 210.8,281.6 186.8,267.7 186.4,268.4 211.1,282.7 244.9,277.5 
				253.9,257.9 			"/>
			
				<linearGradient id="SVGID_63_" gradientUnits="userSpaceOnUse" x1="-675.3335" y1="297.5396" x2="-641.5942" y2="297.5396" gradientTransform="matrix(1 0 0 1 886.4464 0)">
				<stop  offset="0" style="stop-color:#C0D6FF"/>
				<stop  offset="0.2978" style="stop-color:#C5DBFF"/>
				<stop  offset="0.6488" style="stop-color:#D3E9FF"/>
				<stop  offset="1" style="stop-color:#E9FFFF"/>
			</linearGradient>
			<polygon fill="url(#SVGID_63_)" points="244.9,277.5 244.9,312.3 211.1,317.6 211.1,282.7 			"/>
			
				<linearGradient id="SVGID_64_" gradientUnits="userSpaceOnUse" x1="-641.5942" y1="285.125" x2="-632.5537" y2="285.125" gradientTransform="matrix(1 0 0 1 886.4464 0)">
				<stop  offset="0" style="stop-color:#E9FFFF"/>
				<stop  offset="0.3512" style="stop-color:#D3E9FF"/>
				<stop  offset="0.7022" style="stop-color:#C5DBFF"/>
				<stop  offset="1" style="stop-color:#C0D6FF"/>
			</linearGradient>
			<polygon fill="url(#SVGID_64_)" points="253.9,257.9 253.9,292.8 244.9,312.3 244.9,277.5 			"/>
			
				<linearGradient id="SVGID_65_" gradientUnits="userSpaceOnUse" x1="-700.0332" y1="292.9951" x2="-675.3335" y2="292.9951" gradientTransform="matrix(1 0 0 1 886.4464 0)">
				<stop  offset="0" style="stop-color:#5778FF"/>
				<stop  offset="0.1779" style="stop-color:#5C7DFF"/>
				<stop  offset="0.3876" style="stop-color:#6A8AFF"/>
				<stop  offset="0.6134" style="stop-color:#82A0FF"/>
				<stop  offset="0.849" style="stop-color:#A3BEFF"/>
				<stop  offset="1" style="stop-color:#BCD5FF"/>
			</linearGradient>
			<polygon fill="url(#SVGID_65_)" points="186.4,268.4 186.4,303.3 211.1,317.6 211.1,282.7 			"/>
		</g>
	</g>
</g>
<g>
	<g opacity="0.3">
		
			<linearGradient id="SVGID_66_" gradientUnits="userSpaceOnUse" x1="-532.8029" y1="332.8979" x2="-465.3243" y2="332.8979" gradientTransform="matrix(1 0 0 1 886.4464 0)">
			<stop  offset="0" style="stop-color:#C0D6FF"/>
			<stop  offset="0.2978" style="stop-color:#C5DBFF"/>
			<stop  offset="0.6488" style="stop-color:#D3E9FF"/>
			<stop  offset="1" style="stop-color:#E9FFFF"/>
		</linearGradient>
		<polygon fill="url(#SVGID_66_)" points="410,328.5 421.1,313.5 412.1,347.1 378.3,352.3 353.6,324 		"/>
		
			<linearGradient id="SVGID_67_" gradientUnits="userSpaceOnUse" x1="396.9189" y1="1330.0404" x2="454.1114" y2="1330.0404" gradientTransform="matrix(0.866 0.5 -0.866 0.5 1170.7017 -559.0693)">
			<stop  offset="0" style="stop-color:#C0D6FF"/>
			<stop  offset="0.2978" style="stop-color:#C5DBFF"/>
			<stop  offset="0.6488" style="stop-color:#D3E9FF"/>
			<stop  offset="1" style="stop-color:#E9FFFF"/>
		</linearGradient>
		<polygon fill="url(#SVGID_67_)" points="421.1,313.5 396.4,299.1 362.7,304.4 353.6,324 378.3,338.3 412.1,333 		"/>
		<polygon fill="#FFFFFF" points="420.5,313.1 411.8,331.9 378,337.2 354,323.2 353.6,324 378.3,338.3 412.1,333 421.1,313.5 		"/>
		
			<linearGradient id="SVGID_68_" gradientUnits="userSpaceOnUse" x1="-508.1042" y1="342.689" x2="-474.3639" y2="342.689" gradientTransform="matrix(1 0 0 1 886.4464 0)">
			<stop  offset="0" style="stop-color:#C0D6FF"/>
			<stop  offset="0.2978" style="stop-color:#C5DBFF"/>
			<stop  offset="0.6488" style="stop-color:#D3E9FF"/>
			<stop  offset="1" style="stop-color:#E9FFFF"/>
		</linearGradient>
		<polygon fill="url(#SVGID_68_)" points="412.1,333 412.1,347.1 378.3,352.3 378.3,338.3 		"/>
		
			<linearGradient id="SVGID_69_" gradientUnits="userSpaceOnUse" x1="-474.3639" y1="330.2749" x2="-465.3243" y2="330.2749" gradientTransform="matrix(1 0 0 1 886.4464 0)">
			<stop  offset="0" style="stop-color:#E9FFFF"/>
			<stop  offset="0.3512" style="stop-color:#D3E9FF"/>
			<stop  offset="0.7022" style="stop-color:#C5DBFF"/>
			<stop  offset="1" style="stop-color:#C0D6FF"/>
		</linearGradient>
		<polygon fill="url(#SVGID_69_)" points="421.1,313.5 421.1,327.5 412.1,347.1 412.1,333 		"/>
		
			<linearGradient id="SVGID_70_" gradientUnits="userSpaceOnUse" x1="-532.8029" y1="338.1446" x2="-508.1042" y2="338.1446" gradientTransform="matrix(1 0 0 1 886.4464 0)">
			<stop  offset="0" style="stop-color:#5778FF"/>
			<stop  offset="0.1779" style="stop-color:#5C7DFF"/>
			<stop  offset="0.3876" style="stop-color:#6A8AFF"/>
			<stop  offset="0.6134" style="stop-color:#82A0FF"/>
			<stop  offset="0.849" style="stop-color:#A3BEFF"/>
			<stop  offset="1" style="stop-color:#BCD5FF"/>
		</linearGradient>
		<polygon fill="url(#SVGID_70_)" points="353.6,324 353.6,338 378.3,352.3 378.3,338.3 		"/>
	</g>
	<g>
		
			<linearGradient id="SVGID_71_" gradientUnits="userSpaceOnUse" x1="-532.8029" y1="304.3906" x2="-465.3243" y2="304.3906" gradientTransform="matrix(1 0 0 1 886.4464 0)">
			<stop  offset="0" style="stop-color:#C0D6FF"/>
			<stop  offset="0.2978" style="stop-color:#C5DBFF"/>
			<stop  offset="0.6488" style="stop-color:#D3E9FF"/>
			<stop  offset="1" style="stop-color:#E9FFFF"/>
		</linearGradient>
		<polygon fill="url(#SVGID_71_)" points="410,300 421.1,285 412.1,318.6 378.3,323.8 353.6,295.4 		"/>
		
			<linearGradient id="SVGID_72_" gradientUnits="userSpaceOnUse" x1="368.4111" y1="1301.5326" x2="425.6036" y2="1301.5326" gradientTransform="matrix(0.866 0.5 -0.866 0.5 1170.7017 -559.0693)">
			<stop  offset="0" style="stop-color:#C0D6FF"/>
			<stop  offset="0.2978" style="stop-color:#C5DBFF"/>
			<stop  offset="0.6488" style="stop-color:#D3E9FF"/>
			<stop  offset="1" style="stop-color:#E9FFFF"/>
		</linearGradient>
		<polygon fill="url(#SVGID_72_)" points="421.1,285 396.4,270.6 362.7,275.9 353.6,295.4 378.3,309.8 412.1,304.5 		"/>
		<polygon fill="#FFFFFF" points="420.5,284.6 411.8,303.4 378,308.7 354,294.7 353.6,295.4 378.3,309.8 412.1,304.5 421.1,285 		
			"/>
		
			<linearGradient id="SVGID_73_" gradientUnits="userSpaceOnUse" x1="-508.1042" y1="314.1816" x2="-474.3639" y2="314.1816" gradientTransform="matrix(1 0 0 1 886.4464 0)">
			<stop  offset="0" style="stop-color:#C0D6FF"/>
			<stop  offset="0.2978" style="stop-color:#C5DBFF"/>
			<stop  offset="0.6488" style="stop-color:#D3E9FF"/>
			<stop  offset="1" style="stop-color:#E9FFFF"/>
		</linearGradient>
		<polygon fill="url(#SVGID_73_)" points="412.1,304.5 412.1,318.6 378.3,323.8 378.3,309.8 		"/>
		
			<linearGradient id="SVGID_74_" gradientUnits="userSpaceOnUse" x1="-474.3639" y1="301.7671" x2="-465.3243" y2="301.7671" gradientTransform="matrix(1 0 0 1 886.4464 0)">
			<stop  offset="0" style="stop-color:#E9FFFF"/>
			<stop  offset="0.3512" style="stop-color:#D3E9FF"/>
			<stop  offset="0.7022" style="stop-color:#C5DBFF"/>
			<stop  offset="1" style="stop-color:#C0D6FF"/>
		</linearGradient>
		<polygon fill="url(#SVGID_74_)" points="421.1,285 421.1,299 412.1,318.6 412.1,304.5 		"/>
		
			<linearGradient id="SVGID_75_" gradientUnits="userSpaceOnUse" x1="-532.8029" y1="309.6372" x2="-508.1042" y2="309.6372" gradientTransform="matrix(1 0 0 1 886.4464 0)">
			<stop  offset="0" style="stop-color:#5778FF"/>
			<stop  offset="0.1779" style="stop-color:#5C7DFF"/>
			<stop  offset="0.3876" style="stop-color:#6A8AFF"/>
			<stop  offset="0.6134" style="stop-color:#82A0FF"/>
			<stop  offset="0.849" style="stop-color:#A3BEFF"/>
			<stop  offset="1" style="stop-color:#BCD5FF"/>
		</linearGradient>
		<polygon fill="url(#SVGID_75_)" points="353.6,295.4 353.6,309.5 378.3,323.8 378.3,309.8 		"/>
	</g>
</g>
<g>
	<g opacity="0.3">
		
			<linearGradient id="SVGID_76_" gradientUnits="userSpaceOnUse" x1="-350.739" y1="355.6875" x2="-283.2595" y2="355.6875" gradientTransform="matrix(1 0 0 1 886.4464 0)">
			<stop  offset="0" style="stop-color:#C0D6FF"/>
			<stop  offset="0.2978" style="stop-color:#C5DBFF"/>
			<stop  offset="0.6488" style="stop-color:#D3E9FF"/>
			<stop  offset="1" style="stop-color:#E9FFFF"/>
		</linearGradient>
		<polygon fill="url(#SVGID_76_)" points="592.1,351.3 603.2,336.3 594.1,369.9 560.4,375.1 535.7,346.7 		"/>
		
			<linearGradient id="SVGID_77_" gradientUnits="userSpaceOnUse" x1="524.8262" y1="1247.7114" x2="582.0182" y2="1247.7114" gradientTransform="matrix(0.866 0.5 -0.866 0.5 1170.7017 -559.0693)">
			<stop  offset="0" style="stop-color:#C0D6FF"/>
			<stop  offset="0.2978" style="stop-color:#C5DBFF"/>
			<stop  offset="0.6488" style="stop-color:#D3E9FF"/>
			<stop  offset="1" style="stop-color:#E9FFFF"/>
		</linearGradient>
		<polygon fill="url(#SVGID_77_)" points="603.2,336.3 578.5,321.9 544.7,327.2 535.7,346.7 560.4,361.1 594.1,355.8 		"/>
		<polygon fill="#FFFFFF" points="602.5,335.9 593.8,354.7 560.1,360 536.1,346 535.7,346.7 560.4,361.1 594.1,355.8 603.2,336.3 		
			"/>
		
			<linearGradient id="SVGID_78_" gradientUnits="userSpaceOnUse" x1="-326.0393" y1="365.4785" x2="-292.3" y2="365.4785" gradientTransform="matrix(1 0 0 1 886.4464 0)">
			<stop  offset="0" style="stop-color:#C0D6FF"/>
			<stop  offset="0.2978" style="stop-color:#C5DBFF"/>
			<stop  offset="0.6488" style="stop-color:#D3E9FF"/>
			<stop  offset="1" style="stop-color:#E9FFFF"/>
		</linearGradient>
		<polygon fill="url(#SVGID_78_)" points="594.1,355.8 594.1,369.9 560.4,375.1 560.4,361.1 		"/>
		
			<linearGradient id="SVGID_79_" gradientUnits="userSpaceOnUse" x1="-292.3" y1="353.064" x2="-283.2595" y2="353.064" gradientTransform="matrix(1 0 0 1 886.4464 0)">
			<stop  offset="0" style="stop-color:#E9FFFF"/>
			<stop  offset="0.3512" style="stop-color:#D3E9FF"/>
			<stop  offset="0.7022" style="stop-color:#C5DBFF"/>
			<stop  offset="1" style="stop-color:#C0D6FF"/>
		</linearGradient>
		<polygon fill="url(#SVGID_79_)" points="603.2,336.3 603.2,350.3 594.1,369.9 594.1,355.8 		"/>
		
			<linearGradient id="SVGID_80_" gradientUnits="userSpaceOnUse" x1="-350.739" y1="360.9341" x2="-326.0393" y2="360.9341" gradientTransform="matrix(1 0 0 1 886.4464 0)">
			<stop  offset="0" style="stop-color:#5778FF"/>
			<stop  offset="0.1779" style="stop-color:#5C7DFF"/>
			<stop  offset="0.3876" style="stop-color:#6A8AFF"/>
			<stop  offset="0.6134" style="stop-color:#82A0FF"/>
			<stop  offset="0.849" style="stop-color:#A3BEFF"/>
			<stop  offset="1" style="stop-color:#BCD5FF"/>
		</linearGradient>
		<polygon fill="url(#SVGID_80_)" points="535.7,346.7 535.7,360.8 560.4,375.1 560.4,361.1 		"/>
	</g>
	<g>
		
			<linearGradient id="SVGID_81_" gradientUnits="userSpaceOnUse" x1="-350.739" y1="327.1797" x2="-283.2595" y2="327.1797" gradientTransform="matrix(1 0 0 1 886.4464 0)">
			<stop  offset="0" style="stop-color:#C0D6FF"/>
			<stop  offset="0.2978" style="stop-color:#C5DBFF"/>
			<stop  offset="0.6488" style="stop-color:#D3E9FF"/>
			<stop  offset="1" style="stop-color:#E9FFFF"/>
		</linearGradient>
		<polygon fill="url(#SVGID_81_)" points="592.1,322.8 603.2,307.7 594.1,341.4 560.4,346.6 535.7,318.2 		"/>
		
			<linearGradient id="SVGID_82_" gradientUnits="userSpaceOnUse" x1="496.3195" y1="1219.2036" x2="553.5104" y2="1219.2036" gradientTransform="matrix(0.866 0.5 -0.866 0.5 1170.7017 -559.0693)">
			<stop  offset="0" style="stop-color:#C0D6FF"/>
			<stop  offset="0.2978" style="stop-color:#C5DBFF"/>
			<stop  offset="0.6488" style="stop-color:#D3E9FF"/>
			<stop  offset="1" style="stop-color:#E9FFFF"/>
		</linearGradient>
		<polygon fill="url(#SVGID_82_)" points="603.2,307.7 578.5,293.4 544.7,298.7 535.7,318.2 560.4,332.6 594.1,327.3 		"/>
		<polygon fill="#FFFFFF" points="602.5,307.4 593.8,326.2 560.1,331.4 536.1,317.5 535.7,318.2 560.4,332.6 594.1,327.3 
			603.2,307.7 		"/>
		
			<linearGradient id="SVGID_83_" gradientUnits="userSpaceOnUse" x1="-326.0393" y1="336.9707" x2="-292.3" y2="336.9707" gradientTransform="matrix(1 0 0 1 886.4464 0)">
			<stop  offset="0" style="stop-color:#C0D6FF"/>
			<stop  offset="0.2978" style="stop-color:#C5DBFF"/>
			<stop  offset="0.6488" style="stop-color:#D3E9FF"/>
			<stop  offset="1" style="stop-color:#E9FFFF"/>
		</linearGradient>
		<polygon fill="url(#SVGID_83_)" points="594.1,327.3 594.1,341.4 560.4,346.6 560.4,332.6 		"/>
		
			<linearGradient id="SVGID_84_" gradientUnits="userSpaceOnUse" x1="-292.3" y1="324.5562" x2="-283.2595" y2="324.5562" gradientTransform="matrix(1 0 0 1 886.4464 0)">
			<stop  offset="0" style="stop-color:#E9FFFF"/>
			<stop  offset="0.3512" style="stop-color:#D3E9FF"/>
			<stop  offset="0.7022" style="stop-color:#C5DBFF"/>
			<stop  offset="1" style="stop-color:#C0D6FF"/>
		</linearGradient>
		<polygon fill="url(#SVGID_84_)" points="603.2,307.7 603.2,321.8 594.1,341.4 594.1,327.3 		"/>
		
			<linearGradient id="SVGID_85_" gradientUnits="userSpaceOnUse" x1="-350.739" y1="332.4262" x2="-326.0393" y2="332.4262" gradientTransform="matrix(1 0 0 1 886.4464 0)">
			<stop  offset="0" style="stop-color:#5778FF"/>
			<stop  offset="0.1779" style="stop-color:#5C7DFF"/>
			<stop  offset="0.3876" style="stop-color:#6A8AFF"/>
			<stop  offset="0.6134" style="stop-color:#82A0FF"/>
			<stop  offset="0.849" style="stop-color:#A3BEFF"/>
			<stop  offset="1" style="stop-color:#BCD5FF"/>
		</linearGradient>
		<polygon fill="url(#SVGID_85_)" points="535.7,318.2 535.7,332.3 560.4,346.6 560.4,332.6 		"/>
	</g>
</g>
<g>
	<path opacity="0.2" fill="#242993" d="M397.9,295.6c-5.8,3.4-15.2,3.4-21,0c-5.8-3.4-5.8-8.8,0-12.2c5.8-3.4,15.2-3.4,21,0
		C403.7,286.7,403.7,292.2,397.9,295.6z"/>
	<g>
		<g>
			<g>
				<polygon fill="#DD821F" points="377.6,284.5 371.6,280.7 372.4,279.9 374.5,280.4 				"/>
			</g>
			<g>
				<path fill="#FFD85A" d="M402.9,244.1l-5.9-3.8c0,0,3.5,6.5,3.5,6.5C400.6,246.9,402.9,244.1,402.9,244.1z"/>
			</g>
			<g>
				<g>
					<path fill="#FFD85A" d="M401,271.2c-7.1,11.1-20.2,15.4-29.4,9.5c-9.2-5.9-10.9-19.7-3.8-30.8c7.1-11.1,20.2-15.4,29.4-9.5
						C406.4,246.3,408.1,260.1,401,271.2z"/>
				</g>
				<g>
					<path fill="#FFD85A" d="M406.9,275c-7.1,11.1-20.2,15.4-29.4,9.5c-9.2-5.9-10.9-19.7-3.8-30.8c7.1-11.1,20.2-15.4,29.4-9.5
						C412.3,250.1,414,263.9,406.9,275z"/>
				</g>
				<g>
					<path fill="#DD821F" d="M369.6,271.2c0.7,5.5,3.4,10.3,8,13.2c9.2,5.9,22.3,1.6,29.4-9.5c3.5-5.5,4.8-11.7,4.2-17.2
						L369.6,271.2z"/>
				</g>
				<g>
					<path fill="#F9BF30" d="M406.2,274.5c-6.7,10.6-19.3,14.7-28.1,9.1c-8.8-5.6-10.4-18.8-3.6-29.4c6.7-10.6,19.3-14.7,28.1-9.1
						C411.3,250.7,412.9,263.9,406.2,274.5z"/>
				</g>
				<g>
					<path fill="#F2B42A" d="M403.1,272.5c-5.4,8.5-15.5,11.8-22.5,7.3c-7-4.5-8.3-15.1-2.9-23.6c5.4-8.5,15.5-11.8,22.5-7.3
						C407.2,253.4,408.5,264,403.1,272.5z"/>
				</g>
				<g>
					<path fill="#FFD85A" d="M400.2,248.9c-0.3-0.2-0.6-0.4-0.9-0.5c6.3,4.8,7.3,14.8,2.1,23c-5.2,8.2-14.7,11.5-21.6,7.8
						c0.3,0.2,0.5,0.4,0.8,0.6c7,4.5,17.1,1.3,22.5-7.3C408.5,264,407.2,253.4,400.2,248.9z"/>
				</g>
				<g>
					<g>
						<path fill="#FFD85A" d="M393.3,262l-4.7,1.5c-1.2,3.5-3.5,10-5.2,15.2c3.9,0.8,8.3-0.4,11.9-3.2L393.3,262z"/>
					</g>
					<g>
						<path fill="#FFD85A" d="M398.6,272.1c0.4-0.5,0.7-1,1-1.5c2.4-3.7,3.3-7.9,2.9-11.6l-7.7,2.5L398.6,272.1z"/>
					</g>
					<g>
						<path fill="#FFD85A" d="M383.5,265.2l-8.9,2.9c0.4,3,1.2,6,3.3,7.9L383.5,265.2z"/>
					</g>
				</g>
				<g>
					<path fill="#DD821F" d="M378.7,257.9c5.4-8.5,15.5-11.8,22.5-7.3c1.4,0.9,2.6,2.1,3.6,3.4c-1.1-2.1-2.6-3.9-4.6-5.2
						c-7-4.5-17.1-1.3-22.5,7.3c-4.3,6.8-4.4,14.9-0.6,20.2C374.4,271.2,374.8,264,378.7,257.9z"/>
				</g>
			</g>
			<g>
				<path fill="#DD821F" d="M371.6,280.7c1.4,0.9,2.8,1.5,4.3,2c-1.1-1.3-2.7-3.2-2.7-3.2l-2.3-3.5l-0.2-1.9l-0.2-3.1l-7-4.5
					C364.1,272.4,366.8,277.6,371.6,280.7z"/>
			</g>
		</g>
		<g>
			<g>
				<path fill="#DD821F" d="M397.4,242.3l-3.3-2.1c-0.1-0.1-0.2-0.3-0.1-0.4l0-0.1c0.1-0.1,0.3-0.2,0.4-0.1l3.3,2.1
					c0.1,0.1,0.2,0.3,0.1,0.4l0,0.1C397.7,242.4,397.5,242.4,397.4,242.3z"/>
			</g>
			<g>
				<path fill="#DD821F" d="M392.6,241.9l-4-2.6c-0.2-0.1-0.2-0.3-0.1-0.5l0.1-0.2c0.1-0.2,0.3-0.2,0.5-0.1l4.1,2.6
					c0.2,0.1,0.2,0.3,0.1,0.5l-0.1,0.2C393,242,392.8,242,392.6,241.9z"/>
			</g>
			<g>
				<path fill="#DD821F" d="M387.9,242.4l-4-2.6c-0.2-0.1-0.2-0.3-0.1-0.5l0.2-0.3c0.1-0.2,0.3-0.2,0.5-0.1l4,2.6
					c0.2,0.1,0.2,0.3,0.1,0.5l-0.2,0.3C388.3,242.5,388.1,242.6,387.9,242.4z"/>
			</g>
			<g>
				<path fill="#DD821F" d="M383.1,244.6l-4.3-2.8c-0.2-0.1-0.2-0.3-0.1-0.5l0.2-0.3c0.1-0.2,0.3-0.2,0.5-0.1l4.3,2.8
					c0.2,0.1,0.2,0.3,0.1,0.5l-0.2,0.3C383.5,244.7,383.3,244.7,383.1,244.6z"/>
			</g>
			<g>
				<path fill="#DD821F" d="M379.1,247.3l-4.7-3c-0.2-0.1-0.2-0.3-0.1-0.5l0.2-0.3c0.1-0.2,0.3-0.2,0.5-0.1l4.6,3
					c0.2,0.1,0.2,0.3,0.1,0.5l-0.2,0.3C379.5,247.4,379.3,247.4,379.1,247.3z"/>
			</g>
			<g>
				<path fill="#DD821F" d="M375.8,250.4l-4.6-2.9c-0.2-0.1-0.2-0.3-0.1-0.5l0.2-0.3c0.1-0.2,0.3-0.2,0.5-0.1l4.6,2.9
					c0.2,0.1,0.2,0.3,0.1,0.5l-0.2,0.3C376.2,250.5,376,250.6,375.8,250.4z"/>
			</g>
			<g>
				<path fill="#DD821F" d="M373.2,254l-4.6-2.9c-0.2-0.1-0.2-0.3-0.1-0.5l0.2-0.3c0.1-0.2,0.3-0.2,0.5-0.1l4.6,2.9
					c0.2,0.1,0.2,0.3,0.1,0.5l-0.2,0.3C373.6,254.1,373.4,254.1,373.2,254z"/>
			</g>
			<g>
				<path fill="#DD821F" d="M371,257.8l-4.5-2.9c-0.2-0.1-0.2-0.3-0.1-0.5l0.2-0.3c0.1-0.2,0.3-0.2,0.5-0.1l4.5,2.9
					c0.2,0.1,0.2,0.3,0.1,0.5l-0.2,0.3C371.4,257.9,371.2,258,371,257.8z"/>
			</g>
			<g>
				<path fill="#DD821F" d="M369.5,262.1l-4.4-2.8c-0.2-0.1-0.2-0.3-0.1-0.5l0.2-0.3c0.1-0.2,0.3-0.2,0.5-0.1l4.4,2.8
					c0.2,0.1,0.2,0.3,0.1,0.5L370,262C369.9,262.2,369.6,262.2,369.5,262.1z"/>
			</g>
			<g>
				<path fill="#DD821F" d="M368.9,267l-4.6-2.9c-0.2-0.1-0.2-0.3-0.1-0.5l0.2-0.3c0.1-0.2,0.3-0.2,0.5-0.1l4.6,2.9
					c0.2,0.1,0.2,0.3,0.1,0.5l-0.2,0.3C369.3,267.1,369.1,267.1,368.9,267z"/>
			</g>
		</g>
	</g>
</g>
<g>
	<path opacity="0.2" fill="#242993" d="M580,318.3c-5.8,3.4-15.2,3.4-21,0c-5.8-3.4-5.8-8.8,0-12.2c5.8-3.4,15.2-3.4,21,0
		S585.7,315,580,318.3z"/>
	<g>
		<g>
			<g>
				<polygon fill="#DD821F" points="546.8,293.4 545.5,286.4 546.6,286.5 547.7,288.4 				"/>
			</g>
			<g>
				<path fill="#FFD85A" d="M593.4,283.8l-1.4-6.9c0,0-2.3,7-2.3,7.1C589.8,284.1,593.4,283.8,593.4,283.8z"/>
			</g>
			<g>
				<g>
					<path fill="#FFD85A" d="M572.6,301.2c-12.9,2.6-25-4-27.2-14.7c-2.1-10.7,6.6-21.5,19.4-24.1c12.9-2.6,25,4,27.2,14.7
						C594.2,287.8,585.5,298.6,572.6,301.2z"/>
				</g>
				<g>
					<path fill="#FFD85A" d="M574,308.1c-12.9,2.6-25-4-27.2-14.7c-2.1-10.7,6.6-21.5,19.4-24.1s25,4,27.2,14.7
						C595.6,294.7,586.9,305.5,574,308.1z"/>
				</g>
				<g>
					<path fill="#DD821F" d="M550.8,278.4c-3.4,4.3-5,9.6-4,14.9c2.1,10.7,14.3,17.3,27.2,14.7c6.4-1.3,11.7-4.6,15.2-8.9
						L550.8,278.4z"/>
				</g>
				<g>
					<path fill="#F9BF30" d="M573.8,307.2c-12.3,2.5-23.9-3.8-25.9-14.1c-2-10.2,6.3-20.5,18.6-23c12.3-2.5,23.9,3.8,25.9,14.1
						C594.4,294.5,586.1,304.8,573.8,307.2z"/>
				</g>
				<g>
					<path fill="#F2B42A" d="M573.1,303.6c-9.9,2-19.2-3.1-20.8-11.3c-1.6-8.2,5-16.5,14.9-18.5c9.9-2,19.2,3.1,20.8,11.3
						C589.6,293.3,583,301.6,573.1,303.6z"/>
				</g>
				<g>
					<path fill="#FFD85A" d="M588,285.1c-0.1-0.3-0.2-0.7-0.2-1c0.9,7.9-5.6,15.5-15.1,17.4c-9.5,1.9-18.4-2.7-20.6-10.3
						c0,0.3,0.1,0.7,0.2,1c1.6,8.2,11,13.3,20.8,11.3C583,301.6,589.6,293.3,588,285.1z"/>
				</g>
				<g>
					<g>
						<path fill="#FFD85A" d="M573.8,289.2l-4.4-2.4c-3.3,1.5-9.6,4.4-14.5,6.7c2.1,3.4,6,5.7,10.5,6.4L573.8,289.2z"/>
					</g>
					<g>
						<path fill="#FFD85A" d="M570.3,300.1c0.6-0.1,1.2-0.2,1.8-0.3c4.3-0.9,7.9-3.1,10.4-6l-7.1-3.9L570.3,300.1z"/>
					</g>
					<g>
						<path fill="#FFD85A" d="M564.8,284.3l-8.2-4.5c-1.9,2.4-3.5,5-3.4,7.9L564.8,284.3z"/>
					</g>
				</g>
				<g>
					<path fill="#DD821F" d="M566.6,275.8c9.9-2,19.2,3.1,20.8,11.3c0.3,1.7,0.3,3.3,0,4.9c0.8-2.2,1-4.6,0.5-6.9
						c-1.6-8.2-11-13.3-20.8-11.3c-7.9,1.6-13.7,7.2-14.9,13.5C554.2,281.8,559.6,277.2,566.6,275.8z"/>
				</g>
			</g>
			<g>
				<path fill="#DD821F" d="M545.5,286.4c0.3,1.6,0.9,3.1,1.6,4.5c0.2-1.7,0.4-4.2,0.4-4.2l0.9-4.1l1.2-1.5l2.1-2.3l-1.6-8.1
					C546.2,275.2,544.3,280.8,545.5,286.4z"/>
			</g>
		</g>
		<g>
			<g>
				<path fill="#DD821F" d="M590.8,278.6l-0.8-3.9c0-0.2,0.1-0.3,0.2-0.3l0.1,0c0.2,0,0.3,0.1,0.3,0.2l0.8,3.9
					c0,0.2-0.1,0.3-0.2,0.3l-0.1,0C591,278.8,590.9,278.7,590.8,278.6z"/>
			</g>
			<g>
				<path fill="#DD821F" d="M587.8,274.8l-0.9-4.7c0-0.2,0.1-0.4,0.3-0.4l0.2,0c0.2,0,0.4,0.1,0.4,0.3l0.9,4.7
					c0,0.2-0.1,0.4-0.3,0.4l-0.2,0C588,275.1,587.9,275,587.8,274.8z"/>
			</g>
			<g>
				<path fill="#DD821F" d="M584.2,271.8l-0.9-4.7c0-0.2,0.1-0.4,0.3-0.4l0.4-0.1c0.2,0,0.4,0.1,0.4,0.3l0.9,4.7
					c0,0.2-0.1,0.4-0.3,0.4l-0.4,0.1C584.4,272.1,584.2,272,584.2,271.8z"/>
			</g>
			<g>
				<path fill="#DD821F" d="M579.3,269.8l-1-5.1c0-0.2,0.1-0.4,0.3-0.4l0.4-0.1c0.2,0,0.4,0.1,0.4,0.3l1,5.1c0,0.2-0.1,0.4-0.3,0.4
					l-0.4,0.1C579.5,270.1,579.3,270,579.3,269.8z"/>
			</g>
			<g>
				<path fill="#DD821F" d="M574.6,268.8l-1.1-5.4c0-0.2,0.1-0.4,0.3-0.4l0.4-0.1c0.2,0,0.4,0.1,0.4,0.3l1.1,5.4
					c0,0.2-0.1,0.4-0.3,0.4l-0.4,0.1C574.8,269.1,574.6,269,574.6,268.8z"/>
			</g>
			<g>
				<path fill="#DD821F" d="M570.1,268.5l-1.1-5.3c0-0.2,0.1-0.4,0.3-0.4l0.4-0.1c0.2,0,0.4,0.1,0.4,0.3l1.1,5.3
					c0,0.2-0.1,0.4-0.3,0.4l-0.4,0.1C570.3,268.9,570.1,268.8,570.1,268.5z"/>
			</g>
			<g>
				<path fill="#DD821F" d="M565.7,269.1l-1.1-5.4c0-0.2,0.1-0.4,0.3-0.4l0.4-0.1c0.2,0,0.4,0.1,0.4,0.3l1.1,5.4
					c0,0.2-0.1,0.4-0.3,0.4l-0.4,0.1C565.9,269.4,565.7,269.3,565.7,269.1z"/>
			</g>
			<g>
				<path fill="#DD821F" d="M561.4,270.2l-1-5.2c0-0.2,0.1-0.4,0.3-0.4l0.4-0.1c0.2,0,0.4,0.1,0.4,0.3l1,5.2c0,0.2-0.1,0.4-0.3,0.4
					l-0.4,0.1C561.6,270.5,561.4,270.4,561.4,270.2z"/>
			</g>
			<g>
				<path fill="#DD821F" d="M557.3,272l-1-5.1c0-0.2,0.1-0.4,0.3-0.4l0.4-0.1c0.2,0,0.4,0.1,0.4,0.3l1,5.1c0,0.2-0.1,0.4-0.3,0.4
					l-0.4,0.1C557.5,272.3,557.3,272.2,557.3,272z"/>
			</g>
			<g>
				<path fill="#DD821F" d="M553.4,275l-1.1-5.3c0-0.2,0.1-0.4,0.3-0.4l0.4-0.1c0.2,0,0.4,0.1,0.4,0.3l1.1,5.3
					c0,0.2-0.1,0.4-0.3,0.4l-0.4,0.1C553.6,275.3,553.4,275.2,553.4,275z"/>
			</g>
		</g>
	</g>
</g>
<linearGradient id="SVGID_86_" gradientUnits="userSpaceOnUse" x1="67.5154" y1="166.9561" x2="590.3574" y2="-355.886" gradientTransform="matrix(1.0528 0 0 1.0528 3.696 300.8082)">
	<stop  offset="0" style="stop-color:#08095D"/>
	<stop  offset="1" style="stop-color:#092BA3"/>
</linearGradient>
<rect x="0.1" y="0.8" opacity="0.8" fill="url(#SVGID_86_)" enable-background="new    " width="699.8" height="401.1"/>
</svg>
