<?xml version="1.0" encoding="utf-8"?>
<!-- Generator: Adobe Illustrator 18.0.0, SVG Export Plug-In . SVG Version: 6.00 Build 0)  -->
<!DOCTYPE svg PUBLIC "-//W3C//DTD SVG 1.1//EN" "http://www.w3.org/Graphics/SVG/1.1/DTD/svg11.dtd">
<svg version="1.1" id="Слой_1" xmlns="http://www.w3.org/2000/svg" xmlns:xlink="http://www.w3.org/1999/xlink" x="0px" y="0px"
	 width="140px" height="114px" viewBox="11.9 8.3 140 114" enable-background="new 11.9 8.3 140 114" xml:space="preserve">
<g>
	<g>
		<path fill="#DEDEE5" d="M66.6,16.8c6,5.6,9,12.9,9,21.7c0,4.4-0.6,8.7-1.8,12.9c-1.2,4.2-3.5,10.4-6.9,18.8l-20.5,52.2H14.7
			l15.7-56.6c-5.8-2-10.3-5.3-13.6-10.1c-3.3-4.8-4.9-10.5-4.9-17.1c0-8.8,3-16.1,9-21.7c6-5.6,13.6-8.5,22.8-8.5
			C53,8.3,60.6,11.2,66.6,16.8z"/>
	</g>
	<g>
		<path fill="#DEDEE5" d="M142.9,16.8c6,5.6,9,12.9,9,21.7c0,4.4-0.6,8.7-1.8,12.9c-1.2,4.2-3.5,10.4-6.9,18.8l-20.5,52.2H90.9
			l15.7-56.6c-5.8-2-10.3-5.3-13.6-10.1c-3.3-4.8-4.9-10.5-4.9-17.1c0-8.8,3-16.1,9-21.7c6-5.6,13.6-8.5,22.8-8.5
			C129.2,8.3,136.8,11.2,142.9,16.8z"/>
	</g>
</g>
</svg>
