<?xml version="1.0" encoding="utf-8"?>
<!-- Generator: Adobe Illustrator 18.0.0, SVG Export Plug-In . SVG Version: 6.00 Build 0)  -->
<!DOCTYPE svg PUBLIC "-//W3C//DTD SVG 1.1//EN" "http://www.w3.org/Graphics/SVG/1.1/DTD/svg11.dtd">
<svg version="1.1" id="Layer_1" xmlns="http://www.w3.org/2000/svg" xmlns:xlink="http://www.w3.org/1999/xlink" x="0px" y="0px"
	 width="634.9px" height="1190.6px" viewBox="77.5 -9.4 634.9 1190.6" enable-background="new 77.5 -9.4 634.9 1190.6"
	 xml:space="preserve">
<path fill="#FFFFFF" d="M714.5,297.4c0,76.7-13.5,136.4-40.6,179c-13.1,20.8-28.6,41.3-46.3,61.5c-17.8,20.3-38.1,40.5-60.9,60.7
	c-33.9,27.2-59.3,55.3-76.2,84.3c-16.9,29-25.4,69.7-25.4,121.9H305.7l-0.6-47.9c0-69.2,9.9-122.8,29.8-160.6
	c19.9-37.8,47.8-73.2,83.8-106.3c9.3-8.5,19.1-18.2,29.5-29.2c10.4-10.9,18.3-19.6,23.8-26c11.8-14.9,22.2-32.8,31.1-53.5
	c3.8-9.6,6.9-20.6,9.2-33.2c2.3-12.5,3.5-24.6,3.5-36.4c0-41.5-11.2-73.5-33.6-95.9c-20.3-22.4-48.7-33.6-85.1-33.6
	c-49.9,0-83.6,20-100.9,59.9c-15.2,39.4-22.9,86.6-22.9,141.4H77.1c0-158.7,32.8-263.9,98.4-315.6C241.1,16.4,315.8-9.4,399.6-9.4
	c67.7,0,124.8,12.3,171.4,36.8c23.7,12.3,44.5,27,62.5,44.3c18,17.3,32.9,37.7,44.8,61.1C702.4,177,714.5,231.9,714.5,297.4z
	 M490.4,1181.1H280.3V916.6h210.1V1181.1z"/>
</svg>
