<?xml version="1.0" encoding="utf-8"?>
<!-- Generator: Adobe Illustrator 18.0.0, SVG Export Plug-In . SVG Version: 6.00 Build 0)  -->
<!DOCTYPE svg PUBLIC "-//W3C//DTD SVG 1.1//EN" "http://www.w3.org/Graphics/SVG/1.1/DTD/svg11.dtd">
<svg version="1.1" id="Слой_1" xmlns="http://www.w3.org/2000/svg" xmlns:xlink="http://www.w3.org/1999/xlink" x="0px" y="0px"
	 width="40px" height="40px" viewBox="0.5 1.9 40 40" enable-background="new 0.5 1.9 40 40" xml:space="preserve">
<g opacity="0.4">
	<path fill="#B2B3C8" d="M27.8,7c0.5,0.1,1,0.2,1.5,0.3c3.1,0.8,5.4,3.6,5.7,6.8c0.2,2.5-0.6,4.6-2.3,6.4c-1.6,1.6-3.2,3.2-4.8,4.8
		c-1.6,1.6-3.6,2.4-5.9,2.3c-2.9-0.1-5.1-1.5-6.6-4c0,0,0-0.1,0-0.1c0.5-0.5,0.9-1.1,1.5-1.5c0.3-0.2,0.7-0.3,1-0.4
		c0.2-0.1,0.2,0,0.3,0.2c0.6,1.2,1.6,2.1,2.9,2.4c1.6,0.4,3.1,0,4.3-1.1c1.7-1.6,3.3-3.3,5-5c1.2-1.3,1.6-2.8,1.1-4.5
		c-0.6-1.7-1.8-2.7-3.5-3.1c-1.5-0.3-2.9,0.2-4,1.3c-0.8,0.8-1.5,1.5-2.3,2.3c-0.1,0.1-0.2,0.2-0.4,0.1c-1.2-0.4-2.5-0.5-3.8-0.4
		c0,0-0.1,0-0.2,0c0.1-0.1,0.1-0.2,0.2-0.2c1.3-1.3,2.7-2.7,4-4c1.4-1.4,3-2.2,5-2.4c0,0,0.1,0,0.1,0C27,7,27.4,7,27.8,7z"/>
	<path fill="#B2B3C8" d="M25.2,20c-0.5,0.5-1,1-1.4,1.5c-0.3,0.3-0.7,0.4-1.1,0.5c-0.2,0-0.2,0-0.3-0.1c-0.9-1.7-2.3-2.6-4.3-2.6
		c-1.2,0-2.2,0.5-3,1.3c-1.7,1.6-3.3,3.3-5,5c-1.3,1.3-1.6,2.9-1,4.6c0.6,1.7,1.8,2.7,3.5,3c1.5,0.3,2.8-0.2,3.9-1.3
		c0.8-0.8,1.6-1.6,2.4-2.4c0.1-0.1,0.2-0.1,0.3-0.1c1.3,0.4,2.6,0.6,4,0.4c0,0,0,0,0.1,0c-0.1,0.1-0.1,0.1-0.2,0.2
		c-1.4,1.4-2.8,2.8-4.1,4.1c-1.6,1.6-3.6,2.4-5.9,2.4c-3.7-0.1-7-3-7.5-6.7C5.2,27.2,6,25,7.8,23.1c1.6-1.6,3.2-3.2,4.8-4.8
		c3.7-3.7,9.8-2.9,12.4,1.6C25.1,19.9,25.1,19.9,25.2,20z"/>
</g>
</svg>
