<?xml version="1.0" encoding="utf-8"?>
<!-- Generator: Adobe Illustrator 18.0.0, SVG Export Plug-In . SVG Version: 6.00 Build 0)  -->
<!DOCTYPE svg PUBLIC "-//W3C//DTD SVG 1.1//EN" "http://www.w3.org/Graphics/SVG/1.1/DTD/svg11.dtd">
<svg version="1.1" id="Слой_1" xmlns="http://www.w3.org/2000/svg" xmlns:xlink="http://www.w3.org/1999/xlink" x="0px" y="0px"
	 width="107px" height="121px" viewBox="10.1 7.7 107 121" enable-background="new 10.1 7.7 107 121" xml:space="preserve">
<g>
	<g>
		
			<linearGradient id="SVGID_1_" gradientUnits="userSpaceOnUse" x1="63.6171" y1="132.4179" x2="63.6171" y2="12.2693" gradientTransform="matrix(1 0 0 -1 0 140.5499)">
			<stop  offset="0" style="stop-color:#1E42B3"/>
			<stop  offset="0.294" style="stop-color:#1E40AF"/>
			<stop  offset="0.5985" style="stop-color:#1F3BA2"/>
			<stop  offset="0.9069" style="stop-color:#20328E"/>
			<stop  offset="1" style="stop-color:#202F86"/>
		</linearGradient>
		<path fill="url(#SVGID_1_)" d="M35.3,121.6c-1.5,0-3,0-4.4,0c-5.1-0.1-9-4-9-9.1c0-11.7,0-23.4,0-35.1c0-0.7-0.1-1.4-0.3-2.1
			C18,63.3,14.4,51.2,10.8,39.1c-1.6-5.4,1-10.1,6.4-11.7c1.3-0.4,2.7-0.8,4-1.2c0.5-0.1,0.7-0.4,0.7-0.9c0.3-5.2,4.1-8.8,9.3-8.8
			c7.2,0,14.3,0,21.5,0c0.6,0,1.3-0.1,1.9-0.3c8.5-2.5,17-5.1,25.5-7.6C85.7,7,90.5,9.6,92,15.1c0.3,1.1,0.7,1.4,1.9,1.4
			c1.6-0.1,3.3-0.1,4.9,0.1c4.8,0.6,8,4.4,8,9.2c0,12.5,0,25,0,37.4c0,1.2,0.2,2.4,0.5,3.5c3,10.2,6.1,20.5,9.2,30.7
			c1.6,5.2-1,10-6.3,11.6c-7,2.1-14,4.1-20.9,6.3c-0.7,0.2-1.3,0.6-1.9,1.1c-1.2,1.1-2.3,2.3-3.4,3.4c-1.2,1.2-2.6,1.8-4.3,1.8
			c-3.5,0-7,0-10.5,0c-0.8,0-1.6,0.1-2.4,0.4c-6.3,1.8-12.7,3.5-18.9,5.6C42.2,129.6,36.9,126.9,35.3,121.6z M74.7,111.1
			c0-0.5,0-0.9,0-1.3c0-4.8,0-9.6,0-14.4c0-3.7,2.2-5.8,5.8-5.8c4.8,0,9.7,0,14.5,0c0.4,0,0.8,0,1.2,0c0-20.9,0-41.7,0-62.5
			c-21.3,0-42.6,0-63.9,0c0,28.1,0,56.1,0,84.1C46.5,111.1,60.6,111.1,74.7,111.1z"/>
		
			<linearGradient id="SVGID_2_" gradientUnits="userSpaceOnUse" x1="54.49" y1="88.53" x2="54.49" y2="74.1817" gradientTransform="matrix(1 0 0 -1 0 140.5499)">
			<stop  offset="0" style="stop-color:#1E42B3"/>
			<stop  offset="0.294" style="stop-color:#1E40AF"/>
			<stop  offset="0.5985" style="stop-color:#1F3BA2"/>
			<stop  offset="0.9069" style="stop-color:#20328E"/>
			<stop  offset="1" style="stop-color:#202F86"/>
		</linearGradient>
		<path fill="url(#SVGID_2_)" d="M54.4,57.5c1.3-1.6,2.6-3.1,3.7-4.7c0.5-0.6,1-0.9,1.7-0.8c1.2,0.1,2.4,0,3.5,0.2
			c3.5,0.8,5.7,4.2,5.2,7.7c-0.2,1.3-0.3,2.6-0.5,4c-0.2,1.7-1,2.4-2.8,2.4c-7.3,0-14.5,0-21.8,0c-1.8,0-2.6-0.7-2.8-2.4
			c-0.2-2-0.6-4-0.4-6c0.3-3.3,3.3-5.8,6.6-5.9c3-0.1,3-0.1,4.8,2.2C52.6,55.3,53.4,56.3,54.4,57.5z"/>
		
			<linearGradient id="SVGID_3_" gradientUnits="userSpaceOnUse" x1="64.4719" y1="68.2277" x2="64.4719" y2="61.4977" gradientTransform="matrix(1 0 0 -1 0 140.5499)">
			<stop  offset="0" style="stop-color:#1E42B3"/>
			<stop  offset="0.294" style="stop-color:#1E40AF"/>
			<stop  offset="0.5985" style="stop-color:#1F3BA2"/>
			<stop  offset="0.9069" style="stop-color:#20328E"/>
			<stop  offset="1" style="stop-color:#202F86"/>
		</linearGradient>
		<path fill="url(#SVGID_3_)" d="M64.6,72.3c6.9,0,13.8,0,20.7,0c2.3,0,3.8,1.4,3.8,3.4c0,2-1.6,3.4-3.8,3.4c-13.9,0-27.9,0-41.8,0
			c-2.5,0-4-1.7-3.6-4c0.3-1.6,1.7-2.8,3.5-2.8C50.5,72.3,57.5,72.3,64.6,72.3z"/>
		
			<linearGradient id="SVGID_4_" gradientUnits="userSpaceOnUse" x1="54.43" y1="107.5281" x2="54.43" y2="90.736" gradientTransform="matrix(1 0 0 -1 0 140.5499)">
			<stop  offset="0" style="stop-color:#1E42B3"/>
			<stop  offset="0.294" style="stop-color:#1E40AF"/>
			<stop  offset="0.5985" style="stop-color:#1F3BA2"/>
			<stop  offset="0.9069" style="stop-color:#20328E"/>
			<stop  offset="1" style="stop-color:#202F86"/>
		</linearGradient>
		<path fill="url(#SVGID_4_)" d="M62.8,41.5c0,4.6-3.8,8.4-8.4,8.4c-4.6,0-8.4-3.8-8.4-8.5c0-4.6,3.8-8.3,8.5-8.3
			C59.1,33,62.8,36.8,62.8,41.5z"/>
		
			<linearGradient id="SVGID_5_" gradientUnits="userSpaceOnUse" x1="54.3691" y1="55.1485" x2="54.3691" y2="48.4195" gradientTransform="matrix(1 0 0 -1 0 140.5499)">
			<stop  offset="0" style="stop-color:#1E42B3"/>
			<stop  offset="0.294" style="stop-color:#1E40AF"/>
			<stop  offset="0.5985" style="stop-color:#1F3BA2"/>
			<stop  offset="0.9069" style="stop-color:#20328E"/>
			<stop  offset="1" style="stop-color:#202F86"/>
		</linearGradient>
		<path fill="url(#SVGID_5_)" d="M54.4,85.4c3.6,0,7.3,0,10.9,0c2.1,0,3.6,1.4,3.6,3.3c0,1.9-1.5,3.4-3.7,3.4c-7.3,0-14.5,0-21.8,0
			c-2.1,0-3.7-1.4-3.7-3.3c0-2.1,1.5-3.4,3.7-3.4C47.1,85.4,50.7,85.4,54.4,85.4z"/>
		
			<linearGradient id="SVGID_6_" gradientUnits="userSpaceOnUse" x1="54.3643" y1="42.0271" x2="54.3643" y2="35.2975" gradientTransform="matrix(1 0 0 -1 0 140.5499)">
			<stop  offset="0" style="stop-color:#1E42B3"/>
			<stop  offset="0.294" style="stop-color:#1E40AF"/>
			<stop  offset="0.5985" style="stop-color:#1F3BA2"/>
			<stop  offset="0.9069" style="stop-color:#20328E"/>
			<stop  offset="1" style="stop-color:#202F86"/>
		</linearGradient>
		<path fill="url(#SVGID_6_)" d="M54.3,105.2c-3.6,0-7.2,0-10.8,0c-2.2,0-3.7-1.4-3.7-3.2c0-2.1,1.5-3.5,3.7-3.5
			c7.3,0,14.5,0,21.8,0c2.1,0,3.7,1.5,3.7,3.4c0,1.9-1.5,3.3-3.7,3.3C61.6,105.3,58,105.3,54.3,105.2z"/>
		
			<linearGradient id="SVGID_7_" gradientUnits="userSpaceOnUse" x1="79.5091" y1="107.5969" x2="79.5091" y2="100.89" gradientTransform="matrix(1 0 0 -1 0 140.5499)">
			<stop  offset="0" style="stop-color:#1E42B3"/>
			<stop  offset="0.294" style="stop-color:#1E40AF"/>
			<stop  offset="0.5985" style="stop-color:#1F3BA2"/>
			<stop  offset="0.9069" style="stop-color:#20328E"/>
			<stop  offset="1" style="stop-color:#202F86"/>
		</linearGradient>
		<path fill="url(#SVGID_7_)" d="M79.6,33c1.8,0,3.7,0,5.5,0c2.1,0,3.6,1.4,3.6,3.3c0,1.9-1.5,3.3-3.6,3.3c-3.8,0-7.6,0-11.4,0
			c-1.7,0-3-1.1-3.3-2.7c-0.3-1.6,0.5-3.1,1.9-3.7c0.5-0.2,1.2-0.3,1.8-0.3C75.9,32.9,77.7,33,79.6,33z"/>
		
			<linearGradient id="SVGID_8_" gradientUnits="userSpaceOnUse" x1="81.4821" y1="94.4227" x2="81.4821" y2="87.6623" gradientTransform="matrix(1 0 0 -1 0 140.5499)">
			<stop  offset="0" style="stop-color:#1E42B3"/>
			<stop  offset="0.294" style="stop-color:#1E40AF"/>
			<stop  offset="0.5985" style="stop-color:#1F3BA2"/>
			<stop  offset="0.9069" style="stop-color:#20328E"/>
			<stop  offset="1" style="stop-color:#202F86"/>
		</linearGradient>
		<path fill="url(#SVGID_8_)" d="M81.5,46.1c1.3,0,2.7,0,4,0c1.9,0,3.4,1.5,3.4,3.3c0,1.8-1.4,3.3-3.3,3.4c-2.8,0.1-5.6,0.1-8.4,0
			c-1.9,0-3.2-1.6-3.2-3.4c0-1.8,1.5-3.2,3.4-3.3C78.8,46.1,80.1,46.1,81.5,46.1z"/>
		
			<linearGradient id="SVGID_9_" gradientUnits="userSpaceOnUse" x1="81.482" y1="81.326" x2="81.482" y2="74.5823" gradientTransform="matrix(1 0 0 -1 0 140.5499)">
			<stop  offset="0" style="stop-color:#1E42B3"/>
			<stop  offset="0.294" style="stop-color:#1E40AF"/>
			<stop  offset="0.5985" style="stop-color:#1F3BA2"/>
			<stop  offset="0.9069" style="stop-color:#20328E"/>
			<stop  offset="1" style="stop-color:#202F86"/>
		</linearGradient>
		<path fill="url(#SVGID_9_)" d="M81.4,66c-1.3,0-2.6,0-3.9,0c-2,0-3.5-1.4-3.5-3.4c0-1.9,1.5-3.4,3.5-3.4c2.6,0,5.2,0,7.9,0
			c2,0,3.5,1.5,3.5,3.4c0,1.9-1.5,3.3-3.5,3.4C84.1,66,82.7,66,81.4,66z"/>
	</g>
</g>
</svg>
