<?xml version="1.0" encoding="utf-8"?>
<!-- Generator: Adobe Illustrator 18.0.0, SVG Export Plug-In . SVG Version: 6.00 Build 0)  -->
<!DOCTYPE svg PUBLIC "-//W3C//DTD SVG 1.1//EN" "http://www.w3.org/Graphics/SVG/1.1/DTD/svg11.dtd">
<svg version="1.1" id="Слой_1" xmlns="http://www.w3.org/2000/svg" xmlns:xlink="http://www.w3.org/1999/xlink" x="0px" y="0px"
	 width="74px" height="92.5px" viewBox="9.5 0 74 92.5" enable-background="new 9.5 0 74 92.5" xml:space="preserve">
<g>
	<g>
		<path fill="#182783" d="M80.4,11.8c0.1,0,0.1,0.1,0.2,0.1c1.8,0.5,2.9,1.9,2.9,3.8c0,5.3,0,10.5,0,15.8c0,11.5,0,23,0,34.6
			c0,2.3-1.5,4.3-4.3,4.2c-7.8-0.1-15.5,0-23.3,0c-0.2,0-0.5,0-0.8,0c0.1,0.3,0.2,0.5,0.3,0.7c0.8,1.8,1.7,3.5,2.5,5.3
			c0.2,0.5,0.5,0.6,0.9,0.6c2.7-0.1,4.9,0.8,6.7,2.9c1.1,1.3,1.6,2.8,1.7,4.4c0,1.2-0.3,1.5-1.5,1.5c-6.1,0-12.3,0-18.4,0
			c-6.7,0-13.3,0-20,0c-1.2,0-1.5-0.3-1.5-1.5c0.1-3.9,3.5-7.3,7.5-7.3c1.3,0,1.9-0.4,2.3-1.5c0.6-1.5,1.4-2.9,2.1-4.3
			c0.1-0.2,0.2-0.4,0.3-0.7c-0.3,0-0.6,0-0.9,0c-7.9,0-15.7,0-23.6,0c-2.1,0-3.5-1.2-3.9-3c-0.1-0.3-0.1-0.7-0.1-1
			c0-16.6,0-33.3,0-49.9c0-2.6,0.6-3.6,3.1-4.5C35.3,11.8,57.9,11.8,80.4,11.8z M11.9,56.3c23.1,0,46.2,0,69.3,0c0-0.3,0-0.5,0-0.7
			c0-13.2,0-26.4,0-39.7c0-1.4-0.5-1.9-1.9-1.9c-21.9,0-43.7,0-65.6,0c-1.4,0-1.9,0.5-1.9,1.9c0,13.2,0,26.4,0,39.7
			C11.9,55.8,11.9,56,11.9,56.3z M11.9,58.4c0,2.7,0,5.2,0,7.8c0,1.3,0.5,1.8,1.8,1.8c21.9,0,43.9,0,65.8,0c1.3,0,1.8-0.5,1.8-1.7
			c0-2.4,0-4.8,0-7.3c0-0.2,0-0.4,0-0.6C58.1,58.4,35.1,58.4,11.9,58.4z M64.9,83.3c0-0.1,0-0.2,0-0.2c-0.6-2.5-2.8-4.1-5.4-4.1
			c-8.5,0-17.1,0-25.6,0c-0.4,0-0.8,0-1.2,0.1c-2.1,0.3-4.2,2.3-4.4,4.3C40.5,83.3,52.7,83.3,64.9,83.3z M55.7,76.7
			c-1.1-2.1-2.1-4.2-3.1-6.2c-0.1-0.2-0.4-0.3-0.6-0.3c-3.7,0-7.3,0-11,0c-0.4,0-0.5,0.1-0.7,0.4c-0.8,1.6-1.5,3.2-2.3,4.8
			c-0.2,0.4-0.4,0.8-0.6,1.3C43.6,76.7,49.6,76.7,55.7,76.7z"/>
		<path fill="#182783" d="M52.4,35.5c0,5.4,0,10.8,0,16.2c0,1.3-0.3,1.5-1.5,1.5c-10.8,0-21.7,0-32.5,0c-1.1,0-1.5-0.4-1.5-1.6
			c0-10.8,0-21.6,0-32.5c0-1.2,0.3-1.5,1.5-1.5c10.8,0,21.7,0,32.5,0c1.2,0,1.5,0.3,1.5,1.5C52.4,24.6,52.4,30.1,52.4,35.5z
			 M50.1,20c-0.2,0-0.4,0-0.6,0c-9.9,0-19.9,0-29.8,0c-0.6,0-0.7,0.2-0.7,0.7c0,9.9,0,19.8,0,29.7c0,0.2,0,0.4,0,0.7
			c10.4,0,20.7,0,31.1,0C50.1,40.7,50.1,30.3,50.1,20z"/>
		<path fill="#182783" d="M66.1,19.5c2.7,0,5.4,0,8.1,0c1.1,0,1.4,0.3,1.4,1.4c0,5.2,0,10.4,0,15.7c0,1.1-0.3,1.4-1.4,1.4
			c-5.4,0-10.8,0-16.2,0c-1.1,0-1.5-0.4-1.5-1.5c0-5.2,0-10.4,0-15.6c0-1.1,0.3-1.4,1.4-1.4C60.7,19.5,63.4,19.5,66.1,19.5z
			 M58.8,21.8c0,4.7,0,9.3,0,14c4.9,0,9.7,0,14.6,0c0-4.7,0-9.3,0-14C68.5,21.8,63.7,21.8,58.8,21.8z"/>
		<path fill="#182783" d="M66.1,53.3c-2.5,0-5.1,0-7.6,0c-1,0-1.4-0.3-1.4-1.4c0-2.6,0-5.2,0-7.7c0-1.1,0.3-1.4,1.4-1.4
			c5.1,0,10.2,0,15.3,0c1,0,1.4,0.4,1.4,1.4c0,2.6,0,5.2,0,7.7c0,1-0.4,1.3-1.3,1.3C71.3,53.3,68.7,53.3,66.1,53.3z M72.9,45
			c-4.5,0-9,0-13.6,0c0,2,0,4,0,6c4.5,0,9,0,13.6,0C72.9,49,72.9,47.1,72.9,45z"/>
		<path fill="#182783" d="M46.6,66.8c-2,0-3.7-1.7-3.7-3.7c0-2,1.7-3.7,3.7-3.7s3.7,1.7,3.7,3.7C50.3,65.1,48.6,66.8,46.6,66.8z
			 M46.6,64.6c0.8,0,1.4-0.7,1.4-1.5s-0.7-1.4-1.5-1.4S45,62.4,45,63.1C45.1,63.9,45.8,64.6,46.6,64.6z"/>
		<path fill="#182783" d="M34.8,25.8c-3.5,0-7,0-10.5,0c-1,0-1.5-0.6-1.3-1.3c0.1-0.5,0.4-0.8,0.9-0.9c0.2,0,0.5,0,0.7,0
			c6.7,0,13.4,0,20.2,0c0.3,0,0.6,0,0.9,0.1c0.5,0.1,0.8,0.5,0.8,1.1s-0.3,0.9-0.9,1c-0.2,0-0.5,0-0.7,0
			C41.5,25.8,38.1,25.8,34.8,25.8z"/>
		<path fill="#182783" d="M34.7,37.1c-3.4,0-6.9,0-10.3,0c-0.6,0-1.1-0.1-1.3-0.7c-0.2-0.7,0.1-1.4,0.9-1.5c0.2,0,0.4,0,0.7,0
			c6.8,0,13.5,0,20.3,0c0.3,0,0.6,0,0.8,0.1c0.5,0.2,0.8,0.7,0.7,1.2c-0.1,0.6-0.4,0.9-1,0.9c-0.2,0-0.5,0-0.7,0
			C41.4,37.1,38.1,37.1,34.7,37.1z"/>
		<path fill="#182783" d="M34.7,40.4c3.4,0,6.8,0,10.1,0c0.2,0,0.4,0,0.6,0c0.6,0.1,1,0.5,1,1.1s-0.3,1-0.9,1.1c-0.1,0-0.2,0-0.3,0
			c-7,0-14,0-21,0c-1,0-1.5-0.7-1.2-1.6c0.2-0.5,0.7-0.7,1.2-0.7c2.7,0,5.4,0,8.1,0C33.1,40.4,33.9,40.4,34.7,40.4z"/>
		<path fill="#182783" d="M34.7,48.2c-3.5,0-7,0-10.4,0c-0.9,0-1.3-0.5-1.3-1.2c0.1-0.6,0.4-0.9,0.9-1c0.2,0,0.4,0,0.7,0
			c6.8,0,13.5,0,20.3,0c0.1,0,0.2,0,0.4,0c0.7,0,1.2,0.5,1.2,1.2s-0.4,1-1.2,1C41.7,48.2,38.2,48.2,34.7,48.2z"/>
		<path fill="#182783" d="M34.7,31.4c-3.5,0-7,0-10.4,0c-0.6,0-1-0.2-1.2-0.8c-0.2-0.7,0.2-1.4,1-1.4c0.1,0,0.3,0,0.4,0
			c6.8,0,13.7,0,20.5,0c0.1,0,0.2,0,0.4,0c0.6,0,1.1,0.6,1.1,1.2s-0.4,1-1.1,1c-1.2,0-2.3,0-3.5,0C39.5,31.4,37.1,31.4,34.7,31.4z"
			/>
		<path fill="#182783" d="M64.3,30.6c0.4-0.4,0.8-0.7,1.2-1.1c1.6-1.5,3.1-3,4.7-4.4c0.5-0.5,1.1-0.5,1.5-0.1c0.5,0.5,0.5,1.2,0,1.7
			c-2.3,2.2-4.6,4.4-6.9,6.5c-0.6,0.6-1.3,0.5-1.8-0.2c-0.9-1.3-1.7-2.6-2.6-4c-0.4-0.6-0.3-1.3,0.3-1.6c0.6-0.4,1.2-0.2,1.6,0.4
			C62.9,28.6,63.6,29.6,64.3,30.6z"/>
	</g>
</g>
</svg>
