<?xml version="1.0" encoding="utf-8"?>
<!-- Generator: Adobe Illustrator 18.0.0, SVG Export Plug-In . SVG Version: 6.00 Build 0)  -->
<!DOCTYPE svg PUBLIC "-//W3C//DTD SVG 1.1//EN" "http://www.w3.org/Graphics/SVG/1.1/DTD/svg11.dtd">
<svg version="1.1" id="Слой_1" xmlns="http://www.w3.org/2000/svg" xmlns:xlink="http://www.w3.org/1999/xlink" x="0px" y="0px"
	 width="70.9px" height="92.5px" viewBox="9.9 0 70.9 92.5" enable-background="new 9.9 0 70.9 92.5" xml:space="preserve">
<g>
	<path fill="#182783" d="M38.5,66.7c-3.1-1.6-3.9-3.6-2.8-7.3c-1.9,0-3.7,0-5.6,0c0-7.6,0-15.2,0-22.8c-6.8,0-13.5,0-20.3,0
		c0-9.3,0-18.6,0-27.9c25.3,0,50.6,0,75.9,0c0,9.3,0,18.5,0,27.8c-6.7,0-13.4,0-20.2,0c0,0.3,0,0.5,0,0.8c0,2.7,0,5.5,0,8.2
		c0,0.5,0.2,0.8,0.5,1.1c3.8,3.4,7.6,6.8,11.4,10.3c0.9,0.8,1,1.1,0.5,2.2c-2.4,5.9-4.7,11.8-7.1,17.7c-0.2,0.4-0.2,0.8-0.2,1.2
		c0,1.7,0,3.4,0,5.1c0,1.2-0.4,1.6-1.6,1.6c-5.7,0-11.4,0-17.1,0c-1.2,0-1.6-0.4-1.6-1.6c0-1.6,0-3.3,0-4.9c0-0.3-0.2-0.7-0.4-0.9
		c-0.8-0.8-1.6-1.6-2.4-2.4c-0.2-0.2-0.5-0.3-0.8-0.3c-1.3,0-2.6,0-3.9,0c-4.1,0-6.5-4-4.6-7.6C38.4,66.9,38.5,66.9,38.5,66.7z
		 M32.7,24c0,0.3,0,0.5,0,0.8c0,7.5,0,15.1,0,22.6c0,0.5,0.1,0.8,0.7,0.9c3.5,0.7,5.9,2.7,7.3,6c0.4,0.8,0.6,1.7,0.8,2.6
		c4.6,0,9.3,0,13.9,0c0-0.2,0-0.4,0-0.6c0-4,0-8,0-12c0-3.7,3.6-6.1,7-4.7c0.2,0.1,0.3,0.1,0.5,0.2c0-5.3,0-10.5,0-15.8
		C52.9,24,42.8,24,32.7,24z M68.1,82.2c0-1.6,0-3.1,0-4.7c0-0.4,0.1-0.8,0.2-1.2c2.3-5.7,4.6-11.5,6.9-17.2c0.2-0.5,0.2-0.7-0.2-1.1
		c-3-2.6-5.9-5.3-8.8-7.9c-0.2-0.1-0.3-0.3-0.6-0.5c0,2.9,0,5.7,0,8.5c-0.9,0-1.7,0-2.5,0c0-0.3,0-0.6,0-0.8c0-4.2,0-8.4,0-12.6
		c0-0.6-0.1-1.2-0.4-1.7c-0.5-1-1.7-1.4-2.8-1.1c-1.1,0.3-1.8,1.3-1.8,2.5c0,4.5,0,9,0,13.5c0,0.8-0.3,1.3-1.1,1.7
		c-2.4,1-4.8,2.1-7.2,3.1c-0.4,0.2-0.6,0.4-0.6,0.9c0,2.9,0,5.9,0,8.8c0,0.3,0.2,0.7,0.4,1c0.6,0.7,1.3,1.4,2,2
		c1.1,0.9,1.5,2,1.4,3.4c-0.1,1.2,0,2.4,0,3.6C58,82.2,63,82.2,68.1,82.2z M66.9,18.8c-12.7,0-25.3,0-38.1,0c0-2.5,0-5,0-7.5
		c-5.5,0-11,0-16.4,0c0,7.6,0,15.1,0,22.7c5.9,0,11.8,0,17.7,0c0-0.8,0-1.6,0-2.5c-5.1,0-10.1,0-15.2,0c0-3.4,0-6.7,0-10.1
		c22,0,43.9,0,65.8,0c0,3.4,0,6.7,0,10.1c-5.1,0-10.1,0-15.1,0c0,0.9,0,1.7,0,2.5c5.9,0,11.8,0,17.6,0c0-7.6,0-15.1,0-22.7
		c-5.5,0-10.9,0-16.4,0C66.9,13.8,66.9,16.3,66.9,18.8z M31.4,16.3c11,0,21.9,0,32.9,0c0-1.7,0-3.3,0-5c-11,0-21.9,0-32.9,0
		C31.4,13,31.4,14.6,31.4,16.3z M78.2,29c0-1.7,0-3.4,0-5c-4.2,0-8.4,0-12.6,0c0,1.7,0,3.4,0,5C69.9,29,74,29,78.2,29z M17.5,29
		c4.2,0,8.4,0,12.6,0c0-1.7,0-3.3,0-5c-4.2,0-8.4,0-12.6,0C17.5,25.7,17.5,27.3,17.5,29z M50.2,59.6c0,0,0-0.1,0-0.1
		c-3.3,0-6.5,0-9.8,0c-1.5,0-2.6,1.1-2.6,2.5c0,1.5,1.1,2.5,2.6,2.5c1.9,0,3.8,0,5.7,0c0.2,0,0.3,0,0.6-0.1c0-0.7,0-1.3,0-1.9
		c-0.1-1,0.3-1.6,1.3-2C48.7,60.3,49.4,59.9,50.2,59.6z M46.6,67c-0.3,0-0.5,0-0.7,0c-1.1,0-2.2,0-3.2,0c-1.2,0.1-2.2,1.1-2.3,2.2
		c-0.1,1.3,0.6,2.6,1.8,2.7c1.5,0.2,2.9,0,4.4,0C46.6,70.4,46.6,68.7,46.6,67z M32.7,56.9c2.1,0,4.1,0,6.1,0c0-2.7-3.1-5.8-6.1-6.1
		C32.7,52.7,32.7,54.8,32.7,56.9z"/>
	<path fill="#182783" d="M22.5,57.4c0-6,0-12.1,0-18.2c0.9,0,1.7,0,2.5,0c0,6.1,0,12.1,0,18.4c0.6-0.6,1.1-1.1,1.6-1.5
		c0.6,0.6,1.1,1.2,1.8,1.8c-0.8,0.8-1.7,1.7-2.6,2.6c-0.4,0.4-0.8,0.8-1.2,1.1c-0.5,0.4-1.2,0.5-1.7,0c-1.3-1.3-2.6-2.6-3.8-3.8
		c0.6-0.6,1.1-1.2,1.8-1.8c0.4,0.5,0.9,1,1.3,1.6C22.3,57.5,22.4,57.4,22.5,57.4z"/>
	<path fill="#182783" d="M51.7,29.1c-0.9,0-1.7,0-2.6,0c0,0.3,0,0.5,0,0.7c0,1.8,0,3.6,0,5.3c0,1-0.5,1.5-1.5,1.5
		c-1.5,0-3.1,0-4.6,0c-1,0-1.5-0.5-1.5-1.5c0-0.7,0-1.4,0-2.2c-0.8,0-1.6,0-2.5,0c0-0.9,0-1.7,0-2.6c0.8,0,1.6,0,2.5,0
		c0-1.3,0-2.5,0-3.8c0.9,0,1.7,0,2.5,0c0,2.5,0,5,0,7.5c0.9,0,1.7,0,2.6,0c0-0.2,0-0.5,0-0.7c0-1.8,0-3.6,0-5.3c0-1,0.5-1.5,1.5-1.5
		c1.6,0,3.1,0,4.7,0c1,0,1.4,0.5,1.5,1.5c0,0.7,0,1.5,0,2.3c0.8,0,1.6,0,2.5,0c0,0.9,0,1.7,0,2.6c-0.8,0-1.6,0-2.5,0
		c0,0.7,0,1.3,0,1.9c0,0.6,0,1.2,0,1.9c-0.8,0-1.6,0-2.5,0C51.7,34.1,51.7,31.6,51.7,29.1z"/>
	<path fill="#182783" d="M14.9,18.8c0-1.7,0-3.3,0-5c3.4,0,6.7,0,10.1,0c0,0.8,0,1.6,0,2.5c-2.5,0-5,0-7.5,0c0,0.9,0,1.7,0,2.5
		C16.5,18.8,15.7,18.8,14.9,18.8z"/>
	<path fill="#182783" d="M70.7,16.4c0-0.9,0-1.7,0-2.5c3.4,0,6.7,0,10,0c0,1.7,0,3.3,0,5c-0.8,0-1.6,0-2.5,0c0-0.8,0-1.6,0-2.5
		C75.7,16.4,73.3,16.4,70.7,16.4z"/>
</g>
</svg>
