<?xml version="1.0" encoding="utf-8"?>
<!-- Generator: Adobe Illustrator 18.0.0, SVG Export Plug-In . SVG Version: 6.00 Build 0)  -->
<!DOCTYPE svg PUBLIC "-//W3C//DTD SVG 1.1//EN" "http://www.w3.org/Graphics/SVG/1.1/DTD/svg11.dtd">
<svg version="1.1" id="Слой_1" xmlns="http://www.w3.org/2000/svg" xmlns:xlink="http://www.w3.org/1999/xlink" x="0px" y="0px"
	 width="78.2px" height="92.5px" viewBox="7.9 0 78.2 92.5" enable-background="new 7.9 0 78.2 92.5" xml:space="preserve">
<g>
	<path fill="#182783" d="M23.1,58.7c0,1.7,0,3.4,0,5.1c3.5,0.2,6.9,0.8,10,2.5c0-0.9,0-1.6,0-2.4c0-1.1,0-2.3,0-3.4
		c-0.1-1.6,0.6-2.8,1.8-3.7c1.5-1.1,3.2-1.8,5-2.2c1-0.3,2.1-0.4,3.2-0.7c0-1.7,0-3.4,0-5.2c-0.3,0-0.5,0-0.8,0c-2.7,0-5.4,0-8.1,0
		c-6.6-0.1-12-4.5-13.4-10.9c-0.3-1.3-0.3-2.7-0.5-4.2c0.4,0,0.7,0,0.9,0c3.4,0,6.9,0,10.3,0c4.7,0,8.4,1.8,11.3,5.5
		c0.1,0.1,0.1,0.2,0.3,0.3c0-6.2,0-12.2,0-18.4c-0.9,0-1.8,0-2.7,0c-2.2,0.1-4.4-0.2-6.4-1.3c-4.3-2.4-6.2-6.1-6-11
		c0-0.1,0-0.1,0.1-0.2c0.1,0,0.1-0.1,0.1-0.1c3.2,0,6.4-0.1,9.6,0.1c3.8,0.2,6.6,2.2,8.7,5.3c0.1,0.2,0.3,0.4,0.4,0.7
		c0.1-0.2,0.2-0.3,0.3-0.4c2.1-3.4,5.1-5.4,9.1-5.6c3.1-0.2,6.3,0,9.5,0c0.1,1.2,0,2.4-0.2,3.6c-1.1,5.2-5.7,8.9-11,8.9
		c-1.3,0-2.5,0-3.8,0c0,3.6,0,7.2,0,10.8c0.2-0.3,0.4-0.5,0.6-0.7c2.7-3.2,6.1-5,10.3-5c3.7-0.1,7.5,0,11.2,0c0.1,0,0.3,0,0.4,0
		c0.1,2.1-0.1,4.1-0.8,6c-2,5.4-7.1,9-12.8,9.1c-3,0-5.9,0-8.9,0c0,4.3,0,8.5,0,12.8c1.1,0.2,2.1,0.4,3.2,0.7
		c1.1,0.3,2.3,0.7,3.3,1.2c2.7,1.3,3.4,2.4,3.5,5.5c3.5-1.9,7.3-2.4,11.3-2.5c0-2.9,0-5.8,0-8.8c-1.2,0-2.4,0-3.6,0
		c-2.1,0-3.8-0.8-5.1-2.5c-1.2-1.5-1.5-3.2-1.3-5c0.1,0,0.1-0.1,0.2-0.1c2.2,0,4.4-0.1,6.6,0c0.9,0,1.7,0.5,2.6,0.8
		c0.2,0.1,0.4,0.2,0.7,0.4c0-0.7,0-1.2,0-1.8c0.2-3.1,2.8-5.6,5.9-5.7c2.2-0.1,4.4,0,6.6,0c0.7,3.9-2.2,7.4-6.1,7.5
		c-1.3,0-2.6,0-3.9,0c0,2.1,0,4.1,0,6c1-0.3,2.1-0.9,3.1-0.9c2.3-0.1,4.6,0,6.8,0c0.7,3.9-2.2,7.5-6.3,7.5c-1.2,0-2.4,0-3.6,0
		c0,0.9,0,1.7,0,2.5c1.6,0.3,3.2,0.5,4.7,0.9c1.7,0.4,3.4,1.1,4.8,2.2c1.2,0.9,1.9,2.2,1.8,3.8c0,4.7,0,9.4,0,14.1
		c0,1.6-0.6,2.8-1.8,3.7c-1.9,1.4-4,2.1-6.3,2.5c-4.8,0.9-9.6,0.8-14.3-0.7c-1.5-0.5-2.9-1.2-4.1-2.2c-4.1,3-8.8,3.5-13.5,3.4
		c-2,0-3.9-0.4-5.8-0.7c-2.4-0.5-3.6-1.1-5.9-2.7c-2.8,2.3-6.1,3-9.5,3.3c-4.1,0.4-8.1,0.1-12-1.3c-1.2-0.4-2.3-1.1-3.3-1.8
		c-1.2-0.8-1.7-2-1.7-3.5c0-3,0.1-6,0-9c0-1.8,0.7-3.1,2.2-4.1c1.6-1.1,3.4-1.7,5.3-2.1c1.7-0.3,3.4-0.5,5.2-0.8c0-0.7,0-1.5,0-2.4
		c-1.1,0-2.1-0.1-3.1,0c-3.8,0.3-7.4-2.7-6.8-7.4c0,0,0.1-0.1,0.1-0.1c2.3,0,4.6-0.1,6.8,0c1,0.1,2,0.6,3.1,1c0-0.9,0-1.9,0-2.9
		c0-1,0-2.1,0-3.2c-0.7,0-1.4,0-2.1,0c-0.9,0-1.9,0.1-2.8-0.1c-3.1-0.6-5.1-3.1-5.2-6.2c0-0.4,0-0.8,0-1.2c0.2,0,0.4,0,0.6,0
		c2.2,0,4.5-0.1,6.7,0.1c3.1,0.3,5.3,3,5.3,6.1c0,1.7,0,3.3,0,5.1c1.2-0.8,2.5-1.3,3.8-1.3c1.5,0,3,0,4.4,0c0.6,0,1.2,0,1.7,0
		c0.7,3.8-2.1,7.4-5.8,7.5c-1.1,0.1-2.2,0-3.4,0C23.6,58.7,23.4,58.7,23.1,58.7z M48.2,59.9c0-13,0-26,0-39c-0.9,0-1.7,0-2.5,0
		c0,13,0,26,0,39c-0.9,0-1.7,0-2.5,0c0-1.2,0-2.3,0-3.5c-0.5,0.1-0.9,0.1-1.4,0.2c-1.9,0.4-3.8,0.9-5.4,2.1c-1.1,0.8-1.1,1.7,0,2.4
		c0.9,0.6,1.9,1.1,3,1.5c3.9,1.2,7.9,1.4,11.9,0.7c1.7-0.3,3.3-0.8,4.9-1.4c0.9-0.3,2-0.8,2-2c0-1.2-1.1-1.6-2-2
		c-1.2-0.5-2.4-0.8-3.6-1.2c-0.6-0.2-1.2-0.2-1.9-0.3c0,1.3,0,2.4,0,3.5C49.9,59.9,49.1,59.9,48.2,59.9z M43.1,46.1
		c0-0.3,0-0.4,0-0.6c-0.8-5.3-5.4-9.3-10.7-9.5c-2.9-0.1-5.8,0-8.7,0c-0.1,0-0.3,0-0.4,0c0,0.2,0,0.4,0,0.6c0.7,4.8,5.1,9,10,9.3
		c2.8,0.2,5.7,0.1,8.5,0.1C42.1,46.1,42.6,46.1,43.1,46.1z M70.8,28.5c-0.2,0-0.3-0.1-0.4-0.1c-2.9,0-5.8-0.1-8.7,0
		c-4.9,0.2-8.9,3.2-10.4,7.7c-0.2,0.7-0.4,1.5-0.6,2.3c0.3,0,0.4,0,0.5,0c2.9,0,5.8,0,8.7,0c3.5-0.1,6.3-1.6,8.5-4.3
		C69.8,32.5,70.6,30.6,70.8,28.5z M72.2,68.9c1.9-0.2,3.9-0.4,5.8-0.8c1.7-0.3,3.3-0.8,4.6-1.9c1.2-0.9,1.2-1.8,0-2.6
		c-0.9-0.6-1.9-1.1-2.9-1.4c-4.6-1.4-9.3-1.4-14-0.3c-1.5,0.4-3,0.9-4.2,1.9c-0.9,0.7-0.9,1.5,0,2.2c0.8,0.6,1.7,1.1,2.6,1.4
		C66.6,68.5,69.4,68.7,72.2,68.9z M21,66.2c-1.7,0-4.2,0.2-6.6,1c-1.2,0.4-2.3,1-3.4,1.7c-0.9,0.6-0.8,1.4,0,2.1
		c0.7,0.6,1.6,1,2.4,1.4c2.1,0.9,4.3,1.2,6.6,1.3c3.4,0.2,6.7-0.1,9.9-1.3c0.8-0.3,1.6-0.7,2.3-1.2c1.1-0.8,1.1-1.6,0-2.5
		c-0.6-0.5-1.3-0.8-2-1.1C27.5,66.5,24.7,66.2,21,66.2z M48.4,18.3c0.1,0,0.3,0.1,0.4,0.1c2,0,4.1,0,6.1,0c2.6-0.1,4.8-1.2,6.5-3.2
		c1-1.2,1.7-2.7,1.9-4.4c-2.6,0.1-5.2-0.1-7.8,0.3C51.8,11.4,48.7,14.8,48.4,18.3z M30.7,10.8c0,0.2,0,0.3,0,0.3
		c0.8,3.6,2.9,6,6.4,6.9c2.7,0.7,5.5,0.2,8.3,0.3c0,0,0.1,0,0.1-0.1c-0.5-3.6-3.6-6.9-7.3-7.3c-1.8-0.2-3.6-0.1-5.4-0.1
		C32.2,10.8,31.5,10.8,30.7,10.8z M64.9,44.9c0.3,1.1,1.3,2.1,2.6,2.3c1.4,0.2,2.9,0,4.4,0c-0.5-1.2-1.4-2.1-2.7-2.3
		C67.8,44.8,66.3,44.9,64.9,44.9z M75,53.6c0.5,0,0.9,0,1.4,0c1,0,2,0,3-0.1c1.3-0.2,2.4-1.3,2.5-2.4c-1.2,0-2.5,0-3.7,0
		C76.7,51.2,75.3,52.3,75,53.6z M13.2,43.6c0.5,1.2,1.3,2.1,2.5,2.3c1.5,0.2,3,0.2,4.5,0.3c-0.4-1.4-1.7-2.5-3.1-2.6
		C15.9,43.5,14.6,43.6,13.2,43.6z M30.4,53.6c-0.3,0-0.6,0-0.8,0c-1.1,0-2.2,0-3.3,0c-1.4,0.1-2.7,1.2-2.9,2.4c1.4,0,2.9,0.1,4.3,0
		C28.9,55.9,29.8,55,30.4,53.6z M74.9,41c1.4,0,2.7,0.1,4,0c1.4-0.1,2.8-1.2,3-2.4c-1.4,0-2.9-0.1-4.3,0
		C76.3,38.8,75.5,39.7,74.9,41z M40.7,65.7c0,0.7,0,1.3,0,2c0,0.1,0.1,0.4,0.2,0.4c1.6,0.3,3.1,0.5,4.8,0.8c0-0.9,0-1.6,0-2.3
		c0-0.1-0.2-0.4-0.4-0.4C43.8,66,42.3,65.8,40.7,65.7z M53.3,65.7c-1.6,0.2-3.1,0.3-4.6,0.5c-0.1,0-0.4,0.2-0.4,0.3
		c0,0.7,0,1.4,0,2.3c1.7-0.2,3.4-0.5,5-0.7C53.3,67.2,53.3,66.4,53.3,65.7z M53.2,80.8c-1.7,0.2-3.3,0.4-5,0.6c0,0.8,0,1.6,0,2.5
		c1.7-0.2,3.3-0.5,5-0.7C53.2,82.3,53.2,81.5,53.2,80.8z M45.7,81.4c-1.7-0.2-3.3-0.4-5-0.6c0,0.8,0,1.6,0,2.5
		c1.7,0.2,3.3,0.4,5,0.7C45.7,83,45.7,82.2,45.7,81.4z M45.7,71.3c-1.7-0.2-3.3-0.4-5-0.6c0,0.8,0,1.6,0,2.5c1.7,0.2,3.3,0.4,5,0.7
		C45.7,72.9,45.7,72.1,45.7,71.3z M53.3,73.2c0-0.9,0-1.7,0-2.5c-1.7,0.2-3.3,0.4-5,0.6c0,0.8,0,1.6,0,2.5
		C50,73.6,51.6,73.4,53.3,73.2z M45.7,78.9c0-0.9,0-1.6,0-2.3c0-0.1-0.3-0.3-0.4-0.3c-0.7-0.1-1.4-0.1-2.1-0.2
		c-0.8-0.1-1.7-0.3-2.5-0.4c0,0.8,0,1.6,0,2.5C42.3,78.4,44,78.6,45.7,78.9z M53.3,75.7c-1.6,0.2-3.2,0.3-4.7,0.5
		c-0.1,0-0.3,0.2-0.3,0.3c0,0.7,0,1.4,0,2.3c1.7-0.2,3.4-0.5,5-0.7C53.3,77.3,53.3,76.5,53.3,75.7z M20.3,58.6
		c-0.6-1.4-1.5-2.2-2.9-2.4c-1.4-0.1-2.8,0-4.1,0c0.3,1.2,1.6,2.3,2.9,2.4C17.5,58.7,18.8,58.6,20.3,58.6z M70.9,76.3
		c-1.7-0.2-3.3-0.4-5-0.6c0,0.3,0,0.5,0,0.8c0,1.7,0,1.7,1.6,2c1.1,0.2,2.2,0.3,3.4,0.4C70.9,77.9,70.9,77.1,70.9,76.3z M73.5,78.9
		c1.6-0.2,3.1-0.5,4.7-0.7c0.1,0,0.3-0.2,0.3-0.3c0-0.7,0-1.4,0-2.1c-1.7,0.2-3.3,0.4-5,0.6C73.5,77.1,73.5,77.9,73.5,78.9z
		 M15.5,75.7c0,0.7,0,1.4,0,2.1c0,0.1,0.2,0.4,0.3,0.4c1.5,0.3,3.1,0.5,4.7,0.7c0-1,0-1.8,0-2.6C18.8,76.1,17.2,75.9,15.5,75.7z
		 M28.1,75.7c-1.7,0.2-3.3,0.4-5,0.6c0,0.8,0,1.6,0,2.6c1.6-0.2,3.1-0.5,4.7-0.7c0.1,0,0.3-0.2,0.3-0.3
		C28.1,77.1,28.1,76.4,28.1,75.7z M65.9,70.7c0,0.7,0,1.4,0,2c0,0.2,0.2,0.4,0.4,0.4c1.5,0.3,3,0.5,4.6,0.7c0-1,0-1.8,0-2.6
		C69.2,71.1,67.6,70.9,65.9,70.7z M78.5,70.7c-1.7,0.2-3.3,0.4-5,0.6c0,0.8,0,1.6,0,2.6c1.6-0.2,3.1-0.5,4.7-0.7
		c0.1,0,0.3-0.3,0.3-0.4C78.5,72.1,78.5,71.4,78.5,70.7z M78.5,80.8c-1.7,0.2-3.4,0.4-5,0.6c0,0.8,0,1.6,0,2.5
		c1.6-0.2,3.1-0.4,4.5-0.7c0.2,0,0.4-0.3,0.4-0.4C78.5,82.1,78.5,81.5,78.5,80.8z M20.5,81.4c-1.7-0.2-3.3-0.4-5-0.6
		c0,0.7,0,1.4,0,2c0,0.2,0.2,0.4,0.4,0.4c1.5,0.3,3,0.5,4.6,0.7C20.5,83,20.5,82.2,20.5,81.4z M23.1,83.9c1.6-0.2,3.1-0.5,4.6-0.7
		c0.1,0,0.3-0.2,0.3-0.3c0-0.7,0-1.4,0-2.2c-1.7,0.2-3.4,0.4-5,0.6C23.1,82.2,23.1,83,23.1,83.9z M65.9,80.8c0,0.7,0,1.4,0,2
		c0,0.1,0.2,0.4,0.3,0.4c1.5,0.3,3.1,0.5,4.6,0.7c0-1,0-1.8,0-2.6C69.2,81.2,67.6,81,65.9,80.8z M33.1,73.8c-0.8,0.4-1.5,0.7-2.2,1
		c-0.1,0.1-0.2,0.3-0.3,0.4c0,0.6,0,1.3,0,1.9C32.4,76.8,33.2,75.7,33.1,73.8z M81,77.2c2-0.6,2.7-1.7,2.4-3.4
		c-0.8,0.4-1.6,0.7-2.4,1.1C81,75.7,81,76.4,81,77.2z M10.5,73.8c-0.3,1.7,0.7,3.1,2.4,3.3c0-0.7,0-1.5,0-2.2
		c-0.4-0.2-0.8-0.3-1.2-0.5C11.3,74.2,10.9,74,10.5,73.8z M60.9,73.8c-0.3,1.7,0.7,3.1,2.4,3.3c0-0.7,0-1.5,0-2.2
		c-0.4-0.2-0.8-0.3-1.2-0.5C61.7,74.2,61.3,74,60.9,73.8z M60.9,68.8c-0.1,1.8,0.7,2.9,2.5,3.3c0-0.7,0-1.3,0-1.9
		c0-0.1-0.1-0.3-0.2-0.4C62.4,69.4,61.6,69.1,60.9,68.8z M81.1,72.1c1.9-0.6,2.6-1.6,2.4-3.4c-0.3,0.1-0.5,0.3-0.8,0.4
		C81,69.5,80.7,70.6,81.1,72.1z M60.9,78.9c-0.2,1.8,0.8,3.1,2.5,3.3c0-0.6,0-1.2,0-1.8c0-0.2-0.1-0.4-0.3-0.5
		C62.4,79.5,61.6,79.2,60.9,78.9z M10.5,78.9c-0.1,1.8,0.7,2.9,2.5,3.3c0-0.7,0-1.3,0-1.9c0-0.1-0.1-0.3-0.2-0.4
		C12,79.5,11.3,79.2,10.5,78.9z M33.1,78.9c-0.8,0.3-1.5,0.7-2.2,1c-0.1,0.1-0.2,0.3-0.2,0.4c0,0.6,0,1.3,0,1.9
		C32.4,81.8,33.2,80.7,33.1,78.9z M81,82.2c1.9-0.5,2.8-1.7,2.4-3.3c-0.7,0.3-1.5,0.6-2.2,1c-0.1,0.1-0.2,0.3-0.2,0.4
		C81,80.9,81,81.6,81,82.2z M35.7,68.8c-0.4,1.6,0.6,2.9,2.4,3.3c0-0.6,0-1.3,0-1.9c0-0.2-0.1-0.4-0.2-0.4
		C37.2,69.5,36.5,69.2,35.7,68.8z M38.1,77.2c0-0.7,0-1.3,0-1.9c0-0.1-0.1-0.3-0.2-0.4c-0.7-0.3-1.4-0.7-2.2-1
		C35.5,75.6,36.2,76.6,38.1,77.2z M38.1,67.1c0-0.7,0-1.3,0-2c0-0.1-0.1-0.3-0.2-0.3c-0.8-0.4-1.5-0.7-2.3-1
		C35.5,65.6,36.1,66.5,38.1,67.1z M38.1,82.3c0-0.7,0-1.4,0-2c0-0.1-0.1-0.3-0.1-0.3c-0.8-0.4-1.5-0.7-2.3-1
		C35.5,80.7,36.1,81.5,38.1,82.3z M55.8,67.1c1.9-0.5,2.7-1.6,2.4-3.3c-0.7,0.3-1.5,0.6-2.2,1c-0.1,0.1-0.2,0.3-0.2,0.4
		C55.8,65.8,55.8,66.4,55.8,67.1z M55.9,72.1c2-0.7,2.7-1.6,2.4-3.3c-2.3,0.7-2.6,1-2.4,3.2C55.8,72.1,55.8,72.1,55.9,72.1z
		 M55.8,77.2c1.9-0.4,2.8-1.7,2.4-3.3c-0.7,0.3-1.4,0.6-2.1,0.9c-0.1,0.1-0.3,0.2-0.3,0.4C55.8,75.8,55.8,76.5,55.8,77.2z
		 M55.9,82.2c2-0.7,2.7-1.6,2.4-3.3c-2.3,0.7-2.6,1-2.4,3.2C55.8,82.1,55.8,82.2,55.9,82.2z"/>
</g>
</svg>
