<?xml version="1.0" encoding="utf-8"?>
<!-- Generator: Adobe Illustrator 18.0.0, SVG Export Plug-In . SVG Version: 6.00 Build 0)  -->
<!DOCTYPE svg PUBLIC "-//W3C//DTD SVG 1.1//EN" "http://www.w3.org/Graphics/SVG/1.1/DTD/svg11.dtd">
<svg version="1.1" id="Слой_1" xmlns="http://www.w3.org/2000/svg" xmlns:xlink="http://www.w3.org/1999/xlink" x="0px" y="0px"
	 width="79px" height="92.5px" viewBox="5.2 0 79 92.5" enable-background="new 5.2 0 79 92.5" xml:space="preserve">
<g>
	<path fill="#182783" d="M66.4,17.6c0,1.3,0,2.5,0,3.7c0.1,0,0.1,0,0.2,0c1.4-0.9,2.9-1.2,4.5-1.2c1.8,0,3.6,0,5.3,0
		c0.7,4.1-2.2,7.3-5.6,7.6c-1.3,0.1-2.5,0.1-3.8,0c-0.5,0-0.7,0.1-0.7,0.7c0,1.7,0,3.4,0,5.2c0,0.2,0,0.4,0,0.6
		c10.6,0.9,18,11.6,14.3,22.1c0.2,0.1,0.3,0.2,0.5,0.3c3.3,1.9,4,6.2,1.4,8.9c-2.7,2.8-5.4,5.5-8.2,8.2c-2.7,2.5-5.9,3.7-9.6,3.7
		c-8.3,0-16.5,0-24.8,0c-2.6,0-4.9,0.7-7,2.2c-1.5,1.1-3,2.1-4.5,3.2c-0.3,0.2-0.5,0.5-0.5,0.9c0,0.8,0,1.7,0,2.6
		c-5.9,0-11.8,0-17.8,0c0-9.3,0-18.6,0-28c1,0,2.1,0,3.2,0c-4.9-4.1-7-9.1-5.3-15.2c1.7-6.1,6-9.3,12.2-10.3c0-0.4,0-0.8,0-1.3
		c-1,0-2,0-3.1,0c-0.9,0-1.8-0.1-2.6-0.3c-2.7-0.8-4.4-3.2-4.5-6c0-0.4,0-0.9,0-1.4c0.4,0,0.7,0,1.1,0c1.7,0,3.5,0,5.2,0
		c1.4,0,2.6,0.5,3.9,1.3c0-1.3,0-2.5,0-3.8c-1,0-2,0-2.9,0c-1.8-0.1-3.6,0.1-5.3-0.2c-4.5-0.8-7.6-5.1-7-9.9c0.1,0,0.2-0.1,0.2-0.1
		c3,0,6.1,0,9.1,0c2.2,0,4.2,1,5.8,2.6c0.1,0.1,0.2,0.2,0.3,0.4c0.1-0.2,0.1-0.3,0.2-0.4c1.3-3.9,4.4-6.3,8.5-6.4
		c2.9-0.1,5.8,0,8.6,0c0.1,0,0.2,0,0.3,0c0.7,3.1-1.1,6.9-4,8.8c-1.5,1-3.1,1.4-4.9,1.4c-1.8,0-3.6,0-5.4,0c-0.2,0-0.5,0-0.8,0
		c0,1.7,0,3.4,0,5.1c0.2-0.2,0.3-0.3,0.5-0.4c1.5-1.3,3.2-2.1,5.1-2.1c3.2-0.1,6.4,0,9.6,0c0.2,2.7-0.4,5-2.1,7.1
		c-1.8,2-4,3.1-6.7,3.1c-2.1,0-4.2,0-6.4,0c0,0.8,0,1.6,0,2.3c0,0.1,0.4,0.3,0.6,0.4c5.5,0.7,10.2,4.9,11.7,10.3
		c1.6,6-0.9,12.2-6.2,15.5c-1.1,0.7-1.1,0.7-0.9,2.1c0.5-0.3,0.9-0.6,1.3-0.9c1.8-1.3,3.5-2.6,5.7-3.3c3.8-1.3,7.6-1.2,11.3,0.3
		c1.1,0.4,2.2,0.9,3.2,1.4c0.2,0.1,0.5,0.2,0.8,0.3C44.6,47.6,52.4,35,63.7,34.2c0-0.8,0-1.6,0-2.6c-1.2,0-2.4,0-3.6,0
		c-2.3,0-4.2-1-5.5-2.9c-0.9-1.4-1.1-3-1-4.6c0,0,0.1-0.1,0.1-0.1c2.2,0,4.5-0.1,6.7,0c1.1,0.1,2.2,0.6,3.3,0.9c0-1.1,0-2.3,0-3.5
		c-0.5,0-0.9,0-1.3,0c-1.9,0-3.8,0.1-5.7-0.1c-4.5-0.3-8.1-4.1-8.2-8.6c0-0.5,0-1,0-1.5c0.1,0,0.2-0.1,0.3-0.1c3,0,6.1,0,9.1,0
		c2.2,0,4.1,1,5.7,2.4c0.1,0.1,0.2,0.2,0.3,0.3c0,0,0.1,0,0.1,0c0.9-2.9,2.7-5,5.5-6.1c1-0.4,2-0.5,3-0.6c2.9-0.1,5.7,0,8.6,0
		c0.1,0,0.2,0,0.4,0c0.1,1.5,0,3-0.6,4.4c-1.5,3.5-4.1,5.5-8,5.7c-1.9,0.1-3.9,0-5.8,0C66.9,17.6,66.7,17.6,66.4,17.6z M39.6,67.3
		c0.3,0,0.6,0,0.8,0c6.8,0,13.7,0,20.5,0c1.6,0,2.8-1.1,2.8-2.6c0-1.5-1.2-2.5-2.8-2.5c-1.9,0-3.7,0-5.6,0c-2.3,0-4.4-0.4-6.5-1.4
		c-1-0.5-2.1-0.9-3.1-1.3c-4.7-1.9-9.1-1.4-13.2,1.4c-1.3,0.9-2.6,1.9-3.9,2.8c-0.4,0.3-0.5,0.6-0.5,1.1c0,4.8,0,9.7,0,14.5
		c0,0.2,0,0.4,0,0.7c1.2-0.8,2.2-1.6,3.3-2.3c2.6-1.9,5.5-2.8,8.8-2.8c8.2,0,16.3,0,24.5,0c3.3,0,6.1-1.2,8.4-3.5
		c1.4-1.4,2.8-2.8,4.2-4.2c1.1-1.1,2.3-2.2,3.4-3.4c1.6-1.7,1-4.4-1.1-5.2c-0.1,0.2-0.2,0.4-0.4,0.6c-1.1,1.3-2,2.7-3.2,3.8
		c-2.8,2.6-6.1,3.9-9.9,4.2c-0.3,0-0.6,0.2-0.7,0.4c-1.1,1.5-2.7,2.3-4.6,2.2c-6.8,0-13.7,0-20.5,0c-0.2,0-0.5,0-0.7,0
		C39.6,68.9,39.6,68.1,39.6,67.3z M66.4,64.6c0.2,0,0.3,0,0.4,0c6.5-0.7,11.9-6.3,12.3-12.9c0.6-9.5-8-16.8-17.3-14.6
		c-9.7,2.3-13.9,14.2-7.8,22c0.2,0.2,0.6,0.4,0.9,0.5c0.8,0.1,1.6,0,2.4,0c2.2,0.1,4.4-0.4,6.6,0.6c0.2-0.5,0.1-0.8-0.5-1
		c-1.5-0.5-2.5-1.6-3-3c-0.2-0.5-0.2-1.1-0.3-1.7c0.9,0,1.7,0,2.5,0c0.2,1.2,0.7,2.2,2,2.4c1,0.2,2.1,0,3.2,0c0-0.9,0.1-1.8,0-2.7
		c-0.1-1.3-1-2.2-2.3-2.3c-0.2,0-0.5,0-0.7-0.1c-2.2-0.2-4.2-1.8-4.5-4c-0.2-2,0-4,0-6.2c1,0,2.1,0,3.1,0c0.4,0,0.6-0.1,0.6-0.6
		c0-0.6,0-1.3,0-1.9c0.9,0,1.7,0,2.5,0c0,0.7,0,1.3,0,1.9c0,0.5,0.1,0.8,0.7,1c2,0.8,3.3,2.8,3.1,4.7c-0.8,0-1.6,0-2.4,0
		c-0.2-1.3-0.8-2.3-2.1-2.4c-1-0.1-2,0-3,0c0,0.7,0,1.4,0,2.2c0,1.8,1,2.8,2.8,2.9c2.3,0.1,4.4,1.7,4.7,4c0.2,2,0.1,4.1,0.1,6.2
		c-1.2,0-2.4,0-3.7,0C66.4,61.4,66.4,63,66.4,64.6z M21.8,58.3c6.3,0,11.5-5.1,11.5-11.4c0-6.3-5.2-11.5-11.5-11.5
		c-6.3,0-11.4,5.1-11.4,11.5C10.3,53.2,15.4,58.3,21.8,58.3z M25.5,61c-2.6,0-5.1,0-7.6,0c0,5.9,0,11.8,0,17.7c-0.9,0-1.7,0-2.5,0
		c0-5.9,0-11.8,0-17.7c-0.9,0-1.7,0-2.5,0c0,7.6,0,15.2,0,22.8c0.8,0,1.6,0,2.5,0c0-0.9,0-1.7,0-2.5c0.9,0,1.7,0,2.5,0
		c0,0.9,0,1.7,0,2.5c0.9,0,1.7,0,2.6,0c0-5.1,0-10.1,0-15.2c0.9,0,1.7,0,2.5,0c0,5.1,0,10.2,0,15.2c0.9,0,1.7,0,2.5,0
		C25.5,76.2,25.5,68.6,25.5,61z M63.6,18.8c0-0.2,0-0.4-0.1-0.5c-0.8-2.5-2.5-4.1-5.1-4.4c-2.1-0.3-4.2-0.1-6.3-0.1
		c-0.3,0-0.6,0-0.9,0c0.4,2.5,2.6,4.8,5.2,5c2.2,0.2,4.4,0.1,6.6,0.1C63.2,18.9,63.3,18.9,63.6,18.8z M35.6,10c-2.2,0-4.4-0.1-6.6,0
		c-2.4,0.1-4.2,1.4-5.3,3.5c-0.2,0.4-0.4,0.9-0.6,1.5c0.3,0,0.4,0.1,0.6,0.1c1.9,0,3.8,0,5.6,0c0.6,0,1.2-0.1,1.7-0.2
		C33.4,14.2,35.3,12.1,35.6,10z M78.9,10c-2.2,0-4.4-0.1-6.6,0c-2.6,0.2-4.5,1.6-5.5,4.1c-0.1,0.3-0.2,0.6-0.3,0.9
		c0.2,0,0.2,0.1,0.3,0.1c2,0,4.1,0.1,6.1,0C75.9,14.9,78.4,12.8,78.9,10z M20.3,18.8c-0.4-2.4-2.6-4.6-5.2-4.9
		c-1.9-0.2-3.8-0.1-5.7-0.1c-0.5,0-1,0-1.5,0c0.3,2.4,2.6,4.8,5.1,5C15.4,18.9,17.8,18.8,20.3,18.8z M23.2,27.8c2.2,0,4.3,0,6.4,0
		c2.6-0.1,4.8-1.7,5.7-4.2c0.1-0.3,0.2-0.5,0.2-0.9c-2.4,0-4.7-0.1-6.9,0C26,22.9,23.6,25.2,23.2,27.8z M56.4,26.5
		c0.6,1.3,1.5,2.3,2.8,2.4c1.4,0.2,2.9,0,4.3,0c-0.3-1.3-1.7-2.4-3.2-2.4C59,26.5,57.7,26.5,56.4,26.5z M73.7,22.7
		c-1.4,0-2.8-0.1-4.1,0c-1.4,0.1-2.6,1.2-2.9,2.4c1.5,0,2.9,0.1,4.4,0C72.3,24.9,73.2,24,73.7,22.7z M13.1,26.5
		c0.3,1.1,1.3,2.2,2.5,2.3c1.5,0.2,3,0.2,4.7,0.2c-0.6-1.5-1.7-2.4-3.1-2.6C15.9,26.4,14.5,26.5,13.1,26.5z"/>
	<path fill="#182783" d="M56.1,51.9c-0.8,0-1.6,0-2.4,0c0-0.8,0-1.6,0-2.4c0.8,0,1.6,0,2.4,0C56.1,50.3,56.1,51.1,56.1,51.9z"/>
	<path fill="#182783" d="M74,49.5c0.8,0,1.6,0,2.4,0c0,0.8,0,1.6,0,2.4c-0.8,0-1.6,0-2.4,0C74,51.1,74,50.3,74,49.5z"/>
	<path fill="#182783" d="M23.1,44.3c-0.5-1.2-0.9-1.4-2.6-1.1c0,0.2,0,0.5,0,0.7c0,1.3,0.3,1.7,1.6,1.8c1.8,0.2,3.3,1.7,3.4,3.5
		c0,0.8,0,1.6,0,2.4c0,0.5,0,1.1,0,1.7c-0.8,0-1.6,0-2.5,0c0,0.9,0,1.7,0,2.5c-0.9,0-1.7,0-2.5,0c0-0.8,0-1.5,0-2.2
		c0-0.4-0.1-0.6-0.5-0.8c-1.3-0.7-2-1.8-2.1-3.4c0.4,0,0.8,0,1.2,0c0.4,0,0.8,0,1.2,0c0.7,1.3,1.1,1.5,2.7,1.2c0-0.4,0-0.9,0-1.3
		c-0.1-0.7-0.5-1-1.2-1.1c-2.7-0.3-3.8-1.7-3.8-4.4c0-1.1,0-2.1,0-3.2c0.9,0,1.7,0,2.5,0c0-0.9,0-1.7,0-2.6c0.8,0,1.5,0,2.2,0
		c0.1,0,0.3,0.2,0.3,0.4c0.1,0.2,0,0.4,0,0.5c-0.1,1.1,0,2,1.2,2.6c1,0.5,1.3,1.6,1.4,2.8C24.7,44.3,23.9,44.3,23.1,44.3z"/>
	<path fill="#182783" d="M30.6,48.1c-0.8,0-1.6,0-2.5,0c0-0.8,0-1.6,0-2.4c0.8,0,1.6,0,2.5,0C30.6,46.5,30.6,47.3,30.6,48.1z"/>
	<path fill="#182783" d="M12.9,45.7c0.8,0,1.6,0,2.4,0c0,0.8,0,1.6,0,2.4c-0.8,0-1.6,0-2.4,0C12.9,47.3,12.9,46.5,12.9,45.7z"/>
	<path fill="#182783" d="M20.5,66c0-0.9,0-1.6,0-2.5c0.8,0,1.6,0,2.5,0c0,0.7,0,1.4,0,2.2c0,0.1-0.2,0.3-0.3,0.3
		C22,66,21.3,66,20.5,66z"/>
</g>
</svg>
