<?xml version="1.0" encoding="utf-8"?>
<!-- Generator: Adobe Illustrator 18.0.0, SVG Export Plug-In . SVG Version: 6.00 Build 0)  -->
<!DOCTYPE svg PUBLIC "-//W3C//DTD SVG 1.1//EN" "http://www.w3.org/Graphics/SVG/1.1/DTD/svg11.dtd">
<svg version="1.1" id="Слой_1" xmlns="http://www.w3.org/2000/svg" xmlns:xlink="http://www.w3.org/1999/xlink" x="0px" y="0px"
	 width="100px" height="100px" viewBox="5.4 8.7 100 100" enable-background="new 5.4 8.7 100 100" xml:space="preserve">
<g>
	<g>
		<g>
			<path fill="#A8C3E9" d="M55.3,106.1C29.2,106.1,8,84.8,8,58.7s21.2-47.4,47.4-47.4s47.4,21.2,47.4,47.4S81.4,106.1,55.3,106.1z
				 M55.3,18.1c-22.4,0-40.6,18.2-40.6,40.6s18.2,40.6,40.6,40.6S96,81.1,96,58.7S77.7,18.1,55.3,18.1z"/>
		</g>
	</g>
	<g>
		<path fill="#A8C4E6" d="M48.4,49.4c-0.2,0-0.5,0-0.7-0.1c-0.8-0.2-1.2-0.9-1.2-1.7c0.1-0.7,0.6-1.3,1.4-1.4c0.2,0,0.3,0,0.5,0
			c4.6,0,9.3,0,13.9,0c0.3,0,0.5,0,0.8,0.1c0.7,0.2,1.2,0.9,1.1,1.7c-0.1,0.7-0.7,1.3-1.5,1.4c-0.1,0-0.2,0-0.4,0l-0.1,0.1
			c0.1,0.1,0.2,0.1,0.3,0.2c2.7,2.5,5.2,5.3,7.2,8.4c1.4,2.3,2.6,4.7,3.1,7.3c0.5,2.5,0.3,4.9-0.8,7.1c-0.9,1.7-2.2,3-3.8,4
			c-2.2,1.4-4.7,2.2-7.3,2.6c-4.6,0.8-9.2,0.6-13.7-0.6c-2.2-0.5-4.2-1.4-6-2.9c-1.9-1.6-3.1-3.6-3.4-6c-0.4-2.5,0.1-4.9,1-7.3
			c1.2-3.1,3.1-5.8,5.2-8.3c1.3-1.5,2.8-2.9,4.2-4.3C48.3,49.6,48.4,49.5,48.4,49.4C48.4,49.5,48.4,49.4,48.4,49.4z M64.6,64.1
			c0-5.1-4.1-9.3-9.3-9.3c-5.1,0-9.3,4.1-9.3,9.3s4.2,9.3,9.3,9.3C60.5,73.4,64.6,69.3,64.6,64.1z"/>
		<path fill="#A8C4E6" d="M62.9,44.6c-5.1,0-10.1,0-15.2,0c-0.2-0.6-0.4-1.2-0.5-1.8c-0.3-1.1-0.6-2.1-0.9-3.2
			c-0.2-0.6-0.1-1,0.3-1.3c0.4-0.3,0.9-0.3,1.4,0c1.1,0.8,2.3,1.1,3.6,0.8c0.5-0.1,0.9-0.4,1.3-0.7c1.4-1.1,3.4-1.1,4.9,0
			c1.4,1.1,3.4,1.1,4.8,0c0.2-0.1,0.4-0.3,0.6-0.3c0.8-0.2,1.5,0.6,1.2,1.4c-0.3,1.1-0.7,2.3-1,3.4C63.3,43.5,63.1,44,62.9,44.6z"/>
		<path fill="#A8C4E6" d="M56.3,69.7c0,0.3,0,0.5,0,0.8c-0.6,0-1.2,0-1.9,0c0-0.2,0-0.4,0-0.6c-0.5-0.1-1-0.2-1.6-0.2
			c-0.2,0-0.4-0.1-0.6-0.2c-0.4-0.1-0.7-0.4-0.7-0.8c-0.1-0.5-0.1-1,0-1.5c0.1-0.6,0.7-0.8,1.2-0.5c0.7,0.4,1.5,0.6,2.3,0.5
			c0.3,0,0.5-0.1,0.8-0.2c0.4-0.2,0.5-0.6,0.1-0.8c-0.3-0.2-0.6-0.4-1-0.6c-0.6-0.3-1.2-0.5-1.7-0.8c-0.8-0.4-1.4-1.1-1.6-2
			c-0.5-1.7,0.3-3.4,2.1-4c0.2-0.1,0.5-0.2,0.8-0.3c0-0.3,0-0.5,0-0.8c0.6,0,1.3,0,1.9,0c0,0.2,0,0.4,0,0.6c0.5,0.1,1,0.1,1.4,0.2
			c0.8,0.1,1.1,0.6,1.1,1.3c0,0.2,0,0.4,0,0.6c0,0.7-0.5,1.1-1.2,0.8s-1.4-0.4-2.1-0.3l0,0c-0.3,0.1-0.7,0.1-0.8,0.5
			s0.3,0.6,0.5,0.7c0.4,0.2,0.8,0.4,1.2,0.6c0.5,0.3,1.1,0.5,1.6,0.9c1.1,0.8,1.4,1.9,1.2,3.2c-0.2,1.2-0.9,2-2,2.4
			C57,69.6,56.7,69.6,56.3,69.7z"/>
	</g>
</g>
</svg>
