<?xml version="1.0" encoding="utf-8"?>
<!-- Generator: Adobe Illustrator 18.0.0, SVG Export Plug-In . SVG Version: 6.00 Build 0)  -->
<!DOCTYPE svg PUBLIC "-//W3C//DTD SVG 1.1//EN" "http://www.w3.org/Graphics/SVG/1.1/DTD/svg11.dtd">
<svg version="1.1" id="Слой_1" xmlns="http://www.w3.org/2000/svg" xmlns:xlink="http://www.w3.org/1999/xlink" x="0px" y="0px"
	 width="41px" height="53px" viewBox="9.7 8.5 41 53" enable-background="new 9.7 8.5 41 53" xml:space="preserve">
<g>
	<path fill="#FFFFFF" d="M45.6,30.6c0,4.1,0,8.2,0,12.3c0,0.3,0.1,0.5,0.4,0.7c3.3,2.2,5,6.1,4.2,10c-0.8,3.7-3.9,6.7-7.7,7.3
		c-3.8,0.7-7.7-1.1-9.7-4.5C32.6,56.1,32.3,56,32,56c-5.6,0.6-11,0.2-16.1-2.2c-1.5-0.7-2.8-1.6-3.9-2.8c-1.2-1.3-1.8-2.8-1.8-4.5
		c0-9.1,0-18.2,0-27.3c0-2.6,1-4.5,2.9-6c2.2-1.7,4.7-2.7,7.4-3.3c5.8-1.3,11.6-1.2,17.4,0.7c1.8,0.6,3.5,1.4,5,2.7
		c1.5,1.2,2.6,2.6,2.8,4.5c0,0.3,0,0.6,0,0.9C45.6,22.6,45.6,26.6,45.6,30.6z M28,11.3c-3.3,0-6.4,0.4-9.4,1.5
		c-1.4,0.5-2.8,1.2-4,2.1c-2.8,2.2-2.8,4.8,0,7c0.8,0.6,1.7,1.1,2.6,1.6c2.4,1.1,4.9,1.6,7.5,1.9c4,0.4,8,0.1,11.9-1.1
		c2-0.6,3.9-1.5,5.4-3.1c1.7-1.8,1.7-3.6,0-5.4c-0.3-0.3-0.6-0.6-1-0.9c-0.9-0.6-1.8-1.1-2.7-1.6C35,11.8,31.5,11.3,28,11.3z
		 M12.5,23.2c0,0.6,0,1.2,0,1.7c-0.1,1.4,0.5,2.6,1.5,3.5c1.1,1,2.3,1.7,3.7,2.3c6.2,2.4,12.4,2.5,18.7,0.6c2-0.6,3.7-1.5,5.3-2.8
		c1.7-1.4,1.7-3.3,1.5-5.2c-0.6,0.5-1.3,0.9-1.9,1.3c-0.7,0.4-1.3,0.8-2.1,1.1c-3,1.3-6.2,1.9-9.4,2.1c-3.9,0.2-7.7-0.2-11.5-1.4
		C16.2,25.8,14.3,24.8,12.5,23.2z M43.2,30.4c-1.7,1.5-3.7,2.5-5.7,3.2c-5.3,1.7-10.7,1.9-16.2,0.8c-2.7-0.5-5.3-1.4-7.6-3
		c-0.4-0.3-0.8-0.6-1.3-1c0,0.6,0,1.1,0,1.6c-0.1,1.5,0.5,2.7,1.6,3.7c1.1,1,2.3,1.7,3.6,2.2c2.7,1.1,5.6,1.7,8.5,1.8
		c3.9,0.2,7.8-0.2,11.5-1.6c1.6-0.6,3.2-1.4,4.4-2.7c0.6-0.7,1.1-1.4,1.2-2.4C43.3,32.1,43.2,31.3,43.2,30.4z M40.9,44.5
		c-3.9,0-7.1,3.2-7.1,7.1c0,3.9,3.2,7.1,7.1,7.1c3.9,0,7.1-3.1,7.1-7C48,47.7,44.9,44.5,40.9,44.5z M43.3,37.4
		c-1.6,1.4-3.3,2.3-5.2,3c-5.8,2-11.7,2.2-17.6,0.8c-2.9-0.7-5.6-1.8-7.9-3.7c0,0-0.1,0-0.1,0c0,0.5,0,1,0,1.5
		c-0.1,1.5,0.5,2.7,1.6,3.7c1,1,2.3,1.6,3.6,2.2c4.8,1.9,9.8,2.2,14.8,1.5c0.4,0,0.6-0.2,0.8-0.5c2.2-2.8,5.1-4.1,8.6-3.9
		c0.1,0,0.3,0,0.4-0.1c0.5-0.6,0.9-1.3,0.9-2.1C43.3,39.1,43.3,38.3,43.3,37.4z M12.5,44.6c0,0.6,0,1.1,0,1.7
		c-0.1,1.5,0.5,2.7,1.6,3.7c1,1,2.3,1.6,3.6,2.2c3.8,1.6,7.8,2,11.9,1.8c0.7,0,1.4-0.1,2.1-0.2c-0.4-1.6-0.3-3.2,0.1-4.7
		c-0.8,0.1-1.5,0.1-2.1,0.2c-4.4,0.2-8.8-0.3-12.9-2C15.2,46.5,13.8,45.7,12.5,44.6z"/>
	<path fill="#FFFFFF" d="M40.1,53.5c1.1-1.4,2.2-2.7,3.3-4.1c0.2-0.3,0.5-0.6,0.7-0.9c0.5-0.6,1.2-0.7,1.7-0.2
		c0.5,0.4,0.6,1.1,0.1,1.7c-1,1.2-2,2.5-3,3.7c-0.5,0.7-1.1,1.4-1.6,2c-0.5,0.7-1.1,0.7-1.8,0.2c-1.3-0.9-2.6-1.9-3.9-2.8
		c-0.6-0.4-0.8-1.1-0.3-1.7c0.4-0.5,1.1-0.6,1.7-0.2c0.5,0.4,1,0.7,1.6,1.1C39,52.7,39.5,53.1,40.1,53.5z"/>
</g>
</svg>
