<?xml version="1.0" encoding="utf-8"?>
<!-- Generator: Adobe Illustrator 18.0.0, SVG Export Plug-In . SVG Version: 6.00 Build 0)  -->
<!DOCTYPE svg PUBLIC "-//W3C//DTD SVG 1.1//EN" "http://www.w3.org/Graphics/SVG/1.1/DTD/svg11.dtd">
<svg version="1.1" id="Слой_1" xmlns="http://www.w3.org/2000/svg" xmlns:xlink="http://www.w3.org/1999/xlink" x="0px" y="0px"
	 width="73px" height="73px" viewBox="10.3 7.4 73 73" enable-background="new 10.3 7.4 73 73" xml:space="preserve">
<g>
	<g>
		<g>
			<path fill="#FFFFFF" d="M38.8,40c1-0.1,2-0.1,3-0.2c0.1,1,0.1,2,0.2,3c0.3,4.7,0.5,9.4,0.8,14.1c0.1,1.9,0.2,3.7,0.3,5.6
				c0,0.2,0,0.5,0,0.7c0.1,0.7,0.5,1.1,1.2,1.1c1.3,0,2.5,0,3.8,0c0.7,0,1.2-0.4,1.2-1.1c0.1-1.3,0.2-2.6,0.2-3.8
				c0.3-4.7,0.5-9.4,0.8-14.1c0.1-1.8,0.2-3.6,0.3-5.4c1,0.1,1.9,0.1,2.9,0.2c0,0.3,0,0.7,0,1c-0.2,3.6-0.4,7.2-0.6,10.8
				c-0.2,3.9-0.4,7.7-0.7,11.6c-0.1,2.1-1.7,3.8-3.7,4c-1.6,0.1-3.3,0.1-4.9,0c-2-0.2-3.5-1.9-3.6-4c-0.3-6.2-0.7-12.3-1-18.5
				C39,43.2,38.9,41.6,38.8,40z"/>
			<path fill="#FFFFFF" d="M35.8,45.9c-1,0-2,0-3,0c0-0.1,0-0.2,0-0.3c0-3.1,0-6.2,0-9.2c0-2.1,1.3-3.7,3.2-4.1
				c0.3-0.1,0.7-0.1,1-0.1c6.1,0,12.2,0,18.4,0c2.5,0,4.2,1.7,4.2,4.3c0,3,0,6,0,9c0,0.1,0,0.3,0,0.5c-1,0-2,0-3,0
				c0-0.2,0-0.3,0-0.5c0-3,0-5.9,0-8.9c0-0.9-0.3-1.3-1.3-1.3c-6.1,0-12.2,0-18.3,0c-0.9,0-1.3,0.3-1.3,1.3c0,2.9,0,5.9,0,8.8
				C35.8,45.6,35.8,45.7,35.8,45.9z"/>
			<path fill="#FFFFFF" d="M46,30.5c-3.5,0-6.3-2.9-6.3-6.5c0-3.6,2.8-6.5,6.3-6.5c3.5,0,6.3,2.9,6.3,6.5
				C52.3,27.5,49.5,30.5,46,30.5z M46,20.6c-1.8,0-3.3,1.5-3.3,3.4c0,1.9,1.5,3.4,3.3,3.4c1.8,0,3.3-1.5,3.3-3.4
				C49.3,22.1,47.8,20.6,46,20.6z"/>
			<path fill="#FFFFFF" d="M64.2,22.1c2.6,0,4.8,2.2,4.8,4.9c0,2.7-2.2,4.9-4.8,4.9c-2.6,0-4.8-2.2-4.8-4.9
				C59.4,24.3,61.6,22.1,64.2,22.1z M62.4,27c0,1,0.8,1.8,1.8,1.8c1,0,1.8-0.8,1.8-1.8c0-1-0.8-1.8-1.8-1.8
				C63.2,25.2,62.4,26,62.4,27z"/>
			<path fill="#FFFFFF" d="M28.2,22.1c2.6,0,4.8,2.2,4.8,4.9c0,2.7-2.2,4.9-4.8,4.9c-2.6,0-4.8-2.2-4.8-4.9
				C23.4,24.3,25.6,22.1,28.2,22.1z M30,27c0-1-0.8-1.8-1.8-1.8c-1,0-1.8,0.8-1.8,1.8c0,1,0.8,1.8,1.8,1.8C29.2,28.9,30,28.1,30,27z
				"/>
			<path fill="#FFFFFF" d="M30.4,33.4c0,1,0,2,0,3.1c-0.2,0-0.3,0-0.5,0c-1.9,0-3.8,0-5.8,0c-0.8,0-1.1,0.3-1.1,1.1
				c0,1.2,0,2.5,0,3.7c0,0.4-0.1,0.5-0.5,0.5c-0.8,0-1.7,0-2.6,0c0-0.3,0-0.6,0-0.9c0-1.4-0.1-2.7,0.1-4.1c0.2-1.9,1.7-3.3,3.6-3.4
				C25.9,33.4,28.1,33.4,30.4,33.4z"/>
			<path fill="#FFFFFF" d="M62,36.5c0-0.1,0-0.2,0-0.3c0-0.9,0-1.8,0-2.8c0.2,0,0.4,0,0.5,0c1.9,0,3.9,0,5.8,0
				c2.4,0,4.1,1.7,4.1,4.2c0,1.2,0,2.5,0,3.7c0,0.2,0,0.3,0,0.5c-1,0-1.9,0-2.8,0c-0.1,0-0.2-0.2-0.2-0.4c0-1.3,0-2.5,0-3.8
				c0-0.8-0.3-1.1-1.1-1.1c-1.9,0-3.8,0-5.8,0C62.4,36.5,62.2,36.5,62,36.5z"/>
		</g>
	</g>
	<g>
		<g>
			<path fill="#FFFFFF" d="M71.5,54.9c0,0.9,0,1.7,0,2.6c0.4,0.1,0.8,0.1,1.2,0.2c0.4,0.1,0.8,0.2,1.2,0.3c1.2,0.4,1.6,0.9,1.4,1.7
				c-0.3,1.3-1.6,2.1-3.7,2.2c0,0-0.1,0-0.1,0c0,0.4,0,0.8,0,1.2c-0.7,0-1.3,0-1.9,0c0-0.4,0-0.8,0-1.3c-1.4-0.2-2.5-0.6-3.2-1.3
				c-0.4-0.5-0.7-1-0.6-1.5c0.6,0,1.2,0,1.8,0c0.1,0,0.1,0.1,0.1,0.1c0.1,0.7,0.8,1.3,1.9,1.5c0-0.7,0-1.3,0-2
				c-0.5-0.1-1-0.2-1.5-0.3c-1-0.2-1.8-0.6-2.2-1.3c-0.5-1,0-2,1.4-2.7c0.6-0.3,1.3-0.5,2-0.6c0.2,0,0.3-0.1,0.3-0.2
				c0-0.3,0-0.6,0-0.9c0.6,0,1.3,0,1.9,0c0,0.3,0,0.7,0,1c1.3,0.1,2.3,0.6,3,1.2c0.6,0.6,0.9,1.2,1,1.8c-0.6,0-1.3,0.1-1.9,0.1
				C73.3,56,72.9,55.3,71.5,54.9z M69.5,57.4c0-0.8,0-1.6,0-2.4c-0.7,0-1.6,0.5-1.8,0.9c-0.3,0.6,0,1,0.8,1.2
				C68.8,57.2,69.1,57.3,69.5,57.4z M71.5,60.7c1.2-0.1,2-0.7,1.9-1.5c0-0.1-0.1-0.1-0.1-0.2c-0.5-0.2-1.1-0.3-1.7-0.4
				C71.5,59.4,71.5,60,71.5,60.7z"/>
		</g>
	</g>
	<g>
		<path fill="#FFFFFF" d="M70.5,70.3c-6.9,0-12.5-5.6-12.5-12.5s5.6-12.5,12.5-12.5S83,50.9,83,57.8S77.3,70.3,70.5,70.3z M70.5,48
			c-5.4,0-9.9,4.4-9.9,9.9s4.4,9.9,9.9,9.9s9.9-4.4,9.9-9.9C80.3,52.4,75.9,48,70.5,48z"/>
	</g>
	<g>
		<g>
			<path fill="#FFFFFF" d="M24.2,54.9c0,0.9,0,1.7,0,2.6c0.4,0.1,0.8,0.1,1.2,0.2c0.4,0.1,0.8,0.2,1.2,0.3c1.2,0.4,1.6,0.9,1.4,1.7
				c-0.3,1.3-1.6,2.1-3.7,2.2c0,0-0.1,0-0.1,0c0,0.4,0,0.8,0,1.2c-0.7,0-1.3,0-1.9,0c0-0.4,0-0.8,0-1.3c-1.4-0.2-2.5-0.6-3.2-1.3
				c-0.4-0.5-0.7-1-0.6-1.5c0.6,0,1.2,0,1.8,0c0.1,0,0.1,0.1,0.1,0.1c0.1,0.7,0.8,1.3,1.9,1.5c0-0.7,0-1.3,0-2
				c-0.5-0.1-1-0.2-1.5-0.3c-1-0.2-1.8-0.6-2.2-1.3c-0.5-1,0-2,1.4-2.7c0.6-0.3,1.3-0.5,2-0.6c0.2,0,0.3-0.1,0.3-0.2
				c0-0.3,0-0.6,0-0.9c0.6,0,1.3,0,1.9,0c0,0.3,0,0.7,0,1c1.3,0.1,2.3,0.6,3,1.2c0.6,0.6,0.9,1.2,1,1.8c-0.6,0-1.3,0.1-1.9,0.1
				C26,56,25.6,55.3,24.2,54.9z M22.2,57.4c0-0.8,0-1.6,0-2.4c-0.7,0-1.6,0.5-1.8,0.9c-0.3,0.6,0,1,0.8,1.2
				C21.6,57.2,21.9,57.3,22.2,57.4z M24.2,60.7c1.2-0.1,2-0.7,1.9-1.5c0-0.1-0.1-0.1-0.1-0.2c-0.5-0.2-1.1-0.3-1.7-0.4
				C24.2,59.4,24.2,60,24.2,60.7z"/>
		</g>
	</g>
	<g>
		<path fill="#FFFFFF" d="M23.2,70.3c-6.9,0-12.5-5.6-12.5-12.5s5.6-12.5,12.5-12.5s12.5,5.6,12.5,12.5S30.1,70.3,23.2,70.3z
			 M23.2,48c-5.4,0-9.9,4.4-9.9,9.9s4.4,9.9,9.9,9.9s9.9-4.4,9.9-9.9C33.1,52.4,28.6,48,23.2,48z"/>
	</g>
</g>
</svg>
