<?xml version="1.0" encoding="utf-8"?>
<!-- Generator: Adobe Illustrator 18.0.0, SVG Export Plug-In . SVG Version: 6.00 Build 0)  -->
<!DOCTYPE svg PUBLIC "-//W3C//DTD SVG 1.1//EN" "http://www.w3.org/Graphics/SVG/1.1/DTD/svg11.dtd">
<svg version="1.1" id="Слой_1" xmlns="http://www.w3.org/2000/svg" xmlns:xlink="http://www.w3.org/1999/xlink" x="0px" y="0px"
	 width="198.1px" height="198.1px" viewBox="4 5.6 198.1 198.1" enable-background="new 4 5.6 198.1 198.1" xml:space="preserve">
<linearGradient id="SVGID_1_" gradientUnits="userSpaceOnUse" x1="-641.3918" y1="258.3185" x2="-758.3046" y2="375.2312" gradientTransform="matrix(0.7071 0.7071 0.7071 -0.7071 373.8672 823.5231)">
	<stop  offset="0" style="stop-color:#08095D"/>
	<stop  offset="1" style="stop-color:#092BA3"/>
</linearGradient>
<path fill="url(#SVGID_1_)" stroke="#102771" stroke-width="5" stroke-miterlimit="10" d="M120.8,180c-9.8,9.8-25.8,9.8-35.7,0
	l-57.5-57.5c-9.8-9.8-9.8-25.8,0-35.7l57.5-57.5c9.8-9.8,25.8-9.8,35.7,0l57.5,57.5c9.8,9.8,9.8,25.8,0,35.7L120.8,180z"/>
<g opacity="0.15">
	<path fill="#FFFFFF" d="M103,203.7c-8.3,0-16-3.2-21.8-9.1L13,126.5c-12-12-12-31.7,0-43.7l68.1-68.1C87,8.8,94.7,5.6,103,5.6
		s16,3.2,21.8,9.1L193,82.8c12,12,12,31.7,0,43.7l-68.1,68.1C119,200.5,111.3,203.7,103,203.7z M103,7.6c-7.7,0-15,3-20.5,8.5
		L14.4,84.2c-11.3,11.3-11.3,29.6,0,40.9l68.1,68.1c5.5,5.5,12.7,8.5,20.5,8.5c7.7,0,15-3,20.5-8.5l68.1-68.1
		c11.3-11.3,11.3-29.6,0-40.9l-68.1-68.1C118,10.6,110.7,7.6,103,7.6z"/>
</g>
<g>
	<g>
		<path fill="#FFFFFF" d="M99.6,103.6c0.8,2.4,3.2,4.3,5.6,4.3c8.2,0,16.3,0,24.5,0c3.2,0,6-3,5.9-6.2c-0.1-3.2-2.9-5.9-6.2-5.9
			c-7.9,0-15.8,0-23.6,0c-3,0-5.3,1.6-6.2,4.4c-0.1,0.4-0.3,0.5-0.6,0.5c-0.8,0-1.7,0-2.5,0v2.4c0.8,0,1.6,0,2.4,0
			C99.3,103,99.5,103.1,99.6,103.6z M102,100.4c0.5-1.3,1.7-2.2,3.2-2.2c1.6,0,3.2,0,4.8,0c6.5,0,13,0,19.5,0c2.8,0,4.4,2.2,3.5,4.9
			c-0.5,1.4-1.7,2.4-3.3,2.4c-4.1,0-8.2,0-12.3,0c-4,0-8,0-12,0C102.4,105.4,101.2,102.8,102,100.4z"/>
		<path fill="#FFFFFF" d="M87.4,100.6c-0.5,0-1.1,0-1.6,0c-1,0-0.9,0.1-0.9-0.9c0-3.3-2.3-5.9-5.6-6.3c-0.1,0-0.3-0.1-0.4-0.1
			c1.8-3.2,1.5-6-1-8.1c-2.3-1.9-5.2-2-7.5-0.2c-2.6,2.1-3,4.8-1.2,8.3c-0.1,0-0.3,0.1-0.4,0.1c-2.7,0.1-5.8,2.8-5.7,6.5
			c0.1,2.1,0,4.2,0,6.3c0,1.4,0.3,1.7,1.7,1.7c1,0,2.1,0,3.1,0v0.8c0,3.3,0,6.5,0,9.8c0,1.1,0.4,1.6,1.6,1.6c3,0,6,0,9,0
			c1.1,0,1.5-0.4,1.5-1.5c0-3.3,0-6.5,0-9.8v-0.8c1.2,0,2.3,0,3.5,0c0.9,0,1.3-0.5,1.4-1.4c0-0.4,0-0.9,0-1.3V103h2.6L87.4,100.6
			L87.4,100.6z M73.9,86c2.1,0,3.6,1.5,3.6,3.6c0,2.2-1.4,3.6-3.6,3.6c-2.2,0-3.6-1.4-3.6-3.6C70.3,87.5,71.7,86,73.9,86z
			 M82.4,105.4H80v-6h-2.4v18.1h-2.4v-10.8h-2.4v10.8h-2.4V99.4h-2.4v6h-2.3c0-0.1-0.1-0.1-0.1-0.2c0-2.1-0.1-4.1,0-6.2
			c0.1-1.9,1.4-3.2,3.4-3.3c3.4,0,6.7,0,10.1,0c1.9,0,3.3,1.3,3.4,3.3C82.5,101.1,82.4,103.2,82.4,105.4z"/>
		<path fill="#FFFFFF" d="M96.4,72.7h3c0,0.1,0.1,0.1,0.1,0.2c1.2,3.3,3.2,4.7,6.7,4.7c7.6,0,15.2,0,22.8,0c0.5,0,0.9,0,1.4-0.1
			c2.7-0.3,5.2-2.9,5.3-5.7c0.1-3.4-2.7-6.4-6.1-6.4c-8,0-15.9,0-23.9,0c-2.7,0-5.1,1.7-5.9,4.2c-0.2,0.5-0.4,0.6-0.9,0.6
			c-0.8,0-1.6,0-2.4,0L96.4,72.7L96.4,72.7z M102,70.2c0.4-1.3,1.4-2,2.7-2.2c0.4-0.1,0.8-0.1,1.2-0.1c3.9,0,7.7,0,11.6,0
			c4,0,8,0,11.9,0c1.9,0,3.2,0.9,3.6,2.5c0.8,2.6-0.8,4.8-3.5,4.8c-8,0-16,0-24.1,0C102.3,75.1,101.3,72.4,102,70.2z"/>
		<path fill="#FFFFFF" d="M135.6,131.5c-0.3-2.9-3-5.4-6.1-5.4c-8,0-16.1,0-24.1,0c-1.5,0-2.9,0.6-4,1.6c-1,0.9-1.6,2-2,3.2h-3v2.5
			c0.8,0,1.7,0,2.5,0c0.4,0,0.6,0.1,0.7,0.5c0.9,2.7,3.2,4.4,6.1,4.4c7.9,0,15.8,0,23.6,0c0.4,0,0.8,0,1.2-0.1
			C133.7,137.4,135.9,134.5,135.6,131.5z M133.2,132.5c-0.2,1.8-1.3,3-3,3.1c-0.4,0-0.7,0-1.1,0c-3.9,0-7.7,0-11.6,0
			c-3.9,0-7.8,0-11.7,0c-0.5,0-1,0-1.4-0.1c-1.8-0.4-2.8-2-2.6-4c0.2-1.8,1.5-3,3.4-3.1c0.2,0,0.4,0,0.6,0c7.8,0,15.7,0,23.5,0
			c0.5,0,1,0,1.5,0.2C132.5,129.1,133.4,130.6,133.2,132.5z"/>
		<path fill="#FFFFFF" d="M111.5,103c0-0.8,0-1.5,0-2.3c0.8,0,1.5,0,2.3,0c0,0.8,0,1.5,0,2.3C113,103,112.3,103,111.5,103z"/>
		<path fill="#FFFFFF" d="M118.7,103c-0.8,0-1.5,0-2.3,0c0-0.8,0-1.5,0-2.3c0.8,0,1.5,0,2.3,0C118.7,101.4,118.7,102.1,118.7,103z"
			/>
		<path fill="#FFFFFF" d="M121.2,100.6c0.8,0,1.5,0,2.3,0c0,0.8,0,1.5,0,2.3c-0.8,0-1.5,0-2.3,0
			C121.2,102.2,121.2,101.4,121.2,100.6z"/>
		<path fill="#FFFFFF" d="M116.3,130.9c0.8,0,1.6,0,2.3,0c0,0.8,0,1.6,0,2.4c-0.8,0-1.5,0-2.3,0
			C116.3,132.5,116.3,131.7,116.3,130.9z"/>
		<path fill="#FFFFFF" d="M111.5,133.2c0-0.8,0-1.5,0-2.3c0.8,0,1.5,0,2.3,0c0,0.8,0,1.5,0,2.3C113.1,133.2,112.3,133.2,111.5,133.2
			z"/>
		<path fill="#FFFFFF" d="M123.5,130.9c0,0.8,0,1.6,0,2.4c-0.8,0-1.5,0-2.3,0c0-0.8,0-1.5,0-2.4
			C121.9,130.9,122.7,130.9,123.5,130.9z"/>
		<path fill="#FFFFFF" d="M118.7,72.7c-0.8,0-1.6,0-2.4,0c0-0.8,0-1.6,0-2.4c0.8,0,1.5,0,2.4,0C118.7,71.1,118.7,71.9,118.7,72.7z"
			/>
		<path fill="#FFFFFF" d="M113.8,72.7c-0.7,0-1.5,0-2.3,0c0-0.8,0-1.6,0-2.4c0.7,0,1.5,0,2.3,0C113.8,71.1,113.8,71.9,113.8,72.7z"
			/>
		<path fill="#FFFFFF" d="M121.2,70.3c0.8,0,1.5,0,2.3,0c0,0.8,0,1.6,0,2.4c-0.8,0-1.5,0-2.3,0C121.2,71.9,121.2,71.1,121.2,70.3z"
			/>
	</g>
	<g>
		<path fill="#5473D8" d="M93.6,130.8V103c1.9,0,3.7,0,5.5,0c-0.1-0.8,0-1.6,0.1-2.4c-1.7,0-3.4,0-5.1,0c-0.2,0-0.3,0-0.5-0.1V72.7
			h5.7c-0.1-0.8-0.1-1.7,0-2.5c-0.1,0-0.2,0-0.3,0c-2.1,0-4.1,0-6.2,0c-1.4,0-1.7,0.4-1.7,1.8v28.5h-0.8c-1.4,0-2.9,0-4.3,0
			c-0.7,0-0.9,0-0.9-0.2c0,0.9,0,1.8,0.1,2.7h6v0.9c0,9.3,0,18.5,0,27.8c0,1.2,0.4,1.6,1.6,1.6c2.2,0,4.3,0,6.5,0c0.1,0,0.1,0,0.1,0
			c-0.1-0.8-0.1-1.7,0-2.5L93.6,130.8L93.6,130.8z"/>
	</g>
</g>
</svg>
