<?xml version="1.0" encoding="utf-8"?>
<!-- Generator: Adobe Illustrator 18.0.0, SVG Export Plug-In . SVG Version: 6.00 Build 0)  -->
<!DOCTYPE svg PUBLIC "-//W3C//DTD SVG 1.1//EN" "http://www.w3.org/Graphics/SVG/1.1/DTD/svg11.dtd">
<svg version="1.1" id="Layer_1" xmlns="http://www.w3.org/2000/svg" xmlns:xlink="http://www.w3.org/1999/xlink" x="0px" y="0px"
	 viewBox="0 280 839.2 630.5" enable-background="new 0 280 839.2 630.5" xml:space="preserve">
<g id="_x31_">
	
		<linearGradient id="SVGID_1_" gradientUnits="userSpaceOnUse" x1="-0.8549" y1="284.6626" x2="797.1124" y2="284.6626" gradientTransform="matrix(1.0528 0 0 1.0528 0 294.7072)">
		<stop  offset="0.1211" style="stop-color:#1C4BBA"/>
		<stop  offset="1" style="stop-color:#342AA0"/>
	</linearGradient>
	<rect x="-0.9" y="278.4" fill="url(#SVGID_1_)" width="840.1" height="632"/>
</g>
<g>
	<g>
		<path fill="#4891F9" d="M479.6,316.3c-0.8-0.4-1.8-0.4-3,0.3L298.8,419.3c-2.3,1.3-4.2,4.6-4.2,7.3v293.2c0,1.3,0.5,2.3,1.2,2.7
			c3.3,1.9,6.5,3.8,9.8,5.7c-0.8-0.4-1.2-1.4-1.2-2.7V432.2c0-2.7,1.9-5.9,4.2-7.3l177.8-102.7c1.2-0.7,2.2-0.7,3-0.3
			C486.1,320.1,482.9,318.2,479.6,316.3z"/>
		<linearGradient id="SVGID_2_" gradientUnits="userSpaceOnUse" x1="302.984" y1="524.4612" x2="489.3925" y2="524.4612">
			<stop  offset="0" style="stop-color:#FFFFFF"/>
			<stop  offset="1" style="stop-color:#DFE8F0"/>
		</linearGradient>
		<path fill="url(#SVGID_2_)" d="M485,321.5L307.2,424.1c-2.3,1.3-4.2,4.6-4.2,7.3v293.2c0,1.3,0.5,2.3,1.2,2.7
			c0.4,0.3,0.9,0.5,1.3,0.8c-0.7-0.4-1.2-1.4-1.2-2.6V432.2c0-2.7,1.9-5.9,4.2-7.3l177.8-102.7c1.2-0.7,2.2-0.7,3-0.3
			c-0.5-0.3-1-0.6-1.5-0.8C487.2,320.7,486.1,320.8,485,321.5z"/>
		<g>
			<path fill="#7AA9E2" d="M486.4,322.3c2.3-1.3,4.2-0.3,4.2,2.4v293.2c0,2.7-1.9,5.9-4.2,7.3L308.6,727.8c-2.3,1.3-4.2,0.3-4.2-2.4
				V432.2c0-2.7,1.9-5.9,4.2-7.3L486.4,322.3z"/>
		</g>
	</g>
	<linearGradient id="SVGID_3_" gradientUnits="userSpaceOnUse" x1="399.738" y1="406.6379" x2="399.0162" y2="648.7518">
		<stop  offset="0" style="stop-color:#FFFFFF"/>
		<stop  offset="1" style="stop-color:#DFE8F0"/>
	</linearGradient>
	<path fill="url(#SVGID_3_)" d="M485.4,337.1c0-2.5-1.8-3.5-3.9-2.2l-164.4,94.8c-2.2,1.2-3.9,4.3-3.9,6.7l0.2,270.8
		c0,2.5,1.8,3.5,3.9,2.2l164.4-94.8c2.2-1.2,3.9-4.3,3.9-6.7L485.4,337.1z"/>
	<g>
		<g>
			<polygon fill="#4891F9" points="381.5,421.9 328.5,452.5 328.5,529.3 381.5,498.8 			"/>
		</g>
		<g>
			<defs>
				<polygon id="SVGID_4_" points="381.5,421.9 328.5,452.5 328.5,529.3 381.5,498.8 				"/>
			</defs>
			<clipPath id="SVGID_5_">
				<use xlink:href="#SVGID_4_"  overflow="visible"/>
			</clipPath>
			<g clip-path="url(#SVGID_5_)">
				<polygon fill="#735E5C" points="340.8,511.1 368.9,494.9 368.9,454.3 340.8,470.5 				"/>
				<g id="XMLID_2_">
					<g>
						<path fill="#FFD2BA" d="M322.4,586.9c-0.6,3.2-2.2,9.6-2.2,10.7c0.1,1.1,0.7,3.3,1.1,4c0.4,0.6,3.2,2.9,3.5,3.1
							c0.2,0.1,0.8-0.9,0.7-2c0-0.5-0.2-1-0.5-1.5c-0.8-1.1-1.4-1-1.7-1.9c-0.2-0.6,1-5.3,1-5.3l0,0c0.3,0.2,0.6,0.5,0.6,0.8
							c0.2,0.9,0,2.3,0.2,3.2c0.1,0.8,1,1.3,1.5,0.9c0.5-0.3,0.7-2.6,1.1-4.1c0.2-0.7,0.3-1.3,0.5-1.9c0.2-0.8,0.3-1.5,0.2-2.5
							c0-1.8-1-4.2-0.5-7.3c0.5-3.1,5.9-19.6,7-24.6c1.1-5,1.3-9.2,2-11.8c0.7-2.6,3.7-9.6,4.5-17c1.1-9.2-1.3-19.3-6.3-18.7
							c0,0-2,9.7-3.1,18.3c-1.1,8.6-2.6,15.9-3.6,20.1c-1,4.1-2.6,7.8-3.7,17.9C323.8,577.2,323,583.6,322.4,586.9z"/>
					</g>
				</g>
				<g id="XMLID_1_">
					<g>
						<path fill="#FFD2BA" d="M387.8,549.1c0.6,2.5,2.2,7.1,2.2,8.2c-0.1,1.2-0.7,4.1-1.1,5.3c-0.4,1.1-3.2,6.6-3.5,7.1
							c-0.2,0.3-0.8,0-0.7-1.2c0-0.5,0.2-1.2,0.5-2.1c0.8-2.1,1.4-2.6,1.7-3.9c0.2-0.8-1-4.2-1-4.2l0,0c-0.3,0.6-0.6,1.2-0.6,1.6
							c-0.2,1.2,0,2.4-0.2,3.4c-0.1,1-1,2.4-1.5,2.6c-0.5,0.2-0.7-1.7-1.1-2.8c-0.2-0.5-0.3-0.9-0.5-1.4c-0.2-0.6-0.3-1.2-0.2-2.2
							c0-1.9,1-5.4,0.5-7.9c-0.5-2.5-5.9-12.8-7-16.5c-1.1-3.7-1.3-7.7-2-9.4c-0.7-1.7-3.7-5.3-4.5-11.7c-1.1-7.9,1.3-20.9,6.3-26
							c0,0,2,7.4,3.1,14.7c1.1,7.3,2.6,12.9,3.6,15.9c1,3,2.6,4.7,3.7,13.6C386.4,541.1,387.2,546.6,387.8,549.1z"/>
					</g>
				</g>
				<g>
					<path fill="#FFD2BA" d="M361.1,476.6c0,0,0,6.8,0,7.9c0,0.8,0.2,1.5,1.2,1.7c0.7,0.1,12.3,0.2,12.6,1.9c0.1,0.5,0,3.2,0,4.8
						c0,1.6,0.2,6.3,0.6,10.2c0.4,4-2.9,10.4-3.3,11.6c-0.4,1.1-1.2,7.5-1.6,17.8c0.2,4.7,1.8,6.9,3.5,12.3
						c-4.7,4.5-11.8,9.9-19,14.1c-7.2,4.1-14.3,7-19,7.8c1.7-7.3,3.3-11.4,3.5-16.3c-0.4-9.8-1.2-15.3-1.6-16
						c-0.4-0.7-3.7-3.3-3.3-7.7c0.4-4.4,0.6-9.3,0.6-10.9c0-1.6-0.1-4.3,0-4.8c0.3-2,11.9-15.5,12.6-16.4c1-1.3,1.2-2.3,1.2-3
						c0-1.1,0-7.9,0-7.9L361.1,476.6z"/>
				</g>
				<path fill="#FFB1A4" d="M349,483.5l12.1-7c0,0,0,6.8,0,7.9c0,0.8,0.2,1.5,1.2,1.7c-7,2.7-11.2,2.2-13.2,1.6
					C349,485.7,349,483.5,349,483.5z"/>
				<g>
					<path fill="#FFB1A4" d="M365.5,469.2c3.2-0.4,5.9-8.2,4.9-10.1c-1-1.8-3.3,1.5-3.3,1.5L365.5,469.2z"/>
				</g>
				<g>
					<path fill="#FFB1A4" d="M344.2,481.5c-3.2,3.3-5.9-1.4-4.9-4.4c1-3,3.3-2.3,3.3-2.3L344.2,481.5z"/>
				</g>
				<path fill="#FFD2BA" d="M354.9,447.1L354.9,447.1L354.9,447.1c6.6-3.8,13.7-4.8,13.6,7.9c0,5.3-1.3,11.9-3,16.6
					c-2.4,6.6-8.1,12-10.6,13.4l0,0c-2.4,1.4-8.1,2.5-10.6-1.3c-1.8-2.7-3-7.8-3-13.1C341.2,458,348.3,450.9,354.9,447.1z"/>
				<path fill="#E05787" d="M334.7,511.3l-8.2,28.1c0,0,5.5,3.8,13.2,2.6v-33.3L334.7,511.3z"/>
				<path fill="#E05787" d="M375.5,487.7l8.2,18.6c0,0-5.5,10.2-13.2,17.8v-33.3L375.5,487.7z"/>
				<polygon fill="#FFFFFF" points="361.1,484.3 355.1,494.7 361.4,495.7 364.9,486.2 				"/>
				<polygon fill="#FFFFFF" points="349,491.3 355.1,494.7 348.8,503 345.3,497.6 				"/>
				<path fill="#735E5C" d="M361.5,452.7c0,0-8.6,13.1-22.4,25.3c0,0,0-7.7,0-12.4c0-4.7,4.1-13.3,9.8-18.3c5.7-5.1,11.9-7,14.7-5.9
					c3.2-0.8,7.4,2.1,7.5,7.9c0.1,5.8-2.3,10.2-2.3,10.2S363,459.3,361.5,452.7z"/>
				<path fill="#FF7AA9" d="M334.2,529.3c-0.2-2.5,0.2-16.2,0.4-18c0.2-1.8,12-15.3,12-15.3c3.7-0.1,8.4-1.3,8.4-1.3
					s4.8-4.3,8.4-8.4c0,0,11.8-0.1,12,1.5c0.2,1.6,0.7,14.7,0.4,17.5c-0.2,2.8-2.9,8.9-3.2,10.4c-0.2,1.5-1.3,14.5-1.1,17l3.7,12
					c0,0-7.9,9.1-20.3,16.3c-12.4,7.1-20.3,7.1-20.3,7.1l3.7-16.2c0.2-2.7-0.9-14.5-1.1-15.7C337.2,534.8,334.5,531.8,334.2,529.3z"
					/>
			</g>
		</g>
	</g>
	<g>
		<polygon fill="#97A2C7" points="470.3,594.5 328.6,676.2 328.6,680.5 470.3,598.8 		"/>
		<polygon fill="#97A2C7" points="470.3,581.6 328.6,663.3 328.6,667.6 470.3,585.9 		"/>
		<polygon fill="#97A2C7" points="355.1,613.8 470.3,547.4 470.3,543.1 355.1,609.5 		"/>
		<polygon fill="#97A2C7" points="470.3,568.8 328.6,650.5 328.6,654.8 470.3,573.1 		"/>
		<polygon fill="#97A2C7" points="470.3,555.9 328.6,637.6 328.6,642 470.3,560.3 		"/>
		<polygon fill="#97A2C7" points="470.3,519.5 328.6,601.2 328.6,605.5 470.3,523.8 		"/>
		<polygon fill="#97A2C7" points="470.3,506.7 328.6,588.4 328.6,592.7 470.3,511 		"/>
		<polygon fill="#97A2C7" points="355,538.9 470.2,472.4 470.2,468.1 355,534.6 		"/>
		<polygon fill="#97A2C7" points="470.3,493.8 328.6,575.5 328.6,579.8 470.3,498.1 		"/>
		<polygon fill="#97A2C7" points="470.3,481 328.6,562.7 328.6,567 470.3,485.3 		"/>
		<polygon fill="#97A2C7" points="470.2,401.7 470.2,393 387.9,440.4 388,449.1 		"/>
		<polygon fill="#97A2C7" points="388,469.2 388,473.5 437.4,445 437.4,440.7 		"/>
		<polygon fill="#97A2C7" points="437.4,467.7 437.4,463.4 388,491.9 388,496.2 		"/>
		<polygon fill="#97A2C7" points="388,480.5 388,484.9 437.4,456.4 437.4,452.1 		"/>
		<polygon fill="#97A2C7" points="388,457.8 388,462.1 437.4,433.6 437.4,429.3 		"/>
	</g>
</g>
<g>
	<linearGradient id="SVGID_6_" gradientUnits="userSpaceOnUse" x1="507.6983" y1="373.8973" x2="620.2756" y2="373.8973">
		<stop  offset="0" style="stop-color:#FFFFFF"/>
		<stop  offset="1" style="stop-color:#DFE8F0"/>
	</linearGradient>
	<path fill="url(#SVGID_6_)" d="M620.3,303.3c0-2-1.4-2.7-3.1-1.8l-106.4,61.6c-1.7,1-3.1,3.3-3.1,5.3v76c0,1.9,1.4,2.7,3.1,1.8
		l106.4-61.6c1.7-1,3.1-3.4,3.1-5.3V303.3z"/>
	<g>
		<polygon fill="#55995E" points="551.6,367 554.7,363.6 557.8,363.5 557.4,359.8 559.7,355.6 556.4,356.8 554.7,354.3 553,358.7 
			549.7,361.4 552,362.9 		"/>
		<polygon fill="#4891F9" points="569.3,393.4 567.6,390.9 566,395.3 562.6,398 564.9,399.5 564.6,403.6 567.7,400.2 570.8,400.1 
			570.4,396.4 572.6,392.2 		"/>
		<polygon fill="#FF1A75" points="564.5,389 567.6,385.6 570.7,385.4 570.3,381.8 572.6,377.5 569.3,378.7 567.6,376.3 565.9,380.6 
			562.6,383.3 564.9,384.9 		"/>
		<polygon fill="#577FFF" points="564.5,374.3 567.6,370.9 570.7,370.7 570.3,367.1 572.6,362.9 569.2,364 567.5,361.6 565.9,366 
			562.6,368.7 564.9,370.2 		"/>
		<polygon fill="#55995E" points="564.4,359.6 567.5,356.2 570.6,356.1 570.2,352.4 572.5,348.2 569.2,349.4 567.5,346.9 
			565.8,351.3 562.5,354 564.8,355.5 		"/>
		<polygon fill="#97A2C7" points="577.3,352.3 580.3,348.8 583.4,348.7 583,345 585.3,340.8 582,342 580.3,339.5 578.7,343.9 
			575.3,346.6 577.6,348.1 		"/>
		<polygon fill="#577FFF" points="590.1,359.5 593.2,356.1 596.3,355.9 595.9,352.3 598.2,348.1 594.8,349.2 593.2,346.8 
			591.5,351.2 588.2,353.9 590.5,355.4 		"/>
		<polygon fill="#97A2C7" points="590.1,344.9 593.2,341.4 596.3,341.3 595.9,337.6 598.1,333.4 594.8,334.6 593.1,332.1 
			591.5,336.5 588.1,339.2 590.4,340.8 		"/>
		<polygon fill="#97A2C7" points="611.1,370 607.7,371.2 606.1,368.7 604.4,373.1 601.1,375.8 603.4,377.4 603,381.5 606.1,378 
			609.2,377.9 608.8,374.2 		"/>
		<polygon fill="#97A2C7" points="603,366.8 606,363.4 609.1,363.2 608.7,359.6 611,355.4 607.7,356.5 606,354.1 604.4,358.4 
			601,361.1 603.3,362.7 		"/>
		<polygon fill="#577FFF" points="602.9,352.1 606,348.7 609.1,348.6 608.7,344.9 611,340.7 607.7,341.8 606,339.4 604.3,343.8 
			601,346.5 603.3,348 		"/>
		<polygon fill="#97A2C7" points="602.9,337.5 606,334.1 609.1,333.9 608.7,330.2 611,326 607.6,327.2 605.9,324.7 604.3,329.1 
			600.9,331.8 603.3,333.4 		"/>
		<polygon fill="#97A2C7" points="520.3,422.7 520.3,426.1 544.4,412.2 544.4,408.7 		"/>
		<polygon fill="#97A2C7" points="544.4,394.1 520.2,408 520.2,411.4 544.4,397.5 		"/>
		<polygon fill="#97A2C7" points="544.3,379.4 520.2,393.4 520.2,396.8 544.4,382.8 		"/>
		<polygon fill="#97A2C7" points="544.3,364.7 520.1,378.7 520.2,382.1 544.3,368.2 		"/>
		<polygon fill="#4891F9" points="556.5,400.8 554.8,398.3 553.2,402.7 549.8,405.4 552.1,406.9 551.8,411 554.8,407.6 557.9,407.5 
			557.5,403.8 559.8,399.6 		"/>
		<polygon fill="#FF1A75" points="551.7,396.4 554.8,393 557.9,392.8 557.5,389.2 559.8,384.9 556.5,386.1 554.8,383.7 553.1,388 
			549.8,390.7 552.1,392.3 		"/>
		<polygon fill="#577FFF" points="551.7,381.7 554.8,378.3 557.9,378.1 557.5,374.5 559.7,370.3 556.4,371.4 554.7,369 553.1,373.4 
			549.7,376.1 552.1,377.6 		"/>
		<polygon fill="#4891F9" points="582.1,386 580.4,383.5 578.8,387.9 575.5,390.6 577.8,392.1 577.4,396.3 580.5,392.8 583.6,392.7 
			583.2,389 585.5,384.8 		"/>
		<polygon fill="#FF1A75" points="577.3,381.6 580.4,378.2 583.5,378 583.1,374.4 585.4,370.2 582.1,371.3 580.4,368.9 578.7,373.2 
			575.4,375.9 577.7,377.5 		"/>
		<polygon fill="#577FFF" points="577.3,366.9 580.4,363.5 583.5,363.3 583.1,359.7 585.4,355.5 582,356.6 580.4,354.2 578.7,358.6 
			575.4,361.3 577.7,362.8 		"/>
		<polygon fill="#FF1A75" points="590.2,374.2 593.2,370.8 596.3,370.6 595.9,367 598.2,362.8 594.9,363.9 593.2,361.5 591.5,365.8 
			588.2,368.5 590.5,370.1 		"/>
		<polygon fill="#97A2C7" points="594.9,378.6 593.3,376.1 591.6,380.5 588.3,383.2 590.6,384.8 590.2,388.9 593.3,385.4 
			596.4,385.3 596,381.6 598.3,377.4 		"/>
	</g>
</g>
<g>
	<path fill="#F0F4F8" d="M514.9,464.1l124.4-71.8c4-2.3,7.2-0.5,7.2,4.1V508c0,4.6-3.2,10.1-7.2,12.4l-124.4,71.8
		c-4,2.3-7.2,0.5-7.2-4.1V476.5C507.7,471.9,510.9,466.4,514.9,464.1z"/>
	<g>
		<linearGradient id="SVGID_7_" gradientUnits="userSpaceOnUse" x1="576.2524" y1="505.1389" x2="601.0835" y2="505.1389">
			<stop  offset="5.376340e-003" style="stop-color:#FED905"/>
			<stop  offset="1" style="stop-color:#FEC405"/>
		</linearGradient>
		<polygon fill="url(#SVGID_7_)" points="601.1,496 576.3,510.4 576.3,514.3 601.1,499.9 		"/>
		<linearGradient id="SVGID_8_" gradientUnits="userSpaceOnUse" x1="576.2695" y1="505.7116" x2="620.2788" y2="505.7116">
			<stop  offset="5.376340e-003" style="stop-color:#FED905"/>
			<stop  offset="1" style="stop-color:#FEC405"/>
		</linearGradient>
		<polygon fill="url(#SVGID_8_)" points="620.3,491.1 576.3,516.5 576.3,520.4 620.3,495 		"/>
		<linearGradient id="SVGID_9_" gradientUnits="userSpaceOnUse" x1="576.304" y1="521.3734" x2="608.4172" y2="521.3734">
			<stop  offset="5.376340e-003" style="stop-color:#FED905"/>
			<stop  offset="1" style="stop-color:#FEC405"/>
		</linearGradient>
		<polygon fill="url(#SVGID_9_)" points="576.3,528.7 576.3,532.6 608.4,514.1 608.4,510.2 		"/>
		<linearGradient id="SVGID_10_" gradientUnits="userSpaceOnUse" x1="576.2883" y1="513.3033" x2="615.1639" y2="513.3033">
			<stop  offset="5.376340e-003" style="stop-color:#FED905"/>
			<stop  offset="1" style="stop-color:#FEC405"/>
		</linearGradient>
		<polygon fill="url(#SVGID_10_)" points="576.3,522.6 576.3,526.5 615.2,504 615.2,500.1 		"/>
	</g>
	<g>
		<polygon fill="#97A2C7" points="601.1,444.4 576.3,458.7 576.3,462.6 601.1,448.3 		"/>
		<polygon fill="#97A2C7" points="620.3,439.4 576.3,464.8 576.3,468.7 620.3,443.3 		"/>
		<polygon fill="#97A2C7" points="576.3,477.1 576.3,481 608.4,462.4 608.4,458.5 		"/>
		<polygon fill="#97A2C7" points="576.3,470.9 576.3,474.9 615.2,452.4 615.2,448.5 		"/>
	</g>
	<g>
		<g>
			<linearGradient id="SVGID_11_" gradientUnits="userSpaceOnUse" x1="536.186" y1="487.8604" x2="567.5607" y2="487.8604">
				<stop  offset="5.376340e-003" style="stop-color:#FED905"/>
				<stop  offset="1" style="stop-color:#FEC405"/>
			</linearGradient>
			<polygon fill="url(#SVGID_11_)" points="567.5,456.1 536.2,474.2 536.2,519.6 567.6,501.6 			"/>
		</g>
		<g>
			<defs>
				<polygon id="SVGID_12_" points="567.5,456.1 536.2,474.2 536.2,519.6 567.6,501.6 				"/>
			</defs>
			<use xlink:href="#SVGID_12_"  overflow="visible" fill="#4891F9"/>
			<clipPath id="SVGID_13_">
				<use xlink:href="#SVGID_12_"  overflow="visible"/>
			</clipPath>
			<g clip-path="url(#SVGID_13_)">
				<polygon fill="#735E5C" points="543.5,508.9 560.1,499.3 560.1,475.2 543.5,484.8 				"/>
				<g id="XMLID_4_">
					<g>
						<path fill="#FFD2BA" d="M532.6,553.7c-0.4,1.9-1.3,5.7-1.3,6.4c0,0.7,0.4,1.9,0.7,2.4c0.2,0.4,1.9,1.7,2.1,1.8
							c0.1,0,0.5-0.5,0.4-1.2c0-0.3-0.1-0.6-0.3-0.9c-0.5-0.7-0.8-0.6-1-1.1c-0.1-0.3,0.6-3.1,0.6-3.1l0,0c0.2,0.1,0.3,0.3,0.4,0.5
							c0.1,0.5,0,1.4,0.1,1.9c0.1,0.5,0.6,0.7,0.9,0.5c0.3-0.2,0.4-1.5,0.7-2.4c0.1-0.4,0.2-0.8,0.3-1.1c0.1-0.4,0.2-0.9,0.1-1.5
							c0-1.1-0.6-2.5-0.3-4.3c0.3-1.8,3.5-11.6,4.1-14.5c0.7-3,0.8-5.4,1.2-7c0.4-1.5,2.2-5.7,2.7-10c0.6-5.4-0.8-11.4-3.7-11.1
							c0,0-1.2,5.8-1.8,10.8c-0.7,5.1-1.6,9.4-2.1,11.9c-0.6,2.5-1.6,4.6-2.2,10.6C533.4,548,532.9,551.8,532.6,553.7z"/>
					</g>
				</g>
				<g id="XMLID_3_">
					<g>
						<path fill="#FFD2BA" d="M571.3,531.3c0.4,1.5,1.3,4.2,1.3,4.9c0,0.7-0.4,2.4-0.7,3.2c-0.2,0.6-1.9,3.9-2.1,4.2
							c-0.1,0.2-0.5,0-0.4-0.7c0-0.3,0.1-0.7,0.3-1.2c0.5-1.2,0.8-1.5,1-2.3c0.1-0.5-0.6-2.5-0.6-2.5l0,0c-0.2,0.3-0.3,0.7-0.4,0.9
							c-0.1,0.7,0,1.4-0.1,2c-0.1,0.6-0.6,1.4-0.9,1.6c-0.3,0.1-0.4-1-0.7-1.7c-0.1-0.3-0.2-0.5-0.3-0.8c-0.1-0.3-0.2-0.7-0.1-1.3
							c0-1.1,0.6-3.2,0.3-4.7c-0.3-1.5-3.5-7.6-4.1-9.8c-0.7-2.2-0.8-4.6-1.2-5.6c-0.4-1-2.2-3.2-2.7-6.9
							c-0.6-4.7,0.8-12.3,3.7-15.4c0,0,1.2,4.4,1.8,8.7c0.7,4.3,1.6,7.6,2.1,9.4c0.6,1.8,1.6,2.8,2.2,8
							C570.5,526.6,570.9,529.8,571.3,531.3z"/>
					</g>
				</g>
				<g>
					<path fill="#FFD2BA" d="M555.5,488.4c0,0,0,4,0,4.7c0,0.5,0.1,0.9,0.7,1c0.4,0.1,7.3,0.1,7.4,1.1c0.1,0.3,0,1.9,0,2.9
						c0,0.9,0.1,3.7,0.3,6c0.2,2.3-1.7,6.2-2,6.8c-0.2,0.7-0.7,4.4-0.9,10.5c0.1,2.8,1.1,4.1,2,7.3c-2.8,2.7-7,5.8-11.2,8.3
						c-4.2,2.4-8.5,4.1-11.2,4.6c1-4.3,1.9-6.7,2-9.6c-0.2-5.8-0.7-9-0.9-9.4c-0.2-0.4-2.2-2-2-4.6c0.2-2.6,0.3-5.5,0.3-6.4
						c0-0.9-0.1-2.5,0-2.9c0.2-1.2,7.1-9.2,7.4-9.7c0.6-0.8,0.7-1.4,0.7-1.8c0-0.7,0-4.7,0-4.7L555.5,488.4z"/>
				</g>
				<path fill="#FFB1A4" d="M548.4,492.5l7.1-4.1c0,0,0,4,0,4.7c0,0.5,0.1,0.9,0.7,1c-4.2,1.6-6.6,1.3-7.8,0.9
					C548.4,493.8,548.4,492.5,548.4,492.5z"/>
				<g>
					<path fill="#FFB1A4" d="M558.1,484.1c1.9-0.3,3.5-4.9,2.9-6c-0.6-1.1-1.9,0.9-1.9,0.9L558.1,484.1z"/>
				</g>
				<g>
					<path fill="#FFB1A4" d="M545.5,491.4c-1.9,1.9-3.5-0.8-2.9-2.6c0.6-1.8,1.9-1.3,1.9-1.3L545.5,491.4z"/>
				</g>
				<path fill="#FFD2BA" d="M551.8,471L551.8,471L551.8,471c3.9-2.2,8.1-2.9,8,4.7c0,3.2-0.7,7-1.8,9.8c-1.4,3.9-4.8,7.1-6.2,8l0,0
					c-1.4,0.8-4.8,1.5-6.2-0.7c-1-1.6-1.8-4.6-1.8-7.8C543.7,477.4,547.9,473.2,551.8,471z"/>
				<path fill="#E05787" d="M539.8,509l-4.9,16.6c0,0,3.3,2.3,7.8,1.5v-19.7L539.8,509z"/>
				<path fill="#E05787" d="M564,495l4.9,11c0,0-3.3,6.1-7.8,10.5v-19.7L564,495z"/>
				<polygon fill="#FFFFFF" points="555.5,493 551.9,499.1 555.7,499.7 557.7,494.1 				"/>
				<polygon fill="#FFFFFF" points="548.4,497.1 551.9,499.1 548.2,504 546.1,500.8 				"/>
				<path fill="#735E5C" d="M555.7,474.3c0,0-5.1,7.8-13.3,15c0,0,0-4.5,0-7.3s2.4-7.8,5.8-10.9c3.4-3,7-4.1,8.7-3.5
					c1.9-0.5,4.4,1.2,4.5,4.6c0.1,3.4-1.4,6-1.4,6S556.6,478.2,555.7,474.3z"/>
				<path fill="#FF7AA9" d="M539.6,519.6c-0.1-1.5,0.1-9.6,0.3-10.6c0.1-1.1,7.1-9.1,7.1-9.1c2.2-0.1,5-0.8,5-0.8s2.8-2.6,5-5
					c0,0,7-0.1,7.1,0.9c0.1,0.9,0.4,8.7,0.3,10.3c-0.1,1.6-1.7,5.3-1.9,6.2c-0.1,0.9-0.8,8.6-0.6,10l2.2,7.1c0,0-4.7,5.4-12,9.6
					c-7.3,4.2-12,4.2-12,4.2l2.2-9.6c0.1-1.6-0.5-8.6-0.6-9.3C541.3,522.9,539.7,521.1,539.6,519.6z"/>
			</g>
		</g>
	</g>
</g>
<g>
	<g>
		<g>
			<polygon fill="#2E333D" points="678.7,514.8 685.9,516.9 679.2,531.2 671.9,529.1 			"/>
		</g>
		<g>
			<path fill="#4891F9" d="M688.5,514.8c2-1.2,4.1-1.6,5.8-1.1l24.1,7c4.3,1.2,5.1,7.7,2,14.4c-1.9,4-4.8,7.2-7.7,8.9
				c-2,1.2-4.1,1.6-5.8,1.1l-24.1-7c-2.4-0.7-3.8-3.1-3.9-6.3l0.3-0.6l6.8-14.3l0.1-0.3C686.9,515.9,687.7,515.3,688.5,514.8z"/>
		</g>
	</g>
	<g enable-background="new    ">
		<linearGradient id="SVGID_14_" gradientUnits="userSpaceOnUse" x1="627.0074" y1="549.1379" x2="676.9756" y2="485.494">
			<stop  offset="0" style="stop-color:#31394A"/>
			<stop  offset="0.5054" style="stop-color:#414857"/>
			<stop  offset="1" style="stop-color:#31394A"/>
		</linearGradient>
		<path fill="url(#SVGID_14_)" d="M671.7,470.5l-7.4-4.3c11.8,6.9,13.5,27.8,3.2,49.6c-6.7,14.2-17,25.5-27.4,31.6
			c-7.2,4.1-14.4,5.7-20.6,4c-1.4-0.4-2.6-0.9-3.8-1.6l7.4,4.3c1.2,0.7,2.4,1.2,3.8,1.6c6.2,1.8,13.4,0.2,20.6-4
			c10.5-6.1,20.7-17.4,27.4-31.6C685.2,498.4,683.6,477.4,671.7,470.5z"/>
		<g>
			<path fill="#919FBF" d="M671.7,470.5l-7.4-4.3c0.5,0.3,1,0.6,1.5,1l5.2,3c11.8,6.9,13.5,27.8,3.2,49.6
				c-6.7,14.2-17,25.5-27.4,31.6c-7.2,4.1-14.4,5.7-20.6,4c-0.5-0.2-1-0.3-1.5-0.5c0.7,0.3,1.5,0.6,2.3,0.8c6.2,1.8,13.4,0.2,20.6-4
				c10.5-6.1,20.7-17.4,27.4-31.6C685.2,498.4,683.6,477.4,671.7,470.5z"/>
			<path fill="#919FBF" d="M617.2,550.5c-0.5-0.2-1-0.5-1.5-0.8l0.8,0.5C616.7,550.4,617,550.5,617.2,550.5z"/>
		</g>
		<linearGradient id="SVGID_15_" gradientUnits="userSpaceOnUse" x1="614.7365" y1="431.1703" x2="628.7626" y2="473.6006">
			<stop  offset="0" style="stop-color:#414857"/>
			<stop  offset="1" style="stop-color:#31394A"/>
		</linearGradient>
		<path fill="url(#SVGID_15_)" d="M670,457.4c-0.1-0.1-0.3-0.2-0.4-0.2c-1.4-0.8-3-1.5-4.6-2c-7.5-2.1-16.3-0.2-25.1,4.9
			c-12.7,7.3-25.2,21.2-33.3,38.4c-12.6,26.6-10.5,52.1,3.8,60.4l7.4,4.3c-14.4-8.4-16.4-33.9-3.8-60.4
			c8.1-17.2,20.6-31.1,33.3-38.4c8.8-5.1,17.6-7,25.1-4.9c1.7,0.5,3.2,1.1,4.6,2C674.7,460.1,672.3,458.7,670,457.4z"/>
		<path fill="#919FBF" d="M674.4,459.9c-0.8-0.3-1.6-0.6-2.5-0.9c-7.5-2.1-16.3-0.2-25.1,4.9c-12.7,7.3-25.2,21.2-33.3,38.4
			c-11.5,24.3-10.8,47.7,0.4,57.9c-10.7-10.4-11.2-33.5,0.1-57.4c8.1-17.2,20.6-31.1,33.3-38.4c8.8-5.1,17.6-7,25.1-4.9
			c1.7,0.5,3.2,1.1,4.6,2C676.1,460.9,675.2,460.4,674.4,459.9z"/>
		<linearGradient id="SVGID_16_" gradientUnits="userSpaceOnUse" x1="685.123" y1="543.7819" x2="637.4344" y2="503.983">
			<stop  offset="0" style="stop-color:#414857"/>
			<stop  offset="1" style="stop-color:#586175"/>
		</linearGradient>
		<path fill="url(#SVGID_16_)" d="M672.4,459.5c-7.5-2.1-16.3-0.2-25.1,4.9c-12.7,7.3-25.2,21.2-33.3,38.4
			c-13.8,29.2-10,57.1,8.5,62.4c7.5,2.1,16.3,0.2,25.1-4.9c12.7-7.3,25.2-21.1,33.3-38.4C694.7,492.7,690.8,464.8,672.4,459.5z
			 M674.9,520.2c-6.7,14.2-17,25.5-27.4,31.6c-7.2,4.1-14.4,5.7-20.6,4c-15.2-4.3-18.3-27.3-7-51.2c6.7-14.2,17-25.5,27.4-31.6
			c7.2-4.1,14.4-5.8,20.6-4C683.1,473.2,686.2,496.2,674.9,520.2z"/>
	</g>
</g>
<g>
	<g>
		<path fill="#122769" d="M789.9,751.7L655.3,674c-6.6-3.8-14.8-6-23.3-6.8V667h-47.6v14.1v174.8v14.7H627c0,0,0,0,0,0h5v-0.2
			c8.9-0.6,17.5-2.9,24.4-6.9l133.7-77.7C806.3,776.3,806.2,761.1,789.9,751.7z"/>
		<path fill="#B6BBED" d="M760.1,769.1c0-0.2,0-0.5,0-0.7v-15.1h-9.7c-0.8-0.6-1.7-1.1-2.6-1.6L613.3,674c-16.3-9.4-42.6-9.4-58.8,0
			l-133.7,77.7c-0.9,0.5-1.7,1.1-2.5,1.6h-9.5v15.9h0c0.2,6,4.3,12,12.2,16.5l134.6,77.7c16.3,9.4,42.6,9.4,58.8,0l133.7-77.7
			C755.9,781.2,759.9,775.2,760.1,769.1L760.1,769.1L760.1,769.1z"/>
		<linearGradient id="SVGID_17_" gradientUnits="userSpaceOnUse" x1="408.706" y1="766.3904" x2="760.1325" y2="766.3904">
			<stop  offset="0" style="stop-color:#D9DCF7"/>
			<stop  offset="1" style="stop-color:#CED2F7"/>
		</linearGradient>
		<path fill="url(#SVGID_17_)" d="M760.1,766.8c0-0.2,0-0.5,0-0.7V751h-9.7c-0.8-0.6-1.7-1.1-2.6-1.6l-134.6-77.7
			c-16.3-9.4-42.6-9.4-58.8,0l-133.7,77.7c-0.9,0.5-1.7,1.1-2.5,1.6h-9.5v15.9h0c0.2,6,4.3,12,12.2,16.5l134.6,77.7
			c16.3,9.4,42.6,9.4,58.8,0l133.7-77.7C755.9,778.8,759.9,772.9,760.1,766.8L760.1,766.8L760.1,766.8z"/>
		<path fill="#FFFFFF" d="M747.9,749.4l-134.6-77.7c-16.3-9.4-42.6-9.4-58.8,0l-133.7,77.7c-0.9,0.5-1.7,1.1-2.5,1.6h-9.5v2.9h0
			c0.2,6,4.3,12,12.2,16.5l134.6,77.7c16.3,9.4,42.6,9.4,58.8,0l133.7-77.7c7.9-4.6,11.9-10.5,12.1-16.5h0v-0.1v-0.7V751h-9.7
			C749.6,750.4,748.8,749.9,747.9,749.4z"/>
		<linearGradient id="SVGID_18_" gradientUnits="userSpaceOnUse" x1="515.4438" y1="785.411" x2="741.0794" y2="672.8336">
			<stop  offset="0" style="stop-color:#F7FAFF"/>
			<stop  offset="1" style="stop-color:#E6ECFF"/>
		</linearGradient>
		<path fill="url(#SVGID_18_)" d="M747.9,734l-134.6-77.7c-16.3-9.4-42.6-9.4-58.8,0L420.8,734c-16.2,9.4-16.1,24.6,0.2,34
			l134.6,77.7c16.3,9.4,42.6,9.4,58.8,0L748.1,768C764.2,758.6,764.2,743.4,747.9,734z"/>
	</g>
	<g>
		<path fill="#5C362F" d="M632.6,745.4c0,0,0.9,9.1,1.1,11.3c0.1,2.2,0.2,3.3-0.8,4.1c-1.4,1.1-5.5,3.3-8.1,3.4
			c-2.6,0.1-5.2-1.3-7.8-2.6c-2.5-1.3-5-2.9-7.4-3.4c-2.4-0.6-4.5-0.3-7.1-2.4c-2.6-2.1-6.9-8.2-7.6-8.9c-0.7-0.8-0.4-2.1,0.3-3
			c0.7-0.9,4.3-2.6,5.3-2.8c1-0.2,6.4,1.7,7.7,1.9c1.4,0.2,7.9,0.3,10.4,0.2C621.1,743,632.6,745.4,632.6,745.4z"/>
		<path fill="#7D4A41" d="M632.6,743.8c0,0,0.9,9.1,1.1,11.3c0.1,2.2,0.2,3.3-0.8,4c-1.4,1.1-5.5,3.3-8.1,3.4
			c-2.6,0.1-5.2-1.3-7.8-2.6c-2.5-1.3-5-2.9-7.4-3.4c-2.4-0.6-4.5-0.3-7.1-2.4c-2.6-2.1-6.5-7.7-7.2-8.5c-0.7-0.8-0.4-2.1,0.3-3
			c0.7-0.9,4.3-2.6,5.3-2.8c1-0.2,6,1.3,7.4,1.5c1.4,0.2,7.9,0.3,10.4,0.2C621.1,741.4,632.6,743.8,632.6,743.8z"/>
		<path fill="#1F2336" d="M581.4,587.2c0,0,15.8,63.5,17.9,73.4c2,9.8,10.4,46.9,13.9,60.9c3.5,14,2.6,18.6,2.6,19.9
			c0.1,1.3-0.6,3.8-0.4,4.5c0.2,0.7,3.6,5.2,7.9,4.6c4.4-0.5,7.9-1.7,10.2-4.2c0,0-2.4-8.9-2.5-10.7c-0.2-1.8-1.8-47.5-2.8-55
			c-1.3-10.1-7.5-18.5-8-26.4c-0.6-7.9-0.4-39.9,0-46.3c0.4-6.4,0.8-17.3-2.4-28.2l-36.6,4.6L581.4,587.2z"/>
		<polygon fill="#161926" points="605.9,615 604.3,683.7 596,647.8 		"/>
		<path fill="#5C362F" d="M600.5,757c0,0,0.9,9.1,1.1,11.3c0.1,2.2,0.2,3.3-0.8,4.1c-1.4,1.1-5.5,3.3-8.1,3.4
			c-2.6,0.1-5.2-1.3-7.8-2.6c-2.5-1.3-5-2.9-7.4-3.4c-2.4-0.6-4.5-0.3-7.1-2.4c-2.6-2.1-6.9-8.2-7.6-8.9c-0.7-0.8-0.4-2.1,0.3-3
			c0.7-0.9,4.3-2.6,5.3-2.8c1-0.2,6.4,1.7,7.7,1.9c1.4,0.2,7.9,0.3,10.4,0.2C589.1,754.6,600.5,757,600.5,757z"/>
		<path fill="#7D4A41" d="M600.5,755.4c0,0,0.9,9.1,1.1,11.3c0.1,2.2,0.2,3.3-0.8,4c-1.4,1.1-5.5,3.3-8.1,3.4
			c-2.6,0.1-5.2-1.3-7.8-2.6c-2.5-1.3-5-2.9-7.4-3.4c-2.4-0.6-4.5-0.3-7.1-2.4c-2.6-2.1-6.5-7.7-7.2-8.5c-0.7-0.8-0.4-2.1,0.3-3
			c0.7-0.9,4.3-2.6,5.3-2.8c1-0.2,6,1.3,7.4,1.5c1.4,0.2,7.9,0.3,10.4,0.2C589.1,753,600.5,755.4,600.5,755.4z"/>
		<path fill="#1F2336" d="M569.4,593.6c0,0,4.3,66.2,5.1,76.2s6.9,47.7,8.6,62s1.4,17.7,1.3,19c-0.1,1.3-1.1,3.7-1,4.4
			s2.9,5.6,7.3,5.6c4.4,0,8.1-0.7,10.6-2.9c0,0-1.3-9.1-1.2-10.9c0.1-1.8,2-46.6,1.7-54.2c-0.3-7.6-2.8-20-2.4-27.9
			c0.4-7.9,4.5-39.7,5.7-45.9c1.2-6.3,2.9-17.1,1.1-28.3h-36.9V593.6z"/>
		<path fill="#AD6A43" d="M568.6,589.8c0,0,0,4.6,0,5.5c4,3.7,13.7,5,28.6,1.1c18.4-4.8,22.2-10.9,22.2-10.9l-1-4.8L568.6,589.8z"/>
		<rect x="578.5" y="590.6" fill="#1F2336" width="3.3" height="9"/>
		<rect x="602.6" y="587.5" fill="#1F2336" width="3.3" height="9"/>
		<rect x="615.8" y="581.7" fill="#1F2336" width="2.2" height="9"/>
		<path fill="#FFDEC9" d="M575.2,455.7c0,0-3.9,9.5-4.5,12.5c-0.7,3,0,4.7-0.5,7.2c-0.5,2.6-0.5,4,0,7.2s1.1,5.3,1.2,7.6
			c0.2,2.3,0.1,3.1,1.5,3.5c1.4,0.4,3.6,0.2,6.9-0.3c0,0,0.4,4.2,0.3,9.3c16.1,1,20.4-4.6,20.4-4.6s-1.4-7.2-0.9-9.5
			c0.6-2.3,6.3-10.1,6.8-16.7c0.5-6.6-1.9-16-8.3-18.7C591.1,450.2,580.3,449.9,575.2,455.7z"/>
		<linearGradient id="SVGID_19_" gradientUnits="userSpaceOnUse" x1="574.1962" y1="457.0508" x2="577.8509" y2="461.4064">
			<stop  offset="0" style="stop-color:#FFD3BF"/>
			<stop  offset="1" style="stop-color:#FFB7A8"/>
		</linearGradient>
		<path fill="url(#SVGID_19_)" d="M577.3,466.5v-12.6c-0.8,0.5-1.5,1.1-2.1,1.8c0,0-1.3,3.2-2.5,6.4
			C573.8,463.5,575.4,465.2,577.3,466.5z"/>
		<linearGradient id="SVGID_20_" gradientUnits="userSpaceOnUse" x1="589.0731" y1="495.6805" x2="586.7369" y2="478.39">
			<stop  offset="0" style="stop-color:#FFD3BF"/>
			<stop  offset="1" style="stop-color:#FFB7A8"/>
		</linearGradient>
		<path fill="url(#SVGID_20_)" d="M601,485.6h-17.2c0,0-2.9,4.1-8.2,6.6c-0.6,0.7,0.4,0.7,1.9,0.6c1.5-0.1,2.4-0.1,3.9-0.5
			c0,0,1.2,5.3,1.7,10.5c13.6,0.1,17.4-4.7,17.4-4.7s-1.4-7.2-0.9-9.5C599.8,487.9,600.3,486.9,601,485.6z"/>
		<path fill="#7D4A41" d="M579.1,481.1c0,0-1.4-0.2-1.4-1.7c0-1.5,0-6.2,0-6.7c0-0.5-0.4-1.1-0.6-1.4c-0.2-0.3-1.1-1.1-1.1-1.4
			c0-0.3,1-3.3,1-3.5c0-0.2-1.9-2.4-3.3-5.4c-1.4-3-1.8-5.9-2-8.8c2-0.4,4.8-0.3,4.8-0.3c-1-1.1-0.4-3.7-0.4-3.7s4.4,1.4,10,1
			c5.6-0.4,10.2-1.4,14.9,0.9c4.6,2.3,6.2,6.1,6.2,14.1c2.5,4.5,2.4,9,2,9.5c-0.4,0.5-7.7,11-10,15.9c-3.3,1.9-10.8,1.5-12.9,1.5
			c-0.8-1.9-2.8-5.5-2.8-5.5s1.2-1.2,1.8-3.1s0.3-3.8-1.7-4.7s-3.1-0.1-3.2,0.2C579.7,479.4,579.1,481.1,579.1,481.1z"/>
		<path fill="#4891F9" d="M578.8,501.8c0,0-12.8,12.1-14.1,13.8c-1.3,1.7-1.7,2.2-1.9,4.1c-0.2,1.9,5.8,50.7,6.1,53.7
			c0.3,3.1-3,15.8-2.7,16.3c0.3,0.5,1.8,2.5,4.6,3.6s12.5,2.8,26.8-1.1c14.3-3.9,20.1-7.9,21.2-9.7c1.1-1.7,2.1-7.1,1.7-8.5
			c-0.4-1.5-3.9-9.9-4.1-11.3c-0.1-1.3,2.3-34.4,2.7-40.9c0.5-6.4-0.3-19.8-1.7-23.1c-1.4-3.3-6.9-10.2-17-7.5
			C600.5,491.1,585.4,498.2,578.8,501.8z"/>
		<path fill="#4891F9" d="M577.3,531.3l-12.1,10.6c1.2,10.3,2.6,21.4,3.3,27.3C577.9,553.2,577.3,531.3,577.3,531.3z"/>
		<path fill="#4891F9" d="M602.2,492.3c0,0-1.3-3.4-1.4-3.6c-0.1-0.2-1-0.5-2.5,0c-1.5,0.5-5.1,2.3-10.5,5.8c-4.5,2.9-9,7.3-9,7.3
			s5.3-0.7,11.1-2.7s12.2-5.2,12.3-5.5C602.2,493.3,602.2,492.3,602.2,492.3z"/>
		<g>
			<g>
				<path fill="#FFDEC9" d="M538.3,528.9c0,0-1.2-12.7-1.3-13.5c-0.1-0.8-0.8-2.3-1.7-3.6c-0.9-1.4-2.8-4.3-3.9-6.4
					c-1.1-2.1-2.6-5.3-2.9-5.2c-0.2,0.1-1.5,1.4-0.9,4c0.5,2.6,1.5,3.4,2,4.5c0.5,1.1,1.6,3.6,1.6,3.6s-1.2-0.3-1.7-0.1
					c-0.6,0.2-5.3,2.1-5.7,2.6c-0.4,0.5-0.6,1.1-0.7,2.2c-0.1,1.2,0.1,3.9,0,4.8c-0.1,0.9-0.6,1.3-0.2,1.5c0.3,0.2,1.8,0.6,2.2-0.7
					c0.4,2.5,0.2,4.7,1.1,5.7c1,1,4.9,4.1,4.9,4.1L538.3,528.9z"/>
				
					<linearGradient id="SVGID_21_" gradientUnits="userSpaceOnUse" x1="259.5612" y1="517.6704" x2="267.9709" y2="513.3187" gradientTransform="matrix(-1 0 0 1 791.4121 0)">
					<stop  offset="0" style="stop-color:#FFD3BF"/>
					<stop  offset="1" style="stop-color:#FFB7A8"/>
				</linearGradient>
				<path fill="url(#SVGID_21_)" d="M524.6,515.9c-0.6,0.6-1.6,2.3-1.6,2.4c0-0.6,0-1.1,0-1.4c0.1-1.2,0.2-1.7,0.7-2.2
					c0.4-0.5,5.2-2.4,5.7-2.6c0.6-0.2,1.7,0.1,1.7,0.1s1.7,1.2,1.7,1.5c-0.1,0.3-4.8,2-5.6,2.2C526.5,516.1,525.2,515.3,524.6,515.9
					z"/>
				
					<linearGradient id="SVGID_22_" gradientUnits="userSpaceOnUse" x1="265.4392" y1="521.1213" x2="267.7336" y2="519.934" gradientTransform="matrix(-1 0 0 1 791.4121 0)">
					<stop  offset="0" style="stop-color:#FFD3BF"/>
					<stop  offset="1" style="stop-color:#FFB7A8"/>
				</linearGradient>
				<path fill="url(#SVGID_22_)" d="M525,522.5c0,0,0.5-2.9,0.4-3.3c0-0.4-0.4-1.1-0.4-1.1s-0.5,0.5-0.6,1.2c0,0.7,0.2,3.7,0.2,3.7
					L525,522.5z"/>
			</g>
			<path fill="#FFAC6B" d="M540.8,531.6c0,0-1.3-2.6-1.5-3c-0.2-0.4-0.6-0.8-1.2-0.6c-0.6,0.1-4.6,1.4-6.2,2.6
				c-1.6,1.2-1.9,1.5-1.9,2c0,0.4,1.4,4.1,1.4,4.1L540.8,531.6z"/>
			<path fill="#4891F9" d="M563.9,517.1c2.7-1.7,11.9,0.1,13.2,10.3c1.4,10.2-4.4,19-8.9,26.1c-4.5,7.1-7.8,11-9.8,12.7
				c-2,1.8-9,4-11.5,3.1c-2.4-0.9-5.1-6.1-6.6-9.6c-1.5-3.6-9.1-20.8-9.3-21.5c-0.2-0.6-0.2-1.5,0-2.1c0.2-0.6,3.8-4.1,9.8-5.4
				c0,0,1.1,0.3,1.5,0.7c0.3,0.4,0.1,1.2,0.4,2.1c1.4,3.1,7.4,13.3,7.4,13.3s10.1-23.7,11.3-26.1
				C562.6,518.5,562.7,517.8,563.9,517.1z"/>
		</g>
	</g>
</g>
<g>
	<g>
		<g>
			<path fill="#FFFFFF" d="M308.5,368.7c1.7-1,2.8-1.2,3.2-1.2l-0.4,1.9c-0.7,0-1.6,0.3-2.7,0.9c-3.2,1.8-5.3,5.4-5.3,9.5
				c0,3.8,1.9,5.2,5.2,3.3c1.1-0.6,2.2-1.5,2.9-2.3l0.4,1.4c-0.6,0.7-1.9,1.9-3.6,2.8c-3.8,2.2-6.7,1.1-6.7-4
				C301.5,376.1,304.3,371.1,308.5,368.7z"/>
		</g>
		<g>
			<path fill="#FFFFFF" d="M319.7,362.5l4.7,12.9l-1.9,1.1l-1.5-4.1l-4.8,2.8l-1.4,5.7l-1.8,1l4.6-18.2L319.7,362.5z M316.6,373.5
				l4.1-2.4l-1.3-3.7c-0.3-0.8-0.5-1.6-0.7-2.4l0,0c-0.2,1-0.4,2.1-0.7,3.2L316.6,373.5"/>
		</g>
		<g>
			<path fill="#FFFFFF" d="M336.5,352.8l0,15.6l-1.8,1l-4.3-5.4c-0.9-1.2-1.9-2.4-2.5-3.7l-0.1,0.1c0.1,1.9,0.2,3.8,0.2,6.3l0,6.7
				l-1.6,1l0-15.6l1.9-1.1l4.4,5.4c1,1.2,1.8,2.4,2.4,3.7l0,0c-0.2-2-0.2-3.9-0.2-6.3l0-6.5L336.5,352.8z"/>
		</g>
		<g>
			<path fill="#FFFFFF" d="M348.8,347.6c1.2,0.6,1.9,2,1.9,4.5c0,2.5-0.7,5-1.9,7.2c-1.3,2.2-3.4,4.2-6,5.7
				c-1.3,0.7-2.3,1.3-3.2,1.6l0-15.3c1.1-0.8,2.3-1.7,3.7-2.5C345.8,347.4,347.6,347,348.8,347.6z M343.1,363.1
				c3.7-2.2,5.8-5.7,5.8-9.9c0-3.7-1.8-5-5.5-2.8c-0.9,0.5-1.6,1-2,1.4l0,12.3C341.8,363.9,342.4,363.5,343.1,363.1"/>
		</g>
		<g>
			<polygon fill="#FFFFFF" points="354.7,342.3 354.7,357.9 353,358.9 353,343.3 			"/>
		</g>
		<g>
			<path fill="#FFFFFF" d="M371.9,332.4l4.7,12.9l-1.9,1.1l-1.5-4.1l-4.8,2.8l-1.4,5.7l-1.8,1l4.6-18.2L371.9,332.4z M368.8,343.3
				l4.1-2.4l-1.3-3.7c-0.3-0.8-0.5-1.6-0.7-2.4l0,0c-0.2,1-0.4,2.1-0.7,3.2L368.8,343.3"/>
		</g>
		<g>
			<polygon fill="#FFFFFF" points="366.2,335.7 366.2,337.4 362.1,339.8 362.1,353.6 360.4,354.7 360.3,340.8 356.2,343.2 
				356.2,341.5 			"/>
		</g>
		<g>
			<polygon fill="#FFFFFF" points="385.5,324.5 385.5,326.3 381.3,328.7 381.4,342.5 379.6,343.5 379.6,329.7 375.5,332.1 
				375.4,330.3 			"/>
		</g>
		<g>
			<polygon fill="#FFFFFF" points="394.3,319.4 394.3,321.1 388.7,324.4 388.8,329.3 394,326.2 394,327.9 388.8,330.9 388.8,336.6 
				394.7,333.2 394.7,334.9 387,339.3 387,323.7 			"/>
		</g>
		<g>
			<path fill="#FFFFFF" d="M404.9,313.6c2.8-1.6,4.3,0.3,4.3,5.1c0,5.1-1.6,8.9-4.5,10.5c-2.6,1.5-4.3-0.3-4.3-5.2
				C400.4,319,402.2,315.2,404.9,313.6z M404.8,327.7c1.8-1,2.7-4,2.7-7.8c0-3.7-0.8-5.6-2.7-4.6c-1.6,0.9-2.7,3.7-2.7,7.8
				C402.2,327,403.2,328.6,404.8,327.7"/>
		</g>
		<g>
			<polygon fill="#FFFFFF" points="416.4,307.3 416.4,322.3 414.7,323.3 414.7,310.1 414.7,310.2 412.4,312.9 412,311.5 
				414.9,308.1 			"/>
		</g>
	</g>
</g>
<linearGradient id="SVGID_23_" gradientUnits="userSpaceOnUse" x1="48.9172" y1="635.1091" x2="748.1951" y2="-64.1691" gradientTransform="matrix(1.0528 0 0 1.0528 0 294.7072)">
	<stop  offset="0" style="stop-color:#08095D"/>
	<stop  offset="1" style="stop-color:#092BA3"/>
</linearGradient>
<rect x="-1.4" y="280" opacity="0.8" fill="url(#SVGID_23_)" enable-background="new    " width="841.9" height="630.5"/>
</svg>
