<?xml version="1.0" encoding="utf-8"?>
<!-- Generator: Adobe Illustrator 18.0.0, SVG Export Plug-In . SVG Version: 6.00 Build 0)  -->
<!DOCTYPE svg PUBLIC "-//W3C//DTD SVG 1.1//EN" "http://www.w3.org/Graphics/SVG/1.1/DTD/svg11.dtd">
<svg version="1.1" id="Слой_1" xmlns="http://www.w3.org/2000/svg" xmlns:xlink="http://www.w3.org/1999/xlink" x="0px" y="0px"
	 width="71px" height="65px" viewBox="5.9 9.9 71 65" enable-background="new 5.9 9.9 71 65" xml:space="preserve">
<g>
	<g>
		<path fill="#D2D1E5" d="M41.4,9.9c9.6,0,19.2,0,28.7,0c4,0,6.6,2.6,6.6,6.6c0,17.2,0,34.5,0,51.7c0,4-2.6,6.6-6.6,6.6
			c-19.2,0-38.4,0-57.6,0c-4,0-6.6-2.6-6.6-6.6C6,51,6,33.7,6,16.4c0-3.2,1.8-5.6,4.6-6.3c0.6-0.2,1.3-0.2,2-0.2
			C22.3,9.9,31.9,9.9,41.4,9.9z M71.3,31.8c-14,0-27.8,0-41.6,0c0,12.5,0,25,0,37.5c0.3,0,0.5,0,0.8,0c13.2,0,26.4,0,39.7,0
			c1.1,0,1.2-0.1,1.2-1.2c0-11.8,0-23.7,0-35.5C71.3,32.3,71.3,32.1,71.3,31.8z M71.3,26.3c0-0.3,0-0.5,0-0.7c0-3,0-6.1,0-9.1
			c0-0.9-0.2-1.1-1.1-1.1c-19.2,0-38.4,0-57.6,0c-0.9,0-1.1,0.2-1.1,1.1c0,3.1,0,6.1,0,9.2c0,0.2,0,0.4,0,0.6
			C31.5,26.3,51.4,26.3,71.3,26.3z M11.5,31.8c0,0.2,0,0.4,0,0.6c0,12,0,24,0,36c0,0.8,0.2,1,1,1c3.7,0,7.4,0,11.1,0
			c0.2,0,0.4,0,0.6,0c0-12.5,0-25,0-37.5C20,31.8,15.8,31.8,11.5,31.8z"/>
		<path fill="#D2D1E5" d="M49.4,24.3c-2,0-3.6-1.5-3.6-3.5c0-2,1.6-3.6,3.6-3.6c2,0,3.5,1.6,3.6,3.6C53,22.7,51.4,24.3,49.4,24.3z"
			/>
		<path fill="#D2D1E5" d="M57.8,24.3c-2,0-3.6-1.5-3.6-3.5c0-2,1.6-3.6,3.6-3.6c2,0,3.5,1.6,3.5,3.6C61.3,22.7,59.8,24.3,57.8,24.3z
			"/>
		<path fill="#D2D1E5" d="M66.2,24.3c-2,0-3.5-1.6-3.6-3.5c0-2,1.6-3.6,3.5-3.6c2,0,3.6,1.6,3.6,3.6C69.7,22.8,68.1,24.3,66.2,24.3z
			"/>
	</g>
	<g>
		<g>
			<path fill="#FFFFFF" d="M71.3,34.8c0,11.1,0,22.2,0,33.3c0,1.1-0.1,1.2-1.2,1.2c-13.2,0-26.4,0-39.7,0h-0.8V34.8
				c-1.8,0-3.7,0-5.5,0v34.5c-0.2,0-0.4,0-0.6,0c-3.7,0-7.4,0-11.1,0c-0.8,0-1-0.2-1-1c0-11.2,0-22.4,0-33.5c-1.8,0-3.6,0-5.5,0
				c0,11.1,0,22.3,0,33.4c0,4,2.6,6.6,6.6,6.6c19.2,0,38.4,0,57.6,0c4,0,6.6-2.6,6.6-6.6c0-11.1,0-22.3,0-33.4
				C76.8,34.8,71.3,34.8,71.3,34.8z"/>
		</g>
	</g>
</g>
</svg>
