<?xml version="1.0" encoding="utf-8"?>
<!-- Generator: Adobe Illustrator 18.0.0, SVG Export Plug-In . SVG Version: 6.00 Build 0)  -->
<!DOCTYPE svg PUBLIC "-//W3C//DTD SVG 1.1//EN" "http://www.w3.org/Graphics/SVG/1.1/DTD/svg11.dtd">
<svg version="1.1" id="Слой_1" xmlns="http://www.w3.org/2000/svg" xmlns:xlink="http://www.w3.org/1999/xlink" x="0px" y="0px"
	 width="99px" height="99px" viewBox="0 -2.9 99 99" enable-background="new 0 -2.9 99 99" xml:space="preserve">
<circle fill="#88ECA5" cx="48.5" cy="45.9" r="41.5"/>
<g>
	<path fill="#FFFFFF" d="M59.7,20.2c0.4,0.1,0.7,0.2,1.1,0.2c3.4,0.9,5.5,4,5.3,7.6c-0.2,3.2-2.8,6.1-6.1,6.6
		c-4,0.6-7.7-2.2-8.3-6.2c-0.6-3.9,2.2-7.6,6.2-8.1c0.1,0,0.2,0,0.2-0.1C58.6,20.2,59.2,20.2,59.7,20.2z"/>
	<path fill="#FFFFFF" d="M38.8,20.2c0.3,0.1,0.6,0.1,0.9,0.2c3.3,0.7,5.7,3.9,5.6,7.3c-0.1,3.5-2.7,6.4-6.1,6.9
		c-4,0.6-7.7-2.2-8.2-6.3c-0.6-3.8,2.3-7.5,6.2-8c0.1,0,0.2,0,0.2-0.1C37.8,20.2,38.3,20.2,38.8,20.2z"/>
	<path fill="#FFFFFF" d="M31.4,33c1.2,1.5,2.8,2.5,4.6,3c3.4,0.8,6.3-0.1,8.7-2.5c0.2-0.2,0.4-0.3,0.7-0.1c1,0.7,2.1,1.4,3.2,2.1
		c1.1-0.9,2.3-1.8,3.6-2.4c0.5,0.5,1,1,1.6,1.4c3.6,2.8,8.7,2.3,11.8-1c0.2-0.3,0.4-0.3,0.7-0.1c4.5,2.5,7.1,6.3,7.9,11.4
		c0.1,0.6-0.2,1.1-0.8,1.1c-2.5,0-5,0-7.6,0c0-0.2,0-0.3,0-0.5c0-1.2,0-2.5,0-3.7c0-1.7-1.2-3-2.9-3c-1.3,0-2.6,0-3.9,0
		c-1.5,0-2.8,1.4-2.8,2.9c0,1.4,0,2.8,0,4.3c-5.1,0-10.1,0-15.2,0c0-0.1,0-0.3,0-0.4c0-1.3,0-2.5,0-3.8c0-1.5-1.2-2.8-2.8-2.9
		c-1.4,0-2.7,0-4.1,0c-1.3,0-2.4,0.9-2.7,2.1c-0.1,0.3-0.1,0.7-0.1,1c0,1.3,0,2.7,0,4c-0.2,0-0.3,0-0.5,0c-2.2,0-4.5,0-6.7,0
		c-1,0-1.3-0.3-1.2-1.4c0.8-5.1,3.6-8.8,8.1-11.3c0.1,0,0.2-0.1,0.3-0.1C31.3,33.1,31.3,33.1,31.4,33z"/>
	<path fill="#FFFFFF" d="M32.8,45.9c2.1,0,4.2,0,6.4,0c0,0.2,0,0.3,0,0.5c0,3.3,0.1,6.6,0,9.9c-0.1,4.9,3.6,8.1,7.5,8.8
		c1,0.2,1,0.2,1,1.2c0,1.6,0,3.2,0,4.7c0,0.2,0,0.3,0,0.6c-1.1-0.2-2.1-0.3-3.1-0.5c-6.2-1.8-10.1-5.7-11.5-12
		c-0.2-1-0.3-1.9-0.3-2.9c0-3.3,0-6.6,0-9.9C32.8,46.1,32.8,46,32.8,45.9z"/>
	<path fill="#FFFFFF" d="M57.7,45.9c2.2,0,4.3,0,6.4,0c0,0.2,0,0.3,0,0.4c0,3.2,0,6.4,0,9.5c0,7.6-5.1,13.9-12.6,15.4
		c-0.7,0.2-1.5,0.2-2.3,0.3c0-0.2,0-0.3,0-0.4c0-1.8,0-3.7,0-5.5c0-0.3,0.1-0.4,0.4-0.5c3.8-0.4,7-3.2,7.8-6.7
		c0.1-0.6,0.2-1.3,0.2-2c0-3.4,0-6.7,0-10.1C57.7,46.2,57.7,46.1,57.7,45.9z"/>
	<path fill="#FFFFFF" d="M47.7,60.2c0-0.2,0-0.3,0-0.5c0-3.8,0-7.5,0-11.3c0-0.7,0.3-1,1-1c0.6,0,1,0.3,1,1c0,3.8,0,7.6,0,11.3
		c0,0.2,0,0.3,0,0.6c0.6-0.7,1.2-1.3,1.7-2c0.3-0.4,0.7-0.6,1.2-0.5c0.3,0.1,0.6,0.3,0.7,0.5c0.1,0.2,0,0.6-0.2,0.8
		c-1.1,1.3-2.2,2.6-3.4,3.9c-0.5,0.6-1.4,0.6-2,0c-1.1-1.2-2.2-2.5-3.2-3.7c-0.4-0.5-0.5-0.9-0.1-1.2c0.4-0.4,1.1-0.4,1.5,0
		c0.4,0.4,0.8,0.9,1.1,1.3C47.2,59.7,47.4,60,47.7,60.2C47.6,60.2,47.7,60.2,47.7,60.2z"/>
	<path fill="#FFFFFF" d="M32.8,44.2c0-1,0-1.9,0-2.9c0-0.6,0.5-0.9,1-1c0.2-0.1,0.4-0.1,0.6-0.1c1.1,0,2.1,0,3.2,0
		c1.1,0,1.6,0.5,1.6,1.6c0,0.8,0,1.5,0,2.3c0,0,0,0.1,0,0.1C37.1,44.2,35,44.2,32.8,44.2z"/>
	<path fill="#FFFFFF" d="M64.1,44.2c-2.1,0-4.2,0-6.4,0c0-1,0-2,0-2.9c0-0.6,0.7-1,1.4-1.1c0.6,0,1.2,0,1.8,0c0.5,0,1.1,0,1.6,0
		c0.8,0,1.6,0.5,1.6,1.6c0,0.8,0,1.5,0,2.3C64.1,44.1,64.1,44.2,64.1,44.2z"/>
</g>
</svg>
