<?xml version="1.0" encoding="utf-8"?>
<!-- Generator: Adobe Illustrator 18.0.0, SVG Export Plug-In . SVG Version: 6.00 Build 0)  -->
<!DOCTYPE svg PUBLIC "-//W3C//DTD SVG 1.1//EN" "http://www.w3.org/Graphics/SVG/1.1/DTD/svg11.dtd">
<svg version="1.1" id="Слой_1" xmlns="http://www.w3.org/2000/svg" xmlns:xlink="http://www.w3.org/1999/xlink" x="0px" y="0px"
	 width="99px" height="99px" viewBox="0 -2.9 99 99" enable-background="new 0 -2.9 99 99" xml:space="preserve">
<circle fill="#8D9ADC" cx="49.7" cy="46" r="41.5"/>
<g>
	<g>
		<path fill="#FFFFFF" d="M49.8,28.3c6.4,0,11.5,5.2,11.5,11.6c0,6.4-5.2,11.5-11.6,11.5c-6.4,0-11.5-5.2-11.5-11.6
			C38.3,33.4,43.5,28.3,49.8,28.3z M52,37.4c0.6,0,1.2,0,1.7,0c0.1-1.5-1.1-2.9-2.7-3.1c-0.3,0-0.5-0.2-0.4-0.5c0-0.5,0-1,0-1.5
			c-0.6,0-1.2,0-1.8,0c0,0.7,0,1.3,0,1.9c-0.1,0-0.1,0.1-0.2,0.1c-1.9,0.3-3.1,1.6-2.9,3.5c0.1,1.7,1.5,2.9,3.4,2.9
			c0.6,0,1.1,0,1.7,0.1c0.7,0.1,1.2,0.8,1.1,1.5c-0.1,0.7-0.6,1.3-1.4,1.3c-0.4,0-0.9,0-1.3,0c-1.1,0-1.5-0.3-1.9-1.4
			c-0.6,0-1.1,0-1.7,0c0,1.6,1,2.8,3.1,3.2c0,0.6,0,1.3,0,1.9c0.6,0,1.2,0,1.8,0c0-0.6,0-1.2,0-1.8c0.2,0,0.3-0.1,0.5-0.1
			c1.7-0.3,2.8-1.8,2.6-3.5c-0.1-1.6-1.5-2.8-3.2-2.8c-0.5,0-1,0-1.5,0c-0.8,0-1.5-0.7-1.5-1.5c0-0.8,0.6-1.4,1.4-1.4
			c0.4,0,0.9,0,1.3,0C51.3,36,51.8,36.4,52,37.4z"/>
		<path fill="#FFFFFF" d="M46.3,65.8c-0.2,0-0.4,0-0.6,0c-3.5,0-6.9,0-10.4,0c-0.4,0-0.6-0.1-0.8-0.4c-1.6-2-3.2-3.9-4.8-5.9
			c-1.7-2-2.3-4.2-1.8-6.8c0.9-4.6,1.6-9.2,2.5-13.9c0.2-1.1,0.9-1.8,2-1.8c1,0,1.8,0.7,1.9,1.9c0.2,2.4,0.3,4.8,0.6,7.2
			c0.1,0.8,0,1.2-0.7,1.7c-1.5,1-1.7,3.1-0.6,4.5c1.4,1.8,2.8,3.5,4.2,5.3c0.4,0.5,1,0.6,1.4,0.2c0.5-0.4,0.5-1,0.2-1.5
			c-1.3-1.7-2.7-3.5-4-5.2c-0.4-0.5-0.5-1.1-0.2-1.6c0.4-0.7,1.2-0.8,1.9-0.4c0.4,0.2,0.7,0.5,1,0.8c1.4,1.1,2.9,2.2,4.4,3.2
			c1.9,1.3,2.9,3,3.1,5.3c0.2,2.3,0.6,4.5,0.9,6.8C46.3,65.4,46.3,65.6,46.3,65.8z"/>
		<path fill="#FFFFFF" d="M53.2,65.5c0.1-0.8,0.2-1.6,0.3-2.4c0.3-2,0.5-4,0.8-5.9c0.2-1.5,1-2.7,2.2-3.5c2-1.5,4-2.9,6-4.4
			c0.6-0.4,1.3-0.4,1.8,0.1c0.5,0.5,0.5,1.2,0,1.8c-1.3,1.7-2.7,3.4-4,5.2c-0.3,0.4-0.4,0.8-0.1,1.2c0.2,0.4,0.6,0.6,1,0.5
			c0.3-0.1,0.5-0.2,0.7-0.4c1.4-1.8,2.8-3.5,4.2-5.3c1.2-1.6,0.7-3.9-1-4.8c-0.3-0.2-0.4-0.3-0.3-0.7c0.2-2.7,0.4-5.4,0.6-8.1
			c0.1-0.9,0.8-1.6,1.7-1.7c0.9-0.1,1.9,0.6,2,1.5c0.3,1.6,0.6,3.1,0.9,4.7c0.6,3.4,1.2,6.7,1.8,10.1c0.3,2.1-0.2,4-1.5,5.6
			c-1.7,2.2-3.5,4.3-5.3,6.4c-0.1,0.2-0.4,0.3-0.6,0.3c-3.5,0-7.1,0-10.6,0C53.5,65.5,53.4,65.5,53.2,65.5z"/>
		<path fill="#FFFFFF" d="M58.8,67.6c1.9,0,3.9,0,5.8,0c0.9,0,1.3,0.4,1.3,1.3c0,1.3,0,2.6,0,4c0,0.9-0.4,1.3-1.3,1.3
			c-3.9,0-7.8,0-11.7,0c-0.9,0-1.3-0.4-1.3-1.3c0-1.3,0-2.6,0-4c0-0.9,0.4-1.3,1.3-1.3C54.8,67.6,56.8,67.6,58.8,67.6z"/>
		<path fill="#FFFFFF" d="M40.9,67.6c1.9,0,3.8,0,5.7,0c1,0,1.3,0.4,1.3,1.3c0,1.3,0,2.6,0,4c0,0.9-0.4,1.3-1.3,1.3
			c-3.9,0-7.7,0-11.6,0c-0.9,0-1.3-0.4-1.3-1.4c0-1.3,0-2.6,0-3.9c0-0.9,0.4-1.4,1.4-1.4C37,67.6,38.9,67.6,40.9,67.6z"/>
		<path fill="#FFFFFF" d="M51.3,21.7c0,0.8,0,1.5,0,2.3c0,0.9-0.6,1.6-1.5,1.6c-0.9,0-1.5-0.6-1.5-1.6c0-1.5,0-3.1,0-4.6
			c0-0.9,0.6-1.5,1.5-1.5c0.9,0,1.5,0.6,1.5,1.5C51.3,20.2,51.3,20.9,51.3,21.7z"/>
		<path fill="#FFFFFF" d="M45,25.2c0,0.7-0.4,1.3-1.1,1.5c-0.6,0.2-1.3-0.1-1.6-0.7c-0.7-1.6-1.4-3.2-2-4.8
			c-0.3-0.7,0.2-1.4,0.9-1.7c0.7-0.3,1.5,0,1.8,0.8c0.6,1.5,1.3,3,1.9,4.5C44.9,24.9,45,25.1,45,25.2z"/>
		<path fill="#FFFFFF" d="M54.6,25.2c0-0.1,0.1-0.3,0.2-0.5c0.6-1.4,1.1-2.8,1.7-4.1c0.4-0.8,1.1-1.2,1.9-0.9c0.8,0.3,1.1,1.1,0.8,2
			c-0.6,1.4-1.2,2.9-1.8,4.3c-0.3,0.7-1,1-1.7,0.9C55,26.6,54.5,26,54.6,25.2z"/>
	</g>
</g>
</svg>
