<?xml version="1.0" encoding="utf-8"?>
<!-- Generator: Adobe Illustrator 18.0.0, SVG Export Plug-In . SVG Version: 6.00 Build 0)  -->
<!DOCTYPE svg PUBLIC "-//W3C//DTD SVG 1.1//EN" "http://www.w3.org/Graphics/SVG/1.1/DTD/svg11.dtd">
<svg version="1.1" id="Слой_1" xmlns="http://www.w3.org/2000/svg" xmlns:xlink="http://www.w3.org/1999/xlink" x="0px" y="0px"
	 width="99px" height="99px" viewBox="0 -2.9 99 99" enable-background="new 0 -2.9 99 99" xml:space="preserve">
<circle fill="#A1A4C2" cx="48.5" cy="47.1" r="41.5"/>
<g>
	<path fill="#FFFFFF" d="M48.5,71.8c-3.8,0-7.7,0-11.5,0c-1.5,0-2.4-0.9-2.4-2.4c0-6.2,0-12.4,0-18.7c0-3.9,2.8-6.7,6.7-6.7
		c0.7,0,1.3,0,2,0c1.2,0,2,0.8,2.1,2c0,0.6,0,1.2,0,1.8c0,0.4,0.1,0.8,0.2,1.1c0.4,1.4,1.7,2.4,3,2.3c1.4-0.1,2.7-1.5,2.9-2.9
		c0.1-0.7,0-1.4,0-2.2c0-1.4,0.8-2.2,2.2-2.2c1.2,0,2.4,0,3.6,0.2c2.9,0.6,4.9,3.2,4.9,6.1c0,6.4,0,12.9,0,19.3c0,1.3-0.8,2-2.2,2
		C56.3,71.8,52.4,71.8,48.5,71.8z"/>
	
		<ellipse transform="matrix(1 9.999996e-004 -9.999996e-004 1 3.231489e-002 -4.848423e-002)" fill="#FFFFFF" cx="48.5" cy="32.3" rx="9.9" ry="9.9"/>
	<path fill="#FFFFFF" d="M64.3,48.4c0-1.7,0-3.5,0-5.2c0-2.8,2.2-5,4.9-5c2.8,0,5,2.1,5,4.9c0,3.6,0,7.2,0,10.7
		c0,1.3-0.8,2.1-2.1,2.1c-1.9,0-3.8,0-5.7,0c-1.3,0-2.1-0.8-2.1-2.1C64.3,52.1,64.3,50.2,64.3,48.4z"/>
	<path fill="#FFFFFF" d="M32.7,48.5c0,1.8,0,3.6,0,5.4c0,1.4-0.8,2.2-2.2,2.2c-1.9,0-3.7,0-5.6,0c-1.3,0-2.1-0.8-2.1-2.1
		c0-3.5,0-7.1,0-10.6c0-2.6,1.8-4.6,4.2-5c2.3-0.4,4.6,1,5.4,3.3c0.2,0.6,0.3,1.2,0.3,1.8C32.7,45,32.7,46.8,32.7,48.5z"/>
	<path fill="#FFFFFF" d="M20.8,29.3c0-3.8,3.1-6.9,6.9-6.9c3.8,0,6.9,3.1,6.9,6.9c0,3.8-3.1,6.9-6.9,6.9
		C23.9,36.2,20.8,33.1,20.8,29.3z"/>
	<path fill="#FFFFFF" d="M76.2,29.3c0,3.8-3.1,6.9-7,6.9c-3.8,0-6.9-3.1-6.9-6.9c0-3.8,3.1-6.9,7-6.9C73.1,22.4,76.2,25.5,76.2,29.3
		z"/>
</g>
</svg>
