<?xml version="1.0" encoding="utf-8"?>
<!-- Generator: Adobe Illustrator 18.0.0, SVG Export Plug-In . SVG Version: 6.00 Build 0)  -->
<!DOCTYPE svg PUBLIC "-//W3C//DTD SVG 1.1//EN" "http://www.w3.org/Graphics/SVG/1.1/DTD/svg11.dtd">
<svg version="1.1" id="Layer_1" xmlns="http://www.w3.org/2000/svg" xmlns:xlink="http://www.w3.org/1999/xlink" x="0px" y="0px"
	 viewBox="0 0 1735.5 1141.3" enable-background="new 0 0 1735.5 1141.3" xml:space="preserve">
<g>
	<g>
		<defs>
			<path id="YIsvg__1_" d="M302.1,547.6c22.3,97.9-7.7,328.7-18.9,509.7l1.7-0.2c0,0,1.4,15.6,13.4,22.2c12,6.6,32.9,11.7,40,18.4
				c5.1,4.9,24.7,32.6-45.4,30.8c-49.8-1.3-61.7-4.8-67-12.9c-0.7-1.1-41.4-380.5-46.6-411.7c-8.9,39.8-109.6,378.8-109.6,379.1
				c0.8,6,8.8,21.9,17.7,31.8c2.7,9.7,9.2,26.8-39.1,26.4c-48.3-0.4-38.4-12.6-43.6-20.5c21.4-201.6,55.9-526.4,66.7-580l3-2.8
				c8.6-345,192-256.1,175.4-47.2C248,514.4,293.8,515,302.1,547.6"/>
		</defs>
		<clipPath id="YIsvg__2_">
			<use xlink:href="#YIsvg__1_"  overflow="visible"/>
		</clipPath>
		<linearGradient id="YIsvg__3_" gradientUnits="userSpaceOnUse" x1="159.6417" y1="875.4304" x2="252.856" y2="-10.5075">
			<stop  offset="0" style="stop-color:#031542"/>
			<stop  offset="0.1083" style="stop-color:#051C4C"/>
			<stop  offset="0.2906" style="stop-color:#093066"/>
			<stop  offset="0.5245" style="stop-color:#115191"/>
			<stop  offset="0.7981" style="stop-color:#1B7DCB"/>
			<stop  offset="1" style="stop-color:#24A1FB"/>
		</linearGradient>
		<rect x="0" y="193" clip-path="url(#YIsvg__2_)" fill="url(#YIsvg__3_)" width="363.1" height="948.7"/>
	</g>
	<g>
		<defs>
			<path id="YIsvg__4_" d="M256.2,256c22.4,49.3,37.1,64.9,101.3,74.5c52.1,7.8,151.3-109.4,158.8-125.4c1.5-3.1,1.5-7.2,0.7-11.7
				c2.4-3.3,5.1-7,7.2-10.2c10.2-15.2-13.9-47.1-20.9-40l-10.5,10.6c-2.6-1.8-5-2.5-6.7-1.6c-9.2,4.8-118.5,94.4-125.8,93.9
				c-7.4-0.5-50.6-31.5-100.4-61.4C254.6,181.1,240.4,232.2,256.2,256"/>
		</defs>
		<clipPath id="YIsvg__5_">
			<use xlink:href="#YIsvg__4_"  overflow="visible"/>
		</clipPath>
		<linearGradient id="YIsvg__6_" gradientUnits="userSpaceOnUse" x1="383.5356" y1="425.7917" x2="388.7587" y2="171.8105">
			<stop  offset="0" style="stop-color:#002990"/>
			<stop  offset="0.2247" style="stop-color:#0A4BAE"/>
			<stop  offset="0.5757" style="stop-color:#1879D8"/>
			<stop  offset="0.8457" style="stop-color:#2196F1"/>
			<stop  offset="1" style="stop-color:#24A1FB"/>
		</linearGradient>
		<rect x="240.4" y="136.1" clip-path="url(#YIsvg__5_)" fill="url(#YIsvg__6_)" width="294" height="202.2"/>
	</g>
	<path fill-rule="evenodd" clip-rule="evenodd" fill="#146CCB" d="M256.2,256c22.4,49.3,37.1,64.9,101.3,74.5
		c52.1,7.8,151.3-109.4,158.8-125.4c2.2-4.6,2.8-5.1,0.3-12.3l-5.5,8.8c-26.2,32.5-63.3,65.8-97.9,87.6
		c-30.8,19.4-53,27.2-92.8,16.2c-56.6-15.7-51.1-30.2-51.1-30.2l8.2-40.5c0,0-15.3-0.9-28.2,0.4C250.3,242.9,252.4,250.3,256.2,256"
		/>
	<g>
		<defs>
			<path id="YIsvg__7_" d="M52.1,205.3c-21.4,31.9,37.2,173.4,19.4,335.5c100.1,17.2,191.6,9.5,251.3-9.5
				c-2.8-66-10.1-325.1-68.5-348.9C183.1,162.5,81.4,161.6,52.1,205.3"/>
		</defs>
		<clipPath id="YIsvg__8_">
			<use xlink:href="#YIsvg__7_"  overflow="visible"/>
		</clipPath>
		<linearGradient id="YIsvg__9_" gradientUnits="userSpaceOnUse" x1="172.7538" y1="676.6721" x2="178.5665" y2="214.5874">
			<stop  offset="0" style="stop-color:#002990"/>
			<stop  offset="0.2247" style="stop-color:#0A4BAE"/>
			<stop  offset="0.5757" style="stop-color:#1879D8"/>
			<stop  offset="0.8457" style="stop-color:#2196F1"/>
			<stop  offset="1" style="stop-color:#24A1FB"/>
		</linearGradient>
		<rect x="30.7" y="161.6" clip-path="url(#YIsvg__8_)" fill="url(#YIsvg__9_)" width="292.1" height="396.4"/>
	</g>
	<path fill-rule="evenodd" clip-rule="evenodd" fill="#0F64BE" d="M61.1,342.1c9.8,55.8,18.6,124.5,10.4,198.7
		c3.5,0.6,7,1.2,10.5,1.7c4-12.1,9.3-35.2,12.4-76.5c5.2-71.4-19-162.7-19-162.7L61.1,342.1L61.1,342.1z"/>
	<path fill-rule="evenodd" clip-rule="evenodd" fill="#0F64BE" d="M81,382.6c1.1,15.3-0.9,48.8-0.9,65.1
		c36.8,6.7,108,14.5,135.3,16.9c0,0,6.8-33.3,4.8-38.2c-2-4.9-30.4-16.3-49.1-21C152.3,400.8,100.2,383.8,81,382.6"/>
	<path fill-rule="evenodd" clip-rule="evenodd" fill="#F4B1B1" d="M229.5,124.6c-7,14-16.9,24.8-27.9,30.1l0.4,20.4l3,2.5
		c11.6,12.4-1,37.9-14.2,37.2c-33.4,1.6-59-25.7-49-40.6l4.4-4.9l1-28.8c-1.7-0.1-14.3-7.2-18-8.4c-3.7-1.2-9.2-8.3-9.6-15.9
		c-0.4-7.6,11.4-5.1,11.4-5.1c-14.2-19.5-30.3-35.3-9.4-52.9c20.9-17.5,68.8-27.7,68.8-27.7l28.9-10c-3.7,10,1.2,43.2,8.6,63.9
		C234.4,102.9,238.9,105.8,229.5,124.6"/>
	<path fill-rule="evenodd" clip-rule="evenodd" fill="#E98385" d="M160.7,144.5c0,0,16.3,28,29.7,30.5c13.4,2.5,6.6,0.7,11.6,0.1
		l-0.4-20.4C192.3,156.2,183.3,155.5,160.7,144.5"/>
	<g>
		<defs>
			<path id="YIsvg__10_" d="M214,63.5c-24,12.3-51.6-2.3-65.6,14.2c-6.9,8.2-6.2,19.9,1.5,38c2.3,5.3,5.3,9.3-3.7,5.1
				c-4.1-1.9-11-4.6-13.3-2.7c-5.2,4.2-2.6,13,1.6,15.8c1.8,1.3,5.3,3.2,5.3,3.2c-32.3-6.1-45.7-35.2-45.3-58.7
				c1.2-59.3,43.2-69.7,76-69.8c16-0.1,29.4-11.6,40.5-7.7C236.9,9.8,239.6,48.7,214,63.5"/>
		</defs>
		<clipPath id="YIsvg__11_">
			<use xlink:href="#YIsvg__10_"  overflow="visible"/>
		</clipPath>
		<linearGradient id="YIsvg__12_" gradientUnits="userSpaceOnUse" x1="169.8635" y1="122.9728" x2="160.4081" y2="-54.8563">
			<stop  offset="0" style="stop-color:#031542"/>
			<stop  offset="0.1083" style="stop-color:#051C4C"/>
			<stop  offset="0.2906" style="stop-color:#093066"/>
			<stop  offset="0.5245" style="stop-color:#115191"/>
			<stop  offset="0.7981" style="stop-color:#1B7DCB"/>
			<stop  offset="1" style="stop-color:#24A1FB"/>
		</linearGradient>
		<rect x="94.2" y="-3.1" clip-path="url(#YIsvg__11_)" fill="url(#YIsvg__12_)" width="145.4" height="140.1"/>
	</g>
	<g>
		<defs>
			<path id="YIsvg__13_" d="M645.8,86.4h323.3V266H645.8c-110.4,0-201.3,90.9-201.3,201.3c0,110.4,90.9,201.3,201.3,201.3h323.3
				v179.6H645.8c-209.5,0-380.9-171.4-380.9-380.9S436.3,86.4,645.8,86.4"/>
		</defs>
		<clipPath id="YIsvg__14_">
			<use xlink:href="#YIsvg__13_"  overflow="visible"/>
		</clipPath>
		<linearGradient id="YIsvg__15_" gradientUnits="userSpaceOnUse" x1="616.9966" y1="467.2982" x2="616.9966" y2="-190.5611">
			<stop  offset="0" style="stop-color:#6A8AB9"/>
			<stop  offset="1" style="stop-color:#DDEBFF"/>
		</linearGradient>
		<rect x="264.9" y="86.4" clip-path="url(#YIsvg__14_)" fill="url(#YIsvg__15_)" width="704.2" height="761.9"/>
	</g>
	<g>
		<defs>
			<path id="YIsvg__16_" d="M557.3,86.4h323.3V266H557.3c-110.4,0-201.3,90.9-201.3,201.3c0,110.4,90.9,201.3,201.3,201.3h323.3
				v179.6H557.3c-209.5,0-380.9-171.4-380.9-380.9S347.7,86.4,557.3,86.4"/>
		</defs>
		<clipPath id="YIsvg__17_">
			<use xlink:href="#YIsvg__16_"  overflow="visible"/>
		</clipPath>
		<linearGradient id="YIsvg__18_" gradientUnits="userSpaceOnUse" x1="528.4402" y1="668.2177" x2="528.4402" y2="89.8586">
			<stop  offset="0" style="stop-color:#A2BEE5"/>
			<stop  offset="1" style="stop-color:#DDEBFF"/>
		</linearGradient>
		<rect x="176.3" y="86.4" clip-path="url(#YIsvg__17_)" fill="url(#YIsvg__18_)" width="704.2" height="761.9"/>
	</g>
	<g>
		<defs>
			<rect id="YIsvg__19_" x="704.8" y="86.4" width="175.7" height="179.6"/>
		</defs>
		<clipPath id="YIsvg__20_">
			<use xlink:href="#YIsvg__19_"  overflow="visible"/>
		</clipPath>
		<linearGradient id="YIsvg__21_" gradientUnits="userSpaceOnUse" x1="791.6947" y1="285.7837" x2="793.6234" y2="75.3008">
			<stop  offset="0" style="stop-color:#EA6200"/>
			<stop  offset="1" style="stop-color:#FFC045"/>
		</linearGradient>
		<rect x="704.8" y="86.4" clip-path="url(#YIsvg__20_)" fill="url(#YIsvg__21_)" width="175.7" height="179.6"/>
	</g>
	<g>
		<defs>
			<rect id="YIsvg__22_" x="704.8" y="668.6" width="175.7" height="179.6"/>
		</defs>
		<clipPath id="YIsvg__23_">
			<use xlink:href="#YIsvg__22_"  overflow="visible"/>
		</clipPath>
		<linearGradient id="YIsvg__24_" gradientUnits="userSpaceOnUse" x1="796.5812" y1="938.0272" x2="788.8133" y2="578.6659">
			<stop  offset="0" style="stop-color:#002990"/>
			<stop  offset="0.2247" style="stop-color:#0A4BAE"/>
			<stop  offset="0.5757" style="stop-color:#1879D8"/>
			<stop  offset="0.8457" style="stop-color:#2196F1"/>
			<stop  offset="1" style="stop-color:#24A1FB"/>
		</linearGradient>
		<rect x="704.8" y="668.6" clip-path="url(#YIsvg__23_)" fill="url(#YIsvg__24_)" width="175.7" height="179.6"/>
	</g>
	<g>
		<defs>
			<rect id="YIsvg__25_" x="880.6" y="86.4" width="88.6" height="179.6"/>
		</defs>
		<clipPath id="YIsvg__26_">
			<use xlink:href="#YIsvg__25_"  overflow="visible"/>
		</clipPath>
		<linearGradient id="YIsvg__27_" gradientUnits="userSpaceOnUse" x1="925.7838" y1="121.7375" x2="929.9357" y2="-115.7164">
			<stop  offset="0" style="stop-color:#EA6200"/>
			<stop  offset="1" style="stop-color:#FFC045"/>
		</linearGradient>
		<rect x="880.6" y="86.4" clip-path="url(#YIsvg__26_)" fill="url(#YIsvg__27_)" width="88.6" height="179.6"/>
	</g>
	<g>
		<defs>
			<rect id="YIsvg__28_" x="880.6" y="668.6" width="88.6" height="179.6"/>
		</defs>
		<clipPath id="YIsvg__29_">
			<use xlink:href="#YIsvg__28_"  overflow="visible"/>
		</clipPath>
		<linearGradient id="YIsvg__30_" gradientUnits="userSpaceOnUse" x1="922.2749" y1="831.8949" x2="939.6855" y2="331.6196">
			<stop  offset="0" style="stop-color:#002990"/>
			<stop  offset="0.2247" style="stop-color:#0A4BAE"/>
			<stop  offset="0.5757" style="stop-color:#1879D8"/>
			<stop  offset="0.8457" style="stop-color:#2196F1"/>
			<stop  offset="1" style="stop-color:#24A1FB"/>
		</linearGradient>
		<rect x="880.6" y="668.6" clip-path="url(#YIsvg__29_)" fill="url(#YIsvg__30_)" width="88.6" height="179.6"/>
	</g>
	<path fill-rule="evenodd" clip-rule="evenodd" fill="#7F9CC6" d="M356,462.2c0,1.7,0,6,0,7.8c0,0-20.6-1.1-34.1-6.5
		c-17-6.8-28.2-4.4-41-1.6c-29.1,6.2-75.3,3.1-104.5-1.2c0.4-12,1.4-28.4,2.8-40.2c13.5-2.1,30.2-4.6,33.5-4.2
		c5.6,0.7,48,3.9,54.8,3.5c6.9-0.4,60.6,2.8,60.6,2.8l22.3,37.2L356,462.2z"/>
	<g>
		<defs>
			<path id="YIsvg__31_" d="M71.9,190.1c-55.1,14.1-26.9,164.8-12.4,208.4c12.2,35.4,199,58.8,229.4,46c12.8-5.3,31-29.9,15.6-36.7
				c-32.2-14.3-174.5-45.5-176.3-54.3C122.2,309.1,131.1,180.7,71.9,190.1"/>
		</defs>
		<clipPath id="YIsvg__32_">
			<use xlink:href="#YIsvg__31_"  overflow="visible"/>
		</clipPath>
		<linearGradient id="YIsvg__33_" gradientUnits="userSpaceOnUse" x1="133.8276" y1="547.0038" x2="163.6134" y2="350.1826">
			<stop  offset="0" style="stop-color:#002990"/>
			<stop  offset="0.2247" style="stop-color:#0A4BAE"/>
			<stop  offset="0.5757" style="stop-color:#1879D8"/>
			<stop  offset="0.8457" style="stop-color:#2196F1"/>
			<stop  offset="1" style="stop-color:#24A1FB"/>
		</linearGradient>
		<rect x="16.8" y="180.7" clip-path="url(#YIsvg__32_)" fill="url(#YIsvg__33_)" width="303.1" height="276.5"/>
	</g>
	<path fill-rule="evenodd" clip-rule="evenodd" fill="#F4B1B1" d="M306.9,411.2l10.5,2.5l30.8-5.4c3.4-1.5,25.9-6.8,19.9,0.6
		c-4.2,5.2-17.1,13.7-16.8,14.3c4.1,7.5,45.9,18.8,46.3,19.5c5.8,9.5-21.1,3.9-25.7,3.2c-1.2-0.2,17.7,8,16.8,8.8
		c-1,1-3.7,3.6-8.8,2.6c-6.2-1.2-16.5-4.9-17.8-4c-1.3,0.9,17.1,8.7,15.8,9.5c-1,0.6-2.9,1.9-6.8,1.1c-6.4-1.4-15.7-5.4-17.3-4.8
		c-1.6,0.7,11.9,5.4,10.3,5.9c-1.2,0.4-1.5,2.5-2.7,2.4c-32.2-4.3-31.7-20.8-68.8-24.7c-15.4-1.6-5.7-17.7,3.2-27.1
		C298.4,412.9,303,409.9,306.9,411.2"/>
	<path fill-rule="evenodd" clip-rule="evenodd" fill="#F4B1B1" d="M478,342c-0.5,0.8,5.6,9,3.4,7.9l-19-9.1c0,0-2.1,4,0.6,7.3
		c2.7,3.3,6.8,7.6,6.8,7.6l-16.5-6.3c0,0-2.3,2.9,0.4,5.4c2.7,2.4,9.3,8.7,9.3,8.7l-13.6-4.1l-1.1,2.3c0,4.4,15.1,9.3,14.7,10.9
		c-0.1,0.5-8.4-0.4-9.6,0.3c-3.2,1.8-3.3,3.7,0.9,5.6c4,1.8,13.9,3,14.3,3.1c10.5,2.3,17.4-2.6,22.8-8.1
		C506.1,358.7,484.3,332.3,478,342"/>
</g>
<g id="coin01">
	<path fill="#E58927" d="M902.7,436.6c-31.2-75.2,4.5-161.5,79.8-192.7c75.2-31.2,161.5,4.6,192.7,79.8
		c31.2,75.2-4.5,161.5-79.8,192.7C1020.2,547.5,933.9,511.8,902.7,436.6"/>
	<path fill="#FFEF95" d="M890.7,430.3c-31.2-75.2,4.5-161.5,79.8-192.7c75.2-31.2,161.5,4.6,192.7,79.8
		c31.2,75.2-4.5,161.5-79.8,192.7C1008.1,541.2,921.8,505.5,890.7,430.3"/>
	<path fill="#FBCA0D" d="M896.9,433c-31.2-75.2,4.5-161.5,79.8-192.7c75.2-31.2,161.5,4.5,192.7,79.8
		c31.2,75.2-4.5,161.5-79.8,192.7C1014.3,544,928,508.3,896.9,433"/>
	<path fill="#FFD915" d="M896.9,433c-0.2-0.4-0.3-0.8-0.5-1.2L1168.8,319c0.2,0.4,0.3,0.8,0.5,1.2c31.2,75.2-4.5,161.5-79.8,192.7
		C1014.3,544,928,508.3,896.9,433"/>
	<circle fill="#FCA700" cx="1033.1" cy="376.6" r="125.1"/>
	<circle fill="none" stroke="#FCA700" stroke-width="0.216" stroke-miterlimit="10" cx="1033.1" cy="376.6" r="125.1"/>
	<path fill="#EC830E" d="M1052.7,252.9c33.9,16.6,56.3,41.9,65.8,64.8c45.8,110.5-49.1,178.7-157,161.4
		c33.8,23.6,78.6,29.9,119.5,13c63.9-26.5,94.2-99.7,67.7-163.5C1131.4,286.9,1094.2,259.5,1052.7,252.9"/>
	<path fill="#FFD915" d="M942.1,426.7c-23.4-56.4,3.4-121,59.8-144.3c32.9-13.6,68.7-10.2,97.4,6.3c-30.3-23.3-71.9-30.2-109.7-14.5
		c-56.4,23.4-83.1,88-59.8,144.3c9.7,23.4,26.5,41.7,46.9,53.4C961.9,460.5,949.8,445.2,942.1,426.7"/>
	<path fill-rule="evenodd" clip-rule="evenodd" fill="#EC830E" d="M1005.2,329.3l-13.9-15.5l25.2-12.3l3.9,21.2
		c18-5.1,32.5-1.4,43.7,10.9l-21.8,18c-5.3-5.7-11.9-7-19.7-3.8c-6.6,2.7-9,6.1-7.3,10.4c0.6,1.6,1.7,2.6,3.3,3.3
		c1.6,0.6,5.1,0.5,10.6-0.5c12.6-2.2,21.8-3.3,27.6-3.4c5.8,0,11.4,1.7,16.6,5.1c5.3,3.4,9.2,8.4,11.8,14.9
		c3.7,9.1,3.6,18.1-0.4,26.8c-4,8.8-11.4,16.1-22.2,22l10.8,14.3l-20.5,10.3l-5.7-18.4c-20.2,5.5-36.4,0.3-48.7-15.7l25.8-16.6
		c5.7,7.2,13.4,8.8,23.1,4.9c7.5-3.1,10.5-6.7,8.8-10.8c-0.9-2.2-2.5-3.5-4.7-4c-2.2-0.5-5.8-0.3-10.7,0.6c-19,3.6-32,3.6-39,0
		c-7-3.6-11.9-9-14.8-16.2c-3.2-7.9-3.5-16-0.8-24.3C988.9,342.2,995.2,335.2,1005.2,329.3"/>
	<path fill-rule="evenodd" clip-rule="evenodd" fill="#B6E1F8" d="M1247.8,419.8h169.6c8.3,0,15.1,6.8,15.1,15.1
		c0,8.3-6.8,15.1-15.1,15.1h-169.6c-8.3,0-15.1-6.8-15.1-15.1C1232.8,426.5,1239.5,419.8,1247.8,419.8"/>
	<path fill-rule="evenodd" clip-rule="evenodd" fill="#B6E1F8" d="M1518.9,419.8h4.5c8.3,0,15.1,6.8,15.1,15.1
		c0,8.3-6.8,15.1-15.1,15.1h-4.5c-8.3,0-15.1-6.8-15.1-15.1C1503.8,426.5,1510.6,419.8,1518.9,419.8"/>
	<path fill-rule="evenodd" clip-rule="evenodd" fill="#B6E1F8" d="M1251.4,332h58.7c8.3,0,15.1,6.8,15.1,15.1
		c0,8.3-6.8,15.1-15.1,15.1h-58.7c-8.3,0-15.1-6.8-15.1-15.1C1236.4,338.8,1243.2,332,1251.4,332"/>
</g>
<g id="coin02">
	<path fill="#E58927" d="M885.2,710.6c11.8-29.5,45.4-43.8,74.9-32c29.5,11.8,43.8,45.4,32,74.9c-11.8,29.5-45.4,43.8-74.9,32
		C887.7,773.7,873.4,740.1,885.2,710.6"/>
	<path fill="#FFEF95" d="M883.6,705.6c11.8-29.5,45.4-43.8,74.8-32c29.5,11.8,43.8,45.4,32,74.9c-11.8,29.5-45.4,43.8-74.9,32
		C886,768.6,871.7,735.1,883.6,705.6"/>
	<path fill="#FBCA0D" d="M884.5,708.1c11.8-29.5,45.4-43.8,74.9-32c29.5,11.8,43.8,45.4,32,74.9c-11.8,29.5-45.4,43.8-74.9,32
		C887,771.1,872.7,737.6,884.5,708.1"/>
	<path fill="#FFD915" d="M884.5,708.1c0.1-0.2,0.1-0.3,0.2-0.5l106.8,42.9c-0.1,0.2-0.1,0.3-0.2,0.5c-11.8,29.5-45.4,43.8-74.9,32
		C887,771.1,872.7,737.6,884.5,708.1"/>
	<path fill="#FCA700" d="M892.6,711.3c10.1-25,38.5-37.2,63.5-27.1c25,10,37.2,38.5,27.1,63.5c-10,25-38.5,37.2-63.5,27.1
		C894.7,764.8,882.6,736.3,892.6,711.3z"/>
	<path fill="none" stroke="#FCA700" stroke-width="0.216" stroke-miterlimit="10" d="M892.6,711.3c10.1-25,38.5-37.2,63.5-27.1
		c25,10,37.2,38.5,27.1,63.5c-10,25-38.5,37.2-63.5,27.1C894.7,764.8,882.6,736.3,892.6,711.3z"/>
	<path fill="#EC830E" d="M977.2,700.3c4.9,13.9,4.3,27,0.7,36c-17.4,43.3-62.5,36.5-87.9,2.2c3,15.8,13.8,29.8,29.8,36.2
		c25,10,53.5-2.1,63.5-27.1C989.8,731.3,986.9,713.5,977.2,700.3"/>
	<path fill="#FFD915" d="M898.9,718.6c8.9-22.1,34-32.8,56.1-23.9c12.9,5.2,21.9,15.9,25.4,28.4c-2.1-14.8-11.8-28-26.6-34
		c-22.1-8.9-47.2,1.8-56.1,23.9c-3.7,9.2-4,18.9-1.5,27.7C895.2,733.5,896,725.9,898.9,718.6"/>
	<path fill-rule="evenodd" clip-rule="evenodd" fill="#EC830E" d="M943.1,708.7l0.3-8.1l10.4,3.4l-4.7,7c6.4,3.5,9.5,8.5,9.2,15
		l-11-0.9c0.1-3-1.4-5.2-4.5-6.4c-2.6-1.1-4.2-0.7-4.9,0.9c-0.2,0.6-0.2,1.2,0,1.8c0.3,0.6,1.3,1.5,3.1,2.8c4.1,2.8,7,5,8.6,6.6
		c1.6,1.6,2.7,3.6,3.3,6c0.5,2.4,0.3,4.8-0.8,7.4c-1.5,3.5-3.9,6-7.4,7.4c-3.5,1.4-7.6,1.4-12.2,0.1l-0.9,6.9l-8.5-2.7l3.4-6.7
		c-7.1-4-10.2-9.9-9.3-17.7l11.7,2.4c-0.4,3.6,1.3,6.1,5.1,7.7c2.9,1.2,4.7,1,5.4-0.6c0.3-0.9,0.3-1.7-0.2-2.4
		c-0.5-0.8-1.5-1.7-3.1-2.7c-6.3-4.2-9.9-7.7-10.9-10.7c-1-2.9-0.8-5.8,0.3-8.6c1.3-3.1,3.4-5.4,6.4-7
		C935,707.9,938.7,707.6,943.1,708.7"/>
	<path fill-rule="evenodd" clip-rule="evenodd" fill="#B6E1F8" d="M1040.5,716.5h122.5c8.3,0,15.1,6.8,15.1,15.1
		c0,8.3-6.8,15.1-15.1,15.1h-122.5c-8.3,0-15.1-6.8-15.1-15.1C1025.5,723.3,1032.3,716.5,1040.5,716.5"/>
	<path fill-rule="evenodd" clip-rule="evenodd" fill="#B6E1F8" d="M1212.1,716.5h4.5c8.3,0,15.1,6.8,15.1,15.1
		c0,8.3-6.8,15.1-15.1,15.1h-4.5c-8.3,0-15.1-6.8-15.1-15.1C1197.1,723.3,1203.9,716.5,1212.1,716.5"/>
</g>
<g id="coin03">
	<path fill="#E58927" d="M888.5,801.5c-12.2-29.4,1.8-63,31.1-75.2c29.4-12.2,63,1.8,75.2,31.1c12.2,29.4-1.8,63-31.1,75.2
		C934.3,844.8,900.7,830.9,888.5,801.5"/>
	<path fill="#FFEF95" d="M883.8,799.1c-12.2-29.4,1.8-63,31.1-75.2c29.4-12.2,63,1.8,75.2,31.1c12.2,29.4-1.8,63-31.1,75.2
		C929.6,842.4,896,828.4,883.8,799.1"/>
	<path fill="#FBCA0D" d="M886.2,800.1c-12.2-29.4,1.8-63,31.1-75.2c29.4-12.2,63,1.8,75.2,31.1c12.2,29.4-1.8,63-31.1,75.2
		C932.1,843.4,898.4,829.5,886.2,800.1"/>
	<path fill="#FFD915" d="M886.2,800.1c-0.1-0.2-0.1-0.3-0.2-0.5l106.3-44.1c0.1,0.2,0.1,0.3,0.2,0.5c12.2,29.4-1.8,63-31.1,75.2
		C932.1,843.4,898.4,829.5,886.2,800.1"/>
	<circle fill="#FCA700" cx="939.4" cy="778.1" r="48.8"/>
	<circle fill="none" stroke="#FCA700" stroke-width="0.216" stroke-miterlimit="10" cx="939.4" cy="778.1" r="48.8"/>
	<path fill="#EC830E" d="M947,729.8c13.2,6.5,22,16.3,25.7,25.3c17.9,43.1-19.1,69.7-61.3,63c13.2,9.2,30.7,11.7,46.7,5.1
		c24.9-10.3,36.8-38.9,26.4-63.8C977.7,743.1,963.2,732.4,947,729.8"/>
	<path fill="#FFD915" d="M903.9,797.7c-9.1-22,1.3-47.2,23.3-56.3c12.9-5.3,26.8-4,38,2.5c-11.8-9.1-28-11.8-42.8-5.7
		c-22,9.1-32.4,34.3-23.3,56.3c3.8,9.1,10.4,16.3,18.3,20.9C911.6,810.9,906.9,804.9,903.9,797.7"/>
	<path fill-rule="evenodd" clip-rule="evenodd" fill="#EC830E" d="M928.5,759.6l-5.4-6l9.9-4.8l1.5,8.3c7-2,12.7-0.6,17,4.2l-8.5,7
		c-2.1-2.2-4.6-2.7-7.7-1.5c-2.6,1-3.5,2.4-2.9,4.1c0.2,0.6,0.7,1,1.3,1.3c0.6,0.2,2,0.2,4.1-0.2c4.9-0.9,8.5-1.3,10.8-1.3
		c2.3,0,4.4,0.7,6.5,2c2.1,1.3,3.6,3.3,4.6,5.8c1.4,3.6,1.4,7-0.2,10.5c-1.6,3.4-4.4,6.3-8.7,8.6l4.2,5.6l-8,4l-2.2-7.2
		c-7.9,2.2-14.2,0.1-19-6.1l10.1-6.5c2.2,2.8,5.2,3.5,9,1.9c2.9-1.2,4.1-2.6,3.4-4.2c-0.3-0.9-1-1.4-1.8-1.6
		c-0.9-0.2-2.3-0.1-4.2,0.2c-7.4,1.4-12.5,1.4-15.2,0c-2.7-1.4-4.6-3.5-5.8-6.3c-1.3-3.1-1.4-6.2-0.3-9.5
		C922.1,764.7,924.6,761.9,928.5,759.6"/>
	<path fill-rule="evenodd" clip-rule="evenodd" fill="#B6E1F8" d="M1047.1,768.7h122.5c8.3,0,15.1,6.8,15.1,15.1
		c0,8.3-6.8,15.1-15.1,15.1h-122.5c-8.3,0-15.1-6.8-15.1-15.1C1032,775.5,1038.8,768.7,1047.1,768.7"/>
</g>
<g id="coin04">
	<path fill="#E58927" d="M887.4,586.1c16.4-45,66.2-68.3,111.2-51.9c45,16.4,68.3,66.2,51.9,111.2c-16.4,45-66.2,68.3-111.2,51.9
		C894.2,680.9,871,631.2,887.4,586.1"/>
	<path fill="#FFEF95" d="M884.6,578.6c16.4-45,66.2-68.3,111.2-51.9s68.3,66.2,51.9,111.2c-16.4,45-66.2,68.3-111.2,51.9
		C891.5,673.4,868.3,623.6,884.6,578.6"/>
	<path fill="#FBCA0D" d="M886.2,582.3c16.4-45,66.2-68.3,111.2-51.9c45,16.4,68.3,66.2,51.9,111.2c-16.4,45-66.2,68.3-111.2,51.9
		C893.1,677.1,869.9,627.3,886.2,582.3"/>
	<path fill="#FFD915" d="M886.2,582.3c0.1-0.2,0.2-0.5,0.3-0.7l163.1,59.3c-0.1,0.2-0.2,0.5-0.2,0.7c-16.4,45-66.2,68.3-111.2,51.9
		C893.1,677.1,869.9,627.3,886.2,582.3"/>
	<circle fill="#FCA700" cx="967.8" cy="611.9" r="73.6"/>
	<circle fill="none" stroke="#FCA700" stroke-width="0.216" stroke-miterlimit="10" cx="967.8" cy="611.9" r="73.6"/>
	<path fill="#EC830E" d="M1025.5,566c8.1,20.7,7.8,40.5,2.8,54.3c-24,66.1-92.3,58-132.3,7.6c5.3,23.7,22.2,44.2,46.7,53.1
		c38.2,13.9,80.5-5.8,94.4-44C1046.1,612,1040.8,585.4,1025.5,566"/>
	<path fill="#FFD915" d="M908.4,597.5c12.3-33.7,49.6-51.1,83.3-38.9c19.7,7.2,33.9,22.9,39.8,41.5c-3.9-22.1-19.2-41.7-41.8-49.9
		c-33.7-12.3-71,5.1-83.3,38.9c-5.1,14-5.1,28.6-0.9,41.8C903.5,620,904.4,608.6,908.4,597.5"/>
	<path fill-rule="evenodd" clip-rule="evenodd" fill="#EC830E" d="M974.5,580.3l0.1-12.2l15.9,4.7l-6.8,10.8
		c9.8,4.9,14.7,12.3,14.6,22.1l-16.6-0.9c0-4.6-2.4-7.8-7.1-9.5c-3.9-1.5-6.4-0.9-7.3,1.6c-0.3,0.9-0.3,1.8,0.1,2.7
		c0.4,0.9,2,2.2,4.8,4c6.3,4,10.8,7.2,13.3,9.5c2.5,2.3,4.3,5.2,5.2,8.8c0.9,3.6,0.7,7.3-0.8,11.2c-2,5.4-5.6,9.2-10.8,11.5
		c-5.2,2.2-11.3,2.5-18.4,0.7l-1,10.5l-13-3.7l4.8-10.2c-10.9-5.6-15.9-14.3-14.9-26.2l17.8,3.1c-0.4,5.4,2.3,9.2,8.1,11.3
		c4.5,1.7,7.2,1.3,8.1-1.2c0.5-1.3,0.3-2.5-0.4-3.6c-0.8-1.1-2.4-2.4-4.9-4c-9.7-6-15.3-11.2-16.9-15.5c-1.6-4.3-1.6-8.7,0-12.9
		c1.8-4.7,4.9-8.3,9.3-10.9C962.3,579.4,967.8,578.9,974.5,580.3"/>
	<path fill-rule="evenodd" clip-rule="evenodd" fill="#B6E1F8" d="M1096,583.1h122.5c8.3,0,15.1,6.8,15.1,15.1
		c0,8.3-6.8,15.1-15.1,15.1H1096c-8.3,0-15.1-6.8-15.1-15.1C1081,589.9,1087.7,583.1,1096,583.1"/>
	<path fill-rule="evenodd" clip-rule="evenodd" fill="#B6E1F8" d="M1299.1,583.1h44c8.3,0,15.1,6.8,15.1,15.1
		c0,8.3-6.8,15.1-15.1,15.1h-44c-8.3,0-15.1-6.8-15.1-15.1C1284,589.9,1290.8,583.1,1299.1,583.1"/>
</g>
<g id="coin05">
	<path fill="#E58927" d="M884.3,165.1c-2-42.9,31.2-79.4,74.1-81.4c42.9-2,79.4,31.2,81.4,74.1c2,42.9-31.2,79.4-74.1,81.4
		C922.8,241.2,886.4,208,884.3,165.1"/>
	<path fill="#FFEF95" d="M879.5,159.8c-2-42.9,31.2-79.4,74.1-81.4c42.9-2,79.4,31.2,81.4,74.1c2,42.9-31.2,79.4-74.1,81.4
		C917.9,235.9,881.5,202.7,879.5,159.8"/>
	<path fill="#FBCA0D" d="M882.1,162.2c-2-42.9,31.2-79.4,74.1-81.4c42.9-2,79.4,31.2,81.4,74.1c2,42.9-31.2,79.4-74.1,81.4
		C920.5,238.4,884.1,205.2,882.1,162.2"/>
	<path fill="#FFD915" d="M882.1,162.2c0-0.2,0-0.4,0-0.7l155.5-7.3c0,0.2,0,0.4,0,0.7c2,42.9-31.2,79.4-74.1,81.4
		C920.5,238.4,884.1,205.2,882.1,162.2"/>
	<circle fill="#FCA700" cx="959.8" cy="158.6" r="66.1"/>
	<circle fill="none" stroke="#FCA700" stroke-width="0.216" stroke-miterlimit="10" cx="959.8" cy="158.6" r="66.1"/>
	<path fill="#EC830E" d="M991.7,100.7c13.9,14.3,20.4,30.9,21.1,44c3,63.1-56.4,80-106.9,52c12.6,17.8,33.7,28.9,57,27.8
		c36.4-1.7,64.6-32.6,62.9-69.1C1024.7,131.7,1011.1,111.4,991.7,100.7"/>
	<path fill="#FFD915" d="M905.7,167.2c-1.5-32.2,23.4-59.5,55.5-61c18.8-0.9,35.9,7.3,47.2,20.6c-10.9-17-30.3-27.9-51.9-26.9
		c-32.2,1.5-57,28.8-55.5,61c0.6,13.4,5.7,25.5,13.7,34.9C909.5,187.5,906.2,177.8,905.7,167.2"/>
	<path fill-rule="evenodd" clip-rule="evenodd" fill="#EC830E" d="M954.4,130.1l-4.1-10.2l14.7-1.6l-1.9,11.2
		c9.8,0.7,16.4,5.1,19.7,13.2l-14.1,5c-1.6-3.8-4.7-5.6-9.1-5.4c-3.8,0.1-5.6,1.4-5.5,3.9c0,0.9,0.4,1.6,1.1,2.2
		c0.7,0.6,2.4,1.1,5.4,1.7c6.6,1.2,11.4,2.2,14.3,3.3c2.9,1,5.4,2.9,7.4,5.5c2,2.6,3.1,5.8,3.2,9.5c0.2,5.2-1.5,9.6-5,13.3
		c-3.6,3.7-8.5,6-15,7l2.8,9l-12,1.4l0.5-10.1c-11-0.9-18.1-6.4-21.4-16.5l15.8-3.6c1.6,4.6,5.1,6.8,10.6,6.6
		c4.3-0.2,6.4-1.4,6.3-3.8c0-1.2-0.6-2.2-1.6-2.8c-1-0.7-2.8-1.2-5.4-1.6c-10.1-1.6-16.5-4-19.3-7c-2.8-3-4.3-6.6-4.4-10.7
		c-0.2-4.5,1.1-8.6,3.9-12.2C944,133.6,948.4,131.3,954.4,130.1"/>
	<path fill-rule="evenodd" clip-rule="evenodd" fill="#B6E1F8" d="M1092,140.6h58.7c8.3,0,15.1,6.8,15.1,15.1
		c0,8.3-6.8,15.1-15.1,15.1H1092c-8.3,0-15.1-6.8-15.1-15.1C1077,147.4,1083.7,140.6,1092,140.6"/>
	<path fill-rule="evenodd" clip-rule="evenodd" fill="#B6E1F8" d="M1216,140.6L1216,140.6c8.3,0,15,6.8,15,15v0c0,8.3-6.8,15-15,15
		h0c-8.3,0-15-6.8-15-15v0C1200.9,147.4,1207.7,140.6,1216,140.6"/>
</g>
<g id="coin06">
	<path fill="#E58927" d="M896,236.1c-22.1-53.4,3.2-114.6,56.6-136.7c53.4-22.1,114.6,3.2,136.7,56.6
		c22.1,53.4-3.2,114.6-56.6,136.7C979.3,314.9,918.1,289.5,896,236.1"/>
	<path fill="#FFEF95" d="M887.4,231.6C865.3,178.2,890.6,117,944,94.9c53.4-22.1,114.6,3.2,136.7,56.6
		c22.1,53.4-3.2,114.6-56.6,136.7C970.7,310.4,909.5,285,887.4,231.6"/>
	<path fill="#FBCA0D" d="M891.8,233.6C869.7,180.2,895,119,948.4,96.9c53.4-22.1,114.6,3.2,136.7,56.6
		c22.1,53.4-3.2,114.6-56.6,136.7C975.1,312.3,913.9,287,891.8,233.6"/>
	<path fill="#FFD915" d="M891.8,233.6c-0.1-0.3-0.2-0.6-0.3-0.8l193.3-80.1c0.1,0.3,0.2,0.6,0.4,0.8c22.1,53.4-3.2,114.6-56.6,136.7
		C975.1,312.3,913.9,287,891.8,233.6"/>
	<circle fill="#FCA700" cx="988.5" cy="193.5" r="88.8"/>
	<circle fill="none" stroke="#FCA700" stroke-width="0.216" stroke-miterlimit="10" cx="988.5" cy="193.5" r="88.8"/>
	<path fill="#EC830E" d="M1002.4,105.7c24.1,11.7,39.9,29.7,46.7,46c32.5,78.4-34.8,126.8-111.5,114.6c24,16.7,55.8,21.2,84.8,9.2
		c45.3-18.8,66.8-70.7,48.1-116C1058.2,129.9,1031.8,110.4,1002.4,105.7"/>
	<path fill="#FFD915" d="M923.9,229.1c-16.6-40,2.4-85.9,42.4-102.4c23.4-9.7,48.8-7.2,69.1,4.5c-21.5-16.5-51-21.4-77.9-10.3
		c-40,16.6-59,62.4-42.4,102.4c6.9,16.6,18.8,29.6,33.3,37.9C938,253.1,929.4,242.2,923.9,229.1"/>
	<path fill-rule="evenodd" clip-rule="evenodd" fill="#EC830E" d="M968.7,159.9l-9.9-11l17.9-8.8l2.8,15.1c12.8-3.6,23.1-1,31,7.7
		L995,175.8c-3.8-4.1-8.4-5-14-2.7c-4.7,1.9-6.4,4.4-5.2,7.4c0.5,1.1,1.2,1.9,2.3,2.3c1.1,0.5,3.6,0.3,7.5-0.3
		c8.9-1.6,15.4-2.4,19.6-2.4c4.1,0,8.1,1.2,11.8,3.6c3.7,2.4,6.5,5.9,8.4,10.6c2.6,6.5,2.5,12.8-0.3,19c-2.8,6.2-8.1,11.4-15.8,15.6
		l7.7,10.2l-14.6,7.3l-4-13c-14.3,3.9-25.8,0.2-34.5-11.1l18.3-11.8c4.1,5.1,9.5,6.3,16.4,3.5c5.4-2.2,7.4-4.7,6.3-7.7
		c-0.6-1.5-1.7-2.5-3.3-2.9c-1.6-0.4-4.1-0.2-7.6,0.4c-13.5,2.6-22.7,2.5-27.7,0c-4.9-2.6-8.4-6.4-10.5-11.5
		c-2.3-5.6-2.5-11.4-0.6-17.2C957.1,169.2,961.6,164.1,968.7,159.9"/>
	<path fill-rule="evenodd" clip-rule="evenodd" fill="#B6E1F8" d="M1153.8,137.7h58.7c8.3,0,15.1,6.8,15.1,15.1
		c0,8.3-6.8,15.1-15.1,15.1h-58.7c-8.3,0-15.1-6.8-15.1-15.1C1138.8,144.5,1145.5,137.7,1153.8,137.7"/>
	<path fill-rule="evenodd" clip-rule="evenodd" fill="#B6E1F8" d="M1272.7,137.7h0.7c8.3,0,15.1,6.8,15.1,15.1
		c0,8.3-6.8,15.1-15.1,15.1h-0.7c-8.3,0-15.1-6.8-15.1-15.1C1257.7,144.5,1264.5,137.7,1272.7,137.7"/>
</g>
</svg>
