<?xml version="1.0" encoding="utf-8"?>
<!-- Generator: Adobe Illustrator 18.0.0, SVG Export Plug-In . SVG Version: 6.00 Build 0)  -->
<!DOCTYPE svg PUBLIC "-//W3C//DTD SVG 1.1//EN" "http://www.w3.org/Graphics/SVG/1.1/DTD/svg11.dtd">
<svg version="1.1" id="Слой_1" xmlns="http://www.w3.org/2000/svg" xmlns:xlink="http://www.w3.org/1999/xlink" x="0px" y="0px"
	 width="80px" height="80px" viewBox="18.2 20.6 80 80" enable-background="new 18.2 20.6 80 80" xml:space="preserve">
<g>
	<g>
		<g>
			<g>
				<path fill="#FFFFFF" d="M62.8,35.4c2.5,0.2,4.8,0.5,7,1.7c3.1,1.6,4.7,4.3,5.1,7.6C75,45.5,75,46.2,75,47c0,0.2,0.1,0.5,0.3,0.6
					c0.7,0.6,1.1,1.4,1.1,2.4c0,0.9,0,1.8,0,2.7c0,1.2-0.5,2.1-1.6,2.7c-0.2,0.1-0.3,0.3-0.4,0.5c-0.7,1.7-1.4,3.3-2.2,5
					c-0.6,1.2-1.3,2.4-2.1,3.6c-1.5,2.3-3.7,3.4-6.4,3.6c-1.2,0.1-2.3,0-3.5-0.3c-2.3-0.5-3.9-1.8-5.2-3.7c-1.6-2.4-2.8-5.1-3.8-7.8
					c-0.2-0.4-0.4-0.7-0.8-1c-0.9-0.6-1.3-1.4-1.3-2.4c0-0.9,0-1.9,0-2.8c0-0.9,0.4-1.7,1.1-2.3c0.2-0.2,0.3-0.5,0.3-0.7
					c0-1.6,0.1-3.2,0.7-4.7c1.3-3.4,3.8-5.3,7.2-6.1C59.9,35.8,61.4,35.7,62.8,35.4z M52.3,52.6c0.8,0.1,1.2,0.6,1.4,1.3
					c0.2,0.5,0.4,0.9,0.5,1.4c1,2.4,2,4.7,3.4,6.9c1,1.5,2.2,2.4,4,2.6c0.7,0.1,1.3,0.1,2,0c1.7-0.1,3.1-0.9,4-2.4
					c0.7-1.1,1.4-2.3,2-3.4c0.8-1.7,1.5-3.4,2.2-5.2c0.2-0.6,0.5-1,1.1-1.2c0.1,0,0.2-0.2,0.3-0.4c0-0.6,0-1.3,0-1.9
					c0-0.1-0.2-0.3-0.3-0.4c-0.8-0.3-1.1-0.8-1.1-1.6c0-0.8,0-1.6,0-2.4c-0.1-3.5-1.9-5.8-5.1-6.7c-2.6-0.7-5.2-0.7-7.8-0.1
					c-3,0.8-4.8,2.8-5.2,5.9c-0.1,1.1-0.1,2.1-0.1,3.2c0,1-0.3,1.4-1.2,1.8c-0.1,0.1-0.2,0.2-0.2,0.4C52.3,51.1,52.3,51.8,52.3,52.6
					z"/>
			</g>
		</g>
		<path fill="#FFFFFF" d="M62.8,85.8c-3.2,0-6.3,0-9.5,0c-2.7,0-4.8-1.1-6.3-3.3c-1.2-1.8-1.9-3.8-2.2-6c-0.1-0.8-0.4-1.7-0.4-2.5
			c-0.1-2.3,0.9-4,2.6-5.4c1.5-1.2,3.2-1.8,5.2-1.8c1,0,2,0,3,0c1,0,1.7,0.7,1.7,1.6c0,0.9-0.7,1.6-1.7,1.6c-1,0-2,0-3,0
			c-1.5,0-2.7,0.6-3.7,1.6c-0.8,0.8-1.1,1.7-0.8,2.8c0.4,1.5,0.6,3.1,1.1,4.6c0.3,0.9,0.9,1.7,1.5,2.4c0.7,0.9,1.7,1.3,2.9,1.3
			c6.5,0,13.1,0,19.6,0c1.7,0,3-0.8,3.8-2.3c0.7-1.3,1-2.7,1.3-4.2c0.1-0.5,0.2-1.1,0.3-1.6c0.3-1.3-0.2-2.4-1.1-3.3
			c-1-0.9-2.1-1.3-3.4-1.3c-1,0-2.1,0-3.1,0c-0.7,0-1.3-0.4-1.5-1c-0.2-0.6,0-1.3,0.5-1.7c0.2-0.2,0.5-0.3,0.7-0.3
			c1.8,0,3.6-0.3,5.4,0.2c3,0.8,5.1,2.5,5.8,5.7c0.2,1,0.1,2.1-0.2,3.1c-0.4,1.6-0.7,3.3-1.2,4.8c-0.8,2.2-2.1,3.9-4.4,4.7
			c-0.9,0.3-1.9,0.5-2.8,0.5C69.3,85.8,66.1,85.8,62.8,85.8z"/>
		<path fill="#FFFFFF" d="M39.1,62.2c0,0.2,0,0.4,0,0.7c0,2.2,0,4.3,0,6.5c0,1.2-1.1,2-2.2,1.5c-0.7-0.3-0.9-0.9-0.9-1.6
			c0-2.1,0-4.2,0-6.3c0-0.2,0-0.4,0-0.7c-0.2,0-0.4,0-0.6,0c-2.2,0-4.4,0-6.5,0c-1.1,0-1.8-0.9-1.6-1.9c0.2-0.7,0.8-1.2,1.6-1.2
			c2.2,0,4.4,0,6.5,0c0.2,0,0.4,0,0.6,0c0-0.3,0-0.5,0-0.7c0-2.1,0-4.3,0-6.4c0-1,0.6-1.7,1.4-1.7c1-0.1,1.7,0.6,1.7,1.7
			c0,2.1,0,4.1,0,6.2c0,0.3,0,0.6,0,0.9c0.5,0,0.8,0,1.2,0c2,0,3.9,0,5.9,0c1,0,1.7,0.6,1.7,1.6c0,0.9-0.7,1.6-1.7,1.6
			c-2.1,0-4.3,0-6.4,0C39.5,62.2,39.3,62.2,39.1,62.2z"/>
	</g>
</g>
</svg>
