<?xml version="1.0" encoding="utf-8"?>
<!-- Generator: Adobe Illustrator 18.0.0, SVG Export Plug-In . SVG Version: 6.00 Build 0)  -->
<!DOCTYPE svg PUBLIC "-//W3C//DTD SVG 1.1//EN" "http://www.w3.org/Graphics/SVG/1.1/DTD/svg11.dtd">
<svg version="1.1" id="Слой_1" xmlns="http://www.w3.org/2000/svg" xmlns:xlink="http://www.w3.org/1999/xlink" x="0px" y="0px"
	 width="20px" height="20px" viewBox="-0.3 -0.7 20 20" enable-background="new -0.3 -0.7 20 20" xml:space="preserve">
<g>
	<g>
		<g>
			<g>
				<path fill="#13D74E" d="M12.1,1.3c0.8,0.1,1.5,0.2,2.2,0.5c1,0.5,1.5,1.3,1.6,2.4c0,0.2,0,0.5,0,0.7c0,0.1,0,0.1,0.1,0.2
					c0.2,0.2,0.4,0.4,0.4,0.7c0,0.3,0,0.6,0,0.9c0,0.4-0.2,0.7-0.5,0.9c-0.1,0-0.1,0.1-0.1,0.2c-0.2,0.5-0.4,1.1-0.7,1.6
					c-0.2,0.4-0.4,0.8-0.7,1.1c-0.5,0.7-1.2,1.1-2,1.1c-0.4,0-0.7,0-1.1-0.1c-0.7-0.1-1.2-0.6-1.6-1.2C9.2,9.5,8.8,8.7,8.5,7.8
					C8.4,7.7,8.4,7.6,8.2,7.5C8,7.4,7.8,7.1,7.8,6.8c0-0.3,0-0.6,0-0.9c0-0.3,0.1-0.5,0.3-0.7C8.2,5.1,8.3,5,8.3,4.9
					c0-0.5,0-1,0.2-1.5c0.4-1.1,1.2-1.7,2.3-1.9C11.2,1.4,11.6,1.4,12.1,1.3z M8.8,6.7c0.2,0,0.4,0.2,0.5,0.4
					c0.1,0.2,0.1,0.3,0.2,0.4c0.3,0.7,0.6,1.5,1.1,2.2c0.3,0.5,0.7,0.8,1.3,0.8c0.2,0,0.4,0,0.6,0c0.5,0,1-0.3,1.3-0.7
					c0.2-0.4,0.4-0.7,0.6-1.1c0.3-0.5,0.5-1.1,0.7-1.6c0.1-0.2,0.2-0.3,0.4-0.4c0,0,0.1-0.1,0.1-0.1c0-0.2,0-0.4,0-0.6
					c0,0,0-0.1-0.1-0.1c-0.2-0.1-0.3-0.2-0.4-0.5c0-0.3,0-0.5,0-0.8c0-1.1-0.6-1.8-1.6-2.1c-0.8-0.2-1.6-0.2-2.4,0
					c-1,0.2-1.5,0.9-1.6,1.8c0,0.3,0,0.7,0,1c0,0.3-0.1,0.4-0.4,0.6c0,0-0.1,0.1-0.1,0.1C8.8,6.2,8.8,6.5,8.8,6.7z"/>
			</g>
		</g>
		<path fill="#13D74E" d="M12.1,17.1c-1,0-2,0-3,0c-0.9,0-1.5-0.4-2-1c-0.4-0.6-0.6-1.2-0.7-1.9c0-0.3-0.1-0.5-0.1-0.8
			c0-0.7,0.3-1.3,0.8-1.7c0.5-0.4,1-0.6,1.6-0.6c0.3,0,0.6,0,1,0c0.3,0,0.5,0.2,0.5,0.5c0,0.3-0.2,0.5-0.5,0.5c-0.3,0-0.6,0-1,0
			c-0.5,0-0.9,0.2-1.2,0.5c-0.2,0.2-0.4,0.5-0.3,0.9c0.1,0.5,0.2,1,0.3,1.4c0.1,0.3,0.3,0.5,0.5,0.8C8.3,16,8.7,16.1,9,16.1
			c2.1,0,4.1,0,6.2,0c0.5,0,0.9-0.2,1.2-0.7c0.2-0.4,0.3-0.9,0.4-1.3c0-0.2,0.1-0.3,0.1-0.5c0.1-0.4,0-0.8-0.4-1
			c-0.3-0.3-0.7-0.4-1.1-0.4c-0.3,0-0.7,0-1,0c-0.2,0-0.4-0.1-0.5-0.3c-0.1-0.2,0-0.4,0.2-0.5c0.1,0,0.1-0.1,0.2-0.1
			c0.6,0,1.1-0.1,1.7,0.1c0.9,0.3,1.6,0.8,1.8,1.8c0.1,0.3,0,0.7,0,1c-0.1,0.5-0.2,1-0.4,1.5c-0.2,0.7-0.7,1.2-1.4,1.5
			c-0.3,0.1-0.6,0.1-0.9,0.1C14.1,17.1,13.1,17.1,12.1,17.1z"/>
		<path fill="#13D74E" d="M4.6,9.7c0,0.1,0,0.1,0,0.2c0,0.7,0,1.4,0,2c0,0.4-0.4,0.6-0.7,0.5c-0.2-0.1-0.3-0.3-0.3-0.5
			c0-0.7,0-1.3,0-2c0-0.1,0-0.1,0-0.2c-0.1,0-0.1,0-0.2,0c-0.7,0-1.4,0-2.1,0c-0.4,0-0.6-0.3-0.5-0.6C1,8.9,1.2,8.7,1.4,8.7
			c0.7,0,1.4,0,2.1,0c0.1,0,0.1,0,0.2,0c0-0.1,0-0.1,0-0.2c0-0.7,0-1.3,0-2C3.7,6.2,3.8,6,4.1,6c0.3,0,0.5,0.2,0.5,0.5
			c0,0.6,0,1.3,0,1.9c0,0.1,0,0.2,0,0.3c0.1,0,0.3,0,0.4,0c0.6,0,1.2,0,1.8,0c0.3,0,0.5,0.2,0.5,0.5c0,0.3-0.2,0.5-0.5,0.5
			c-0.7,0-1.3,0-2,0C4.8,9.7,4.7,9.7,4.6,9.7z"/>
	</g>
</g>
</svg>
